<?xml version="1.0" encoding="utf-8" standalone="no"?>
<!DOCTYPE svg PUBLIC "-//W3C//DTD SVG 1.1//EN"
  "http://www.w3.org/Graphics/SVG/1.1/DTD/svg11.dtd">
<svg height="345.6pt" version="1.1" viewBox="0 0 460.8 345.6" width="460.8pt" xmlns="http://www.w3.org/2000/svg" xmlns:xlink="http://www.w3.org/1999/xlink">
 <metadata>
  <rdf:RDF xmlns:cc="http://creativecommons.org/ns#" xmlns:dc="http://purl.org/dc/elements/1.1/" xmlns:rdf="http://www.w3.org/1999/02/22-rdf-syntax-ns#">
   <cc:Work>
    <dc:type rdf:resource="http://purl.org/dc/dcmitype/StillImage"/>
    <dc:date>2021-10-07T14:02:34.952702</dc:date>
    <dc:format>image/svg+xml</dc:format>
    <dc:creator>
     <cc:Agent>
      <dc:title>Matplotlib v3.4.2, https://matplotlib.org/</dc:title>
     </cc:Agent>
    </dc:creator>
   </cc:Work>
  </rdf:RDF>
 </metadata>
 <defs>
  <style type="text/css">*{stroke-linecap:butt;stroke-linejoin:round;}</style>
 </defs>
 <g id="figure_1">
  <g id="patch_1">
   <path d="M 0 345.6 
L 460.8 345.6 
L 460.8 0 
L 0 0 
z
" style="fill:#ffffff;"/>
  </g>
  <g id="axes_1">
   <g id="patch_2">
    <path d="M 57.6 307.584 
L 414.72 307.584 
L 414.72 41.472 
L 57.6 41.472 
z
" style="fill:#ffffff;"/>
   </g>
   <g id="matplotlib.axis_1">
    <g id="xtick_1">
     <g id="line2d_1">
      <defs>
       <path d="M 0 0 
L 0 3.5 
" id="m8847d14d79" style="stroke:#000000;stroke-width:0.8;"/>
      </defs>
      <g>
       <use style="stroke:#000000;stroke-width:0.8;" x="129.238248" xlink:href="#m8847d14d79" y="307.584"/>
      </g>
     </g>
     <g id="text_1">
      <!-- $\mathdefault{10^{1}}$ -->
      <g transform="translate(120.438248 322.182437)scale(0.1 -0.1)">
       <defs>
        <path d="M 794 531 
L 1825 531 
L 1825 4091 
L 703 3866 
L 703 4441 
L 1819 4666 
L 2450 4666 
L 2450 531 
L 3481 531 
L 3481 0 
L 794 0 
L 794 531 
z
" id="DejaVuSans-31" transform="scale(0.015625)"/>
        <path d="M 2034 4250 
Q 1547 4250 1301 3770 
Q 1056 3291 1056 2328 
Q 1056 1369 1301 889 
Q 1547 409 2034 409 
Q 2525 409 2770 889 
Q 3016 1369 3016 2328 
Q 3016 3291 2770 3770 
Q 2525 4250 2034 4250 
z
M 2034 4750 
Q 2819 4750 3233 4129 
Q 3647 3509 3647 2328 
Q 3647 1150 3233 529 
Q 2819 -91 2034 -91 
Q 1250 -91 836 529 
Q 422 1150 422 2328 
Q 422 3509 836 4129 
Q 1250 4750 2034 4750 
z
" id="DejaVuSans-30" transform="scale(0.015625)"/>
       </defs>
       <use transform="translate(0 0.684375)" xlink:href="#DejaVuSans-31"/>
       <use transform="translate(63.623047 0.684375)" xlink:href="#DejaVuSans-30"/>
       <use transform="translate(128.203125 38.965625)scale(0.7)" xlink:href="#DejaVuSans-31"/>
      </g>
     </g>
    </g>
    <g id="xtick_2">
     <g id="line2d_2">
      <g>
       <use style="stroke:#000000;stroke-width:0.8;" x="209.769543" xlink:href="#m8847d14d79" y="307.584"/>
      </g>
     </g>
     <g id="text_2">
      <!-- $\mathdefault{10^{2}}$ -->
      <g transform="translate(200.969543 322.182437)scale(0.1 -0.1)">
       <defs>
        <path d="M 1228 531 
L 3431 531 
L 3431 0 
L 469 0 
L 469 531 
Q 828 903 1448 1529 
Q 2069 2156 2228 2338 
Q 2531 2678 2651 2914 
Q 2772 3150 2772 3378 
Q 2772 3750 2511 3984 
Q 2250 4219 1831 4219 
Q 1534 4219 1204 4116 
Q 875 4013 500 3803 
L 500 4441 
Q 881 4594 1212 4672 
Q 1544 4750 1819 4750 
Q 2544 4750 2975 4387 
Q 3406 4025 3406 3419 
Q 3406 3131 3298 2873 
Q 3191 2616 2906 2266 
Q 2828 2175 2409 1742 
Q 1991 1309 1228 531 
z
" id="DejaVuSans-32" transform="scale(0.015625)"/>
       </defs>
       <use transform="translate(0 0.765625)" xlink:href="#DejaVuSans-31"/>
       <use transform="translate(63.623047 0.765625)" xlink:href="#DejaVuSans-30"/>
       <use transform="translate(128.203125 39.046875)scale(0.7)" xlink:href="#DejaVuSans-32"/>
      </g>
     </g>
    </g>
    <g id="xtick_3">
     <g id="line2d_3">
      <g>
       <use style="stroke:#000000;stroke-width:0.8;" x="290.300839" xlink:href="#m8847d14d79" y="307.584"/>
      </g>
     </g>
     <g id="text_3">
      <!-- $\mathdefault{10^{3}}$ -->
      <g transform="translate(281.500839 322.182437)scale(0.1 -0.1)">
       <defs>
        <path d="M 2597 2516 
Q 3050 2419 3304 2112 
Q 3559 1806 3559 1356 
Q 3559 666 3084 287 
Q 2609 -91 1734 -91 
Q 1441 -91 1130 -33 
Q 819 25 488 141 
L 488 750 
Q 750 597 1062 519 
Q 1375 441 1716 441 
Q 2309 441 2620 675 
Q 2931 909 2931 1356 
Q 2931 1769 2642 2001 
Q 2353 2234 1838 2234 
L 1294 2234 
L 1294 2753 
L 1863 2753 
Q 2328 2753 2575 2939 
Q 2822 3125 2822 3475 
Q 2822 3834 2567 4026 
Q 2313 4219 1838 4219 
Q 1578 4219 1281 4162 
Q 984 4106 628 3988 
L 628 4550 
Q 988 4650 1302 4700 
Q 1616 4750 1894 4750 
Q 2613 4750 3031 4423 
Q 3450 4097 3450 3541 
Q 3450 3153 3228 2886 
Q 3006 2619 2597 2516 
z
" id="DejaVuSans-33" transform="scale(0.015625)"/>
       </defs>
       <use transform="translate(0 0.765625)" xlink:href="#DejaVuSans-31"/>
       <use transform="translate(63.623047 0.765625)" xlink:href="#DejaVuSans-30"/>
       <use transform="translate(128.203125 39.046875)scale(0.7)" xlink:href="#DejaVuSans-33"/>
      </g>
     </g>
    </g>
    <g id="xtick_4">
     <g id="line2d_4">
      <g>
       <use style="stroke:#000000;stroke-width:0.8;" x="370.832134" xlink:href="#m8847d14d79" y="307.584"/>
      </g>
     </g>
     <g id="text_4">
      <!-- $\mathdefault{10^{4}}$ -->
      <g transform="translate(362.032134 322.182437)scale(0.1 -0.1)">
       <defs>
        <path d="M 2419 4116 
L 825 1625 
L 2419 1625 
L 2419 4116 
z
M 2253 4666 
L 3047 4666 
L 3047 1625 
L 3713 1625 
L 3713 1100 
L 3047 1100 
L 3047 0 
L 2419 0 
L 2419 1100 
L 313 1100 
L 313 1709 
L 2253 4666 
z
" id="DejaVuSans-34" transform="scale(0.015625)"/>
       </defs>
       <use transform="translate(0 0.684375)" xlink:href="#DejaVuSans-31"/>
       <use transform="translate(63.623047 0.684375)" xlink:href="#DejaVuSans-30"/>
       <use transform="translate(128.203125 38.965625)scale(0.7)" xlink:href="#DejaVuSans-34"/>
      </g>
     </g>
    </g>
    <g id="xtick_5">
     <g id="line2d_5">
      <defs>
       <path d="M 0 0 
L 0 2 
" id="mbd484afc83" style="stroke:#000000;stroke-width:0.6;"/>
      </defs>
      <g>
       <use style="stroke:#000000;stroke-width:0.6;" x="72.949288" xlink:href="#mbd484afc83" y="307.584"/>
      </g>
     </g>
    </g>
    <g id="xtick_6">
     <g id="line2d_6">
      <g>
       <use style="stroke:#000000;stroke-width:0.6;" x="87.130145" xlink:href="#mbd484afc83" y="307.584"/>
      </g>
     </g>
    </g>
    <g id="xtick_7">
     <g id="line2d_7">
      <g>
       <use style="stroke:#000000;stroke-width:0.6;" x="97.191624" xlink:href="#mbd484afc83" y="307.584"/>
      </g>
     </g>
    </g>
    <g id="xtick_8">
     <g id="line2d_8">
      <g>
       <use style="stroke:#000000;stroke-width:0.6;" x="104.995913" xlink:href="#mbd484afc83" y="307.584"/>
      </g>
     </g>
    </g>
    <g id="xtick_9">
     <g id="line2d_9">
      <g>
       <use style="stroke:#000000;stroke-width:0.6;" x="111.372481" xlink:href="#mbd484afc83" y="307.584"/>
      </g>
     </g>
    </g>
    <g id="xtick_10">
     <g id="line2d_10">
      <g>
       <use style="stroke:#000000;stroke-width:0.6;" x="116.763793" xlink:href="#mbd484afc83" y="307.584"/>
      </g>
     </g>
    </g>
    <g id="xtick_11">
     <g id="line2d_11">
      <g>
       <use style="stroke:#000000;stroke-width:0.6;" x="121.433959" xlink:href="#mbd484afc83" y="307.584"/>
      </g>
     </g>
    </g>
    <g id="xtick_12">
     <g id="line2d_12">
      <g>
       <use style="stroke:#000000;stroke-width:0.6;" x="125.553338" xlink:href="#mbd484afc83" y="307.584"/>
      </g>
     </g>
    </g>
    <g id="xtick_13">
     <g id="line2d_13">
      <g>
       <use style="stroke:#000000;stroke-width:0.6;" x="153.480583" xlink:href="#mbd484afc83" y="307.584"/>
      </g>
     </g>
    </g>
    <g id="xtick_14">
     <g id="line2d_14">
      <g>
       <use style="stroke:#000000;stroke-width:0.6;" x="167.661441" xlink:href="#mbd484afc83" y="307.584"/>
      </g>
     </g>
    </g>
    <g id="xtick_15">
     <g id="line2d_15">
      <g>
       <use style="stroke:#000000;stroke-width:0.6;" x="177.722919" xlink:href="#mbd484afc83" y="307.584"/>
      </g>
     </g>
    </g>
    <g id="xtick_16">
     <g id="line2d_16">
      <g>
       <use style="stroke:#000000;stroke-width:0.6;" x="185.527208" xlink:href="#mbd484afc83" y="307.584"/>
      </g>
     </g>
    </g>
    <g id="xtick_17">
     <g id="line2d_17">
      <g>
       <use style="stroke:#000000;stroke-width:0.6;" x="191.903776" xlink:href="#mbd484afc83" y="307.584"/>
      </g>
     </g>
    </g>
    <g id="xtick_18">
     <g id="line2d_18">
      <g>
       <use style="stroke:#000000;stroke-width:0.6;" x="197.295088" xlink:href="#mbd484afc83" y="307.584"/>
      </g>
     </g>
    </g>
    <g id="xtick_19">
     <g id="line2d_19">
      <g>
       <use style="stroke:#000000;stroke-width:0.6;" x="201.965254" xlink:href="#mbd484afc83" y="307.584"/>
      </g>
     </g>
    </g>
    <g id="xtick_20">
     <g id="line2d_20">
      <g>
       <use style="stroke:#000000;stroke-width:0.6;" x="206.084633" xlink:href="#mbd484afc83" y="307.584"/>
      </g>
     </g>
    </g>
    <g id="xtick_21">
     <g id="line2d_21">
      <g>
       <use style="stroke:#000000;stroke-width:0.6;" x="234.011879" xlink:href="#mbd484afc83" y="307.584"/>
      </g>
     </g>
    </g>
    <g id="xtick_22">
     <g id="line2d_22">
      <g>
       <use style="stroke:#000000;stroke-width:0.6;" x="248.192736" xlink:href="#mbd484afc83" y="307.584"/>
      </g>
     </g>
    </g>
    <g id="xtick_23">
     <g id="line2d_23">
      <g>
       <use style="stroke:#000000;stroke-width:0.6;" x="258.254214" xlink:href="#mbd484afc83" y="307.584"/>
      </g>
     </g>
    </g>
    <g id="xtick_24">
     <g id="line2d_24">
      <g>
       <use style="stroke:#000000;stroke-width:0.6;" x="266.058503" xlink:href="#mbd484afc83" y="307.584"/>
      </g>
     </g>
    </g>
    <g id="xtick_25">
     <g id="line2d_25">
      <g>
       <use style="stroke:#000000;stroke-width:0.6;" x="272.435071" xlink:href="#mbd484afc83" y="307.584"/>
      </g>
     </g>
    </g>
    <g id="xtick_26">
     <g id="line2d_26">
      <g>
       <use style="stroke:#000000;stroke-width:0.6;" x="277.826383" xlink:href="#mbd484afc83" y="307.584"/>
      </g>
     </g>
    </g>
    <g id="xtick_27">
     <g id="line2d_27">
      <g>
       <use style="stroke:#000000;stroke-width:0.6;" x="282.49655" xlink:href="#mbd484afc83" y="307.584"/>
      </g>
     </g>
    </g>
    <g id="xtick_28">
     <g id="line2d_28">
      <g>
       <use style="stroke:#000000;stroke-width:0.6;" x="286.615929" xlink:href="#mbd484afc83" y="307.584"/>
      </g>
     </g>
    </g>
    <g id="xtick_29">
     <g id="line2d_29">
      <g>
       <use style="stroke:#000000;stroke-width:0.6;" x="314.543174" xlink:href="#mbd484afc83" y="307.584"/>
      </g>
     </g>
    </g>
    <g id="xtick_30">
     <g id="line2d_30">
      <g>
       <use style="stroke:#000000;stroke-width:0.6;" x="328.724031" xlink:href="#mbd484afc83" y="307.584"/>
      </g>
     </g>
    </g>
    <g id="xtick_31">
     <g id="line2d_31">
      <g>
       <use style="stroke:#000000;stroke-width:0.6;" x="338.78551" xlink:href="#mbd484afc83" y="307.584"/>
      </g>
     </g>
    </g>
    <g id="xtick_32">
     <g id="line2d_32">
      <g>
       <use style="stroke:#000000;stroke-width:0.6;" x="346.589798" xlink:href="#mbd484afc83" y="307.584"/>
      </g>
     </g>
    </g>
    <g id="xtick_33">
     <g id="line2d_33">
      <g>
       <use style="stroke:#000000;stroke-width:0.6;" x="352.966367" xlink:href="#mbd484afc83" y="307.584"/>
      </g>
     </g>
    </g>
    <g id="xtick_34">
     <g id="line2d_34">
      <g>
       <use style="stroke:#000000;stroke-width:0.6;" x="358.357678" xlink:href="#mbd484afc83" y="307.584"/>
      </g>
     </g>
    </g>
    <g id="xtick_35">
     <g id="line2d_35">
      <g>
       <use style="stroke:#000000;stroke-width:0.6;" x="363.027845" xlink:href="#mbd484afc83" y="307.584"/>
      </g>
     </g>
    </g>
    <g id="xtick_36">
     <g id="line2d_36">
      <g>
       <use style="stroke:#000000;stroke-width:0.6;" x="367.147224" xlink:href="#mbd484afc83" y="307.584"/>
      </g>
     </g>
    </g>
    <g id="xtick_37">
     <g id="line2d_37">
      <g>
       <use style="stroke:#000000;stroke-width:0.6;" x="395.074469" xlink:href="#mbd484afc83" y="307.584"/>
      </g>
     </g>
    </g>
    <g id="xtick_38">
     <g id="line2d_38">
      <g>
       <use style="stroke:#000000;stroke-width:0.6;" x="409.255327" xlink:href="#mbd484afc83" y="307.584"/>
      </g>
     </g>
    </g>
    <g id="text_5">
     <!-- Frequency (Hz) -->
     <g transform="translate(198.455312 335.860562)scale(0.1 -0.1)">
      <defs>
       <path d="M 628 4666 
L 3309 4666 
L 3309 4134 
L 1259 4134 
L 1259 2759 
L 3109 2759 
L 3109 2228 
L 1259 2228 
L 1259 0 
L 628 0 
L 628 4666 
z
" id="DejaVuSans-46" transform="scale(0.015625)"/>
       <path d="M 2631 2963 
Q 2534 3019 2420 3045 
Q 2306 3072 2169 3072 
Q 1681 3072 1420 2755 
Q 1159 2438 1159 1844 
L 1159 0 
L 581 0 
L 581 3500 
L 1159 3500 
L 1159 2956 
Q 1341 3275 1631 3429 
Q 1922 3584 2338 3584 
Q 2397 3584 2469 3576 
Q 2541 3569 2628 3553 
L 2631 2963 
z
" id="DejaVuSans-72" transform="scale(0.015625)"/>
       <path d="M 3597 1894 
L 3597 1613 
L 953 1613 
Q 991 1019 1311 708 
Q 1631 397 2203 397 
Q 2534 397 2845 478 
Q 3156 559 3463 722 
L 3463 178 
Q 3153 47 2828 -22 
Q 2503 -91 2169 -91 
Q 1331 -91 842 396 
Q 353 884 353 1716 
Q 353 2575 817 3079 
Q 1281 3584 2069 3584 
Q 2775 3584 3186 3129 
Q 3597 2675 3597 1894 
z
M 3022 2063 
Q 3016 2534 2758 2815 
Q 2500 3097 2075 3097 
Q 1594 3097 1305 2825 
Q 1016 2553 972 2059 
L 3022 2063 
z
" id="DejaVuSans-65" transform="scale(0.015625)"/>
       <path d="M 947 1747 
Q 947 1113 1208 752 
Q 1469 391 1925 391 
Q 2381 391 2643 752 
Q 2906 1113 2906 1747 
Q 2906 2381 2643 2742 
Q 2381 3103 1925 3103 
Q 1469 3103 1208 2742 
Q 947 2381 947 1747 
z
M 2906 525 
Q 2725 213 2448 61 
Q 2172 -91 1784 -91 
Q 1150 -91 751 415 
Q 353 922 353 1747 
Q 353 2572 751 3078 
Q 1150 3584 1784 3584 
Q 2172 3584 2448 3432 
Q 2725 3281 2906 2969 
L 2906 3500 
L 3481 3500 
L 3481 -1331 
L 2906 -1331 
L 2906 525 
z
" id="DejaVuSans-71" transform="scale(0.015625)"/>
       <path d="M 544 1381 
L 544 3500 
L 1119 3500 
L 1119 1403 
Q 1119 906 1312 657 
Q 1506 409 1894 409 
Q 2359 409 2629 706 
Q 2900 1003 2900 1516 
L 2900 3500 
L 3475 3500 
L 3475 0 
L 2900 0 
L 2900 538 
Q 2691 219 2414 64 
Q 2138 -91 1772 -91 
Q 1169 -91 856 284 
Q 544 659 544 1381 
z
M 1991 3584 
L 1991 3584 
z
" id="DejaVuSans-75" transform="scale(0.015625)"/>
       <path d="M 3513 2113 
L 3513 0 
L 2938 0 
L 2938 2094 
Q 2938 2591 2744 2837 
Q 2550 3084 2163 3084 
Q 1697 3084 1428 2787 
Q 1159 2491 1159 1978 
L 1159 0 
L 581 0 
L 581 3500 
L 1159 3500 
L 1159 2956 
Q 1366 3272 1645 3428 
Q 1925 3584 2291 3584 
Q 2894 3584 3203 3211 
Q 3513 2838 3513 2113 
z
" id="DejaVuSans-6e" transform="scale(0.015625)"/>
       <path d="M 3122 3366 
L 3122 2828 
Q 2878 2963 2633 3030 
Q 2388 3097 2138 3097 
Q 1578 3097 1268 2742 
Q 959 2388 959 1747 
Q 959 1106 1268 751 
Q 1578 397 2138 397 
Q 2388 397 2633 464 
Q 2878 531 3122 666 
L 3122 134 
Q 2881 22 2623 -34 
Q 2366 -91 2075 -91 
Q 1284 -91 818 406 
Q 353 903 353 1747 
Q 353 2603 823 3093 
Q 1294 3584 2113 3584 
Q 2378 3584 2631 3529 
Q 2884 3475 3122 3366 
z
" id="DejaVuSans-63" transform="scale(0.015625)"/>
       <path d="M 2059 -325 
Q 1816 -950 1584 -1140 
Q 1353 -1331 966 -1331 
L 506 -1331 
L 506 -850 
L 844 -850 
Q 1081 -850 1212 -737 
Q 1344 -625 1503 -206 
L 1606 56 
L 191 3500 
L 800 3500 
L 1894 763 
L 2988 3500 
L 3597 3500 
L 2059 -325 
z
" id="DejaVuSans-79" transform="scale(0.015625)"/>
       <path id="DejaVuSans-20" transform="scale(0.015625)"/>
       <path d="M 1984 4856 
Q 1566 4138 1362 3434 
Q 1159 2731 1159 2009 
Q 1159 1288 1364 580 
Q 1569 -128 1984 -844 
L 1484 -844 
Q 1016 -109 783 600 
Q 550 1309 550 2009 
Q 550 2706 781 3412 
Q 1013 4119 1484 4856 
L 1984 4856 
z
" id="DejaVuSans-28" transform="scale(0.015625)"/>
       <path d="M 628 4666 
L 1259 4666 
L 1259 2753 
L 3553 2753 
L 3553 4666 
L 4184 4666 
L 4184 0 
L 3553 0 
L 3553 2222 
L 1259 2222 
L 1259 0 
L 628 0 
L 628 4666 
z
" id="DejaVuSans-48" transform="scale(0.015625)"/>
       <path d="M 353 3500 
L 3084 3500 
L 3084 2975 
L 922 459 
L 3084 459 
L 3084 0 
L 275 0 
L 275 525 
L 2438 3041 
L 353 3041 
L 353 3500 
z
" id="DejaVuSans-7a" transform="scale(0.015625)"/>
       <path d="M 513 4856 
L 1013 4856 
Q 1481 4119 1714 3412 
Q 1947 2706 1947 2009 
Q 1947 1309 1714 600 
Q 1481 -109 1013 -844 
L 513 -844 
Q 928 -128 1133 580 
Q 1338 1288 1338 2009 
Q 1338 2731 1133 3434 
Q 928 4138 513 4856 
z
" id="DejaVuSans-29" transform="scale(0.015625)"/>
      </defs>
      <use xlink:href="#DejaVuSans-46"/>
      <use x="50.269531" xlink:href="#DejaVuSans-72"/>
      <use x="89.132812" xlink:href="#DejaVuSans-65"/>
      <use x="150.65625" xlink:href="#DejaVuSans-71"/>
      <use x="214.132812" xlink:href="#DejaVuSans-75"/>
      <use x="277.511719" xlink:href="#DejaVuSans-65"/>
      <use x="339.035156" xlink:href="#DejaVuSans-6e"/>
      <use x="402.414062" xlink:href="#DejaVuSans-63"/>
      <use x="457.394531" xlink:href="#DejaVuSans-79"/>
      <use x="516.574219" xlink:href="#DejaVuSans-20"/>
      <use x="548.361328" xlink:href="#DejaVuSans-28"/>
      <use x="587.375" xlink:href="#DejaVuSans-48"/>
      <use x="662.570312" xlink:href="#DejaVuSans-7a"/>
      <use x="715.060547" xlink:href="#DejaVuSans-29"/>
     </g>
    </g>
   </g>
   <g id="matplotlib.axis_2">
    <g id="ytick_1">
     <g id="line2d_39">
      <defs>
       <path d="M 0 0 
L -3.5 0 
" id="ma529d43ddd" style="stroke:#000000;stroke-width:0.8;"/>
      </defs>
      <g>
       <use style="stroke:#000000;stroke-width:0.8;" x="57.6" xlink:href="#ma529d43ddd" y="292.478889"/>
      </g>
     </g>
     <g id="text_6">
      <!-- −140 -->
      <g transform="translate(23.132812 296.278108)scale(0.1 -0.1)">
       <defs>
        <path d="M 678 2272 
L 4684 2272 
L 4684 1741 
L 678 1741 
L 678 2272 
z
" id="DejaVuSans-2212" transform="scale(0.015625)"/>
       </defs>
       <use xlink:href="#DejaVuSans-2212"/>
       <use x="83.789062" xlink:href="#DejaVuSans-31"/>
       <use x="147.412109" xlink:href="#DejaVuSans-34"/>
       <use x="211.035156" xlink:href="#DejaVuSans-30"/>
      </g>
     </g>
    </g>
    <g id="ytick_2">
     <g id="line2d_40">
      <g>
       <use style="stroke:#000000;stroke-width:0.8;" x="57.6" xlink:href="#ma529d43ddd" y="258.348762"/>
      </g>
     </g>
     <g id="text_7">
      <!-- −120 -->
      <g transform="translate(23.132812 262.147981)scale(0.1 -0.1)">
       <use xlink:href="#DejaVuSans-2212"/>
       <use x="83.789062" xlink:href="#DejaVuSans-31"/>
       <use x="147.412109" xlink:href="#DejaVuSans-32"/>
       <use x="211.035156" xlink:href="#DejaVuSans-30"/>
      </g>
     </g>
    </g>
    <g id="ytick_3">
     <g id="line2d_41">
      <g>
       <use style="stroke:#000000;stroke-width:0.8;" x="57.6" xlink:href="#ma529d43ddd" y="224.218635"/>
      </g>
     </g>
     <g id="text_8">
      <!-- −100 -->
      <g transform="translate(23.132812 228.017854)scale(0.1 -0.1)">
       <use xlink:href="#DejaVuSans-2212"/>
       <use x="83.789062" xlink:href="#DejaVuSans-31"/>
       <use x="147.412109" xlink:href="#DejaVuSans-30"/>
       <use x="211.035156" xlink:href="#DejaVuSans-30"/>
      </g>
     </g>
    </g>
    <g id="ytick_4">
     <g id="line2d_42">
      <g>
       <use style="stroke:#000000;stroke-width:0.8;" x="57.6" xlink:href="#ma529d43ddd" y="190.088508"/>
      </g>
     </g>
     <g id="text_9">
      <!-- −80 -->
      <g transform="translate(29.495313 193.887727)scale(0.1 -0.1)">
       <defs>
        <path d="M 2034 2216 
Q 1584 2216 1326 1975 
Q 1069 1734 1069 1313 
Q 1069 891 1326 650 
Q 1584 409 2034 409 
Q 2484 409 2743 651 
Q 3003 894 3003 1313 
Q 3003 1734 2745 1975 
Q 2488 2216 2034 2216 
z
M 1403 2484 
Q 997 2584 770 2862 
Q 544 3141 544 3541 
Q 544 4100 942 4425 
Q 1341 4750 2034 4750 
Q 2731 4750 3128 4425 
Q 3525 4100 3525 3541 
Q 3525 3141 3298 2862 
Q 3072 2584 2669 2484 
Q 3125 2378 3379 2068 
Q 3634 1759 3634 1313 
Q 3634 634 3220 271 
Q 2806 -91 2034 -91 
Q 1263 -91 848 271 
Q 434 634 434 1313 
Q 434 1759 690 2068 
Q 947 2378 1403 2484 
z
M 1172 3481 
Q 1172 3119 1398 2916 
Q 1625 2713 2034 2713 
Q 2441 2713 2670 2916 
Q 2900 3119 2900 3481 
Q 2900 3844 2670 4047 
Q 2441 4250 2034 4250 
Q 1625 4250 1398 4047 
Q 1172 3844 1172 3481 
z
" id="DejaVuSans-38" transform="scale(0.015625)"/>
       </defs>
       <use xlink:href="#DejaVuSans-2212"/>
       <use x="83.789062" xlink:href="#DejaVuSans-38"/>
       <use x="147.412109" xlink:href="#DejaVuSans-30"/>
      </g>
     </g>
    </g>
    <g id="ytick_5">
     <g id="line2d_43">
      <g>
       <use style="stroke:#000000;stroke-width:0.8;" x="57.6" xlink:href="#ma529d43ddd" y="155.958381"/>
      </g>
     </g>
     <g id="text_10">
      <!-- −60 -->
      <g transform="translate(29.495313 159.7576)scale(0.1 -0.1)">
       <defs>
        <path d="M 2113 2584 
Q 1688 2584 1439 2293 
Q 1191 2003 1191 1497 
Q 1191 994 1439 701 
Q 1688 409 2113 409 
Q 2538 409 2786 701 
Q 3034 994 3034 1497 
Q 3034 2003 2786 2293 
Q 2538 2584 2113 2584 
z
M 3366 4563 
L 3366 3988 
Q 3128 4100 2886 4159 
Q 2644 4219 2406 4219 
Q 1781 4219 1451 3797 
Q 1122 3375 1075 2522 
Q 1259 2794 1537 2939 
Q 1816 3084 2150 3084 
Q 2853 3084 3261 2657 
Q 3669 2231 3669 1497 
Q 3669 778 3244 343 
Q 2819 -91 2113 -91 
Q 1303 -91 875 529 
Q 447 1150 447 2328 
Q 447 3434 972 4092 
Q 1497 4750 2381 4750 
Q 2619 4750 2861 4703 
Q 3103 4656 3366 4563 
z
" id="DejaVuSans-36" transform="scale(0.015625)"/>
       </defs>
       <use xlink:href="#DejaVuSans-2212"/>
       <use x="83.789062" xlink:href="#DejaVuSans-36"/>
       <use x="147.412109" xlink:href="#DejaVuSans-30"/>
      </g>
     </g>
    </g>
    <g id="ytick_6">
     <g id="line2d_44">
      <g>
       <use style="stroke:#000000;stroke-width:0.8;" x="57.6" xlink:href="#ma529d43ddd" y="121.828254"/>
      </g>
     </g>
     <g id="text_11">
      <!-- −40 -->
      <g transform="translate(29.495313 125.627473)scale(0.1 -0.1)">
       <use xlink:href="#DejaVuSans-2212"/>
       <use x="83.789062" xlink:href="#DejaVuSans-34"/>
       <use x="147.412109" xlink:href="#DejaVuSans-30"/>
      </g>
     </g>
    </g>
    <g id="ytick_7">
     <g id="line2d_45">
      <g>
       <use style="stroke:#000000;stroke-width:0.8;" x="57.6" xlink:href="#ma529d43ddd" y="87.698127"/>
      </g>
     </g>
     <g id="text_12">
      <!-- −20 -->
      <g transform="translate(29.495313 91.497346)scale(0.1 -0.1)">
       <use xlink:href="#DejaVuSans-2212"/>
       <use x="83.789062" xlink:href="#DejaVuSans-32"/>
       <use x="147.412109" xlink:href="#DejaVuSans-30"/>
      </g>
     </g>
    </g>
    <g id="ytick_8">
     <g id="line2d_46">
      <g>
       <use style="stroke:#000000;stroke-width:0.8;" x="57.6" xlink:href="#ma529d43ddd" y="53.568"/>
      </g>
     </g>
     <g id="text_13">
      <!-- 0 -->
      <g transform="translate(44.2375 57.367219)scale(0.1 -0.1)">
       <use xlink:href="#DejaVuSans-30"/>
      </g>
     </g>
    </g>
    <g id="text_14">
     <!-- Volume (dB) -->
     <g transform="translate(17.053125 205.220188)rotate(-90)scale(0.1 -0.1)">
      <defs>
       <path d="M 1831 0 
L 50 4666 
L 709 4666 
L 2188 738 
L 3669 4666 
L 4325 4666 
L 2547 0 
L 1831 0 
z
" id="DejaVuSans-56" transform="scale(0.015625)"/>
       <path d="M 1959 3097 
Q 1497 3097 1228 2736 
Q 959 2375 959 1747 
Q 959 1119 1226 758 
Q 1494 397 1959 397 
Q 2419 397 2687 759 
Q 2956 1122 2956 1747 
Q 2956 2369 2687 2733 
Q 2419 3097 1959 3097 
z
M 1959 3584 
Q 2709 3584 3137 3096 
Q 3566 2609 3566 1747 
Q 3566 888 3137 398 
Q 2709 -91 1959 -91 
Q 1206 -91 779 398 
Q 353 888 353 1747 
Q 353 2609 779 3096 
Q 1206 3584 1959 3584 
z
" id="DejaVuSans-6f" transform="scale(0.015625)"/>
       <path d="M 603 4863 
L 1178 4863 
L 1178 0 
L 603 0 
L 603 4863 
z
" id="DejaVuSans-6c" transform="scale(0.015625)"/>
       <path d="M 3328 2828 
Q 3544 3216 3844 3400 
Q 4144 3584 4550 3584 
Q 5097 3584 5394 3201 
Q 5691 2819 5691 2113 
L 5691 0 
L 5113 0 
L 5113 2094 
Q 5113 2597 4934 2840 
Q 4756 3084 4391 3084 
Q 3944 3084 3684 2787 
Q 3425 2491 3425 1978 
L 3425 0 
L 2847 0 
L 2847 2094 
Q 2847 2600 2669 2842 
Q 2491 3084 2119 3084 
Q 1678 3084 1418 2786 
Q 1159 2488 1159 1978 
L 1159 0 
L 581 0 
L 581 3500 
L 1159 3500 
L 1159 2956 
Q 1356 3278 1631 3431 
Q 1906 3584 2284 3584 
Q 2666 3584 2933 3390 
Q 3200 3197 3328 2828 
z
" id="DejaVuSans-6d" transform="scale(0.015625)"/>
       <path d="M 2906 2969 
L 2906 4863 
L 3481 4863 
L 3481 0 
L 2906 0 
L 2906 525 
Q 2725 213 2448 61 
Q 2172 -91 1784 -91 
Q 1150 -91 751 415 
Q 353 922 353 1747 
Q 353 2572 751 3078 
Q 1150 3584 1784 3584 
Q 2172 3584 2448 3432 
Q 2725 3281 2906 2969 
z
M 947 1747 
Q 947 1113 1208 752 
Q 1469 391 1925 391 
Q 2381 391 2643 752 
Q 2906 1113 2906 1747 
Q 2906 2381 2643 2742 
Q 2381 3103 1925 3103 
Q 1469 3103 1208 2742 
Q 947 2381 947 1747 
z
" id="DejaVuSans-64" transform="scale(0.015625)"/>
       <path d="M 1259 2228 
L 1259 519 
L 2272 519 
Q 2781 519 3026 730 
Q 3272 941 3272 1375 
Q 3272 1813 3026 2020 
Q 2781 2228 2272 2228 
L 1259 2228 
z
M 1259 4147 
L 1259 2741 
L 2194 2741 
Q 2656 2741 2882 2914 
Q 3109 3088 3109 3444 
Q 3109 3797 2882 3972 
Q 2656 4147 2194 4147 
L 1259 4147 
z
M 628 4666 
L 2241 4666 
Q 2963 4666 3353 4366 
Q 3744 4066 3744 3513 
Q 3744 3084 3544 2831 
Q 3344 2578 2956 2516 
Q 3422 2416 3680 2098 
Q 3938 1781 3938 1306 
Q 3938 681 3513 340 
Q 3088 0 2303 0 
L 628 0 
L 628 4666 
z
" id="DejaVuSans-42" transform="scale(0.015625)"/>
      </defs>
      <use xlink:href="#DejaVuSans-56"/>
      <use x="60.658203" xlink:href="#DejaVuSans-6f"/>
      <use x="121.839844" xlink:href="#DejaVuSans-6c"/>
      <use x="149.623047" xlink:href="#DejaVuSans-75"/>
      <use x="213.001953" xlink:href="#DejaVuSans-6d"/>
      <use x="310.414062" xlink:href="#DejaVuSans-65"/>
      <use x="371.9375" xlink:href="#DejaVuSans-20"/>
      <use x="403.724609" xlink:href="#DejaVuSans-28"/>
      <use x="442.738281" xlink:href="#DejaVuSans-64"/>
      <use x="506.214844" xlink:href="#DejaVuSans-42"/>
      <use x="574.818359" xlink:href="#DejaVuSans-29"/>
     </g>
    </g>
   </g>
   <g id="line2d_47">
    <path clip-path="url(#p4c704dd779)" d="M -1 164.461707 
L 73.832727 164.447293 
L 98.075063 133.697628 
L 112.25592 146.758633 
L 122.317398 165.118042 
L 130.121687 152.677869 
L 136.498255 156.890393 
L 141.889567 162.537019 
L 146.559734 152.310618 
L 150.679113 140.672797 
L 154.364023 139.640709 
L 157.697429 158.930017 
L 160.740591 153.938174 
L 163.540028 131.396608 
L 166.131903 134.259276 
L 168.54488 137.410693 
L 170.802069 150.93803 
L 172.922373 149.059642 
L 174.921448 136.773162 
L 176.812411 152.210538 
L 178.606358 141.237016 
L 180.31276 173.077531 
L 181.939765 139.374725 
L 183.494434 130.684176 
L 184.982926 126.58437 
L 186.410647 129.591762 
L 187.782364 113.710906 
L 189.102305 109.922523 
L 190.374238 125.387895 
L 191.601532 114.129683 
L 192.787215 120.823881 
L 193.934016 117.839019 
L 195.044405 114.487285 
L 196.120622 131.569603 
L 197.164708 135.215915 
L 198.178527 114.576792 
L 199.163784 125.26705 
L 200.122043 111.64331 
L 201.054747 109.954277 
L 201.963221 106.01701 
L 202.848694 107.857867 
L 203.7123 134.570101 
L 204.555095 107.428096 
L 205.378058 110.461479 
L 206.1821 97.501993 
L 206.968072 126.224747 
L 207.736769 90.704616 
L 208.488934 98.985003 
L 209.225262 85.593958 
L 209.946407 79.434526 
L 210.652982 87.332703 
L 211.345565 70.057768 
L 212.024699 75.419229 
L 212.690896 69.788004 
L 213.344641 59.83156 
L 213.986389 62.673624 
L 214.616573 72.815249 
L 215.843868 97.488831 
L 216.441734 104.604387 
L 217.029551 96.527926 
L 217.607651 92.643444 
L 218.176352 109.575668 
L 218.735952 102.072867 
L 219.28674 104.450566 
L 219.828988 101.646653 
L 220.362957 112.384188 
L 220.888896 132.143232 
L 221.407044 111.626926 
L 221.917626 121.00924 
L 222.91696 101.457077 
L 223.406119 114.373518 
L 223.888531 104.611595 
L 224.364379 113.303307 
L 224.83384 107.108743 
L 225.297082 106.649689 
L 225.754269 112.446081 
L 226.205556 102.60668 
L 226.651095 140.206844 
L 227.091029 98.491527 
L 227.525498 103.691499 
L 227.954636 106.801421 
L 228.378572 102.344383 
L 228.797431 122.784128 
L 229.211333 98.580115 
L 229.620393 102.103166 
L 230.024725 100.018856 
L 230.424436 89.105718 
L 230.81963 110.192828 
L 231.210408 85.120372 
L 231.596868 89.471696 
L 231.979105 89.828498 
L 232.357209 84.536187 
L 232.731269 101.485128 
L 233.101371 81.928798 
L 233.467597 93.301993 
L 233.830028 79.761935 
L 234.188742 81.131673 
L 234.543814 89.030255 
L 234.895318 78.12819 
L 235.243324 97.122026 
L 235.587901 79.206775 
L 235.929116 77.14442 
L 236.267035 97.030157 
L 236.60172 71.68573 
L 236.933232 68.939985 
L 237.261632 84.575619 
L 237.586976 65.333412 
L 237.909322 56.4505 
L 238.228724 57.051895 
L 238.545236 65.29009 
L 238.858909 78.181756 
L 239.169794 79.815695 
L 239.477939 84.020132 
L 239.783394 90.766265 
L 240.086203 92.664578 
L 240.684069 104.429538 
L 240.979213 94.496569 
L 241.271886 95.401601 
L 241.562131 107.698899 
L 241.849987 100.237159 
L 242.135493 97.34586 
L 242.418687 101.979037 
L 242.699607 99.140435 
L 242.978288 100.044176 
L 243.254766 102.480223 
L 243.529076 102.7964 
L 243.80125 101.349111 
L 244.071324 103.471119 
L 244.339327 102.801307 
L 244.605293 100.338918 
L 244.869251 104.518392 
L 245.131232 96.361769 
L 245.391265 95.3826 
L 245.649379 98.242547 
L 245.905602 95.793936 
L 246.159962 100.049907 
L 246.412485 94.714441 
L 246.663198 98.071104 
L 246.912126 96.863479 
L 247.159295 94.011447 
L 247.40473 100.668162 
L 247.648454 92.583319 
L 247.890492 94.409328 
L 248.130866 93.965003 
L 248.3696 92.524124 
L 248.606714 99.666631 
L 248.842232 89.956858 
L 249.076175 94.30861 
L 249.308563 93.334266 
L 249.539418 89.636311 
L 249.768758 104.789611 
L 249.996604 86.990146 
L 250.222976 87.514252 
L 250.447892 94.740993 
L 250.671371 79.417109 
L 250.89343 79.054774 
L 251.114089 82.064671 
L 251.333364 72.939044 
L 251.551274 77.498196 
L 251.767833 90.268734 
L 251.98306 76.255306 
L 252.196971 73.25152 
L 252.409582 74.744804 
L 252.620907 78.910444 
L 253.247329 96.941776 
L 253.658796 107.68168 
L 253.862729 101.133765 
L 254.065479 100.502494 
L 254.26706 116.46435 
L 254.467487 100.656846 
L 254.666771 95.341988 
L 254.864926 102.497909 
L 255.061965 95.077708 
L 255.2579 96.214194 
L 255.452743 98.929805 
L 255.646507 99.204634 
L 255.839204 100.553124 
L 256.030844 99.721424 
L 256.22144 100.930838 
L 256.411003 95.091696 
L 256.599544 96.752712 
L 256.787075 95.829731 
L 256.973605 90.101586 
L 257.159145 91.175565 
L 257.343706 84.905189 
L 257.709933 85.805524 
L 257.891618 81.102716 
L 258.072364 86.543226 
L 258.252181 80.942482 
L 258.431078 79.595098 
L 258.609064 83.846456 
L 258.78615 79.493603 
L 258.962343 83.990269 
L 259.312089 77.734497 
L 259.485659 78.427171 
L 259.658372 71.13116 
L 259.830236 73.886357 
L 260.00126 71.730957 
L 260.171452 68.175785 
L 260.340819 74.529043 
L 260.50937 70.266164 
L 260.677113 72.743895 
L 260.844055 81.811067 
L 261.010204 71.102449 
L 261.175567 69.625116 
L 261.340153 79.657491 
L 261.503967 74.990148 
L 261.667018 75.567698 
L 261.829312 85.702824 
L 261.990856 86.950017 
L 262.311723 67.624126 
L 262.47106 65.707938 
L 262.629674 65.73378 
L 263.101244 91.102332 
L 263.257032 113.474409 
L 263.412129 111.603559 
L 263.720275 95.774167 
L 263.873335 109.222817 
L 264.025729 94.171933 
L 264.177462 94.157155 
L 264.328539 108.961978 
L 264.478966 110.043817 
L 264.777893 105.610846 
L 264.926404 105.839845 
L 265.221548 95.147585 
L 265.368191 110.181735 
L 265.514222 108.459272 
L 265.659645 95.53868 
L 265.804466 96.617077 
L 265.948691 100.020195 
L 266.092322 90.03572 
L 266.235367 91.208894 
L 266.377828 96.634285 
L 266.519712 89.288925 
L 266.661023 89.984677 
L 266.801764 94.817169 
L 266.941942 89.479949 
L 267.08156 88.443167 
L 267.220623 92.403282 
L 267.497101 79.15003 
L 267.634525 79.921603 
L 267.907763 72.762876 
L 268.043586 73.781266 
L 268.178883 68.557924 
L 268.313659 69.565962 
L 268.447918 73.746719 
L 268.581663 66.97372 
L 268.714898 66.651545 
L 268.847628 77.153128 
L 269.111586 62.559268 
L 269.242822 71.283817 
L 269.373567 90.567202 
L 269.503826 72.02637 
L 269.633601 70.253154 
L 269.891715 85.355007 
L 270.147938 56.767208 
L 270.275349 53.568 
L 270.402297 54.593653 
L 270.65482 64.962637 
L 271.030219 85.765033 
L 271.278265 83.199975 
L 271.524564 89.806104 
L 271.89079 97.795911 
L 272.253221 92.693073 
L 272.373202 94.039775 
L 272.492772 92.108769 
L 272.611935 92.643968 
L 272.730693 96.930977 
L 272.84905 95.347364 
L 272.967007 91.434288 
L 273.084568 91.260687 
L 273.201735 94.006752 
L 273.31851 109.415092 
L 273.434898 91.34269 
L 273.550899 100.947207 
L 273.781753 88.47139 
L 273.896611 94.587484 
L 274.011093 94.606676 
L 274.125202 93.498919 
L 274.23894 107.797766 
L 274.802145 83.935711 
L 274.913706 86.495995 
L 275.024912 83.18293 
L 275.246269 69.745077 
L 275.356425 71.113513 
L 275.466234 68.620927 
L 275.684824 57.66398 
L 275.902057 72.844518 
L 276.117948 58.012807 
L 276.332515 77.735783 
L 276.545773 57.419909 
L 276.651917 56.59029 
L 276.75774 58.28734 
L 277.073299 70.348999 
L 277.282102 102.471964 
L 277.489665 82.840791 
L 277.592986 83.204976 
L 277.798718 90.647671 
L 278.105064 108.637196 
L 278.206586 104.738152 
L 278.307814 109.186169 
L 278.40875 108.901188 
L 278.509396 108.269927 
L 278.709822 111.301341 
L 278.809606 111.885791 
L 278.909106 135.220383 
L 279.008324 124.698167 
L 279.107262 163.232214 
L 279.3043 117.513218 
L 279.402405 130.272006 
L 279.500235 116.626306 
L 279.597793 120.607753 
L 279.695079 112.193349 
L 279.792095 113.095563 
L 279.985324 135.928708 
L 280.177491 129.474924 
L 280.368607 106.125133 
L 280.463776 125.195902 
L 280.653339 101.708992 
L 280.84188 119.888563 
L 281.02941 95.282785 
L 281.308833 104.572913 
L 281.493883 85.166203 
L 281.586042 84.648357 
L 281.769634 103.762278 
L 281.952268 81.348066 
L 282.043229 79.393406 
L 282.133953 79.815551 
L 282.314699 83.655344 
L 282.404723 87.188438 
L 282.673413 122.443364 
L 282.8514 121.632376 
L 283.204679 107.204969 
L 283.379989 111.37668 
L 283.467315 126.796216 
L 283.554425 116.637564 
L 283.641317 124.160654 
L 283.814458 120.997307 
L 283.900708 123.216488 
L 283.986745 136.416229 
L 284.243596 121.8323 
L 284.328795 149.049476 
L 284.498573 127.865199 
L 284.583155 130.192663 
L 284.667532 145.249504 
L 285.169564 106.154219 
L 285.252539 111.550672 
L 285.335319 110.240395 
L 285.417903 98.471787 
L 285.582488 107.929963 
L 285.664491 95.149567 
L 285.746302 97.577374 
L 285.827923 110.777561 
L 285.990594 96.811571 
L 286.152513 107.416745 
L 286.313685 100.15669 
L 286.393993 103.656436 
L 286.713395 136.213385 
L 286.792792 140.750709 
L 286.872009 135.744178 
L 287.029907 120.26453 
L 287.187095 110.817799 
L 287.34358 118.737613 
L 287.499368 112.665766 
L 287.731756 131.657471 
L 287.808877 112.27093 
L 288.039224 140.221994 
L 288.115671 125.605369 
L 288.268064 141.666694 
L 288.419797 129.887489 
L 288.495417 144.849056 
L 288.646169 117.82907 
L 288.721301 118.860477 
L 288.945736 143.300903 
L 289.020229 143.499947 
L 289.094563 150.806138 
L 289.16874 131.262002 
L 289.24276 134.675441 
L 289.316623 166.284043 
L 289.390331 136.978423 
L 289.463883 137.040687 
L 289.537282 132.682577 
L 289.683618 119.00545 
L 289.756557 135.856368 
L 289.901981 105.803577 
L 290.046802 120.328998 
L 290.191026 102.003538 
L 290.262916 110.175892 
L 290.334658 131.968885 
L 290.477702 110.246269 
L 290.549006 112.886161 
L 290.691178 147.586138 
L 290.903358 107.445601 
L 290.9738 104.488284 
L 291.0441 105.65019 
L 291.393496 136.104684 
L 291.601471 123.306826 
L 291.876861 138.640056 
L 292.013747 153.00055 
L 292.081989 162.642881 
L 292.150099 147.277508 
L 292.218076 153.691861 
L 292.285921 167.723906 
L 292.353635 146.05563 
L 292.421219 147.170685 
L 292.488672 141.876084 
L 292.555995 143.115958 
L 292.623188 145.967624 
L 292.75719 162.393601 
L 292.823998 159.682071 
L 292.890679 156.554253 
L 292.957234 163.780354 
L 293.222192 131.876509 
L 293.288119 137.296549 
L 293.353922 137.017617 
L 293.419601 131.706599 
L 293.485158 133.607419 
L 293.550591 152.097826 
L 293.681093 132.620387 
L 293.746161 142.651685 
L 293.811109 136.999072 
L 293.940643 127.24496 
L 294.0697 143.553166 
L 294.13405 174.514598 
L 294.198282 155.473634 
L 294.262396 159.539549 
L 294.581216 125.796543 
L 294.644633 125.98765 
L 294.771122 131.023142 
L 294.897156 147.229444 
L 294.960003 167.005087 
L 295.147869 139.541282 
L 295.272554 148.421277 
L 295.458753 178.872403 
L 295.643966 154.926674 
L 295.705487 160.393743 
L 295.766899 156.58656 
L 295.889401 162.860157 
L 295.950492 152.553032 
L 296.011476 156.679712 
L 296.072353 162.574792 
L 296.133125 150.312114 
L 296.193792 178.33136 
L 296.31481 145.873546 
L 296.375163 161.472475 
L 296.495557 144.219461 
L 296.555598 152.98645 
L 296.615537 137.722049 
L 296.675373 142.843416 
L 296.735108 144.197683 
L 296.85427 127.15133 
L 296.9137 145.354314 
L 297.032257 119.373821 
L 297.091385 124.040755 
L 297.150414 161.521819 
L 297.268172 119.030985 
L 297.326903 120.03228 
L 297.44407 142.413508 
L 297.619088 113.182349 
L 297.735282 130.539772 
L 297.908852 100.196631 
L 297.966518 98.39219 
L 298.024088 99.413216 
L 298.138947 105.579165 
L 298.253429 129.083215 
L 298.31053 118.22882 
L 298.367538 110.560807 
L 298.424453 111.852778 
L 298.538006 119.81363 
L 298.764012 159.044012 
L 298.876469 130.563091 
L 298.932563 147.714894 
L 298.988567 139.481558 
L 299.044481 133.731605 
L 299.100306 144.57225 
L 299.267248 126.064233 
L 299.322718 119.772084 
L 299.378101 154.255136 
L 299.433397 121.146872 
L 299.543726 130.939232 
L 299.59876 114.730757 
L 299.653708 116.146199 
L 299.70857 118.880531 
L 299.763345 104.062146 
L 299.818035 108.25286 
L 299.87264 131.337991 
L 299.92716 111.333468 
L 299.981594 114.408122 
L 300.09021 127.735168 
L 300.144392 118.305659 
L 300.19849 123.917283 
L 300.306435 137.000601 
L 300.414049 112.764 
L 300.467731 113.36221 
L 300.521332 118.025046 
L 300.57485 136.814018 
L 300.628287 118.396182 
L 301.000075 97.734735 
L 301.105578 98.422069 
L 301.158211 102.099404 
L 301.315635 136.306827 
L 301.367952 122.65795 
L 301.420192 127.766249 
L 301.472353 126.472161 
L 301.524437 119.696926 
L 301.576443 123.79078 
L 301.628373 124.504503 
L 301.680225 141.149222 
L 301.732 126.609371 
L 301.835322 143.392709 
L 301.886868 137.943817 
L 301.938339 126.097246 
L 301.989734 128.429023 
L 302.092298 131.244688 
L 302.143467 136.705947 
L 302.194562 127.287016 
L 302.245582 131.334475 
L 302.296528 139.036458 
L 302.448922 122.277176 
L 302.499572 117.772462 
L 302.55015 126.683832 
L 302.651086 105.937097 
L 302.701445 114.672062 
L 302.751731 109.747872 
L 302.801946 106.379563 
L 302.852088 112.383862 
L 302.902159 135.919399 
L 302.952158 114.646543 
L 303.002085 112.543558 
L 303.101727 123.857249 
L 303.151442 120.724842 
L 303.300163 99.608959 
L 303.349597 106.236682 
L 303.398961 128.893189 
L 303.448255 106.826176 
L 303.49748 105.760467 
L 303.546636 119.920053 
L 303.595723 119.499931 
L 303.791384 94.320286 
L 303.888805 88.674449 
L 303.937414 90.84478 
L 303.985956 99.690447 
L 304.03443 135.769773 
L 304.082838 105.092634 
L 304.131178 102.307181 
L 304.227659 107.468382 
L 304.323875 103.070074 
L 304.419826 128.308206 
L 304.515515 127.09426 
L 304.610943 118.243432 
L 304.658559 149.69509 
L 304.706111 120.161581 
L 304.753598 118.362193 
L 304.801021 127.75218 
L 304.895674 109.390648 
L 304.942905 136.688849 
L 304.990072 108.081553 
L 305.037175 105.997918 
L 305.084215 134.680066 
L 305.131192 100.501134 
L 305.178106 101.011237 
L 305.224957 119.283823 
L 305.318471 91.962842 
L 305.365135 105.945825 
L 305.411736 99.536707 
L 305.458276 92.826756 
L 305.504753 98.870978 
L 305.551169 137.020299 
L 305.597523 106.393597 
L 305.643816 104.745821 
L 305.736218 117.144963 
L 305.782328 116.513308 
L 305.920294 97.170264 
L 305.966162 99.31291 
L 306.01197 117.162778 
L 306.057718 104.915774 
L 306.285564 85.156233 
L 306.330956 83.900174 
L 306.376289 84.714009 
L 306.421563 84.613994 
L 306.511936 82.640636 
L 306.602076 96.80632 
L 306.691984 90.953613 
L 306.781662 88.423727 
L 306.87111 104.103504 
L 306.915749 102.07395 
L 307.138091 92.025898 
L 307.18239 96.670877 
L 307.270821 94.753487 
L 307.314952 98.301533 
L 307.359028 89.1054 
L 307.403049 98.368442 
L 307.490924 88.136933 
L 307.534779 99.257769 
L 307.578579 90.310914 
L 307.622324 87.572783 
L 307.666015 95.929753 
L 307.709651 89.383793 
L 307.753233 83.377763 
L 307.79676 85.509282 
L 307.840233 94.464008 
L 307.883653 90.173843 
L 307.927018 83.123409 
L 307.97033 84.587324 
L 308.056793 98.193118 
L 308.143043 80.634757 
L 308.186088 87.691399 
L 308.229081 103.854253 
L 308.27202 83.279729 
L 308.357742 73.009516 
L 308.400524 78.514699 
L 308.443253 97.543251 
L 308.485931 88.987027 
L 308.528557 85.627791 
L 308.57113 90.649182 
L 308.613652 102.804089 
L 308.656123 89.71353 
L 308.82549 71.377881 
L 308.867704 69.559814 
L 308.909867 70.079294 
L 308.994041 92.420927 
L 309.078013 86.550625 
L 309.161784 76.129066 
L 309.203594 76.950123 
L 309.411899 96.064007 
L 309.453412 83.249322 
L 309.494875 87.214092 
L 309.536289 93.068101 
L 309.577654 80.925278 
L 309.618971 87.38976 
L 309.660238 95.180354 
L 309.701457 81.639559 
L 309.78375 88.64345 
L 309.947756 74.377967 
L 309.988638 76.860116 
L 310.029472 99.84203 
L 310.070258 72.203735 
L 310.110997 67.610162 
L 310.151689 71.986362 
L 310.192333 129.169543 
L 310.23293 72.822625 
L 310.27348 68.78804 
L 310.313983 74.044342 
L 310.354439 92.032369 
L 310.394848 79.597155 
L 310.435211 73.079614 
L 310.475527 74.575286 
L 310.515797 85.570599 
L 310.55602 84.060319 
L 310.636329 71.798654 
L 310.676414 72.63949 
L 310.876153 92.521455 
L 310.915965 86.432647 
L 311.074759 64.417685 
L 311.114345 64.69948 
L 311.232835 92.569068 
L 311.272242 111.290059 
L 311.311606 100.284416 
L 311.468617 83.929648 
L 311.50776 81.256712 
L 311.585915 103.135216 
L 311.702821 98.8827 
L 311.741703 88.343474 
L 311.819338 92.738494 
L 311.85809 94.30589 
L 311.8968 92.362453 
L 311.935467 88.27825 
L 311.974091 90.84428 
L 312.012673 96.560197 
L 312.051212 89.38593 
L 312.089709 90.713756 
L 312.128163 96.567951 
L 312.166576 93.104293 
L 312.204946 84.329125 
L 312.243274 84.656864 
L 312.319804 99.151128 
L 312.396167 82.665899 
L 312.434286 90.977881 
L 312.472364 103.371383 
L 312.5104 92.122388 
L 312.548395 88.193622 
L 312.586349 90.009149 
L 312.662133 102.973444 
L 312.737753 83.365691 
L 312.775501 85.737656 
L 312.888504 112.975112 
L 312.963637 100.054647 
L 313.038609 102.604413 
L 313.188072 84.783834 
L 313.225338 85.072871 
L 313.299751 95.462656 
L 313.374007 112.291334 
L 313.411075 104.12344 
L 313.448105 96.521004 
L 313.522046 100.194437 
L 313.558958 98.190719 
L 313.595832 98.363395 
L 313.742937 123.572977 
L 313.816259 100.511514 
L 313.852862 114.856632 
L 313.925953 107.875482 
L 313.962442 120.378277 
L 313.998893 106.255563 
L 314.144316 93.903931 
L 314.07168 106.302013 
L 314.180578 97.218134 
L 314.216802 102.789097 
L 314.252988 93.448747 
L 314.289137 91.942126 
L 314.361324 107.149629 
L 314.397361 94.001511 
L 314.433361 92.947879 
L 314.505251 110.573499 
L 314.541141 101.966179 
L 314.576993 94.836854 
L 314.612809 95.957505 
L 314.684331 115.726538 
L 314.720038 99.631219 
L 314.755708 97.844307 
L 314.791341 98.844005 
L 314.968966 114.075213 
L 315.004383 130.861338 
L 315.039764 118.409139 
L 315.180932 85.152116 
L 315.216135 86.922391 
L 315.321533 104.373826 
L 315.356594 116.102454 
L 315.426613 108.997394 
L 315.531379 100.763605 
L 315.566231 102.655112 
L 315.67058 122.827967 
L 315.705294 137.607306 
L 315.739974 117.579534 
L 315.80923 135.832803 
L 315.947332 115.474587 
L 316.016179 128.221308 
L 316.084891 105.636622 
L 316.119196 114.65821 
L 316.153468 117.042535 
L 316.221911 97.799383 
L 316.256082 104.058977 
L 316.29022 135.728772 
L 316.358396 100.387479 
L 316.426439 108.357376 
L 316.460411 105.17077 
L 316.494351 101.836704 
L 316.528257 103.533853 
L 316.595971 115.625999 
L 316.629779 106.119846 
L 316.731007 95.732328 
L 316.764685 99.769168 
L 316.831943 151.938148 
L 316.899072 117.618251 
L 316.932589 115.541869 
L 317.032945 93.751505 
L 317.09969 95.915133 
L 317.199569 105.526715 
L 317.232799 113.933463 
L 317.299164 106.821099 
L 317.365403 99.513466 
L 317.431517 102.883803 
L 317.497506 105.242672 
L 317.629112 125.605712 
L 317.69473 115.974255 
L 317.727493 137.596185 
L 317.792927 108.940232 
L 317.825598 121.401237 
L 317.890848 110.21893 
L 317.923428 108.462074 
L 317.955977 119.39787 
L 317.988497 109.620663 
L 318.020985 101.013403 
L 318.085873 108.64752 
L 318.118271 138.366793 
L 318.182979 102.551238 
L 318.215288 101.200955 
L 318.408516 129.377869 
L 318.536745 102.675243 
L 318.568729 104.766403 
L 318.632609 115.225801 
L 318.72821 131.703466 
L 318.886968 90.678468 
L 318.981878 98.717718 
L 319.045009 124.219932 
L 319.108026 104.231295 
L 319.139491 103.640222 
L 319.170929 104.703588 
L 319.202338 105.386718 
L 319.265072 111.298531 
L 319.296397 135.730286 
L 319.358963 124.593747 
L 319.421417 114.139694 
L 319.452603 116.575611 
L 319.48376 132.302867 
L 319.51489 109.788069 
L 319.577066 126.535524 
L 319.608113 124.050024 
L 319.639133 110.163873 
L 319.670125 113.923011 
L 319.701089 145.744966 
L 319.762936 104.320109 
L 319.793818 102.416656 
L 319.824673 110.046255 
L 319.855501 150.187395 
L 319.917076 103.589377 
L 319.947822 101.54817 
L 320.131737 124.748665 
L 320.253811 99.327016 
L 320.284263 99.566611 
L 320.375461 128.841705 
L 320.436127 112.685356 
L 320.557146 92.417583 
L 320.617498 97.016743 
L 320.677747 103.867215 
L 320.737892 131.18182 
L 320.767926 105.13373 
L 320.827916 95.485948 
L 320.887804 101.153557 
L 320.917709 101.763244 
L 320.977443 128.575474 
L 321.066853 119.501196 
L 321.185712 102.861218 
L 321.126333 127.302831 
L 321.215364 105.727392 
L 321.244991 131.175855 
L 321.304169 100.945261 
L 321.333721 103.252549 
L 321.363247 118.912975 
L 321.422226 99.357183 
L 321.451678 97.604825 
L 321.510508 124.884665 
L 321.569239 101.449334 
L 321.598567 100.836459 
L 321.774024 127.301697 
L 321.919569 102.228915 
L 322.006605 122.721603 
L 322.06451 111.326286 
L 322.093426 140.602617 
L 322.151187 96.928231 
L 322.208853 91.619641 
L 322.266424 95.181713 
L 322.3239 97.262578 
L 322.381282 114.54386 
L 322.409938 98.840458 
L 322.467179 93.090044 
L 322.495764 94.597369 
L 322.638342 133.415222 
L 322.751988 121.470939 
L 322.83698 121.762871 
L 322.893527 93.570212 
L 322.921766 94.908895 
L 322.978176 111.645571 
L 323.006347 96.948306 
L 323.034495 94.121592 
L 323.062621 97.549486 
L 323.118805 115.026683 
L 323.174898 100.911931 
L 323.37052 121.168585 
L 323.481815 97.263505 
L 323.509583 99.527508 
L 323.565054 123.046294 
L 323.620437 109.814023 
L 323.758512 90.957615 
L 323.786061 93.352936 
L 323.86858 115.899089 
L 323.896043 138.030965 
L 323.950905 103.419808 
L 324.005681 98.951918 
L 324.033037 101.381757 
L 324.087684 112.837642 
L 324.22393 130.090229 
L 324.251115 137.249628 
L 324.332546 99.891508 
L 324.359647 108.098749 
L 324.386727 116.775116 
L 324.413787 100.452996 
L 324.440825 96.784304 
L 324.467843 101.155696 
L 324.49484 117.106162 
L 324.548771 100.281481 
L 324.575705 102.175737 
L 324.629512 132.98648 
L 324.683236 106.433547 
L 324.710067 105.505925 
L 324.843914 135.115172 
L 324.89731 126.072822 
L 324.977252 113.396608 
L 325.003858 116.5044 
L 325.05701 155.295125 
L 325.110082 130.84767 
L 325.215985 107.874932 
L 325.268816 111.438231 
L 325.321568 106.005102 
L 325.37424 111.601442 
L 325.400546 113.564283 
L 325.4531 112.934678 
L 325.505574 99.401923 
L 325.55797 112.228485 
L 325.584139 119.275116 
L 325.636417 109.665613 
L 325.766773 100.05649 
L 325.818779 125.749234 
L 325.870708 102.042317 
L 325.92256 109.760523 
L 325.948458 123.140451 
L 326.000195 107.220654 
L 326.026035 108.100469 
L 326.077657 122.18014 
L 326.10344 104.430258 
L 326.129204 100.324965 
L 326.154949 101.557484 
L 326.309021 124.473023 
L 326.385803 97.871418 
L 326.436897 102.980755 
L 326.5134 137.417911 
L 326.538863 115.506572 
L 326.615143 97.707842 
L 326.665904 100.014474 
L 326.716592 91.009891 
L 326.767206 100.738198 
L 326.792485 124.030728 
L 326.868215 100.49411 
L 326.91861 92.374437 
L 326.94378 100.551522 
L 326.968933 112.482197 
L 327.044281 106.465764 
L 327.094424 109.415123 
L 327.169503 98.257094 
L 327.194493 103.126172 
L 327.219466 131.429344 
L 327.269358 98.148721 
L 327.294277 98.74174 
L 327.443422 125.565495 
L 327.517756 107.549929 
L 327.591933 116.39646 
L 327.616623 118.16874 
L 327.764402 95.400654 
L 327.788971 96.093553 
L 327.838058 104.957753 
L 327.862576 121.982681 
L 327.936025 106.944755 
L 328.082464 95.386126 
L 328.106811 99.205647 
L 328.155454 127.936904 
L 328.204029 105.414311 
L 328.252537 95.825236 
L 328.300978 108.421351 
L 328.325173 127.137013 
L 328.397659 108.66579 
L 328.421787 108.418575 
L 328.445899 117.561821 
L 328.494073 101.365124 
L 328.518135 99.315288 
L 328.542181 102.918629 
L 328.56621 124.22135 
L 328.638198 99.136387 
L 328.686108 133.322336 
L 328.805597 117.530943 
L 328.853278 103.504019 
L 328.900895 109.232562 
L 328.948447 131.975127 
L 329.043357 118.953157 
L 329.11437 98.935473 
L 329.161633 103.384105 
L 329.208832 146.259731 
L 329.303039 126.682663 
L 329.396992 91.662867 
L 329.443875 104.97049 
L 329.490695 119.290915 
L 329.514081 110.552963 
L 329.560807 94.513005 
L 329.60747 113.285772 
L 329.630779 120.344154 
L 329.700611 108.030248 
L 329.723857 105.672925 
L 329.747088 116.962734 
L 329.816689 96.867621 
L 329.863013 123.102737 
L 329.909275 96.628438 
L 329.978554 120.073721 
L 330.024664 100.450246 
L 330.070713 119.695148 
L 330.093715 117.927172 
L 330.16263 98.672859 
L 330.208497 107.145808 
L 330.277187 105.432488 
L 330.322905 128.270303 
L 330.39137 90.212982 
L 330.436939 95.897199 
L 330.482449 124.87279 
L 330.550603 101.209789 
L 330.663898 90.147925 
L 330.686514 92.530227 
L 330.754271 126.612924 
L 330.776828 99.791784 
L 330.821898 91.40873 
L 330.844411 96.93642 
L 330.889394 121.630719 
L 330.956761 102.204025 
L 330.979187 100.828534 
L 331.001599 111.788732 
L 331.06875 90.884208 
L 331.224935 132.431831 
L 331.269432 97.115525 
L 331.358256 102.677065 
L 331.402583 91.256824 
L 331.446854 97.685402 
L 331.557288 130.262931 
L 331.623381 91.459008 
L 331.68935 102.457713 
L 331.755194 108.421064 
L 331.886512 86.856561 
L 331.90835 88.865091 
L 331.951986 94.771292 
L 331.973784 113.190926 
L 332.039095 85.754137 
L 332.082569 112.905535 
L 332.169354 100.509536 
L 332.277533 84.650255 
L 332.234301 106.869041 
L 332.299129 88.101125 
L 332.428424 124.211371 
L 332.471416 99.734373 
L 332.535806 108.598802 
L 332.557243 109.963338 
L 332.621475 88.680629 
L 332.664231 112.328098 
L 332.685589 114.264362 
L 332.813466 88.33339 
L 332.834733 89.906231 
L 332.919674 105.709563 
L 332.940877 101.374401 
L 332.983244 86.559694 
L 333.067825 87.894717 
L 333.088939 87.287848 
L 333.110039 87.606452 
L 333.152203 102.307931 
L 333.194315 84.279946 
L 333.215352 82.918706 
L 333.236377 88.16104 
L 333.278388 104.027811 
L 333.34131 94.435583 
L 333.362259 92.129925 
L 333.383195 101.134366 
L 333.404119 108.406341 
L 333.44593 85.614698 
L 333.48769 96.824329 
L 333.550237 88.063402 
L 333.612673 138.250834 
L 333.73721 99.368484 
L 333.778625 87.35289 
L 333.81999 97.255927 
L 333.840654 106.721279 
L 333.902574 95.371812 
L 333.943793 90.548816 
L 334.026085 92.125914 
L 334.046628 91.517269 
L 334.087678 101.89674 
L 334.128679 83.90353 
L 334.190092 91.680849 
L 334.230973 86.522321 
L 334.251396 84.263573 
L 334.292207 92.037496 
L 334.414352 103.114851 
L 334.353333 86.820049 
L 334.434668 97.904503 
L 334.454973 98.388919 
L 334.495546 89.38072 
L 334.515815 97.474103 
L 334.576552 85.772758 
L 334.637184 118.782214 
L 334.677546 86.458442 
L 334.738003 109.643323 
L 334.758132 117.720934 
L 334.798356 103.029682 
L 334.838533 115.079885 
L 334.918749 97.360442 
L 334.958789 108.256995 
L 334.978791 126.474485 
L 335.03873 90.867978 
L 335.058687 90.35093 
L 335.078632 92.246744 
L 335.1583 98.955408 
L 335.198066 111.55394 
L 335.237787 87.915992 
L 335.257631 86.907543 
L 335.277463 90.262119 
L 335.317094 98.84634 
L 335.396221 95.334723 
L 335.612903 113.416524 
L 335.671766 104.470621 
L 335.710953 116.325174 
L 335.73053 122.940896 
L 335.789195 111.310838 
L 335.808728 112.323718 
L 335.886753 135.194167 
L 335.925699 114.234626 
L 335.945157 111.984091 
L 335.984039 116.83062 
L 336.022877 128.982268 
L 336.100426 120.171847 
L 336.19712 105.608119 
L 336.216427 110.397412 
L 336.255009 129.753557 
L 336.332044 113.667435 
L 336.523895 139.267134 
L 336.408911 111.475183 
L 336.581246 137.529477 
L 336.638502 124.453656 
L 336.676622 138.916853 
L 336.714699 128.354525 
L 336.752735 146.712355 
L 336.809712 127.534541 
L 336.847645 133.957483 
L 336.866597 156.387936 
L 336.904468 128.43533 
L 336.942298 128.955385 
L 336.961198 127.693757 
L 336.980088 129.743731 
L 337.093213 156.63273 
L 337.112031 152.918804 
L 337.13084 134.917416 
L 337.22473 151.233946 
L 337.280944 122.82067 
L 337.299662 129.078491 
L 337.31837 164.033235 
L 337.337068 123.337791 
L 337.411759 133.537094 
L 337.449045 133.482967 
L 337.5049 167.442927 
L 337.560665 137.796237 
L 337.579234 128.810488 
L 337.597793 146.42952 
L 337.653411 132.722491 
L 337.70894 156.692508 
L 337.764382 133.748971 
L 337.782843 134.541786 
L 337.819735 174.318127 
L 337.911797 154.156969 
L 337.948554 159.09798 
L 338.040278 150.114193 
L 338.058594 151.432692 
L 338.168289 160.091438 
L 338.204777 180.350213 
L 338.259439 152.371839 
L 338.277641 160.409977 
L 338.314015 158.315881 
L 338.332189 166.22681 
L 338.404787 171.954529 
L 338.477235 140.372107 
L 338.495324 145.191603 
L 338.531473 137.365735 
L 338.549533 141.001336 
L 338.675697 125.916546 
L 338.747587 140.411392 
L 338.801407 136.791857 
L 338.819329 133.342252 
L 338.837241 141.735375 
L 338.855145 159.348543 
L 338.926667 135.202562 
L 339.033676 127.534864 
L 339.05148 134.307231 
L 339.069274 135.038666 
L 339.122602 167.889137 
L 339.175849 149.756618 
L 339.264414 129.383386 
L 339.299777 134.356764 
L 339.405653 161.208169 
L 339.423268 137.588779 
L 339.528771 141.820721 
L 339.581403 158.34537 
L 339.633957 142.561873 
L 339.651457 132.07927 
L 339.703905 148.212958 
L 339.738827 138.509975 
L 339.808567 146.225152 
L 339.773714 132.54655 
L 339.843384 140.135363 
L 339.912916 141.856329 
L 339.964974 128.629242 
L 339.999636 132.841601 
L 340.016954 158.365979 
L 340.086142 126.303439 
L 340.103418 133.869592 
L 340.137943 149.53783 
L 340.155193 133.431081 
L 340.172434 141.964916 
L 340.189667 124.172735 
L 340.275705 138.285291 
L 340.344383 145.410358 
L 340.395803 155.321054 
L 340.447148 145.864033 
L 340.464246 138.663031 
L 340.515491 155.542863 
L 340.532555 175.050148 
L 340.56666 137.805433 
L 340.600731 140.301153 
L 340.719721 166.64169 
L 340.736686 155.946221 
L 340.804466 137.528482 
L 340.838306 149.267736 
L 340.855214 151.773116 
L 340.889006 141.078318 
L 340.90589 144.267157 
L 340.922765 135.02371 
L 340.956491 158.334427 
L 341.00702 144.832766 
L 341.091073 167.878323 
L 341.057476 140.745336 
L 341.124637 151.665349 
L 341.141408 146.565541 
L 341.174924 161.885241 
L 341.225138 153.799642 
L 341.258575 154.426291 
L 341.308669 144.433142 
L 341.342026 188.278743 
L 341.458523 136.708074 
L 341.607739 167.262893 
L 341.690362 138.752825 
L 341.706863 146.836594 
L 341.723356 167.462762 
L 341.789252 141.378487 
L 341.805707 143.831102 
L 341.838593 133.284694 
L 341.920673 140.892851 
L 341.937066 143.10123 
L 341.953451 128.315181 
L 342.002561 156.121744 
L 342.051602 128.73416 
L 342.149477 149.291192 
L 342.165764 143.777906 
L 342.29578 126.250743 
L 342.392976 150.075935 
L 342.409149 134.158441 
L 342.50603 147.12204 
L 342.538265 141.345306 
L 342.602645 133.250496 
L 342.586561 149.144822 
L 342.618721 149.075996 
L 342.63479 166.414236 
L 342.698993 127.515973 
L 342.715025 146.256677 
L 342.827045 121.314154 
L 342.874944 163.417979 
L 342.858985 120.480655 
L 342.95463 133.128768 
L 342.970546 134.09309 
L 342.986454 127.934667 
L 343.034136 145.580875 
L 343.065887 132.315458 
L 343.14514 154.315784 
L 343.208413 127.323617 
L 343.176791 158.637678 
L 343.271572 130.382813 
L 343.287344 165.3098 
L 343.381827 153.49363 
L 343.460368 132.556451 
L 343.507408 135.451129 
L 343.57003 147.74616 
L 343.585668 128.090123 
L 343.616923 134.484424 
L 343.741664 119.305463 
L 343.694938 147.818375 
L 343.757225 121.951003 
L 343.803868 135.181218 
L 343.865962 122.135083 
L 343.927946 119.157935 
L 343.974361 133.596601 
L 344.005271 135.374429 
L 344.097837 117.68066 
L 344.11324 114.903921 
L 344.128637 124.100927 
L 344.144028 119.604643 
L 344.236227 151.939223 
L 344.205521 117.700303 
L 344.266906 135.694404 
L 344.297559 117.980536 
L 344.374072 138.152097 
L 344.389355 125.115689 
L 344.4199 156.45848 
L 344.450418 119.590958 
L 344.48091 121.304641 
L 344.511376 117.935176 
L 344.587424 146.94482 
L 344.632973 135.55853 
L 344.663306 119.924172 
L 344.678463 154.435491 
L 344.739025 128.724223 
L 344.769266 157.269197 
L 344.844756 146.749096 
L 344.935128 120.520268 
L 344.965201 132.306123 
L 344.980228 122.878008 
L 345.010261 143.499362 
L 345.055264 129.407051 
L 345.085233 154.375254 
L 345.145095 126.803606 
L 345.174987 141.39931 
L 345.189924 119.698771 
L 345.264512 147.93095 
L 345.279411 129.736717 
L 345.309189 153.17912 
L 345.324068 128.742904 
L 345.398371 149.916797 
L 345.487326 124.026752 
L 345.516928 126.692433 
L 345.531719 124.29412 
L 345.546505 139.801096 
L 345.561284 125.947558 
L 345.576056 142.826523 
L 345.635085 118.345064 
L 345.649826 121.641778 
L 345.70873 114.872326 
L 345.694013 121.691749 
L 345.752843 115.453395 
L 345.914117 144.825747 
L 346.001772 119.297738 
L 346.030941 124.122921 
L 346.103759 131.270464 
L 346.060086 118.961178 
L 346.118304 120.432775 
L 346.147377 118.204695 
L 346.20545 126.104027 
L 346.248941 118.445898 
L 346.263426 131.665028 
L 346.277905 157.34599 
L 346.335762 115.049293 
L 346.364654 136.686902 
L 346.422368 118.472982 
L 346.46559 132.549302 
L 346.523137 122.059344 
L 346.58059 159.543436 
L 346.666592 126.884471 
L 346.695213 131.252804 
L 346.709514 154.902564 
L 346.752384 127.455286 
L 346.809461 151.548894 
L 346.837965 128.706087 
L 346.880678 130.926588 
L 346.894904 178.816695 
L 346.980138 161.245387 
L 347.1076 125.168008 
L 347.121734 123.930195 
L 347.135862 131.352939 
L 347.164101 134.24503 
L 347.192318 128.761934 
L 347.319011 115.274363 
L 347.2346 129.338544 
L 347.33306 116.278223 
L 347.487224 143.133544 
L 347.515181 129.144764 
L 347.529152 125.429079 
L 347.598919 132.449394 
L 347.710258 162.932866 
L 347.668547 132.016456 
L 347.72415 144.862181 
L 347.862772 125.085617 
L 347.876604 123.376283 
L 347.918068 128.120029 
L 347.973276 166.458774 
L 348.028397 133.384712 
L 348.055925 129.121229 
L 348.083431 133.338059 
L 348.152102 130.180028 
L 348.220639 164.609697 
L 348.289042 130.298391 
L 348.330019 134.994646 
L 348.343668 163.416444 
L 348.425447 130.209934 
L 348.439059 132.276757 
L 348.466265 132.224102 
L 348.479861 140.01691 
L 348.574881 136.669758 
L 348.588435 173.062914 
L 348.601983 136.099199 
L 348.615525 177.234079 
L 348.710178 140.064866 
L 348.764151 174.207268 
L 348.818041 157.993511 
L 348.871847 137.774239 
L 348.912148 150.655284 
L 348.925571 165.742558 
L 349.006003 138.96298 
L 349.046149 164.644052 
L 349.08625 138.640834 
L 349.112958 140.727999 
L 349.152982 154.233577 
L 349.179639 135.846362 
L 349.27278 171.947331 
L 349.286065 162.08847 
L 349.352418 147.711164 
L 349.378923 168.318946 
L 349.392169 148.285242 
L 349.4451 196.361719 
L 349.511152 154.158653 
L 349.524347 142.268337 
L 349.537537 164.718837 
L 349.616575 153.788343 
L 349.642882 147.74746 
L 349.682304 165.830155 
L 349.695435 177.775322 
L 349.74791 147.488572 
L 349.774117 148.768713 
L 349.787214 148.83829 
L 349.800306 172.992876 
L 349.904863 161.071521 
L 349.943991 183.606352 
L 349.996094 148.448687 
L 350.061114 141.893688 
L 350.035121 153.670361 
L 350.074104 151.69701 
L 350.087089 152.457747 
L 350.100069 145.989518 
L 350.126014 160.931655 
L 350.190793 148.451933 
L 350.229603 155.236342 
L 350.255453 141.866607 
L 350.26837 144.010322 
L 350.294191 133.059229 
L 350.345775 143.413018 
L 350.371539 167.836989 
L 350.461563 150.248291 
L 350.551356 134.968139 
L 350.538543 152.074133 
L 350.564165 136.386722 
L 350.576969 153.775651 
L 350.666466 130.8479 
L 350.679233 143.537575 
L 350.691995 151.129123 
L 350.742997 130.865923 
L 350.768469 133.815241 
L 350.806644 139.424218 
L 350.882868 121.839859 
L 350.895556 143.251352 
L 350.958927 119.138057 
L 350.984243 121.082159 
L 350.996895 119.432973 
L 351.022183 127.362045 
L 351.060082 120.310488 
L 351.173533 147.720593 
L 351.186116 127.156037 
L 351.198694 127.122838 
L 351.286617 118.157995 
L 351.299159 157.278533 
L 351.38683 113.044954 
L 351.424336 116.320005 
L 351.486756 142.532188 
L 351.549066 141.388766 
L 351.611264 118.243213 
L 351.573958 144.824416 
L 351.648531 120.806469 
L 351.660944 140.721859 
L 351.685757 111.13609 
L 351.747713 113.100381 
L 351.821916 126.251248 
L 351.871297 124.926144 
L 351.932926 118.968462 
L 351.908288 144.151823 
L 351.969851 122.436773 
L 352.043585 133.263009 
L 351.994447 117.140526 
L 352.080394 127.177425 
L 352.104911 114.393334 
L 352.129412 133.205678 
L 352.16613 120.941315 
L 352.178361 135.422379 
L 352.20281 111.423328 
L 352.276055 120.375291 
L 352.361313 109.528009 
L 352.336975 123.981409 
L 352.373476 123.260016 
L 352.385635 125.851902 
L 352.434227 112.794521 
L 352.446364 110.226085 
L 352.494873 118.615012 
L 352.506989 121.105817 
L 352.555413 108.966462 
L 352.5796 114.345277 
L 352.591687 111.216434 
L 352.615849 122.138397 
L 352.652061 116.620879 
L 352.688235 116.274452 
L 352.760471 152.592262 
L 352.868546 117.542087 
L 352.880534 124.572074 
L 352.976288 115.868489 
L 352.928444 126.111562 
L 353.000186 119.145156 
L 353.012129 125.855144 
L 353.024067 114.321073 
L 353.107524 124.686787 
L 353.11943 121.944498 
L 353.155124 134.598511 
L 353.190782 139.183372 
L 353.1789 123.124886 
L 353.214534 131.583136 
L 353.273842 144.122254 
L 353.333051 119.277768 
L 353.34488 129.878262 
L 353.356706 117.427688 
L 353.451167 129.463384 
L 353.533612 121.75175 
L 353.545374 137.83895 
L 353.651054 121.675108 
L 353.662777 125.090943 
L 353.709628 156.097501 
L 353.68621 123.124987 
L 353.768104 130.718293 
L 353.803142 136.624155 
L 353.826482 124.663477 
L 353.884763 147.34687 
L 353.931317 137.472885 
L 353.942946 123.078043 
L 354.03584 140.528922 
L 354.105348 127.764168 
L 354.082194 145.854572 
L 354.15161 132.627175 
L 354.209352 143.78604 
L 354.186267 127.543865 
L 354.255477 135.028824 
L 354.266999 132.474655 
L 354.278517 142.249763 
L 354.359037 156.321733 
L 354.33605 135.918642 
L 354.382008 138.471414 
L 354.485194 179.818673 
L 354.508083 150.894798 
L 354.530957 159.431962 
L 354.645103 127.851246 
L 354.747517 144.268234 
L 354.758878 142.359862 
L 354.770235 137.127258 
L 354.815627 144.107992 
L 354.86096 142.462967 
L 354.894921 162.448688 
L 354.917543 172.205321 
L 354.940151 148.959746 
L 354.962744 157.510305 
L 355.064234 133.283256 
L 355.086747 135.686562 
L 355.142967 142.811834 
L 355.176655 132.571463 
L 355.187877 134.157744 
L 355.255136 129.150778 
L 355.322265 132.204214 
L 355.445001 143.534331 
L 355.500649 130.528566 
L 355.567309 138.004637 
L 355.578406 136.881869 
L 355.5895 139.050157 
L 355.600591 138.163629 
L 355.611678 149.177754 
L 355.68919 128.073068 
L 355.700249 131.816274 
L 355.810648 151.965429 
L 355.755492 130.198321 
L 355.821668 139.988926 
L 355.88772 131.807865 
L 355.942668 134.665609 
L 355.953647 140.518566 
L 356.030405 128.862203 
L 356.041357 132.406047 
L 356.074191 141.53878 
L 356.1616 126.162117 
L 356.194322 123.199822 
L 356.292304 146.339691 
L 356.314041 133.283412 
L 356.368324 156.838774 
L 356.400853 138.311949 
L 356.422522 146.319176 
L 356.444178 131.532261 
L 356.498259 123.886402 
L 356.563047 151.095606 
L 356.692262 122.381561 
L 356.788861 149.302025 
L 356.799578 123.644353 
L 356.853113 150.800733 
L 356.917247 133.855485 
L 356.959937 121.972027 
L 356.938599 139.36144 
L 357.002576 127.613531 
L 357.013228 153.631178 
L 357.108946 141.369652 
L 357.246744 121.70124 
L 357.257322 126.050623 
L 357.278467 121.773104 
L 357.373463 153.238065 
L 357.384002 128.47898 
L 357.48922 133.294226 
L 357.583646 125.186526 
L 357.520723 136.981361 
L 357.604595 129.856944 
L 357.71959 140.667349 
L 357.667366 128.154351 
L 357.761313 132.960574 
L 357.875795 128.675517 
L 357.834209 136.203092 
L 357.886184 129.996232 
L 357.989904 129.655338 
L 358.02096 136.977851 
L 358.031306 133.367869 
L 358.08299 150.873147 
L 358.093317 144.17536 
L 358.186128 149.111498 
L 358.165525 142.183633 
L 358.196425 148.515015 
L 358.227299 143.301064 
L 358.258145 168.556713 
L 358.288964 149.739759 
L 358.360769 191.565984 
L 358.391498 148.845564 
L 358.401734 157.206315 
L 358.411968 149.177385 
L 358.483522 160.924184 
L 358.493732 159.3468 
L 358.503939 188.18314 
L 358.554929 149.420265 
L 358.595668 152.669364 
L 358.626191 147.49639 
L 358.677004 161.527194 
L 358.758151 150.562325 
L 358.697308 164.312991 
L 358.889614 152.55289 
L 358.990405 160.982221 
L 358.909795 151.740217 
L 359.000468 154.149872 
L 359.010528 151.313579 
L 359.020585 161.32026 
L 359.03064 155.831216 
L 359.040691 179.042903 
L 359.070828 152.889341 
L 359.141048 161.545984 
L 359.231123 206.641355 
L 359.18111 158.778535 
L 359.261097 176.928124 
L 359.291045 184.804518 
L 359.400636 136.104563 
L 359.410581 145.010799 
L 359.460268 129.573943 
L 359.509884 141.216147 
L 359.519799 139.642997 
L 359.579228 147.480916 
L 359.589123 142.417667 
L 359.628676 174.678635 
L 359.608905 142.227022 
L 359.697785 153.688657 
L 359.727362 134.732432 
L 359.776601 159.607537 
L 359.806111 141.792364 
L 359.865056 152.508855 
L 359.894492 133.427761 
L 359.904298 138.735622 
L 359.914102 133.071635 
L 359.943496 164.025409 
L 360.00221 138.86045 
L 360.099849 160.952699 
L 360.119345 146.779903 
L 360.168035 134.961975 
L 360.197217 150.776937 
L 360.206939 142.096152 
L 360.255507 172.762357 
L 360.313701 154.089629 
L 360.333077 146.275121 
L 360.371798 164.813072 
L 360.410475 154.460366 
L 360.439455 172.780241 
L 360.468412 142.988296 
L 360.516619 150.468971 
L 360.535883 144.351716 
L 360.56476 153.231349 
L 360.632046 148.19604 
L 360.641647 154.223041 
L 360.73752 147.347824 
L 360.747093 153.932528 
L 360.775796 146.20962 
L 360.833131 162.843851 
L 360.842677 162.334149 
L 360.909431 193.417292 
L 360.899903 151.525812 
L 360.957035 179.826603 
L 360.976058 163.82296 
L 361.052048 192.362962 
L 361.061535 237.831348 
L 361.080501 192.129999 
L 361.165724 215.352953 
L 361.260172 248.913884 
L 361.307301 232.097835 
L 361.354367 219.470408 
L 361.382576 239.801107 
L 361.420152 222.963619 
L 361.485814 236.414651 
L 361.448308 221.269922 
L 361.52328 231.589211 
L 361.53264 224.311359 
L 361.560705 266.748182 
L 361.616769 244.723463 
L 361.644767 223.25014 
L 361.654095 264.609307 
L 361.719319 235.74679 
L 361.728627 257.533334 
L 361.812287 223.927351 
L 361.82157 225.5213 
L 361.932776 261.143927 
L 361.942027 218.764679 
L 362.043629 226.509396 
L 362.12654 260.694488 
L 362.089715 223.694262 
L 362.154133 247.360784 
L 362.163326 220.858036 
L 362.236782 274.731811 
L 362.264288 226.89897 
L 362.36496 249.154349 
L 362.328386 223.81445 
L 362.374098 240.83741 
L 362.383233 226.017909 
L 362.483564 227.361418 
L 362.529073 253.048459 
L 362.519976 220.360704 
L 362.601766 234.030014 
L 362.628987 221.404657 
L 362.674308 243.837339 
L 362.710523 231.168467 
L 362.7467 224.173099 
L 362.755738 234.420086 
L 362.764775 267.273414 
L 362.83698 215.054746 
L 362.864018 230.00895 
L 362.873026 222.540115 
L 362.918032 274.885518 
L 362.962981 230.156235 
L 363.043742 223.341347 
L 363.070622 255.778607 
L 363.08853 264.539701 
L 363.18686 219.685726 
L 363.276012 270.812273 
L 363.302713 249.509461 
L 363.391571 223.224555 
L 363.364937 268.317523 
L 363.418184 225.614856 
L 363.427051 221.167325 
L 363.444777 257.472769 
L 363.497903 230.325856 
L 363.506749 240.03469 
L 363.550948 225.819916 
L 363.603912 233.239741 
L 363.647988 224.895514 
L 363.674407 254.636551 
L 363.709601 234.582153 
L 363.727185 252.829681 
L 363.771106 220.456585 
L 363.806203 235.562691 
L 363.814972 221.194121 
L 363.867539 242.815936 
L 363.911284 236.183161 
L 363.920027 254.01874 
L 363.928767 224.678253 
L 364.01605 229.481571 
L 364.024766 229.679159 
L 364.094419 261.620017 
L 364.042192 221.246328 
L 364.129193 229.205444 
L 364.163933 228.751617 
L 364.172613 241.752972 
L 364.198638 224.337694 
L 364.285251 261.147559 
L 364.319836 220.866798 
L 364.397528 230.192766 
L 364.423387 246.785489 
L 364.509446 220.965892 
L 364.638139 257.622928 
L 364.655262 222.12918 
L 364.672377 262.058178 
L 364.766359 235.250455 
L 364.791947 244.581219 
L 364.86009 223.674438 
L 364.877105 239.385321 
L 364.936592 218.312698 
L 364.91111 253.832697 
L 364.987501 239.827719 
L 365.038336 217.417023 
L 365.012928 255.825217 
L 365.106001 227.462642 
L 365.181968 245.671774 
L 365.156664 222.75862 
L 365.215678 231.931319 
L 365.2241 223.186034 
L 365.240939 242.49816 
L 365.308214 228.000438 
L 365.316614 255.448335 
L 365.400505 223.178036 
L 365.417259 251.720705 
L 365.517616 220.526981 
L 365.45911 261.2523 
L 365.534314 231.19416 
L 365.567687 216.811004 
L 365.592695 248.418194 
L 365.617686 227.956443 
L 365.626012 250.160525 
L 365.71747 222.236857 
L 365.725772 236.438022 
L 365.742371 217.737594 
L 365.792122 245.177422 
L 365.858345 219.744074 
L 365.899671 240.947787 
L 365.916188 215.159976 
L 365.998655 246.15066 
L 366.015125 224.346158 
L 366.039816 258.17861 
L 366.138405 244.819779 
L 366.171206 218.365308 
L 366.212164 249.192057 
L 366.253074 228.229631 
L 366.326593 252.563979 
L 366.342909 222.808421 
L 366.359218 244.90049 
L 366.465041 221.210598 
L 366.440648 249.960999 
L 366.473167 230.010322 
L 366.481293 223.237293 
L 366.513774 243.262031 
L 366.554333 232.429721 
L 366.602942 222.089952 
L 366.66765 250.14172 
L 366.691884 220.477925 
L 366.683808 254.934589 
L 366.7806 226.77341 
L 366.788654 251.485654 
L 366.885157 226.109311 
L 366.925288 257.129441 
L 366.917266 220.844296 
L 366.989403 234.327217 
L 367.029414 218.847137 
L 367.013415 246.063926 
L 367.10132 227.796934 
L 367.109301 226.449678 
L 367.149176 236.683029 
L 367.165113 227.541167 
L 367.181043 258.676835 
L 367.252638 225.873495 
L 367.268529 228.2009 
L 367.29235 221.899398 
L 367.324087 248.17801 
L 367.339945 246.698979 
L 367.355796 261.941223 
L 367.363718 229.184989 
L 367.403304 239.71162 
L 367.427035 221.678458 
L 367.466549 250.35142 
L 367.521795 225.345058 
L 367.537563 253.454338 
L 367.545445 217.668905 
L 367.639885 245.093364 
L 367.694857 221.622542 
L 367.710548 256.553976 
L 367.749743 227.77369 
L 367.83582 215.537162 
L 367.867068 243.81767 
L 367.890485 223.425572 
L 367.92948 245.200712 
L 367.976216 229.390156 
L 368.007339 256.596785 
L 368.02289 215.966475 
L 368.077264 228.178891 
L 368.085025 227.463956 
L 368.193497 249.47101 
L 368.162539 219.357126 
L 368.201232 239.791848 
L 368.232155 246.24632 
L 368.263051 229.708604 
L 368.270771 228.148289 
L 368.278489 276.894394 
L 368.347875 219.97036 
L 368.386363 265.682774 
L 368.401747 219.803124 
L 368.509242 220.4256 
L 368.585822 256.006957 
L 368.639329 237.066889 
L 368.746097 220.786016 
L 368.677498 239.045561 
L 368.753711 222.83935 
L 368.837355 256.060526 
L 368.829759 218.893804 
L 368.875308 237.467709 
L 368.882894 219.543998 
L 368.905642 260.158632 
L 368.98136 225.24948 
L 369.019158 243.709508 
L 369.072006 221.449818 
L 369.087091 237.412033 
L 369.147366 220.939434 
L 369.139837 244.757912 
L 369.192503 240.796486 
L 369.275105 258.772099 
L 369.207536 220.796251 
L 369.290103 231.337865 
L 369.327568 249.072622 
L 369.38743 222.984421 
L 369.469574 250.468523 
L 369.499396 229.776348 
L 369.581277 251.481126 
L 369.536638 220.371402 
L 369.603575 238.839795 
L 369.670383 222.253111 
L 369.640706 245.879627 
L 369.707444 234.667793 
L 369.744466 246.825906 
L 369.774055 222.470708 
L 369.811006 229.851533 
L 369.906897 226.059287 
L 369.921626 243.03164 
L 370.009871 221.357865 
L 369.965776 260.045355 
L 370.031897 233.42248 
L 370.090567 221.559577 
L 370.068577 277.648664 
L 370.119864 226.550751 
L 370.163765 221.676719 
L 370.236811 260.277368 
L 370.316985 223.658695 
L 370.346094 245.644255 
L 370.353368 257.461146 
L 370.36791 220.413301 
L 370.440531 226.580784 
L 370.455037 242.086297 
L 370.469537 213.321201 
L 370.534714 226.069091 
L 370.621427 216.21025 
L 370.578097 269.188279 
L 370.635858 236.328305 
L 370.686321 248.313385 
L 370.67191 226.442206 
L 370.693524 234.162757 
L 370.77266 217.320286 
L 370.707926 271.737999 
L 370.801392 230.616049 
L 370.858785 248.379305 
L 370.851616 216.065793 
L 370.894609 227.853942 
L 370.908928 241.167237 
L 370.923241 219.586949 
L 370.9447 247.914704 
L 371.037536 238.304482 
L 371.158567 216.030973 
L 371.243749 289.388986 
L 371.265012 235.801226 
L 371.272097 213.648233 
L 371.321651 285.493363 
L 371.378198 227.55706 
L 371.427601 262.847958 
L 371.420548 219.629021 
L 371.491018 234.506703 
L 371.589438 216.910425 
L 371.540263 241.97699 
L 371.596458 219.89307 
L 371.638545 247.798886 
L 371.715573 244.738877 
L 371.736551 217.730702 
L 371.77847 250.900317 
L 371.827312 239.79599 
L 371.869122 220.706931 
L 371.841254 252.27033 
L 371.924792 243.542757 
L 371.994254 248.554542 
L 371.938695 222.427791 
L 372.00813 237.660425 
L 372.105108 219.44178 
L 372.070504 243.399633 
L 372.112024 237.643252 
L 372.11894 252.625573 
L 372.208715 219.465474 
L 372.215611 229.259492 
L 372.25696 251.495029 
L 372.250072 221.975161 
L 372.318892 240.728317 
L 372.346382 219.388107 
L 372.353251 251.674193 
L 372.428723 238.018455 
L 372.456127 262.522697 
L 372.462975 219.849369 
L 372.531377 233.75236 
L 372.626917 220.432353 
L 372.572355 249.771025 
L 372.640544 234.798252 
L 372.647356 260.748626 
L 372.708601 220.416726 
L 372.749371 229.794995 
L 372.756162 221.936053 
L 372.796877 267.701235 
L 372.85109 227.811755 
L 372.905219 259.424249 
L 372.945761 221.791688 
L 372.959265 232.505186 
L 372.966015 230.39105 
L 372.979511 240.695959 
L 372.986257 237.002136 
L 372.993001 263.483529 
L 373.060376 223.431979 
L 373.094015 231.795597 
L 373.100739 232.138039 
L 373.107461 224.060798 
L 373.134339 276.443091 
L 373.208146 229.792013 
L 373.248338 248.394394 
L 373.234946 227.218664 
L 373.315224 236.470628 
L 373.321905 226.142495 
L 373.361967 262.102193 
L 373.415312 227.040465 
L 373.455268 253.490794 
L 373.508471 220.342933 
L 373.521759 228.912708 
L 373.54832 248.738389 
L 373.601382 223.382292 
L 373.641125 233.018372 
L 373.647745 220.588948 
L 373.733685 255.237286 
L 373.740287 225.294302 
L 373.746888 247.279663 
L 373.84575 223.328551 
L 373.852331 235.334436 
L 373.92464 221.751852 
L 373.891791 248.228888 
L 373.957458 231.926023 
L 374.009903 253.401266 
L 374.016453 223.108126 
L 374.055728 232.772577 
L 374.108026 222.127511 
L 374.114558 260.578399 
L 374.160246 232.457862 
L 374.179808 251.049205 
L 374.244937 221.091462 
L 374.264452 231.18115 
L 374.270955 223.785784 
L 374.30345 248.747874 
L 374.368349 238.219336 
L 374.387796 223.65127 
L 374.400754 245.266522 
L 374.433129 229.877581 
L 374.4396 257.297947 
L 374.536526 225.111076 
L 374.542979 225.231046 
L 374.646053 256.303692 
L 374.633185 221.07297 
L 374.658916 236.557569 
L 374.665345 236.651955 
L 374.729577 220.007345 
L 374.703899 252.262707 
L 374.787285 223.997625 
L 374.844898 252.48632 
L 374.832104 223.792213 
L 374.89603 230.06669 
L 374.902417 229.737554 
L 374.915186 289.575424 
L 374.966215 224.791716 
L 375.010805 254.697062 
L 375.08076 226.546752 
L 375.023534 268.991988 
L 375.125204 240.642473 
L 375.137892 248.961356 
L 375.169592 222.90631 
L 375.220251 245.741587 
L 375.302418 221.987387 
L 375.245554 254.135327 
L 375.333969 236.24326 
L 375.409575 245.637897 
L 375.371792 226.603683 
L 375.428451 231.916387 
L 375.497577 221.522193 
L 375.459889 260.111129 
L 375.535224 230.686788 
L 375.62291 265.970384 
L 375.610397 223.957008 
L 375.647923 238.328767 
L 375.697895 220.400632 
L 375.660423 255.629522 
L 375.766491 226.781257 
L 375.847385 295.488 
L 375.828734 223.467936 
L 375.903279 265.788151 
L 375.940493 223.506728 
L 376.014801 243.681959 
L 376.064252 223.592126 
L 376.101294 252.108578 
L 376.132133 226.185876 
L 376.218337 220.466964 
L 376.249073 266.062328 
L 376.279782 221.001232 
L 376.365624 233.344519 
L 376.42681 248.14263 
L 376.475683 225.020163 
L 376.542771 222.240256 
L 376.591482 269.667677 
L 376.603649 222.019418 
L 376.706898 238.547951 
L 376.731148 219.654566 
L 376.719025 266.191522 
L 376.81589 226.034998 
L 376.846106 268.494972 
L 376.924544 224.347813 
L 376.936596 243.814465 
L 376.984761 220.977634 
L 377.020842 249.577775 
L 377.050881 228.561683 
L 377.09889 267.800783 
L 377.092892 226.673712 
L 377.158808 232.315564 
L 377.188729 236.666959 
L 377.176763 226.160111 
L 377.19471 231.808529 
L 377.236549 220.385151 
L 377.242521 252.814153 
L 377.296232 233.491597 
L 377.361766 225.447847 
L 377.415293 270.606005 
L 377.528027 222.160209 
L 377.599041 252.142226 
L 377.610863 219.387197 
L 377.6404 234.07428 
L 377.652207 228.067633 
L 377.758297 256.780274 
L 377.799468 224.072597 
L 377.84646 261.24127 
L 377.875799 236.809819 
L 377.916831 251.254625 
L 377.981214 222.793649 
L 378.027963 260.176124 
L 378.03964 221.625686 
L 378.092141 231.045272 
L 378.144563 223.094741 
L 378.179468 265.77913 
L 378.278175 213.554643 
L 378.295565 221.804603 
L 378.324529 209.046382 
L 378.341896 237.178639 
L 378.393946 224.587345 
L 378.440147 261.866296 
L 378.480523 206.140957 
L 378.497813 234.513401 
L 378.601372 205.690972 
L 378.52661 235.11242 
L 378.61286 211.826222 
L 378.641563 204.86012 
L 378.653037 230.332209 
L 378.710353 214.666795 
L 378.784724 236.344066 
L 378.738976 207.916867 
L 378.818996 218.198111 
L 378.893136 200.565155 
L 378.841825 235.099061 
L 378.932993 205.477716 
L 379.035274 260.764698 
L 378.955748 204.17103 
L 379.04662 213.032384 
L 379.142913 205.68392 
L 379.069301 245.856545 
L 379.148569 207.159062 
L 379.182487 240.656929 
L 379.244583 204.700224 
L 379.261499 218.722263 
L 379.362825 208.718855 
L 379.351581 236.029594 
L 379.374065 216.140105 
L 379.424602 209.093003 
L 379.497471 237.243749 
L 379.54783 205.236691 
L 379.598117 244.994154 
L 379.614863 206.910588 
L 379.620443 206.62699 
L 379.626022 211.379081 
L 379.653906 239.76466 
L 379.731862 213.918435 
L 379.815193 210.085909 
L 379.781885 240.704868 
L 379.826289 213.878566 
L 379.903862 249.720236 
L 379.859556 207.882202 
L 379.942584 242.896729 
L 380.041959 212.246045 
L 380.025416 258.870879 
L 380.075021 224.145982 
L 380.141052 239.505832 
L 380.163034 209.33497 
L 380.185003 225.673794 
L 380.223415 209.596627 
L 380.206958 241.039776 
L 380.289167 220.101452 
L 380.327465 260.754479 
L 380.365721 211.360329 
L 380.398479 216.320432 
L 380.502009 263.492692 
L 380.458455 203.818846 
L 380.51289 250.925591 
L 380.529204 209.583085 
L 380.599809 263.992635 
L 380.621506 229.441707 
L 380.681101 239.388447 
L 380.643188 207.556006 
L 380.718972 225.194994 
L 380.740595 214.561837 
L 380.794592 246.647518 
L 380.816168 224.68011 
L 380.853894 253.478481 
L 380.913095 212.248714 
L 380.923848 226.167136 
L 381.020477 211.752113 
L 380.977563 259.745292 
L 381.036556 221.990329 
L 381.068691 204.605285 
L 381.106146 235.633196 
L 381.138217 222.977995 
L 381.164921 236.272261 
L 381.228928 205.097187 
L 381.244912 217.875997 
L 381.308772 206.175649 
L 381.260888 250.23464 
L 381.367209 210.463444 
L 381.383129 247.265227 
L 381.48908 223.639446 
L 381.499657 213.958084 
L 381.541935 241.598173 
L 381.552496 226.237441 
L 381.557776 247.552804 
L 381.647406 205.323196 
L 381.657936 206.679951 
L 381.689506 240.065299 
L 381.784045 224.44564 
L 381.78929 212.359316 
L 381.841694 246.032595 
L 381.894019 225.587121 
L 381.941045 205.20853 
L 381.961926 259.533917 
L 382.003649 221.754083 
L 382.06614 245.720632 
L 382.076544 212.035428 
L 382.112935 233.787666 
L 382.227061 207.249844 
L 382.12852 242.114441 
L 382.23224 207.309876 
L 382.263296 233.384175 
L 382.371775 224.488391 
L 382.464491 214.818618 
L 382.413012 244.959691 
L 382.479919 229.183214 
L 382.55183 241.308848 
L 382.515893 197.131439 
L 382.562091 215.685611 
L 382.592856 231.140236 
L 382.577477 206.212068 
L 382.638952 213.215713 
L 382.64407 203.236639 
L 382.730963 242.247464 
L 382.746274 207.324697 
L 382.771779 239.289343 
L 382.797265 195.928971 
L 382.853268 201.772354 
L 382.929493 196.814008 
L 382.893942 220.206245 
L 382.944718 202.774825 
L 383.051107 231.175939 
L 383.020743 196.147996 
L 383.056166 204.497381 
L 383.071335 178.61965 
L 383.101656 206.83786 
L 383.172301 188.084296 
L 383.177341 183.090944 
L 383.18742 230.727242 
L 383.262921 193.950384 
L 383.283027 214.108122 
L 383.348291 183.114831 
L 383.378372 213.036877 
L 383.408428 188.318538 
L 383.423446 245.019286 
L 383.483453 203.548808 
L 383.488449 221.157118 
L 383.5932 199.193818 
L 383.702603 241.859733 
L 383.618094 194.854012 
L 383.722458 237.869988 
L 383.752219 207.701322 
L 383.816615 239.049362 
L 383.836405 221.700016 
L 383.841351 242.367444 
L 383.890771 201.127534 
L 383.945052 222.4372 
L 383.949982 209.741437 
L 383.969697 264.516724 
L 384.053362 212.317449 
L 384.068106 246.094719 
L 384.161338 215.241459 
L 384.166238 204.062255 
L 384.229876 240.944901 
L 384.254322 219.283913 
L 384.293399 251.786101 
L 384.298281 216.750897 
L 384.36168 227.647373 
L 384.439552 207.57738 
L 384.39577 247.904096 
L 384.478423 215.865224 
L 384.575413 214.750957 
L 384.589938 249.09705 
L 384.628642 214.308355 
L 384.701098 231.647219 
L 384.773404 216.768287 
L 384.725216 236.344208 
L 384.778219 224.57738 
L 384.783033 250.840439 
L 384.811906 210.812659 
L 384.888783 224.273765 
L 384.893582 224.307292 
L 384.965491 207.082356 
L 384.903178 244.372892 
L 384.989428 215.11654 
L 385.065917 240.4316 
L 385.003783 209.329337 
L 385.099328 223.843255 
L 385.19937 205.958275 
L 385.147003 250.829384 
L 385.213639 210.818624 
L 385.256409 242.14442 
L 385.313355 207.895355 
L 385.322837 228.708389 
L 385.422243 209.871717 
L 385.346531 275.582408 
L 385.436421 213.085746 
L 385.441145 222.894256 
L 385.502508 191.221099 
L 385.544927 214.019432 
L 385.620211 241.779075 
L 385.577884 205.872258 
L 385.662487 221.925357 
L 385.765615 173.809767 
L 385.700024 235.717355 
L 385.793688 175.098808 
L 385.863772 226.487923 
L 385.807716 173.619597 
L 385.910417 214.120479 
L 386.022112 171.161313 
L 385.924398 225.282748 
L 386.031403 181.836199 
L 386.142713 223.960115 
L 386.063905 180.615198 
L 386.147343 208.836722 
L 386.221343 238.144959 
L 386.175111 204.530243 
L 386.258284 223.075414 
L 386.272127 181.75004 
L 386.368875 202.413006 
L 386.378075 192.973415 
L 386.428633 209.032616 
L 386.483703 227.019704 
L 386.520369 202.549252 
L 386.529529 187.26622 
L 386.616433 224.909529 
L 386.625568 206.295511 
L 386.703122 240.567499 
L 386.657523 199.484726 
L 386.730453 206.944068 
L 386.78505 174.726232 
L 386.807774 233.522874 
L 386.839563 194.718053 
L 386.957382 231.426214 
L 387.02969 179.98142 
L 387.070298 216.707628 
L 387.160368 259.301485 
L 387.110858 205.750015 
L 387.173858 214.95906 
L 387.268147 201.863383 
L 387.263663 233.934625 
L 387.277114 207.928081 
L 387.290559 240.46084 
L 387.366654 202.90422 
L 387.384534 213.957337 
L 387.455965 206.760562 
L 387.420268 232.517142 
L 387.460425 211.59004 
L 387.464884 236.713504 
L 387.518347 181.76403 
L 387.57173 227.369188 
L 387.66052 240.026737 
L 387.687113 200.523072 
L 387.7977 223.315277 
L 387.76235 177.83998 
L 387.806532 213.816493 
L 387.819775 204.880822 
L 387.855067 228.395871 
L 387.912341 214.065619 
L 388.000271 194.568051 
L 388.022219 227.524295 
L 388.131754 201.574489 
L 388.136128 205.186808 
L 388.249667 185.816768 
L 388.206042 211.917439 
L 388.254026 187.419187 
L 388.275816 233.934835 
L 388.371529 218.154644 
L 388.488637 177.969083 
L 388.380217 222.837174 
L 388.492967 180.399132 
L 388.54056 235.548693 
L 388.644175 214.566228 
L 388.730287 180.983471 
L 388.743185 188.542815 
L 388.803316 253.354787 
L 388.854774 217.815508 
L 388.940369 201.080835 
L 388.871909 248.046694 
L 388.966007 203.398362 
L 388.983088 240.125904 
L 389.076888 216.310701 
L 389.115188 197.289283 
L 389.127945 250.585245 
L 389.183173 207.379375 
L 389.204392 241.562683 
L 389.234076 201.870822 
L 389.293369 216.097996 
L 389.365232 200.939671 
L 389.301831 237.149459 
L 389.403218 215.406853 
L 389.424303 226.311696 
L 389.420087 199.336658 
L 389.508518 210.579659 
L 389.516928 202.768105 
L 389.571546 248.166828 
L 389.605115 193.641038 
L 389.626079 199.140001 
L 389.705628 257.034565 
L 389.663782 197.979856 
L 389.739068 214.431413 
L 389.743246 202.324541 
L 389.772476 225.796853 
L 389.847528 212.79213 
L 389.893314 225.546916 
L 389.901633 197.474019 
L 389.951501 221.326674 
L 389.993004 200.811334 
L 389.959805 272.612345 
L 390.063445 216.4966 
L 390.133745 238.641415 
L 390.100681 200.120246 
L 390.166779 209.254995 
L 390.187409 204.290201 
L 390.183284 216.134278 
L 390.191534 208.142616 
L 390.290378 229.894733 
L 390.257461 200.419364 
L 390.302714 212.938124 
L 390.335588 200.310923 
L 390.319155 239.809488 
L 390.388943 211.345538 
L 390.413541 202.492543 
L 390.499498 248.78119 
L 390.601554 195.692438 
L 390.61378 209.243919 
L 390.630076 229.886719 
L 390.707376 198.45809 
L 390.723628 215.896199 
L 390.760167 197.413095 
L 390.825032 235.500334 
L 390.837181 203.546793 
L 390.909985 237.112228 
L 390.869557 202.90655 
L 390.930182 215.929863 
L 390.942294 191.659614 
L 390.938257 234.191367 
L 391.043067 205.820966 
L 391.083295 242.681085 
L 391.06721 198.170243 
L 391.151577 209.27548 
L 391.215721 199.67396 
L 391.219726 235.892941 
L 391.255751 203.658144 
L 391.351636 245.807718 
L 391.299731 197.99538 
L 391.367592 209.607521 
L 391.431341 197.498691 
L 391.475101 235.078402 
L 391.574353 195.313862 
L 391.578317 248.822318 
L 391.586244 222.641575 
L 391.649596 199.363345 
L 391.621894 225.642169 
L 391.697035 208.605917 
L 391.74441 254.138484 
L 391.78778 197.228578 
L 391.79172 232.666418 
L 391.897935 206.017992 
L 391.964647 236.01432 
L 391.937193 198.737714 
L 392.003829 206.902658 
L 392.05079 200.880898 
L 392.089876 224.370987 
L 392.101594 204.594086 
L 392.171815 222.085261 
L 392.183505 201.179309 
L 392.210767 216.586799 
L 392.253563 198.038078 
L 392.284655 228.458814 
L 392.32348 205.073315 
L 392.412617 225.559159 
L 392.33512 197.5594 
L 392.431964 214.535456 
L 392.451301 195.469913 
L 392.478354 234.403149 
L 392.528541 211.531479 
L 392.532398 250.188059 
L 392.636391 197.750247 
L 392.640237 223.363241 
L 392.647927 197.584098 
L 392.667145 249.303719 
L 392.751577 219.117869 
L 392.774569 197.504693 
L 392.809028 242.024332 
L 392.828158 205.704417 
L 392.831982 240.338167 
L 392.835806 195.785351 
L 392.938902 207.641418 
L 392.969391 230.860925 
L 393.022682 197.491636 
L 393.049298 227.99941 
L 393.159345 194.897892 
L 393.216131 194.522572 
L 393.269048 237.748521 
L 393.272825 192.400288 
L 393.382172 201.343844 
L 393.404753 193.713301 
L 393.449872 221.122682 
L 393.453629 212.185946 
L 393.554922 239.094753 
L 393.551176 197.799016 
L 393.562414 206.083769 
L 393.640979 217.581236 
L 393.61107 196.572909 
L 393.670862 215.747371 
L 393.749183 190.566447 
L 393.756633 230.462323 
L 393.778974 206.959067 
L 393.860768 249.513667 
L 393.834763 197.57228 
L 393.890464 212.695433 
L 393.971997 235.592136 
L 393.942371 190.481143 
L 393.983101 207.535803 
L 394.001599 193.855976 
L 394.02748 236.159981 
L 394.093943 204.862632 
L 394.175004 195.107866 
L 394.130812 245.528237 
L 394.193401 196.79319 
L 394.270563 232.204106 
L 394.241188 196.052034 
L 394.30358 207.742066 
L 394.384157 191.2201 
L 394.369521 222.983289 
L 394.391473 205.607732 
L 394.435337 232.644522 
L 394.424376 194.811579 
L 394.497384 209.580533 
L 394.537473 195.921067 
L 394.58843 238.868402 
L 394.602975 207.261374 
L 394.606611 221.355534 
L 394.697373 192.036834 
L 394.711873 203.012042 
L 394.733612 195.575484 
L 394.769813 215.954398 
L 394.7879 201.13629 
L 394.791516 231.169834 
L 394.809592 195.283545 
L 394.896224 197.946722 
L 394.899829 196.623476 
L 394.910642 222.401096 
L 394.917849 209.156691 
L 394.921452 235.004153 
L 394.986239 193.437887 
L 395.029364 214.343504 
L 395.050907 191.383119 
L 395.036546 282.519999 
L 395.136944 204.676051 
L 395.140525 230.053091 
L 395.208481 191.841416 
L 395.247764 212.808559 
L 395.297697 194.223339 
L 395.262038 224.384861 
L 395.351117 206.600497 
L 395.422217 186.814124 
L 395.464808 237.974223 
L 395.486085 194.745744 
L 395.578132 203.901705 
L 395.638185 238.800632 
L 395.588737 193.600308 
L 395.698136 208.962565 
L 395.750949 193.369548 
L 395.800169 220.68838 
L 395.803682 199.497547 
L 395.807195 226.338433 
L 395.817731 191.831823 
L 395.912412 204.950187 
L 395.954411 191.101081 
L 395.950913 238.935475 
L 396.013823 204.806284 
L 396.097527 227.44796 
L 396.038257 193.257708 
L 396.125383 217.157478 
L 396.226179 187.714663 
L 396.146262 218.438891 
L 396.240059 194.076331 
L 396.274735 237.95377 
L 396.35436 207.046766 
L 396.357818 193.657393 
L 396.378558 223.451526 
L 396.464841 197.535835 
L 396.554351 236.481008 
L 396.574975 213.36161 
L 396.629912 194.516957 
L 396.588718 227.218979 
L 396.677911 212.634811 
L 396.681337 228.489007 
L 396.715579 194.56278 
L 396.783962 206.041713 
L 396.85562 193.124297 
L 396.845392 224.016831 
L 396.893097 209.49655 
L 396.991707 191.785523 
L 396.920327 236.913784 
L 396.998497 206.996789 
L 397.049384 222.717103 
L 397.012074 191.745571 
L 397.103581 210.66159 
L 397.127266 190.452201 
L 397.147555 218.941801 
L 397.215099 198.909301 
L 397.28588 231.218185 
L 397.255563 190.927715 
L 397.316171 217.302917 
L 397.339713 190.554508 
L 397.343074 239.525255 
L 397.427014 208.103353 
L 397.48063 193.534809 
L 397.457183 231.332924 
L 397.537507 204.122763 
L 397.5776 223.773922 
L 397.614311 187.905122 
L 397.644319 211.326027 
L 397.680961 193.977492 
L 397.720889 229.571892 
L 397.757451 200.949371 
L 397.820512 246.778833 
L 397.787336 193.890472 
L 397.870218 209.944604 
L 397.926465 193.381897 
L 397.913239 232.808137 
L 397.972719 215.45437 
L 397.999122 222.517454 
L 398.018911 191.099224 
L 398.071628 219.242644 
L 398.084795 191.276885 
L 398.150554 245.46857 
L 398.183388 201.297562 
L 398.245687 221.520225 
L 398.199793 189.171774 
L 398.291521 202.130878 
L 398.294792 202.325008 
L 398.311145 226.709605 
L 398.373217 186.995242 
L 398.405842 207.99447 
L 398.412364 192.403707 
L 398.418884 239.693202 
L 398.487273 193.153769 
" style="fill:none;stroke:#1f77b4;stroke-linecap:square;stroke-width:1.5;"/>
   </g>
   <g id="line2d_48">
    <path clip-path="url(#p4c704dd779)" d="M 272.435071 307.584 
L 272.435071 41.472 
" style="fill:none;stroke:#ff0000;stroke-dasharray:5.55,2.4;stroke-dashoffset:0;stroke-width:1.5;"/>
   </g>
   <g id="line2d_49">
    <path clip-path="url(#p4c704dd779)" d="M 315.576972 307.584 
L 315.576972 41.472 
" style="fill:none;stroke:#ff0000;stroke-dasharray:5.55,2.4;stroke-dashoffset:0;stroke-width:1.5;"/>
   </g>
   <g id="line2d_50">
    <path clip-path="url(#p4c704dd779)" d="M 326.807152 307.584 
L 326.807152 41.472 
" style="fill:none;stroke:#ff0000;stroke-dasharray:5.55,2.4;stroke-dashoffset:0;stroke-width:1.5;"/>
   </g>
   <g id="patch_3">
    <path d="M 57.6 307.584 
L 57.6 41.472 
" style="fill:none;stroke:#000000;stroke-linecap:square;stroke-linejoin:miter;stroke-width:0.8;"/>
   </g>
   <g id="patch_4">
    <path d="M 414.72 307.584 
L 414.72 41.472 
" style="fill:none;stroke:#000000;stroke-linecap:square;stroke-linejoin:miter;stroke-width:0.8;"/>
   </g>
   <g id="patch_5">
    <path d="M 57.6 307.584 
L 414.72 307.584 
" style="fill:none;stroke:#000000;stroke-linecap:square;stroke-linejoin:miter;stroke-width:0.8;"/>
   </g>
   <g id="patch_6">
    <path d="M 57.6 41.472 
L 414.72 41.472 
" style="fill:none;stroke:#000000;stroke-linecap:square;stroke-linejoin:miter;stroke-width:0.8;"/>
   </g>
   <g id="text_15">
    <!-- DFT bed -->
    <g transform="translate(211.3125 35.472)scale(0.12 -0.12)">
     <defs>
      <path d="M 1259 4147 
L 1259 519 
L 2022 519 
Q 2988 519 3436 956 
Q 3884 1394 3884 2338 
Q 3884 3275 3436 3711 
Q 2988 4147 2022 4147 
L 1259 4147 
z
M 628 4666 
L 1925 4666 
Q 3281 4666 3915 4102 
Q 4550 3538 4550 2338 
Q 4550 1131 3912 565 
Q 3275 0 1925 0 
L 628 0 
L 628 4666 
z
" id="DejaVuSans-44" transform="scale(0.015625)"/>
      <path d="M -19 4666 
L 3928 4666 
L 3928 4134 
L 2272 4134 
L 2272 0 
L 1638 0 
L 1638 4134 
L -19 4134 
L -19 4666 
z
" id="DejaVuSans-54" transform="scale(0.015625)"/>
      <path d="M 3116 1747 
Q 3116 2381 2855 2742 
Q 2594 3103 2138 3103 
Q 1681 3103 1420 2742 
Q 1159 2381 1159 1747 
Q 1159 1113 1420 752 
Q 1681 391 2138 391 
Q 2594 391 2855 752 
Q 3116 1113 3116 1747 
z
M 1159 2969 
Q 1341 3281 1617 3432 
Q 1894 3584 2278 3584 
Q 2916 3584 3314 3078 
Q 3713 2572 3713 1747 
Q 3713 922 3314 415 
Q 2916 -91 2278 -91 
Q 1894 -91 1617 61 
Q 1341 213 1159 525 
L 1159 0 
L 581 0 
L 581 4863 
L 1159 4863 
L 1159 2969 
z
" id="DejaVuSans-62" transform="scale(0.015625)"/>
     </defs>
     <use xlink:href="#DejaVuSans-44"/>
     <use x="77.001953" xlink:href="#DejaVuSans-46"/>
     <use x="132.771484" xlink:href="#DejaVuSans-54"/>
     <use x="193.855469" xlink:href="#DejaVuSans-20"/>
     <use x="225.642578" xlink:href="#DejaVuSans-62"/>
     <use x="289.119141" xlink:href="#DejaVuSans-65"/>
     <use x="350.642578" xlink:href="#DejaVuSans-64"/>
    </g>
   </g>
  </g>
 </g>
 <defs>
  <clipPath id="p4c704dd779">
   <rect height="266.112" width="357.12" x="57.6" y="41.472"/>
  </clipPath>
 </defs>
</svg>
