<?xml version="1.0" encoding="utf-8" standalone="no"?>
<!DOCTYPE svg PUBLIC "-//W3C//DTD SVG 1.1//EN"
  "http://www.w3.org/Graphics/SVG/1.1/DTD/svg11.dtd">
<svg height="345.6pt" version="1.1" viewBox="0 0 460.8 345.6" width="460.8pt" xmlns="http://www.w3.org/2000/svg" xmlns:xlink="http://www.w3.org/1999/xlink">
 <metadata>
  <rdf:RDF xmlns:cc="http://creativecommons.org/ns#" xmlns:dc="http://purl.org/dc/elements/1.1/" xmlns:rdf="http://www.w3.org/1999/02/22-rdf-syntax-ns#">
   <cc:Work>
    <dc:type rdf:resource="http://purl.org/dc/dcmitype/StillImage"/>
    <dc:date>2021-10-07T14:02:35.122074</dc:date>
    <dc:format>image/svg+xml</dc:format>
    <dc:creator>
     <cc:Agent>
      <dc:title>Matplotlib v3.4.2, https://matplotlib.org/</dc:title>
     </cc:Agent>
    </dc:creator>
   </cc:Work>
  </rdf:RDF>
 </metadata>
 <defs>
  <style type="text/css">*{stroke-linecap:butt;stroke-linejoin:round;}</style>
 </defs>
 <g id="figure_1">
  <g id="patch_1">
   <path d="M 0 345.6 
L 460.8 345.6 
L 460.8 0 
L 0 0 
z
" style="fill:#ffffff;"/>
  </g>
  <g id="axes_1">
   <g id="patch_2">
    <path d="M 57.6 307.584 
L 414.72 307.584 
L 414.72 41.472 
L 57.6 41.472 
z
" style="fill:#ffffff;"/>
   </g>
   <g id="matplotlib.axis_1">
    <g id="xtick_1">
     <g id="line2d_1">
      <defs>
       <path d="M 0 0 
L 0 3.5 
" id="m63e5287b25" style="stroke:#000000;stroke-width:0.8;"/>
      </defs>
      <g>
       <use style="stroke:#000000;stroke-width:0.8;" x="134.203065" xlink:href="#m63e5287b25" y="307.584"/>
      </g>
     </g>
     <g id="text_1">
      <!-- $\mathdefault{10^{1}}$ -->
      <g transform="translate(125.403065 322.182437)scale(0.1 -0.1)">
       <defs>
        <path d="M 794 531 
L 1825 531 
L 1825 4091 
L 703 3866 
L 703 4441 
L 1819 4666 
L 2450 4666 
L 2450 531 
L 3481 531 
L 3481 0 
L 794 0 
L 794 531 
z
" id="DejaVuSans-31" transform="scale(0.015625)"/>
        <path d="M 2034 4250 
Q 1547 4250 1301 3770 
Q 1056 3291 1056 2328 
Q 1056 1369 1301 889 
Q 1547 409 2034 409 
Q 2525 409 2770 889 
Q 3016 1369 3016 2328 
Q 3016 3291 2770 3770 
Q 2525 4250 2034 4250 
z
M 2034 4750 
Q 2819 4750 3233 4129 
Q 3647 3509 3647 2328 
Q 3647 1150 3233 529 
Q 2819 -91 2034 -91 
Q 1250 -91 836 529 
Q 422 1150 422 2328 
Q 422 3509 836 4129 
Q 1250 4750 2034 4750 
z
" id="DejaVuSans-30" transform="scale(0.015625)"/>
       </defs>
       <use transform="translate(0 0.684375)" xlink:href="#DejaVuSans-31"/>
       <use transform="translate(63.623047 0.684375)" xlink:href="#DejaVuSans-30"/>
       <use transform="translate(128.203125 38.965625)scale(0.7)" xlink:href="#DejaVuSans-31"/>
      </g>
     </g>
    </g>
    <g id="xtick_2">
     <g id="line2d_2">
      <g>
       <use style="stroke:#000000;stroke-width:0.8;" x="213.249404" xlink:href="#m63e5287b25" y="307.584"/>
      </g>
     </g>
     <g id="text_2">
      <!-- $\mathdefault{10^{2}}$ -->
      <g transform="translate(204.449404 322.182437)scale(0.1 -0.1)">
       <defs>
        <path d="M 1228 531 
L 3431 531 
L 3431 0 
L 469 0 
L 469 531 
Q 828 903 1448 1529 
Q 2069 2156 2228 2338 
Q 2531 2678 2651 2914 
Q 2772 3150 2772 3378 
Q 2772 3750 2511 3984 
Q 2250 4219 1831 4219 
Q 1534 4219 1204 4116 
Q 875 4013 500 3803 
L 500 4441 
Q 881 4594 1212 4672 
Q 1544 4750 1819 4750 
Q 2544 4750 2975 4387 
Q 3406 4025 3406 3419 
Q 3406 3131 3298 2873 
Q 3191 2616 2906 2266 
Q 2828 2175 2409 1742 
Q 1991 1309 1228 531 
z
" id="DejaVuSans-32" transform="scale(0.015625)"/>
       </defs>
       <use transform="translate(0 0.765625)" xlink:href="#DejaVuSans-31"/>
       <use transform="translate(63.623047 0.765625)" xlink:href="#DejaVuSans-30"/>
       <use transform="translate(128.203125 39.046875)scale(0.7)" xlink:href="#DejaVuSans-32"/>
      </g>
     </g>
    </g>
    <g id="xtick_3">
     <g id="line2d_3">
      <g>
       <use style="stroke:#000000;stroke-width:0.8;" x="292.295742" xlink:href="#m63e5287b25" y="307.584"/>
      </g>
     </g>
     <g id="text_3">
      <!-- $\mathdefault{10^{3}}$ -->
      <g transform="translate(283.495742 322.182437)scale(0.1 -0.1)">
       <defs>
        <path d="M 2597 2516 
Q 3050 2419 3304 2112 
Q 3559 1806 3559 1356 
Q 3559 666 3084 287 
Q 2609 -91 1734 -91 
Q 1441 -91 1130 -33 
Q 819 25 488 141 
L 488 750 
Q 750 597 1062 519 
Q 1375 441 1716 441 
Q 2309 441 2620 675 
Q 2931 909 2931 1356 
Q 2931 1769 2642 2001 
Q 2353 2234 1838 2234 
L 1294 2234 
L 1294 2753 
L 1863 2753 
Q 2328 2753 2575 2939 
Q 2822 3125 2822 3475 
Q 2822 3834 2567 4026 
Q 2313 4219 1838 4219 
Q 1578 4219 1281 4162 
Q 984 4106 628 3988 
L 628 4550 
Q 988 4650 1302 4700 
Q 1616 4750 1894 4750 
Q 2613 4750 3031 4423 
Q 3450 4097 3450 3541 
Q 3450 3153 3228 2886 
Q 3006 2619 2597 2516 
z
" id="DejaVuSans-33" transform="scale(0.015625)"/>
       </defs>
       <use transform="translate(0 0.765625)" xlink:href="#DejaVuSans-31"/>
       <use transform="translate(63.623047 0.765625)" xlink:href="#DejaVuSans-30"/>
       <use transform="translate(128.203125 39.046875)scale(0.7)" xlink:href="#DejaVuSans-33"/>
      </g>
     </g>
    </g>
    <g id="xtick_4">
     <g id="line2d_4">
      <g>
       <use style="stroke:#000000;stroke-width:0.8;" x="371.342081" xlink:href="#m63e5287b25" y="307.584"/>
      </g>
     </g>
     <g id="text_4">
      <!-- $\mathdefault{10^{4}}$ -->
      <g transform="translate(362.542081 322.182437)scale(0.1 -0.1)">
       <defs>
        <path d="M 2419 4116 
L 825 1625 
L 2419 1625 
L 2419 4116 
z
M 2253 4666 
L 3047 4666 
L 3047 1625 
L 3713 1625 
L 3713 1100 
L 3047 1100 
L 3047 0 
L 2419 0 
L 2419 1100 
L 313 1100 
L 313 1709 
L 2253 4666 
z
" id="DejaVuSans-34" transform="scale(0.015625)"/>
       </defs>
       <use transform="translate(0 0.684375)" xlink:href="#DejaVuSans-31"/>
       <use transform="translate(63.623047 0.684375)" xlink:href="#DejaVuSans-30"/>
       <use transform="translate(128.203125 38.965625)scale(0.7)" xlink:href="#DejaVuSans-34"/>
      </g>
     </g>
    </g>
    <g id="xtick_5">
     <g id="line2d_5">
      <defs>
       <path d="M 0 0 
L 0 2 
" id="mf9efc091a5" style="stroke:#000000;stroke-width:0.6;"/>
      </defs>
      <g>
       <use style="stroke:#000000;stroke-width:0.6;" x="78.952045" xlink:href="#mf9efc091a5" y="307.584"/>
      </g>
     </g>
    </g>
    <g id="xtick_6">
     <g id="line2d_6">
      <g>
       <use style="stroke:#000000;stroke-width:0.6;" x="92.871415" xlink:href="#mf9efc091a5" y="307.584"/>
      </g>
     </g>
    </g>
    <g id="xtick_7">
     <g id="line2d_7">
      <g>
       <use style="stroke:#000000;stroke-width:0.6;" x="102.747364" xlink:href="#mf9efc091a5" y="307.584"/>
      </g>
     </g>
    </g>
    <g id="xtick_8">
     <g id="line2d_8">
      <g>
       <use style="stroke:#000000;stroke-width:0.6;" x="110.407746" xlink:href="#mf9efc091a5" y="307.584"/>
      </g>
     </g>
    </g>
    <g id="xtick_9">
     <g id="line2d_9">
      <g>
       <use style="stroke:#000000;stroke-width:0.6;" x="116.666734" xlink:href="#mf9efc091a5" y="307.584"/>
      </g>
     </g>
    </g>
    <g id="xtick_10">
     <g id="line2d_10">
      <g>
       <use style="stroke:#000000;stroke-width:0.6;" x="121.958632" xlink:href="#mf9efc091a5" y="307.584"/>
      </g>
     </g>
    </g>
    <g id="xtick_11">
     <g id="line2d_11">
      <g>
       <use style="stroke:#000000;stroke-width:0.6;" x="126.542683" xlink:href="#mf9efc091a5" y="307.584"/>
      </g>
     </g>
    </g>
    <g id="xtick_12">
     <g id="line2d_12">
      <g>
       <use style="stroke:#000000;stroke-width:0.6;" x="130.586103" xlink:href="#mf9efc091a5" y="307.584"/>
      </g>
     </g>
    </g>
    <g id="xtick_13">
     <g id="line2d_13">
      <g>
       <use style="stroke:#000000;stroke-width:0.6;" x="157.998384" xlink:href="#mf9efc091a5" y="307.584"/>
      </g>
     </g>
    </g>
    <g id="xtick_14">
     <g id="line2d_14">
      <g>
       <use style="stroke:#000000;stroke-width:0.6;" x="171.917753" xlink:href="#mf9efc091a5" y="307.584"/>
      </g>
     </g>
    </g>
    <g id="xtick_15">
     <g id="line2d_15">
      <g>
       <use style="stroke:#000000;stroke-width:0.6;" x="181.793703" xlink:href="#mf9efc091a5" y="307.584"/>
      </g>
     </g>
    </g>
    <g id="xtick_16">
     <g id="line2d_16">
      <g>
       <use style="stroke:#000000;stroke-width:0.6;" x="189.454085" xlink:href="#mf9efc091a5" y="307.584"/>
      </g>
     </g>
    </g>
    <g id="xtick_17">
     <g id="line2d_17">
      <g>
       <use style="stroke:#000000;stroke-width:0.6;" x="195.713072" xlink:href="#mf9efc091a5" y="307.584"/>
      </g>
     </g>
    </g>
    <g id="xtick_18">
     <g id="line2d_18">
      <g>
       <use style="stroke:#000000;stroke-width:0.6;" x="201.004971" xlink:href="#mf9efc091a5" y="307.584"/>
      </g>
     </g>
    </g>
    <g id="xtick_19">
     <g id="line2d_19">
      <g>
       <use style="stroke:#000000;stroke-width:0.6;" x="205.589022" xlink:href="#mf9efc091a5" y="307.584"/>
      </g>
     </g>
    </g>
    <g id="xtick_20">
     <g id="line2d_20">
      <g>
       <use style="stroke:#000000;stroke-width:0.6;" x="209.632442" xlink:href="#mf9efc091a5" y="307.584"/>
      </g>
     </g>
    </g>
    <g id="xtick_21">
     <g id="line2d_21">
      <g>
       <use style="stroke:#000000;stroke-width:0.6;" x="237.044723" xlink:href="#mf9efc091a5" y="307.584"/>
      </g>
     </g>
    </g>
    <g id="xtick_22">
     <g id="line2d_22">
      <g>
       <use style="stroke:#000000;stroke-width:0.6;" x="250.964092" xlink:href="#mf9efc091a5" y="307.584"/>
      </g>
     </g>
    </g>
    <g id="xtick_23">
     <g id="line2d_23">
      <g>
       <use style="stroke:#000000;stroke-width:0.6;" x="260.840042" xlink:href="#mf9efc091a5" y="307.584"/>
      </g>
     </g>
    </g>
    <g id="xtick_24">
     <g id="line2d_24">
      <g>
       <use style="stroke:#000000;stroke-width:0.6;" x="268.500423" xlink:href="#mf9efc091a5" y="307.584"/>
      </g>
     </g>
    </g>
    <g id="xtick_25">
     <g id="line2d_25">
      <g>
       <use style="stroke:#000000;stroke-width:0.6;" x="274.759411" xlink:href="#mf9efc091a5" y="307.584"/>
      </g>
     </g>
    </g>
    <g id="xtick_26">
     <g id="line2d_26">
      <g>
       <use style="stroke:#000000;stroke-width:0.6;" x="280.051309" xlink:href="#mf9efc091a5" y="307.584"/>
      </g>
     </g>
    </g>
    <g id="xtick_27">
     <g id="line2d_27">
      <g>
       <use style="stroke:#000000;stroke-width:0.6;" x="284.63536" xlink:href="#mf9efc091a5" y="307.584"/>
      </g>
     </g>
    </g>
    <g id="xtick_28">
     <g id="line2d_28">
      <g>
       <use style="stroke:#000000;stroke-width:0.6;" x="288.67878" xlink:href="#mf9efc091a5" y="307.584"/>
      </g>
     </g>
    </g>
    <g id="xtick_29">
     <g id="line2d_29">
      <g>
       <use style="stroke:#000000;stroke-width:0.6;" x="316.091061" xlink:href="#mf9efc091a5" y="307.584"/>
      </g>
     </g>
    </g>
    <g id="xtick_30">
     <g id="line2d_30">
      <g>
       <use style="stroke:#000000;stroke-width:0.6;" x="330.01043" xlink:href="#mf9efc091a5" y="307.584"/>
      </g>
     </g>
    </g>
    <g id="xtick_31">
     <g id="line2d_31">
      <g>
       <use style="stroke:#000000;stroke-width:0.6;" x="339.88638" xlink:href="#mf9efc091a5" y="307.584"/>
      </g>
     </g>
    </g>
    <g id="xtick_32">
     <g id="line2d_32">
      <g>
       <use style="stroke:#000000;stroke-width:0.6;" x="347.546762" xlink:href="#mf9efc091a5" y="307.584"/>
      </g>
     </g>
    </g>
    <g id="xtick_33">
     <g id="line2d_33">
      <g>
       <use style="stroke:#000000;stroke-width:0.6;" x="353.805749" xlink:href="#mf9efc091a5" y="307.584"/>
      </g>
     </g>
    </g>
    <g id="xtick_34">
     <g id="line2d_34">
      <g>
       <use style="stroke:#000000;stroke-width:0.6;" x="359.097648" xlink:href="#mf9efc091a5" y="307.584"/>
      </g>
     </g>
    </g>
    <g id="xtick_35">
     <g id="line2d_35">
      <g>
       <use style="stroke:#000000;stroke-width:0.6;" x="363.681699" xlink:href="#mf9efc091a5" y="307.584"/>
      </g>
     </g>
    </g>
    <g id="xtick_36">
     <g id="line2d_36">
      <g>
       <use style="stroke:#000000;stroke-width:0.6;" x="367.725119" xlink:href="#mf9efc091a5" y="307.584"/>
      </g>
     </g>
    </g>
    <g id="xtick_37">
     <g id="line2d_37">
      <g>
       <use style="stroke:#000000;stroke-width:0.6;" x="395.1374" xlink:href="#mf9efc091a5" y="307.584"/>
      </g>
     </g>
    </g>
    <g id="xtick_38">
     <g id="line2d_38">
      <g>
       <use style="stroke:#000000;stroke-width:0.6;" x="409.056769" xlink:href="#mf9efc091a5" y="307.584"/>
      </g>
     </g>
    </g>
    <g id="text_5">
     <!-- Frequency (Hz) -->
     <g transform="translate(198.455312 335.860562)scale(0.1 -0.1)">
      <defs>
       <path d="M 628 4666 
L 3309 4666 
L 3309 4134 
L 1259 4134 
L 1259 2759 
L 3109 2759 
L 3109 2228 
L 1259 2228 
L 1259 0 
L 628 0 
L 628 4666 
z
" id="DejaVuSans-46" transform="scale(0.015625)"/>
       <path d="M 2631 2963 
Q 2534 3019 2420 3045 
Q 2306 3072 2169 3072 
Q 1681 3072 1420 2755 
Q 1159 2438 1159 1844 
L 1159 0 
L 581 0 
L 581 3500 
L 1159 3500 
L 1159 2956 
Q 1341 3275 1631 3429 
Q 1922 3584 2338 3584 
Q 2397 3584 2469 3576 
Q 2541 3569 2628 3553 
L 2631 2963 
z
" id="DejaVuSans-72" transform="scale(0.015625)"/>
       <path d="M 3597 1894 
L 3597 1613 
L 953 1613 
Q 991 1019 1311 708 
Q 1631 397 2203 397 
Q 2534 397 2845 478 
Q 3156 559 3463 722 
L 3463 178 
Q 3153 47 2828 -22 
Q 2503 -91 2169 -91 
Q 1331 -91 842 396 
Q 353 884 353 1716 
Q 353 2575 817 3079 
Q 1281 3584 2069 3584 
Q 2775 3584 3186 3129 
Q 3597 2675 3597 1894 
z
M 3022 2063 
Q 3016 2534 2758 2815 
Q 2500 3097 2075 3097 
Q 1594 3097 1305 2825 
Q 1016 2553 972 2059 
L 3022 2063 
z
" id="DejaVuSans-65" transform="scale(0.015625)"/>
       <path d="M 947 1747 
Q 947 1113 1208 752 
Q 1469 391 1925 391 
Q 2381 391 2643 752 
Q 2906 1113 2906 1747 
Q 2906 2381 2643 2742 
Q 2381 3103 1925 3103 
Q 1469 3103 1208 2742 
Q 947 2381 947 1747 
z
M 2906 525 
Q 2725 213 2448 61 
Q 2172 -91 1784 -91 
Q 1150 -91 751 415 
Q 353 922 353 1747 
Q 353 2572 751 3078 
Q 1150 3584 1784 3584 
Q 2172 3584 2448 3432 
Q 2725 3281 2906 2969 
L 2906 3500 
L 3481 3500 
L 3481 -1331 
L 2906 -1331 
L 2906 525 
z
" id="DejaVuSans-71" transform="scale(0.015625)"/>
       <path d="M 544 1381 
L 544 3500 
L 1119 3500 
L 1119 1403 
Q 1119 906 1312 657 
Q 1506 409 1894 409 
Q 2359 409 2629 706 
Q 2900 1003 2900 1516 
L 2900 3500 
L 3475 3500 
L 3475 0 
L 2900 0 
L 2900 538 
Q 2691 219 2414 64 
Q 2138 -91 1772 -91 
Q 1169 -91 856 284 
Q 544 659 544 1381 
z
M 1991 3584 
L 1991 3584 
z
" id="DejaVuSans-75" transform="scale(0.015625)"/>
       <path d="M 3513 2113 
L 3513 0 
L 2938 0 
L 2938 2094 
Q 2938 2591 2744 2837 
Q 2550 3084 2163 3084 
Q 1697 3084 1428 2787 
Q 1159 2491 1159 1978 
L 1159 0 
L 581 0 
L 581 3500 
L 1159 3500 
L 1159 2956 
Q 1366 3272 1645 3428 
Q 1925 3584 2291 3584 
Q 2894 3584 3203 3211 
Q 3513 2838 3513 2113 
z
" id="DejaVuSans-6e" transform="scale(0.015625)"/>
       <path d="M 3122 3366 
L 3122 2828 
Q 2878 2963 2633 3030 
Q 2388 3097 2138 3097 
Q 1578 3097 1268 2742 
Q 959 2388 959 1747 
Q 959 1106 1268 751 
Q 1578 397 2138 397 
Q 2388 397 2633 464 
Q 2878 531 3122 666 
L 3122 134 
Q 2881 22 2623 -34 
Q 2366 -91 2075 -91 
Q 1284 -91 818 406 
Q 353 903 353 1747 
Q 353 2603 823 3093 
Q 1294 3584 2113 3584 
Q 2378 3584 2631 3529 
Q 2884 3475 3122 3366 
z
" id="DejaVuSans-63" transform="scale(0.015625)"/>
       <path d="M 2059 -325 
Q 1816 -950 1584 -1140 
Q 1353 -1331 966 -1331 
L 506 -1331 
L 506 -850 
L 844 -850 
Q 1081 -850 1212 -737 
Q 1344 -625 1503 -206 
L 1606 56 
L 191 3500 
L 800 3500 
L 1894 763 
L 2988 3500 
L 3597 3500 
L 2059 -325 
z
" id="DejaVuSans-79" transform="scale(0.015625)"/>
       <path id="DejaVuSans-20" transform="scale(0.015625)"/>
       <path d="M 1984 4856 
Q 1566 4138 1362 3434 
Q 1159 2731 1159 2009 
Q 1159 1288 1364 580 
Q 1569 -128 1984 -844 
L 1484 -844 
Q 1016 -109 783 600 
Q 550 1309 550 2009 
Q 550 2706 781 3412 
Q 1013 4119 1484 4856 
L 1984 4856 
z
" id="DejaVuSans-28" transform="scale(0.015625)"/>
       <path d="M 628 4666 
L 1259 4666 
L 1259 2753 
L 3553 2753 
L 3553 4666 
L 4184 4666 
L 4184 0 
L 3553 0 
L 3553 2222 
L 1259 2222 
L 1259 0 
L 628 0 
L 628 4666 
z
" id="DejaVuSans-48" transform="scale(0.015625)"/>
       <path d="M 353 3500 
L 3084 3500 
L 3084 2975 
L 922 459 
L 3084 459 
L 3084 0 
L 275 0 
L 275 525 
L 2438 3041 
L 353 3041 
L 353 3500 
z
" id="DejaVuSans-7a" transform="scale(0.015625)"/>
       <path d="M 513 4856 
L 1013 4856 
Q 1481 4119 1714 3412 
Q 1947 2706 1947 2009 
Q 1947 1309 1714 600 
Q 1481 -109 1013 -844 
L 513 -844 
Q 928 -128 1133 580 
Q 1338 1288 1338 2009 
Q 1338 2731 1133 3434 
Q 928 4138 513 4856 
z
" id="DejaVuSans-29" transform="scale(0.015625)"/>
      </defs>
      <use xlink:href="#DejaVuSans-46"/>
      <use x="50.269531" xlink:href="#DejaVuSans-72"/>
      <use x="89.132812" xlink:href="#DejaVuSans-65"/>
      <use x="150.65625" xlink:href="#DejaVuSans-71"/>
      <use x="214.132812" xlink:href="#DejaVuSans-75"/>
      <use x="277.511719" xlink:href="#DejaVuSans-65"/>
      <use x="339.035156" xlink:href="#DejaVuSans-6e"/>
      <use x="402.414062" xlink:href="#DejaVuSans-63"/>
      <use x="457.394531" xlink:href="#DejaVuSans-79"/>
      <use x="516.574219" xlink:href="#DejaVuSans-20"/>
      <use x="548.361328" xlink:href="#DejaVuSans-28"/>
      <use x="587.375" xlink:href="#DejaVuSans-48"/>
      <use x="662.570312" xlink:href="#DejaVuSans-7a"/>
      <use x="715.060547" xlink:href="#DejaVuSans-29"/>
     </g>
    </g>
   </g>
   <g id="matplotlib.axis_2">
    <g id="ytick_1">
     <g id="line2d_39">
      <defs>
       <path d="M 0 0 
L -3.5 0 
" id="m9f0d487c85" style="stroke:#000000;stroke-width:0.8;"/>
      </defs>
      <g>
       <use style="stroke:#000000;stroke-width:0.8;" x="57.6" xlink:href="#m9f0d487c85" y="285.087778"/>
      </g>
     </g>
     <g id="text_6">
      <!-- −140 -->
      <g transform="translate(23.132812 288.886997)scale(0.1 -0.1)">
       <defs>
        <path d="M 678 2272 
L 4684 2272 
L 4684 1741 
L 678 1741 
L 678 2272 
z
" id="DejaVuSans-2212" transform="scale(0.015625)"/>
       </defs>
       <use xlink:href="#DejaVuSans-2212"/>
       <use x="83.789062" xlink:href="#DejaVuSans-31"/>
       <use x="147.412109" xlink:href="#DejaVuSans-34"/>
       <use x="211.035156" xlink:href="#DejaVuSans-30"/>
      </g>
     </g>
    </g>
    <g id="ytick_2">
     <g id="line2d_40">
      <g>
       <use style="stroke:#000000;stroke-width:0.8;" x="57.6" xlink:href="#m9f0d487c85" y="252.013524"/>
      </g>
     </g>
     <g id="text_7">
      <!-- −120 -->
      <g transform="translate(23.132812 255.812743)scale(0.1 -0.1)">
       <use xlink:href="#DejaVuSans-2212"/>
       <use x="83.789062" xlink:href="#DejaVuSans-31"/>
       <use x="147.412109" xlink:href="#DejaVuSans-32"/>
       <use x="211.035156" xlink:href="#DejaVuSans-30"/>
      </g>
     </g>
    </g>
    <g id="ytick_3">
     <g id="line2d_41">
      <g>
       <use style="stroke:#000000;stroke-width:0.8;" x="57.6" xlink:href="#m9f0d487c85" y="218.93927"/>
      </g>
     </g>
     <g id="text_8">
      <!-- −100 -->
      <g transform="translate(23.132812 222.738489)scale(0.1 -0.1)">
       <use xlink:href="#DejaVuSans-2212"/>
       <use x="83.789062" xlink:href="#DejaVuSans-31"/>
       <use x="147.412109" xlink:href="#DejaVuSans-30"/>
       <use x="211.035156" xlink:href="#DejaVuSans-30"/>
      </g>
     </g>
    </g>
    <g id="ytick_4">
     <g id="line2d_42">
      <g>
       <use style="stroke:#000000;stroke-width:0.8;" x="57.6" xlink:href="#m9f0d487c85" y="185.865016"/>
      </g>
     </g>
     <g id="text_9">
      <!-- −80 -->
      <g transform="translate(29.495313 189.664235)scale(0.1 -0.1)">
       <defs>
        <path d="M 2034 2216 
Q 1584 2216 1326 1975 
Q 1069 1734 1069 1313 
Q 1069 891 1326 650 
Q 1584 409 2034 409 
Q 2484 409 2743 651 
Q 3003 894 3003 1313 
Q 3003 1734 2745 1975 
Q 2488 2216 2034 2216 
z
M 1403 2484 
Q 997 2584 770 2862 
Q 544 3141 544 3541 
Q 544 4100 942 4425 
Q 1341 4750 2034 4750 
Q 2731 4750 3128 4425 
Q 3525 4100 3525 3541 
Q 3525 3141 3298 2862 
Q 3072 2584 2669 2484 
Q 3125 2378 3379 2068 
Q 3634 1759 3634 1313 
Q 3634 634 3220 271 
Q 2806 -91 2034 -91 
Q 1263 -91 848 271 
Q 434 634 434 1313 
Q 434 1759 690 2068 
Q 947 2378 1403 2484 
z
M 1172 3481 
Q 1172 3119 1398 2916 
Q 1625 2713 2034 2713 
Q 2441 2713 2670 2916 
Q 2900 3119 2900 3481 
Q 2900 3844 2670 4047 
Q 2441 4250 2034 4250 
Q 1625 4250 1398 4047 
Q 1172 3844 1172 3481 
z
" id="DejaVuSans-38" transform="scale(0.015625)"/>
       </defs>
       <use xlink:href="#DejaVuSans-2212"/>
       <use x="83.789062" xlink:href="#DejaVuSans-38"/>
       <use x="147.412109" xlink:href="#DejaVuSans-30"/>
      </g>
     </g>
    </g>
    <g id="ytick_5">
     <g id="line2d_43">
      <g>
       <use style="stroke:#000000;stroke-width:0.8;" x="57.6" xlink:href="#m9f0d487c85" y="152.790762"/>
      </g>
     </g>
     <g id="text_10">
      <!-- −60 -->
      <g transform="translate(29.495313 156.589981)scale(0.1 -0.1)">
       <defs>
        <path d="M 2113 2584 
Q 1688 2584 1439 2293 
Q 1191 2003 1191 1497 
Q 1191 994 1439 701 
Q 1688 409 2113 409 
Q 2538 409 2786 701 
Q 3034 994 3034 1497 
Q 3034 2003 2786 2293 
Q 2538 2584 2113 2584 
z
M 3366 4563 
L 3366 3988 
Q 3128 4100 2886 4159 
Q 2644 4219 2406 4219 
Q 1781 4219 1451 3797 
Q 1122 3375 1075 2522 
Q 1259 2794 1537 2939 
Q 1816 3084 2150 3084 
Q 2853 3084 3261 2657 
Q 3669 2231 3669 1497 
Q 3669 778 3244 343 
Q 2819 -91 2113 -91 
Q 1303 -91 875 529 
Q 447 1150 447 2328 
Q 447 3434 972 4092 
Q 1497 4750 2381 4750 
Q 2619 4750 2861 4703 
Q 3103 4656 3366 4563 
z
" id="DejaVuSans-36" transform="scale(0.015625)"/>
       </defs>
       <use xlink:href="#DejaVuSans-2212"/>
       <use x="83.789062" xlink:href="#DejaVuSans-36"/>
       <use x="147.412109" xlink:href="#DejaVuSans-30"/>
      </g>
     </g>
    </g>
    <g id="ytick_6">
     <g id="line2d_44">
      <g>
       <use style="stroke:#000000;stroke-width:0.8;" x="57.6" xlink:href="#m9f0d487c85" y="119.716508"/>
      </g>
     </g>
     <g id="text_11">
      <!-- −40 -->
      <g transform="translate(29.495313 123.515727)scale(0.1 -0.1)">
       <use xlink:href="#DejaVuSans-2212"/>
       <use x="83.789062" xlink:href="#DejaVuSans-34"/>
       <use x="147.412109" xlink:href="#DejaVuSans-30"/>
      </g>
     </g>
    </g>
    <g id="ytick_7">
     <g id="line2d_45">
      <g>
       <use style="stroke:#000000;stroke-width:0.8;" x="57.6" xlink:href="#m9f0d487c85" y="86.642254"/>
      </g>
     </g>
     <g id="text_12">
      <!-- −20 -->
      <g transform="translate(29.495313 90.441473)scale(0.1 -0.1)">
       <use xlink:href="#DejaVuSans-2212"/>
       <use x="83.789062" xlink:href="#DejaVuSans-32"/>
       <use x="147.412109" xlink:href="#DejaVuSans-30"/>
      </g>
     </g>
    </g>
    <g id="ytick_8">
     <g id="line2d_46">
      <g>
       <use style="stroke:#000000;stroke-width:0.8;" x="57.6" xlink:href="#m9f0d487c85" y="53.568"/>
      </g>
     </g>
     <g id="text_13">
      <!-- 0 -->
      <g transform="translate(44.2375 57.367219)scale(0.1 -0.1)">
       <use xlink:href="#DejaVuSans-30"/>
      </g>
     </g>
    </g>
    <g id="text_14">
     <!-- Volume (dB) -->
     <g transform="translate(17.053125 205.220188)rotate(-90)scale(0.1 -0.1)">
      <defs>
       <path d="M 1831 0 
L 50 4666 
L 709 4666 
L 2188 738 
L 3669 4666 
L 4325 4666 
L 2547 0 
L 1831 0 
z
" id="DejaVuSans-56" transform="scale(0.015625)"/>
       <path d="M 1959 3097 
Q 1497 3097 1228 2736 
Q 959 2375 959 1747 
Q 959 1119 1226 758 
Q 1494 397 1959 397 
Q 2419 397 2687 759 
Q 2956 1122 2956 1747 
Q 2956 2369 2687 2733 
Q 2419 3097 1959 3097 
z
M 1959 3584 
Q 2709 3584 3137 3096 
Q 3566 2609 3566 1747 
Q 3566 888 3137 398 
Q 2709 -91 1959 -91 
Q 1206 -91 779 398 
Q 353 888 353 1747 
Q 353 2609 779 3096 
Q 1206 3584 1959 3584 
z
" id="DejaVuSans-6f" transform="scale(0.015625)"/>
       <path d="M 603 4863 
L 1178 4863 
L 1178 0 
L 603 0 
L 603 4863 
z
" id="DejaVuSans-6c" transform="scale(0.015625)"/>
       <path d="M 3328 2828 
Q 3544 3216 3844 3400 
Q 4144 3584 4550 3584 
Q 5097 3584 5394 3201 
Q 5691 2819 5691 2113 
L 5691 0 
L 5113 0 
L 5113 2094 
Q 5113 2597 4934 2840 
Q 4756 3084 4391 3084 
Q 3944 3084 3684 2787 
Q 3425 2491 3425 1978 
L 3425 0 
L 2847 0 
L 2847 2094 
Q 2847 2600 2669 2842 
Q 2491 3084 2119 3084 
Q 1678 3084 1418 2786 
Q 1159 2488 1159 1978 
L 1159 0 
L 581 0 
L 581 3500 
L 1159 3500 
L 1159 2956 
Q 1356 3278 1631 3431 
Q 1906 3584 2284 3584 
Q 2666 3584 2933 3390 
Q 3200 3197 3328 2828 
z
" id="DejaVuSans-6d" transform="scale(0.015625)"/>
       <path d="M 2906 2969 
L 2906 4863 
L 3481 4863 
L 3481 0 
L 2906 0 
L 2906 525 
Q 2725 213 2448 61 
Q 2172 -91 1784 -91 
Q 1150 -91 751 415 
Q 353 922 353 1747 
Q 353 2572 751 3078 
Q 1150 3584 1784 3584 
Q 2172 3584 2448 3432 
Q 2725 3281 2906 2969 
z
M 947 1747 
Q 947 1113 1208 752 
Q 1469 391 1925 391 
Q 2381 391 2643 752 
Q 2906 1113 2906 1747 
Q 2906 2381 2643 2742 
Q 2381 3103 1925 3103 
Q 1469 3103 1208 2742 
Q 947 2381 947 1747 
z
" id="DejaVuSans-64" transform="scale(0.015625)"/>
       <path d="M 1259 2228 
L 1259 519 
L 2272 519 
Q 2781 519 3026 730 
Q 3272 941 3272 1375 
Q 3272 1813 3026 2020 
Q 2781 2228 2272 2228 
L 1259 2228 
z
M 1259 4147 
L 1259 2741 
L 2194 2741 
Q 2656 2741 2882 2914 
Q 3109 3088 3109 3444 
Q 3109 3797 2882 3972 
Q 2656 4147 2194 4147 
L 1259 4147 
z
M 628 4666 
L 2241 4666 
Q 2963 4666 3353 4366 
Q 3744 4066 3744 3513 
Q 3744 3084 3544 2831 
Q 3344 2578 2956 2516 
Q 3422 2416 3680 2098 
Q 3938 1781 3938 1306 
Q 3938 681 3513 340 
Q 3088 0 2303 0 
L 628 0 
L 628 4666 
z
" id="DejaVuSans-42" transform="scale(0.015625)"/>
      </defs>
      <use xlink:href="#DejaVuSans-56"/>
      <use x="60.658203" xlink:href="#DejaVuSans-6f"/>
      <use x="121.839844" xlink:href="#DejaVuSans-6c"/>
      <use x="149.623047" xlink:href="#DejaVuSans-75"/>
      <use x="213.001953" xlink:href="#DejaVuSans-6d"/>
      <use x="310.414062" xlink:href="#DejaVuSans-65"/>
      <use x="371.9375" xlink:href="#DejaVuSans-20"/>
      <use x="403.724609" xlink:href="#DejaVuSans-28"/>
      <use x="442.738281" xlink:href="#DejaVuSans-64"/>
      <use x="506.214844" xlink:href="#DejaVuSans-42"/>
      <use x="574.818359" xlink:href="#DejaVuSans-29"/>
     </g>
    </g>
   </g>
   <g id="line2d_47">
    <path clip-path="url(#p1c15df5d5a)" d="M -1 166.986041 
L 73.832727 166.983191 
L 97.628046 147.444324 
L 111.547416 183.527854 
L 121.423365 147.584985 
L 129.083747 134.777685 
L 140.634633 185.688806 
L 145.218684 152.331557 
L 149.262104 166.385908 
L 152.879066 154.86417 
L 156.151006 161.538297 
L 159.138053 141.519579 
L 161.885871 157.08036 
L 164.429952 150.07344 
L 166.798435 135.249257 
L 169.014003 158.427556 
L 171.095209 148.908085 
L 173.057423 154.096071 
L 174.913517 141.193845 
L 176.674385 156.061828 
L 178.349321 138.867576 
L 179.946325 154.764708 
L 181.472327 160.22605 
L 182.933372 156.146037 
L 184.334766 147.092734 
L 185.68119 154.571906 
L 186.976792 149.755794 
L 188.225271 152.83697 
L 189.429935 135.834732 
L 190.593754 137.551151 
L 191.719409 150.112525 
L 192.809322 150.759704 
L 193.865694 156.956422 
L 194.890528 145.252521 
L 195.885653 143.085984 
L 196.852742 132.932474 
L 197.793332 139.008579 
L 198.708836 120.631351 
L 199.600559 123.8619 
L 200.469704 137.253936 
L 201.317386 130.315758 
L 202.14464 152.559973 
L 202.952428 121.46727 
L 203.741644 116.467963 
L 204.513123 115.894948 
L 205.267646 137.124358 
L 206.005941 126.646042 
L 206.728691 120.334935 
L 207.436539 122.391807 
L 208.130085 126.514848 
L 208.809898 117.815944 
L 209.476509 113.616829 
L 210.130421 124.674207 
L 210.772111 109.291761 
L 211.402026 118.684171 
L 212.02059 101.253981 
L 212.628206 111.826667 
L 213.225253 107.123408 
L 214.389073 94.825724 
L 214.956514 93.978494 
L 215.514728 88.089405 
L 216.06401 91.639793 
L 216.604641 84.876363 
L 217.13689 87.88792 
L 217.661013 94.115425 
L 218.177254 86.96427 
L 218.685847 88.159698 
L 219.187015 69.363358 
L 219.680972 59.876262 
L 220.167921 58.07377 
L 220.648061 64.195297 
L 221.121577 84.643 
L 221.588651 71.546957 
L 222.049455 72.59812 
L 222.952912 94.522949 
L 223.395878 88.015722 
L 223.833201 98.915104 
L 224.265023 97.76856 
L 224.69148 92.710226 
L 225.112705 115.268715 
L 225.528824 95.850627 
L 225.939959 105.050337 
L 226.346229 103.282179 
L 226.747747 100.089085 
L 227.144623 106.777169 
L 227.536963 102.207309 
L 227.92487 103.280653 
L 228.308442 109.865347 
L 228.687776 106.155855 
L 229.062965 111.0731 
L 229.434097 110.23924 
L 229.80126 99.31299 
L 230.164537 112.733973 
L 230.52401 102.104904 
L 230.879758 103.768453 
L 231.231858 114.617927 
L 231.580383 104.519211 
L 231.925404 122.907684 
L 232.266993 109.386362 
L 232.605217 109.275096 
L 232.94014 113.399707 
L 233.271828 102.238924 
L 233.600341 117.809152 
L 233.92574 106.4647 
L 234.248084 100.634454 
L 234.56743 133.374568 
L 234.883832 99.267191 
L 235.197345 103.316165 
L 235.50802 109.596354 
L 235.815909 105.14446 
L 236.121061 127.426604 
L 236.423525 113.975077 
L 236.723346 106.846708 
L 237.020572 113.830008 
L 237.607414 99.388466 
L 237.897115 101.805221 
L 238.184392 95.874695 
L 238.469285 100.72316 
L 238.751833 98.353057 
L 239.032074 97.510099 
L 239.310047 101.928495 
L 239.585786 96.413538 
L 239.859329 95.754092 
L 240.130708 96.856691 
L 240.39996 94.551083 
L 240.932209 92.395098 
L 241.195271 95.649775 
L 241.456332 95.777494 
L 241.972573 87.110198 
L 242.227812 89.811923 
L 242.481166 113.19679 
L 242.732665 87.298439 
L 243.476291 62.134316 
L 243.720629 60.452941 
L 243.96324 63.329948 
L 244.44338 84.081396 
L 244.680954 72.741775 
L 244.916896 76.462456 
L 245.151227 95.267477 
L 245.38397 84.976489 
L 245.615145 88.828981 
L 245.844774 98.983387 
L 246.072877 89.366615 
L 246.524586 97.721837 
L 246.748231 94.296953 
L 246.970428 97.353386 
L 247.191197 103.349495 
L 247.410555 102.076793 
L 247.62852 101.857831 
L 247.84511 104.640243 
L 248.060342 99.742436 
L 248.274233 105.529939 
L 248.486799 101.700169 
L 248.698058 100.38692 
L 248.908024 111.358133 
L 249.116714 104.631746 
L 249.324143 102.574143 
L 249.530326 121.22087 
L 249.735278 105.473971 
L 249.939014 100.526231 
L 250.141548 121.094572 
L 250.342894 98.623471 
L 250.543066 107.17648 
L 250.742077 108.134475 
L 250.939942 100.37401 
L 251.136672 142.627393 
L 251.332282 100.923958 
L 251.720189 114.928077 
L 251.912511 103.684642 
L 252.103761 106.894795 
L 252.293952 115.80531 
L 252.483095 99.082609 
L 252.671202 108.216254 
L 252.858284 105.556683 
L 253.044351 100.911684 
L 253.229416 116.679871 
L 253.413488 98.497325 
L 253.596579 97.082422 
L 253.778698 102.916564 
L 253.959856 90.852889 
L 254.140063 97.070495 
L 254.319329 96.834506 
L 254.497664 94.596223 
L 254.675077 103.774567 
L 254.851579 93.783107 
L 255.027177 95.789878 
L 255.201881 105.177421 
L 255.375701 99.226588 
L 255.548646 100.778169 
L 255.720723 107.109736 
L 255.891943 92.790213 
L 256.062312 92.028771 
L 256.23184 93.120051 
L 256.400535 93.269668 
L 256.568406 103.88858 
L 256.735459 99.186058 
L 257.067146 77.626796 
L 257.39566 66.279278 
L 257.558745 66.057706 
L 257.721059 71.757559 
L 257.88261 87.80504 
L 258.043403 84.928157 
L 258.203447 78.183628 
L 258.362749 81.212758 
L 258.679151 98.214734 
L 258.836265 94.522725 
L 259.148353 105.204776 
L 259.303339 94.090784 
L 259.457629 95.627117 
L 259.611228 104.304621 
L 259.764143 95.256227 
L 259.91638 95.638382 
L 260.067945 102.604598 
L 260.218844 100.120773 
L 260.369082 92.29069 
L 260.518665 101.274815 
L 260.6676 93.242903 
L 260.815891 95.647771 
L 260.963545 95.228413 
L 261.110566 97.871832 
L 261.402733 93.733753 
L 261.547889 101.538349 
L 261.836373 93.794975 
L 261.979711 91.690242 
L 262.122453 95.24186 
L 262.264604 87.695552 
L 262.547152 96.016436 
L 262.687558 93.883121 
L 262.827393 94.618974 
L 262.966661 97.86889 
L 263.243512 98.644245 
L 263.381105 102.919677 
L 263.518149 99.517188 
L 263.654647 102.156587 
L 263.790606 96.494383 
L 264.060917 106.635246 
L 264.195279 110.251295 
L 264.462435 105.025165 
L 264.595237 102.94198 
L 264.727528 98.665412 
L 264.859311 98.395725 
L 264.99059 102.04023 
L 265.121369 114.180032 
L 265.381441 90.095157 
L 265.510742 89.304947 
L 265.639558 93.727414 
L 265.767892 92.537775 
L 266.023131 82.714202 
L 266.527984 67.366926 
L 266.777653 60.283948 
L 267.02552 58.747794 
L 267.393996 53.568 
L 267.637468 58.986289 
L 267.879225 57.305346 
L 268.357691 76.578041 
L 268.476273 85.247952 
L 268.594447 84.816633 
L 268.712215 81.754151 
L 268.946546 83.365837 
L 269.063115 81.363924 
L 269.410464 94.728653 
L 269.640093 91.633284 
L 269.754334 90.458198 
L 269.868196 90.677028 
L 270.207533 87.060929 
L 270.319905 85.050336 
L 270.431909 86.217779 
L 270.54355 85.963809 
L 270.654828 84.519884 
L 270.765747 85.229247 
L 270.986516 87.379562 
L 271.09637 86.229928 
L 271.205874 86.280147 
L 271.423839 88.324203 
L 271.855661 95.279776 
L 272.069552 95.847199 
L 272.282118 92.118227 
L 272.38791 93.089275 
L 272.493377 92.771458 
L 272.59852 89.830296 
L 272.703343 91.302875 
L 272.807846 88.546227 
L 272.912033 89.594125 
L 273.325645 99.51792 
L 273.428274 97.87255 
L 273.632616 110.528512 
L 273.734333 109.924001 
L 273.835749 117.137859 
L 274.037687 97.620649 
L 274.238445 107.197886 
L 274.438035 95.817506 
L 274.537396 95.990039 
L 274.636471 99.681745 
L 274.735261 108.062359 
L 274.833767 107.363536 
L 275.029935 85.817569 
L 275.224989 75.897427 
L 275.322102 75.884299 
L 275.611803 72.164677 
L 275.89908 80.903181 
L 276.466521 94.783679 
L 276.560189 93.032342 
L 277.024735 102.322069 
L 277.116894 101.425373 
L 277.300474 102.952393 
L 277.483078 100.877328 
L 277.574017 95.841989 
L 277.664715 96.135206 
L 277.845397 95.072712 
L 278.025132 99.14326 
L 278.114648 98.043308 
L 278.203931 97.998227 
L 278.292983 99.537802 
L 278.381804 97.901712 
L 278.734809 111.308799 
L 278.822496 110.776909 
L 278.909959 112.536808 
L 278.9972 118.285255 
L 279.430111 107.49567 
L 279.516042 114.412777 
L 279.601759 110.508523 
L 279.687262 116.785785 
L 279.857631 112.502002 
L 280.027159 116.564598 
L 280.195854 132.833229 
L 280.363725 118.898962 
L 280.447353 119.929189 
L 280.614001 107.968899 
L 280.779844 92.643248 
L 280.862465 93.053667 
L 280.944889 95.93245 
L 281.027115 94.915727 
L 281.190979 89.478161 
L 281.354064 90.332322 
L 281.435317 90.198528 
L 281.597249 91.973294 
L 281.75842 82.885352 
L 281.998766 90.4974 
L 282.158068 97.401776 
L 282.47447 121.879284 
L 282.553117 110.839873 
L 282.631584 115.861105 
L 282.709872 112.681905 
L 282.787983 116.107309 
L 282.865915 115.903258 
L 282.943672 115.793882 
L 283.021252 118.615947 
L 283.098658 114.314022 
L 283.175889 119.813859 
L 283.252948 114.308214 
L 283.406547 117.908363 
L 283.48309 116.390968 
L 283.559462 119.360333 
L 283.635665 113.199573 
L 283.711699 113.864105 
L 283.787565 126.572352 
L 283.863264 119.605142 
L 283.938796 123.952293 
L 284.014162 116.58065 
L 284.089364 126.849616 
L 284.164401 119.351944 
L 284.239274 127.878605 
L 284.313984 123.939077 
L 284.462919 129.396141 
L 284.537145 123.695335 
L 284.685117 133.563882 
L 284.758864 134.193096 
L 284.97916 125.867609 
L 285.052279 131.771661 
L 285.125243 124.116114 
L 285.198052 125.05305 
L 285.270707 124.045016 
L 285.487753 112.116189 
L 285.559798 115.700824 
L 285.631692 113.259604 
L 285.703436 124.441388 
L 285.77503 120.205159 
L 285.988921 105.518253 
L 286.059923 108.564799 
L 286.130778 112.396345 
L 286.201487 111.994247 
L 286.272051 109.752957 
L 286.342471 110.966067 
L 286.412746 114.502704 
L 286.482877 113.834277 
L 286.622712 110.030391 
L 286.692417 110.874222 
L 286.76198 111.555393 
L 286.831402 114.500044 
L 286.900684 139.549849 
L 287.107696 103.437494 
L 287.176424 103.17531 
L 287.245014 99.944841 
L 287.313468 100.117904 
L 287.381785 103.123893 
L 287.449966 101.267209 
L 287.721346 109.738775 
L 287.788858 107.511834 
L 288.124436 127.447146 
L 288.19116 126.406667 
L 288.390556 140.441485 
L 288.522847 130.215423 
L 288.588802 147.524018 
L 288.65463 144.667632 
L 288.785909 129.882763 
L 288.851361 147.097656 
L 288.916688 128.061434 
L 288.981891 131.40347 
L 289.04697 135.232457 
L 289.111926 124.422851 
L 289.17676 154.829614 
L 289.241471 120.738915 
L 289.306061 136.989802 
L 289.370529 125.10059 
L 289.434877 130.373691 
L 289.499104 133.844112 
L 289.563211 125.934552 
L 289.627199 139.454609 
L 289.691068 124.904363 
L 289.754818 131.401046 
L 289.81845 124.816691 
L 289.881964 125.199313 
L 290.008641 120.841779 
L 290.071804 125.367641 
L 290.134852 124.084746 
L 290.197784 124.905178 
L 290.2606 129.116716 
L 290.323303 126.939342 
L 290.38589 128.202988 
L 290.448364 134.876947 
L 290.510725 115.193898 
L 290.572972 115.949361 
L 290.635107 118.263921 
L 290.697129 136.879755 
L 290.75904 122.417252 
L 290.882527 102.132948 
L 290.944104 105.32543 
L 291.005571 109.243426 
L 291.066929 108.60384 
L 291.250345 98.803128 
L 291.311267 101.06408 
L 291.432787 111.930209 
L 291.553878 95.421843 
L 291.614264 96.230132 
L 291.914611 99.909721 
L 292.507534 108.466092 
L 292.800199 121.770438 
L 292.974608 115.56806 
L 293.378148 125.487116 
L 293.435412 122.931909 
L 293.49258 123.856028 
L 293.549653 122.343828 
L 293.606631 122.8533 
L 293.663515 123.347091 
L 293.720304 123.179266 
L 293.946529 144.005276 
L 294.002852 141.484743 
L 294.115224 132.599796 
L 294.171272 135.588206 
L 294.227228 136.386654 
L 294.283094 142.6053 
L 294.505651 123.559932 
L 294.561066 126.045435 
L 294.616392 138.275819 
L 294.671628 136.566879 
L 294.836806 117.890565 
L 294.946484 129.634749 
L 295.001193 148.628866 
L 295.164796 109.503645 
L 295.219158 111.708014 
L 295.327623 129.2794 
L 295.543532 109.332084 
L 295.597298 108.091863 
L 295.65098 109.091512 
L 295.864871 117.022968 
L 295.971318 115.685766 
L 296.024419 115.970036 
L 296.077437 115.774674 
L 296.130374 115.214624 
L 296.288696 109.894848 
L 296.341308 110.57794 
L 296.707352 130.147876 
L 296.759327 127.922406 
L 297.069534 145.638358 
L 297.223593 116.935768 
L 297.478831 113.661278 
L 297.529652 113.894471 
L 297.631068 116.541571 
L 297.833006 125.83205 
L 298.033764 146.5066 
L 298.08377 142.652103 
L 298.133704 141.573943 
L 298.183565 135.166084 
L 298.233354 135.335492 
L 298.332715 141.613443 
L 298.382288 161.966003 
L 298.43179 138.626327 
L 298.579868 115.250034 
L 298.629086 115.915123 
L 298.678233 115.039635 
L 298.825254 103.747063 
L 298.874122 105.838695 
L 298.971649 124.536463 
L 299.020308 143.449569 
L 299.068899 124.833608 
L 299.407122 85.903229 
L 299.503149 89.66667 
L 299.551061 88.371755 
L 299.598907 87.588235 
L 299.88459 97.599712 
L 299.931974 97.483613 
L 299.979292 96.508243 
L 300.355508 111.943419 
L 300.402247 130.330289 
L 300.495533 123.484839 
L 300.727646 149.731165 
L 300.912213 120.637293 
L 301.004126 115.806601 
L 301.04999 126.673337 
L 301.095793 125.701447 
L 301.141535 120.300241 
L 301.187217 137.75004 
L 301.232837 127.086988 
L 301.323896 131.713368 
L 301.640716 97.586723 
L 301.775605 106.42617 
L 301.820451 102.12479 
L 301.954638 95.9205 
L 302.088302 100.443169 
L 302.177123 96.633938 
L 302.221448 97.891475 
L 302.354079 117.172393 
L 302.4862 87.951408 
L 302.573999 98.127261 
L 302.617815 94.023409 
L 302.661574 88.496649 
L 302.705278 92.030299 
L 302.748926 111.244575 
L 302.792519 100.763856 
L 302.836057 96.805412 
L 302.879539 102.480333 
L 302.922967 117.262879 
L 302.966339 106.582532 
L 303.009657 108.382209 
L 303.182384 129.486446 
L 303.22543 115.088986 
L 303.268423 125.806887 
L 303.311361 126.356626 
L 303.397078 113.125638 
L 303.439856 107.009238 
L 303.482581 113.818617 
L 303.567871 109.475916 
L 303.65295 125.502289 
L 303.695411 112.263519 
L 303.780175 117.214635 
L 303.822478 110.847718 
L 303.86473 122.230712 
L 303.906929 118.273921 
L 303.949077 114.26521 
L 303.991173 135.813991 
L 304.075211 125.341705 
L 304.117153 125.895565 
L 304.159044 114.750156 
L 304.200883 116.579485 
L 304.242672 127.690976 
L 304.326097 122.186309 
L 304.40932 115.4871 
L 304.450856 123.510012 
L 304.492341 121.756676 
L 304.533777 115.827945 
L 304.575162 149.838133 
L 304.616498 112.535355 
L 304.657784 108.982104 
L 304.699021 109.616724 
L 304.781346 114.890455 
L 304.904464 97.892546 
L 305.027142 107.200713 
L 305.108684 102.420209 
L 305.149383 105.111199 
L 305.190034 112.906203 
L 305.230636 111.803182 
L 305.392567 100.21716 
L 305.473248 120.449338 
L 305.553739 88.988241 
L 305.593913 92.042904 
L 305.634041 108.541782 
L 305.674122 92.814509 
L 305.714157 90.169064 
L 305.953387 124.961042 
L 305.993097 123.264863 
L 306.07238 121.781471 
L 306.111952 139.85955 
L 306.190961 115.207471 
L 306.230398 132.147521 
L 306.309135 119.56714 
L 306.387692 119.96349 
L 306.426903 120.396158 
L 306.46607 133.637674 
L 306.544269 124.598838 
L 306.583301 126.806762 
L 306.62229 125.972951 
L 306.661234 121.935644 
L 306.700134 137.156178 
L 306.738991 119.498747 
L 306.777803 120.952821 
L 306.855296 109.815054 
L 307.009759 132.049856 
L 307.048266 130.124625 
L 307.16353 114.585305 
L 307.240158 124.028404 
L 307.278408 120.572993 
L 307.316616 120.988341 
L 307.392903 110.885675 
L 307.430984 112.07958 
L 307.469022 116.257456 
L 307.507018 115.63251 
L 307.69637 98.000109 
L 307.809481 112.965475 
L 307.884683 99.752371 
L 307.922222 111.806848 
L 307.95972 119.020776 
L 307.997177 106.019945 
L 308.071968 104.057017 
L 308.146598 100.406955 
L 308.183851 116.084578 
L 308.258238 101.344583 
L 308.295371 103.064478 
L 308.332464 110.632716 
L 308.369517 106.932266 
L 308.406529 101.895537 
L 308.443502 105.005329 
L 308.664508 127.423982 
L 308.737861 116.573338 
L 308.774479 140.026916 
L 308.847598 115.903972 
L 308.884099 117.873425 
L 308.993371 148.446504 
L 309.029717 119.094298 
L 309.102295 140.67505 
L 309.210876 128.318949 
L 309.319113 142.381076 
L 309.355117 113.190831 
L 309.462902 115.22306 
L 309.498755 129.106255 
L 309.570349 118.918946 
L 309.713091 129.019052 
L 309.78424 110.555189 
L 309.819759 117.595946 
L 309.890688 144.945609 
L 309.926097 118.151781 
L 309.996806 103.087334 
L 310.032107 106.478916 
L 310.06737 115.543144 
L 310.102598 108.501283 
L 310.208065 95.689994 
L 310.243149 98.393429 
L 310.348185 120.482765 
L 310.383126 110.234205 
L 310.418031 108.619235 
L 310.487736 123.348761 
L 310.522535 107.431421 
L 310.626721 91.910905 
L 310.66138 95.826201 
L 310.696003 113.891087 
L 310.765146 93.250456 
L 310.799665 93.171876 
L 310.83415 94.218222 
L 311.006055 121.65453 
L 311.074577 106.467492 
L 311.108787 110.011768 
L 311.245285 128.959819 
L 311.279325 107.285156 
L 311.347304 117.251619 
L 311.381244 113.190965 
L 311.415149 125.07287 
L 311.48286 117.28559 
L 311.516665 110.905437 
L 311.550438 114.626803 
L 311.584176 124.327732 
L 311.617882 115.444248 
L 311.651555 110.052996 
L 311.718802 114.652653 
L 311.752376 112.516556 
L 311.819425 142.220127 
L 311.852901 125.6347 
L 311.886344 115.69544 
L 311.953133 124.295707 
L 311.986479 138.879737 
L 312.019792 119.686942 
L 312.053073 117.943293 
L 312.119538 126.874794 
L 312.185875 113.156034 
L 312.252084 115.351596 
L 312.417051 105.887579 
L 312.482816 107.409033 
L 312.581228 96.419946 
L 312.613969 100.806622 
L 312.679359 124.835629 
L 312.744624 121.190911 
L 312.809765 124.319915 
L 312.874783 136.979212 
L 313.00445 98.949592 
L 313.03679 100.453834 
L 313.133629 92.515027 
L 313.165848 97.350835 
L 313.613768 121.850422 
L 313.677283 128.019518 
L 313.708996 127.818093 
L 313.772334 132.089055 
L 313.835556 120.692592 
L 313.867123 126.472287 
L 313.930171 122.813012 
L 313.961651 115.109506 
L 313.993103 129.295051 
L 314.024525 118.674554 
L 314.055919 119.240846 
L 314.087285 117.83639 
L 314.118622 112.347577 
L 314.14993 120.827065 
L 314.181209 116.766644 
L 314.243683 120.252684 
L 314.274878 113.340757 
L 314.337181 120.469285 
L 314.368291 121.963563 
L 314.430426 140.577413 
L 314.492448 133.05198 
L 314.523417 139.874665 
L 314.554359 129.018584 
L 314.647015 115.420954 
L 314.677846 124.628843 
L 314.80089 110.155128 
L 314.831583 110.374339 
L 314.892885 118.740794 
L 314.923495 118.390867 
L 314.954078 110.086941 
L 315.015163 115.274521 
L 315.045664 116.106014 
L 315.076138 115.451125 
L 315.106586 110.508912 
L 315.137006 120.185017 
L 315.1674 121.331849 
L 315.197766 118.576676 
L 315.349197 100.493509 
L 315.379404 102.115604 
L 315.439736 97.865886 
L 315.499963 99.550846 
L 315.70993 108.967756 
L 315.73982 105.145545 
L 315.769685 109.643822 
L 315.799524 106.967346 
L 315.91862 113.708078 
L 316.037304 109.407225 
L 316.066911 114.434774 
L 316.096493 106.319952 
L 316.126049 110.175614 
L 316.185085 108.095821 
L 316.273449 118.224031 
L 316.332232 116.113183 
L 316.390915 113.409024 
L 316.420218 121.733127 
L 316.478751 111.469071 
L 316.566363 130.35033 
L 316.595518 116.990926 
L 316.624647 115.980864 
L 316.711889 135.782051 
L 316.769926 131.872441 
L 316.798909 116.088679 
L 316.827866 117.302507 
L 316.914593 148.497431 
L 317.029889 114.146949 
L 317.058653 144.832319 
L 317.087393 112.91588 
L 317.1448 120.852225 
L 317.202111 127.069385 
L 317.230731 114.559066 
L 317.344972 136.459877 
L 317.458834 115.164701 
L 317.515623 114.649763 
L 317.572319 130.905547 
L 317.600632 116.626024 
L 317.685431 117.174168 
L 317.770021 114.17673 
L 317.798171 142.608683 
L 317.910543 114.450038 
L 317.938578 127.930203 
L 317.966591 113.961296 
L 318.022547 118.500019 
L 318.050491 114.156315 
L 318.078413 134.931063 
L 318.106312 114.050868 
L 318.162041 116.109074 
L 318.189872 114.107713 
L 318.245466 111.374269 
L 318.27323 137.934301 
L 318.30097 112.083578 
L 318.384059 113.86037 
L 318.411711 144.899333 
L 318.494532 120.866509 
L 318.522094 116.98299 
L 318.549635 133.41074 
L 318.577154 114.574184 
L 318.632125 119.995848 
L 318.714417 117.542513 
L 318.741803 133.270854 
L 318.769168 116.718229 
L 318.851133 117.009339 
L 318.932902 132.504029 
L 318.960115 114.714624 
L 319.041625 117.991326 
L 319.068752 127.866734 
L 319.150005 120.169551 
L 319.177047 122.041455 
L 319.231067 121.238623 
L 319.285001 137.593457 
L 319.365745 125.175485 
L 319.392617 141.678088 
L 319.446299 116.742404 
L 319.473108 130.944798 
L 319.499896 111.429526 
L 319.580136 114.383238 
L 319.686832 132.180407 
L 319.713455 116.547076 
L 319.793198 118.357508 
L 319.819738 135.989363 
L 319.846257 117.270843 
L 319.899235 127.806475 
L 319.978548 119.554571 
L 319.95213 131.752296 
L 320.004945 124.217315 
L 320.031322 124.378291 
L 320.110331 121.483144 
L 320.215394 128.166066 
L 320.24161 119.3802 
L 320.267805 137.187695 
L 320.320137 121.694771 
L 320.372388 119.271301 
L 320.398484 140.243352 
L 320.424561 115.897433 
L 320.502671 126.328025 
L 320.580604 166.621365 
L 320.554646 125.684813 
L 320.606542 128.320091 
L 320.632461 128.041334 
L 320.65836 124.150438 
L 320.68424 138.920145 
L 320.761762 129.580673 
L 320.839109 122.890698 
L 320.813346 134.785841 
L 320.864853 127.604199 
L 320.916283 139.871912 
L 320.993283 133.796181 
L 321.018912 133.332796 
L 321.044521 125.895244 
L 321.070112 142.360244 
L 321.121235 135.756872 
L 321.146768 135.376616 
L 321.197778 137.45756 
L 321.29957 120.345815 
L 321.401061 148.254788 
L 321.426387 127.651108 
L 321.451695 123.429181 
L 321.476983 153.006479 
L 321.502253 121.609034 
L 321.552738 123.607662 
L 321.577952 124.473508 
L 321.603148 144.237941 
L 321.628325 122.465637 
L 321.678625 127.921813 
L 321.779003 135.940034 
L 321.804052 132.441676 
L 321.854095 132.464406 
L 321.953962 123.872434 
L 322.078389 148.492134 
L 322.15283 130.060673 
L 322.202367 135.824353 
L 322.227109 125.086154 
L 322.251833 175.128051 
L 322.325899 130.228464 
L 322.375187 129.99656 
L 322.448987 140.600137 
L 322.473552 130.06674 
L 322.547141 138.977367 
L 322.620573 140.935561 
L 322.645016 140.241796 
L 322.693848 137.577523 
L 322.718239 148.321762 
L 322.742612 126.599975 
L 322.766967 138.285407 
L 322.839931 124.372118 
L 322.815627 160.538662 
L 322.888488 130.650773 
L 322.936975 135.957784 
L 323.009579 121.762446 
L 323.033746 144.326146 
L 323.057896 120.023186 
L 323.106146 130.374867 
L 323.130245 120.483876 
L 323.178393 131.053442 
L 323.202441 122.141214 
L 323.226473 139.159246 
L 323.274486 121.008655 
L 323.298468 124.120958 
L 323.322432 120.09075 
L 323.34638 129.016343 
L 323.370311 121.62168 
L 323.394226 127.035729 
L 323.418124 120.82641 
L 323.46587 123.454753 
L 323.537365 125.387003 
L 323.561163 119.479251 
L 323.584945 125.775418 
L 323.656193 124.817247 
L 323.703609 125.917092 
L 323.821864 114.589403 
L 323.916176 118.148455 
L 323.939713 113.002499 
L 324.033702 114.301358 
L 324.150827 119.810396 
L 324.197566 119.37615 
L 324.3374 113.222319 
L 324.383886 111.770618 
L 324.453496 121.083671 
L 324.476668 115.49393 
L 324.54609 115.93902 
L 324.661483 127.488559 
L 324.684516 124.583358 
L 324.707532 125.942356 
L 324.730533 135.054386 
L 324.77649 123.614659 
L 324.799445 132.704483 
L 324.822385 117.96988 
L 324.891112 121.335448 
L 324.913991 134.884696 
L 325.005353 128.819765 
L 325.141943 145.444992 
L 325.164655 132.963649 
L 325.255353 140.494243 
L 325.345813 168.276645 
L 325.390953 154.717342 
L 325.52602 136.8495 
L 325.570924 160.497214 
L 325.638171 140.104264 
L 325.705286 137.77749 
L 325.727629 146.544808 
L 325.749957 138.661188 
L 325.77227 156.696537 
L 325.794569 138.964709 
L 325.816854 163.013961 
L 325.839124 137.841596 
L 325.905848 160.358605 
L 325.972442 139.462456 
L 326.016767 142.945598 
L 326.149398 159.025947 
L 326.171454 151.204237 
L 326.325447 130.298487 
L 326.369318 130.520989 
L 326.391233 129.095199 
L 326.413134 133.642973 
L 326.522428 147.183786 
L 326.609614 141.114547 
L 326.631376 165.642295 
L 326.653124 137.235294 
L 326.739979 158.052786 
L 326.804976 166.554123 
L 326.869851 142.671558 
L 326.977703 189.591131 
L 327.042252 163.795884 
L 327.128129 132.565242 
L 327.170988 144.866791 
L 327.192397 166.223297 
L 327.256544 134.44878 
L 327.277899 141.195478 
L 327.299242 139.714955 
L 327.405756 159.210496 
L 327.469506 132.267964 
L 327.533138 141.73505 
L 327.554322 141.83651 
L 327.575494 172.27637 
L 327.596652 138.816268 
L 327.660049 147.882451 
L 327.681155 144.42784 
L 327.702248 148.220555 
L 327.723329 185.75703 
L 327.786492 131.76851 
L 327.84954 119.787171 
L 327.912472 125.362615 
L 328.037991 144.764732 
L 328.163052 133.071933 
L 328.28766 161.243149 
L 328.329096 160.574348 
L 328.411817 141.733736 
L 328.453103 143.543165 
L 328.576665 126.806451 
L 328.638279 141.199894 
L 328.617753 123.046256 
L 328.679294 138.835511 
L 328.699783 125.479806 
L 328.761177 143.569185 
L 328.781617 148.98924 
L 328.822461 134.767252 
L 328.842865 146.450973 
L 328.904003 127.548507 
L 328.944702 143.449542 
L 328.965033 143.054419 
L 329.00566 125.761674 
L 329.086769 128.283387 
L 329.107016 127.79737 
L 329.147475 124.487836 
L 329.208074 172.989279 
L 329.328953 128.420233 
L 329.389232 130.618459 
L 329.489464 145.632955 
L 329.509476 139.474673 
L 329.529475 138.167639 
L 329.549463 152.968731 
L 329.609357 134.345331 
L 329.629299 137.051536 
L 329.669147 131.234871 
L 329.689054 138.1511 
L 329.70895 132.152236 
L 329.788416 143.185907 
L 329.808254 129.960411 
L 329.82808 135.233591 
L 329.907271 129.299396 
L 329.966545 151.629509 
L 329.98628 126.12793 
L 330.025717 144.235899 
L 330.104454 145.07635 
L 330.143755 126.007602 
L 330.202622 154.385589 
L 330.261388 139.228133 
L 330.280955 146.398922 
L 330.339588 136.325764 
L 330.35911 146.149168 
L 330.456553 134.033831 
L 330.39812 153.586259 
L 330.476009 138.946508 
L 330.495453 138.735367 
L 330.61189 126.504616 
L 330.53431 139.182087 
L 330.650615 129.823232 
L 330.669961 136.899245 
L 330.727933 127.490748 
L 330.785808 121.819984 
L 330.824337 122.465369 
L 330.920471 151.274456 
L 330.958849 148.95885 
L 330.978022 141.057255 
L 331.016336 149.280146 
L 331.054608 148.622878 
L 331.111935 158.822997 
L 331.092836 144.948135 
L 331.169166 150.643825 
L 331.207268 153.371815 
L 331.340291 128.530339 
L 331.359252 127.618637 
L 331.378203 129.356374 
L 331.397143 127.85381 
L 331.453902 135.356813 
L 331.4728 127.364841 
L 331.491689 132.789203 
L 331.567138 123.895745 
L 331.585974 140.496784 
L 331.642422 123.420239 
L 331.661217 134.894154 
L 331.680002 123.307991 
L 331.755039 135.565759 
L 331.773772 132.21511 
L 331.792496 147.823554 
L 331.88596 143.81823 
L 331.904622 129.699171 
L 331.997782 134.26597 
L 332.053557 137.716267 
L 332.072128 131.028333 
L 332.09069 134.733648 
L 332.109241 131.82911 
L 332.164835 135.6535 
L 332.183347 134.094742 
L 332.201848 143.562542 
L 332.275754 128.826616 
L 332.294206 137.219878 
L 332.312648 129.203998 
L 332.33108 137.313303 
L 332.367914 133.380614 
L 332.386316 147.24031 
L 332.441464 128.112053 
L 332.459827 130.57051 
L 332.514856 123.666096 
L 332.53318 133.223281 
L 332.551494 124.042339 
L 332.569798 141.688798 
L 332.661173 135.165015 
L 332.752305 124.943365 
L 332.806868 124.965104 
L 332.951947 141.64479 
L 332.843195 124.487182 
L 333.006195 140.922555 
L 333.096416 125.918513 
L 333.132439 127.112618 
L 333.150436 151.658016 
L 333.24028 125.616132 
L 333.294074 120.152853 
L 333.329889 123.291649 
L 333.383543 146.798755 
L 333.437113 128.841239 
L 333.47278 132.634431 
L 333.490599 121.471452 
L 333.50841 148.515587 
L 333.597323 139.003005 
L 333.650561 130.088628 
L 333.632824 146.187499 
L 333.721416 132.475686 
L 333.827425 151.830986 
L 333.880308 126.190829 
L 333.933109 137.462349 
L 333.950691 136.127184 
L 334.02093 168.380134 
L 334.055996 141.878687 
L 334.073515 144.330235 
L 334.091026 133.113138 
L 334.108527 138.809234 
L 334.178445 129.961632 
L 334.230789 132.111019 
L 334.283054 148.010633 
L 334.33524 131.63256 
L 334.352618 139.991669 
L 334.404698 133.656001 
L 334.474015 135.442354 
L 334.525911 145.851399 
L 334.594984 141.974039 
L 334.663919 145.878801 
L 334.681131 125.699068 
L 334.749893 124.486053 
L 334.801374 151.538777 
L 334.869896 130.171598 
L 334.904106 133.650399 
L 335.040604 152.565159 
L 335.091652 146.073939 
L 335.108651 167.483631 
L 335.193519 140.421322 
L 335.227408 141.18172 
L 335.328875 129.343511 
L 335.379495 162.986645 
L 335.36263 125.533505 
L 335.430042 134.21926 
L 335.446874 132.912178 
L 335.463698 152.755022 
L 335.480514 131.689354 
L 335.547695 142.12747 
L 335.64822 127.016494 
L 335.681663 132.519906 
L 335.748452 168.903991 
L 335.765129 130.205088 
L 335.781798 140.070593 
L 335.86502 119.94115 
L 335.881641 141.111717 
L 335.898253 123.250187 
L 335.981194 157.645297 
L 336.030863 136.902154 
L 336.047403 132.19597 
L 336.096977 143.075053 
L 336.113485 140.408987 
L 336.17944 138.165653 
L 336.245268 161.093152 
L 336.327376 162.00039 
L 336.376547 140.193722 
L 336.425647 150.142962 
L 336.474678 136.890491 
L 336.507326 148.934458 
L 336.523638 140.080539 
L 336.58881 164.908814 
L 336.605084 152.462254 
L 336.637608 161.076832 
L 336.670102 152.064682 
L 336.686337 154.279839 
L 336.734996 136.254589 
L 336.783587 156.512306 
L 336.799769 140.086964 
L 336.815943 163.111828 
L 336.896699 158.196501 
L 336.912827 139.783752 
L 336.961167 171.286723 
L 336.993356 164.628488 
L 337.137834 133.856268 
L 337.185858 143.081383 
L 337.217837 141.966834 
L 337.377286 171.269964 
L 337.424977 142.955443 
L 337.488462 151.486486 
L 337.551829 149.741726 
L 337.61508 168.127452 
L 337.678215 154.426993 
L 337.75697 160.060496 
L 337.772699 181.027074 
L 337.804137 155.372119 
L 337.851238 159.673277 
L 337.866925 156.004662 
L 337.882604 160.752656 
L 337.898276 190.352081 
L 337.976528 157.311665 
L 337.992157 169.249099 
L 338.054603 156.772237 
L 338.070197 174.894458 
L 338.116935 157.354627 
L 338.1325 169.07937 
L 338.194691 148.262964 
L 338.210221 149.313282 
L 338.241261 145.898654 
L 338.349677 175.528369 
L 338.365138 155.768017 
L 338.380591 178.335528 
L 338.457753 178.184006 
L 338.488569 173.14874 
L 338.503967 177.534721 
L 338.519358 211.77139 
L 338.596209 168.490626 
L 338.611559 175.558595 
L 338.626901 175.662977 
L 338.764678 152.011257 
L 338.688204 178.442492 
L 338.779953 152.087688 
L 338.825736 150.059903 
L 338.917118 187.761422 
L 338.947525 155.275882 
L 339.038585 167.047984 
L 339.068884 159.016294 
L 339.084024 161.164565 
L 339.099157 186.621685 
L 339.129403 160.87806 
L 339.189816 169.430408 
L 339.204902 176.167182 
L 339.265182 156.784564 
L 339.310323 151.842323 
L 339.295282 160.447469 
L 339.355404 152.093066 
L 339.475332 195.098269 
L 339.520197 177.292625 
L 339.654442 159.594121 
L 339.669326 198.779375 
L 339.758493 165.381601 
L 339.81781 175.495365 
L 339.832623 158.922764 
L 339.84743 175.326298 
L 339.891812 158.393367 
L 339.936136 178.634898 
L 339.965654 158.863651 
L 340.024614 183.365557 
L 340.068768 160.444014 
L 340.098172 152.283178 
L 340.142231 170.288098 
L 340.156905 177.709866 
L 340.186233 155.995762 
L 340.244816 168.024925 
L 340.288687 183.762468 
L 340.376263 155.643645 
L 340.492683 186.325261 
L 340.434522 150.796573 
L 340.507208 159.382218 
L 340.521726 158.67635 
L 340.60871 171.329227 
L 340.550745 153.451547 
L 340.623185 158.077554 
L 340.695473 165.151441 
L 340.753194 150.20588 
L 340.839593 150.022389 
L 340.882712 168.918593 
L 340.983111 170.410017 
L 341.02605 149.618553 
L 341.04035 148.724965 
L 341.054645 153.397581 
L 341.068934 162.233032 
L 341.111766 147.120514 
L 341.154544 154.854169 
L 341.197269 147.012974 
L 341.254153 151.693979 
L 341.367638 164.196161 
L 341.325125 148.557763 
L 341.381798 163.699385 
L 341.424241 148.044464 
L 341.50897 152.913289 
L 341.523071 152.371068 
L 341.537166 152.837652 
L 341.635673 157.832551 
L 341.579418 152.531605 
L 341.649722 154.060685 
L 341.677803 156.159425 
L 341.733897 152.937466 
L 341.831841 157.423884 
L 341.84581 153.825082 
L 341.873732 149.802536 
L 341.915571 161.105576 
L 341.943436 166.582446 
L 341.999098 154.134806 
L 342.040785 160.585113 
L 342.068548 181.397246 
L 342.137859 157.164087 
L 342.248465 147.053782 
L 342.193206 171.44709 
L 342.262266 151.216607 
L 342.386224 176.528106 
L 342.441173 155.434788 
L 342.509735 158.465794 
L 342.550808 150.99898 
L 342.59183 163.927171 
L 342.605494 160.473142 
L 342.619152 161.24539 
L 342.632805 154.294887 
L 342.687361 167.281126 
L 342.728221 161.619424 
L 342.782626 153.586659 
L 342.809796 163.630697 
L 342.864071 151.154092 
L 342.918261 174.600382 
L 342.972366 154.677438 
L 343.012889 179.210136 
L 343.053363 155.672933 
L 343.066844 153.986631 
L 343.093791 157.984256 
L 343.120716 180.903248 
L 343.174502 157.07054 
L 343.201364 162.887211 
L 343.281824 155.721116 
L 343.228205 165.628037 
L 343.321983 159.710024 
L 343.362095 191.247139 
L 343.428845 157.722902 
L 343.522077 145.352431 
L 343.482151 188.273263 
L 343.548668 150.925292 
L 343.561956 163.883115 
L 343.654828 147.798522 
L 343.668075 148.475596 
L 343.681317 142.7435 
L 343.747449 159.891185 
L 343.760661 154.042691 
L 343.787068 165.884166 
L 343.839821 148.832233 
L 343.852997 152.951853 
L 343.90565 163.679874 
L 343.971352 141.580464 
L 344.010713 152.230869 
L 344.076214 138.171278 
L 344.0893 137.078593 
L 344.10238 143.435696 
L 344.180758 164.197195 
L 344.141591 138.054824 
L 344.23291 148.641629 
L 344.245936 145.336327 
L 344.284984 158.143993 
L 344.310991 174.951959 
L 344.336978 140.904284 
L 344.362946 139.480315 
L 344.466621 159.079949 
L 344.479559 145.223575 
L 344.557081 171.430526 
L 344.505419 139.093806 
L 344.608665 151.515686 
L 344.621549 149.222083 
L 344.634428 150.866706 
L 344.660172 183.664033 
L 344.685897 146.771819 
L 344.737288 171.519535 
L 344.762955 144.99625 
L 344.865431 150.390962 
L 344.891002 163.616326 
L 344.967601 142.614775 
L 345.005837 154.287541 
L 345.044031 139.911876 
L 345.082181 151.287374 
L 345.094889 139.81282 
L 345.171035 154.886482 
L 345.18371 147.399203 
L 345.209045 156.559859 
L 345.247013 139.343688 
L 345.25966 141.215108 
L 345.322824 133.786631 
L 345.348057 134.733471 
L 345.385871 159.857966 
L 345.423644 134.528398 
L 345.461376 147.873573 
L 345.486507 137.489348 
L 345.51162 140.442884 
L 345.611889 164.689995 
L 345.599371 139.440337 
L 345.624402 149.110744 
L 345.674408 156.364599 
L 345.711865 136.55291 
L 345.836427 169.470598 
L 345.96054 136.592418 
L 346.010059 129.490609 
L 346.071858 150.577956 
L 346.170506 132.090553 
L 346.096547 171.002978 
L 346.182817 146.531081 
L 346.219724 130.728569 
L 346.256591 147.02655 
L 346.305685 136.616394 
L 346.317948 143.419376 
L 346.35471 130.049755 
L 346.403664 131.699574 
L 346.46476 151.583494 
L 346.428116 131.397967 
L 346.513558 137.822112 
L 346.586625 129.270225 
L 346.610946 135.82408 
L 346.683807 166.749203 
L 346.720179 145.625828 
L 346.744406 132.809956 
L 346.816984 136.234678 
L 346.829065 161.085607 
L 346.901465 135.541462 
L 346.925564 139.427806 
L 346.949646 130.614995 
L 347.021792 145.404714 
L 347.093787 129.969099 
L 347.16563 131.985213 
L 347.201496 157.03598 
L 347.249259 130.260554 
L 347.273115 131.253579 
L 347.392149 158.855715 
L 347.296955 126.794419 
L 347.415907 152.216059 
L 347.451512 129.18329 
L 347.522612 153.194596 
L 347.534447 138.161183 
L 347.581749 131.974369 
L 347.640785 165.162348 
L 347.723265 165.80998 
L 347.758553 130.998662 
L 347.875919 156.016779 
L 347.911051 131.353688 
L 347.981206 136.943155 
L 348.01623 163.328143 
L 348.004559 133.813288 
L 348.086171 135.525283 
L 348.144347 154.596248 
L 348.109453 133.811293 
L 348.202424 141.482241 
L 348.237223 130.567814 
L 348.318284 136.66924 
L 348.341409 145.809029 
L 348.352966 137.279831 
L 348.364519 156.109432 
L 348.44528 130.423323 
L 348.456802 135.794927 
L 348.46832 133.634297 
L 348.514354 142.008813 
L 348.525852 139.692549 
L 348.560325 161.686201 
L 348.571809 134.87716 
L 348.629168 142.985872 
L 348.686431 149.038971 
L 348.720743 134.015296 
L 348.834871 175.210492 
L 348.914534 133.17213 
L 348.948619 144.884307 
L 349.039348 135.530493 
L 349.02802 151.901789 
L 349.061993 135.852552 
L 349.107237 133.978107 
L 349.197548 161.222548 
L 349.231354 143.194965 
L 349.220089 174.723831 
L 349.310104 149.792067 
L 349.321339 150.343993 
L 349.332571 150.243407 
L 349.399883 140.858008 
L 349.43349 174.233051 
L 349.545276 140.595667 
L 349.645573 160.668159 
L 349.567589 138.871229 
L 349.667821 153.817994 
L 349.73448 143.935568 
L 349.789931 144.808735 
L 349.856353 162.275943 
L 349.933684 160.183502 
L 349.966773 150.942979 
L 349.999829 179.944419 
L 350.032854 156.679591 
L 350.098809 179.2901 
L 350.076838 153.457279 
L 350.142708 169.287255 
L 350.197504 150.288683 
L 350.241278 159.294429 
L 350.252212 177.066291 
L 350.274071 154.957922 
L 350.350468 172.660731 
L 350.383157 181.032432 
L 350.481039 156.236971 
L 350.556977 168.94444 
L 350.524453 154.264365 
L 350.578643 155.649273 
L 350.589471 151.937508 
L 350.621934 173.735864 
L 350.66517 157.040899 
L 350.67597 172.958937 
L 350.762252 154.762245 
L 350.783789 171.690777 
L 350.859061 151.464294 
L 350.901999 155.74695 
L 350.966307 169.291557 
L 350.977013 155.135024 
L 350.987716 151.245661 
L 351.009111 174.425909 
L 351.051863 160.077901 
L 351.062542 206.768774 
L 351.083891 155.722861 
L 351.158509 158.13521 
L 351.232965 184.461333 
L 351.275438 173.880919 
L 351.339051 151.95942 
L 351.391971 162.45316 
L 351.402545 178.62344 
L 351.465922 152.28349 
L 351.497567 159.088828 
L 351.508109 156.409871 
L 351.539715 169.741026 
L 351.550244 168.76224 
L 351.623856 197.246824 
L 351.581811 168.473233 
L 351.655356 189.72163 
L 351.739214 154.975602 
L 351.770608 162.419001 
L 351.791521 153.18441 
L 351.801973 159.806087 
L 351.83331 155.11207 
L 351.916735 187.630471 
L 351.979171 187.814343 
L 352.031114 151.822243 
L 352.041493 162.435066 
L 352.124415 149.577214 
L 352.134766 160.499273 
L 352.196807 143.975377 
L 352.207136 171.050812 
L 352.238105 150.984825 
L 352.330846 144.827607 
L 352.341135 167.424917 
L 352.371984 141.344737 
L 352.454111 156.534669 
L 352.464363 148.122088 
L 352.515578 159.161847 
L 352.556495 153.77936 
L 352.61778 167.445298 
L 352.607573 151.912294 
L 352.658575 160.539462 
L 352.709501 151.594595 
L 352.699322 162.813647 
L 352.770513 156.565294 
L 352.780672 155.558505 
L 352.790827 158.944452 
L 352.800979 156.648181 
L 352.851694 172.850259 
L 352.861829 149.056376 
L 352.892213 164.376505 
L 353.013483 145.038203 
L 353.114215 162.552336 
L 353.124271 147.76439 
L 353.174512 164.864073 
L 353.154425 146.552789 
L 353.244726 155.1844 
L 353.29479 143.125814 
L 353.324794 168.854975 
L 353.344782 164.216533 
L 353.424618 144.485644 
L 353.434584 150.982408 
L 353.484373 182.623319 
L 353.454509 142.353596 
L 353.544025 152.980975 
L 353.553957 148.023036 
L 353.583735 184.716614 
L 353.593655 151.1821 
L 353.603573 197.39753 
L 353.633308 149.460405 
L 353.70259 159.446878 
L 353.761864 148.949143 
L 353.771733 168.522776 
L 353.811181 156.639003 
L 353.830888 174.460466 
L 353.909602 148.875778 
L 353.997941 180.396125 
L 353.988137 147.523783 
L 354.017541 158.081642 
L 354.086053 158.81617 
L 354.095829 146.140212 
L 354.105603 174.427792 
L 354.203185 149.877686 
L 354.222668 165.507636 
L 354.251872 141.780592 
L 354.300491 156.854838 
L 354.339336 172.602615 
L 354.416894 145.592064 
L 354.503939 170.889878 
L 354.532905 153.59257 
L 354.552202 146.843755 
L 354.561846 166.374894 
L 354.610028 153.801255 
L 354.619656 169.496159 
L 354.706189 142.383013 
L 354.71579 151.464362 
L 354.773341 140.343536 
L 354.744578 154.013582 
L 354.811655 145.258565 
L 354.916799 195.861814 
L 354.897706 138.822671 
L 354.926342 161.547777 
L 354.935882 144.035618 
L 354.945419 178.96353 
L 355.040646 148.321021 
L 355.107148 178.998337 
L 355.145092 168.723254 
L 355.211392 145.077315 
L 355.258671 152.606745 
L 355.287008 147.30036 
L 355.296448 163.284985 
L 355.34361 154.403236 
L 355.362457 180.001829 
L 355.371876 144.312492 
L 355.447139 152.000695 
L 355.494095 150.276495 
L 355.475321 154.685755 
L 355.51286 151.177132 
L 355.597173 146.597008 
L 355.615881 165.798668 
L 355.634579 146.870722 
L 355.662606 168.67869 
L 355.727916 152.936935 
L 355.737236 183.749855 
L 355.802403 143.852052 
L 355.830294 146.784458 
L 355.839586 146.720481 
L 355.90456 170.277678 
L 355.960154 152.718888 
L 355.997167 144.718139 
L 356.043377 162.498824 
L 356.071073 147.377985 
L 356.126399 150.789037 
L 356.107967 145.049101 
L 356.144821 145.977274 
L 356.172435 151.410785 
L 356.190833 143.490809 
L 356.291842 153.293042 
L 356.21841 142.816703 
L 356.30101 145.469811 
L 356.346813 153.721504 
L 356.355966 148.818508 
L 356.410835 147.084208 
L 356.474737 177.743132 
L 356.529416 144.025971 
L 356.593099 150.727704 
L 356.692933 178.81412 
L 356.683869 148.904746 
L 356.701995 155.9501 
L 356.801513 147.33854 
L 356.720111 168.191287 
L 356.819577 148.75388 
L 356.828605 145.394181 
L 356.900744 158.388353 
L 356.909751 159.354698 
L 356.918756 150.683712 
L 356.990706 175.869262 
L 356.981721 148.287475 
L 357.026625 172.524121 
L 357.134156 147.283241 
L 357.080433 175.806871 
L 357.143102 155.270337 
L 357.152046 154.194835 
L 357.160987 167.793981 
L 357.214585 144.214666 
L 357.259186 149.219089 
L 357.330427 164.456093 
L 357.27701 145.968084 
L 357.365992 155.307513 
L 357.374878 147.588594 
L 357.401521 160.08046 
L 357.472467 147.836311 
L 357.560945 179.413851 
L 357.578614 164.685549 
L 357.702037 139.445941 
L 357.622744 169.722666 
L 357.710836 146.38765 
L 357.73722 138.691384 
L 357.728428 152.735241 
L 357.763583 145.501883 
L 357.772366 172.591648 
L 357.851315 131.730505 
L 357.868834 137.894037 
L 357.956298 132.806218 
L 357.982493 151.598966 
L 357.991221 133.789074 
L 358.095777 141.770503 
L 358.104476 133.530783 
L 358.121867 154.329998 
L 358.191342 149.506818 
L 358.200017 149.591593 
L 358.30394 135.256567 
L 358.243356 167.634267 
L 358.312586 137.633705 
L 358.32123 147.157422 
L 358.373048 130.290596 
L 358.40755 145.57204 
L 358.41617 127.602489 
L 358.467845 151.614525 
L 358.519442 129.20779 
L 358.579541 157.936527 
L 358.630971 131.576748 
L 358.690875 156.244462 
L 358.725059 129.518988 
L 358.75921 148.242446 
L 358.827408 132.00768 
L 358.801849 159.980296 
L 358.869963 143.309803 
L 358.971881 133.482623 
L 358.92096 153.499704 
L 358.988838 137.154306 
L 359.039659 156.683841 
L 359.090405 135.570869 
L 359.107303 155.774879 
L 359.149513 137.101114 
L 359.20852 157.570423 
L 359.216942 140.681325 
L 359.259017 158.037452 
L 359.301041 134.974651 
L 359.326231 144.035945 
L 359.376555 131.185814 
L 359.384935 147.71341 
L 359.393313 137.07573 
L 359.468624 160.559898 
L 359.443539 134.662433 
L 359.502043 139.970831 
L 359.535429 162.339228 
L 359.543771 128.66168 
L 359.585448 140.130623 
L 359.668651 126.296481 
L 359.618753 147.353074 
L 359.693572 141.625955 
L 359.759941 134.132 
L 359.768228 147.807262 
L 359.801357 139.119368 
L 359.826182 152.342546 
L 359.817909 131.772541 
L 359.900551 144.930278 
L 359.958282 128.294375 
L 359.950041 157.418647 
L 360.007689 131.190813 
L 360.089875 155.908618 
L 360.122695 140.551361 
L 360.18824 151.928532 
L 360.163676 130.573587 
L 360.229143 139.151068 
L 360.278161 143.743394 
L 360.318957 134.970771 
L 360.32711 153.759747 
L 360.408537 131.895361 
L 360.432927 144.478036 
L 360.52221 131.259013 
L 360.48977 165.27352 
L 360.54652 132.400425 
L 360.675882 160.510174 
L 360.595088 130.355322 
L 360.700083 143.39927 
L 360.748434 129.037364 
L 360.756486 155.968846 
L 360.812797 133.573136 
L 360.820834 153.354206 
L 360.901099 130.883841 
L 360.925142 143.658056 
L 360.989174 170.820266 
L 360.981177 133.749236 
L 361.029134 164.193293 
L 361.085 132.48292 
L 361.061068 168.009216 
L 361.140775 151.384477 
L 361.156694 158.663347 
L 361.212352 141.792543 
L 361.267921 147.908084 
L 361.323399 186.499844 
L 361.299634 143.141768 
L 361.378788 156.352388 
L 361.449872 143.778185 
L 361.434088 182.912236 
L 361.481417 160.917697 
L 361.489299 160.557734 
L 361.528681 149.727503 
L 361.505057 198.020984 
L 361.591599 164.94277 
L 361.599455 185.22427 
L 361.638712 154.448383 
L 361.701428 179.528284 
L 361.709259 170.851894 
L 361.74839 200.055689 
L 361.779663 193.873415 
L 361.849922 261.529057 
L 361.896681 223.411698 
L 361.982242 245.193705 
L 362.00554 240.435765 
L 362.075339 227.026003 
L 362.083086 257.945145 
L 362.114055 238.70683 
L 362.144996 240.539487 
L 362.137264 227.41235 
L 362.152727 236.739362 
L 362.160457 226.404484 
L 362.237653 257.63524 
L 362.245364 228.246964 
L 362.253072 252.354272 
L 362.32237 226.889118 
L 362.353124 231.737983 
L 362.41455 261.20163 
L 362.452885 217.524056 
L 362.552358 260.665097 
L 362.575272 253.687837 
L 362.628679 221.155816 
L 362.689614 228.435603 
L 362.758038 245.635845 
L 362.765632 227.257274 
L 362.795992 240.20021 
L 362.803577 220.869378 
L 362.849057 253.343337 
L 362.90204 231.671926 
L 362.939835 250.393591 
L 362.992679 220.574375 
L 363.007762 242.535082 
L 363.052972 219.04601 
L 363.060501 247.13139 
L 363.098122 241.799799 
L 363.105642 263.406353 
L 363.180744 219.33846 
L 363.203243 235.940009 
L 363.278133 223.125649 
L 363.218234 245.501307 
L 363.308043 227.094499 
L 363.397617 223.553466 
L 363.412524 252.193843 
L 363.419974 224.312963 
L 363.449761 272.697773 
L 363.524116 237.239853 
L 363.583483 216.68092 
L 363.590897 247.261702 
L 363.620536 231.271976 
L 363.627942 279.763025 
L 363.642749 220.965778 
L 363.724072 234.815006 
L 363.768349 225.715329 
L 363.812568 244.263239 
L 363.834657 226.912153 
L 363.842017 255.010767 
L 363.944887 231.750756 
L 363.952224 218.197552 
L 363.981552 242.703447 
L 364.054765 229.39771 
L 364.157001 253.264131 
L 364.105921 219.668354 
L 364.164292 230.877353 
L 364.178869 226.198841 
L 364.186156 235.626877 
L 364.19344 257.844458 
L 364.258934 223.30117 
L 364.295265 246.692113 
L 364.309787 219.993752 
L 364.411267 220.858379 
L 364.454667 250.842045 
L 364.526879 229.677441 
L 364.634912 281.318641 
L 364.59174 218.353241 
L 364.642102 237.143025 
L 364.656478 222.312401 
L 364.728267 247.795853 
L 364.749774 235.440977 
L 364.77843 259.554649 
L 364.771268 223.447089 
L 364.821368 243.740248 
L 364.871396 221.336003 
L 364.914218 262.444883 
L 364.935609 232.32036 
L 364.971232 220.92749 
L 364.96411 239.616602 
L 365.006818 234.697487 
L 365.01393 250.801955 
L 365.099168 222.119155 
L 365.120444 247.344819 
L 365.240762 219.852441 
L 365.198345 249.210493 
L 365.247826 230.557252 
L 365.283126 255.112424 
L 365.304289 219.076374 
L 365.360659 233.90957 
L 365.367699 241.752588 
L 365.395843 222.559042 
L 365.473122 235.68071 
L 365.571226 222.689276 
L 365.508192 247.648074 
L 365.578223 240.991576 
L 365.669051 266.454934 
L 365.620173 221.919118 
L 365.683003 243.328734 
L 365.717859 220.206839 
L 365.759639 249.055882 
L 365.808318 220.740842 
L 365.822214 252.737695 
L 365.82916 220.346756 
L 365.912399 229.647726 
L 365.919327 220.068012 
L 365.967781 256.073193 
L 366.016166 225.829864 
L 366.105844 259.495713 
L 366.036882 223.44908 
L 366.126505 235.654255 
L 366.174668 216.316122 
L 366.167792 245.489352 
L 366.236492 229.682594 
L 366.243354 246.248942 
L 366.263933 222.444436 
L 366.339285 228.307223 
L 366.387149 222.986128 
L 366.373481 241.181014 
L 366.414471 237.248905 
L 366.469049 251.173428 
L 366.48268 224.456289 
L 366.516733 233.963582 
L 366.564351 221.98835 
L 366.591532 247.039881 
L 366.625478 224.147403 
L 366.693269 244.035676 
L 366.65939 217.489752 
L 366.73388 227.244371 
L 366.767685 229.896025 
L 366.774442 217.862791 
L 366.848682 252.08186 
L 366.84194 217.754033 
L 366.882375 224.107526 
L 366.983255 250.227945 
L 367.003395 232.30938 
L 367.023524 216.973456 
L 367.043641 242.821132 
L 367.090534 238.462438 
L 367.130678 253.261954 
L 367.110612 215.950193 
L 367.197479 237.790457 
L 367.27747 222.869711 
L 367.25749 242.999133 
L 367.310745 225.683325 
L 367.383836 249.903903 
L 367.363917 221.798432 
L 367.423638 234.761956 
L 367.470016 251.762548 
L 367.476636 225.244059 
L 367.489872 234.890024 
L 367.529552 220.826115 
L 367.516331 265.327777 
L 367.602179 226.736937 
L 367.615367 245.743701 
L 367.62196 220.799802 
L 367.714119 234.08415 
L 367.720692 234.361658 
L 367.799475 246.215849 
L 367.773234 217.742611 
L 367.819142 230.797518 
L 367.878077 222.703316 
L 367.864989 248.079844 
L 367.91731 230.932492 
L 367.969552 255.87324 
L 367.9826 219.6546 
L 368.028229 238.477718 
L 368.073798 221.037673 
L 368.067292 241.345187 
L 368.112808 225.726311 
L 368.184213 257.923249 
L 368.177728 221.434692 
L 368.223099 227.791979 
L 368.268409 241.295525 
L 368.26194 227.265059 
L 368.28781 236.724814 
L 368.294274 219.813344 
L 368.391095 240.69228 
L 368.39754 226.142171 
L 368.436185 246.142702 
L 368.423308 214.689759 
L 368.506921 230.692189 
L 368.583921 214.842929 
L 368.526187 245.347234 
L 368.603144 235.327558 
L 368.615954 248.809228 
L 368.647957 220.196501 
L 368.711873 234.705254 
L 368.813892 223.861607 
L 368.788416 243.013439 
L 368.820258 229.550377 
L 368.928302 253.129511 
L 368.832987 219.379247 
L 368.940991 250.196192 
L 369.061301 215.708106 
L 369.105519 255.858644 
L 369.174891 249.164126 
L 369.244122 220.301584 
L 369.275545 277.548953 
L 369.288106 229.434111 
L 369.338304 253.532444 
L 369.350843 227.217901 
L 369.39469 241.90669 
L 369.400949 220.888782 
L 369.425975 241.975093 
L 369.507184 224.799815 
L 369.575749 263.933655 
L 369.532133 220.712067 
L 369.619311 234.443192 
L 369.644178 244.943951 
L 369.631746 222.961974 
L 369.675237 225.245803 
L 369.681445 223.365657 
L 369.706268 243.296314 
L 369.743468 226.336467 
L 369.762052 258.33746 
L 369.861002 237.738095 
L 369.922701 220.452908 
L 369.928865 241.307861 
L 369.959668 236.036239 
L 369.965825 251.904593 
L 370.02119 220.684391 
L 370.06419 240.364132 
L 370.101004 217.411488 
L 370.082602 249.092795 
L 370.180634 226.049655 
L 370.223435 253.712547 
L 370.235654 223.78498 
L 370.284486 225.611582 
L 370.302781 218.52827 
L 370.314972 247.95825 
L 370.357605 238.398727 
L 370.363692 238.548165 
L 370.388026 248.61797 
L 370.48519 225.746108 
L 370.58208 221.328576 
L 370.600217 254.628188 
L 370.684728 217.756952 
L 370.71486 233.546803 
L 370.757 222.516077 
L 370.769031 248.566477 
L 370.787069 242.273482 
L 370.817111 253.722284 
L 370.811105 223.487519 
L 370.889105 238.44898 
L 370.984864 221.3455 
L 370.937018 245.466678 
L 371.020705 223.395798 
L 371.092274 254.929247 
L 371.056508 218.863313 
L 371.139904 245.743944 
L 371.193409 259.048934 
L 371.282399 215.989621 
L 371.317931 295.488 
L 371.39479 228.429997 
L 371.477369 260.776279 
L 371.48326 218.717153 
L 371.500927 230.962246 
L 371.577378 217.935523 
L 371.553872 280.244399 
L 371.600867 225.623464 
L 371.694663 260.818004 
L 371.630206 219.214305 
L 371.712221 229.727258 
L 371.805714 264.376136 
L 371.776525 220.070168 
L 371.817383 241.377337 
L 371.916407 222.69106 
L 371.904772 259.54882 
L 371.928038 235.877557 
L 371.986135 249.336508 
L 371.951289 220.123555 
L 372.026744 239.315474 
L 372.067306 221.481793 
L 372.119386 262.080654 
L 372.136728 223.502517 
L 372.154062 251.680554 
L 372.211778 222.277384 
L 372.252121 239.304759 
L 372.303922 221.345213 
L 372.286664 280.202801 
L 372.367128 234.556186 
L 372.447404 223.134816 
L 372.476028 256.776204 
L 372.590288 225.211963 
L 372.635886 242.898701 
L 372.607394 221.412194 
L 372.704169 235.678421 
L 372.709853 220.806813 
L 372.749616 250.318467 
L 372.80634 245.201251 
L 372.812007 255.714445 
L 372.829003 219.600149 
L 372.913858 239.571791 
L 373.004139 264.773068 
L 373.026673 220.689406 
L 373.133504 264.13928 
L 373.139117 226.890263 
L 373.150342 218.74648 
L 373.172779 253.570046 
L 373.195202 233.601311 
L 373.200805 252.941147 
L 373.295924 219.992461 
L 373.301511 230.604795 
L 373.368484 220.994556 
L 373.335014 247.339214 
L 373.413061 226.513896 
L 373.418629 250.172313 
L 373.485374 223.418628 
L 373.518698 229.501906 
L 373.55199 225.193441 
L 373.535348 246.824958 
L 373.596329 229.067011 
L 373.601867 267.032979 
L 373.646142 221.026408 
L 373.706926 234.851247 
L 373.784133 219.44947 
L 373.762092 257.573503 
L 373.817169 231.987483 
L 373.877651 245.880543 
L 373.921572 218.776514 
L 373.948994 249.792734 
L 374.031128 231.001668 
L 374.063927 254.131682 
L 374.12943 225.661232 
L 374.183921 253.891263 
L 374.23289 224.205599 
L 374.238326 230.224685 
L 374.260064 221.759627 
L 374.298072 261.709033 
L 374.330617 223.932833 
L 374.368547 242.780186 
L 374.444281 233.100704 
L 374.465889 225.714553 
L 374.482086 248.951754 
L 374.54141 235.49829 
L 374.568341 249.909559 
L 374.573725 219.480823 
L 374.65438 238.805174 
L 374.734845 223.796473 
L 374.675856 247.609372 
L 374.740203 229.530335 
L 374.74556 272.351417 
L 374.825813 219.271727 
L 374.847182 227.36153 
L 374.905878 263.38128 
L 374.900546 225.943988 
L 374.953828 234.044833 
L 374.959151 219.915852 
L 375.038907 249.241314 
L 375.065451 228.023981 
L 375.155547 267.411762 
L 375.113179 221.738204 
L 375.176712 249.76043 
L 375.182001 218.665409 
L 375.282341 257.445432 
L 375.287614 239.698243 
L 375.335034 222.022563 
L 375.303428 245.93632 
L 375.392903 230.06709 
L 375.476902 257.435225 
L 375.403414 218.373575 
L 375.50311 248.968108 
L 375.592066 221.118877 
L 375.550233 263.693422 
L 375.623408 226.782215 
L 375.732878 223.850159 
L 375.743286 263.813471 
L 375.857562 223.660236 
L 375.930085 247.899556 
L 375.966289 227.41265 
L 376.002455 248.642732 
L 376.074673 226.341748 
L 376.079826 225.426644 
L 376.084978 236.337011 
L 376.100429 235.935318 
L 376.126165 261.68428 
L 376.182716 223.931809 
L 376.208391 239.135346 
L 376.290421 224.522193 
L 376.264807 248.999654 
L 376.331362 231.376379 
L 376.428403 248.380282 
L 376.413099 225.842179 
L 376.433502 226.348281 
L 376.438602 223.439515 
L 376.448797 257.985242 
L 376.484459 229.691259 
L 376.48955 259.468536 
L 376.565832 225.192786 
L 376.591222 239.261339 
L 376.626736 219.491509 
L 376.657147 257.485266 
L 376.702714 222.978799 
L 376.803757 254.536347 
L 376.813845 239.227042 
L 376.818888 218.70666 
L 376.91959 253.319308 
L 376.924618 224.130003 
L 377.019998 256.583591 
L 377.004956 220.640378 
L 377.040045 244.243136 
L 377.130109 220.770743 
L 377.105114 261.446653 
L 377.140101 245.800314 
L 377.145096 273.584823 
L 377.195008 223.136149 
L 377.244848 230.493837 
L 377.249828 230.658263 
L 377.319471 222.405821 
L 377.26974 267.113247 
L 377.349275 236.394853 
L 377.35424 260.622202 
L 377.443485 220.283088 
L 377.458336 243.540976 
L 377.567052 223.748885 
L 377.473182 255.535813 
L 377.571985 231.08886 
L 377.616355 224.251093 
L 377.68526 260.07216 
L 377.79326 225.164469 
L 377.739302 262.077679 
L 377.798161 240.025268 
L 377.81286 220.253351 
L 377.842239 256.194813 
L 377.891148 242.933847 
L 377.925343 257.48696 
L 377.915577 222.010931 
L 377.988758 238.703952 
L 377.993631 219.758818 
L 378.081231 273.411838 
L 378.095809 234.037451 
L 378.110382 252.712733 
L 378.178303 223.402506 
L 378.207371 246.446966 
L 378.299258 226.920332 
L 378.284766 256.538741 
L 378.304087 231.712265 
L 378.308916 283.046513 
L 378.400532 222.468751 
L 378.414975 248.122501 
L 378.477493 220.863928 
L 378.434223 260.820601 
L 378.525506 247.456193 
L 378.563868 256.910792 
L 378.640464 222.275379 
L 378.664365 271.596725 
L 378.721661 220.858818 
L 378.755039 253.081682 
L 378.77886 220.995732 
L 378.807425 257.90769 
L 378.869232 239.559029 
L 378.897721 220.465203 
L 378.964104 247.233659 
L 379.016172 224.260755 
L 379.049265 255.872937 
L 379.077605 224.271797 
L 379.101204 250.48711 
L 379.190733 246.550678 
L 379.251855 221.496579 
L 379.27064 257.627256 
L 379.303488 230.532786 
L 379.378454 259.011607 
L 379.369092 222.433018 
L 379.42055 252.901951 
L 379.48593 226.001358 
L 379.453256 255.302071 
L 379.537213 231.777044 
L 379.620966 224.441863 
L 379.648839 259.692042 
L 379.760102 223.851802 
L 379.76473 231.496853 
L 379.810978 272.390506 
L 379.778611 220.037192 
L 379.871006 235.301398 
L 379.93093 221.324781 
L 379.917111 261.655335 
L 379.967754 225.78256 
L 379.972354 250.858242 
L 379.990749 221.049433 
L 380.07799 233.269272 
L 380.105494 224.730083 
L 380.100912 269.906612 
L 380.151285 232.133693 
L 380.22899 250.336517 
L 380.219857 224.504428 
L 380.265496 246.029417 
L 380.352042 218.35271 
L 380.370235 250.704587 
L 380.374782 233.676235 
L 380.420215 267.950904 
L 380.447446 220.149149 
L 380.483721 224.003452 
L 380.565199 254.196095 
L 380.560677 219.044226 
L 380.596832 237.646178 
L 380.61941 222.337009 
L 380.610381 262.520569 
L 380.714075 228.862571 
L 380.754565 271.292654 
L 380.732076 226.343542 
L 380.817456 227.560475 
L 380.880232 220.497881 
L 380.898147 258.359029 
L 380.916052 231.480391 
L 380.938421 279.795954 
L 380.933949 223.641408 
L 381.02329 245.240832 
L 381.116849 255.973022 
L 381.139087 221.222202 
L 381.165754 266.926876 
L 381.19684 219.067121 
L 381.250063 224.994674 
L 381.281073 260.562134 
L 381.30763 221.170683 
L 381.3651 235.160398 
L 381.448921 218.707802 
L 381.396005 238.223653 
L 381.457733 223.225217 
L 381.462138 248.874374 
L 381.55451 216.216444 
L 381.567685 228.707787 
L 381.633488 215.420545 
L 381.611568 241.289705 
L 381.664153 224.809946 
L 381.769083 280.088527 
L 381.729772 216.931026 
L 381.773448 225.345004 
L 381.777812 225.477024 
L 381.812709 255.691207 
L 381.817068 218.624776 
L 381.886746 241.424197 
L 381.925878 216.318041 
L 381.930223 250.336285 
L 381.999672 228.950092 
L 382.086286 216.727184 
L 382.068981 264.78056 
L 382.112227 224.180262 
L 382.146786 248.486999 
L 382.15542 220.344752 
L 382.224415 248.227249 
L 382.271769 218.861695 
L 382.331943 250.504994 
L 382.340531 222.042897 
L 382.344824 217.284473 
L 382.370571 256.965035 
L 382.439135 225.496302 
L 382.460534 245.506533 
L 382.528919 221.78328 
L 382.545994 225.341525 
L 382.571591 208.444772 
L 382.60569 253.314561 
L 382.656775 221.534296 
L 382.661029 253.191766 
L 382.665282 220.903318 
L 382.7672 226.66877 
L 382.834978 214.12134 
L 382.792633 244.0407 
L 382.881498 218.612246 
L 382.991203 206.458852 
L 382.915291 238.351238 
L 382.999628 206.98063 
L 383.058541 251.917675 
L 383.117353 241.763626 
L 383.1593 212.485568 
L 383.125746 241.813299 
L 383.234675 216.728785 
L 383.238858 216.039706 
L 383.24304 227.267166 
L 383.247222 217.867372 
L 383.251403 240.646177 
L 383.301537 202.667356 
L 383.359935 232.934404 
L 383.384932 207.968989 
L 383.459814 251.85301 
L 383.472279 222.997183 
L 383.509645 253.035019 
L 383.571832 211.974706 
L 383.575974 212.238852 
L 383.613228 201.327364 
L 383.646309 246.081896 
L 383.679357 225.216075 
L 383.687614 214.775666 
L 383.699997 235.826126 
L 383.765959 221.982129 
L 383.823573 250.377185 
L 383.864666 209.827194 
L 383.876984 228.750363 
L 383.950802 205.697665 
L 383.983559 237.303549 
L 384.036723 207.303887 
L 383.995835 251.119288 
L 384.093884 219.517697 
L 384.122429 239.421769 
L 384.171308 200.472933 
L 384.203856 224.471525 
L 384.236372 204.241444 
L 384.289146 232.28436 
L 384.313476 222.84285 
L 384.386362 239.471794 
L 384.358036 211.816675 
L 384.422747 221.542076 
L 384.426788 223.606047 
L 384.467166 199.091248 
L 384.503465 212.534042 
L 384.515557 201.537055 
L 384.571927 236.648578 
L 384.600077 218.989679 
L 384.604097 233.396929 
L 384.704434 204.31956 
L 384.712448 206.238157 
L 384.720461 198.706789 
L 384.768496 230.39901 
L 384.804479 213.915567 
L 384.888292 246.38451 
L 384.868355 208.44701 
L 384.916184 229.081699 
L 384.932113 235.246761 
L 385.027527 209.584719 
L 385.122677 254.227066 
L 385.039435 207.315156 
L 385.13851 224.944375 
L 385.217565 240.013656 
L 385.162246 208.032724 
L 385.241246 226.94272 
L 385.320064 203.635239 
L 385.280677 229.889318 
L 385.355473 211.731702 
L 385.382989 242.518557 
L 385.469323 214.895317 
L 385.473242 214.851164 
L 385.55153 245.6888 
L 385.574982 202.604507 
L 385.582795 207.551126 
L 385.610129 238.294931 
L 385.699788 228.344952 
L 385.785329 210.753256 
L 385.777561 234.788936 
L 385.808622 216.124133 
L 385.831899 245.889243 
L 385.866784 194.107053 
L 385.913243 203.436781 
L 385.932583 239.221509 
L 386.02526 209.440886 
L 386.136913 184.104707 
L 386.032972 224.665565 
L 386.148443 187.451221 
L 386.221374 223.266559 
L 386.28267 207.411651 
L 386.362954 218.616537 
L 386.401119 190.812862 
L 386.42781 167.025478 
L 386.484933 205.629319 
L 386.488738 202.991173 
L 386.51536 229.922673 
L 386.560951 200.003891 
L 386.598896 207.603753 
L 386.667093 222.312159 
L 386.689795 186.695401 
L 386.693577 179.855132 
L 386.738931 228.403059 
L 386.784226 209.54795 
L 386.81062 233.094579 
L 386.852056 202.623537 
L 386.889681 211.140678 
L 386.957303 175.515263 
L 386.897201 230.826071 
L 386.998562 204.517514 
L 387.043515 237.126431 
L 387.028537 202.160852 
L 387.110835 208.927446 
L 387.140713 203.856969 
L 387.15191 235.320598 
L 387.174294 207.458121 
L 387.178023 238.282119 
L 387.219018 174.237157 
L 387.285995 220.750588 
L 387.36397 247.260374 
L 387.334286 207.9254 
L 387.393628 219.40127 
L 387.415855 236.524335 
L 387.430665 210.077363 
L 387.463964 224.832045 
L 387.563668 203.577021 
L 387.534156 230.632173 
L 387.571041 212.782969 
L 387.633656 258.374569 
L 387.659405 205.838767 
L 387.677786 209.503782 
L 387.743875 175.145357 
L 387.703502 235.559635 
L 387.76221 199.318662 
L 387.776871 238.907885 
L 387.872017 219.768478 
L 387.95232 199.877275 
L 387.897589 231.160472 
L 387.981475 208.628558 
L 388.028798 221.391161 
L 387.999684 177.486163 
L 388.090584 208.799398 
L 388.094215 209.020061 
L 388.101476 242.088801 
L 388.137757 199.673798 
L 388.210205 229.43887 
L 388.2536 184.857112 
L 388.304159 242.593827 
L 388.325804 216.094115 
L 388.333016 215.298674 
L 388.354643 240.713138 
L 388.430231 199.168073 
L 388.441016 218.49332 
L 388.505653 173.245075 
L 388.45539 228.59692 
L 388.555842 200.567174 
L 388.573749 218.418321 
L 388.602381 199.189772 
L 388.673855 214.333815 
L 388.773671 190.515693 
L 388.734492 226.440503 
L 388.787907 200.682566 
L 388.844791 243.412567 
L 388.90158 221.166078 
L 388.947653 204.2723 
L 388.912218 232.276725 
L 389.014879 204.728591 
L 389.092555 204.250608 
L 389.13485 273.685077 
L 389.24036 203.758587 
L 389.247382 207.241516 
L 389.33154 250.827958 
L 389.307015 202.623797 
L 389.356047 211.397335 
L 389.394524 204.171905 
L 389.373542 249.455811 
L 389.460881 215.914209 
L 389.544518 254.731001 
L 389.52711 200.619803 
L 389.561916 219.311382 
L 389.610586 200.796315 
L 389.638366 229.070482 
L 389.669592 212.602886 
L 389.679994 230.399964 
L 389.766558 203.675898 
L 389.776931 205.381886 
L 389.839103 241.390346 
L 389.828749 199.775433 
L 389.883935 208.78522 
L 389.890827 200.223902 
L 389.908051 246.333089 
L 389.987171 212.357942 
L 390.045534 230.17212 
L 390.028379 199.020287 
L 390.093523 211.924407 
L 390.1688 199.348628 
L 390.134604 235.305428 
L 390.202962 208.524026 
L 390.243911 230.890825 
L 390.281405 196.483809 
L 390.312052 209.113419 
L 390.373263 228.400322 
L 390.318859 202.203394 
L 390.380058 209.58386 
L 390.383455 194.392502 
L 390.397038 226.77169 
L 390.488588 202.545649 
L 390.512283 236.923304 
L 390.529199 199.726997 
L 390.600151 214.573413 
L 390.647372 199.743488 
L 390.657482 224.742556 
L 390.704624 207.556633 
L 390.731533 234.353821 
L 390.781931 199.588266 
L 390.812135 216.957674 
L 390.912621 198.948866 
L 390.862414 227.569571 
L 390.922653 202.028303 
L 390.956074 244.469202 
L 391.03615 213.772493 
L 391.082775 239.911499 
L 391.145951 200.180379 
L 391.235527 249.292177 
L 391.25209 197.072382 
L 391.258713 208.527023 
L 391.291808 226.42363 
L 391.347996 199.792861 
L 391.367805 208.119997 
L 391.374406 227.275295 
L 391.437048 199.413922 
L 391.476552 218.604782 
L 391.483132 197.57491 
L 391.519298 232.886782 
L 391.591515 199.162782 
L 391.614461 236.07439 
L 391.607907 196.650472 
L 391.702825 206.145006 
L 391.794222 227.065498 
L 391.728963 198.255227 
L 391.810518 204.251111 
L 391.830062 199.262657 
L 391.843085 230.813726 
L 391.904878 208.272221 
L 391.963317 237.694166 
L 392.0087 196.50308 
L 392.015179 222.829176 
L 392.04108 196.998366 
L 392.03137 232.46565 
L 392.128354 199.842708 
L 392.179968 228.25534 
L 392.241158 214.944025 
L 392.260459 197.201885 
L 392.318296 252.199347 
L 392.353593 204.771271 
L 392.459266 241.609375 
L 392.382445 197.205238 
L 392.46566 216.423364 
L 392.484835 254.403459 
L 392.478444 204.673473 
L 392.529535 204.689828 
L 392.59329 193.224956 
L 392.561427 232.57622 
L 392.631487 208.422429 
L 392.663286 228.129329 
L 392.64421 199.097412 
L 392.739481 201.891255 
L 392.748994 231.416515 
L 392.815508 198.106981 
L 392.847137 203.599828 
L 392.941847 194.151082 
L 392.919772 231.559993 
L 392.948152 210.688821 
L 392.97336 227.930652 
L 393.036297 193.269522 
L 393.055156 223.308886 
L 393.06144 198.248835 
L 393.108533 236.480948 
L 393.168092 208.611918 
L 393.186879 194.681398 
L 393.190009 220.150023 
L 393.243177 204.952467 
L 393.311861 235.567829 
L 393.277536 198.963889 
L 393.352382 206.076141 
L 393.364841 226.000846 
L 393.395967 199.439612 
L 393.464346 213.692823 
L 393.501587 195.077689 
L 393.498485 233.24729 
L 393.575946 207.628988 
L 393.582136 206.403645 
L 393.681014 188.998598 
L 393.674843 237.202253 
L 393.69027 211.588794 
L 393.764222 242.7297 
L 393.739589 197.503083 
L 393.801139 214.534378 
L 393.896323 197.712821 
L 393.877921 225.900634 
L 393.914716 207.022213 
L 394.009586 246.99703 
L 393.972893 198.054815 
L 394.021809 210.569125 
L 394.125523 197.833815 
L 394.113338 242.820909 
L 394.134659 199.568346 
L 394.177263 228.711462 
L 394.195505 193.267078 
L 394.24714 228.364729 
L 394.356228 190.900052 
L 394.359253 202.775179 
L 394.383446 194.509676 
L 394.398558 224.078605 
L 394.461955 199.797627 
L 394.546302 236.411629 
L 394.489089 198.650323 
L 394.570363 210.544643 
L 394.57337 195.956936 
L 394.591403 243.325881 
L 394.681428 208.360492 
L 394.711384 227.965254 
L 394.777195 194.685459 
L 394.792134 210.238772 
L 394.813038 239.363224 
L 394.819009 196.216681 
L 394.899507 204.897907 
L 394.917369 232.660035 
L 394.911416 192.824366 
L 395.006544 208.332928 
L 395.074755 195.462139 
L 395.10141 220.277317 
L 395.11029 219.283413 
L 395.198966 241.288225 
L 395.172387 195.660565 
L 395.216674 212.427206 
L 395.237321 193.84774 
L 395.272688 228.041144 
L 395.322729 221.184971 
L 395.396186 192.895514 
L 395.343313 245.665562 
L 395.448978 206.514869 
L 395.451908 205.988394 
L 395.460698 215.877882 
L 395.463628 206.333172 
L 395.481199 229.264317 
L 395.510466 193.144882 
L 395.574764 209.398405 
L 395.609785 266.188739 
L 395.612702 194.67059 
L 395.688452 220.397418 
L 395.778552 193.329729 
L 395.766939 241.656735 
L 395.801765 202.371944 
L 395.851041 241.159902 
L 395.874205 194.295715 
L 395.879994 210.490424 
L 395.882888 191.15529 
L 395.952269 237.236186 
L 395.989792 201.116981 
L 396.07335 238.636755 
L 396.070472 191.793203 
L 396.099241 205.913519 
L 396.104992 212.99061 
L 396.107867 237.770173 
L 396.139476 193.824912 
L 396.214074 207.239603 
L 396.319954 189.248011 
L 396.251312 229.497821 
L 396.322811 203.234992 
L 396.348514 235.283548 
L 396.339949 189.699243 
L 396.431205 215.118828 
L 396.533579 196.404875 
L 396.536418 231.668884 
L 396.542096 204.327476 
L 396.550612 231.729397 
L 396.638479 194.743869 
L 396.649801 210.452908 
L 396.73177 193.009386 
L 396.680915 248.966059 
L 396.757169 198.383931 
L 396.788186 195.658995 
L 396.869826 224.580027 
L 396.959686 191.435093 
L 396.889503 239.871353 
L 396.979311 206.730508 
L 397.004528 220.349463 
L 397.068886 194.160622 
L 397.088449 215.65159 
L 397.19167 191.290647 
L 397.130333 227.550278 
L 397.194456 201.87174 
L 397.252898 250.76008 
L 397.283471 193.38629 
L 397.305689 204.08767 
L 397.377798 222.438296 
L 397.405492 192.46639 
L 397.413796 203.160778 
L 397.416563 203.206516 
L 397.419331 202.836193 
L 397.502245 234.962302 
L 397.441461 196.111699 
L 397.529839 203.111557 
L 397.557411 194.669078 
L 397.549141 225.158476 
L 397.637243 206.648673 
L 397.733346 237.415567 
L 397.653737 192.639582 
L 397.741571 207.531332 
L 397.755275 193.814038 
L 397.763495 230.315758 
L 397.851049 200.408695 
L 397.908385 240.139286 
L 397.935654 191.556619 
L 397.962902 219.339807 
L 398.022771 193.178747 
L 397.987407 229.407814 
L 398.074392 207.327917 
L 398.098817 231.264339 
L 398.174695 190.89187 
L 398.182815 212.483045 
L 398.196344 191.260604 
L 398.242302 219.112494 
L 398.296292 196.475651 
L 398.347504 232.469822 
L 398.366352 195.681102 
L 398.406706 208.056139 
L 398.473858 191.503933 
L 398.463123 227.522026 
L 398.487273 203.194623 
" style="fill:none;stroke:#1f77b4;stroke-linecap:square;stroke-width:1.5;"/>
   </g>
   <g id="line2d_48">
    <path clip-path="url(#p1c15df5d5a)" d="M 272.390928 307.584 
L 272.390928 41.472 
" style="fill:none;stroke:#ff0000;stroke-dasharray:5.55,2.4;stroke-dashoffset:0;stroke-width:1.5;"/>
   </g>
   <g id="line2d_49">
    <path clip-path="url(#p1c15df5d5a)" d="M 305.754307 307.584 
L 305.754307 41.472 
" style="fill:none;stroke:#ff0000;stroke-dasharray:5.55,2.4;stroke-dashoffset:0;stroke-width:1.5;"/>
   </g>
   <g id="line2d_50">
    <path clip-path="url(#p1c15df5d5a)" d="M 324.024985 307.584 
L 324.024985 41.472 
" style="fill:none;stroke:#ff0000;stroke-dasharray:5.55,2.4;stroke-dashoffset:0;stroke-width:1.5;"/>
   </g>
   <g id="patch_3">
    <path d="M 57.6 307.584 
L 57.6 41.472 
" style="fill:none;stroke:#000000;stroke-linecap:square;stroke-linejoin:miter;stroke-width:0.8;"/>
   </g>
   <g id="patch_4">
    <path d="M 414.72 307.584 
L 414.72 41.472 
" style="fill:none;stroke:#000000;stroke-linecap:square;stroke-linejoin:miter;stroke-width:0.8;"/>
   </g>
   <g id="patch_5">
    <path d="M 57.6 307.584 
L 414.72 307.584 
" style="fill:none;stroke:#000000;stroke-linecap:square;stroke-linejoin:miter;stroke-width:0.8;"/>
   </g>
   <g id="patch_6">
    <path d="M 57.6 41.472 
L 414.72 41.472 
" style="fill:none;stroke:#000000;stroke-linecap:square;stroke-linejoin:miter;stroke-width:0.8;"/>
   </g>
   <g id="text_15">
    <!-- DFT bird -->
    <g transform="translate(210.975937 35.472)scale(0.12 -0.12)">
     <defs>
      <path d="M 1259 4147 
L 1259 519 
L 2022 519 
Q 2988 519 3436 956 
Q 3884 1394 3884 2338 
Q 3884 3275 3436 3711 
Q 2988 4147 2022 4147 
L 1259 4147 
z
M 628 4666 
L 1925 4666 
Q 3281 4666 3915 4102 
Q 4550 3538 4550 2338 
Q 4550 1131 3912 565 
Q 3275 0 1925 0 
L 628 0 
L 628 4666 
z
" id="DejaVuSans-44" transform="scale(0.015625)"/>
      <path d="M -19 4666 
L 3928 4666 
L 3928 4134 
L 2272 4134 
L 2272 0 
L 1638 0 
L 1638 4134 
L -19 4134 
L -19 4666 
z
" id="DejaVuSans-54" transform="scale(0.015625)"/>
      <path d="M 3116 1747 
Q 3116 2381 2855 2742 
Q 2594 3103 2138 3103 
Q 1681 3103 1420 2742 
Q 1159 2381 1159 1747 
Q 1159 1113 1420 752 
Q 1681 391 2138 391 
Q 2594 391 2855 752 
Q 3116 1113 3116 1747 
z
M 1159 2969 
Q 1341 3281 1617 3432 
Q 1894 3584 2278 3584 
Q 2916 3584 3314 3078 
Q 3713 2572 3713 1747 
Q 3713 922 3314 415 
Q 2916 -91 2278 -91 
Q 1894 -91 1617 61 
Q 1341 213 1159 525 
L 1159 0 
L 581 0 
L 581 4863 
L 1159 4863 
L 1159 2969 
z
" id="DejaVuSans-62" transform="scale(0.015625)"/>
      <path d="M 603 3500 
L 1178 3500 
L 1178 0 
L 603 0 
L 603 3500 
z
M 603 4863 
L 1178 4863 
L 1178 4134 
L 603 4134 
L 603 4863 
z
" id="DejaVuSans-69" transform="scale(0.015625)"/>
     </defs>
     <use xlink:href="#DejaVuSans-44"/>
     <use x="77.001953" xlink:href="#DejaVuSans-46"/>
     <use x="132.771484" xlink:href="#DejaVuSans-54"/>
     <use x="193.855469" xlink:href="#DejaVuSans-20"/>
     <use x="225.642578" xlink:href="#DejaVuSans-62"/>
     <use x="289.119141" xlink:href="#DejaVuSans-69"/>
     <use x="316.902344" xlink:href="#DejaVuSans-72"/>
     <use x="356.265625" xlink:href="#DejaVuSans-64"/>
    </g>
   </g>
  </g>
 </g>
 <defs>
  <clipPath id="p1c15df5d5a">
   <rect height="266.112" width="357.12" x="57.6" y="41.472"/>
  </clipPath>
 </defs>
</svg>
