<?xml version="1.0" encoding="utf-8" standalone="no"?>
<!DOCTYPE svg PUBLIC "-//W3C//DTD SVG 1.1//EN"
  "http://www.w3.org/Graphics/SVG/1.1/DTD/svg11.dtd">
<svg height="345.6pt" version="1.1" viewBox="0 0 460.8 345.6" width="460.8pt" xmlns="http://www.w3.org/2000/svg" xmlns:xlink="http://www.w3.org/1999/xlink">
 <metadata>
  <rdf:RDF xmlns:cc="http://creativecommons.org/ns#" xmlns:dc="http://purl.org/dc/elements/1.1/" xmlns:rdf="http://www.w3.org/1999/02/22-rdf-syntax-ns#">
   <cc:Work>
    <dc:type rdf:resource="http://purl.org/dc/dcmitype/StillImage"/>
    <dc:date>2021-10-07T14:02:35.539404</dc:date>
    <dc:format>image/svg+xml</dc:format>
    <dc:creator>
     <cc:Agent>
      <dc:title>Matplotlib v3.4.2, https://matplotlib.org/</dc:title>
     </cc:Agent>
    </dc:creator>
   </cc:Work>
  </rdf:RDF>
 </metadata>
 <defs>
  <style type="text/css">*{stroke-linecap:butt;stroke-linejoin:round;}</style>
 </defs>
 <g id="figure_1">
  <g id="patch_1">
   <path d="M 0 345.6 
L 460.8 345.6 
L 460.8 0 
L 0 0 
z
" style="fill:#ffffff;"/>
  </g>
  <g id="axes_1">
   <g id="patch_2">
    <path d="M 57.6 307.584 
L 414.72 307.584 
L 414.72 41.472 
L 57.6 41.472 
z
" style="fill:#ffffff;"/>
   </g>
   <g id="matplotlib.axis_1">
    <g id="xtick_1">
     <g id="line2d_1">
      <defs>
       <path d="M 0 0 
L 0 3.5 
" id="m60110f1130" style="stroke:#000000;stroke-width:0.8;"/>
      </defs>
      <g>
       <use style="stroke:#000000;stroke-width:0.8;" x="135.821706" xlink:href="#m60110f1130" y="307.584"/>
      </g>
     </g>
     <g id="text_1">
      <!-- $\mathdefault{10^{1}}$ -->
      <g transform="translate(127.021706 322.182437)scale(0.1 -0.1)">
       <defs>
        <path d="M 794 531 
L 1825 531 
L 1825 4091 
L 703 3866 
L 703 4441 
L 1819 4666 
L 2450 4666 
L 2450 531 
L 3481 531 
L 3481 0 
L 794 0 
L 794 531 
z
" id="DejaVuSans-31" transform="scale(0.015625)"/>
        <path d="M 2034 4250 
Q 1547 4250 1301 3770 
Q 1056 3291 1056 2328 
Q 1056 1369 1301 889 
Q 1547 409 2034 409 
Q 2525 409 2770 889 
Q 3016 1369 3016 2328 
Q 3016 3291 2770 3770 
Q 2525 4250 2034 4250 
z
M 2034 4750 
Q 2819 4750 3233 4129 
Q 3647 3509 3647 2328 
Q 3647 1150 3233 529 
Q 2819 -91 2034 -91 
Q 1250 -91 836 529 
Q 422 1150 422 2328 
Q 422 3509 836 4129 
Q 1250 4750 2034 4750 
z
" id="DejaVuSans-30" transform="scale(0.015625)"/>
       </defs>
       <use transform="translate(0 0.684375)" xlink:href="#DejaVuSans-31"/>
       <use transform="translate(63.623047 0.684375)" xlink:href="#DejaVuSans-30"/>
       <use transform="translate(128.203125 38.965625)scale(0.7)" xlink:href="#DejaVuSans-31"/>
      </g>
     </g>
    </g>
    <g id="xtick_2">
     <g id="line2d_2">
      <g>
       <use style="stroke:#000000;stroke-width:0.8;" x="214.383916" xlink:href="#m60110f1130" y="307.584"/>
      </g>
     </g>
     <g id="text_2">
      <!-- $\mathdefault{10^{2}}$ -->
      <g transform="translate(205.583916 322.182437)scale(0.1 -0.1)">
       <defs>
        <path d="M 1228 531 
L 3431 531 
L 3431 0 
L 469 0 
L 469 531 
Q 828 903 1448 1529 
Q 2069 2156 2228 2338 
Q 2531 2678 2651 2914 
Q 2772 3150 2772 3378 
Q 2772 3750 2511 3984 
Q 2250 4219 1831 4219 
Q 1534 4219 1204 4116 
Q 875 4013 500 3803 
L 500 4441 
Q 881 4594 1212 4672 
Q 1544 4750 1819 4750 
Q 2544 4750 2975 4387 
Q 3406 4025 3406 3419 
Q 3406 3131 3298 2873 
Q 3191 2616 2906 2266 
Q 2828 2175 2409 1742 
Q 1991 1309 1228 531 
z
" id="DejaVuSans-32" transform="scale(0.015625)"/>
       </defs>
       <use transform="translate(0 0.765625)" xlink:href="#DejaVuSans-31"/>
       <use transform="translate(63.623047 0.765625)" xlink:href="#DejaVuSans-30"/>
       <use transform="translate(128.203125 39.046875)scale(0.7)" xlink:href="#DejaVuSans-32"/>
      </g>
     </g>
    </g>
    <g id="xtick_3">
     <g id="line2d_3">
      <g>
       <use style="stroke:#000000;stroke-width:0.8;" x="292.946125" xlink:href="#m60110f1130" y="307.584"/>
      </g>
     </g>
     <g id="text_3">
      <!-- $\mathdefault{10^{3}}$ -->
      <g transform="translate(284.146125 322.182437)scale(0.1 -0.1)">
       <defs>
        <path d="M 2597 2516 
Q 3050 2419 3304 2112 
Q 3559 1806 3559 1356 
Q 3559 666 3084 287 
Q 2609 -91 1734 -91 
Q 1441 -91 1130 -33 
Q 819 25 488 141 
L 488 750 
Q 750 597 1062 519 
Q 1375 441 1716 441 
Q 2309 441 2620 675 
Q 2931 909 2931 1356 
Q 2931 1769 2642 2001 
Q 2353 2234 1838 2234 
L 1294 2234 
L 1294 2753 
L 1863 2753 
Q 2328 2753 2575 2939 
Q 2822 3125 2822 3475 
Q 2822 3834 2567 4026 
Q 2313 4219 1838 4219 
Q 1578 4219 1281 4162 
Q 984 4106 628 3988 
L 628 4550 
Q 988 4650 1302 4700 
Q 1616 4750 1894 4750 
Q 2613 4750 3031 4423 
Q 3450 4097 3450 3541 
Q 3450 3153 3228 2886 
Q 3006 2619 2597 2516 
z
" id="DejaVuSans-33" transform="scale(0.015625)"/>
       </defs>
       <use transform="translate(0 0.765625)" xlink:href="#DejaVuSans-31"/>
       <use transform="translate(63.623047 0.765625)" xlink:href="#DejaVuSans-30"/>
       <use transform="translate(128.203125 39.046875)scale(0.7)" xlink:href="#DejaVuSans-33"/>
      </g>
     </g>
    </g>
    <g id="xtick_4">
     <g id="line2d_4">
      <g>
       <use style="stroke:#000000;stroke-width:0.8;" x="371.508335" xlink:href="#m60110f1130" y="307.584"/>
      </g>
     </g>
     <g id="text_4">
      <!-- $\mathdefault{10^{4}}$ -->
      <g transform="translate(362.708335 322.182437)scale(0.1 -0.1)">
       <defs>
        <path d="M 2419 4116 
L 825 1625 
L 2419 1625 
L 2419 4116 
z
M 2253 4666 
L 3047 4666 
L 3047 1625 
L 3713 1625 
L 3713 1100 
L 3047 1100 
L 3047 0 
L 2419 0 
L 2419 1100 
L 313 1100 
L 313 1709 
L 2253 4666 
z
" id="DejaVuSans-34" transform="scale(0.015625)"/>
       </defs>
       <use transform="translate(0 0.684375)" xlink:href="#DejaVuSans-31"/>
       <use transform="translate(63.623047 0.684375)" xlink:href="#DejaVuSans-30"/>
       <use transform="translate(128.203125 38.965625)scale(0.7)" xlink:href="#DejaVuSans-34"/>
      </g>
     </g>
    </g>
    <g id="xtick_5">
     <g id="line2d_5">
      <defs>
       <path d="M 0 0 
L 0 2 
" id="mcc357e3491" style="stroke:#000000;stroke-width:0.6;"/>
      </defs>
      <g>
       <use style="stroke:#000000;stroke-width:0.6;" x="80.909078" xlink:href="#mcc357e3491" y="307.584"/>
      </g>
     </g>
    </g>
    <g id="xtick_6">
     <g id="line2d_6">
      <g>
       <use style="stroke:#000000;stroke-width:0.6;" x="94.743196" xlink:href="#mcc357e3491" y="307.584"/>
      </g>
     </g>
    </g>
    <g id="xtick_7">
     <g id="line2d_7">
      <g>
       <use style="stroke:#000000;stroke-width:0.6;" x="104.55866" xlink:href="#mcc357e3491" y="307.584"/>
      </g>
     </g>
    </g>
    <g id="xtick_8">
     <g id="line2d_8">
      <g>
       <use style="stroke:#000000;stroke-width:0.6;" x="112.172124" xlink:href="#mcc357e3491" y="307.584"/>
      </g>
     </g>
    </g>
    <g id="xtick_9">
     <g id="line2d_9">
      <g>
       <use style="stroke:#000000;stroke-width:0.6;" x="118.392778" xlink:href="#mcc357e3491" y="307.584"/>
      </g>
     </g>
    </g>
    <g id="xtick_10">
     <g id="line2d_10">
      <g>
       <use style="stroke:#000000;stroke-width:0.6;" x="123.652266" xlink:href="#mcc357e3491" y="307.584"/>
      </g>
     </g>
    </g>
    <g id="xtick_11">
     <g id="line2d_11">
      <g>
       <use style="stroke:#000000;stroke-width:0.6;" x="128.208241" xlink:href="#mcc357e3491" y="307.584"/>
      </g>
     </g>
    </g>
    <g id="xtick_12">
     <g id="line2d_12">
      <g>
       <use style="stroke:#000000;stroke-width:0.6;" x="132.226896" xlink:href="#mcc357e3491" y="307.584"/>
      </g>
     </g>
    </g>
    <g id="xtick_13">
     <g id="line2d_13">
      <g>
       <use style="stroke:#000000;stroke-width:0.6;" x="159.471288" xlink:href="#mcc357e3491" y="307.584"/>
      </g>
     </g>
    </g>
    <g id="xtick_14">
     <g id="line2d_14">
      <g>
       <use style="stroke:#000000;stroke-width:0.6;" x="173.305406" xlink:href="#mcc357e3491" y="307.584"/>
      </g>
     </g>
    </g>
    <g id="xtick_15">
     <g id="line2d_15">
      <g>
       <use style="stroke:#000000;stroke-width:0.6;" x="183.120869" xlink:href="#mcc357e3491" y="307.584"/>
      </g>
     </g>
    </g>
    <g id="xtick_16">
     <g id="line2d_16">
      <g>
       <use style="stroke:#000000;stroke-width:0.6;" x="190.734334" xlink:href="#mcc357e3491" y="307.584"/>
      </g>
     </g>
    </g>
    <g id="xtick_17">
     <g id="line2d_17">
      <g>
       <use style="stroke:#000000;stroke-width:0.6;" x="196.954988" xlink:href="#mcc357e3491" y="307.584"/>
      </g>
     </g>
    </g>
    <g id="xtick_18">
     <g id="line2d_18">
      <g>
       <use style="stroke:#000000;stroke-width:0.6;" x="202.214475" xlink:href="#mcc357e3491" y="307.584"/>
      </g>
     </g>
    </g>
    <g id="xtick_19">
     <g id="line2d_19">
      <g>
       <use style="stroke:#000000;stroke-width:0.6;" x="206.770451" xlink:href="#mcc357e3491" y="307.584"/>
      </g>
     </g>
    </g>
    <g id="xtick_20">
     <g id="line2d_20">
      <g>
       <use style="stroke:#000000;stroke-width:0.6;" x="210.789106" xlink:href="#mcc357e3491" y="307.584"/>
      </g>
     </g>
    </g>
    <g id="xtick_21">
     <g id="line2d_21">
      <g>
       <use style="stroke:#000000;stroke-width:0.6;" x="238.033497" xlink:href="#mcc357e3491" y="307.584"/>
      </g>
     </g>
    </g>
    <g id="xtick_22">
     <g id="line2d_22">
      <g>
       <use style="stroke:#000000;stroke-width:0.6;" x="251.867616" xlink:href="#mcc357e3491" y="307.584"/>
      </g>
     </g>
    </g>
    <g id="xtick_23">
     <g id="line2d_23">
      <g>
       <use style="stroke:#000000;stroke-width:0.6;" x="261.683079" xlink:href="#mcc357e3491" y="307.584"/>
      </g>
     </g>
    </g>
    <g id="xtick_24">
     <g id="line2d_24">
      <g>
       <use style="stroke:#000000;stroke-width:0.6;" x="269.296544" xlink:href="#mcc357e3491" y="307.584"/>
      </g>
     </g>
    </g>
    <g id="xtick_25">
     <g id="line2d_25">
      <g>
       <use style="stroke:#000000;stroke-width:0.6;" x="275.517197" xlink:href="#mcc357e3491" y="307.584"/>
      </g>
     </g>
    </g>
    <g id="xtick_26">
     <g id="line2d_26">
      <g>
       <use style="stroke:#000000;stroke-width:0.6;" x="280.776685" xlink:href="#mcc357e3491" y="307.584"/>
      </g>
     </g>
    </g>
    <g id="xtick_27">
     <g id="line2d_27">
      <g>
       <use style="stroke:#000000;stroke-width:0.6;" x="285.33266" xlink:href="#mcc357e3491" y="307.584"/>
      </g>
     </g>
    </g>
    <g id="xtick_28">
     <g id="line2d_28">
      <g>
       <use style="stroke:#000000;stroke-width:0.6;" x="289.351316" xlink:href="#mcc357e3491" y="307.584"/>
      </g>
     </g>
    </g>
    <g id="xtick_29">
     <g id="line2d_29">
      <g>
       <use style="stroke:#000000;stroke-width:0.6;" x="316.595707" xlink:href="#mcc357e3491" y="307.584"/>
      </g>
     </g>
    </g>
    <g id="xtick_30">
     <g id="line2d_30">
      <g>
       <use style="stroke:#000000;stroke-width:0.6;" x="330.429825" xlink:href="#mcc357e3491" y="307.584"/>
      </g>
     </g>
    </g>
    <g id="xtick_31">
     <g id="line2d_31">
      <g>
       <use style="stroke:#000000;stroke-width:0.6;" x="340.245288" xlink:href="#mcc357e3491" y="307.584"/>
      </g>
     </g>
    </g>
    <g id="xtick_32">
     <g id="line2d_32">
      <g>
       <use style="stroke:#000000;stroke-width:0.6;" x="347.858753" xlink:href="#mcc357e3491" y="307.584"/>
      </g>
     </g>
    </g>
    <g id="xtick_33">
     <g id="line2d_33">
      <g>
       <use style="stroke:#000000;stroke-width:0.6;" x="354.079407" xlink:href="#mcc357e3491" y="307.584"/>
      </g>
     </g>
    </g>
    <g id="xtick_34">
     <g id="line2d_34">
      <g>
       <use style="stroke:#000000;stroke-width:0.6;" x="359.338895" xlink:href="#mcc357e3491" y="307.584"/>
      </g>
     </g>
    </g>
    <g id="xtick_35">
     <g id="line2d_35">
      <g>
       <use style="stroke:#000000;stroke-width:0.6;" x="363.89487" xlink:href="#mcc357e3491" y="307.584"/>
      </g>
     </g>
    </g>
    <g id="xtick_36">
     <g id="line2d_36">
      <g>
       <use style="stroke:#000000;stroke-width:0.6;" x="367.913525" xlink:href="#mcc357e3491" y="307.584"/>
      </g>
     </g>
    </g>
    <g id="xtick_37">
     <g id="line2d_37">
      <g>
       <use style="stroke:#000000;stroke-width:0.6;" x="395.157916" xlink:href="#mcc357e3491" y="307.584"/>
      </g>
     </g>
    </g>
    <g id="xtick_38">
     <g id="line2d_38">
      <g>
       <use style="stroke:#000000;stroke-width:0.6;" x="408.992035" xlink:href="#mcc357e3491" y="307.584"/>
      </g>
     </g>
    </g>
    <g id="text_5">
     <!-- Frequency (Hz) -->
     <g transform="translate(198.455312 335.860562)scale(0.1 -0.1)">
      <defs>
       <path d="M 628 4666 
L 3309 4666 
L 3309 4134 
L 1259 4134 
L 1259 2759 
L 3109 2759 
L 3109 2228 
L 1259 2228 
L 1259 0 
L 628 0 
L 628 4666 
z
" id="DejaVuSans-46" transform="scale(0.015625)"/>
       <path d="M 2631 2963 
Q 2534 3019 2420 3045 
Q 2306 3072 2169 3072 
Q 1681 3072 1420 2755 
Q 1159 2438 1159 1844 
L 1159 0 
L 581 0 
L 581 3500 
L 1159 3500 
L 1159 2956 
Q 1341 3275 1631 3429 
Q 1922 3584 2338 3584 
Q 2397 3584 2469 3576 
Q 2541 3569 2628 3553 
L 2631 2963 
z
" id="DejaVuSans-72" transform="scale(0.015625)"/>
       <path d="M 3597 1894 
L 3597 1613 
L 953 1613 
Q 991 1019 1311 708 
Q 1631 397 2203 397 
Q 2534 397 2845 478 
Q 3156 559 3463 722 
L 3463 178 
Q 3153 47 2828 -22 
Q 2503 -91 2169 -91 
Q 1331 -91 842 396 
Q 353 884 353 1716 
Q 353 2575 817 3079 
Q 1281 3584 2069 3584 
Q 2775 3584 3186 3129 
Q 3597 2675 3597 1894 
z
M 3022 2063 
Q 3016 2534 2758 2815 
Q 2500 3097 2075 3097 
Q 1594 3097 1305 2825 
Q 1016 2553 972 2059 
L 3022 2063 
z
" id="DejaVuSans-65" transform="scale(0.015625)"/>
       <path d="M 947 1747 
Q 947 1113 1208 752 
Q 1469 391 1925 391 
Q 2381 391 2643 752 
Q 2906 1113 2906 1747 
Q 2906 2381 2643 2742 
Q 2381 3103 1925 3103 
Q 1469 3103 1208 2742 
Q 947 2381 947 1747 
z
M 2906 525 
Q 2725 213 2448 61 
Q 2172 -91 1784 -91 
Q 1150 -91 751 415 
Q 353 922 353 1747 
Q 353 2572 751 3078 
Q 1150 3584 1784 3584 
Q 2172 3584 2448 3432 
Q 2725 3281 2906 2969 
L 2906 3500 
L 3481 3500 
L 3481 -1331 
L 2906 -1331 
L 2906 525 
z
" id="DejaVuSans-71" transform="scale(0.015625)"/>
       <path d="M 544 1381 
L 544 3500 
L 1119 3500 
L 1119 1403 
Q 1119 906 1312 657 
Q 1506 409 1894 409 
Q 2359 409 2629 706 
Q 2900 1003 2900 1516 
L 2900 3500 
L 3475 3500 
L 3475 0 
L 2900 0 
L 2900 538 
Q 2691 219 2414 64 
Q 2138 -91 1772 -91 
Q 1169 -91 856 284 
Q 544 659 544 1381 
z
M 1991 3584 
L 1991 3584 
z
" id="DejaVuSans-75" transform="scale(0.015625)"/>
       <path d="M 3513 2113 
L 3513 0 
L 2938 0 
L 2938 2094 
Q 2938 2591 2744 2837 
Q 2550 3084 2163 3084 
Q 1697 3084 1428 2787 
Q 1159 2491 1159 1978 
L 1159 0 
L 581 0 
L 581 3500 
L 1159 3500 
L 1159 2956 
Q 1366 3272 1645 3428 
Q 1925 3584 2291 3584 
Q 2894 3584 3203 3211 
Q 3513 2838 3513 2113 
z
" id="DejaVuSans-6e" transform="scale(0.015625)"/>
       <path d="M 3122 3366 
L 3122 2828 
Q 2878 2963 2633 3030 
Q 2388 3097 2138 3097 
Q 1578 3097 1268 2742 
Q 959 2388 959 1747 
Q 959 1106 1268 751 
Q 1578 397 2138 397 
Q 2388 397 2633 464 
Q 2878 531 3122 666 
L 3122 134 
Q 2881 22 2623 -34 
Q 2366 -91 2075 -91 
Q 1284 -91 818 406 
Q 353 903 353 1747 
Q 353 2603 823 3093 
Q 1294 3584 2113 3584 
Q 2378 3584 2631 3529 
Q 2884 3475 3122 3366 
z
" id="DejaVuSans-63" transform="scale(0.015625)"/>
       <path d="M 2059 -325 
Q 1816 -950 1584 -1140 
Q 1353 -1331 966 -1331 
L 506 -1331 
L 506 -850 
L 844 -850 
Q 1081 -850 1212 -737 
Q 1344 -625 1503 -206 
L 1606 56 
L 191 3500 
L 800 3500 
L 1894 763 
L 2988 3500 
L 3597 3500 
L 2059 -325 
z
" id="DejaVuSans-79" transform="scale(0.015625)"/>
       <path id="DejaVuSans-20" transform="scale(0.015625)"/>
       <path d="M 1984 4856 
Q 1566 4138 1362 3434 
Q 1159 2731 1159 2009 
Q 1159 1288 1364 580 
Q 1569 -128 1984 -844 
L 1484 -844 
Q 1016 -109 783 600 
Q 550 1309 550 2009 
Q 550 2706 781 3412 
Q 1013 4119 1484 4856 
L 1984 4856 
z
" id="DejaVuSans-28" transform="scale(0.015625)"/>
       <path d="M 628 4666 
L 1259 4666 
L 1259 2753 
L 3553 2753 
L 3553 4666 
L 4184 4666 
L 4184 0 
L 3553 0 
L 3553 2222 
L 1259 2222 
L 1259 0 
L 628 0 
L 628 4666 
z
" id="DejaVuSans-48" transform="scale(0.015625)"/>
       <path d="M 353 3500 
L 3084 3500 
L 3084 2975 
L 922 459 
L 3084 459 
L 3084 0 
L 275 0 
L 275 525 
L 2438 3041 
L 353 3041 
L 353 3500 
z
" id="DejaVuSans-7a" transform="scale(0.015625)"/>
       <path d="M 513 4856 
L 1013 4856 
Q 1481 4119 1714 3412 
Q 1947 2706 1947 2009 
Q 1947 1309 1714 600 
Q 1481 -109 1013 -844 
L 513 -844 
Q 928 -128 1133 580 
Q 1338 1288 1338 2009 
Q 1338 2731 1133 3434 
Q 928 4138 513 4856 
z
" id="DejaVuSans-29" transform="scale(0.015625)"/>
      </defs>
      <use xlink:href="#DejaVuSans-46"/>
      <use x="50.269531" xlink:href="#DejaVuSans-72"/>
      <use x="89.132812" xlink:href="#DejaVuSans-65"/>
      <use x="150.65625" xlink:href="#DejaVuSans-71"/>
      <use x="214.132812" xlink:href="#DejaVuSans-75"/>
      <use x="277.511719" xlink:href="#DejaVuSans-65"/>
      <use x="339.035156" xlink:href="#DejaVuSans-6e"/>
      <use x="402.414062" xlink:href="#DejaVuSans-63"/>
      <use x="457.394531" xlink:href="#DejaVuSans-79"/>
      <use x="516.574219" xlink:href="#DejaVuSans-20"/>
      <use x="548.361328" xlink:href="#DejaVuSans-28"/>
      <use x="587.375" xlink:href="#DejaVuSans-48"/>
      <use x="662.570312" xlink:href="#DejaVuSans-7a"/>
      <use x="715.060547" xlink:href="#DejaVuSans-29"/>
     </g>
    </g>
   </g>
   <g id="matplotlib.axis_2">
    <g id="ytick_1">
     <g id="line2d_39">
      <defs>
       <path d="M 0 0 
L -3.5 0 
" id="m6b8678b1b2" style="stroke:#000000;stroke-width:0.8;"/>
      </defs>
      <g>
       <use style="stroke:#000000;stroke-width:0.8;" x="57.6" xlink:href="#m6b8678b1b2" y="274.512314"/>
      </g>
     </g>
     <g id="text_6">
      <!-- −120 -->
      <g transform="translate(23.132812 278.311533)scale(0.1 -0.1)">
       <defs>
        <path d="M 678 2272 
L 4684 2272 
L 4684 1741 
L 678 1741 
L 678 2272 
z
" id="DejaVuSans-2212" transform="scale(0.015625)"/>
       </defs>
       <use xlink:href="#DejaVuSans-2212"/>
       <use x="83.789062" xlink:href="#DejaVuSans-31"/>
       <use x="147.412109" xlink:href="#DejaVuSans-32"/>
       <use x="211.035156" xlink:href="#DejaVuSans-30"/>
      </g>
     </g>
    </g>
    <g id="ytick_2">
     <g id="line2d_40">
      <g>
       <use style="stroke:#000000;stroke-width:0.8;" x="57.6" xlink:href="#m6b8678b1b2" y="237.688262"/>
      </g>
     </g>
     <g id="text_7">
      <!-- −100 -->
      <g transform="translate(23.132812 241.487481)scale(0.1 -0.1)">
       <use xlink:href="#DejaVuSans-2212"/>
       <use x="83.789062" xlink:href="#DejaVuSans-31"/>
       <use x="147.412109" xlink:href="#DejaVuSans-30"/>
       <use x="211.035156" xlink:href="#DejaVuSans-30"/>
      </g>
     </g>
    </g>
    <g id="ytick_3">
     <g id="line2d_41">
      <g>
       <use style="stroke:#000000;stroke-width:0.8;" x="57.6" xlink:href="#m6b8678b1b2" y="200.86421"/>
      </g>
     </g>
     <g id="text_8">
      <!-- −80 -->
      <g transform="translate(29.495313 204.663428)scale(0.1 -0.1)">
       <defs>
        <path d="M 2034 2216 
Q 1584 2216 1326 1975 
Q 1069 1734 1069 1313 
Q 1069 891 1326 650 
Q 1584 409 2034 409 
Q 2484 409 2743 651 
Q 3003 894 3003 1313 
Q 3003 1734 2745 1975 
Q 2488 2216 2034 2216 
z
M 1403 2484 
Q 997 2584 770 2862 
Q 544 3141 544 3541 
Q 544 4100 942 4425 
Q 1341 4750 2034 4750 
Q 2731 4750 3128 4425 
Q 3525 4100 3525 3541 
Q 3525 3141 3298 2862 
Q 3072 2584 2669 2484 
Q 3125 2378 3379 2068 
Q 3634 1759 3634 1313 
Q 3634 634 3220 271 
Q 2806 -91 2034 -91 
Q 1263 -91 848 271 
Q 434 634 434 1313 
Q 434 1759 690 2068 
Q 947 2378 1403 2484 
z
M 1172 3481 
Q 1172 3119 1398 2916 
Q 1625 2713 2034 2713 
Q 2441 2713 2670 2916 
Q 2900 3119 2900 3481 
Q 2900 3844 2670 4047 
Q 2441 4250 2034 4250 
Q 1625 4250 1398 4047 
Q 1172 3844 1172 3481 
z
" id="DejaVuSans-38" transform="scale(0.015625)"/>
       </defs>
       <use xlink:href="#DejaVuSans-2212"/>
       <use x="83.789062" xlink:href="#DejaVuSans-38"/>
       <use x="147.412109" xlink:href="#DejaVuSans-30"/>
      </g>
     </g>
    </g>
    <g id="ytick_4">
     <g id="line2d_42">
      <g>
       <use style="stroke:#000000;stroke-width:0.8;" x="57.6" xlink:href="#m6b8678b1b2" y="164.040157"/>
      </g>
     </g>
     <g id="text_9">
      <!-- −60 -->
      <g transform="translate(29.495313 167.839376)scale(0.1 -0.1)">
       <defs>
        <path d="M 2113 2584 
Q 1688 2584 1439 2293 
Q 1191 2003 1191 1497 
Q 1191 994 1439 701 
Q 1688 409 2113 409 
Q 2538 409 2786 701 
Q 3034 994 3034 1497 
Q 3034 2003 2786 2293 
Q 2538 2584 2113 2584 
z
M 3366 4563 
L 3366 3988 
Q 3128 4100 2886 4159 
Q 2644 4219 2406 4219 
Q 1781 4219 1451 3797 
Q 1122 3375 1075 2522 
Q 1259 2794 1537 2939 
Q 1816 3084 2150 3084 
Q 2853 3084 3261 2657 
Q 3669 2231 3669 1497 
Q 3669 778 3244 343 
Q 2819 -91 2113 -91 
Q 1303 -91 875 529 
Q 447 1150 447 2328 
Q 447 3434 972 4092 
Q 1497 4750 2381 4750 
Q 2619 4750 2861 4703 
Q 3103 4656 3366 4563 
z
" id="DejaVuSans-36" transform="scale(0.015625)"/>
       </defs>
       <use xlink:href="#DejaVuSans-2212"/>
       <use x="83.789062" xlink:href="#DejaVuSans-36"/>
       <use x="147.412109" xlink:href="#DejaVuSans-30"/>
      </g>
     </g>
    </g>
    <g id="ytick_5">
     <g id="line2d_43">
      <g>
       <use style="stroke:#000000;stroke-width:0.8;" x="57.6" xlink:href="#m6b8678b1b2" y="127.216105"/>
      </g>
     </g>
     <g id="text_10">
      <!-- −40 -->
      <g transform="translate(29.495313 131.015324)scale(0.1 -0.1)">
       <use xlink:href="#DejaVuSans-2212"/>
       <use x="83.789062" xlink:href="#DejaVuSans-34"/>
       <use x="147.412109" xlink:href="#DejaVuSans-30"/>
      </g>
     </g>
    </g>
    <g id="ytick_6">
     <g id="line2d_44">
      <g>
       <use style="stroke:#000000;stroke-width:0.8;" x="57.6" xlink:href="#m6b8678b1b2" y="90.392052"/>
      </g>
     </g>
     <g id="text_11">
      <!-- −20 -->
      <g transform="translate(29.495313 94.191271)scale(0.1 -0.1)">
       <use xlink:href="#DejaVuSans-2212"/>
       <use x="83.789062" xlink:href="#DejaVuSans-32"/>
       <use x="147.412109" xlink:href="#DejaVuSans-30"/>
      </g>
     </g>
    </g>
    <g id="ytick_7">
     <g id="line2d_45">
      <g>
       <use style="stroke:#000000;stroke-width:0.8;" x="57.6" xlink:href="#m6b8678b1b2" y="53.568"/>
      </g>
     </g>
     <g id="text_12">
      <!-- 0 -->
      <g transform="translate(44.2375 57.367219)scale(0.1 -0.1)">
       <use xlink:href="#DejaVuSans-30"/>
      </g>
     </g>
    </g>
    <g id="text_13">
     <!-- Volume (dB) -->
     <g transform="translate(17.053125 205.220188)rotate(-90)scale(0.1 -0.1)">
      <defs>
       <path d="M 1831 0 
L 50 4666 
L 709 4666 
L 2188 738 
L 3669 4666 
L 4325 4666 
L 2547 0 
L 1831 0 
z
" id="DejaVuSans-56" transform="scale(0.015625)"/>
       <path d="M 1959 3097 
Q 1497 3097 1228 2736 
Q 959 2375 959 1747 
Q 959 1119 1226 758 
Q 1494 397 1959 397 
Q 2419 397 2687 759 
Q 2956 1122 2956 1747 
Q 2956 2369 2687 2733 
Q 2419 3097 1959 3097 
z
M 1959 3584 
Q 2709 3584 3137 3096 
Q 3566 2609 3566 1747 
Q 3566 888 3137 398 
Q 2709 -91 1959 -91 
Q 1206 -91 779 398 
Q 353 888 353 1747 
Q 353 2609 779 3096 
Q 1206 3584 1959 3584 
z
" id="DejaVuSans-6f" transform="scale(0.015625)"/>
       <path d="M 603 4863 
L 1178 4863 
L 1178 0 
L 603 0 
L 603 4863 
z
" id="DejaVuSans-6c" transform="scale(0.015625)"/>
       <path d="M 3328 2828 
Q 3544 3216 3844 3400 
Q 4144 3584 4550 3584 
Q 5097 3584 5394 3201 
Q 5691 2819 5691 2113 
L 5691 0 
L 5113 0 
L 5113 2094 
Q 5113 2597 4934 2840 
Q 4756 3084 4391 3084 
Q 3944 3084 3684 2787 
Q 3425 2491 3425 1978 
L 3425 0 
L 2847 0 
L 2847 2094 
Q 2847 2600 2669 2842 
Q 2491 3084 2119 3084 
Q 1678 3084 1418 2786 
Q 1159 2488 1159 1978 
L 1159 0 
L 581 0 
L 581 3500 
L 1159 3500 
L 1159 2956 
Q 1356 3278 1631 3431 
Q 1906 3584 2284 3584 
Q 2666 3584 2933 3390 
Q 3200 3197 3328 2828 
z
" id="DejaVuSans-6d" transform="scale(0.015625)"/>
       <path d="M 2906 2969 
L 2906 4863 
L 3481 4863 
L 3481 0 
L 2906 0 
L 2906 525 
Q 2725 213 2448 61 
Q 2172 -91 1784 -91 
Q 1150 -91 751 415 
Q 353 922 353 1747 
Q 353 2572 751 3078 
Q 1150 3584 1784 3584 
Q 2172 3584 2448 3432 
Q 2725 3281 2906 2969 
z
M 947 1747 
Q 947 1113 1208 752 
Q 1469 391 1925 391 
Q 2381 391 2643 752 
Q 2906 1113 2906 1747 
Q 2906 2381 2643 2742 
Q 2381 3103 1925 3103 
Q 1469 3103 1208 2742 
Q 947 2381 947 1747 
z
" id="DejaVuSans-64" transform="scale(0.015625)"/>
       <path d="M 1259 2228 
L 1259 519 
L 2272 519 
Q 2781 519 3026 730 
Q 3272 941 3272 1375 
Q 3272 1813 3026 2020 
Q 2781 2228 2272 2228 
L 1259 2228 
z
M 1259 4147 
L 1259 2741 
L 2194 2741 
Q 2656 2741 2882 2914 
Q 3109 3088 3109 3444 
Q 3109 3797 2882 3972 
Q 2656 4147 2194 4147 
L 1259 4147 
z
M 628 4666 
L 2241 4666 
Q 2963 4666 3353 4366 
Q 3744 4066 3744 3513 
Q 3744 3084 3544 2831 
Q 3344 2578 2956 2516 
Q 3422 2416 3680 2098 
Q 3938 1781 3938 1306 
Q 3938 681 3513 340 
Q 3088 0 2303 0 
L 628 0 
L 628 4666 
z
" id="DejaVuSans-42" transform="scale(0.015625)"/>
      </defs>
      <use xlink:href="#DejaVuSans-56"/>
      <use x="60.658203" xlink:href="#DejaVuSans-6f"/>
      <use x="121.839844" xlink:href="#DejaVuSans-6c"/>
      <use x="149.623047" xlink:href="#DejaVuSans-75"/>
      <use x="213.001953" xlink:href="#DejaVuSans-6d"/>
      <use x="310.414062" xlink:href="#DejaVuSans-65"/>
      <use x="371.9375" xlink:href="#DejaVuSans-20"/>
      <use x="403.724609" xlink:href="#DejaVuSans-28"/>
      <use x="442.738281" xlink:href="#DejaVuSans-64"/>
      <use x="506.214844" xlink:href="#DejaVuSans-42"/>
      <use x="574.818359" xlink:href="#DejaVuSans-29"/>
     </g>
    </g>
   </g>
   <g id="line2d_46">
    <path clip-path="url(#pc5f1d254f6)" d="M -1 149.823125 
L 73.832727 149.822893 
L 97.482309 131.591582 
L 111.316427 138.279672 
L 121.131891 136.767885 
L 128.745355 140.744659 
L 134.966009 137.654813 
L 140.225497 136.094242 
L 144.781472 128.586113 
L 148.800127 137.520529 
L 152.394937 137.725438 
L 155.646838 143.437351 
L 158.615591 136.117876 
L 161.346578 141.987859 
L 163.875078 156.303372 
L 166.229055 163.490003 
L 168.431054 151.42628 
L 170.499513 128.350396 
L 172.449709 124.672188 
L 174.294436 123.431058 
L 176.044518 112.944338 
L 177.709197 115.884307 
L 179.296419 120.640814 
L 182.265172 152.544096 
L 183.657983 130.838646 
L 184.99616 139.21739 
L 186.283827 130.096498 
L 187.52466 128.110881 
L 188.721945 131.697481 
L 189.878637 118.499691 
L 190.997397 103.668969 
L 192.080635 111.213934 
L 193.130538 138.932804 
L 194.149095 125.089608 
L 195.138125 115.3247 
L 196.099291 112.407705 
L 197.03412 110.931341 
L 197.944017 110.929011 
L 198.830278 107.442051 
L 199.6941 119.076011 
L 200.536591 102.458659 
L 201.358778 112.618259 
L 202.161618 100.431063 
L 202.946001 113.097806 
L 203.712755 107.813318 
L 204.462657 112.535919 
L 205.19643 119.129627 
L 205.914754 115.664874 
L 206.618266 109.862677 
L 207.307565 108.444497 
L 207.983213 104.908572 
L 208.645742 97.117665 
L 209.29565 101.923532 
L 209.933409 98.474843 
L 210.559466 96.97323 
L 211.778136 90.866896 
L 212.371527 93.873917 
L 212.954774 92.057563 
L 213.528218 97.440828 
L 214.092184 92.175759 
L 214.646979 88.18967 
L 215.192897 81.730832 
L 216.259206 74.594903 
L 216.780119 72.386031 
L 217.293199 70.866606 
L 217.798677 70.644236 
L 218.296775 70.805218 
L 218.787706 71.571004 
L 219.271674 71.725038 
L 219.748872 71.463282 
L 220.219488 70.872295 
L 220.683701 70.668337 
L 221.141683 70.73997 
L 221.593599 70.934553 
L 222.47986 71.656239 
L 222.914505 72.385695 
L 223.343682 73.595999 
L 223.767527 76.649831 
L 224.599743 88.72284 
L 225.00836 95.230673 
L 225.412141 92.645256 
L 225.8112 89.117153 
L 226.205645 87.30583 
L 226.595583 87.360543 
L 226.981114 89.749212 
L 227.739348 106.683088 
L 228.481097 88.96253 
L 228.846011 87.662835 
L 229.207064 89.049001 
L 229.564335 95.737286 
L 229.917905 109.620877 
L 230.267848 128.658938 
L 230.614238 99.563196 
L 230.957146 92.376322 
L 231.296643 91.493837 
L 231.632795 92.064277 
L 231.965667 92.969655 
L 232.295323 97.464099 
L 232.621825 106.091095 
L 233.265601 104.607718 
L 233.582991 127.784372 
L 233.897455 101.762683 
L 234.209047 91.866785 
L 235.127106 77.605057 
L 235.427717 77.297981 
L 235.725703 79.62207 
L 236.313978 93.873812 
L 236.604356 94.159214 
L 237.1778 80.580808 
L 237.460948 78.303342 
L 237.741766 77.230571 
L 238.020291 77.078409 
L 238.29656 79.102351 
L 239.112196 94.490438 
L 239.379799 100.188478 
L 239.645318 101.138945 
L 240.170239 92.099619 
L 240.94278 78.513048 
L 241.448258 75.043755 
L 241.698216 74.673708 
L 241.946357 73.146384 
L 242.192705 72.408137 
L 242.437288 74.183246 
L 242.68013 74.380109 
L 242.921255 73.744766 
L 243.160689 73.965805 
L 243.398454 72.647742 
L 243.634573 73.127997 
L 243.86907 75.293371 
L 244.101966 78.617711 
L 244.563042 96.213345 
L 244.791265 95.788677 
L 245.017971 96.85542 
L 245.466913 88.410099 
L 245.689189 88.043835 
L 245.910025 89.833219 
L 246.129442 96.362877 
L 246.564086 115.389708 
L 246.77935 100.272646 
L 246.993263 94.349513 
L 247.205844 93.386504 
L 247.417109 96.367257 
L 247.627074 96.716982 
L 248.043166 98.684488 
L 248.249324 93.799791 
L 248.454245 94.359988 
L 248.657941 97.208889 
L 248.86043 102.178763 
L 249.061723 131.193541 
L 249.460782 98.386402 
L 249.658574 90.479963 
L 249.855227 88.393892 
L 250.245164 90.301097 
L 250.438474 94.928656 
L 250.821839 124.882961 
L 251.200945 96.032121 
L 251.388929 94.280235 
L 251.575884 94.043949 
L 251.76182 93.014862 
L 251.946748 99.358091 
L 252.130679 101.836822 
L 252.313624 101.772925 
L 252.495593 107.229385 
L 252.676597 104.216561 
L 253.035749 126.409418 
L 253.213917 117.59551 
L 253.39116 99.718056 
L 253.567486 93.61981 
L 253.742906 94.475373 
L 253.917429 91.99649 
L 254.091064 93.98393 
L 254.263819 98.019521 
L 254.435704 95.976509 
L 254.606728 100.431505 
L 254.776899 100.439735 
L 254.946225 102.200778 
L 255.114715 116.57736 
L 255.449219 93.645237 
L 255.780475 83.682109 
L 256.108546 85.740005 
L 256.271406 85.590543 
L 256.433493 87.662753 
L 256.755374 85.646839 
L 256.915183 89.385648 
L 257.074246 89.870885 
L 257.232572 92.403822 
L 257.390167 101.182977 
L 257.547036 99.323607 
L 257.703188 104.700286 
L 257.858629 105.321595 
L 258.013364 95.158383 
L 258.167401 97.127497 
L 258.473405 87.886629 
L 258.776688 98.314353 
L 258.927324 100.267386 
L 259.226617 111.97915 
L 259.523307 95.782031 
L 259.817439 102.42632 
L 259.96356 93.969521 
L 260.109058 94.384273 
L 260.253937 108.40059 
L 260.398205 108.192296 
L 260.541864 116.968436 
L 260.684922 100.284387 
L 260.969249 102.666288 
L 261.11053 93.349915 
L 261.391347 98.353842 
L 261.530894 89.208797 
L 261.808287 100.941443 
L 261.946142 94.105353 
L 262.083443 100.212927 
L 262.220193 126.28985 
L 262.49206 95.033604 
L 262.627185 92.362491 
L 262.761778 96.214935 
L 262.895841 84.510148 
L 263.02938 86.480105 
L 263.162398 107.766024 
L 263.2949 94.952643 
L 263.426889 99.63818 
L 263.55837 116.246396 
L 263.689345 93.414724 
L 263.81982 98.501573 
L 263.949798 135.949393 
L 264.208278 90.083717 
L 264.464814 88.963104 
L 264.592362 85.098322 
L 264.719435 88.558259 
L 264.846037 96.581733 
L 264.972171 93.560796 
L 265.09784 94.798355 
L 265.347798 112.49367 
L 265.595938 80.618041 
L 265.719335 78.940774 
L 265.964797 73.299566 
L 266.086869 77.421908 
L 266.329711 75.773188 
L 266.450487 79.021973 
L 266.570837 77.08849 
L 266.81027 82.813411 
L 266.92936 80.41484 
L 267.048035 83.180459 
L 267.284155 76.45733 
L 267.635298 81.640506 
L 267.751548 93.99677 
L 267.867402 128.286315 
L 267.982865 119.085429 
L 268.212624 88.537293 
L 268.326926 93.75423 
L 268.554388 86.548214 
L 268.667553 92.191018 
L 268.780343 87.563845 
L 269.227814 109.181647 
L 269.33877 130.014834 
L 269.449367 119.361346 
L 269.559607 123.17353 
L 269.779023 93.412076 
L 269.888205 95.337035 
L 269.997038 94.051465 
L 270.213668 107.108259 
L 270.428931 101.096312 
L 270.642845 94.78573 
L 270.749301 97.197114 
L 270.855426 102.36293 
L 270.961222 99.635926 
L 271.171834 85.815551 
L 271.485335 80.758006 
L 271.898906 86.967378 
L 272.103826 92.430983 
L 272.307523 90.585564 
L 272.510011 88.928212 
L 273.011035 97.282724 
L 273.110363 100.538399 
L 273.209403 99.856732 
L 273.504809 82.663446 
L 273.602711 80.494969 
L 273.797678 82.186559 
L 274.088056 72.597635 
L 274.184302 71.628843 
L 274.566593 78.199932 
L 274.944648 69.770407 
L 275.038511 69.987852 
L 275.225466 72.3582 
L 275.411401 79.530653 
L 275.503991 79.471593 
L 275.596329 80.385795 
L 275.688419 77.492223 
L 275.871856 79.565424 
L 275.963205 78.315841 
L 276.054311 80.523901 
L 276.235796 75.758307 
L 276.326178 76.559188 
L 276.416321 75.339985 
L 276.506227 78.990023 
L 276.595896 87.950702 
L 276.952235 72.500967 
L 277.040741 73.504421 
L 277.129018 72.711095 
L 277.217068 74.015553 
L 277.653939 94.206756 
L 277.913401 77.948625 
L 278.341501 66.702688 
L 278.42648 66.812778 
L 278.680155 73.411214 
L 279.015481 86.815597 
L 279.0988 87.170271 
L 279.347544 79.20198 
L 279.430057 77.302004 
L 279.839655 81.598889 
L 280.324769 67.157987 
L 280.404955 67.039176 
L 280.644389 63.20432 
L 280.723828 63.398544 
L 280.961042 71.765914 
L 281.039748 71.577729 
L 281.35277 64.63256 
L 281.430579 65.71018 
L 281.50821 68.74757 
L 281.585666 68.662934 
L 281.816983 59.16047 
L 281.893742 59.254661 
L 282.046742 62.647127 
L 282.350701 76.565126 
L 282.726881 63.743299 
L 282.801621 63.269098 
L 282.950613 63.976864 
L 283.172889 67.668341 
L 283.320272 66.973251 
L 283.393725 66.816311 
L 283.613142 69.837494 
L 283.758639 77.415037 
L 283.831156 84.21323 
L 284.191446 63.617606 
L 284.334503 62.28629 
L 284.476963 64.74324 
L 284.689544 77.721882 
L 284.830533 89.045037 
L 284.900809 85.305248 
L 285.110774 72.144968 
L 285.250035 66.344363 
L 285.319454 66.734317 
L 285.457868 71.656544 
L 285.595724 103.912686 
L 285.801468 62.181424 
L 286.005979 53.568 
L 286.073878 53.821268 
L 286.276767 64.634005 
L 286.478457 79.558878 
L 286.545423 78.569263 
L 286.612258 79.127748 
L 286.678962 78.768137 
L 286.81198 74.113733 
L 286.878295 76.180303 
L 286.944482 75.491365 
L 287.01054 76.0454 
L 287.142274 82.054352 
L 287.207951 81.125563 
L 287.273502 80.589937 
L 287.338927 81.034187 
L 287.469402 77.217897 
L 287.534453 78.191614 
L 287.664183 83.157337 
L 287.728864 83.68059 
L 287.986368 121.977948 
L 288.114395 84.241094 
L 288.178229 85.616339 
L 288.305539 78.548271 
L 288.369017 79.429004 
L 288.432376 83.438692 
L 288.495619 82.996567 
L 288.558744 82.452384 
L 288.684645 93.325577 
L 288.747421 88.665309 
L 288.810083 91.359032 
L 288.872629 106.556815 
L 288.935061 93.689108 
L 288.99738 96.527434 
L 289.059584 102.467937 
L 289.121675 91.723918 
L 289.183654 94.388759 
L 289.24552 109.982723 
L 289.307274 105.52977 
L 289.553179 102.697827 
L 289.67547 85.543372 
L 289.736451 85.883197 
L 289.797324 84.235149 
L 289.918744 78.308557 
L 289.979293 80.364248 
L 290.100069 75.013284 
L 290.160297 76.075884 
L 290.280435 70.770154 
L 290.519449 80.743071 
L 290.638331 90.803726 
L 290.697617 90.351841 
L 290.933737 82.265947 
L 291.226606 100.182404 
L 291.28488 92.487032 
L 291.343054 100.905823 
L 291.459106 89.127629 
L 291.574764 102.143541 
L 291.747519 81.511172 
L 291.804911 81.133941 
L 291.862206 76.530593 
L 291.919405 77.678501 
L 292.203969 96.033159 
L 292.260599 94.719124 
L 292.373576 99.095824 
L 292.486181 88.582499 
L 292.542344 89.160343 
L 292.654394 84.134093 
L 292.988352 104.023341 
L 293.043695 99.078549 
L 293.098949 97.629475 
L 293.209188 102.658089 
L 293.264175 97.990048 
L 293.319073 98.412685 
L 293.428605 105.209372 
L 293.483239 104.600898 
L 293.537786 109.622949 
L 293.592246 106.076622 
L 293.646619 104.29296 
L 293.700906 106.304201 
L 293.755106 105.044423 
L 293.809221 104.503808 
L 293.917193 107.607737 
L 294.132117 100.530019 
L 294.185637 99.935654 
L 294.239074 100.225246 
L 294.398883 111.270773 
L 294.451986 115.743147 
L 294.505008 112.117894 
L 294.768885 107.94763 
L 295.030736 97.049082 
L 295.134917 101.073547 
L 295.393985 115.638004 
L 295.445564 115.490313 
L 295.497064 116.830621 
L 295.651101 106.259185 
L 295.855408 99.098189 
L 295.906294 99.165183 
L 296.058499 102.948948 
L 296.210028 112.768355 
L 296.360886 129.710918 
L 296.411024 128.027457 
L 296.461089 123.579572 
L 296.511081 123.727008 
L 296.660617 136.156484 
L 296.809501 146.269729 
L 296.858985 147.827873 
L 297.056206 138.743193 
L 297.105333 139.84601 
L 297.15439 127.579668 
L 297.203377 128.617105 
L 297.349916 151.831659 
L 297.495828 137.71066 
L 297.544327 142.051545 
L 297.737637 101.443385 
L 297.833883 96.400797 
L 297.881905 97.035898 
L 297.977745 101.250749 
L 298.263661 115.779482 
L 298.311082 116.168875 
L 298.405726 118.000969 
L 298.547201 139.201247 
L 298.59423 133.380707 
L 298.828405 108.319931 
L 298.968142 110.050506 
L 299.153572 144.029327 
L 299.245911 178.581137 
L 299.291987 144.548813 
L 299.383952 147.883658 
L 299.521437 129.658043 
L 299.567143 129.945688 
L 299.703893 137.389064 
L 299.749355 135.612317 
L 299.930599 118.938001 
L 300.065903 112.17176 
L 300.155809 120.065631 
L 300.200673 126.612724 
L 300.245478 121.498677 
L 300.468625 95.02535 
L 300.557477 90.128537 
L 300.601817 90.295875 
L 300.690323 91.360427 
L 300.7786 95.505417 
L 300.86665 94.800706 
L 300.910589 96.082542 
L 300.954472 94.985886 
L 300.998299 93.087327 
L 301.04207 93.144833 
L 301.216592 100.510283 
L 301.30352 98.174491 
L 301.476714 94.7695 
L 301.606035 99.378223 
L 301.691978 113.663819 
L 301.734868 130.816122 
L 301.777704 124.43464 
L 301.863216 117.205655 
L 301.905891 120.019756 
L 302.16083 101.190173 
L 302.203135 101.98471 
L 302.287589 137.285788 
L 302.371833 116.99975 
L 302.58154 101.35106 
L 302.665063 107.106237 
L 302.748382 103.766473 
L 302.831498 98.909361 
L 303.038407 83.147585 
L 303.12082 81.086725 
L 303.161952 81.387733 
L 303.203035 81.424558 
L 303.366873 87.037921 
L 303.448497 84.703556 
L 303.692206 75.742007 
L 303.773057 77.244087 
L 303.934187 87.967948 
L 303.974351 91.393021 
L 304.054537 89.326606 
L 304.254181 101.345788 
L 304.37341 82.386871 
L 304.41306 83.557028 
L 304.610624 126.015577 
L 304.649999 117.063203 
L 304.885305 85.805624 
L 305.041278 77.168822 
L 305.08016 77.415359 
L 305.157792 81.901666 
L 305.235248 80.652131 
L 305.27391 80.992719 
L 305.504965 72.010825 
L 305.543323 72.971156 
L 305.581638 72.753358 
L 305.734467 69.342276 
L 305.848642 72.724544 
L 305.924546 72.083552 
L 305.962436 72.150256 
L 306.151253 67.693263 
L 306.33903 77.88981 
L 306.376462 75.646697 
L 306.451203 75.11173 
L 306.52578 71.764606 
L 306.563008 73.462697 
L 306.637342 75.766973 
L 306.711514 85.953472 
L 306.785525 84.33739 
L 306.82247 85.021144 
L 307.0066 76.111685 
L 307.153191 80.429391 
L 307.262723 97.765827 
L 307.299156 93.950777 
L 307.408221 80.080381 
L 307.516938 82.173028 
L 307.589225 103.324817 
L 307.62531 116.638785 
L 307.661358 93.060191 
L 307.805169 80.696879 
L 307.984085 93.234391 
L 308.019756 92.376705 
L 308.197553 80.906536 
L 308.233001 83.068972 
L 308.303788 85.526991 
L 308.374428 111.223601 
L 308.409693 98.024131 
L 308.550391 82.344224 
L 308.620522 85.090959 
L 308.760355 74.743944 
L 308.934344 81.588221 
L 309.003692 76.726114 
L 309.072899 77.271373 
L 309.10745 77.402159 
L 309.245305 109.730392 
L 309.279682 93.965521 
L 309.314025 94.002831 
L 309.48522 71.674701 
L 309.62156 96.240188 
L 309.65556 83.908723 
L 309.757358 74.410175 
L 309.858853 78.253233 
L 310.094506 105.266823 
L 310.228438 82.53603 
L 310.361847 111.04944 
L 310.428356 108.391571 
L 310.494735 89.815688 
L 310.560986 90.141614 
L 310.660122 85.76107 
L 310.627108 91.855939 
L 310.693103 86.238374 
L 310.857533 100.621633 
L 310.890324 98.372931 
L 310.923084 99.892541 
L 310.955812 106.676967 
L 310.988509 96.591225 
L 311.021174 94.284128 
L 311.053808 101.085728 
L 311.118983 93.069275 
L 311.151524 99.141061 
L 311.216513 93.297918 
L 311.281378 117.389084 
L 311.313765 102.424197 
L 311.443004 90.98334 
L 311.475238 91.297778 
L 311.571756 108.118516 
L 311.603868 104.340346 
L 311.795909 85.980024 
L 311.891525 86.620909 
L 311.955121 97.499971 
L 312.018598 96.177682 
L 312.1452 81.600538 
L 312.176777 83.323245 
L 312.271334 106.891461 
L 312.302795 100.64636 
L 312.397003 89.156016 
L 312.428348 92.256262 
L 312.459664 103.864706 
L 312.522211 101.449364 
L 312.584643 90.130796 
L 312.615816 97.071901 
L 312.740225 106.936334 
L 312.678078 95.696896 
L 312.771257 99.481632 
L 312.895101 88.099422 
L 312.956856 102.766191 
L 313.049278 100.945754 
L 313.110754 86.374453 
L 313.172119 95.251473 
L 313.20276 90.754338 
L 313.263961 97.520532 
L 313.29452 98.575421 
L 313.355556 87.562229 
L 313.416483 91.492364 
L 313.446905 94.230189 
L 313.568326 115.318953 
L 313.689316 101.03795 
L 313.719496 126.485813 
L 313.779778 93.430868 
L 313.87 90.677723 
L 313.930016 112.171049 
L 314.019843 94.615694 
L 313.989927 119.154541 
L 314.049733 99.379869 
L 314.109434 93.908402 
L 314.16903 126.223308 
L 314.287913 92.902604 
L 314.317568 94.659195 
L 314.347199 93.384315 
L 314.376803 84.870314 
L 314.435935 93.776737 
L 314.465463 90.521516 
L 314.494965 121.143419 
L 314.553892 103.931517 
L 314.612718 94.555169 
L 314.642094 106.820243 
L 314.671443 95.204682 
L 314.730067 105.20931 
L 314.759342 95.5382 
L 314.788591 94.889743 
L 314.847014 106.632989 
L 314.876188 93.455178 
L 314.992636 85.441895 
L 314.934462 94.369532 
L 315.021686 85.933409 
L 315.253199 118.722218 
L 315.368369 99.423187 
L 315.397101 101.002813 
L 315.425809 124.670687 
L 315.511787 107.40885 
L 315.540399 101.751738 
L 315.568986 112.024905 
L 315.59755 101.835424 
L 315.683097 114.937368 
L 315.711565 105.622694 
L 315.74001 102.654563 
L 315.825201 126.501893 
L 315.853551 121.475521 
L 315.966716 95.025903 
L 315.994948 97.366425 
L 316.107646 142.403167 
L 316.219972 96.064386 
L 316.247996 100.432321 
L 316.303975 94.869539 
L 316.33193 101.369049 
L 316.359862 98.508633 
L 316.387772 96.977466 
L 316.415658 101.407642 
L 316.55475 95.212901 
L 316.665616 84.326366 
L 316.693277 84.632188 
L 316.803695 114.052449 
L 316.831244 150.17191 
L 316.886274 102.727644 
L 316.913757 107.549725 
L 316.968655 102.016509 
L 316.996071 107.06219 
L 317.050836 95.023717 
L 317.105515 104.797432 
L 317.187368 104.448166 
L 317.214609 109.488398 
L 317.241828 100.579447 
L 317.269025 107.92009 
L 317.296201 143.288564 
L 317.377598 119.862117 
L 317.485827 96.115534 
L 317.512831 103.042179 
L 317.64753 165.357568 
L 317.781699 97.234951 
L 317.808469 97.540947 
L 317.995278 119.334332 
L 318.021881 121.1916 
L 318.154589 88.899739 
L 318.181069 89.007372 
L 318.39217 120.490214 
L 318.418466 119.134435 
L 318.523448 98.774311 
L 318.549643 104.450779 
L 318.575818 105.280211 
L 318.601973 99.759619 
L 318.654223 110.149015 
L 318.680318 106.589265 
L 318.706393 121.069882 
L 318.758483 111.406235 
L 318.888362 99.22255 
L 318.914279 98.731323 
L 318.966053 93.229734 
L 318.991911 98.138597 
L 319.095145 112.752203 
L 319.120906 109.18512 
L 319.146646 103.289957 
L 319.198069 109.936056 
L 319.223752 108.002598 
L 319.300683 128.001428 
L 319.326288 115.745469 
L 319.428518 106.206585 
L 319.454028 110.437762 
L 319.479518 112.37412 
L 319.606686 94.756546 
L 319.632063 95.988855 
L 319.758665 107.924514 
L 319.809174 103.928351 
L 319.859609 102.914291 
L 319.985371 90.483254 
L 320.010468 95.048181 
L 320.035546 93.286436 
L 320.060606 93.849509 
L 320.185631 113.616501 
L 320.210581 106.485615 
L 320.235512 101.679046 
L 320.285321 110.224168 
L 320.310199 105.571468 
L 320.335058 110.718477 
L 320.384722 100.165307 
L 320.459082 99.97201 
L 320.483833 106.499088 
L 320.508566 119.418517 
L 320.557978 99.893665 
L 320.656589 90.097045 
L 320.681197 90.742213 
L 320.779452 116.237724 
L 320.877425 107.384045 
L 320.926307 95.620764 
L 320.999497 95.763209 
L 321.048204 122.046309 
L 321.096842 99.339417 
L 321.193909 85.381914 
L 321.242339 89.489878 
L 321.266529 88.269669 
L 321.290701 90.780796 
L 321.387219 128.619284 
L 321.483465 121.763046 
L 321.627327 90.989509 
L 321.675146 87.797728 
L 321.699031 88.588394 
L 321.794402 97.879581 
L 321.818203 94.362241 
L 321.841988 93.355065 
L 321.865756 97.5755 
L 321.913243 92.051818 
L 322.008018 82.137568 
L 322.055307 85.836577 
L 322.102531 91.838705 
L 322.14969 107.799052 
L 322.220305 96.296711 
L 322.337674 89.842381 
L 322.3611 90.665359 
L 322.43128 111.887607 
L 322.454641 93.892477 
L 322.524629 87.249344 
L 322.571208 90.140789 
L 322.594474 90.097212 
L 322.733736 101.052134 
L 322.826262 126.411772 
L 322.849355 110.477607 
L 322.941568 98.579118 
L 322.964583 103.134654 
L 323.102346 126.746238 
L 323.125252 123.218983 
L 323.285168 86.658305 
L 323.330721 79.269728 
L 323.398936 85.28884 
L 323.53496 104.203288 
L 323.557578 99.917299 
L 323.6479 96.139198 
L 323.602768 104.588779 
L 323.670443 99.101731 
L 323.692971 98.975722 
L 323.737983 120.383591 
L 323.760467 130.053811 
L 323.782936 106.772795 
L 323.872664 92.596896 
L 323.895059 95.190877 
L 323.962157 123.704575 
L 324.029123 103.147694 
L 324.073694 111.171066 
L 324.095958 123.938124 
L 324.162662 109.755717 
L 324.184868 108.660601 
L 324.207059 110.691689 
L 324.251398 132.549049 
L 324.29568 106.00283 
L 324.339904 105.075284 
L 324.361995 105.544161 
L 324.428182 111.863859 
L 324.472235 107.995956 
L 324.49424 108.80726 
L 324.516231 106.850026 
L 324.560171 101.151075 
L 324.625974 102.973292 
L 324.647881 103.221963 
L 324.713515 92.713975 
L 324.822627 96.826053 
L 324.844407 95.982564 
L 324.953102 114.558421 
L 324.996483 106.391071 
L 325.039809 121.582728 
L 325.126296 114.620774 
L 325.147883 109.099503 
L 325.169457 119.265425 
L 325.191018 140.35398 
L 325.255617 111.168593 
L 325.341559 137.08467 
L 325.405874 120.039301 
L 325.448684 109.294448 
L 325.512797 115.826492 
L 325.555473 110.930605 
L 325.640664 150.831962 
L 325.746855 114.710666 
L 325.768054 127.526774 
L 325.89497 101.416736 
L 325.93717 110.753157 
L 325.958251 106.547625 
L 325.979319 112.98987 
L 326.084462 134.731796 
L 326.189283 109.505993 
L 326.210209 134.118843 
L 326.272908 107.506497 
L 326.293783 114.805607 
L 326.314644 104.507111 
L 326.356329 130.062461 
L 326.418761 122.125618 
L 326.48108 141.839195 
L 326.522562 116.85274 
L 326.543284 141.582865 
L 326.584691 147.424948 
L 326.667354 123.730849 
L 326.70861 167.164555 
L 326.770402 135.44827 
L 326.811534 151.629587 
L 326.89365 121.318475 
L 326.975568 132.86925 
L 326.934634 119.929108 
L 327.016454 130.061802 
L 327.118455 112.610578 
L 327.179509 118.885551 
L 327.199836 127.915591 
L 327.260745 118.367081 
L 327.301291 108.553151 
L 327.362019 114.206961 
L 327.382238 115.892016 
L 327.402444 111.229805 
L 327.422639 112.928192 
L 327.462993 108.783895 
L 327.483152 117.167382 
L 327.503299 119.837645 
L 327.523434 112.237005 
L 327.583769 106.22909 
L 327.643997 132.38153 
L 327.704119 118.538946 
L 327.804087 120.386997 
L 327.843992 106.261411 
L 327.903763 146.039667 
L 327.983295 117.695242 
L 328.022991 131.786459 
L 328.042822 106.560872 
L 328.08245 108.373064 
L 328.102246 108.03382 
L 328.122031 133.272333 
L 328.181317 107.76303 
L 328.201056 108.093543 
L 328.220784 110.99003 
L 328.2405 105.760956 
L 328.279899 96.28684 
L 328.338911 106.861956 
L 328.378197 119.489415 
L 328.417437 103.502425 
L 328.456631 108.768517 
L 328.534886 99.493367 
L 328.554422 107.795755 
L 328.573947 120.679522 
L 328.612962 100.846071 
L 328.651933 109.167687 
L 328.749166 97.264508 
L 328.807374 127.47527 
L 328.846123 111.90376 
L 328.904166 115.408511 
L 328.962109 98.927666 
L 328.981402 99.153979 
L 329.019955 109.664041 
L 329.116146 121.824881 
L 329.077702 101.88521 
L 329.135352 116.495178 
L 329.192905 101.241435 
L 329.231219 118.987334 
L 329.403105 99.219807 
L 329.42215 100.051528 
L 329.460208 131.301455 
L 329.536197 110.246931 
L 329.593078 121.599775 
L 329.630946 104.197556 
L 329.668772 102.970608 
L 329.725433 131.679431 
L 329.819659 96.328877 
L 329.838472 105.92695 
L 329.876069 110.936403 
L 329.951139 146.82571 
L 329.969881 122.814339 
L 330.063435 97.474477 
L 330.119444 101.154202 
L 330.175362 99.902001 
L 330.193981 105.731847 
L 330.231188 117.880753 
L 330.286923 101.499389 
L 330.305481 101.709836 
L 330.342567 108.333148 
L 330.379613 95.918163 
L 330.398121 96.25269 
L 330.527395 111.676678 
L 330.545823 105.323497 
L 330.601047 102.354831 
L 330.637813 131.331538 
L 330.729556 119.47573 
L 330.821053 98.369333 
L 330.766184 127.483107 
L 330.930526 107.553584 
L 330.966939 121.192977 
L 331.039649 120.741668 
L 331.130319 91.752061 
L 331.184606 100.236867 
L 331.256854 104.63981 
L 331.274892 111.583861 
L 331.328949 99.818749 
L 331.346949 100.130611 
L 331.418855 103.618388 
L 331.436808 98.40766 
L 331.490609 101.541063 
L 331.562213 96.246793 
L 331.669337 135.249068 
L 331.740567 125.993744 
L 331.847134 105.569349 
L 331.793892 137.281892 
L 331.864863 114.570327 
L 331.917994 105.162229 
L 331.971043 106.562316 
L 332.059275 139.412911 
L 332.041646 105.977807 
L 332.094503 120.448563 
L 332.182417 91.480783 
L 332.217519 102.378031 
L 332.235056 107.367313 
L 332.270104 99.81929 
L 332.322608 102.731335 
L 332.375032 92.307082 
L 332.444806 95.866829 
L 332.566567 87.345894 
L 332.583926 89.913908 
L 332.722481 116.153396 
L 332.791548 105.8602 
L 332.774294 122.112937 
L 332.808793 108.305018 
L 332.894887 124.826795 
L 332.91208 111.356357 
L 332.929264 103.272433 
L 332.997914 119.611846 
L 333.015055 124.443019 
L 333.049311 112.254106 
L 333.083533 123.495533 
L 333.185993 95.497724 
L 333.20304 102.638852 
L 333.254129 89.825702 
L 333.305142 91.100045 
L 333.440805 113.512427 
L 333.542199 88.444017 
L 333.57593 89.985034 
L 333.693728 114.026325 
L 333.744088 108.182122 
L 333.760858 106.521172 
L 333.77762 108.492523 
L 333.87802 129.442312 
L 333.844586 104.775276 
L 333.894725 110.950172 
L 333.911421 104.25186 
L 333.944789 120.758034 
L 333.994781 109.648546 
L 334.077937 126.846388 
L 334.044699 104.289493 
L 334.094544 113.598351 
L 334.177458 103.870622 
L 334.194017 107.397163 
L 334.293201 122.129053 
L 334.243645 103.854467 
L 334.309703 110.40407 
L 334.326198 109.065237 
L 334.342685 121.699008 
L 334.408552 111.283319 
L 334.490707 96.695419 
L 334.457869 111.646487 
L 334.523514 101.360166 
L 334.572665 107.904329 
L 334.605393 96.357907 
L 334.687077 145.487527 
L 334.735993 110.313362 
L 334.768565 125.713238 
L 334.784839 136.48617 
L 334.833616 110.341225 
L 334.849859 115.480767 
L 334.882323 106.481718 
L 334.898543 122.840379 
L 334.914755 120.446178 
L 334.93096 128.23935 
L 334.963347 112.10681 
L 334.995702 112.726247 
L 335.028027 119.899504 
L 335.124819 105.172666 
L 335.269494 122.730408 
L 335.333598 112.449911 
L 335.349605 141.627262 
L 335.365605 140.954577 
L 335.461445 105.28324 
L 335.429528 146.718685 
L 335.477392 111.130826 
L 335.557017 144.200198 
L 335.525189 109.739019 
L 335.572919 114.871992 
L 335.588815 109.165579 
L 335.620583 125.763263 
L 335.652322 109.955206 
L 335.778982 138.083613 
L 335.87367 110.476383 
L 335.889426 112.815005 
L 335.920915 134.567545 
L 335.952376 110.834502 
L 336.015211 117.067198 
L 336.030901 115.577772 
L 336.046585 118.388909 
L 336.171793 142.008247 
L 336.280974 110.298774 
L 336.358747 134.215661 
L 336.343207 106.978584 
L 336.389807 124.496605 
L 336.405326 119.063953 
L 336.420838 143.448029 
L 336.482817 125.792038 
L 336.513764 149.927903 
L 336.529227 122.611061 
L 336.575574 131.699355 
L 336.637272 121.013873 
L 336.66808 132.438518 
L 336.683473 131.060746 
L 336.714239 126.563502 
L 336.729611 130.869129 
L 336.744977 137.624727 
L 336.80637 118.084416 
L 336.821701 115.997514 
L 336.882956 109.048781 
L 336.928825 151.551662 
L 336.974633 112.522305 
L 337.050843 119.30343 
L 337.081279 133.615862 
L 337.14207 112.37448 
L 337.157251 124.826321 
L 337.202754 109.209003 
L 337.233055 119.692059 
L 337.263329 111.306228 
L 337.338897 133.167611 
L 337.353991 113.536303 
L 337.399232 148.583355 
L 337.444413 127.56391 
L 337.45946 153.041723 
L 337.489534 119.156283 
L 337.549603 126.175125 
L 337.564604 138.191773 
L 337.579598 120.103115 
L 337.65447 127.577848 
L 337.7441 112.057 
L 337.699314 130.671129 
L 337.788827 117.464002 
L 337.863241 154.421953 
L 337.833495 110.946445 
L 337.922656 133.486068 
L 337.937494 128.158274 
L 337.981968 150.412268 
L 337.99678 132.025349 
L 338.041177 149.106379 
L 338.085517 122.011957 
L 338.100284 131.999672 
L 338.115044 127.157871 
L 338.129798 164.709655 
L 338.174023 122.338222 
L 338.21819 127.395992 
L 338.2329 121.667893 
L 338.247603 133.218959 
L 338.291675 122.124688 
L 338.365002 139.41969 
L 338.35035 121.67684 
L 338.394289 138.855737 
L 338.408923 125.082456 
L 338.452788 149.189629 
L 338.467396 129.369707 
L 338.481999 165.510475 
L 338.52577 127.274661 
L 338.569484 139.758829 
L 338.584043 127.085091 
L 338.613143 142.881647 
L 338.685783 132.211984 
L 338.700292 133.336359 
L 338.78722 153.128518 
L 338.801687 129.195676 
L 338.816147 141.420358 
L 338.830601 126.111619 
L 338.931609 131.728428 
L 339.046683 160.131352 
L 339.175678 132.981751 
L 339.261404 131.475082 
L 339.275671 161.660348 
L 339.332679 165.149593 
L 339.375372 124.86676 
L 339.389591 165.433105 
L 339.488961 133.958614 
L 339.545613 163.796445 
L 339.602172 144.074911 
L 339.71501 133.199497 
L 339.869554 161.115399 
L 339.911581 160.746291 
L 340.037353 126.871335 
L 340.051299 129.937704 
L 340.093104 120.163969 
L 340.107027 128.295168 
L 340.148763 118.021886 
L 340.218209 120.752921 
L 340.25981 125.138471 
L 340.301359 116.238218 
L 340.315198 119.840197 
L 340.425705 110.241319 
L 340.453276 111.245707 
L 340.494591 114.846221 
L 340.480825 110.367137 
L 340.563338 112.696409 
L 340.577071 112.583664 
L 340.590798 113.890324 
L 340.631947 108.511471 
L 340.645652 110.285306 
L 340.659352 107.702503 
L 340.727768 114.509567 
L 340.836949 107.279028 
L 340.86419 108.783692 
L 340.945782 114.318642 
L 340.986506 113.054454 
L 341.040727 111.127673 
L 341.054269 113.678198 
L 341.108384 109.19116 
L 341.148913 115.159209 
L 341.162413 110.728236 
L 341.243296 119.869246 
L 341.283665 119.100293 
L 341.350842 121.549183 
L 341.364262 112.963048 
L 341.404489 125.845455 
L 341.391085 112.005271 
L 341.471428 114.348754 
L 341.538237 113.692292 
L 341.604915 125.50271 
L 341.618235 115.415275 
L 341.71133 123.904267 
L 341.949556 137.746224 
L 342.028596 132.184415 
L 342.041752 138.736683 
L 342.054902 133.529074 
L 342.159925 130.529877 
L 342.17303 161.840719 
L 342.23848 125.726146 
L 342.29075 128.027594 
L 342.303805 128.165186 
L 342.38203 125.408943 
L 342.39505 131.925122 
L 342.408065 125.784168 
L 342.473066 137.135246 
L 342.486052 127.902468 
L 342.576811 168.227766 
L 342.589757 122.550081 
L 342.602698 158.194476 
L 342.66733 121.318103 
L 342.718948 122.788546 
L 342.78336 117.96113 
L 342.796228 136.928733 
L 342.809091 117.474937 
L 342.821949 145.169623 
L 342.911821 119.233109 
L 342.92464 122.931761 
L 343.027023 120.628881 
L 343.116357 135.304307 
L 343.052571 117.222497 
L 343.1673 125.006607 
L 343.180024 124.02785 
L 343.192743 138.853874 
L 343.268959 121.862271 
L 343.281645 133.92178 
L 343.307003 135.214222 
L 343.395607 119.559522 
L 343.483983 114.012911 
L 343.496589 126.225476 
L 343.509191 115.461456 
L 343.546968 136.490385 
L 343.609837 119.860205 
L 343.685128 118.614221 
L 343.722711 143.515204 
L 343.847689 115.131748 
L 343.910008 134.584364 
L 343.87263 114.908481 
L 343.972212 124.293918 
L 344.071504 125.651113 
L 344.083895 106.576617 
L 344.096282 120.616385 
L 344.170508 106.345839 
L 344.182863 115.856455 
L 344.195214 104.914471 
L 344.232239 132.269012 
L 344.29386 114.152889 
L 344.30617 114.723413 
L 344.343076 128.361628 
L 344.404496 111.173722 
L 344.416767 115.207122 
L 344.514776 107.247634 
L 344.478055 121.265227 
L 344.551456 109.05323 
L 344.588098 113.061398 
L 344.575888 107.526296 
L 344.600303 108.634756 
L 344.661262 130.394602 
L 344.709952 115.627766 
L 344.782856 110.180753 
L 344.794991 117.972203 
L 344.807123 111.649552 
L 344.843491 122.993616 
L 344.91611 113.420822 
L 344.988576 117.928465 
L 345.000638 107.527969 
L 345.012697 117.05995 
L 345.024751 107.21825 
L 345.096986 115.037646 
L 345.205053 101.470609 
L 345.121031 118.012244 
L 345.217039 104.387907 
L 345.288869 97.463242 
L 345.336672 99.041856 
L 345.455886 106.216855 
L 345.467785 104.021824 
L 345.527216 112.55284 
L 345.550959 116.292604 
L 345.645767 138.491139 
L 345.669428 128.015332 
L 345.787488 107.275902 
L 345.834597 106.176286 
L 345.916883 116.768096 
L 345.928622 112.085185 
L 345.963814 120.434337 
L 346.022388 114.628322 
L 346.150897 132.756872 
L 346.17421 135.504988 
L 346.278924 105.242582 
L 346.30215 104.770403 
L 346.383317 119.785709 
L 346.464292 105.914286 
L 346.429612 123.772245 
L 346.487392 106.114869 
L 346.498936 117.38421 
L 346.602659 115.622512 
L 346.671633 123.479637 
L 346.683115 109.88221 
L 346.694594 121.836096 
L 346.797725 114.013191 
L 346.866306 153.815637 
L 346.923352 123.067616 
L 346.957534 115.19888 
L 346.96892 125.797459 
L 347.025795 121.529373 
L 347.037158 122.350139 
L 347.059874 119.397608 
L 347.071226 119.881841 
L 347.207159 101.435659 
L 347.218463 103.430621 
L 347.297481 98.76749 
L 347.33129 100.041442 
L 347.410049 112.97389 
L 347.454972 106.564935 
L 347.533445 95.197353 
L 347.578206 97.044146 
L 347.689853 104.706881 
L 347.734409 99.836191 
L 347.745539 99.844108 
L 347.85664 93.329244 
L 347.878817 93.331137 
L 347.934197 98.747631 
L 347.989486 95.029872 
L 348.066741 90.651541 
L 348.077763 96.811553 
L 348.088782 92.100253 
L 348.198773 121.99496 
L 348.220728 109.877791 
L 348.253636 100.307052 
L 348.319355 111.580549 
L 348.330295 105.513553 
L 348.363097 112.605707 
L 348.417696 102.500554 
L 348.428606 105.391103 
L 348.602683 85.253915 
L 348.862146 106.762015 
L 348.624381 84.894202 
L 348.883679 103.041311 
L 348.915953 95.937138 
L 348.991141 97.738575 
L 349.066163 130.555124 
L 349.141021 114.587198 
L 349.194391 121.565261 
L 349.183723 109.978554 
L 349.215715 119.89852 
L 349.30088 101.775832 
L 349.343383 103.25906 
L 349.459993 117.576895 
L 349.364614 102.536145 
L 349.470574 109.574786 
L 349.502298 131.346493 
L 349.576207 114.172116 
L 349.649955 108.040081 
L 349.660477 120.043786 
L 349.670997 109.308853 
L 349.786495 135.076909 
L 349.880703 110.200255 
L 349.828397 135.898405 
L 349.901603 110.464674 
L 349.985075 122.779411 
L 350.005911 118.649312 
L 350.120283 101.659579 
L 350.130661 102.943278 
L 350.172143 102.234195 
L 350.182506 103.888781 
L 350.192866 100.674238 
L 350.265294 110.425013 
L 350.275629 108.756479 
L 350.389102 123.940699 
L 350.409692 122.537401 
L 350.481663 110.620241 
L 350.522721 112.739903 
L 350.604689 146.502287 
L 350.645599 123.294933 
L 350.75785 108.12483 
L 350.77822 108.189207 
L 350.910327 121.218599 
L 350.930605 118.140994 
L 350.961001 109.117858 
L 351.0116 130.213137 
L 351.021711 117.379573 
L 351.112575 163.663977 
L 351.041924 117.341676 
L 351.132734 158.313889 
L 351.243396 114.782708 
L 351.253438 114.98644 
L 351.333671 104.230849 
L 351.393723 105.945902 
L 351.423709 105.134444 
L 351.443685 106.009399 
L 351.573245 115.048852 
L 351.483602 105.917616 
L 351.622945 114.600375 
L 351.642805 115.285029 
L 351.781501 109.076055 
L 351.791386 109.829076 
L 351.84077 106.318794 
L 351.870366 108.564401 
L 351.958999 101.030258 
L 351.890082 109.89654 
L 351.998319 102.333522 
L 352.125794 123.50317 
L 352.213767 113.856804 
L 352.164921 130.11892 
L 352.243042 116.696501 
L 352.262544 118.447884 
L 352.282035 119.194551 
L 352.379324 110.467084 
L 352.466647 114.536816 
L 352.456955 105.722897 
L 352.486022 112.708137 
L 352.515063 105.886554 
L 352.563411 119.061819 
L 352.573073 108.996 
L 352.640626 132.893931 
L 352.688796 124.934652 
L 352.698422 129.55955 
L 352.746511 108.154369 
L 352.765728 110.481459 
L 352.823313 106.41287 
L 352.899942 124.448196 
L 352.919073 128.056524 
L 353.014564 111.376905 
L 353.147805 148.869373 
L 353.214231 111.300313 
L 353.271065 116.463558 
L 353.327804 133.279766 
L 353.356138 113.587637 
L 353.365577 121.489702 
L 353.441 102.752747 
L 353.478648 103.123908 
L 353.581969 125.806274 
L 353.497457 101.622445 
L 353.600721 116.771969 
L 353.610093 112.163789 
L 353.656915 120.632357 
L 353.675625 115.896495 
L 353.741032 136.185273 
L 353.787675 130.50981 
L 353.871472 113.394493 
L 353.862171 131.887197 
L 353.917937 120.023769 
L 353.945785 135.944697 
L 353.936505 117.25089 
L 353.973611 117.93258 
L 353.982881 152.559671 
L 354.029195 116.607021 
L 354.084688 133.621084 
L 354.103166 149.374683 
L 354.213823 108.664111 
L 354.223028 112.376675 
L 354.287395 102.21884 
L 354.314944 105.538104 
L 354.333297 106.05065 
L 354.34247 105.085861 
L 354.351641 105.401152 
L 354.388298 104.278311 
L 354.406612 108.670464 
L 354.415766 108.344376 
L 354.607421 152.366675 
L 354.616521 123.437373 
L 354.725528 128.615403 
L 354.807055 123.908631 
L 354.816102 133.803933 
L 354.825146 125.365423 
L 354.906436 160.608854 
L 354.87936 124.524575 
L 354.951513 148.945079 
L 354.978531 127.325343 
L 355.04149 157.383436 
L 355.059457 149.029773 
L 355.068436 165.906659 
L 355.149149 138.858295 
L 355.158106 158.566454 
L 355.176011 132.15612 
L 355.220734 188.542067 
L 355.265399 152.715471 
L 355.318919 166.335604 
L 355.407933 125.673869 
L 355.434592 191.034171 
L 355.505581 123.832151 
L 355.514445 132.364587 
L 355.549875 133.701131 
L 355.647118 115.699614 
L 355.664769 114.259434 
L 355.770483 128.003972 
L 355.779278 121.413131 
L 355.849554 131.736461 
L 355.858328 127.012596 
L 355.919686 178.202834 
L 355.980933 156.797686 
L 356.085673 123.818353 
L 356.103099 125.369425 
L 356.111808 125.251042 
L 356.120515 126.685912 
L 356.19878 124.397124 
L 356.216148 124.440594 
L 356.294194 126.830231 
L 356.268199 122.240149 
L 356.337476 125.187368 
L 356.346126 125.169997 
L 356.415246 124.752532 
L 356.475611 132.789702 
L 356.596021 112.985734 
L 356.492838 133.50486 
L 356.630346 114.398055 
L 356.716008 111.642114 
L 356.724562 118.603506 
L 356.733115 112.047539 
L 356.79292 125.256126 
L 356.835575 116.309936 
L 356.903711 118.860238 
L 356.895201 112.087447 
L 356.920723 118.04111 
L 356.946227 112.08971 
L 356.954724 119.092853 
L 357.022622 117.783799 
L 357.115763 135.593525 
L 357.039576 111.713286 
L 357.174902 123.239655 
L 357.39367 100.949733 
L 357.510889 121.445019 
L 357.586032 109.829167 
L 357.527602 134.88741 
L 357.619376 114.325553 
L 357.702593 146.024399 
L 357.677649 114.163128 
L 357.735823 130.415928 
L 357.860149 108.880921 
L 357.901491 106.095453 
L 357.959285 120.932742 
L 357.967533 103.418671 
L 357.97578 123.221407 
L 358.058133 114.467755 
L 358.099236 144.963218 
L 358.173096 138.264474 
L 358.21406 115.231051 
L 358.287672 117.131536 
L 358.344816 139.67877 
L 358.304008 110.93412 
L 358.401865 123.514387 
L 358.458818 112.374069 
L 358.450688 131.42164 
L 358.515676 112.868753 
L 358.548124 105.90395 
L 358.62102 129.955081 
L 358.734104 106.925035 
L 358.742167 126.690417 
L 358.798556 106.04742 
L 358.838777 114.500586 
L 358.919076 107.964987 
L 358.927095 121.272196 
L 358.935113 109.860853 
L 359.055152 142.277339 
L 359.150881 147.269653 
L 359.174771 120.257586 
L 359.182731 130.928901 
L 359.278102 116.110733 
L 359.286038 126.946239 
L 359.325688 115.043055 
L 359.317762 134.450326 
L 359.396943 120.343491 
L 359.491718 152.438462 
L 359.412757 118.276272 
L 359.507489 143.814751 
L 359.617677 123.120542 
L 359.727511 151.0783 
L 359.782296 128.86046 
L 359.8448 133.162574 
L 359.883806 127.734709 
L 359.907189 143.794987 
L 359.930556 140.592446 
L 359.953906 148.036643 
L 360.016096 133.431366 
L 360.023862 146.1432 
L 360.07042 156.636499 
L 360.140138 133.31518 
L 360.209714 158.839241 
L 360.171078 129.779215 
L 360.256019 151.237063 
L 360.333055 132.509836 
L 360.340749 166.75711 
L 360.36382 136.435145 
L 360.386876 155.046903 
L 360.478945 145.535421 
L 360.547834 197.147408 
L 360.50958 137.973639 
L 360.593683 153.3302 
L 360.715646 129.382764 
L 360.723254 132.866411 
L 360.799243 121.917166 
L 360.806833 123.281906 
L 360.844756 118.950731 
L 360.912911 120.749621 
L 360.98093 137.678335 
L 360.943158 118.41261 
L 361.03374 131.769891 
L 361.078941 135.011104 
L 361.101519 123.770832 
L 361.154143 142.240677 
L 361.206686 123.600566 
L 361.214185 133.485352 
L 361.236674 121.195695 
L 361.244167 135.253951 
L 361.326481 129.059902 
L 361.438408 122.400782 
L 361.341426 130.658573 
L 361.445857 123.66089 
L 361.46075 120.861832 
L 361.505389 124.820131 
L 361.512823 122.376774 
L 361.63155 143.296338 
L 361.720325 125.964256 
L 361.749865 128.620203 
L 361.764626 126.292322 
L 361.875127 145.66069 
L 361.882481 144.988146 
L 361.897185 151.6257 
L 361.904534 151.561988 
L 362.109674 237.426338 
L 361.919228 148.783926 
L 362.12428 236.568296 
L 362.197215 212.688778 
L 362.146177 245.578006 
L 362.240902 222.25412 
L 362.284533 217.644376 
L 362.371627 251.18846 
L 362.480183 217.287722 
L 362.487408 222.84792 
L 362.501853 259.958532 
L 362.595596 229.123812 
L 362.602797 229.139486 
L 362.710621 271.748211 
L 362.674718 220.94361 
L 362.724972 238.89344 
L 362.789476 221.592934 
L 362.760823 249.882173 
L 362.839562 224.578941 
L 362.90385 245.889268 
L 362.868149 219.279817 
L 362.946642 226.615397 
L 362.98938 221.06273 
L 363.04628 235.09279 
L 363.145629 216.203269 
L 363.138542 256.62484 
L 363.159798 226.278448 
L 363.265879 257.757879 
L 363.251754 221.994355 
L 363.272939 232.655044 
L 363.336417 216.747341 
L 363.385707 251.854265 
L 363.427899 218.205465 
L 363.448975 256.705493 
L 363.498103 234.465992 
L 363.519136 214.635628 
L 363.582157 235.14693 
L 363.617119 226.454816 
L 363.721789 248.524459 
L 363.67996 216.293915 
L 363.728756 233.922522 
L 363.735721 218.085157 
L 363.763568 254.065823 
L 363.833085 230.198112 
L 363.888598 251.773086 
L 363.909391 216.742438 
L 363.937097 239.510674 
L 363.94402 219.157964 
L 363.971697 241.250845 
L 364.047694 221.500784 
L 364.068391 252.715127 
L 364.061493 219.728388 
L 364.171688 237.864189 
L 364.206051 252.419921 
L 364.295234 221.837205 
L 364.363677 281.957012 
L 364.322628 218.949189 
L 364.411506 235.185494 
L 364.445629 214.669711 
L 364.486531 252.889296 
L 364.534188 220.587189 
L 364.568188 248.61943 
L 364.615732 216.953282 
L 364.64287 228.555477 
L 364.703851 223.233906 
L 364.65643 262.249365 
L 364.724154 227.623419 
L 364.791743 268.172704 
L 364.798495 220.013435 
L 364.832233 245.589199 
L 364.872674 221.537877 
L 364.906339 265.797364 
L 364.946693 223.811176 
L 365.020551 261.044044 
L 365.027258 220.033369 
L 365.05407 228.67317 
L 365.080862 218.138577 
L 365.074166 245.377581 
L 365.09425 226.330247 
L 365.16779 254.975187 
L 365.154431 219.97227 
L 365.201165 248.663036 
L 365.214505 218.293313 
L 365.287787 274.489018 
L 365.314396 232.568918 
L 365.387463 251.146267 
L 365.37419 222.293054 
L 365.413994 228.275416 
L 365.420624 223.507692 
L 365.486849 252.866919 
L 365.493464 225.365313 
L 365.579348 252.837341 
L 365.599137 216.583817 
L 365.7242 256.911382 
L 365.770161 209.912929 
L 365.829162 224.534185 
L 365.835712 262.290005 
L 365.855352 210.115486 
L 365.940331 241.517402 
L 366.031611 215.810534 
L 366.044631 230.55387 
L 366.070657 246.777742 
L 366.116153 209.059287 
L 366.148614 217.884485 
L 366.200486 215.123942 
L 366.271682 245.561484 
L 366.374976 215.215088 
L 366.381421 235.385771 
L 366.477958 251.238983 
L 366.458672 217.203138 
L 366.484384 243.564896 
L 366.516496 219.90009 
L 366.561402 245.329925 
L 366.599846 220.890396 
L 366.606249 219.802634 
L 366.638247 279.444562 
L 366.714919 214.352078 
L 366.759565 249.583298 
L 366.829606 227.765546 
L 366.899502 246.939405 
L 366.880454 219.225145 
L 366.937568 228.642327 
L 367.026222 222.981985 
L 366.988255 256.295577 
L 367.032545 228.925831 
L 367.083092 250.65888 
L 367.127259 217.690354 
L 367.146171 237.506167 
L 367.152472 236.395424 
L 367.158772 252.729307 
L 367.24057 276.89138 
L 367.215423 212.561165 
L 367.265699 252.48917 
L 367.328442 217.369195 
L 367.384811 221.352346 
L 367.478553 252.100353 
L 367.466069 219.949067 
L 367.509744 246.916383 
L 367.572039 216.822803 
L 367.628008 236.878675 
L 367.659062 217.019732 
L 367.665269 234.955495 
L 367.671476 284.398058 
L 367.690088 218.401909 
L 367.770623 224.468236 
L 367.801548 258.995206 
L 367.863313 219.092628 
L 367.875653 227.555767 
L 367.881821 219.854561 
L 367.900319 249.460006 
L 367.98036 228.17332 
L 368.066349 265.065018 
L 368.041803 218.181277 
L 368.084747 229.880406 
L 368.097007 214.501816 
L 368.109262 250.488368 
L 368.188815 220.851547 
L 368.207147 250.020192 
L 368.262085 218.580089 
L 368.298661 234.93479 
L 368.365615 216.881986 
L 368.347367 258.233797 
L 368.396005 225.177511 
L 368.40208 258.134835 
L 368.420298 213.711668 
L 368.505186 233.332765 
L 368.583823 216.419802 
L 368.589864 255.318611 
L 368.607982 224.227931 
L 368.698428 255.387807 
L 368.632124 215.776824 
L 368.710469 225.656492 
L 368.758592 216.812369 
L 368.722506 236.28853 
L 368.788634 221.46277 
L 368.79464 286.524195 
L 368.806647 220.21945 
L 368.896569 232.431004 
L 368.92649 218.17027 
L 368.938451 247.964449 
L 368.962361 224.943845 
L 369.051873 256.582923 
L 369.004162 216.262883 
L 369.069747 234.993409 
L 369.141151 220.615942 
L 369.129261 256.059594 
L 369.170859 222.779819 
L 369.242052 214.849281 
L 369.277592 257.515344 
L 369.372187 214.806649 
L 369.389894 238.058303 
L 369.454743 219.065131 
L 369.472408 255.06945 
L 369.501828 235.450051 
L 369.595804 251.74291 
L 369.589938 216.622258 
L 369.601669 239.067984 
L 369.648552 219.39323 
L 369.689522 250.859981 
L 369.712911 219.426082 
L 369.782983 271.458729 
L 369.800479 217.73414 
L 369.823792 236.844381 
L 369.899451 240.862495 
L 369.940121 215.433347 
L 369.963339 258.588156 
L 369.969141 214.312406 
L 370.050267 231.997836 
L 370.096538 214.110497 
L 370.067626 249.909066 
L 370.160058 228.740354 
L 370.211942 237.233378 
L 370.223461 217.092205 
L 370.229219 264.522494 
L 370.332697 232.645859 
L 370.384319 255.373565 
L 370.344175 217.655259 
L 370.407237 237.266105 
L 370.475899 214.400604 
L 370.504467 250.514407 
L 370.521596 227.912862 
L 370.527304 228.426267 
L 370.584331 253.600271 
L 370.629884 216.296799 
L 370.635574 222.806602 
L 370.646951 225.348583 
L 370.652638 219.230365 
L 370.664009 289.28403 
L 370.754842 219.137768 
L 370.766179 245.923718 
L 370.771846 221.839329 
L 370.834123 250.623421 
L 370.868044 231.356164 
L 370.873694 266.675251 
L 370.901932 218.00092 
L 370.97524 230.411643 
L 371.070867 244.540179 
L 371.076483 217.164719 
L 371.160624 212.962824 
L 371.188625 249.967553 
L 371.227788 218.090553 
L 371.3004 223.564715 
L 371.317134 239.289603 
L 371.345007 214.611048 
L 371.411809 224.295681 
L 371.41737 223.55627 
L 371.428489 228.283583 
L 371.511768 250.012875 
L 371.450717 218.41305 
L 371.533941 238.90177 
L 371.594843 212.446011 
L 371.633543 258.009414 
L 371.650115 219.261768 
L 371.677717 268.833545 
L 371.743872 215.726095 
L 371.76039 222.04097 
L 371.831878 266.318301 
L 371.793403 212.83048 
L 371.87031 222.433065 
L 371.908699 213.63951 
L 371.919659 243.166716 
L 371.952518 234.141696 
L 371.957992 279.219442 
L 371.996282 216.260399 
L 372.061822 247.046198 
L 372.105446 212.711829 
L 372.078187 258.048495 
L 372.176215 228.400261 
L 372.235983 282.56833 
L 372.273962 212.344116 
L 372.284806 227.998944 
L 372.290226 215.649442 
L 372.355205 240.705251 
L 372.393052 217.919645 
L 372.506342 244.157425 
L 372.608519 216.731129 
L 372.58166 250.634178 
L 372.619257 228.787043 
L 372.646087 250.989544 
L 372.710392 213.790308 
L 372.721097 217.928684 
L 372.726449 213.652601 
L 372.747847 237.680604 
L 372.769232 226.150801 
L 372.774576 274.388488 
L 372.865297 214.113099 
L 372.875954 235.015166 
L 372.939828 215.653104 
L 372.92387 246.825746 
L 372.982344 217.836024 
L 372.987654 249.145183 
L 373.008889 213.669761 
L 373.093697 234.026679 
L 373.104283 217.291946 
L 373.136022 258.770612 
L 373.199411 243.031064 
L 373.241605 257.125476 
L 373.315319 217.275499 
L 373.388874 244.885398 
L 373.373126 216.574585 
L 373.425593 236.746127 
L 373.430835 215.352818 
L 373.441317 252.715486 
L 373.535511 223.837709 
L 373.619021 250.102295 
L 373.545961 218.982224 
L 373.645076 227.890577 
L 373.707527 211.463972 
L 373.665906 234.857693 
L 373.733515 226.543368 
L 373.80099 260.717111 
L 373.790618 219.726295 
L 373.847626 249.149116 
L 373.868332 214.579443 
L 373.857981 253.155656 
L 373.956195 226.48496 
L 374.01808 254.381474 
L 374.04898 217.160069 
L 374.06442 219.737089 
L 374.172302 251.236564 
L 374.084995 216.251375 
L 374.182559 230.712851 
L 374.274732 208.202067 
L 374.197939 239.632176 
L 374.29007 222.829155 
L 374.305401 240.575663 
L 374.351352 213.826508 
L 374.392146 219.196788 
L 374.412525 207.609613 
L 374.458333 238.552169 
L 374.488837 234.706792 
L 374.498999 222.16626 
L 374.529467 256.439287 
L 374.595388 222.60416 
L 374.62577 264.854364 
L 374.666238 216.049688 
L 374.701608 222.976367 
L 374.726849 213.136399 
L 374.752072 259.146998 
L 374.797427 223.031504 
L 374.84775 257.210277 
L 374.817565 216.547839 
L 374.90302 232.44872 
L 374.90804 215.324666 
L 374.9582 270.816598 
L 375.013292 219.359419 
L 375.078285 214.0575 
L 375.13817 272.225048 
L 375.14814 219.131341 
L 375.247686 239.509389 
L 375.282458 260.716178 
L 375.322154 224.145697 
L 375.356851 244.25285 
L 375.45579 220.541976 
L 375.366758 254.732868 
L 375.475544 223.174876 
L 375.48048 257.944355 
L 375.505152 221.54098 
L 375.588905 243.132669 
L 375.69208 223.532396 
L 375.623331 244.942937 
L 375.70189 233.258875 
L 375.804725 260.406047 
L 375.736203 222.922827 
L 375.814503 237.962089 
L 375.848702 224.240461 
L 375.829164 253.475668 
L 375.921872 227.651193 
L 375.926745 257.12579 
L 375.980296 221.624431 
L 376.033762 239.044202 
L 376.058038 216.565219 
L 376.053184 249.914658 
L 376.145287 236.129742 
L 376.17432 246.155554 
L 376.169483 224.403692 
L 376.183992 244.624159 
L 376.188828 217.965372 
L 376.275743 249.608363 
L 376.295028 221.190004 
L 376.372057 252.660063 
L 376.314301 220.571738 
L 376.41531 248.036362 
L 376.487276 220.851975 
L 376.477689 251.745037 
L 376.525596 230.571651 
L 376.554307 263.342569 
L 376.611658 219.031166 
L 376.630754 237.656914 
L 376.697505 220.967551 
L 376.640298 257.894486 
L 376.740347 226.671367 
L 376.74986 269.243952 
L 376.759371 220.702272 
L 376.854331 239.931192 
L 376.863812 253.099565 
L 376.887505 222.6078 
L 376.958483 238.630162 
L 377.015159 219.863515 
L 376.996277 274.567784 
L 377.076452 221.358537 
L 377.151739 276.556505 
L 377.118822 220.12728 
L 377.189321 247.977106 
L 377.19871 219.079355 
L 377.292456 258.833035 
L 377.297137 262.932005 
L 377.325207 223.179354 
L 377.381278 241.793499 
L 377.446578 217.368364 
L 377.409279 269.740852 
L 377.493144 236.269572 
L 377.497797 225.405682 
L 377.54894 246.04754 
L 377.600006 235.941951 
L 377.609283 259.001205 
L 377.692658 220.988051 
L 377.711158 247.956909 
L 377.752747 222.557261 
L 377.771215 256.749918 
L 377.817341 228.453192 
L 377.923194 260.674126 
L 377.918598 221.882868 
L 377.927789 241.912472 
L 377.959935 219.111922 
L 377.973703 250.990959 
L 377.987465 229.669967 
L 377.992052 258.989065 
L 378.001222 214.433842 
L 378.097365 250.430147 
L 378.174997 223.542918 
L 378.111077 267.772075 
L 378.206911 253.223963 
L 378.302477 215.853899 
L 378.229689 261.580377 
L 378.311564 241.231403 
L 378.366039 291.528004 
L 378.402307 220.946946 
L 378.415897 232.963486 
L 378.46116 221.396265 
L 378.488289 254.554821 
L 378.51088 251.590558 
L 378.515396 278.718715 
L 378.601095 219.845589 
L 378.619109 251.193629 
L 378.646113 226.140572 
L 378.700056 265.14293 
L 378.731484 234.635156 
L 378.735971 233.364418 
L 378.744944 239.634866 
L 378.830068 272.052102 
L 378.780811 215.067165 
L 378.852434 234.870367 
L 378.937291 266.596941 
L 378.941751 219.112614 
L 378.955128 238.634743 
L 379.017487 221.644655 
L 378.972957 264.200132 
L 379.061959 238.142403 
L 379.132995 252.945131 
L 379.141864 223.657947 
L 379.172887 249.259352 
L 379.177317 217.824065 
L 379.203882 258.659221 
L 379.283455 221.309784 
L 379.358438 251.723327 
L 379.371653 216.469219 
L 379.402468 241.160036 
L 379.411267 218.049164 
L 379.48158 252.788373 
L 379.50791 230.648585 
L 379.547367 262.767566 
L 379.604279 215.034418 
L 379.617399 235.285489 
L 379.704739 215.161681 
L 379.630515 260.890901 
L 379.726539 225.217817 
L 379.839675 256.07873 
L 379.778802 208.270219 
L 379.844019 255.681461 
L 379.891765 212.467126 
L 379.956766 218.162225 
L 380.090711 266.923984 
L 379.969752 214.635724 
L 380.095023 237.635902 
L 380.15103 218.484279 
L 380.163942 262.22632 
L 380.206946 218.917914 
L 380.254187 254.956303 
L 380.301363 210.528492 
L 380.322786 244.076509 
L 380.37842 217.959566 
L 380.416884 262.859355 
L 380.433965 241.173544 
L 380.502203 213.526466 
L 380.451037 241.602091 
L 380.549038 219.082132 
L 380.587309 246.762222 
L 380.634028 218.397779 
L 380.659483 238.851936 
L 380.697631 218.164114 
L 380.731505 255.237138 
L 380.7738 223.520523 
L 380.832924 269.090711 
L 380.794927 217.213137 
L 380.883521 247.55496 
L 380.946662 219.014364 
L 380.96348 259.751232 
L 380.992891 231.466877 
L 381.072594 295.488 
L 381.022277 217.929969 
L 381.097724 238.289411 
L 381.135386 211.326472 
L 381.12702 261.681409 
L 381.210584 221.240004 
L 381.223101 252.63514 
L 381.323072 238.263524 
L 381.35633 211.247413 
L 381.397858 259.386504 
L 381.43519 228.147407 
L 381.509731 270.506563 
L 381.505594 222.82785 
L 381.546941 233.982513 
L 381.658326 210.337312 
L 381.579982 254.684433 
L 381.666563 219.184962 
L 381.67068 218.794208 
L 381.674797 221.54383 
L 381.678914 249.210898 
L 381.740601 210.751775 
L 381.785767 223.166484 
L 381.843165 262.494452 
L 381.916822 200.496813 
L 381.945423 244.670188 
L 382.031083 217.570867 
L 382.149022 204.788306 
L 382.075866 251.5516 
L 382.153082 205.206645 
L 382.234173 237.399496 
L 382.266556 215.686986 
L 382.282736 202.338174 
L 382.306991 232.689313 
L 382.347378 226.298142 
L 382.436062 255.454777 
L 382.387718 207.037352 
L 382.456186 216.698456 
L 382.484338 207.387473 
L 382.476297 229.222005 
L 382.492378 216.973513 
L 382.552613 264.877033 
L 382.528532 211.260493 
L 382.604731 233.360783 
L 382.696745 208.908415 
L 382.692749 245.718641 
L 382.716715 219.550861 
L 382.752632 207.371779 
L 382.728691 242.948487 
L 382.780541 222.821117 
L 382.884005 248.000708 
L 382.832312 209.26453 
L 382.887978 231.502472 
L 382.979232 205.279488 
L 382.959415 250.093076 
L 382.999038 227.5389 
L 383.018832 211.012166 
L 383.022789 269.897716 
L 383.058386 211.069727 
L 383.062339 259.219942 
L 383.082096 207.18363 
L 383.168893 228.49236 
L 383.216144 203.203814 
L 383.196464 255.977337 
L 383.271188 218.599566 
L 383.275116 246.393818 
L 383.369259 205.578418 
L 383.381009 210.945585 
L 383.474861 236.897019 
L 383.46705 205.955758 
L 383.490478 213.663593 
L 383.587922 202.571977 
L 383.521691 235.21919 
L 383.599597 213.52469 
L 383.685089 240.900008 
L 383.611268 205.510662 
L 383.708368 211.013348 
L 383.762624 203.538748 
L 383.735507 233.153748 
L 383.78198 218.340161 
L 383.797457 237.379736 
L 383.867017 199.287677 
L 383.886314 208.187785 
L 383.9056 192.328068 
L 383.921021 237.922302 
L 383.99033 199.360591 
L 383.994177 222.132246 
L 384.04414 197.179946 
L 384.101699 217.105529 
L 384.136188 225.08608 
L 384.174468 200.215594 
L 384.197416 210.85007 
L 384.26235 189.617603 
L 384.319542 195.460848 
L 384.39565 226.232483 
L 384.460209 207.396179 
L 384.494337 195.977423 
L 384.524645 223.274455 
L 384.554926 204.366705 
L 384.626736 262.212697 
L 384.562492 202.548917 
L 384.668241 228.778499 
L 384.672012 228.615301 
L 384.675782 247.336736 
L 384.747338 200.381334 
L 384.781181 225.228435 
L 384.818745 207.009123 
L 384.80748 241.780969 
L 384.886256 222.08899 
L 384.90124 245.61859 
L 384.96485 204.004705 
L 384.994743 212.356316 
L 385.065634 249.61219 
L 385.035803 203.298343 
L 385.106609 218.62213 
L 385.110331 208.305754 
L 385.121497 240.530583 
L 385.214398 215.731905 
L 385.318149 246.684953 
L 385.270018 200.471702 
L 385.321849 208.527225 
L 385.362517 271.855487 
L 385.417897 196.019884 
L 385.428962 201.716104 
L 385.436336 224.34697 
L 385.521031 193.856605 
L 385.535739 200.495837 
L 385.539415 197.551824 
L 385.601848 235.379919 
L 385.623855 202.709379 
L 385.664166 258.852306 
L 385.722714 194.23775 
L 385.733681 202.99788 
L 385.817642 222.729134 
L 385.762908 177.689251 
L 385.835867 197.473993 
L 385.93048 185.175989 
L 385.875928 204.924814 
L 385.945013 198.479097 
L 385.97406 184.05895 
L 385.952277 202.750678 
L 386.057432 196.100382 
L 386.162264 248.022025 
L 386.129764 187.632138 
L 386.169482 210.519266 
L 386.266775 191.99563 
L 386.201944 223.776186 
L 386.277568 200.104849 
L 386.284762 193.469775 
L 386.388898 237.845648 
L 386.406821 199.072794 
L 386.413987 240.197151 
L 386.499867 204.055715 
L 386.589095 239.507141 
L 386.521303 197.806085 
L 386.610475 231.002674 
L 386.656753 201.4742 
L 386.70652 236.478905 
L 386.720726 213.043977 
L 386.727827 235.533145 
L 386.812921 203.576228 
L 386.827083 210.76077 
L 386.873068 197.792369 
L 386.880137 250.650306 
L 386.92958 207.323742 
L 386.957801 237.673954 
L 386.978951 197.248061 
L 387.038806 207.791349 
L 387.066937 194.825444 
L 387.095045 228.994828 
L 387.151191 201.557097 
L 387.161708 199.109719 
L 387.168717 237.042125 
L 387.179229 204.881958 
L 387.182732 244.234519 
L 387.273688 191.805807 
L 387.291152 214.419813 
L 387.301626 191.472272 
L 387.371371 242.418159 
L 387.40271 211.385131 
L 387.420108 237.017933 
L 387.451402 200.755484 
L 387.510434 209.174147 
L 387.541646 198.777748 
L 387.527778 229.911923 
L 387.61782 210.558099 
L 387.642022 243.540099 
L 387.680018 203.842226 
L 387.721421 218.764373 
L 387.790313 193.314214 
L 387.748994 242.484574 
L 387.835019 207.626169 
L 387.917399 221.901506 
L 387.865935 195.189913 
L 387.937964 209.758214 
L 387.968786 196.365073 
L 387.965363 252.719442 
L 388.040598 198.987994 
L 388.125892 223.550641 
L 388.088389 197.355442 
L 388.153141 219.387349 
L 388.255131 199.010494 
L 388.200774 243.685287 
L 388.26192 223.594543 
L 388.265313 223.971741 
L 388.2721 192.690783 
L 388.282277 236.597475 
L 388.377118 209.058177 
L 388.417684 198.335808 
L 388.407547 227.905866 
L 388.444701 205.234061 
L 388.481815 240.124681 
L 388.502041 197.216913 
L 388.555921 209.944945 
L 388.670133 194.400049 
L 388.602996 241.779153 
L 388.673486 199.298122 
L 388.680192 240.137375 
L 388.767248 195.609044 
L 388.783964 223.161932 
L 388.787306 193.264062 
L 388.857417 235.452445 
L 388.894085 203.595787 
L 388.963977 233.795527 
L 388.914069 194.958168 
L 388.993887 202.257685 
L 389.096711 190.202279 
L 389.070205 218.206664 
L 389.103334 192.045733 
L 389.179408 222.363788 
L 389.205829 191.988957 
L 389.215731 201.100778 
L 389.331049 232.57153 
L 389.238826 188.732419 
L 389.334338 206.942471 
L 389.337627 206.468978 
L 389.4427 195.09759 
L 389.449256 235.506643 
L 389.482019 195.968616 
L 389.531104 245.374698 
L 389.560521 224.459853 
L 389.616018 196.23712 
L 389.648621 231.206734 
L 389.671425 206.62407 
L 389.749493 236.99463 
L 389.720238 195.844498 
L 389.778723 212.399654 
L 389.811171 195.077773 
L 389.814414 235.336334 
L 389.885684 224.477942 
L 389.966493 197.337147 
L 389.953577 230.941422 
L 389.998763 201.630499 
L 390.001989 242.224402 
L 390.06965 196.137859 
L 390.108254 198.122557 
L 390.14039 225.732198 
L 390.182122 191.714641 
L 390.217394 209.457566 
L 390.287829 187.088225 
L 390.271834 228.033596 
L 390.322992 198.963591 
L 390.377263 251.354625 
L 390.39002 192.997236 
L 390.434633 213.417168 
L 390.444185 195.20466 
L 390.488727 231.171285 
L 390.495085 209.537342 
L 390.498264 242.526366 
L 390.56495 193.440528 
L 390.602997 205.392708 
L 390.628339 197.772708 
L 390.659989 227.896896 
L 390.678965 242.096861 
L 390.697931 194.35937 
L 390.754765 210.575195 
L 390.783146 192.458177 
L 390.767381 227.827943 
L 390.858714 195.2913 
L 390.902719 241.418578 
L 390.9247 194.089513 
L 390.968619 206.554358 
L 390.984291 240.602732 
L 390.999956 196.135509 
L 391.081296 214.436947 
L 391.118772 195.463953 
L 391.134375 244.431932 
L 391.190487 200.363686 
L 391.196716 238.259817 
L 391.249617 192.296021 
L 391.29933 226.93959 
L 391.330365 192.105371 
L 391.358271 239.170951 
L 391.410922 195.033186 
L 391.47276 243.872424 
L 391.438763 192.744819 
L 391.525234 222.452354 
L 391.626867 190.373946 
L 391.556064 236.498505 
L 391.639165 208.202686 
L 391.728197 191.38164 
L 391.648386 242.502224 
L 391.740459 208.751645 
L 391.792524 241.740707 
L 391.820055 192.978756 
L 391.850619 208.132034 
L 391.875051 242.637413 
L 391.954334 195.583796 
L 392.018237 242.925692 
L 391.987822 189.662889 
L 392.066844 227.809986 
L 392.142654 189.560542 
L 392.178983 212.93473 
L 392.281706 191.469902 
L 392.188059 227.215341 
L 392.284723 215.107626 
L 392.287739 219.88768 
L 392.323914 192.740331 
L 392.384121 208.67643 
L 392.495224 189.705313 
L 392.477232 245.556679 
L 392.498222 197.435422 
L 392.519199 191.553732 
L 392.608954 235.160168 
L 392.656728 189.01682 
L 392.659711 238.406812 
L 392.722307 195.279218 
L 392.814501 246.99755 
L 392.734217 191.148647 
L 392.832316 205.39657 
L 392.924214 228.676996 
L 392.88867 193.818462 
L 392.936053 206.261903 
L 392.956763 188.780743 
L 392.947889 233.874374 
L 393.048326 196.047172 
L 393.119046 237.128349 
L 393.089597 192.839277 
L 393.160231 217.00954 
L 393.163171 192.318462 
L 393.265909 232.032951 
L 393.27177 209.766939 
L 393.324477 193.379598 
L 393.330329 244.450427 
L 393.368338 214.572845 
L 393.37126 243.202745 
L 393.400466 191.255908 
L 393.476287 208.042782 
L 393.487936 231.50975 
L 393.586799 191.393661 
L 393.624524 229.748938 
L 393.696954 213.311318 
L 393.746119 190.186137 
L 393.757677 222.407919 
L 393.795214 196.377103 
L 393.838474 241.847412 
L 393.844237 186.005775 
L 393.904699 206.830116 
L 393.993757 186.092808 
L 393.996626 254.540336 
L 394.013835 209.617255 
L 394.102608 250.694889 
L 394.062546 187.750726 
L 394.105468 210.120068 
L 394.213964 188.85986 
L 394.185446 223.421419 
L 394.216815 202.051779 
L 394.219665 201.960033 
L 394.222515 188.613251 
L 394.231064 234.580908 
L 394.324958 221.878861 
L 394.339162 191.011759 
L 394.347681 244.508036 
L 394.444087 206.093888 
L 394.5148 232.410746 
L 394.455411 186.17159 
L 394.554336 227.089626 
L 394.602282 188.958008 
L 394.607918 228.343906 
L 394.667043 209.464333 
L 394.700782 187.705479 
L 394.74291 253.147027 
L 394.77377 200.956724 
L 394.824209 231.44245 
L 394.793394 188.206762 
L 394.885756 220.154115 
L 394.908109 189.901392 
L 394.902522 228.909918 
L 394.997375 204.263114 
L 395.022439 223.918005 
L 395.011302 193.596441 
L 395.103076 207.713298 
L 395.158577 187.010466 
L 395.128062 221.562379 
L 395.213987 200.674395 
L 395.307979 224.433607 
L 395.241659 186.162615 
L 395.324539 200.77777 
L 395.390699 188.202726 
L 395.396207 237.875258 
L 395.437485 194.011192 
L 395.470472 250.291549 
L 395.517148 189.664225 
L 395.550058 207.560381 
L 395.566501 187.069579 
L 395.613046 242.402743 
L 395.66226 199.938002 
L 395.727769 223.391763 
L 395.705947 187.860986 
L 395.774095 203.949708 
L 395.869275 233.826125 
L 395.855694 189.419447 
L 395.880135 198.875592 
L 395.956064 184.946178 
L 395.915409 228.806936 
L 395.988554 200.848229 
L 396.05614 237.156644 
L 396.039932 191.350888 
L 396.099326 201.537097 
L 396.123593 190.160734 
L 396.14515 229.10917 
L 396.198983 198.940548 
L 396.295668 216.376311 
L 396.215116 186.976808 
L 396.309075 208.447663 
L 396.418813 189.014487 
L 396.402776 224.537877 
L 396.421485 192.374534 
L 396.448195 227.34696 
L 396.464211 189.722865 
L 396.533526 199.918763 
L 396.570792 231.806316 
L 396.538852 186.97261 
L 396.637236 203.784244 
L 396.687647 191.870969 
L 396.682344 231.0189 
L 396.748572 200.317056 
L 396.767093 185.313292 
L 396.780316 251.185086 
L 396.830516 205.241408 
L 396.872733 229.665032 
L 396.859546 183.049483 
L 396.941224 207.043349 
L 396.946487 214.061397 
L 396.949118 199.717886 
L 396.951749 235.527184 
L 396.959641 185.969937 
L 397.059443 203.403313 
L 397.122325 250.624279 
L 397.172025 184.267068 
L 397.255568 221.445177 
L 397.281633 195.364428 
L 397.284238 185.052654 
L 397.294658 219.10107 
L 397.388292 186.595336 
L 397.471307 231.784038 
L 397.479079 184.651491 
L 397.499796 195.303342 
L 397.520501 219.787059 
L 397.504974 188.051834 
L 397.610938 207.136647 
L 397.701136 186.957914 
L 397.68054 238.130155 
L 397.721719 194.378825 
L 397.778258 236.824913 
L 397.765417 190.860392 
L 397.827013 229.938756 
L 397.880818 186.954819 
L 397.939651 192.24691 
L 397.962645 189.492138 
L 397.975413 222.828611 
L 397.99328 196.66744 
L 398.031534 234.06462 
L 398.044276 188.948996 
L 398.105371 216.727176 
L 398.151121 186.466465 
L 398.12317 227.11813 
L 398.212025 201.512683 
L 398.275352 238.474594 
L 398.272821 189.314176 
L 398.323402 213.388377 
L 398.386522 183.39854 
L 398.426858 240.457566 
L 398.434416 212.522027 
L 398.452044 229.411715 
L 398.439453 187.203315 
L 398.487273 207.895917 
" style="fill:none;stroke:#1f77b4;stroke-linecap:square;stroke-width:1.5;"/>
   </g>
   <g id="line2d_47">
    <path clip-path="url(#pc5f1d254f6)" d="M 285.33266 307.584 
L 285.33266 41.472 
" style="fill:none;stroke:#ff0000;stroke-dasharray:5.55,2.4;stroke-dashoffset:0;stroke-width:1.5;"/>
   </g>
   <g id="line2d_48">
    <path clip-path="url(#pc5f1d254f6)" d="M 312.234143 307.584 
L 312.234143 41.472 
" style="fill:none;stroke:#ff0000;stroke-dasharray:5.55,2.4;stroke-dashoffset:0;stroke-width:1.5;"/>
   </g>
   <g id="line2d_49">
    <path clip-path="url(#pc5f1d254f6)" d="M 324.209172 307.584 
L 324.209172 41.472 
" style="fill:none;stroke:#ff0000;stroke-dasharray:5.55,2.4;stroke-dashoffset:0;stroke-width:1.5;"/>
   </g>
   <g id="patch_3">
    <path d="M 57.6 307.584 
L 57.6 41.472 
" style="fill:none;stroke:#000000;stroke-linecap:square;stroke-linejoin:miter;stroke-width:0.8;"/>
   </g>
   <g id="patch_4">
    <path d="M 414.72 307.584 
L 414.72 41.472 
" style="fill:none;stroke:#000000;stroke-linecap:square;stroke-linejoin:miter;stroke-width:0.8;"/>
   </g>
   <g id="patch_5">
    <path d="M 57.6 307.584 
L 414.72 307.584 
" style="fill:none;stroke:#000000;stroke-linecap:square;stroke-linejoin:miter;stroke-width:0.8;"/>
   </g>
   <g id="patch_6">
    <path d="M 57.6 41.472 
L 414.72 41.472 
" style="fill:none;stroke:#000000;stroke-linecap:square;stroke-linejoin:miter;stroke-width:0.8;"/>
   </g>
   <g id="text_14">
    <!-- DFT cat -->
    <g transform="translate(213.294375 35.472)scale(0.12 -0.12)">
     <defs>
      <path d="M 1259 4147 
L 1259 519 
L 2022 519 
Q 2988 519 3436 956 
Q 3884 1394 3884 2338 
Q 3884 3275 3436 3711 
Q 2988 4147 2022 4147 
L 1259 4147 
z
M 628 4666 
L 1925 4666 
Q 3281 4666 3915 4102 
Q 4550 3538 4550 2338 
Q 4550 1131 3912 565 
Q 3275 0 1925 0 
L 628 0 
L 628 4666 
z
" id="DejaVuSans-44" transform="scale(0.015625)"/>
      <path d="M -19 4666 
L 3928 4666 
L 3928 4134 
L 2272 4134 
L 2272 0 
L 1638 0 
L 1638 4134 
L -19 4134 
L -19 4666 
z
" id="DejaVuSans-54" transform="scale(0.015625)"/>
      <path d="M 2194 1759 
Q 1497 1759 1228 1600 
Q 959 1441 959 1056 
Q 959 750 1161 570 
Q 1363 391 1709 391 
Q 2188 391 2477 730 
Q 2766 1069 2766 1631 
L 2766 1759 
L 2194 1759 
z
M 3341 1997 
L 3341 0 
L 2766 0 
L 2766 531 
Q 2569 213 2275 61 
Q 1981 -91 1556 -91 
Q 1019 -91 701 211 
Q 384 513 384 1019 
Q 384 1609 779 1909 
Q 1175 2209 1959 2209 
L 2766 2209 
L 2766 2266 
Q 2766 2663 2505 2880 
Q 2244 3097 1772 3097 
Q 1472 3097 1187 3025 
Q 903 2953 641 2809 
L 641 3341 
Q 956 3463 1253 3523 
Q 1550 3584 1831 3584 
Q 2591 3584 2966 3190 
Q 3341 2797 3341 1997 
z
" id="DejaVuSans-61" transform="scale(0.015625)"/>
      <path d="M 1172 4494 
L 1172 3500 
L 2356 3500 
L 2356 3053 
L 1172 3053 
L 1172 1153 
Q 1172 725 1289 603 
Q 1406 481 1766 481 
L 2356 481 
L 2356 0 
L 1766 0 
Q 1100 0 847 248 
Q 594 497 594 1153 
L 594 3053 
L 172 3053 
L 172 3500 
L 594 3500 
L 594 4494 
L 1172 4494 
z
" id="DejaVuSans-74" transform="scale(0.015625)"/>
     </defs>
     <use xlink:href="#DejaVuSans-44"/>
     <use x="77.001953" xlink:href="#DejaVuSans-46"/>
     <use x="132.771484" xlink:href="#DejaVuSans-54"/>
     <use x="193.855469" xlink:href="#DejaVuSans-20"/>
     <use x="225.642578" xlink:href="#DejaVuSans-63"/>
     <use x="280.623047" xlink:href="#DejaVuSans-61"/>
     <use x="341.902344" xlink:href="#DejaVuSans-74"/>
    </g>
   </g>
  </g>
 </g>
 <defs>
  <clipPath id="pc5f1d254f6">
   <rect height="266.112" width="357.12" x="57.6" y="41.472"/>
  </clipPath>
 </defs>
</svg>
