<?xml version="1.0" encoding="utf-8" standalone="no"?>
<!DOCTYPE svg PUBLIC "-//W3C//DTD SVG 1.1//EN"
  "http://www.w3.org/Graphics/SVG/1.1/DTD/svg11.dtd">
<svg height="345.6pt" version="1.1" viewBox="0 0 460.8 345.6" width="460.8pt" xmlns="http://www.w3.org/2000/svg" xmlns:xlink="http://www.w3.org/1999/xlink">
 <metadata>
  <rdf:RDF xmlns:cc="http://creativecommons.org/ns#" xmlns:dc="http://purl.org/dc/elements/1.1/" xmlns:rdf="http://www.w3.org/1999/02/22-rdf-syntax-ns#">
   <cc:Work>
    <dc:type rdf:resource="http://purl.org/dc/dcmitype/StillImage"/>
    <dc:date>2021-10-07T14:02:35.354219</dc:date>
    <dc:format>image/svg+xml</dc:format>
    <dc:creator>
     <cc:Agent>
      <dc:title>Matplotlib v3.4.2, https://matplotlib.org/</dc:title>
     </cc:Agent>
    </dc:creator>
   </cc:Work>
  </rdf:RDF>
 </metadata>
 <defs>
  <style type="text/css">*{stroke-linecap:butt;stroke-linejoin:round;}</style>
 </defs>
 <g id="figure_1">
  <g id="patch_1">
   <path d="M 0 345.6 
L 460.8 345.6 
L 460.8 0 
L 0 0 
z
" style="fill:#ffffff;"/>
  </g>
  <g id="axes_1">
   <g id="patch_2">
    <path d="M 57.6 307.584 
L 414.72 307.584 
L 414.72 41.472 
L 57.6 41.472 
z
" style="fill:#ffffff;"/>
   </g>
   <g id="matplotlib.axis_1">
    <g id="xtick_1">
     <g id="line2d_1">
      <defs>
       <path d="M 0 0 
L 0 3.5 
" id="mb94c0d4aff" style="stroke:#000000;stroke-width:0.8;"/>
      </defs>
      <g>
       <use style="stroke:#000000;stroke-width:0.8;" x="135.294757" xlink:href="#mb94c0d4aff" y="307.584"/>
      </g>
     </g>
     <g id="text_1">
      <!-- $\mathdefault{10^{1}}$ -->
      <g transform="translate(126.494757 322.182437)scale(0.1 -0.1)">
       <defs>
        <path d="M 794 531 
L 1825 531 
L 1825 4091 
L 703 3866 
L 703 4441 
L 1819 4666 
L 2450 4666 
L 2450 531 
L 3481 531 
L 3481 0 
L 794 0 
L 794 531 
z
" id="DejaVuSans-31" transform="scale(0.015625)"/>
        <path d="M 2034 4250 
Q 1547 4250 1301 3770 
Q 1056 3291 1056 2328 
Q 1056 1369 1301 889 
Q 1547 409 2034 409 
Q 2525 409 2770 889 
Q 3016 1369 3016 2328 
Q 3016 3291 2770 3770 
Q 2525 4250 2034 4250 
z
M 2034 4750 
Q 2819 4750 3233 4129 
Q 3647 3509 3647 2328 
Q 3647 1150 3233 529 
Q 2819 -91 2034 -91 
Q 1250 -91 836 529 
Q 422 1150 422 2328 
Q 422 3509 836 4129 
Q 1250 4750 2034 4750 
z
" id="DejaVuSans-30" transform="scale(0.015625)"/>
       </defs>
       <use transform="translate(0 0.684375)" xlink:href="#DejaVuSans-31"/>
       <use transform="translate(63.623047 0.684375)" xlink:href="#DejaVuSans-30"/>
       <use transform="translate(128.203125 38.965625)scale(0.7)" xlink:href="#DejaVuSans-31"/>
      </g>
     </g>
    </g>
    <g id="xtick_2">
     <g id="line2d_2">
      <g>
       <use style="stroke:#000000;stroke-width:0.8;" x="214.014575" xlink:href="#mb94c0d4aff" y="307.584"/>
      </g>
     </g>
     <g id="text_2">
      <!-- $\mathdefault{10^{2}}$ -->
      <g transform="translate(205.214575 322.182437)scale(0.1 -0.1)">
       <defs>
        <path d="M 1228 531 
L 3431 531 
L 3431 0 
L 469 0 
L 469 531 
Q 828 903 1448 1529 
Q 2069 2156 2228 2338 
Q 2531 2678 2651 2914 
Q 2772 3150 2772 3378 
Q 2772 3750 2511 3984 
Q 2250 4219 1831 4219 
Q 1534 4219 1204 4116 
Q 875 4013 500 3803 
L 500 4441 
Q 881 4594 1212 4672 
Q 1544 4750 1819 4750 
Q 2544 4750 2975 4387 
Q 3406 4025 3406 3419 
Q 3406 3131 3298 2873 
Q 3191 2616 2906 2266 
Q 2828 2175 2409 1742 
Q 1991 1309 1228 531 
z
" id="DejaVuSans-32" transform="scale(0.015625)"/>
       </defs>
       <use transform="translate(0 0.765625)" xlink:href="#DejaVuSans-31"/>
       <use transform="translate(63.623047 0.765625)" xlink:href="#DejaVuSans-30"/>
       <use transform="translate(128.203125 39.046875)scale(0.7)" xlink:href="#DejaVuSans-32"/>
      </g>
     </g>
    </g>
    <g id="xtick_3">
     <g id="line2d_3">
      <g>
       <use style="stroke:#000000;stroke-width:0.8;" x="292.734393" xlink:href="#mb94c0d4aff" y="307.584"/>
      </g>
     </g>
     <g id="text_3">
      <!-- $\mathdefault{10^{3}}$ -->
      <g transform="translate(283.934393 322.182437)scale(0.1 -0.1)">
       <defs>
        <path d="M 2597 2516 
Q 3050 2419 3304 2112 
Q 3559 1806 3559 1356 
Q 3559 666 3084 287 
Q 2609 -91 1734 -91 
Q 1441 -91 1130 -33 
Q 819 25 488 141 
L 488 750 
Q 750 597 1062 519 
Q 1375 441 1716 441 
Q 2309 441 2620 675 
Q 2931 909 2931 1356 
Q 2931 1769 2642 2001 
Q 2353 2234 1838 2234 
L 1294 2234 
L 1294 2753 
L 1863 2753 
Q 2328 2753 2575 2939 
Q 2822 3125 2822 3475 
Q 2822 3834 2567 4026 
Q 2313 4219 1838 4219 
Q 1578 4219 1281 4162 
Q 984 4106 628 3988 
L 628 4550 
Q 988 4650 1302 4700 
Q 1616 4750 1894 4750 
Q 2613 4750 3031 4423 
Q 3450 4097 3450 3541 
Q 3450 3153 3228 2886 
Q 3006 2619 2597 2516 
z
" id="DejaVuSans-33" transform="scale(0.015625)"/>
       </defs>
       <use transform="translate(0 0.765625)" xlink:href="#DejaVuSans-31"/>
       <use transform="translate(63.623047 0.765625)" xlink:href="#DejaVuSans-30"/>
       <use transform="translate(128.203125 39.046875)scale(0.7)" xlink:href="#DejaVuSans-33"/>
      </g>
     </g>
    </g>
    <g id="xtick_4">
     <g id="line2d_4">
      <g>
       <use style="stroke:#000000;stroke-width:0.8;" x="371.454211" xlink:href="#mb94c0d4aff" y="307.584"/>
      </g>
     </g>
     <g id="text_4">
      <!-- $\mathdefault{10^{4}}$ -->
      <g transform="translate(362.654211 322.182437)scale(0.1 -0.1)">
       <defs>
        <path d="M 2419 4116 
L 825 1625 
L 2419 1625 
L 2419 4116 
z
M 2253 4666 
L 3047 4666 
L 3047 1625 
L 3713 1625 
L 3713 1100 
L 3047 1100 
L 3047 0 
L 2419 0 
L 2419 1100 
L 313 1100 
L 313 1709 
L 2253 4666 
z
" id="DejaVuSans-34" transform="scale(0.015625)"/>
       </defs>
       <use transform="translate(0 0.684375)" xlink:href="#DejaVuSans-31"/>
       <use transform="translate(63.623047 0.684375)" xlink:href="#DejaVuSans-30"/>
       <use transform="translate(128.203125 38.965625)scale(0.7)" xlink:href="#DejaVuSans-34"/>
      </g>
     </g>
    </g>
    <g id="xtick_5">
     <g id="line2d_5">
      <defs>
       <path d="M 0 0 
L 0 2 
" id="m9109d4c031" style="stroke:#000000;stroke-width:0.6;"/>
      </defs>
      <g>
       <use style="stroke:#000000;stroke-width:0.6;" x="80.271966" xlink:href="#m9109d4c031" y="307.584"/>
      </g>
     </g>
    </g>
    <g id="xtick_6">
     <g id="line2d_6">
      <g>
       <use style="stroke:#000000;stroke-width:0.6;" x="94.133838" xlink:href="#m9109d4c031" y="307.584"/>
      </g>
     </g>
    </g>
    <g id="xtick_7">
     <g id="line2d_7">
      <g>
       <use style="stroke:#000000;stroke-width:0.6;" x="103.968992" xlink:href="#m9109d4c031" y="307.584"/>
      </g>
     </g>
    </g>
    <g id="xtick_8">
     <g id="line2d_8">
      <g>
       <use style="stroke:#000000;stroke-width:0.6;" x="111.597731" xlink:href="#m9109d4c031" y="307.584"/>
      </g>
     </g>
    </g>
    <g id="xtick_9">
     <g id="line2d_9">
      <g>
       <use style="stroke:#000000;stroke-width:0.6;" x="117.830864" xlink:href="#m9109d4c031" y="307.584"/>
      </g>
     </g>
    </g>
    <g id="xtick_10">
     <g id="line2d_10">
      <g>
       <use style="stroke:#000000;stroke-width:0.6;" x="123.100903" xlink:href="#m9109d4c031" y="307.584"/>
      </g>
     </g>
    </g>
    <g id="xtick_11">
     <g id="line2d_11">
      <g>
       <use style="stroke:#000000;stroke-width:0.6;" x="127.666019" xlink:href="#m9109d4c031" y="307.584"/>
      </g>
     </g>
    </g>
    <g id="xtick_12">
     <g id="line2d_12">
      <g>
       <use style="stroke:#000000;stroke-width:0.6;" x="131.692736" xlink:href="#m9109d4c031" y="307.584"/>
      </g>
     </g>
    </g>
    <g id="xtick_13">
     <g id="line2d_13">
      <g>
       <use style="stroke:#000000;stroke-width:0.6;" x="158.991784" xlink:href="#m9109d4c031" y="307.584"/>
      </g>
     </g>
    </g>
    <g id="xtick_14">
     <g id="line2d_14">
      <g>
       <use style="stroke:#000000;stroke-width:0.6;" x="172.853655" xlink:href="#m9109d4c031" y="307.584"/>
      </g>
     </g>
    </g>
    <g id="xtick_15">
     <g id="line2d_15">
      <g>
       <use style="stroke:#000000;stroke-width:0.6;" x="182.68881" xlink:href="#m9109d4c031" y="307.584"/>
      </g>
     </g>
    </g>
    <g id="xtick_16">
     <g id="line2d_16">
      <g>
       <use style="stroke:#000000;stroke-width:0.6;" x="190.317549" xlink:href="#m9109d4c031" y="307.584"/>
      </g>
     </g>
    </g>
    <g id="xtick_17">
     <g id="line2d_17">
      <g>
       <use style="stroke:#000000;stroke-width:0.6;" x="196.550682" xlink:href="#m9109d4c031" y="307.584"/>
      </g>
     </g>
    </g>
    <g id="xtick_18">
     <g id="line2d_18">
      <g>
       <use style="stroke:#000000;stroke-width:0.6;" x="201.820721" xlink:href="#m9109d4c031" y="307.584"/>
      </g>
     </g>
    </g>
    <g id="xtick_19">
     <g id="line2d_19">
      <g>
       <use style="stroke:#000000;stroke-width:0.6;" x="206.385836" xlink:href="#m9109d4c031" y="307.584"/>
      </g>
     </g>
    </g>
    <g id="xtick_20">
     <g id="line2d_20">
      <g>
       <use style="stroke:#000000;stroke-width:0.6;" x="210.412554" xlink:href="#m9109d4c031" y="307.584"/>
      </g>
     </g>
    </g>
    <g id="xtick_21">
     <g id="line2d_21">
      <g>
       <use style="stroke:#000000;stroke-width:0.6;" x="237.711601" xlink:href="#m9109d4c031" y="307.584"/>
      </g>
     </g>
    </g>
    <g id="xtick_22">
     <g id="line2d_22">
      <g>
       <use style="stroke:#000000;stroke-width:0.6;" x="251.573473" xlink:href="#m9109d4c031" y="307.584"/>
      </g>
     </g>
    </g>
    <g id="xtick_23">
     <g id="line2d_23">
      <g>
       <use style="stroke:#000000;stroke-width:0.6;" x="261.408628" xlink:href="#m9109d4c031" y="307.584"/>
      </g>
     </g>
    </g>
    <g id="xtick_24">
     <g id="line2d_24">
      <g>
       <use style="stroke:#000000;stroke-width:0.6;" x="269.037366" xlink:href="#m9109d4c031" y="307.584"/>
      </g>
     </g>
    </g>
    <g id="xtick_25">
     <g id="line2d_25">
      <g>
       <use style="stroke:#000000;stroke-width:0.6;" x="275.2705" xlink:href="#m9109d4c031" y="307.584"/>
      </g>
     </g>
    </g>
    <g id="xtick_26">
     <g id="line2d_26">
      <g>
       <use style="stroke:#000000;stroke-width:0.6;" x="280.540539" xlink:href="#m9109d4c031" y="307.584"/>
      </g>
     </g>
    </g>
    <g id="xtick_27">
     <g id="line2d_27">
      <g>
       <use style="stroke:#000000;stroke-width:0.6;" x="285.105654" xlink:href="#m9109d4c031" y="307.584"/>
      </g>
     </g>
    </g>
    <g id="xtick_28">
     <g id="line2d_28">
      <g>
       <use style="stroke:#000000;stroke-width:0.6;" x="289.132372" xlink:href="#m9109d4c031" y="307.584"/>
      </g>
     </g>
    </g>
    <g id="xtick_29">
     <g id="line2d_29">
      <g>
       <use style="stroke:#000000;stroke-width:0.6;" x="316.431419" xlink:href="#m9109d4c031" y="307.584"/>
      </g>
     </g>
    </g>
    <g id="xtick_30">
     <g id="line2d_30">
      <g>
       <use style="stroke:#000000;stroke-width:0.6;" x="330.293291" xlink:href="#m9109d4c031" y="307.584"/>
      </g>
     </g>
    </g>
    <g id="xtick_31">
     <g id="line2d_31">
      <g>
       <use style="stroke:#000000;stroke-width:0.6;" x="340.128446" xlink:href="#m9109d4c031" y="307.584"/>
      </g>
     </g>
    </g>
    <g id="xtick_32">
     <g id="line2d_32">
      <g>
       <use style="stroke:#000000;stroke-width:0.6;" x="347.757184" xlink:href="#m9109d4c031" y="307.584"/>
      </g>
     </g>
    </g>
    <g id="xtick_33">
     <g id="line2d_33">
      <g>
       <use style="stroke:#000000;stroke-width:0.6;" x="353.990318" xlink:href="#m9109d4c031" y="307.584"/>
      </g>
     </g>
    </g>
    <g id="xtick_34">
     <g id="line2d_34">
      <g>
       <use style="stroke:#000000;stroke-width:0.6;" x="359.260357" xlink:href="#m9109d4c031" y="307.584"/>
      </g>
     </g>
    </g>
    <g id="xtick_35">
     <g id="line2d_35">
      <g>
       <use style="stroke:#000000;stroke-width:0.6;" x="363.825472" xlink:href="#m9109d4c031" y="307.584"/>
      </g>
     </g>
    </g>
    <g id="xtick_36">
     <g id="line2d_36">
      <g>
       <use style="stroke:#000000;stroke-width:0.6;" x="367.852189" xlink:href="#m9109d4c031" y="307.584"/>
      </g>
     </g>
    </g>
    <g id="xtick_37">
     <g id="line2d_37">
      <g>
       <use style="stroke:#000000;stroke-width:0.6;" x="395.151237" xlink:href="#m9109d4c031" y="307.584"/>
      </g>
     </g>
    </g>
    <g id="xtick_38">
     <g id="line2d_38">
      <g>
       <use style="stroke:#000000;stroke-width:0.6;" x="409.013109" xlink:href="#m9109d4c031" y="307.584"/>
      </g>
     </g>
    </g>
    <g id="text_5">
     <!-- Frequency (Hz) -->
     <g transform="translate(198.455312 335.860562)scale(0.1 -0.1)">
      <defs>
       <path d="M 628 4666 
L 3309 4666 
L 3309 4134 
L 1259 4134 
L 1259 2759 
L 3109 2759 
L 3109 2228 
L 1259 2228 
L 1259 0 
L 628 0 
L 628 4666 
z
" id="DejaVuSans-46" transform="scale(0.015625)"/>
       <path d="M 2631 2963 
Q 2534 3019 2420 3045 
Q 2306 3072 2169 3072 
Q 1681 3072 1420 2755 
Q 1159 2438 1159 1844 
L 1159 0 
L 581 0 
L 581 3500 
L 1159 3500 
L 1159 2956 
Q 1341 3275 1631 3429 
Q 1922 3584 2338 3584 
Q 2397 3584 2469 3576 
Q 2541 3569 2628 3553 
L 2631 2963 
z
" id="DejaVuSans-72" transform="scale(0.015625)"/>
       <path d="M 3597 1894 
L 3597 1613 
L 953 1613 
Q 991 1019 1311 708 
Q 1631 397 2203 397 
Q 2534 397 2845 478 
Q 3156 559 3463 722 
L 3463 178 
Q 3153 47 2828 -22 
Q 2503 -91 2169 -91 
Q 1331 -91 842 396 
Q 353 884 353 1716 
Q 353 2575 817 3079 
Q 1281 3584 2069 3584 
Q 2775 3584 3186 3129 
Q 3597 2675 3597 1894 
z
M 3022 2063 
Q 3016 2534 2758 2815 
Q 2500 3097 2075 3097 
Q 1594 3097 1305 2825 
Q 1016 2553 972 2059 
L 3022 2063 
z
" id="DejaVuSans-65" transform="scale(0.015625)"/>
       <path d="M 947 1747 
Q 947 1113 1208 752 
Q 1469 391 1925 391 
Q 2381 391 2643 752 
Q 2906 1113 2906 1747 
Q 2906 2381 2643 2742 
Q 2381 3103 1925 3103 
Q 1469 3103 1208 2742 
Q 947 2381 947 1747 
z
M 2906 525 
Q 2725 213 2448 61 
Q 2172 -91 1784 -91 
Q 1150 -91 751 415 
Q 353 922 353 1747 
Q 353 2572 751 3078 
Q 1150 3584 1784 3584 
Q 2172 3584 2448 3432 
Q 2725 3281 2906 2969 
L 2906 3500 
L 3481 3500 
L 3481 -1331 
L 2906 -1331 
L 2906 525 
z
" id="DejaVuSans-71" transform="scale(0.015625)"/>
       <path d="M 544 1381 
L 544 3500 
L 1119 3500 
L 1119 1403 
Q 1119 906 1312 657 
Q 1506 409 1894 409 
Q 2359 409 2629 706 
Q 2900 1003 2900 1516 
L 2900 3500 
L 3475 3500 
L 3475 0 
L 2900 0 
L 2900 538 
Q 2691 219 2414 64 
Q 2138 -91 1772 -91 
Q 1169 -91 856 284 
Q 544 659 544 1381 
z
M 1991 3584 
L 1991 3584 
z
" id="DejaVuSans-75" transform="scale(0.015625)"/>
       <path d="M 3513 2113 
L 3513 0 
L 2938 0 
L 2938 2094 
Q 2938 2591 2744 2837 
Q 2550 3084 2163 3084 
Q 1697 3084 1428 2787 
Q 1159 2491 1159 1978 
L 1159 0 
L 581 0 
L 581 3500 
L 1159 3500 
L 1159 2956 
Q 1366 3272 1645 3428 
Q 1925 3584 2291 3584 
Q 2894 3584 3203 3211 
Q 3513 2838 3513 2113 
z
" id="DejaVuSans-6e" transform="scale(0.015625)"/>
       <path d="M 3122 3366 
L 3122 2828 
Q 2878 2963 2633 3030 
Q 2388 3097 2138 3097 
Q 1578 3097 1268 2742 
Q 959 2388 959 1747 
Q 959 1106 1268 751 
Q 1578 397 2138 397 
Q 2388 397 2633 464 
Q 2878 531 3122 666 
L 3122 134 
Q 2881 22 2623 -34 
Q 2366 -91 2075 -91 
Q 1284 -91 818 406 
Q 353 903 353 1747 
Q 353 2603 823 3093 
Q 1294 3584 2113 3584 
Q 2378 3584 2631 3529 
Q 2884 3475 3122 3366 
z
" id="DejaVuSans-63" transform="scale(0.015625)"/>
       <path d="M 2059 -325 
Q 1816 -950 1584 -1140 
Q 1353 -1331 966 -1331 
L 506 -1331 
L 506 -850 
L 844 -850 
Q 1081 -850 1212 -737 
Q 1344 -625 1503 -206 
L 1606 56 
L 191 3500 
L 800 3500 
L 1894 763 
L 2988 3500 
L 3597 3500 
L 2059 -325 
z
" id="DejaVuSans-79" transform="scale(0.015625)"/>
       <path id="DejaVuSans-20" transform="scale(0.015625)"/>
       <path d="M 1984 4856 
Q 1566 4138 1362 3434 
Q 1159 2731 1159 2009 
Q 1159 1288 1364 580 
Q 1569 -128 1984 -844 
L 1484 -844 
Q 1016 -109 783 600 
Q 550 1309 550 2009 
Q 550 2706 781 3412 
Q 1013 4119 1484 4856 
L 1984 4856 
z
" id="DejaVuSans-28" transform="scale(0.015625)"/>
       <path d="M 628 4666 
L 1259 4666 
L 1259 2753 
L 3553 2753 
L 3553 4666 
L 4184 4666 
L 4184 0 
L 3553 0 
L 3553 2222 
L 1259 2222 
L 1259 0 
L 628 0 
L 628 4666 
z
" id="DejaVuSans-48" transform="scale(0.015625)"/>
       <path d="M 353 3500 
L 3084 3500 
L 3084 2975 
L 922 459 
L 3084 459 
L 3084 0 
L 275 0 
L 275 525 
L 2438 3041 
L 353 3041 
L 353 3500 
z
" id="DejaVuSans-7a" transform="scale(0.015625)"/>
       <path d="M 513 4856 
L 1013 4856 
Q 1481 4119 1714 3412 
Q 1947 2706 1947 2009 
Q 1947 1309 1714 600 
Q 1481 -109 1013 -844 
L 513 -844 
Q 928 -128 1133 580 
Q 1338 1288 1338 2009 
Q 1338 2731 1133 3434 
Q 928 4138 513 4856 
z
" id="DejaVuSans-29" transform="scale(0.015625)"/>
      </defs>
      <use xlink:href="#DejaVuSans-46"/>
      <use x="50.269531" xlink:href="#DejaVuSans-72"/>
      <use x="89.132812" xlink:href="#DejaVuSans-65"/>
      <use x="150.65625" xlink:href="#DejaVuSans-71"/>
      <use x="214.132812" xlink:href="#DejaVuSans-75"/>
      <use x="277.511719" xlink:href="#DejaVuSans-65"/>
      <use x="339.035156" xlink:href="#DejaVuSans-6e"/>
      <use x="402.414062" xlink:href="#DejaVuSans-63"/>
      <use x="457.394531" xlink:href="#DejaVuSans-79"/>
      <use x="516.574219" xlink:href="#DejaVuSans-20"/>
      <use x="548.361328" xlink:href="#DejaVuSans-28"/>
      <use x="587.375" xlink:href="#DejaVuSans-48"/>
      <use x="662.570312" xlink:href="#DejaVuSans-7a"/>
      <use x="715.060547" xlink:href="#DejaVuSans-29"/>
     </g>
    </g>
   </g>
   <g id="matplotlib.axis_2">
    <g id="ytick_1">
     <g id="line2d_39">
      <defs>
       <path d="M 0 0 
L -3.5 0 
" id="m0fdff00274" style="stroke:#000000;stroke-width:0.8;"/>
      </defs>
      <g>
       <use style="stroke:#000000;stroke-width:0.8;" x="57.6" xlink:href="#m0fdff00274" y="283.568887"/>
      </g>
     </g>
     <g id="text_6">
      <!-- −140 -->
      <g transform="translate(23.132812 287.368105)scale(0.1 -0.1)">
       <defs>
        <path d="M 678 2272 
L 4684 2272 
L 4684 1741 
L 678 1741 
L 678 2272 
z
" id="DejaVuSans-2212" transform="scale(0.015625)"/>
       </defs>
       <use xlink:href="#DejaVuSans-2212"/>
       <use x="83.789062" xlink:href="#DejaVuSans-31"/>
       <use x="147.412109" xlink:href="#DejaVuSans-34"/>
       <use x="211.035156" xlink:href="#DejaVuSans-30"/>
      </g>
     </g>
    </g>
    <g id="ytick_2">
     <g id="line2d_40">
      <g>
       <use style="stroke:#000000;stroke-width:0.8;" x="57.6" xlink:href="#m0fdff00274" y="250.711617"/>
      </g>
     </g>
     <g id="text_7">
      <!-- −120 -->
      <g transform="translate(23.132812 254.510836)scale(0.1 -0.1)">
       <use xlink:href="#DejaVuSans-2212"/>
       <use x="83.789062" xlink:href="#DejaVuSans-31"/>
       <use x="147.412109" xlink:href="#DejaVuSans-32"/>
       <use x="211.035156" xlink:href="#DejaVuSans-30"/>
      </g>
     </g>
    </g>
    <g id="ytick_3">
     <g id="line2d_41">
      <g>
       <use style="stroke:#000000;stroke-width:0.8;" x="57.6" xlink:href="#m0fdff00274" y="217.854348"/>
      </g>
     </g>
     <g id="text_8">
      <!-- −100 -->
      <g transform="translate(23.132812 221.653566)scale(0.1 -0.1)">
       <use xlink:href="#DejaVuSans-2212"/>
       <use x="83.789062" xlink:href="#DejaVuSans-31"/>
       <use x="147.412109" xlink:href="#DejaVuSans-30"/>
       <use x="211.035156" xlink:href="#DejaVuSans-30"/>
      </g>
     </g>
    </g>
    <g id="ytick_4">
     <g id="line2d_42">
      <g>
       <use style="stroke:#000000;stroke-width:0.8;" x="57.6" xlink:href="#m0fdff00274" y="184.997078"/>
      </g>
     </g>
     <g id="text_9">
      <!-- −80 -->
      <g transform="translate(29.495313 188.796297)scale(0.1 -0.1)">
       <defs>
        <path d="M 2034 2216 
Q 1584 2216 1326 1975 
Q 1069 1734 1069 1313 
Q 1069 891 1326 650 
Q 1584 409 2034 409 
Q 2484 409 2743 651 
Q 3003 894 3003 1313 
Q 3003 1734 2745 1975 
Q 2488 2216 2034 2216 
z
M 1403 2484 
Q 997 2584 770 2862 
Q 544 3141 544 3541 
Q 544 4100 942 4425 
Q 1341 4750 2034 4750 
Q 2731 4750 3128 4425 
Q 3525 4100 3525 3541 
Q 3525 3141 3298 2862 
Q 3072 2584 2669 2484 
Q 3125 2378 3379 2068 
Q 3634 1759 3634 1313 
Q 3634 634 3220 271 
Q 2806 -91 2034 -91 
Q 1263 -91 848 271 
Q 434 634 434 1313 
Q 434 1759 690 2068 
Q 947 2378 1403 2484 
z
M 1172 3481 
Q 1172 3119 1398 2916 
Q 1625 2713 2034 2713 
Q 2441 2713 2670 2916 
Q 2900 3119 2900 3481 
Q 2900 3844 2670 4047 
Q 2441 4250 2034 4250 
Q 1625 4250 1398 4047 
Q 1172 3844 1172 3481 
z
" id="DejaVuSans-38" transform="scale(0.015625)"/>
       </defs>
       <use xlink:href="#DejaVuSans-2212"/>
       <use x="83.789062" xlink:href="#DejaVuSans-38"/>
       <use x="147.412109" xlink:href="#DejaVuSans-30"/>
      </g>
     </g>
    </g>
    <g id="ytick_5">
     <g id="line2d_43">
      <g>
       <use style="stroke:#000000;stroke-width:0.8;" x="57.6" xlink:href="#m0fdff00274" y="152.139809"/>
      </g>
     </g>
     <g id="text_10">
      <!-- −60 -->
      <g transform="translate(29.495313 155.939027)scale(0.1 -0.1)">
       <defs>
        <path d="M 2113 2584 
Q 1688 2584 1439 2293 
Q 1191 2003 1191 1497 
Q 1191 994 1439 701 
Q 1688 409 2113 409 
Q 2538 409 2786 701 
Q 3034 994 3034 1497 
Q 3034 2003 2786 2293 
Q 2538 2584 2113 2584 
z
M 3366 4563 
L 3366 3988 
Q 3128 4100 2886 4159 
Q 2644 4219 2406 4219 
Q 1781 4219 1451 3797 
Q 1122 3375 1075 2522 
Q 1259 2794 1537 2939 
Q 1816 3084 2150 3084 
Q 2853 3084 3261 2657 
Q 3669 2231 3669 1497 
Q 3669 778 3244 343 
Q 2819 -91 2113 -91 
Q 1303 -91 875 529 
Q 447 1150 447 2328 
Q 447 3434 972 4092 
Q 1497 4750 2381 4750 
Q 2619 4750 2861 4703 
Q 3103 4656 3366 4563 
z
" id="DejaVuSans-36" transform="scale(0.015625)"/>
       </defs>
       <use xlink:href="#DejaVuSans-2212"/>
       <use x="83.789062" xlink:href="#DejaVuSans-36"/>
       <use x="147.412109" xlink:href="#DejaVuSans-30"/>
      </g>
     </g>
    </g>
    <g id="ytick_6">
     <g id="line2d_44">
      <g>
       <use style="stroke:#000000;stroke-width:0.8;" x="57.6" xlink:href="#m0fdff00274" y="119.282539"/>
      </g>
     </g>
     <g id="text_11">
      <!-- −40 -->
      <g transform="translate(29.495313 123.081758)scale(0.1 -0.1)">
       <use xlink:href="#DejaVuSans-2212"/>
       <use x="83.789062" xlink:href="#DejaVuSans-34"/>
       <use x="147.412109" xlink:href="#DejaVuSans-30"/>
      </g>
     </g>
    </g>
    <g id="ytick_7">
     <g id="line2d_45">
      <g>
       <use style="stroke:#000000;stroke-width:0.8;" x="57.6" xlink:href="#m0fdff00274" y="86.42527"/>
      </g>
     </g>
     <g id="text_12">
      <!-- −20 -->
      <g transform="translate(29.495313 90.224488)scale(0.1 -0.1)">
       <use xlink:href="#DejaVuSans-2212"/>
       <use x="83.789062" xlink:href="#DejaVuSans-32"/>
       <use x="147.412109" xlink:href="#DejaVuSans-30"/>
      </g>
     </g>
    </g>
    <g id="ytick_8">
     <g id="line2d_46">
      <g>
       <use style="stroke:#000000;stroke-width:0.8;" x="57.6" xlink:href="#m0fdff00274" y="53.568"/>
      </g>
     </g>
     <g id="text_13">
      <!-- 0 -->
      <g transform="translate(44.2375 57.367219)scale(0.1 -0.1)">
       <use xlink:href="#DejaVuSans-30"/>
      </g>
     </g>
    </g>
    <g id="text_14">
     <!-- Volume (dB) -->
     <g transform="translate(17.053125 205.220188)rotate(-90)scale(0.1 -0.1)">
      <defs>
       <path d="M 1831 0 
L 50 4666 
L 709 4666 
L 2188 738 
L 3669 4666 
L 4325 4666 
L 2547 0 
L 1831 0 
z
" id="DejaVuSans-56" transform="scale(0.015625)"/>
       <path d="M 1959 3097 
Q 1497 3097 1228 2736 
Q 959 2375 959 1747 
Q 959 1119 1226 758 
Q 1494 397 1959 397 
Q 2419 397 2687 759 
Q 2956 1122 2956 1747 
Q 2956 2369 2687 2733 
Q 2419 3097 1959 3097 
z
M 1959 3584 
Q 2709 3584 3137 3096 
Q 3566 2609 3566 1747 
Q 3566 888 3137 398 
Q 2709 -91 1959 -91 
Q 1206 -91 779 398 
Q 353 888 353 1747 
Q 353 2609 779 3096 
Q 1206 3584 1959 3584 
z
" id="DejaVuSans-6f" transform="scale(0.015625)"/>
       <path d="M 603 4863 
L 1178 4863 
L 1178 0 
L 603 0 
L 603 4863 
z
" id="DejaVuSans-6c" transform="scale(0.015625)"/>
       <path d="M 3328 2828 
Q 3544 3216 3844 3400 
Q 4144 3584 4550 3584 
Q 5097 3584 5394 3201 
Q 5691 2819 5691 2113 
L 5691 0 
L 5113 0 
L 5113 2094 
Q 5113 2597 4934 2840 
Q 4756 3084 4391 3084 
Q 3944 3084 3684 2787 
Q 3425 2491 3425 1978 
L 3425 0 
L 2847 0 
L 2847 2094 
Q 2847 2600 2669 2842 
Q 2491 3084 2119 3084 
Q 1678 3084 1418 2786 
Q 1159 2488 1159 1978 
L 1159 0 
L 581 0 
L 581 3500 
L 1159 3500 
L 1159 2956 
Q 1356 3278 1631 3431 
Q 1906 3584 2284 3584 
Q 2666 3584 2933 3390 
Q 3200 3197 3328 2828 
z
" id="DejaVuSans-6d" transform="scale(0.015625)"/>
       <path d="M 2906 2969 
L 2906 4863 
L 3481 4863 
L 3481 0 
L 2906 0 
L 2906 525 
Q 2725 213 2448 61 
Q 2172 -91 1784 -91 
Q 1150 -91 751 415 
Q 353 922 353 1747 
Q 353 2572 751 3078 
Q 1150 3584 1784 3584 
Q 2172 3584 2448 3432 
Q 2725 3281 2906 2969 
z
M 947 1747 
Q 947 1113 1208 752 
Q 1469 391 1925 391 
Q 2381 391 2643 752 
Q 2906 1113 2906 1747 
Q 2906 2381 2643 2742 
Q 2381 3103 1925 3103 
Q 1469 3103 1208 2742 
Q 947 2381 947 1747 
z
" id="DejaVuSans-64" transform="scale(0.015625)"/>
       <path d="M 1259 2228 
L 1259 519 
L 2272 519 
Q 2781 519 3026 730 
Q 3272 941 3272 1375 
Q 3272 1813 3026 2020 
Q 2781 2228 2272 2228 
L 1259 2228 
z
M 1259 4147 
L 1259 2741 
L 2194 2741 
Q 2656 2741 2882 2914 
Q 3109 3088 3109 3444 
Q 3109 3797 2882 3972 
Q 2656 4147 2194 4147 
L 1259 4147 
z
M 628 4666 
L 2241 4666 
Q 2963 4666 3353 4366 
Q 3744 4066 3744 3513 
Q 3744 3084 3544 2831 
Q 3344 2578 2956 2516 
Q 3422 2416 3680 2098 
Q 3938 1781 3938 1306 
Q 3938 681 3513 340 
Q 3088 0 2303 0 
L 628 0 
L 628 4666 
z
" id="DejaVuSans-42" transform="scale(0.015625)"/>
      </defs>
      <use xlink:href="#DejaVuSans-56"/>
      <use x="60.658203" xlink:href="#DejaVuSans-6f"/>
      <use x="121.839844" xlink:href="#DejaVuSans-6c"/>
      <use x="149.623047" xlink:href="#DejaVuSans-75"/>
      <use x="213.001953" xlink:href="#DejaVuSans-6d"/>
      <use x="310.414062" xlink:href="#DejaVuSans-65"/>
      <use x="371.9375" xlink:href="#DejaVuSans-20"/>
      <use x="403.724609" xlink:href="#DejaVuSans-28"/>
      <use x="442.738281" xlink:href="#DejaVuSans-64"/>
      <use x="506.214844" xlink:href="#DejaVuSans-42"/>
      <use x="574.818359" xlink:href="#DejaVuSans-29"/>
     </g>
    </g>
   </g>
   <g id="line2d_47">
    <path clip-path="url(#p869fe71b35)" d="M -1 133.671675 
L 73.832727 133.678782 
L 97.529754 112.893033 
L 111.391626 109.390642 
L 121.22678 129.072183 
L 128.855519 119.258191 
L 135.088652 130.638594 
L 140.358691 114.600096 
L 144.923807 117.005307 
L 148.950524 125.699058 
L 152.552545 126.339185 
L 155.81097 133.876067 
L 158.785678 117.130203 
L 161.522145 119.600547 
L 164.055718 122.057956 
L 166.414417 151.171134 
L 168.620833 114.335274 
L 170.693442 113.120964 
L 172.64755 138.04014 
L 174.495978 124.291527 
L 176.249572 129.550426 
L 177.917589 129.708062 
L 179.507996 137.737601 
L 181.027695 142.880147 
L 182.482705 131.579404 
L 183.87831 136.932279 
L 185.219172 131.888937 
L 186.509422 139.772057 
L 187.752744 120.918552 
L 188.952431 116.171881 
L 190.111443 113.614998 
L 191.232448 118.371373 
L 192.317859 128.70246 
L 193.369868 130.314129 
L 196.344577 112.25036 
L 197.281281 122.885174 
L 198.193004 112.434687 
L 199.081043 110.592633 
L 199.946598 110.064857 
L 200.790779 113.056203 
L 201.614616 143.59825 
L 202.419067 97.701751 
L 203.973315 114.260315 
L 204.724721 111.550837 
L 205.459966 113.16977 
L 206.179731 116.040252 
L 206.884655 111.627125 
L 207.575337 117.308885 
L 208.252341 107.180484 
L 208.916198 105.704873 
L 209.56741 105.005532 
L 210.206449 115.474879 
L 210.833761 100.645855 
L 211.44977 130.841069 
L 212.054876 99.215546 
L 212.649458 107.867392 
L 213.233875 93.933585 
L 213.80847 94.19286 
L 214.373567 94.043976 
L 214.929475 88.497534 
L 215.476488 85.798015 
L 216.014886 71.988698 
L 216.544937 69.909925 
L 217.066895 59.117138 
L 217.581003 55.052947 
L 218.087495 61.407021 
L 218.586593 75.745979 
L 219.078509 70.473441 
L 219.563447 75.548402 
L 220.041603 82.929925 
L 220.513163 77.03201 
L 220.978308 85.721734 
L 221.437208 78.481014 
L 221.890031 86.411357 
L 222.336934 81.68243 
L 222.77807 84.543066 
L 223.213586 85.732392 
L 223.643624 85.587908 
L 224.06832 100.407946 
L 224.487805 96.860092 
L 224.902205 98.704216 
L 225.311642 111.418026 
L 225.716234 105.302743 
L 226.116093 133.33511 
L 226.51133 105.143361 
L 226.902049 111.035964 
L 227.288354 106.254595 
L 227.670342 103.432142 
L 228.048109 118.253552 
L 228.421747 104.961622 
L 229.156993 110.939058 
L 229.518769 110.994541 
L 229.876758 109.740735 
L 230.231036 109.55339 
L 230.928766 101.506647 
L 231.272363 104.174666 
L 231.612541 100.604005 
L 231.949367 105.826738 
L 232.282907 106.682751 
L 232.613224 104.399413 
L 232.940381 107.49867 
L 233.264436 100.623877 
L 233.585449 102.867494 
L 233.903475 101.403281 
L 234.21857 96.376076 
L 234.530788 94.396694 
L 234.84018 105.440904 
L 235.146797 90.892913 
L 235.450688 100.126704 
L 235.751903 95.746964 
L 236.346484 104.668954 
L 236.639942 99.905016 
L 236.930902 97.967942 
L 237.219406 90.688388 
L 237.505496 102.375109 
L 237.789212 95.939992 
L 238.070593 96.0969 
L 238.349677 93.633927 
L 238.626501 105.454941 
L 238.901102 105.195822 
L 239.173514 120.807395 
L 239.443773 88.764698 
L 239.711912 82.916056 
L 239.977965 81.166874 
L 240.241963 70.428842 
L 240.503938 67.126412 
L 240.763921 69.657514 
L 241.021942 66.097013 
L 241.27803 59.69148 
L 241.532214 58.325952 
L 242.283619 64.692211 
L 242.775535 73.758444 
L 243.018864 74.468514 
L 243.500388 83.700379 
L 243.73863 84.870337 
L 243.975223 89.659459 
L 244.21019 92.137466 
L 244.443553 90.077885 
L 244.675334 100.468139 
L 244.905555 94.437573 
L 245.134235 93.953887 
L 245.361396 104.020868 
L 245.587057 100.412425 
L 245.811239 98.960951 
L 246.03396 108.96756 
L 246.25524 109.734047 
L 246.475096 107.493801 
L 246.693548 114.602981 
L 246.910613 110.265943 
L 247.126308 117.358551 
L 247.340651 114.137872 
L 247.553658 112.92206 
L 247.765347 124.127576 
L 247.975733 116.354396 
L 248.184832 116.911772 
L 248.39266 139.299446 
L 248.599232 120.15403 
L 248.804563 150.245362 
L 249.008669 119.631491 
L 249.211563 128.448171 
L 249.613774 108.22378 
L 249.813119 109.097822 
L 250.011309 129.287772 
L 250.208356 116.578404 
L 250.404274 112.434674 
L 250.599076 134.68412 
L 250.792773 108.360406 
L 250.98538 111.99512 
L 251.176908 112.260034 
L 251.367368 111.174779 
L 251.745135 101.917621 
L 251.932465 105.314699 
L 252.118774 96.694905 
L 252.304073 97.182309 
L 252.488373 113.237171 
L 252.671685 97.463505 
L 252.854019 97.364549 
L 253.035386 118.441074 
L 253.215796 91.575375 
L 253.395259 97.401295 
L 253.751382 79.441272 
L 253.928063 80.376919 
L 254.278708 69.140972 
L 254.625793 72.323596 
L 254.798023 69.536914 
L 254.969389 71.617224 
L 255.139901 69.556114 
L 255.478395 59.36131 
L 255.646393 59.357839 
L 256.47422 81.246113 
L 256.799819 77.040826 
L 256.961463 80.733853 
L 257.122346 88.187186 
L 257.282475 85.656452 
L 257.441858 86.356196 
L 257.600501 88.833348 
L 257.758412 84.978395 
L 257.915597 87.223914 
L 258.072062 93.13456 
L 258.227814 88.226764 
L 258.38286 89.773429 
L 258.843823 107.985457 
L 259.147715 102.197259 
L 259.298654 107.859397 
L 259.598547 103.260745 
L 259.747512 118.33148 
L 259.895832 110.061679 
L 260.043511 118.618316 
L 260.190554 101.854142 
L 260.336968 100.370286 
L 260.482758 117.055021 
L 260.627928 102.708824 
L 260.772485 108.724543 
L 260.916433 104.745977 
L 261.059777 94.827389 
L 261.344675 103.372847 
L 261.486239 100.872456 
L 261.627219 112.515208 
L 261.76762 101.344918 
L 261.907446 99.524493 
L 262.046703 100.677764 
L 262.185396 111.517279 
L 262.461103 91.785372 
L 262.598128 105.666285 
L 262.870541 86.691746 
L 263.005937 96.058295 
L 263.140799 83.331869 
L 263.275132 86.445638 
L 263.408939 82.630474 
L 263.542224 71.370025 
L 263.807245 69.150002 
L 264.070228 61.31159 
L 264.200965 60.761826 
L 264.331203 60.778369 
L 264.460947 61.599278 
L 264.847252 67.024149 
L 264.975056 67.829941 
L 265.102384 67.644715 
L 265.607007 53.568 
L 265.732008 56.679774 
L 265.980646 76.491211 
L 266.227489 65.272978 
L 266.350245 65.825575 
L 266.472562 72.387612 
L 266.594443 87.217793 
L 266.715891 86.322636 
L 267.077668 75.900095 
L 267.197414 83.010319 
L 267.435656 80.900649 
L 267.554157 88.200333 
L 267.789935 110.886567 
L 268.024097 91.144773 
L 268.14058 95.392106 
L 268.256667 95.444335 
L 268.372361 94.382044 
L 268.717112 124.976201 
L 268.831261 106.111677 
L 268.94503 108.994235 
L 269.171439 95.963966 
L 269.284084 101.652065 
L 269.396358 93.211034 
L 269.508265 93.534047 
L 269.619807 108.506161 
L 269.730986 101.828072 
L 269.841805 104.165359 
L 269.952266 121.510019 
L 270.062371 112.816838 
L 270.172123 118.195164 
L 270.281523 155.302361 
L 270.499279 103.422984 
L 270.715657 102.014061 
L 270.823334 94.428892 
L 270.930674 95.741082 
L 271.037677 116.656033 
L 271.777468 73.724709 
L 272.089686 72.138186 
L 272.296258 79.183812 
L 272.50159 85.937594 
L 272.807293 81.643937 
L 272.908589 84.059468 
L 273.110287 95.266011 
L 273.310801 82.883929 
L 273.410619 82.55475 
L 273.510146 83.677789 
L 273.609384 86.918046 
L 273.807001 101.852407 
L 273.905382 93.221126 
L 274.003482 96.438823 
L 274.19884 114.159136 
L 274.4898 104.460311 
L 274.586239 109.437404 
L 274.682406 122.486997 
L 274.778304 106.22779 
L 274.873934 106.381212 
L 275.064395 118.307665 
L 275.2538 134.445839 
L 275.348111 123.175135 
L 275.442162 144.90354 
L 275.629491 125.458972 
L 275.722773 130.89647 
L 275.908575 118.496153 
L 276.001099 119.34979 
L 276.185399 110.795715 
L 276.277178 112.753458 
L 276.368711 125.281473 
L 276.46 123.251342 
L 276.551045 117.294917 
L 276.732412 126.069544 
L 276.822736 121.112798 
L 276.912822 123.673863 
L 277.002671 131.499572 
L 277.181664 116.091609 
L 277.270811 117.173043 
L 277.536863 128.212334 
L 277.800861 94.918219 
L 278.149717 79.508588 
L 278.236378 77.57126 
L 278.322819 78.921061 
L 278.58084 86.161179 
L 278.751778 81.999296 
L 278.921866 79.387915 
L 279.091112 82.354685 
L 279.175422 81.769994 
L 279.259524 82.081957 
L 279.67696 94.776876 
L 279.759839 93.77366 
L 279.842518 94.960728 
L 280.007277 113.701391 
L 280.08936 106.69234 
L 280.171247 111.766957 
L 280.252938 107.696141 
L 280.334434 110.966752 
L 280.415736 128.972123 
L 280.577763 108.739194 
L 280.819372 129.293263 
L 280.979502 162.018854 
L 281.138885 127.770518 
L 281.218298 125.722614 
L 281.297528 120.465026 
L 281.376574 124.540104 
L 281.455438 172.589845 
L 281.612623 121.521278 
L 281.690945 122.035913 
L 281.847053 131.746988 
L 282.002451 119.960649 
L 282.079887 128.911583 
L 282.157147 127.214878 
L 282.234233 124.171646 
L 282.311145 133.36335 
L 282.387885 127.070487 
L 282.464453 128.628037 
L 282.54085 131.555155 
L 282.844741 115.31786 
L 282.920294 130.258044 
L 283.145955 102.203476 
L 283.220846 113.790025 
L 283.444539 89.807669 
L 283.518779 92.217894 
L 283.592858 107.911136 
L 283.740537 91.665629 
L 283.887581 96.458082 
L 283.960866 94.342032 
L 284.033995 99.877182 
L 284.106967 124.345713 
L 284.252446 87.980884 
L 284.469511 82.23856 
L 284.541561 82.6967 
L 284.685206 86.99341 
L 284.899549 106.306873 
L 285.112557 93.396027 
L 285.324245 109.676678 
L 285.464646 101.020426 
L 285.534631 103.336122 
L 285.674172 114.704501 
L 285.74373 139.722037 
L 285.813146 117.357513 
L 285.882422 120.819788 
L 285.951558 122.428603 
L 286.020554 116.794263 
L 286.089411 119.922456 
L 286.226711 139.08685 
L 286.363461 119.587054 
L 286.431632 122.448197 
L 286.635332 113.339061 
L 287.039127 138.230786 
L 287.23925 104.177977 
L 287.305698 109.20655 
L 287.372018 125.983667 
L 287.438209 122.863381 
L 287.504272 125.009167 
L 287.701698 95.055949 
L 287.767254 96.242415 
L 287.832685 102.709449 
L 287.963172 88.308555 
L 288.02823 89.208254 
L 288.093163 96.487369 
L 288.157974 95.993651 
L 288.287228 88.94465 
L 288.480197 110.518614 
L 288.672082 85.745725 
L 288.862897 102.160102 
L 288.926266 94.463014 
L 289.052653 87.630085 
L 289.178574 92.014857 
L 289.304034 98.754553 
L 289.491363 87.044135 
L 289.677672 94.874467 
L 289.73955 92.623421 
L 289.801316 92.554067 
L 289.924515 97.57137 
L 289.985948 95.866168 
L 290.108484 91.794522 
L 290.291469 100.549403 
L 290.352247 97.286529 
L 290.412917 95.793929 
L 290.47348 97.059411 
L 290.654527 111.752164 
L 290.714663 110.704454 
L 290.83462 103.330001 
L 290.954157 108.31131 
L 291.013769 113.56513 
L 291.191984 100.302989 
L 291.428169 108.990771 
L 291.545652 98.69779 
L 291.604243 102.061288 
L 291.662733 116.810959 
L 291.721124 111.80632 
L 291.779414 112.772283 
L 291.953693 92.46136 
L 292.011589 94.434934 
L 292.069387 97.854439 
L 292.127088 96.689962 
L 292.184691 94.963774 
L 292.242198 95.358564 
L 292.356921 103.730771 
L 292.528288 88.881788 
L 292.642057 95.87685 
L 292.755449 89.751894 
L 292.868466 96.574873 
L 292.924834 100.182493 
L 292.98111 97.286474 
L 293.093385 94.362783 
L 293.261108 108.174827 
L 293.372468 95.758141 
L 293.428013 97.048566 
L 293.538832 111.698756 
L 293.594107 103.109756 
L 293.649293 103.462187 
L 293.759398 121.347739 
L 293.814317 116.559212 
L 293.978549 103.539189 
L 294.033119 108.332514 
L 294.087601 107.08155 
L 294.196306 99.729493 
L 294.358717 105.564808 
L 294.466565 105.057479 
L 294.574073 113.265266 
L 294.681244 107.195804 
L 294.734704 109.606007 
L 294.78808 123.581662 
L 294.841373 120.453033 
L 294.947711 109.483524 
L 295.000756 110.669509 
L 295.053719 116.33602 
L 295.1066 115.523793 
L 295.212118 110.120064 
L 295.42218 129.576153 
L 295.734874 93.185889 
L 295.786712 94.304923 
L 295.838473 95.412607 
L 295.890154 94.522644 
L 295.941758 94.497372 
L 296.044733 98.705034 
L 296.096104 97.737786 
L 296.147399 97.138453 
L 296.300821 110.09751 
L 296.504319 136.030922 
L 296.555005 132.587191 
L 296.656152 119.74105 
L 296.706613 124.377203 
L 296.757 127.347521 
L 296.807313 123.232026 
L 296.857552 124.230874 
L 296.957809 134.464132 
L 297.057773 117.820416 
L 297.107645 122.817727 
L 297.157445 138.411401 
L 297.207172 126.812177 
L 297.256828 116.352303 
L 297.306411 117.671992 
L 297.45473 130.530817 
L 297.553254 115.932192 
L 297.602409 118.10921 
L 297.700508 110.203746 
L 297.749453 113.883303 
L 297.798327 118.158984 
L 297.847131 113.217235 
L 297.895866 109.306996 
L 297.944532 112.598692 
L 298.041656 112.575408 
L 298.138505 117.103631 
L 298.186826 114.824795 
L 298.283265 128.094779 
L 298.331383 121.22866 
L 298.379433 122.387249 
L 298.427415 132.152243 
L 298.475331 130.438439 
L 298.761421 105.3246 
L 298.808871 104.853775 
L 298.950826 122.517629 
L 298.998014 112.548653 
L 299.186117 95.892808 
L 299.559246 121.188013 
L 299.605602 128.48585 
L 299.836444 95.781225 
L 299.928346 99.833483 
L 299.974205 95.875182 
L 300.020002 97.239065 
L 300.202579 121.29279 
L 300.248072 108.92575 
L 300.293504 109.078277 
L 300.384187 120.14803 
L 300.429439 107.502198 
L 300.474631 110.634731 
L 300.519763 126.834118 
L 300.564835 106.359646 
L 300.654803 125.272901 
L 300.699698 105.89656 
L 300.744534 108.27227 
L 300.789311 125.269913 
L 300.83403 106.097197 
L 300.878691 108.308579 
L 300.923293 123.289827 
L 300.967837 113.202326 
L 301.012323 114.066022 
L 301.056751 119.296539 
L 301.101122 118.365037 
L 301.189691 108.14508 
L 301.23389 112.174434 
L 301.454029 95.35285 
L 301.54169 98.775097 
L 301.585436 95.530054 
L 301.629126 98.788335 
L 301.672761 102.375575 
L 301.716339 97.481274 
L 301.890101 88.165681 
L 301.933404 92.2586 
L 301.976652 91.980385 
L 302.019846 93.438252 
L 302.192076 123.482001 
L 302.234998 111.606691 
L 302.320681 117.200701 
L 302.363442 111.74196 
L 302.40615 119.58457 
L 302.448805 132.687294 
L 302.491406 118.986523 
L 302.533954 130.102528 
L 302.618892 116.310888 
L 302.661283 123.126723 
L 302.70362 124.783394 
L 302.788138 127.565403 
L 302.872448 108.817704 
L 302.95655 127.819763 
L 302.998524 109.890307 
L 303.040446 114.05389 
L 303.124137 112.143369 
L 303.165905 132.666062 
L 303.24929 113.349113 
L 303.290906 125.154406 
L 303.332471 112.872582 
L 303.415451 118.696234 
L 303.456865 110.951345 
L 303.49823 142.143764 
L 303.539544 114.984017 
L 303.580808 112.655176 
L 303.622023 131.34428 
L 303.663188 120.922735 
L 303.704304 117.145408 
L 303.74537 121.651256 
L 303.786387 133.73516 
L 303.827355 118.085295 
L 303.868273 118.848549 
L 303.909143 130.957183 
L 303.949964 114.453734 
L 303.990736 111.389707 
L 304.03146 121.868642 
L 304.072135 116.184913 
L 304.193872 107.124472 
L 304.234354 108.679632 
L 304.274789 114.195271 
L 304.315176 110.173479 
L 304.596557 100.249283 
L 304.756312 107.535996 
L 304.875641 124.401064 
L 305.0341 112.125162 
L 305.113056 141.463431 
L 305.152465 120.818491 
L 305.191829 122.99889 
L 305.231148 121.883132 
L 305.270421 109.525178 
L 305.309649 113.71873 
L 305.348833 134.844481 
L 305.427065 121.43464 
L 305.582995 132.653985 
L 305.621867 124.653639 
L 305.660694 128.344926 
L 305.776913 135.020902 
L 305.854173 128.410579 
L 305.892738 151.018584 
L 305.931259 124.971997 
L 305.969737 129.794074 
L 306.008171 124.605608 
L 306.046563 117.564033 
L 306.084911 138.801468 
L 306.123217 115.926228 
L 306.161479 110.797032 
L 306.199699 138.137686 
L 306.237876 112.08611 
L 306.276011 106.557847 
L 306.352152 121.124222 
L 306.39016 106.263916 
L 306.428125 107.965991 
L 306.466048 129.665085 
L 306.503929 111.85952 
L 306.541768 109.187545 
L 306.579565 133.780801 
L 306.61732 115.284224 
L 306.692707 117.674866 
L 306.767927 101.56735 
L 306.805475 108.143869 
L 306.842982 101.337711 
L 306.9926 94.584693 
L 307.141565 101.481176 
L 307.215805 97.866798 
L 307.437564 152.576353 
L 307.584607 101.766985 
L 307.767527 124.28073 
L 307.803993 114.035118 
L 307.87681 123.464662 
L 307.913161 120.202478 
L 307.949473 141.064619 
L 308.021981 122.809282 
L 308.058177 136.230091 
L 308.094336 127.321649 
L 308.130456 119.814869 
L 308.166537 138.917915 
L 308.238587 138.17181 
L 308.274555 117.314223 
L 308.382233 117.466641 
L 308.41805 128.795245 
L 308.45383 110.852598 
L 308.489572 119.756178 
L 308.632169 104.617844 
L 308.703245 109.956196 
L 308.738728 101.343983 
L 308.774174 101.897515 
L 308.844956 100.604676 
L 308.915591 117.758052 
L 308.950854 103.989787 
L 308.986081 104.87905 
L 309.021272 125.465987 
L 309.091544 105.094907 
L 309.126626 114.270743 
L 309.161672 101.591039 
L 309.371199 87.313144 
L 309.405995 86.669368 
L 309.440756 89.355763 
L 309.475482 86.31662 
L 309.510173 85.967105 
L 309.6831 114.039098 
L 309.752026 110.702886 
L 309.786438 110.931648 
L 309.820814 117.817443 
L 309.855156 105.43862 
L 309.923737 112.70549 
L 309.957976 102.246789 
L 310.060488 104.359677 
L 310.09459 110.215092 
L 310.128658 106.619401 
L 310.162693 102.180474 
L 310.196693 109.134597 
L 310.23066 105.029814 
L 310.366191 113.601857 
L 310.501187 131.413306 
L 310.534852 114.826459 
L 310.568485 134.887139 
L 310.602085 115.372448 
L 310.669185 133.164939 
L 310.769589 127.144327 
L 310.936277 102.392484 
L 310.969517 107.896736 
L 311.002725 105.495992 
L 311.035901 99.985795 
L 311.069044 110.069357 
L 311.135235 105.268765 
L 311.168283 132.38435 
L 311.234282 114.018057 
L 311.267234 117.248585 
L 311.365899 119.408532 
L 311.398725 102.526999 
L 311.529712 91.221342 
L 311.56238 93.028446 
L 311.627624 90.653982 
L 311.855 118.913942 
L 311.951986 105.270889 
L 311.919688 128.602623 
L 311.984254 107.887203 
L 312.016491 133.265244 
L 312.048698 107.352891 
L 312.080875 107.694479 
L 312.113021 118.014318 
L 312.145137 98.996609 
L 312.305267 115.53509 
L 312.337203 113.572362 
L 312.369109 150.636112 
L 312.432832 125.725865 
L 312.496437 118.485637 
L 312.528195 129.064976 
L 312.559924 110.078973 
L 312.591623 111.09475 
L 312.623293 128.91903 
L 312.686545 113.924321 
L 312.718127 116.188755 
L 312.74968 147.290258 
L 312.812698 113.802668 
L 312.844164 120.604028 
L 312.875601 153.809263 
L 312.938388 106.428466 
L 312.969738 127.008089 
L 313.032353 116.711924 
L 313.157239 104.639996 
L 313.126061 117.017516 
L 313.18839 108.306545 
L 313.219512 129.705666 
L 313.281671 107.001315 
L 313.343718 131.818172 
L 313.374699 106.918275 
L 313.405652 102.197652 
L 313.436577 112.151568 
L 313.467474 124.621058 
L 313.529184 106.967991 
L 313.590783 110.866185 
L 313.71365 102.685809 
L 313.744298 103.225306 
L 313.92761 128.563229 
L 313.958066 111.974978 
L 314.018898 128.866256 
L 314.049274 116.827616 
L 314.079622 125.301084 
L 314.109944 115.418123 
L 314.170506 119.329672 
L 314.230962 105.926206 
L 314.321445 126.103308 
L 314.351553 113.17836 
L 314.381635 112.766341 
L 314.41169 134.474407 
L 314.47172 112.265111 
L 314.501696 113.206896 
L 314.531646 129.357971 
L 314.591467 108.93122 
L 314.651183 132.771423 
L 314.770304 131.910606 
L 314.829709 109.156086 
L 314.889011 123.455413 
L 314.94821 111.069338 
L 315.007307 119.135453 
L 315.036817 112.868719 
L 315.066302 127.891309 
L 315.125195 139.608983 
L 315.154604 116.760136 
L 315.242679 123.003319 
L 315.301269 111.038034 
L 315.330527 123.420358 
L 315.388967 111.29682 
L 315.41815 115.177014 
L 315.447308 135.164774 
L 315.534632 129.452869 
L 315.708615 108.763912 
L 315.737527 110.70317 
L 315.766414 152.46647 
L 315.824114 111.278731 
L 315.996634 124.964549 
L 316.025303 116.196583 
L 316.111165 116.506377 
L 316.139738 129.273917 
L 316.225314 123.646806 
L 316.282246 130.805628 
L 316.367467 115.380773 
L 316.395826 127.2802 
L 316.452475 107.447443 
L 316.50903 119.208001 
L 316.565492 109.673078 
L 316.621861 121.750876 
L 316.65001 154.561407 
L 316.70624 116.591752 
L 316.73432 115.582327 
L 316.762377 140.96427 
L 316.818422 109.709682 
L 316.84641 117.03782 
L 316.902318 126.07382 
L 316.958135 107.48894 
L 317.01386 121.867851 
L 317.069495 111.181137 
L 317.152778 113.25511 
L 317.208187 130.24631 
L 317.263507 117.076435 
L 317.318737 123.570963 
L 317.373878 111.907689 
L 317.428931 143.731588 
L 317.456424 113.916821 
L 317.483895 111.008776 
L 317.511344 113.728789 
L 317.538771 120.775478 
L 317.593558 107.219359 
L 317.62092 109.842855 
L 317.648259 131.728216 
L 317.702871 108.078189 
L 317.730145 107.561267 
L 317.866188 125.668501 
L 317.947555 113.067014 
L 318.055744 115.535478 
L 318.082737 123.27525 
L 318.136661 112.438377 
L 318.163591 111.931882 
L 318.217387 121.701057 
L 318.244254 117.560499 
L 318.271099 110.66418 
L 318.324727 115.371736 
L 318.405011 112.665922 
L 318.43173 122.417452 
L 318.458429 115.605153 
L 318.511764 117.805748 
L 318.644738 137.020841 
L 318.697783 119.568867 
L 318.724275 143.323082 
L 318.803627 119.942016 
L 318.856426 136.022247 
L 318.909144 117.393575 
L 318.961781 122.375963 
L 318.988069 121.808825 
L 319.014337 114.810571 
L 319.066812 120.686767 
L 319.093019 128.575877 
L 319.145374 115.885681 
L 319.197649 128.208526 
L 319.223756 115.078447 
L 319.301959 115.190056 
L 319.327986 120.727378 
L 319.379983 108.490109 
L 319.638785 131.282123 
L 319.664558 130.25557 
L 319.818788 108.343927 
L 319.74176 135.646346 
L 319.844425 115.42156 
L 319.870043 132.943902 
L 319.946783 110.324837 
L 319.997848 137.744433 
L 320.125176 130.532221 
L 320.175975 141.832207 
L 320.201346 128.412241 
L 320.226698 127.951867 
L 320.428842 109.003809 
L 320.604744 118.435427 
L 320.679854 105.011012 
L 320.729836 109.2442 
L 320.829581 131.117811 
L 320.854471 128.022121 
L 321.003437 106.49317 
L 321.028202 107.102504 
L 321.077677 122.019712 
L 321.151757 112.414783 
L 321.176414 110.704145 
L 321.225676 112.701297 
L 321.25028 113.460109 
L 321.274867 122.116655 
L 321.34852 108.94998 
L 321.397535 120.54076 
L 321.422016 150.06816 
L 321.470925 109.348914 
L 321.495353 109.358808 
L 321.568534 107.464636 
L 321.641558 130.601877 
L 321.690155 105.715112 
L 321.738682 116.476936 
L 321.76292 122.632318 
L 321.811345 107.405739 
L 321.8597 115.386186 
L 321.956207 113.608464 
L 322.004359 110.327138 
L 322.028409 114.814475 
L 322.100459 123.87476 
L 322.124442 116.134744 
L 322.172357 112.65265 
L 322.19629 114.538749 
L 322.220206 117.835789 
L 322.267987 109.139701 
L 322.291853 104.95523 
L 322.36335 110.724495 
L 322.410932 136.68228 
L 322.458447 114.098398 
L 322.553281 103.138207 
L 322.576949 105.763068 
L 322.647853 142.172415 
L 322.695041 114.395321 
L 322.71861 112.912778 
L 322.742163 115.537622 
L 322.836215 122.037061 
L 322.789221 114.378042 
L 322.859687 117.081334 
L 322.906584 109.3057 
L 322.953416 114.698519 
L 322.976808 118.878433 
L 323.023544 113.731417 
L 323.070217 117.435173 
L 323.116826 120.642542 
L 323.140106 114.554386 
L 323.18662 111.077877 
L 323.233071 137.770244 
L 323.279458 115.466519 
L 323.302628 113.542184 
L 323.325783 116.235155 
L 323.348921 128.300895 
L 323.418244 108.916581 
L 323.487426 141.661667 
L 323.556469 121.104594 
L 323.60242 120.396728 
L 323.671231 144.425634 
L 323.694137 129.654325 
L 323.717028 120.615003 
L 323.762764 126.618392 
L 323.808439 144.454674 
L 323.854053 121.379059 
L 323.876837 118.864921 
L 323.92236 125.181875 
L 323.945098 121.670199 
L 324.081214 145.709918 
L 324.103847 137.635876 
L 324.126465 125.113681 
L 324.194231 139.569533 
L 324.216789 163.048944 
L 324.261862 126.823757 
L 324.284376 133.26819 
L 324.351829 120.132174 
L 324.374284 131.95695 
L 324.396724 134.019895 
L 324.41915 129.337465 
L 324.44156 130.962164 
L 324.463956 123.741545 
L 324.508705 135.988406 
L 324.531057 131.759428 
L 324.598026 137.861965 
L 324.575717 128.79409 
L 324.620319 131.215711 
L 324.642599 131.228924 
L 324.664863 131.041688 
L 324.70935 152.608394 
L 324.753778 135.230649 
L 324.820312 124.210701 
L 324.842462 137.809142 
L 324.864597 142.958277 
L 324.886717 127.100746 
L 324.908824 127.843285 
L 324.930916 128.544523 
L 324.975058 167.502055 
L 325.06317 151.739877 
L 325.107141 156.758719 
L 325.172992 135.844348 
L 325.216822 158.862919 
L 325.238716 134.593659 
L 325.282462 139.487882 
L 325.326153 135.635524 
L 325.369787 152.57056 
L 325.435134 129.757635 
L 325.500357 129.923298 
L 325.522071 128.67209 
L 325.565456 171.756801 
L 325.630431 134.757755 
L 325.78156 146.434588 
L 325.803096 143.875146 
L 325.824617 132.118597 
L 325.889102 141.340285 
L 325.91057 154.091376 
L 325.953465 133.876356 
L 325.996307 144.856986 
L 326.017708 144.548125 
L 326.081829 153.285084 
L 326.060469 141.17297 
L 326.103177 152.426307 
L 326.145831 137.529157 
L 326.230981 141.058256 
L 326.315919 142.570976 
L 326.358309 131.986793 
L 326.485165 160.382067 
L 326.506262 158.712156 
L 326.548417 159.571846 
L 326.590519 149.390825 
L 326.611551 182.415609 
L 326.632571 141.854213 
L 326.695551 161.330734 
L 326.716518 144.534223 
L 326.821163 146.651682 
L 326.90465 159.447861 
L 326.862932 146.326376 
L 326.925489 157.500709 
L 326.946316 143.10233 
L 327.008721 158.869046 
L 327.050262 145.527611 
L 327.071013 145.379825 
L 327.091751 151.169621 
L 327.133191 135.062257 
L 327.153892 143.042995 
L 327.195256 138.99639 
L 327.215919 163.460429 
L 327.277835 131.042183 
L 327.360215 125.883485 
L 327.31905 142.758421 
L 327.380779 128.055465 
L 327.524381 149.390509 
L 327.606169 162.462559 
L 327.64699 138.996362 
L 327.667383 145.662458 
L 327.728487 129.414379 
L 327.769162 141.091284 
L 327.789481 129.919072 
L 327.809789 123.598934 
L 327.850368 136.92444 
L 327.870639 129.182999 
L 327.890898 166.417354 
L 327.971816 129.102222 
L 328.032378 149.82426 
L 328.092834 133.494409 
L 328.112962 123.847479 
L 328.213425 128.581596 
L 328.233482 147.90396 
L 328.273561 118.317385 
L 328.293583 119.051284 
L 328.313594 117.122749 
L 328.333592 118.199428 
L 328.353579 141.912549 
L 328.41347 102.477894 
L 328.43341 105.210592 
L 328.453339 122.499116 
L 328.532937 118.323104 
L 328.552808 111.214689 
L 328.612351 124.241956 
L 328.632176 117.121808 
L 328.651989 115.681853 
L 328.691581 125.378906 
L 328.711359 112.952704 
L 328.770627 123.587411 
L 328.810082 115.030268 
L 328.829792 122.31524 
L 328.849491 143.093885 
L 328.928174 124.394408 
L 328.967447 110.195541 
L 329.065434 112.463694 
L 329.104551 133.695559 
L 329.163141 117.071662 
L 329.241106 108.657203 
L 329.221631 130.955047 
L 329.260569 113.149548 
L 329.280022 125.067673 
L 329.299463 112.189187 
L 329.377118 124.056565 
L 329.41588 113.800258 
L 329.435244 119.077103 
L 329.454597 132.991062 
L 329.512591 116.028873 
L 329.531901 117.029497 
L 329.5512 116.225133 
L 329.570487 107.692296 
L 329.60903 125.007536 
L 329.64753 116.727774 
L 329.666763 123.398473 
L 329.705198 103.316318 
L 329.724399 103.175421 
L 329.896725 126.265652 
L 329.915819 122.436641 
L 329.953975 109.681183 
L 330.030159 111.246063 
L 330.144118 130.217789 
L 330.200955 124.406198 
L 330.333209 104.778244 
L 330.352061 106.035196 
L 330.446164 105.196796 
L 330.502501 135.82239 
L 330.614899 113.167651 
L 330.633596 113.540272 
L 330.689626 123.157631 
L 330.708282 138.079997 
L 330.782806 113.82887 
L 330.857167 152.54572 
L 330.875732 122.509171 
L 330.912832 107.887564 
L 331.005406 109.701653 
L 331.09773 125.769419 
L 331.153005 143.533596 
L 331.208191 136.041799 
L 331.226566 127.749944 
L 331.263288 135.287082 
L 331.281634 155.55777 
L 331.336612 114.742886 
L 331.354919 115.698093 
L 331.373216 116.711567 
L 331.40978 115.553718 
L 331.428047 112.658742 
L 331.464553 117.972755 
L 331.519239 112.909833 
L 331.555647 123.00435 
L 331.610187 110.240362 
L 331.628348 111.602055 
L 331.664641 127.090221 
L 331.73711 117.348901 
L 331.773288 119.885112 
L 331.827482 120.725973 
L 331.917615 112.215837 
L 332.043404 126.376293 
L 332.061336 144.143455 
L 332.132971 117.765528 
L 332.150856 117.698139 
L 332.186599 138.27064 
L 332.275791 125.260189 
L 332.293602 122.80503 
L 332.311403 131.237802 
L 332.364752 124.83008 
L 332.435754 139.63014 
L 332.453482 122.641627 
L 332.4712 125.713879 
L 332.488909 123.246777 
L 332.506609 137.383554 
L 332.559655 120.576675 
L 332.594972 130.220249 
L 332.612618 124.345274 
L 332.665499 137.995937 
L 332.683107 138.921989 
L 332.788571 120.705171 
L 332.893709 153.078418 
L 332.84118 117.865568 
L 332.911201 134.57908 
L 332.928684 118.415365 
L 333.015964 120.269114 
L 333.050814 129.595491 
L 333.120407 119.86762 
L 333.137783 119.405279 
L 333.172509 132.251896 
L 333.207199 118.647329 
L 333.259169 128.98427 
L 333.293772 118.201543 
L 333.32834 132.637079 
L 333.362873 126.222588 
L 333.380126 141.748528 
L 333.431834 113.28625 
L 333.466263 121.362193 
L 333.517841 117.087324 
L 333.620764 135.570977 
L 333.74045 120.035206 
L 333.689207 142.329619 
L 333.757514 125.403611 
L 333.842706 147.96857 
L 333.825685 123.704973 
L 333.859719 140.16106 
L 333.89372 119.73841 
L 333.978574 123.390738 
L 334.063217 149.720667 
L 334.113903 140.20899 
L 334.198213 120.069406 
L 334.231879 131.260221 
L 334.248699 145.821127 
L 334.282315 117.699292 
L 334.332678 130.303667 
L 334.399712 132.340055 
L 334.449902 113.012557 
L 334.483321 158.535795 
L 334.550061 119.856416 
L 334.616671 120.807708 
L 334.666543 109.855976 
L 334.815726 140.346119 
L 334.848789 126.998602 
L 334.947788 117.944717 
L 334.898325 132.5849 
L 334.96426 122.549957 
L 334.980724 139.169274 
L 335.030069 113.996296 
L 335.062926 123.848465 
L 335.079342 123.864885 
L 335.112152 120.683527 
L 335.128545 125.824923 
L 335.226738 146.027356 
L 335.259407 141.417691 
L 335.32465 121.389706 
L 335.357225 139.17679 
L 335.373501 144.160242 
L 335.422282 129.963663 
L 335.552027 118.479377 
L 335.56821 117.770585 
L 335.584386 119.77311 
L 335.697403 128.878407 
L 335.745725 111.183482 
L 335.793978 120.038452 
L 335.922322 156.164512 
L 336.018265 120.250458 
L 336.050186 129.678689 
L 336.066135 145.042665 
L 336.129859 112.151089 
L 336.25695 132.636047 
L 336.272804 152.847828 
L 336.35196 133.032318 
L 336.430933 122.73335 
L 336.446706 131.997693 
L 336.509725 124.423159 
L 336.556913 160.727667 
L 336.651093 120.021252 
L 336.682429 127.19349 
L 336.698086 130.864582 
L 336.745015 121.193926 
L 336.760644 122.872936 
L 336.776265 122.478657 
L 336.79188 123.204774 
L 336.807487 122.7943 
L 336.916538 148.08854 
L 337.009735 186.450555 
L 336.978698 138.173589 
L 337.025243 148.063231 
L 337.040744 156.619053 
L 337.071725 136.795012 
L 337.118144 147.567509 
L 337.179938 135.319256 
L 337.149055 152.913939 
L 337.195369 138.312599 
L 337.210793 163.416977 
L 337.241621 136.43145 
L 337.318568 159.210784 
L 337.410676 167.62205 
L 337.441324 140.436011 
L 337.456638 140.390882 
L 337.471944 152.082266 
L 337.502537 134.292214 
L 337.548375 136.200346 
L 337.563641 133.83072 
L 337.5789 142.996547 
L 337.685522 170.651279 
L 337.609397 139.029062 
L 337.700727 152.732171 
L 337.715925 153.735565 
L 337.776649 188.69634 
L 337.822121 176.603821 
L 337.943085 149.671887 
L 337.958176 149.929914 
L 337.97326 149.429777 
L 338.108716 141.542079 
L 338.228673 144.996056 
L 338.243638 144.21434 
L 338.258596 144.625305 
L 338.273548 143.371847 
L 338.288493 141.570589 
L 338.34821 143.896159 
L 338.422709 153.044674 
L 338.497046 150.814324 
L 338.66002 138.009934 
L 338.674798 139.213076 
L 338.733844 151.320236 
L 338.778061 161.648295 
L 338.836929 151.305202 
L 338.969013 136.115253 
L 338.983657 136.164455 
L 338.998296 135.321631 
L 339.042173 137.480079 
L 339.129758 149.098312 
L 339.202575 162.620361 
L 339.246191 157.503257 
L 339.318761 145.455591 
L 339.376706 148.291824 
L 339.506725 144.598422 
L 339.650612 153.958436 
L 339.750974 159.90112 
L 339.851042 156.977145 
L 339.865314 155.338914 
L 339.950818 157.588522 
L 339.965048 155.918266 
L 340.007703 161.575942 
L 340.078676 158.531177 
L 340.163649 150.402456 
L 340.220181 150.861362 
L 340.332965 156.496717 
L 340.276619 150.747256 
L 340.347037 155.672755 
L 340.459403 150.618794 
L 340.501446 151.419158 
L 340.627264 160.078721 
L 340.529446 150.268451 
L 340.669101 157.515237 
L 340.710887 155.183435 
L 340.766521 159.08068 
L 340.780416 158.280129 
L 340.794305 162.976615 
L 340.808188 161.400761 
L 340.849804 165.101985 
L 340.905214 158.975156 
L 340.919052 158.866461 
L 341.029557 154.193816 
L 341.043345 163.526667 
L 341.139707 156.727366 
L 341.194649 168.459178 
L 341.263202 168.032371 
L 341.345285 149.766374 
L 341.290585 168.460904 
L 341.386253 153.167095 
L 341.427172 148.625199 
L 341.468041 156.858351 
L 341.481654 155.334729 
L 341.671661 187.679228 
L 341.779764 152.493971 
L 341.793253 153.590959 
L 341.833687 162.724912 
L 341.820214 151.079452 
L 341.847155 154.073484 
L 341.860617 189.363279 
L 341.954706 160.559298 
L 342.021753 170.541796 
L 342.008354 156.041139 
L 342.061919 169.610088 
L 342.155455 152.229996 
L 342.182133 154.403971 
L 342.20879 160.917383 
L 342.222111 150.578495 
L 342.235426 166.548963 
L 342.315211 148.97804 
L 342.32849 160.908539 
L 342.447772 143.888444 
L 342.500653 159.107929 
L 342.487441 142.492934 
L 342.553453 144.41194 
L 342.606171 157.807718 
L 342.619337 140.435437 
L 342.685095 148.445008 
L 342.698232 149.289542 
L 342.776945 140.947569 
L 342.763838 152.858384 
L 342.816233 144.870317 
L 342.855477 140.704281 
L 342.868548 148.386681 
L 342.920782 143.779055 
L 343.064018 160.348679 
L 343.115955 158.239112 
L 343.167813 161.10363 
L 343.232525 144.797385 
L 343.245453 159.78309 
L 343.322918 140.660878 
L 343.335811 142.85224 
L 343.3487 143.071837 
L 343.464481 158.205025 
L 343.502988 142.78064 
L 343.554263 161.054435 
L 343.56707 148.240657 
L 343.579872 160.061586 
L 343.592669 146.552761 
L 343.669351 151.931836 
L 343.682115 151.132935 
L 343.745862 145.172943 
L 343.784053 164.668447 
L 343.911051 138.497559 
L 343.923724 166.964583 
L 343.961718 133.038182 
L 344.01231 146.827877 
L 344.024946 141.430351 
L 344.037578 169.860811 
L 344.11327 150.677821 
L 344.163638 168.111793 
L 344.201366 155.680498 
L 344.3143 138.769594 
L 344.414373 149.690818 
L 344.339346 137.38968 
L 344.426862 142.164839 
L 344.451826 139.867973 
L 344.539055 162.602118 
L 344.551498 142.228871 
L 344.638473 172.128689 
L 344.65088 144.07534 
L 344.712848 171.51902 
L 344.700464 139.623212 
L 344.762342 147.77259 
L 344.824108 146.704584 
L 344.873441 166.958029 
L 344.98418 144.835401 
L 344.996462 147.408823 
L 345.070063 158.395719 
L 345.082314 137.617993 
L 345.119042 162.845574 
L 345.19238 157.717702 
L 345.216791 184.878084 
L 345.277742 150.435739 
L 345.289919 177.330078 
L 345.35074 147.847773 
L 345.375039 149.06213 
L 345.387181 143.426607 
L 345.39932 161.893953 
L 345.44783 143.670936 
L 345.459947 165.299042 
L 345.556727 149.620448 
L 345.605014 175.119889 
L 345.617076 148.141302 
L 345.665278 159.542276 
L 345.677318 149.963906 
L 345.689354 164.071776 
L 345.76148 153.378379 
L 345.773486 170.912407 
L 345.869384 152.488897 
L 345.893316 148.562039 
L 345.988879 163.356852 
L 346.012728 174.260011 
L 346.084175 152.825356 
L 346.096069 169.654348 
L 346.167343 147.833417 
L 346.191067 148.9367 
L 346.262144 160.764293 
L 346.297626 150.908805 
L 346.321261 151.758464 
L 346.415637 140.702221 
L 346.486248 147.240511 
L 346.498002 136.305411 
L 346.521499 140.378768 
L 346.544979 143.458033 
L 346.615324 137.101637 
L 346.627034 142.093562 
L 346.708893 133.49153 
L 346.720571 135.799546 
L 346.743915 134.826911 
L 346.755581 136.918246 
L 346.767243 135.994934 
L 347.011234 159.586773 
L 347.03438 179.768072 
L 347.126811 170.428582 
L 347.276479 137.649818 
L 347.299446 136.537684 
L 347.482636 151.761807 
L 347.505465 151.861084 
L 347.630757 130.399285 
L 347.698905 134.123877 
L 347.653488 129.383335 
L 347.732928 130.766353 
L 347.766918 128.190778 
L 347.823492 133.608402 
L 348.037623 153.528077 
L 348.060085 152.767836 
L 348.127383 142.890198 
L 348.183364 144.622811 
L 348.205731 147.399712 
L 348.216909 140.199985 
L 348.239254 141.417107 
L 348.350759 130.497629 
L 348.36189 133.198311 
L 348.39526 131.083295 
L 348.472997 142.435683 
L 348.495175 134.538717 
L 348.517339 143.118782 
L 348.583744 139.781366 
L 348.68311 135.491495 
L 348.627942 140.193389 
L 348.727181 136.758597 
L 348.837109 145.796529 
L 348.848082 140.223088 
L 348.859052 137.328389 
L 348.924797 144.938996 
L 348.946685 143.251379 
L 348.968558 150.666098 
L 349.045003 142.728524 
L 349.110392 139.917642 
L 349.153916 141.05128 
L 349.197384 149.183946 
L 349.251641 140.527276 
L 349.27332 137.084957 
L 349.327457 149.300657 
L 349.349088 165.085289 
L 349.424688 145.353146 
L 349.478587 142.538084 
L 349.446258 146.81961 
L 349.500122 143.926429 
L 349.5324 139.489403 
L 349.586129 148.465884 
L 349.650492 160.08757 
L 349.693333 147.247923 
L 349.736121 143.416193 
L 349.800203 145.968754 
L 350.182191 182.588252 
L 350.319089 160.85136 
L 350.329597 163.875438 
L 350.361101 160.140447 
L 350.424023 161.123809 
L 350.465907 158.094972 
L 350.455441 161.762815 
L 350.549521 159.947717 
L 350.664157 163.793192 
L 350.570393 159.913738 
L 350.695355 162.910633 
L 350.705748 162.195758 
L 350.726524 167.056481 
L 350.799142 170.524667 
L 350.819862 165.334233 
L 350.840569 165.634426 
L 350.954235 181.462501 
L 350.871607 165.517309 
L 350.96455 180.081323 
L 351.026372 170.701734 
L 350.98517 186.884456 
L 351.057241 173.680598 
L 351.129161 200.721606 
L 351.18044 188.409181 
L 351.303196 168.294043 
L 351.333816 170.10567 
L 351.425513 183.874072 
L 351.435686 168.79054 
L 351.445857 169.198855 
L 351.456024 174.783767 
L 351.527111 157.907908 
L 351.537254 158.501027 
L 351.648631 143.419512 
L 351.678943 144.94189 
L 351.699137 142.772842 
L 351.779792 156.049373 
L 351.78986 143.329479 
L 351.850209 164.83165 
L 351.890382 149.702033 
L 351.900418 165.332636 
L 351.99061 145.88452 
L 352.040614 141.389572 
L 352.050606 148.400295 
L 352.070581 142.768784 
L 352.170282 152.62597 
L 352.090544 142.191619 
L 352.180236 148.015916 
L 352.190188 147.868503 
L 352.279619 164.597817 
L 352.239901 146.410642 
L 352.309378 158.367883 
L 352.329202 166.900087 
L 352.428153 140.095688 
L 352.438033 143.981917 
L 352.516965 131.391201 
L 352.7233 167.480648 
L 352.566205 129.179738 
L 352.733094 165.739572 
L 352.752675 166.536978 
L 352.860168 132.798421 
L 352.947866 139.270875 
L 352.908916 132.301276 
L 352.977048 137.976183 
L 352.98677 136.43404 
L 352.99649 141.64263 
L 353.064447 140.458078 
L 353.151624 139.934478 
L 353.170966 144.002121 
L 353.296425 135.44884 
L 353.373402 127.182038 
L 353.411826 131.076722 
L 353.459795 134.839296 
L 353.469381 129.837217 
L 353.555532 152.15301 
L 353.584201 142.985232 
L 353.641467 129.962182 
L 353.708156 130.100194 
L 353.841144 138.08276 
L 353.850624 137.667477 
L 353.869575 140.633555 
L 353.879046 140.608505 
L 353.888515 143.888913 
L 353.954724 135.372677 
L 353.964172 135.793724 
L 353.973618 133.570816 
L 354.030235 139.790486 
L 354.049087 138.800442 
L 354.10558 146.068018 
L 354.067928 138.54722 
L 354.152586 139.381218 
L 354.208908 134.872963 
L 354.218286 141.016078 
L 354.237035 138.174168 
L 354.293218 154.956574 
L 354.255773 136.877673 
L 354.349309 144.384904 
L 354.423955 133.898542 
L 354.470526 138.066798 
L 354.600587 148.922151 
L 354.730156 133.411119 
L 354.859235 156.910258 
L 354.960314 137.289678 
L 354.97866 139.847989 
L 354.987829 139.461728 
L 355.106806 162.54956 
L 355.00616 137.893826 
L 355.115941 150.66606 
L 355.125074 150.751198 
L 355.134204 184.878899 
L 355.1707 147.846907 
L 355.234474 151.105741 
L 355.26177 150.352859 
L 355.343526 170.049049 
L 355.45223 144.874279 
L 355.461273 155.561686 
L 355.470314 143.286072 
L 355.533532 174.941098 
L 355.56059 154.078997 
L 355.578617 162.231024 
L 355.650629 146.510323 
L 355.668608 152.148782 
L 355.767325 140.631091 
L 355.704538 157.965213 
L 355.785243 143.741742 
L 355.829997 158.688533 
L 355.892555 148.606298 
L 355.928251 132.278569 
L 356.017327 138.153612 
L 356.026222 141.923896 
L 356.106172 135.459903 
L 356.132781 140.053323 
L 356.168227 129.573163 
L 356.230169 144.77693 
L 356.300823 158.247497 
L 356.318463 135.373659 
L 356.344907 126.018623 
L 356.40653 156.478036 
L 356.538207 126.929069 
L 356.555725 129.699956 
L 356.678105 171.612915 
L 356.68683 168.477992 
L 356.756547 127.629986 
L 356.782654 175.637357 
L 356.843494 134.398967 
L 356.860857 169.899947 
L 356.921558 125.174319 
L 356.956196 135.74818 
L 356.982151 151.009238 
L 357.085776 127.310932 
L 357.223456 174.430737 
L 357.249209 159.683731 
L 357.334914 164.928955 
L 357.369136 139.787414 
L 357.386234 141.850003 
L 357.411865 130.245091 
L 357.480121 144.070154 
L 357.539733 163.35781 
L 357.514197 131.425628 
L 357.590746 145.307701 
L 357.692546 130.828523 
L 357.6332 145.835853 
L 357.709483 134.858905 
L 357.726412 146.514566 
L 357.81937 135.343892 
L 357.895239 161.970218 
L 357.937317 146.218564 
L 358.029704 128.607397 
L 358.054857 129.011525 
L 358.071616 128.271969 
L 358.163642 144.63201 
L 358.171996 132.827994 
L 358.222075 158.118487 
L 358.272081 145.866166 
L 358.280409 148.853774 
L 358.305378 128.047705 
L 358.338643 138.735326 
L 358.36357 130.579703 
L 358.438242 143.911931 
L 358.446529 141.559086 
L 358.463097 150.134098 
L 358.471378 149.625304 
L 358.487934 167.168008 
L 358.545816 136.652906 
L 358.570592 141.466581 
L 358.578847 133.214323 
L 358.653052 152.998157 
L 358.66952 149.275128 
L 358.694207 165.497149 
L 358.727095 138.075598 
L 358.743528 141.451543 
L 358.751741 141.335538 
L 358.809178 132.31406 
L 358.858334 163.676448 
L 358.931935 136.603477 
L 358.882885 166.224904 
L 358.972756 138.079422 
L 359.103056 172.829659 
L 359.111183 163.733244 
L 359.184243 148.880511 
L 359.135554 166.574434 
L 359.224764 156.40426 
L 359.232862 181.343351 
L 359.329894 146.028687 
L 359.402488 142.979638 
L 359.450798 162.154414 
L 359.523136 167.331101 
L 359.571276 148.995939 
L 359.659357 156.847268 
L 359.587308 147.79803 
L 359.691331 154.538789 
L 359.715291 151.820049 
L 359.771134 143.564163 
L 359.842797 145.612501 
L 359.850751 144.379726 
L 359.882546 155.503214 
L 359.89049 149.802393 
L 359.938116 168.435486 
L 359.96983 148.132633 
L 360.001514 161.810918 
L 360.009431 149.025927 
L 360.041079 186.815119 
L 360.11218 154.216518 
L 360.120071 155.899993 
L 360.175256 144.74746 
L 360.183133 147.906085 
L 360.19888 143.158644 
L 360.230353 150.888743 
L 360.261797 149.03259 
L 360.340281 171.022688 
L 360.332441 144.983107 
L 360.363791 155.542569 
L 360.371624 143.843751 
L 360.442042 174.359772 
L 360.473292 152.105736 
L 360.520113 166.951586 
L 360.551292 139.050777 
L 360.559082 152.006867 
L 360.590226 132.57722 
L 360.644658 160.474185 
L 360.66796 153.609935 
L 360.753264 126.772902 
L 360.683486 163.297565 
L 360.799704 133.285781 
L 360.807438 159.299623 
L 360.90782 137.072274 
L 360.94635 161.010275 
L 361.030963 155.048649 
L 361.069354 135.649996 
L 361.100037 165.645567 
L 361.138351 144.073093 
L 361.207208 171.526275 
L 361.22249 139.912429 
L 361.237766 142.345269 
L 361.245402 134.536582 
L 361.298802 160.067283 
L 361.336894 150.535354 
L 361.344507 150.953511 
L 361.428142 135.596277 
L 361.374944 168.047964 
L 361.458504 144.06656 
L 361.488839 170.424076 
L 361.572122 163.550652 
L 361.670286 148.222547 
L 361.685364 153.982127 
L 361.6929 152.869232 
L 361.700434 175.690442 
L 361.745606 146.174227 
L 361.805742 166.902467 
L 362.015391 242.802282 
L 362.089955 221.658942 
L 362.127176 220.214841 
L 362.142053 228.425829 
L 362.149489 223.937936 
L 362.253426 220.323913 
L 362.268248 249.565924 
L 362.312676 214.382897 
L 362.327473 257.069006 
L 362.379211 222.643519 
L 362.460355 220.178404 
L 362.482452 295.488 
L 362.600061 211.673098 
L 362.666039 248.418359 
L 362.717268 236.880456 
L 362.790318 210.546215 
L 362.746507 242.766169 
L 362.826785 219.873188 
L 362.906875 243.089825 
L 362.85593 214.826664 
L 362.935952 222.922782 
L 363.015788 242.683333 
L 362.979522 216.463819 
L 363.044772 226.584439 
L 363.073733 214.365282 
L 363.066495 245.144767 
L 363.153247 220.825039 
L 363.196541 257.013237 
L 363.261379 216.342929 
L 363.268575 214.708462 
L 363.27577 241.742432 
L 363.383516 238.539849 
L 363.462314 219.022443 
L 363.397856 256.850164 
L 363.498071 231.710814 
L 363.505218 246.015546 
L 363.540931 216.721023 
L 363.597993 228.160601 
L 363.612244 217.256335 
L 363.676299 260.456279 
L 363.683409 264.415641 
L 363.697624 218.325356 
L 363.718936 234.494923 
L 363.733136 212.232932 
L 363.768612 243.035841 
L 363.832375 222.489844 
L 363.853602 215.719988 
L 363.846528 240.904074 
L 363.860675 228.63802 
L 363.910146 258.536939 
L 363.896019 218.518939 
L 363.966596 231.339302 
L 363.973646 216.405269 
L 364.008872 251.7905 
L 364.072189 231.921421 
L 364.093269 215.120567 
L 364.128373 235.151284 
L 364.149418 215.369805 
L 364.240463 244.378322 
L 364.261439 221.115934 
L 364.289388 236.430965 
L 364.275416 216.980783 
L 364.373095 226.052218 
L 364.39399 228.870089 
L 364.400952 220.76585 
L 364.484388 254.801171 
L 364.456598 218.37685 
L 364.512154 224.716574 
L 364.553762 213.915068 
L 364.546831 237.423722 
L 364.616078 220.796017 
L 364.65756 249.616724 
L 364.685186 216.776873 
L 364.726584 222.407533 
L 364.747264 232.857086 
L 364.788586 229.013208 
L 364.795469 287.755365 
L 364.822984 218.654732 
L 364.898537 234.057296 
L 365.001295 213.420681 
L 364.960228 247.565071 
L 365.008134 225.605715 
L 365.076455 246.727336 
L 365.021809 216.570458 
L 365.110564 232.937238 
L 365.117382 216.146927 
L 365.15826 242.498687 
L 365.219485 222.528599 
L 365.226281 246.207376 
L 365.260241 213.602143 
L 365.32806 218.092849 
L 365.422781 239.722171 
L 365.382219 217.000791 
L 365.436292 221.116587 
L 365.443045 220.90643 
L 365.449796 223.708936 
L 365.483535 236.488143 
L 365.530714 216.851662 
L 365.564373 235.676811 
L 365.638307 218.295045 
L 365.584553 237.496709 
L 365.67186 219.398667 
L 365.712081 250.474034 
L 365.698679 212.004884 
L 365.785696 230.531711 
L 365.879159 208.851462 
L 365.812426 259.306109 
L 365.892491 217.893863 
L 365.959068 273.11096 
L 365.965719 215.12281 
L 366.005595 224.879398 
L 366.05206 213.056061 
L 366.111706 238.44852 
L 366.184467 243.112251 
L 366.22409 212.392015 
L 366.257073 247.213675 
L 366.349259 244.828336 
L 366.395258 216.795027 
L 366.428077 245.012493 
L 366.460865 222.86226 
L 366.493621 253.069222 
L 366.480522 213.843329 
L 366.572108 248.044969 
L 366.611284 212.886283 
L 366.630855 277.813956 
L 366.68299 231.425417 
L 366.735046 213.94006 
L 366.741547 242.748483 
L 366.78053 228.418455 
L 366.819468 208.83584 
L 366.890739 250.655534 
L 366.961862 215.448542 
L 367.007045 227.737137 
L 367.110098 244.722293 
L 367.045727 216.121625 
L 367.116528 231.541857 
L 367.180767 214.365769 
L 367.200014 243.104769 
L 367.225662 218.124185 
L 367.276898 261.861002 
L 367.244884 215.715549 
L 367.334448 229.698727 
L 367.347223 223.238161 
L 367.353609 251.785881 
L 367.385522 219.439982 
L 367.455624 246.996815 
L 367.46199 214.817152 
L 367.570027 226.563184 
L 367.576372 226.828661 
L 367.582715 253.172245 
L 367.652415 214.210807 
L 367.684049 226.379632 
L 367.734604 212.675863 
L 367.696695 249.379119 
L 367.772471 216.642334 
L 367.785084 242.136852 
L 367.885821 224.207527 
L 367.904676 251.236597 
L 367.898392 213.562484 
L 368.011326 231.09911 
L 368.036372 217.211929 
L 368.030112 236.35409 
L 368.117645 221.571288 
L 368.211181 238.997213 
L 368.167563 216.421192 
L 368.229858 224.702839 
L 368.285827 260.100621 
L 368.310672 220.045366 
L 368.3355 232.563473 
L 368.385101 215.546335 
L 368.428443 236.88706 
L 368.447001 230.617788 
L 368.514963 252.637455 
L 368.46555 210.603386 
L 368.539642 238.919 
L 368.545809 210.413555 
L 368.632033 242.654381 
L 368.650481 230.825476 
L 368.656628 249.286608 
L 368.705766 216.858531 
L 368.754833 243.236278 
L 368.840532 211.55227 
L 368.834418 248.159876 
L 368.871086 216.328448 
L 368.907716 244.542906 
L 368.919917 212.709225 
L 368.980858 219.18083 
L 368.986946 219.2091 
L 369.011287 239.279891 
L 369.078137 211.856574 
L 369.096346 224.15079 
L 369.187246 214.625321 
L 369.150915 238.675715 
L 369.199348 222.456511 
L 369.247713 264.146117 
L 369.289975 211.788366 
L 369.308072 224.078669 
L 369.368325 242.323588 
L 369.338212 219.346185 
L 369.374345 221.048624 
L 369.38638 215.900199 
L 369.422462 241.154434 
L 369.428472 238.917178 
L 369.434481 240.076427 
L 369.452501 225.78224 
L 369.500509 222.234928 
L 369.506505 245.894346 
L 369.518495 236.232722 
L 369.572395 255.282662 
L 369.590343 211.820767 
L 369.620235 217.52419 
L 369.632184 248.78961 
L 369.650101 215.302494 
L 369.733587 223.984414 
L 369.739542 214.837559 
L 369.793095 241.36225 
L 369.83469 226.504786 
L 369.846564 247.390831 
L 369.89995 217.068101 
L 369.947334 240.386861 
L 370.047808 214.373264 
L 370.059609 228.683734 
L 370.083199 216.154025 
L 370.136216 247.579825 
L 370.159753 226.732611 
L 370.259606 237.843606 
L 370.224397 214.757267 
L 370.26547 219.240514 
L 370.335767 251.268416 
L 370.341618 214.677293 
L 370.365014 242.512499 
L 370.370861 211.909344 
L 370.435107 261.959607 
L 370.475928 216.28963 
L 370.534159 240.12444 
L 370.510879 212.484682 
L 370.592291 234.173781 
L 370.650325 214.805041 
L 370.66192 242.54209 
L 370.702471 224.497066 
L 370.760318 246.050696 
L 370.800753 209.981753 
L 370.812297 229.440023 
L 370.846906 213.863711 
L 370.835373 240.355254 
L 370.921771 229.316167 
L 370.956269 254.91473 
L 371.025161 213.171537 
L 371.133957 250.888725 
L 371.173952 214.84037 
L 371.248106 219.632382 
L 371.356195 240.124688 
L 371.2595 216.624052 
L 371.361875 227.930942 
L 371.424287 211.892212 
L 371.446954 245.616877 
L 371.480926 219.881752 
L 371.486585 220.610507 
L 371.492243 250.081019 
L 371.593924 213.886825 
L 371.650284 229.407572 
L 371.639019 212.698736 
L 371.70655 221.46969 
L 371.717793 236.884656 
L 371.762725 211.905623 
L 371.807598 232.121093 
L 371.813203 211.686983 
L 371.830012 244.85728 
L 371.919523 225.333992 
L 371.964191 248.053336 
L 371.980926 210.833506 
L 372.019943 221.45928 
L 372.06448 209.754881 
L 372.097845 240.035728 
L 372.125624 222.162823 
L 372.192201 245.999132 
L 372.175569 214.457895 
L 372.230979 233.272712 
L 372.264181 212.594233 
L 372.302877 244.542762 
L 372.341529 233.457699 
L 372.347047 262.137681 
L 372.352564 215.72488 
L 372.451722 253.293137 
L 372.556079 215.062829 
L 372.567045 221.356732 
L 372.67105 251.103884 
L 372.627297 215.542586 
L 372.676515 230.870988 
L 372.76929 215.241643 
L 372.758389 240.138595 
L 372.791083 222.797298 
L 372.88898 217.60535 
L 372.905268 239.501656 
L 372.910696 211.336425 
L 372.926975 242.235238 
L 373.013663 228.268895 
L 373.046114 253.022373 
L 373.05152 219.445558 
L 373.11632 221.03828 
L 373.127108 230.516378 
L 373.132501 228.143062 
L 373.197148 249.578933 
L 373.154064 217.763902 
L 373.240179 221.947952 
L 373.336799 251.380895 
L 373.261674 219.044583 
L 373.352876 233.201484 
L 373.406412 213.858269 
L 373.39036 251.552005 
L 373.465204 230.852874 
L 373.539884 215.553424 
L 373.555866 253.198252 
L 373.57184 234.324703 
L 373.587807 249.365479 
L 373.593127 216.435838 
L 373.672837 229.474391 
L 373.747066 215.073147 
L 373.731173 252.753041 
L 373.773537 228.091105 
L 373.778829 260.230733 
L 373.863386 215.32677 
L 373.879218 224.204808 
L 373.884493 215.342998 
L 373.921398 249.541978 
L 373.979312 232.074654 
L 373.99509 254.638054 
L 374.026623 214.364857 
L 374.089603 228.909905 
L 374.094846 214.592854 
L 374.147233 242.245011 
L 374.194313 221.648382 
L 374.241328 244.881319 
L 374.209992 214.65269 
L 374.303914 224.429467 
L 374.361184 212.681004 
L 374.32475 232.254486 
L 374.366385 227.800009 
L 374.371586 265.523325 
L 374.475437 216.520989 
L 374.584141 255.841906 
L 374.589309 227.724655 
L 374.599642 254.565559 
L 374.682196 214.572651 
L 374.692501 217.326811 
L 374.702803 228.072192 
L 374.774831 244.632834 
L 374.769692 218.566635 
L 374.805654 232.611694 
L 374.908197 217.85332 
L 374.88259 246.308317 
L 374.918434 224.008185 
L 374.974684 245.881511 
L 374.944014 216.755098 
L 375.025741 236.145715 
L 375.071627 221.233592 
L 375.051241 244.275633 
L 375.137798 224.286187 
L 375.142883 224.023475 
L 375.147967 215.352558 
L 375.158133 236.948139 
L 375.254558 222.590632 
L 375.310258 263.316692 
L 375.305198 220.508593 
L 375.355764 220.945038 
L 375.360817 220.113251 
L 375.370919 236.629212 
L 375.381019 233.169751 
L 375.436514 259.469323 
L 375.4113 220.273573 
L 375.486887 233.044721 
L 375.517074 215.753367 
L 375.557283 244.333657 
L 375.597445 223.608288 
L 375.617508 247.088133 
L 375.672621 217.274172 
L 375.702645 235.472471 
L 375.757621 215.35832 
L 375.752627 260.64159 
L 375.812509 228.590132 
L 375.817494 253.262499 
L 375.887214 213.733412 
L 375.922021 240.34289 
L 375.951827 215.975973 
L 375.971683 247.441477 
L 376.04109 223.237264 
L 376.095524 246.405028 
L 376.065843 218.609266 
L 376.139998 230.446565 
L 376.144936 215.498597 
L 376.16468 254.723556 
L 376.248467 232.970802 
L 376.273071 215.398455 
L 376.346778 242.667696 
L 376.351686 260.338701 
L 376.38112 215.274915 
L 376.454594 241.56922 
L 376.464379 215.416954 
L 376.532793 257.52556 
L 376.571826 216.356749 
L 376.693516 251.577507 
L 376.766323 217.845435 
L 376.70809 254.779996 
L 376.80509 230.029895 
L 376.819616 267.827279 
L 376.824457 211.323351 
L 376.882492 237.041175 
L 376.906644 214.711231 
L 376.9163 246.272083 
L 376.993451 235.615717 
L 377.070429 240.170171 
L 377.012712 216.946405 
L 377.089646 235.367921 
L 377.094449 216.006684 
L 377.19036 258.443716 
L 377.199937 225.979028 
L 377.223866 262.725526 
L 377.219081 219.990146 
L 377.309872 225.13712 
L 377.338493 246.850122 
L 377.35756 220.84791 
L 377.381379 234.642161 
L 377.386141 213.967502 
L 377.457489 254.611815 
L 377.490734 233.78065 
L 377.528689 214.723127 
L 377.552389 252.553076 
L 377.59974 234.364305 
L 377.618662 251.4018 
L 377.651751 220.525709 
L 377.689527 232.822714 
L 377.717832 216.954582 
L 377.698965 262.898582 
L 377.797902 236.15756 
L 377.896554 217.455506 
L 377.873091 257.109761 
L 377.905935 228.46316 
L 377.976207 254.572632 
L 377.938747 215.475327 
L 378.013627 228.147486 
L 378.018302 216.654215 
L 378.102335 271.946855 
L 378.120981 219.75443 
L 378.167552 258.154147 
L 378.139617 218.319894 
L 378.237289 231.226164 
L 378.260504 224.822383 
L 378.25122 250.214788 
L 378.274425 230.178186 
L 378.279064 251.651391 
L 378.362459 214.852686 
L 378.380964 223.209834 
L 378.408702 266.81231 
L 378.445652 218.671039 
L 378.496393 228.131935 
L 378.501002 227.915217 
L 378.510218 271.162149 
L 378.560863 215.58497 
L 378.611433 242.539677 
L 378.721508 216.979367 
L 378.716929 244.08209 
L 378.726087 229.552093 
L 378.780985 216.187369 
L 378.794695 256.295013 
L 378.817534 228.745279 
L 378.8221 244.887354 
L 378.917845 213.50555 
L 378.926949 232.193034 
L 379.00424 243.269932 
L 378.940602 218.305808 
L 379.036015 234.260441 
L 379.094948 217.370726 
L 379.081357 249.628459 
L 379.140211 223.64564 
L 379.144734 266.749145 
L 379.244091 215.734673 
L 379.2486 246.170588 
L 379.275643 217.378898 
L 379.316169 253.191386 
L 379.361141 217.380789 
L 379.365635 250.22627 
L 379.392586 217.376445 
L 379.468832 233.114856 
L 379.567252 213.825535 
L 379.509129 250.676741 
L 379.571719 239.747346 
L 379.616357 261.130768 
L 379.660935 216.08107 
L 379.678751 229.108199 
L 379.701007 219.081913 
L 379.727695 250.911582 
L 379.789887 222.773434 
L 379.865253 262.158485 
L 379.838672 215.97872 
L 379.909509 228.255829 
L 379.931615 217.890727 
L 379.975785 252.015765 
L 380.01108 222.323242 
L 380.01549 250.162607 
L 380.085961 212.79745 
L 380.121143 217.362033 
L 380.143113 211.883762 
L 380.187011 244.988072 
L 380.204554 233.104189 
L 380.265885 250.631149 
L 380.25713 208.876788 
L 380.309625 231.156384 
L 380.396939 212.907244 
L 380.327106 250.902816 
L 380.42309 214.814399 
L 380.427446 213.167674 
L 380.431802 242.779075 
L 380.457926 232.270644 
L 380.462278 248.20444 
L 380.48403 211.612491 
L 380.562223 217.075212 
L 380.661876 240.309967 
L 380.648894 215.691086 
L 380.679177 219.654202 
L 380.709434 210.771559 
L 380.718074 237.109312 
L 380.731029 215.925744 
L 380.748296 213.407166 
L 380.838802 250.024956 
L 380.933361 207.988652 
L 380.950526 236.690474 
L 381.02766 216.682413 
L 380.963394 254.937644 
L 381.05761 235.877271 
L 381.061886 248.131141 
L 381.08326 215.261222 
L 381.168623 242.299127 
L 381.266526 211.071733 
L 381.241013 262.166746 
L 381.279276 219.553052 
L 381.292021 248.764106 
L 381.376864 217.197315 
L 381.393807 233.163165 
L 381.402276 239.648181 
L 381.469949 213.588034 
L 381.491069 227.59082 
L 381.579633 211.60964 
L 381.575421 247.238577 
L 381.596476 213.530867 
L 381.646956 242.243083 
L 381.655362 212.234624 
L 381.705755 214.095625 
L 381.735117 251.602964 
L 381.760264 212.754148 
L 381.814686 218.990167 
L 381.873198 247.014384 
L 381.869022 211.569507 
L 381.919102 220.10072 
L 381.998244 207.759943 
L 381.944114 243.948055 
L 382.019041 232.980124 
L 382.023199 264.188422 
L 382.122835 211.113124 
L 382.12698 217.487105 
L 382.242842 262.474014 
L 382.201508 208.857298 
L 382.246973 232.648643 
L 382.337722 209.829484 
L 382.308873 237.938517 
L 382.358313 211.434327 
L 382.448767 233.880333 
L 382.407681 208.192015 
L 382.473395 232.988102 
L 382.551267 209.968367 
L 382.502105 244.40576 
L 382.584001 215.558619 
L 382.661622 246.255202 
L 382.612619 207.996555 
L 382.698328 240.582948 
L 382.763486 207.76088 
L 382.787888 257.430715 
L 382.812273 216.512596 
L 382.885323 209.054055 
L 382.86099 250.826424 
L 382.909639 222.339293 
L 382.91369 240.346417 
L 382.982482 209.629413 
L 383.018845 215.839662 
L 383.095485 236.232161 
L 383.079365 204.344826 
L 383.131729 222.012967 
L 383.167934 207.407369 
L 383.179993 243.492329 
L 383.240229 217.210731 
L 383.296353 246.537005 
L 383.248252 208.502796 
L 383.348386 229.34568 
L 383.424292 208.695965 
L 383.40034 235.772196 
L 383.456202 216.450251 
L 383.519932 202.892037 
L 383.571626 237.687761 
L 383.599429 197.534713 
L 383.682702 221.628156 
L 383.734151 242.048673 
L 383.777624 205.862073 
L 383.789471 219.717826 
L 383.860465 193.978784 
L 383.80526 227.865851 
L 383.903778 207.477456 
L 384.005936 241.746464 
L 383.931312 200.183972 
L 384.017704 237.250123 
L 384.103878 203.011432 
L 384.131251 206.537624 
L 384.13516 204.306325 
L 384.15079 242.622152 
L 384.18203 231.741038 
L 384.263897 263.529438 
L 384.193737 207.433378 
L 384.291143 221.752326 
L 384.384393 204.141066 
L 384.396031 244.906918 
L 384.403788 213.240128 
L 384.415419 250.697078 
L 384.423172 206.160531 
L 384.512197 211.516482 
L 384.539246 237.760304 
L 384.604846 202.692425 
L 384.612556 200.772294 
L 384.61641 197.165617 
L 384.670321 233.788218 
L 384.6934 212.664757 
L 384.74719 263.480423 
L 384.770218 200.713311 
L 384.804729 220.992766 
L 384.846863 200.631732 
L 384.885121 227.198574 
L 384.911876 221.231308 
L 384.953878 239.935446 
L 384.995829 206.286095 
L 385.01488 219.239955 
L 385.090979 200.697874 
L 385.052951 228.717157 
L 385.125169 218.080363 
L 385.128965 237.920456 
L 385.151737 206.186887 
L 385.235103 211.982904 
L 385.337138 195.175128 
L 385.261586 232.337648 
L 385.344684 208.260985 
L 385.367313 239.000878 
L 385.442632 197.689415 
L 385.450155 211.180174 
L 385.532798 195.750273 
L 385.514033 217.429669 
L 385.559051 213.17767 
L 385.577791 193.690364 
L 385.585284 221.149325 
L 385.656388 205.076624 
L 385.686282 235.089274 
L 385.764629 203.687927 
L 385.768356 226.31404 
L 385.81304 193.614404 
L 385.846516 228.67343 
L 385.876244 216.838355 
L 385.883672 254.446449 
L 385.965274 200.416179 
L 385.983793 216.484462 
L 386.098386 190.038866 
L 386.006002 242.260063 
L 386.102077 190.38485 
L 386.150013 259.945035 
L 386.227306 210.920131 
L 386.344751 184.223275 
L 386.249358 242.63061 
L 386.352078 188.480595 
L 386.355741 188.62357 
L 386.37405 230.490055 
L 386.472747 221.372014 
L 386.549315 166.463757 
L 386.589354 173.362726 
L 386.698312 225.674558 
L 386.730932 205.918303 
L 386.799695 172.642897 
L 386.752662 214.017402 
L 386.839441 194.768473 
L 386.929603 258.723469 
L 386.951207 232.003051 
L 387.048254 172.472524 
L 387.066196 187.299696 
L 387.098467 254.880955 
L 387.191524 212.857871 
L 387.291456 169.795657 
L 387.220105 225.705684 
L 387.302146 187.090545 
L 387.341313 244.323933 
L 387.412411 206.409205 
L 387.483362 201.393406 
L 387.454999 225.394113 
L 387.511701 202.873771 
L 387.564774 239.661485 
L 387.621294 208.638836 
L 387.691813 229.687154 
L 387.663622 198.092025 
L 387.719979 213.439572 
L 387.762186 171.133014 
L 387.748123 262.184842 
L 387.832416 203.254161 
L 387.951475 244.045733 
L 388.00038 175.716768 
L 388.063154 212.426363 
L 388.101459 200.66152 
L 388.143198 223.711684 
L 388.174469 208.560997 
L 388.240391 176.678517 
L 388.191829 229.193123 
L 388.288884 198.120286 
L 388.375308 247.756069 
L 388.330395 196.212222 
L 388.402918 223.176801 
L 388.478729 172.714064 
L 388.52001 191.306041 
L 388.616139 230.024102 
L 388.636703 210.189752 
L 388.674372 187.793417 
L 388.643555 217.025488 
L 388.742754 208.075797 
L 388.804181 230.104802 
L 388.845071 195.436234 
L 388.851881 210.927908 
L 388.896115 189.806153 
L 388.879109 225.147218 
L 388.960662 204.346482 
L 389.055561 231.850696 
L 389.06233 197.308055 
L 389.069097 221.755012 
L 389.079245 199.203222 
L 389.156948 237.975702 
L 389.180562 209.317545 
L 389.258035 234.564141 
L 389.210898 197.586107 
L 389.288303 211.327776 
L 389.352114 194.268944 
L 389.378946 225.581166 
L 389.402407 194.65202 
L 389.502772 248.489569 
L 389.516132 207.501855 
L 389.586185 197.048852 
L 389.542835 228.340901 
L 389.616164 211.84958 
L 389.65942 245.320111 
L 389.626151 196.948331 
L 389.725862 209.741171 
L 389.732499 192.647051 
L 389.76898 219.104913 
L 389.831901 207.932495 
L 389.84844 233.911779 
L 389.864971 191.615292 
L 389.944208 217.162543 
L 389.960693 195.69353 
L 389.957396 236.376681 
L 390.05286 203.466911 
L 390.134943 228.292947 
L 390.072578 195.314076 
L 390.161168 208.640448 
L 390.180824 194.889823 
L 390.184099 232.775294 
L 390.269134 201.198343 
L 390.305047 240.244721 
L 390.3507 191.419576 
L 390.380017 220.714885 
L 390.441824 192.647948 
L 390.474309 228.016165 
L 390.480803 203.907415 
L 390.484049 252.105183 
L 390.545669 193.815636 
L 390.591002 208.896177 
L 390.629811 193.252359 
L 390.658889 228.670232 
L 390.687942 212.82828 
L 390.733087 231.203862 
L 390.736309 194.045339 
L 390.79426 200.773052 
L 390.800693 238.787633 
L 390.864955 190.824158 
L 390.906661 205.514696 
L 390.973925 190.962698 
L 390.922688 219.602262 
L 390.993118 204.598118 
L 390.996316 245.760263 
L 391.005908 195.899391 
L 391.104869 213.055022 
L 391.171744 194.438276 
L 391.139915 239.843396 
L 391.213078 204.145752 
L 391.241664 232.75028 
L 391.317777 190.599848 
L 391.324112 223.745546 
L 391.368426 192.41032 
L 391.346276 228.291516 
L 391.437945 197.552759 
L 391.535664 223.333833 
L 391.488415 195.411916 
L 391.548253 198.121203 
L 391.551399 198.239321 
L 391.582848 226.292373 
L 391.592276 193.320218 
L 391.67075 211.403158 
L 391.749043 192.40262 
L 391.698956 232.046717 
L 391.770933 194.65389 
L 391.783435 191.870294 
L 391.88329 228.09098 
L 391.98596 191.871999 
L 391.995278 215.725341 
L 392.066635 192.532783 
L 392.013907 230.816481 
L 392.103805 201.136312 
L 392.165666 226.80214 
L 392.116186 193.42838 
L 392.215075 207.213524 
L 392.292133 192.873106 
L 392.224331 234.280424 
L 392.325984 201.232334 
L 392.344434 192.398615 
L 392.436534 230.142885 
L 392.543671 191.074975 
L 392.549783 193.215112 
L 392.607793 261.187608 
L 392.610844 189.67762 
L 392.659613 206.252946 
L 392.741755 191.296981 
L 392.67484 220.255946 
L 392.766055 204.815324 
L 392.823699 188.42989 
L 392.875194 221.206372 
L 392.929632 191.982647 
L 392.947759 234.697208 
L 392.987002 200.276364 
L 392.999067 227.395956 
L 393.029212 190.072343 
L 393.095438 199.998141 
L 393.143522 192.738226 
L 393.122494 219.053101 
L 393.167539 213.897468 
L 393.17054 225.733052 
L 393.197536 190.571256 
L 393.272413 205.570736 
L 393.365034 195.317732 
L 393.29335 237.083622 
L 393.382932 204.133718 
L 393.481202 222.008221 
L 393.424657 191.117586 
L 393.493094 202.818594 
L 393.504983 188.138943 
L 393.558429 225.818844 
L 393.596977 198.72852 
L 393.632521 233.949106 
L 393.608829 189.085881 
L 393.709407 225.560324 
L 393.792014 191.37157 
L 393.824412 202.261688 
L 393.912616 250.485801 
L 393.889117 194.709514 
L 393.924359 213.759329 
L 394.000592 187.450065 
L 393.988875 239.956594 
L 394.035719 196.471047 
L 394.126298 225.076571 
L 394.111705 188.903715 
L 394.149634 212.263892 
L 394.17004 239.017437 
L 394.216637 190.776716 
L 394.251543 218.508279 
L 394.257357 188.356306 
L 394.306738 224.248434 
L 394.364742 201.129996 
L 394.402392 185.80267 
L 394.413969 220.46118 
L 394.471791 196.400792 
L 394.5324 224.233598 
L 394.483344 189.728246 
L 394.584265 205.923763 
L 394.587144 205.757348 
L 394.60729 189.671143 
L 394.690629 225.571864 
L 394.696369 195.456973 
L 394.702108 227.373713 
L 394.759446 185.890172 
L 394.808108 204.139892 
L 394.813828 188.864294 
L 394.850987 225.41127 
L 394.916631 197.050267 
L 394.953678 224.734435 
L 395.002064 192.217515 
L 395.02481 195.745209 
L 395.075934 188.199812 
L 395.058901 221.489006 
L 395.109974 195.878505 
L 395.209064 236.193178 
L 395.220371 187.953187 
L 395.228848 229.702038 
L 395.336046 199.610221 
L 395.412009 188.064294 
L 395.358571 221.054008 
L 395.434484 200.12405 
L 395.490608 223.003224 
L 395.496215 187.6203 
L 395.54384 194.921147 
L 395.599784 187.696072 
L 395.571823 234.394258 
L 395.650056 197.495025 
L 395.677953 226.840058 
L 395.664007 188.998766 
L 395.750378 193.719084 
L 395.803207 188.991047 
L 395.819873 208.575657 
L 395.83098 200.664946 
L 395.897541 222.277991 
L 395.922468 189.599845 
L 395.941843 219.356433 
L 396.041314 188.886787 
L 396.046832 230.340769 
L 396.055107 196.214594 
L 396.154249 213.574816 
L 396.145998 189.041366 
L 396.167996 207.316277 
L 396.200967 184.905036 
L 396.269553 230.949216 
L 396.277774 205.957986 
L 396.365344 222.86035 
L 396.324323 186.04198 
L 396.389932 220.244193 
L 396.499001 186.539428 
L 396.398124 253.563675 
L 396.501723 197.591779 
L 396.572426 223.072705 
L 396.580575 185.579787 
L 396.615863 213.959168 
L 396.683623 188.16752 
L 396.710689 225.610395 
L 396.726919 203.880026 
L 396.772861 187.947992 
L 396.813347 209.524774 
L 396.829528 204.618562 
L 396.894175 232.798226 
L 396.896866 186.579691 
L 396.937205 204.126766 
L 396.956014 185.540154 
L 397.033826 224.958605 
L 397.049903 198.072695 
L 397.098088 225.113653 
L 397.103438 192.151043 
L 397.122156 197.415434 
L 397.124829 186.086531 
L 397.210258 219.745128 
L 397.228917 199.049388 
L 397.279512 226.855979 
L 397.316744 189.382922 
L 397.343314 209.811662 
L 397.356592 223.949183 
L 397.375171 189.585678 
L 397.377825 192.949829 
L 397.4282 188.6876 
L 397.422901 227.824149 
L 397.478501 201.924588 
L 397.539293 234.611658 
L 397.552494 191.109014 
L 397.586794 198.852305 
L 397.636863 186.746056 
L 397.65529 227.147451 
L 397.663185 200.035719 
L 397.665816 235.646793 
L 397.678969 186.226407 
L 397.773519 211.902991 
L 397.883497 189.423007 
L 397.778764 223.488237 
L 397.888725 191.676191 
L 397.891339 191.676888 
L 397.967053 222.922121 
L 397.995729 186.124686 
L 398.00094 198.197502 
L 398.081611 188.529164 
L 398.026984 227.235145 
L 398.104996 197.555316 
L 398.133556 227.135563 
L 398.159499 189.278905 
L 398.216504 200.460933 
L 398.263074 186.784874 
L 398.286335 221.568834 
L 398.32765 199.617233 
L 398.348288 220.694621 
L 398.356024 187.140748 
L 398.43329 212.404081 
L 398.469288 187.741852 
L 398.443579 214.310736 
L 398.487273 211.751121 
" style="fill:none;stroke:#1f77b4;stroke-linecap:square;stroke-width:1.5;"/>
   </g>
   <g id="line2d_48">
    <path clip-path="url(#p869fe71b35)" d="M 267.641761 307.584 
L 267.641761 41.472 
" style="fill:none;stroke:#ff0000;stroke-dasharray:5.55,2.4;stroke-dashoffset:0;stroke-width:1.5;"/>
   </g>
   <g id="line2d_49">
    <path clip-path="url(#p869fe71b35)" d="M 283.352061 307.584 
L 283.352061 41.472 
" style="fill:none;stroke:#ff0000;stroke-dasharray:5.55,2.4;stroke-dashoffset:0;stroke-width:1.5;"/>
   </g>
   <g id="line2d_50">
    <path clip-path="url(#p869fe71b35)" d="M 325.662994 307.584 
L 325.662994 41.472 
" style="fill:none;stroke:#ff0000;stroke-dasharray:5.55,2.4;stroke-dashoffset:0;stroke-width:1.5;"/>
   </g>
   <g id="patch_3">
    <path d="M 57.6 307.584 
L 57.6 41.472 
" style="fill:none;stroke:#000000;stroke-linecap:square;stroke-linejoin:miter;stroke-width:0.8;"/>
   </g>
   <g id="patch_4">
    <path d="M 414.72 307.584 
L 414.72 41.472 
" style="fill:none;stroke:#000000;stroke-linecap:square;stroke-linejoin:miter;stroke-width:0.8;"/>
   </g>
   <g id="patch_5">
    <path d="M 57.6 307.584 
L 414.72 307.584 
" style="fill:none;stroke:#000000;stroke-linecap:square;stroke-linejoin:miter;stroke-width:0.8;"/>
   </g>
   <g id="patch_6">
    <path d="M 57.6 41.472 
L 414.72 41.472 
" style="fill:none;stroke:#000000;stroke-linecap:square;stroke-linejoin:miter;stroke-width:0.8;"/>
   </g>
   <g id="text_15">
    <!-- DFT door -->
    <g transform="translate(209.004375 35.472)scale(0.12 -0.12)">
     <defs>
      <path d="M 1259 4147 
L 1259 519 
L 2022 519 
Q 2988 519 3436 956 
Q 3884 1394 3884 2338 
Q 3884 3275 3436 3711 
Q 2988 4147 2022 4147 
L 1259 4147 
z
M 628 4666 
L 1925 4666 
Q 3281 4666 3915 4102 
Q 4550 3538 4550 2338 
Q 4550 1131 3912 565 
Q 3275 0 1925 0 
L 628 0 
L 628 4666 
z
" id="DejaVuSans-44" transform="scale(0.015625)"/>
      <path d="M -19 4666 
L 3928 4666 
L 3928 4134 
L 2272 4134 
L 2272 0 
L 1638 0 
L 1638 4134 
L -19 4134 
L -19 4666 
z
" id="DejaVuSans-54" transform="scale(0.015625)"/>
     </defs>
     <use xlink:href="#DejaVuSans-44"/>
     <use x="77.001953" xlink:href="#DejaVuSans-46"/>
     <use x="132.771484" xlink:href="#DejaVuSans-54"/>
     <use x="193.855469" xlink:href="#DejaVuSans-20"/>
     <use x="225.642578" xlink:href="#DejaVuSans-64"/>
     <use x="289.119141" xlink:href="#DejaVuSans-6f"/>
     <use x="350.300781" xlink:href="#DejaVuSans-6f"/>
     <use x="411.482422" xlink:href="#DejaVuSans-72"/>
    </g>
   </g>
  </g>
 </g>
 <defs>
  <clipPath id="p869fe71b35">
   <rect height="266.112" width="357.12" x="57.6" y="41.472"/>
  </clipPath>
 </defs>
</svg>
