<?xml version="1.0" encoding="utf-8" standalone="no"?>
<!DOCTYPE svg PUBLIC "-//W3C//DTD SVG 1.1//EN"
  "http://www.w3.org/Graphics/SVG/1.1/DTD/svg11.dtd">
<svg height="345.6pt" version="1.1" viewBox="0 0 460.8 345.6" width="460.8pt" xmlns="http://www.w3.org/2000/svg" xmlns:xlink="http://www.w3.org/1999/xlink">
 <metadata>
  <rdf:RDF xmlns:cc="http://creativecommons.org/ns#" xmlns:dc="http://purl.org/dc/elements/1.1/" xmlns:rdf="http://www.w3.org/1999/02/22-rdf-syntax-ns#">
   <cc:Work>
    <dc:type rdf:resource="http://purl.org/dc/dcmitype/StillImage"/>
    <dc:date>2021-10-07T14:02:34.535571</dc:date>
    <dc:format>image/svg+xml</dc:format>
    <dc:creator>
     <cc:Agent>
      <dc:title>Matplotlib v3.4.2, https://matplotlib.org/</dc:title>
     </cc:Agent>
    </dc:creator>
   </cc:Work>
  </rdf:RDF>
 </metadata>
 <defs>
  <style type="text/css">*{stroke-linecap:butt;stroke-linejoin:round;}</style>
 </defs>
 <g id="figure_1">
  <g id="patch_1">
   <path d="M 0 345.6 
L 460.8 345.6 
L 460.8 0 
L 0 0 
z
" style="fill:#ffffff;"/>
  </g>
  <g id="axes_1">
   <g id="patch_2">
    <path d="M 57.6 307.584 
L 414.72 307.584 
L 414.72 41.472 
L 57.6 41.472 
z
" style="fill:#ffffff;"/>
   </g>
   <g id="matplotlib.axis_1">
    <g id="xtick_1">
     <g id="line2d_1">
      <defs>
       <path d="M 0 0 
L 0 3.5 
" id="m12f7f4c55b" style="stroke:#000000;stroke-width:0.8;"/>
      </defs>
      <g>
       <use style="stroke:#000000;stroke-width:0.8;" x="134.755393" xlink:href="#m12f7f4c55b" y="307.584"/>
      </g>
     </g>
     <g id="text_1">
      <!-- $\mathdefault{10^{1}}$ -->
      <g transform="translate(125.955393 322.182437)scale(0.1 -0.1)">
       <defs>
        <path d="M 794 531 
L 1825 531 
L 1825 4091 
L 703 3866 
L 703 4441 
L 1819 4666 
L 2450 4666 
L 2450 531 
L 3481 531 
L 3481 0 
L 794 0 
L 794 531 
z
" id="DejaVuSans-31" transform="scale(0.015625)"/>
        <path d="M 2034 4250 
Q 1547 4250 1301 3770 
Q 1056 3291 1056 2328 
Q 1056 1369 1301 889 
Q 1547 409 2034 409 
Q 2525 409 2770 889 
Q 3016 1369 3016 2328 
Q 3016 3291 2770 3770 
Q 2525 4250 2034 4250 
z
M 2034 4750 
Q 2819 4750 3233 4129 
Q 3647 3509 3647 2328 
Q 3647 1150 3233 529 
Q 2819 -91 2034 -91 
Q 1250 -91 836 529 
Q 422 1150 422 2328 
Q 422 3509 836 4129 
Q 1250 4750 2034 4750 
z
" id="DejaVuSans-30" transform="scale(0.015625)"/>
       </defs>
       <use transform="translate(0 0.684375)" xlink:href="#DejaVuSans-31"/>
       <use transform="translate(63.623047 0.684375)" xlink:href="#DejaVuSans-30"/>
       <use transform="translate(128.203125 38.965625)scale(0.7)" xlink:href="#DejaVuSans-31"/>
      </g>
     </g>
    </g>
    <g id="xtick_2">
     <g id="line2d_2">
      <g>
       <use style="stroke:#000000;stroke-width:0.8;" x="213.636533" xlink:href="#m12f7f4c55b" y="307.584"/>
      </g>
     </g>
     <g id="text_2">
      <!-- $\mathdefault{10^{2}}$ -->
      <g transform="translate(204.836533 322.182437)scale(0.1 -0.1)">
       <defs>
        <path d="M 1228 531 
L 3431 531 
L 3431 0 
L 469 0 
L 469 531 
Q 828 903 1448 1529 
Q 2069 2156 2228 2338 
Q 2531 2678 2651 2914 
Q 2772 3150 2772 3378 
Q 2772 3750 2511 3984 
Q 2250 4219 1831 4219 
Q 1534 4219 1204 4116 
Q 875 4013 500 3803 
L 500 4441 
Q 881 4594 1212 4672 
Q 1544 4750 1819 4750 
Q 2544 4750 2975 4387 
Q 3406 4025 3406 3419 
Q 3406 3131 3298 2873 
Q 3191 2616 2906 2266 
Q 2828 2175 2409 1742 
Q 1991 1309 1228 531 
z
" id="DejaVuSans-32" transform="scale(0.015625)"/>
       </defs>
       <use transform="translate(0 0.765625)" xlink:href="#DejaVuSans-31"/>
       <use transform="translate(63.623047 0.765625)" xlink:href="#DejaVuSans-30"/>
       <use transform="translate(128.203125 39.046875)scale(0.7)" xlink:href="#DejaVuSans-32"/>
      </g>
     </g>
    </g>
    <g id="xtick_3">
     <g id="line2d_3">
      <g>
       <use style="stroke:#000000;stroke-width:0.8;" x="292.517672" xlink:href="#m12f7f4c55b" y="307.584"/>
      </g>
     </g>
     <g id="text_3">
      <!-- $\mathdefault{10^{3}}$ -->
      <g transform="translate(283.717672 322.182437)scale(0.1 -0.1)">
       <defs>
        <path d="M 2597 2516 
Q 3050 2419 3304 2112 
Q 3559 1806 3559 1356 
Q 3559 666 3084 287 
Q 2609 -91 1734 -91 
Q 1441 -91 1130 -33 
Q 819 25 488 141 
L 488 750 
Q 750 597 1062 519 
Q 1375 441 1716 441 
Q 2309 441 2620 675 
Q 2931 909 2931 1356 
Q 2931 1769 2642 2001 
Q 2353 2234 1838 2234 
L 1294 2234 
L 1294 2753 
L 1863 2753 
Q 2328 2753 2575 2939 
Q 2822 3125 2822 3475 
Q 2822 3834 2567 4026 
Q 2313 4219 1838 4219 
Q 1578 4219 1281 4162 
Q 984 4106 628 3988 
L 628 4550 
Q 988 4650 1302 4700 
Q 1616 4750 1894 4750 
Q 2613 4750 3031 4423 
Q 3450 4097 3450 3541 
Q 3450 3153 3228 2886 
Q 3006 2619 2597 2516 
z
" id="DejaVuSans-33" transform="scale(0.015625)"/>
       </defs>
       <use transform="translate(0 0.765625)" xlink:href="#DejaVuSans-31"/>
       <use transform="translate(63.623047 0.765625)" xlink:href="#DejaVuSans-30"/>
       <use transform="translate(128.203125 39.046875)scale(0.7)" xlink:href="#DejaVuSans-33"/>
      </g>
     </g>
    </g>
    <g id="xtick_4">
     <g id="line2d_4">
      <g>
       <use style="stroke:#000000;stroke-width:0.8;" x="371.398812" xlink:href="#m12f7f4c55b" y="307.584"/>
      </g>
     </g>
     <g id="text_4">
      <!-- $\mathdefault{10^{4}}$ -->
      <g transform="translate(362.598812 322.182437)scale(0.1 -0.1)">
       <defs>
        <path d="M 2419 4116 
L 825 1625 
L 2419 1625 
L 2419 4116 
z
M 2253 4666 
L 3047 4666 
L 3047 1625 
L 3713 1625 
L 3713 1100 
L 3047 1100 
L 3047 0 
L 2419 0 
L 2419 1100 
L 313 1100 
L 313 1709 
L 2253 4666 
z
" id="DejaVuSans-34" transform="scale(0.015625)"/>
       </defs>
       <use transform="translate(0 0.684375)" xlink:href="#DejaVuSans-31"/>
       <use transform="translate(63.623047 0.684375)" xlink:href="#DejaVuSans-30"/>
       <use transform="translate(128.203125 38.965625)scale(0.7)" xlink:href="#DejaVuSans-34"/>
      </g>
     </g>
    </g>
    <g id="xtick_5">
     <g id="line2d_5">
      <defs>
       <path d="M 0 0 
L 0 2 
" id="m37354972b6" style="stroke:#000000;stroke-width:0.6;"/>
      </defs>
      <g>
       <use style="stroke:#000000;stroke-width:0.6;" x="79.619843" xlink:href="#m37354972b6" y="307.584"/>
      </g>
     </g>
    </g>
    <g id="xtick_6">
     <g id="line2d_6">
      <g>
       <use style="stroke:#000000;stroke-width:0.6;" x="93.510122" xlink:href="#m37354972b6" y="307.584"/>
      </g>
     </g>
    </g>
    <g id="xtick_7">
     <g id="line2d_7">
      <g>
       <use style="stroke:#000000;stroke-width:0.6;" x="103.365432" xlink:href="#m37354972b6" y="307.584"/>
      </g>
     </g>
    </g>
    <g id="xtick_8">
     <g id="line2d_8">
      <g>
       <use style="stroke:#000000;stroke-width:0.6;" x="111.009804" xlink:href="#m37354972b6" y="307.584"/>
      </g>
     </g>
    </g>
    <g id="xtick_9">
     <g id="line2d_9">
      <g>
       <use style="stroke:#000000;stroke-width:0.6;" x="117.255711" xlink:href="#m37354972b6" y="307.584"/>
      </g>
     </g>
    </g>
    <g id="xtick_10">
     <g id="line2d_10">
      <g>
       <use style="stroke:#000000;stroke-width:0.6;" x="122.53655" xlink:href="#m37354972b6" y="307.584"/>
      </g>
     </g>
    </g>
    <g id="xtick_11">
     <g id="line2d_11">
      <g>
       <use style="stroke:#000000;stroke-width:0.6;" x="127.111021" xlink:href="#m37354972b6" y="307.584"/>
      </g>
     </g>
    </g>
    <g id="xtick_12">
     <g id="line2d_12">
      <g>
       <use style="stroke:#000000;stroke-width:0.6;" x="131.14599" xlink:href="#m37354972b6" y="307.584"/>
      </g>
     </g>
    </g>
    <g id="xtick_13">
     <g id="line2d_13">
      <g>
       <use style="stroke:#000000;stroke-width:0.6;" x="158.500982" xlink:href="#m37354972b6" y="307.584"/>
      </g>
     </g>
    </g>
    <g id="xtick_14">
     <g id="line2d_14">
      <g>
       <use style="stroke:#000000;stroke-width:0.6;" x="172.391261" xlink:href="#m37354972b6" y="307.584"/>
      </g>
     </g>
    </g>
    <g id="xtick_15">
     <g id="line2d_15">
      <g>
       <use style="stroke:#000000;stroke-width:0.6;" x="182.246571" xlink:href="#m37354972b6" y="307.584"/>
      </g>
     </g>
    </g>
    <g id="xtick_16">
     <g id="line2d_16">
      <g>
       <use style="stroke:#000000;stroke-width:0.6;" x="189.890944" xlink:href="#m37354972b6" y="307.584"/>
      </g>
     </g>
    </g>
    <g id="xtick_17">
     <g id="line2d_17">
      <g>
       <use style="stroke:#000000;stroke-width:0.6;" x="196.136851" xlink:href="#m37354972b6" y="307.584"/>
      </g>
     </g>
    </g>
    <g id="xtick_18">
     <g id="line2d_18">
      <g>
       <use style="stroke:#000000;stroke-width:0.6;" x="201.41769" xlink:href="#m37354972b6" y="307.584"/>
      </g>
     </g>
    </g>
    <g id="xtick_19">
     <g id="line2d_19">
      <g>
       <use style="stroke:#000000;stroke-width:0.6;" x="205.99216" xlink:href="#m37354972b6" y="307.584"/>
      </g>
     </g>
    </g>
    <g id="xtick_20">
     <g id="line2d_20">
      <g>
       <use style="stroke:#000000;stroke-width:0.6;" x="210.02713" xlink:href="#m37354972b6" y="307.584"/>
      </g>
     </g>
    </g>
    <g id="xtick_21">
     <g id="line2d_21">
      <g>
       <use style="stroke:#000000;stroke-width:0.6;" x="237.382122" xlink:href="#m37354972b6" y="307.584"/>
      </g>
     </g>
    </g>
    <g id="xtick_22">
     <g id="line2d_22">
      <g>
       <use style="stroke:#000000;stroke-width:0.6;" x="251.272401" xlink:href="#m37354972b6" y="307.584"/>
      </g>
     </g>
    </g>
    <g id="xtick_23">
     <g id="line2d_23">
      <g>
       <use style="stroke:#000000;stroke-width:0.6;" x="261.127711" xlink:href="#m37354972b6" y="307.584"/>
      </g>
     </g>
    </g>
    <g id="xtick_24">
     <g id="line2d_24">
      <g>
       <use style="stroke:#000000;stroke-width:0.6;" x="268.772083" xlink:href="#m37354972b6" y="307.584"/>
      </g>
     </g>
    </g>
    <g id="xtick_25">
     <g id="line2d_25">
      <g>
       <use style="stroke:#000000;stroke-width:0.6;" x="275.01799" xlink:href="#m37354972b6" y="307.584"/>
      </g>
     </g>
    </g>
    <g id="xtick_26">
     <g id="line2d_26">
      <g>
       <use style="stroke:#000000;stroke-width:0.6;" x="280.298829" xlink:href="#m37354972b6" y="307.584"/>
      </g>
     </g>
    </g>
    <g id="xtick_27">
     <g id="line2d_27">
      <g>
       <use style="stroke:#000000;stroke-width:0.6;" x="284.8733" xlink:href="#m37354972b6" y="307.584"/>
      </g>
     </g>
    </g>
    <g id="xtick_28">
     <g id="line2d_28">
      <g>
       <use style="stroke:#000000;stroke-width:0.6;" x="288.908269" xlink:href="#m37354972b6" y="307.584"/>
      </g>
     </g>
    </g>
    <g id="xtick_29">
     <g id="line2d_29">
      <g>
       <use style="stroke:#000000;stroke-width:0.6;" x="316.263261" xlink:href="#m37354972b6" y="307.584"/>
      </g>
     </g>
    </g>
    <g id="xtick_30">
     <g id="line2d_30">
      <g>
       <use style="stroke:#000000;stroke-width:0.6;" x="330.15354" xlink:href="#m37354972b6" y="307.584"/>
      </g>
     </g>
    </g>
    <g id="xtick_31">
     <g id="line2d_31">
      <g>
       <use style="stroke:#000000;stroke-width:0.6;" x="340.00885" xlink:href="#m37354972b6" y="307.584"/>
      </g>
     </g>
    </g>
    <g id="xtick_32">
     <g id="line2d_32">
      <g>
       <use style="stroke:#000000;stroke-width:0.6;" x="347.653222" xlink:href="#m37354972b6" y="307.584"/>
      </g>
     </g>
    </g>
    <g id="xtick_33">
     <g id="line2d_33">
      <g>
       <use style="stroke:#000000;stroke-width:0.6;" x="353.899129" xlink:href="#m37354972b6" y="307.584"/>
      </g>
     </g>
    </g>
    <g id="xtick_34">
     <g id="line2d_34">
      <g>
       <use style="stroke:#000000;stroke-width:0.6;" x="359.179968" xlink:href="#m37354972b6" y="307.584"/>
      </g>
     </g>
    </g>
    <g id="xtick_35">
     <g id="line2d_35">
      <g>
       <use style="stroke:#000000;stroke-width:0.6;" x="363.754439" xlink:href="#m37354972b6" y="307.584"/>
      </g>
     </g>
    </g>
    <g id="xtick_36">
     <g id="line2d_36">
      <g>
       <use style="stroke:#000000;stroke-width:0.6;" x="367.789409" xlink:href="#m37354972b6" y="307.584"/>
      </g>
     </g>
    </g>
    <g id="xtick_37">
     <g id="line2d_37">
      <g>
       <use style="stroke:#000000;stroke-width:0.6;" x="395.144401" xlink:href="#m37354972b6" y="307.584"/>
      </g>
     </g>
    </g>
    <g id="xtick_38">
     <g id="line2d_38">
      <g>
       <use style="stroke:#000000;stroke-width:0.6;" x="409.03468" xlink:href="#m37354972b6" y="307.584"/>
      </g>
     </g>
    </g>
    <g id="text_5">
     <!-- Frequency (Hz) -->
     <g transform="translate(198.455312 335.860562)scale(0.1 -0.1)">
      <defs>
       <path d="M 628 4666 
L 3309 4666 
L 3309 4134 
L 1259 4134 
L 1259 2759 
L 3109 2759 
L 3109 2228 
L 1259 2228 
L 1259 0 
L 628 0 
L 628 4666 
z
" id="DejaVuSans-46" transform="scale(0.015625)"/>
       <path d="M 2631 2963 
Q 2534 3019 2420 3045 
Q 2306 3072 2169 3072 
Q 1681 3072 1420 2755 
Q 1159 2438 1159 1844 
L 1159 0 
L 581 0 
L 581 3500 
L 1159 3500 
L 1159 2956 
Q 1341 3275 1631 3429 
Q 1922 3584 2338 3584 
Q 2397 3584 2469 3576 
Q 2541 3569 2628 3553 
L 2631 2963 
z
" id="DejaVuSans-72" transform="scale(0.015625)"/>
       <path d="M 3597 1894 
L 3597 1613 
L 953 1613 
Q 991 1019 1311 708 
Q 1631 397 2203 397 
Q 2534 397 2845 478 
Q 3156 559 3463 722 
L 3463 178 
Q 3153 47 2828 -22 
Q 2503 -91 2169 -91 
Q 1331 -91 842 396 
Q 353 884 353 1716 
Q 353 2575 817 3079 
Q 1281 3584 2069 3584 
Q 2775 3584 3186 3129 
Q 3597 2675 3597 1894 
z
M 3022 2063 
Q 3016 2534 2758 2815 
Q 2500 3097 2075 3097 
Q 1594 3097 1305 2825 
Q 1016 2553 972 2059 
L 3022 2063 
z
" id="DejaVuSans-65" transform="scale(0.015625)"/>
       <path d="M 947 1747 
Q 947 1113 1208 752 
Q 1469 391 1925 391 
Q 2381 391 2643 752 
Q 2906 1113 2906 1747 
Q 2906 2381 2643 2742 
Q 2381 3103 1925 3103 
Q 1469 3103 1208 2742 
Q 947 2381 947 1747 
z
M 2906 525 
Q 2725 213 2448 61 
Q 2172 -91 1784 -91 
Q 1150 -91 751 415 
Q 353 922 353 1747 
Q 353 2572 751 3078 
Q 1150 3584 1784 3584 
Q 2172 3584 2448 3432 
Q 2725 3281 2906 2969 
L 2906 3500 
L 3481 3500 
L 3481 -1331 
L 2906 -1331 
L 2906 525 
z
" id="DejaVuSans-71" transform="scale(0.015625)"/>
       <path d="M 544 1381 
L 544 3500 
L 1119 3500 
L 1119 1403 
Q 1119 906 1312 657 
Q 1506 409 1894 409 
Q 2359 409 2629 706 
Q 2900 1003 2900 1516 
L 2900 3500 
L 3475 3500 
L 3475 0 
L 2900 0 
L 2900 538 
Q 2691 219 2414 64 
Q 2138 -91 1772 -91 
Q 1169 -91 856 284 
Q 544 659 544 1381 
z
M 1991 3584 
L 1991 3584 
z
" id="DejaVuSans-75" transform="scale(0.015625)"/>
       <path d="M 3513 2113 
L 3513 0 
L 2938 0 
L 2938 2094 
Q 2938 2591 2744 2837 
Q 2550 3084 2163 3084 
Q 1697 3084 1428 2787 
Q 1159 2491 1159 1978 
L 1159 0 
L 581 0 
L 581 3500 
L 1159 3500 
L 1159 2956 
Q 1366 3272 1645 3428 
Q 1925 3584 2291 3584 
Q 2894 3584 3203 3211 
Q 3513 2838 3513 2113 
z
" id="DejaVuSans-6e" transform="scale(0.015625)"/>
       <path d="M 3122 3366 
L 3122 2828 
Q 2878 2963 2633 3030 
Q 2388 3097 2138 3097 
Q 1578 3097 1268 2742 
Q 959 2388 959 1747 
Q 959 1106 1268 751 
Q 1578 397 2138 397 
Q 2388 397 2633 464 
Q 2878 531 3122 666 
L 3122 134 
Q 2881 22 2623 -34 
Q 2366 -91 2075 -91 
Q 1284 -91 818 406 
Q 353 903 353 1747 
Q 353 2603 823 3093 
Q 1294 3584 2113 3584 
Q 2378 3584 2631 3529 
Q 2884 3475 3122 3366 
z
" id="DejaVuSans-63" transform="scale(0.015625)"/>
       <path d="M 2059 -325 
Q 1816 -950 1584 -1140 
Q 1353 -1331 966 -1331 
L 506 -1331 
L 506 -850 
L 844 -850 
Q 1081 -850 1212 -737 
Q 1344 -625 1503 -206 
L 1606 56 
L 191 3500 
L 800 3500 
L 1894 763 
L 2988 3500 
L 3597 3500 
L 2059 -325 
z
" id="DejaVuSans-79" transform="scale(0.015625)"/>
       <path id="DejaVuSans-20" transform="scale(0.015625)"/>
       <path d="M 1984 4856 
Q 1566 4138 1362 3434 
Q 1159 2731 1159 2009 
Q 1159 1288 1364 580 
Q 1569 -128 1984 -844 
L 1484 -844 
Q 1016 -109 783 600 
Q 550 1309 550 2009 
Q 550 2706 781 3412 
Q 1013 4119 1484 4856 
L 1984 4856 
z
" id="DejaVuSans-28" transform="scale(0.015625)"/>
       <path d="M 628 4666 
L 1259 4666 
L 1259 2753 
L 3553 2753 
L 3553 4666 
L 4184 4666 
L 4184 0 
L 3553 0 
L 3553 2222 
L 1259 2222 
L 1259 0 
L 628 0 
L 628 4666 
z
" id="DejaVuSans-48" transform="scale(0.015625)"/>
       <path d="M 353 3500 
L 3084 3500 
L 3084 2975 
L 922 459 
L 3084 459 
L 3084 0 
L 275 0 
L 275 525 
L 2438 3041 
L 353 3041 
L 353 3500 
z
" id="DejaVuSans-7a" transform="scale(0.015625)"/>
       <path d="M 513 4856 
L 1013 4856 
Q 1481 4119 1714 3412 
Q 1947 2706 1947 2009 
Q 1947 1309 1714 600 
Q 1481 -109 1013 -844 
L 513 -844 
Q 928 -128 1133 580 
Q 1338 1288 1338 2009 
Q 1338 2731 1133 3434 
Q 928 4138 513 4856 
z
" id="DejaVuSans-29" transform="scale(0.015625)"/>
      </defs>
      <use xlink:href="#DejaVuSans-46"/>
      <use x="50.269531" xlink:href="#DejaVuSans-72"/>
      <use x="89.132812" xlink:href="#DejaVuSans-65"/>
      <use x="150.65625" xlink:href="#DejaVuSans-71"/>
      <use x="214.132812" xlink:href="#DejaVuSans-75"/>
      <use x="277.511719" xlink:href="#DejaVuSans-65"/>
      <use x="339.035156" xlink:href="#DejaVuSans-6e"/>
      <use x="402.414062" xlink:href="#DejaVuSans-63"/>
      <use x="457.394531" xlink:href="#DejaVuSans-79"/>
      <use x="516.574219" xlink:href="#DejaVuSans-20"/>
      <use x="548.361328" xlink:href="#DejaVuSans-28"/>
      <use x="587.375" xlink:href="#DejaVuSans-48"/>
      <use x="662.570312" xlink:href="#DejaVuSans-7a"/>
      <use x="715.060547" xlink:href="#DejaVuSans-29"/>
     </g>
    </g>
   </g>
   <g id="matplotlib.axis_2">
    <g id="ytick_1">
     <g id="line2d_39">
      <defs>
       <path d="M 0 0 
L -3.5 0 
" id="m9f5d9c0aa4" style="stroke:#000000;stroke-width:0.8;"/>
      </defs>
      <g>
       <use style="stroke:#000000;stroke-width:0.8;" x="57.6" xlink:href="#m9f5d9c0aa4" y="278.153433"/>
      </g>
     </g>
     <g id="text_6">
      <!-- −120 -->
      <g transform="translate(23.132812 281.952651)scale(0.1 -0.1)">
       <defs>
        <path d="M 678 2272 
L 4684 2272 
L 4684 1741 
L 678 1741 
L 678 2272 
z
" id="DejaVuSans-2212" transform="scale(0.015625)"/>
       </defs>
       <use xlink:href="#DejaVuSans-2212"/>
       <use x="83.789062" xlink:href="#DejaVuSans-31"/>
       <use x="147.412109" xlink:href="#DejaVuSans-32"/>
       <use x="211.035156" xlink:href="#DejaVuSans-30"/>
      </g>
     </g>
    </g>
    <g id="ytick_2">
     <g id="line2d_40">
      <g>
       <use style="stroke:#000000;stroke-width:0.8;" x="57.6" xlink:href="#m9f5d9c0aa4" y="240.722527"/>
      </g>
     </g>
     <g id="text_7">
      <!-- −100 -->
      <g transform="translate(23.132812 244.521746)scale(0.1 -0.1)">
       <use xlink:href="#DejaVuSans-2212"/>
       <use x="83.789062" xlink:href="#DejaVuSans-31"/>
       <use x="147.412109" xlink:href="#DejaVuSans-30"/>
       <use x="211.035156" xlink:href="#DejaVuSans-30"/>
      </g>
     </g>
    </g>
    <g id="ytick_3">
     <g id="line2d_41">
      <g>
       <use style="stroke:#000000;stroke-width:0.8;" x="57.6" xlink:href="#m9f5d9c0aa4" y="203.291622"/>
      </g>
     </g>
     <g id="text_8">
      <!-- −80 -->
      <g transform="translate(29.495313 207.09084)scale(0.1 -0.1)">
       <defs>
        <path d="M 2034 2216 
Q 1584 2216 1326 1975 
Q 1069 1734 1069 1313 
Q 1069 891 1326 650 
Q 1584 409 2034 409 
Q 2484 409 2743 651 
Q 3003 894 3003 1313 
Q 3003 1734 2745 1975 
Q 2488 2216 2034 2216 
z
M 1403 2484 
Q 997 2584 770 2862 
Q 544 3141 544 3541 
Q 544 4100 942 4425 
Q 1341 4750 2034 4750 
Q 2731 4750 3128 4425 
Q 3525 4100 3525 3541 
Q 3525 3141 3298 2862 
Q 3072 2584 2669 2484 
Q 3125 2378 3379 2068 
Q 3634 1759 3634 1313 
Q 3634 634 3220 271 
Q 2806 -91 2034 -91 
Q 1263 -91 848 271 
Q 434 634 434 1313 
Q 434 1759 690 2068 
Q 947 2378 1403 2484 
z
M 1172 3481 
Q 1172 3119 1398 2916 
Q 1625 2713 2034 2713 
Q 2441 2713 2670 2916 
Q 2900 3119 2900 3481 
Q 2900 3844 2670 4047 
Q 2441 4250 2034 4250 
Q 1625 4250 1398 4047 
Q 1172 3844 1172 3481 
z
" id="DejaVuSans-38" transform="scale(0.015625)"/>
       </defs>
       <use xlink:href="#DejaVuSans-2212"/>
       <use x="83.789062" xlink:href="#DejaVuSans-38"/>
       <use x="147.412109" xlink:href="#DejaVuSans-30"/>
      </g>
     </g>
    </g>
    <g id="ytick_4">
     <g id="line2d_42">
      <g>
       <use style="stroke:#000000;stroke-width:0.8;" x="57.6" xlink:href="#m9f5d9c0aa4" y="165.860716"/>
      </g>
     </g>
     <g id="text_9">
      <!-- −60 -->
      <g transform="translate(29.495313 169.659935)scale(0.1 -0.1)">
       <defs>
        <path d="M 2113 2584 
Q 1688 2584 1439 2293 
Q 1191 2003 1191 1497 
Q 1191 994 1439 701 
Q 1688 409 2113 409 
Q 2538 409 2786 701 
Q 3034 994 3034 1497 
Q 3034 2003 2786 2293 
Q 2538 2584 2113 2584 
z
M 3366 4563 
L 3366 3988 
Q 3128 4100 2886 4159 
Q 2644 4219 2406 4219 
Q 1781 4219 1451 3797 
Q 1122 3375 1075 2522 
Q 1259 2794 1537 2939 
Q 1816 3084 2150 3084 
Q 2853 3084 3261 2657 
Q 3669 2231 3669 1497 
Q 3669 778 3244 343 
Q 2819 -91 2113 -91 
Q 1303 -91 875 529 
Q 447 1150 447 2328 
Q 447 3434 972 4092 
Q 1497 4750 2381 4750 
Q 2619 4750 2861 4703 
Q 3103 4656 3366 4563 
z
" id="DejaVuSans-36" transform="scale(0.015625)"/>
       </defs>
       <use xlink:href="#DejaVuSans-2212"/>
       <use x="83.789062" xlink:href="#DejaVuSans-36"/>
       <use x="147.412109" xlink:href="#DejaVuSans-30"/>
      </g>
     </g>
    </g>
    <g id="ytick_5">
     <g id="line2d_43">
      <g>
       <use style="stroke:#000000;stroke-width:0.8;" x="57.6" xlink:href="#m9f5d9c0aa4" y="128.429811"/>
      </g>
     </g>
     <g id="text_10">
      <!-- −40 -->
      <g transform="translate(29.495313 132.22903)scale(0.1 -0.1)">
       <use xlink:href="#DejaVuSans-2212"/>
       <use x="83.789062" xlink:href="#DejaVuSans-34"/>
       <use x="147.412109" xlink:href="#DejaVuSans-30"/>
      </g>
     </g>
    </g>
    <g id="ytick_6">
     <g id="line2d_44">
      <g>
       <use style="stroke:#000000;stroke-width:0.8;" x="57.6" xlink:href="#m9f5d9c0aa4" y="90.998905"/>
      </g>
     </g>
     <g id="text_11">
      <!-- −20 -->
      <g transform="translate(29.495313 94.798124)scale(0.1 -0.1)">
       <use xlink:href="#DejaVuSans-2212"/>
       <use x="83.789062" xlink:href="#DejaVuSans-32"/>
       <use x="147.412109" xlink:href="#DejaVuSans-30"/>
      </g>
     </g>
    </g>
    <g id="ytick_7">
     <g id="line2d_45">
      <g>
       <use style="stroke:#000000;stroke-width:0.8;" x="57.6" xlink:href="#m9f5d9c0aa4" y="53.568"/>
      </g>
     </g>
     <g id="text_12">
      <!-- 0 -->
      <g transform="translate(44.2375 57.367219)scale(0.1 -0.1)">
       <use xlink:href="#DejaVuSans-30"/>
      </g>
     </g>
    </g>
    <g id="text_13">
     <!-- Volume (dB) -->
     <g transform="translate(17.053125 205.220188)rotate(-90)scale(0.1 -0.1)">
      <defs>
       <path d="M 1831 0 
L 50 4666 
L 709 4666 
L 2188 738 
L 3669 4666 
L 4325 4666 
L 2547 0 
L 1831 0 
z
" id="DejaVuSans-56" transform="scale(0.015625)"/>
       <path d="M 1959 3097 
Q 1497 3097 1228 2736 
Q 959 2375 959 1747 
Q 959 1119 1226 758 
Q 1494 397 1959 397 
Q 2419 397 2687 759 
Q 2956 1122 2956 1747 
Q 2956 2369 2687 2733 
Q 2419 3097 1959 3097 
z
M 1959 3584 
Q 2709 3584 3137 3096 
Q 3566 2609 3566 1747 
Q 3566 888 3137 398 
Q 2709 -91 1959 -91 
Q 1206 -91 779 398 
Q 353 888 353 1747 
Q 353 2609 779 3096 
Q 1206 3584 1959 3584 
z
" id="DejaVuSans-6f" transform="scale(0.015625)"/>
       <path d="M 603 4863 
L 1178 4863 
L 1178 0 
L 603 0 
L 603 4863 
z
" id="DejaVuSans-6c" transform="scale(0.015625)"/>
       <path d="M 3328 2828 
Q 3544 3216 3844 3400 
Q 4144 3584 4550 3584 
Q 5097 3584 5394 3201 
Q 5691 2819 5691 2113 
L 5691 0 
L 5113 0 
L 5113 2094 
Q 5113 2597 4934 2840 
Q 4756 3084 4391 3084 
Q 3944 3084 3684 2787 
Q 3425 2491 3425 1978 
L 3425 0 
L 2847 0 
L 2847 2094 
Q 2847 2600 2669 2842 
Q 2491 3084 2119 3084 
Q 1678 3084 1418 2786 
Q 1159 2488 1159 1978 
L 1159 0 
L 581 0 
L 581 3500 
L 1159 3500 
L 1159 2956 
Q 1356 3278 1631 3431 
Q 1906 3584 2284 3584 
Q 2666 3584 2933 3390 
Q 3200 3197 3328 2828 
z
" id="DejaVuSans-6d" transform="scale(0.015625)"/>
       <path d="M 2906 2969 
L 2906 4863 
L 3481 4863 
L 3481 0 
L 2906 0 
L 2906 525 
Q 2725 213 2448 61 
Q 2172 -91 1784 -91 
Q 1150 -91 751 415 
Q 353 922 353 1747 
Q 353 2572 751 3078 
Q 1150 3584 1784 3584 
Q 2172 3584 2448 3432 
Q 2725 3281 2906 2969 
z
M 947 1747 
Q 947 1113 1208 752 
Q 1469 391 1925 391 
Q 2381 391 2643 752 
Q 2906 1113 2906 1747 
Q 2906 2381 2643 2742 
Q 2381 3103 1925 3103 
Q 1469 3103 1208 2742 
Q 947 2381 947 1747 
z
" id="DejaVuSans-64" transform="scale(0.015625)"/>
       <path d="M 1259 2228 
L 1259 519 
L 2272 519 
Q 2781 519 3026 730 
Q 3272 941 3272 1375 
Q 3272 1813 3026 2020 
Q 2781 2228 2272 2228 
L 1259 2228 
z
M 1259 4147 
L 1259 2741 
L 2194 2741 
Q 2656 2741 2882 2914 
Q 3109 3088 3109 3444 
Q 3109 3797 2882 3972 
Q 2656 4147 2194 4147 
L 1259 4147 
z
M 628 4666 
L 2241 4666 
Q 2963 4666 3353 4366 
Q 3744 4066 3744 3513 
Q 3744 3084 3544 2831 
Q 3344 2578 2956 2516 
Q 3422 2416 3680 2098 
Q 3938 1781 3938 1306 
Q 3938 681 3513 340 
Q 3088 0 2303 0 
L 628 0 
L 628 4666 
z
" id="DejaVuSans-42" transform="scale(0.015625)"/>
      </defs>
      <use xlink:href="#DejaVuSans-56"/>
      <use x="60.658203" xlink:href="#DejaVuSans-6f"/>
      <use x="121.839844" xlink:href="#DejaVuSans-6c"/>
      <use x="149.623047" xlink:href="#DejaVuSans-75"/>
      <use x="213.001953" xlink:href="#DejaVuSans-6d"/>
      <use x="310.414062" xlink:href="#DejaVuSans-65"/>
      <use x="371.9375" xlink:href="#DejaVuSans-20"/>
      <use x="403.724609" xlink:href="#DejaVuSans-28"/>
      <use x="442.738281" xlink:href="#DejaVuSans-64"/>
      <use x="506.214844" xlink:href="#DejaVuSans-42"/>
      <use x="574.818359" xlink:href="#DejaVuSans-29"/>
     </g>
    </g>
   </g>
   <g id="line2d_46">
    <path clip-path="url(#p629953456a)" d="M -1 138.479709 
L 73.832727 138.482909 
L 97.578316 145.631869 
L 111.468595 145.557062 
L 121.323905 153.839587 
L 128.968278 141.767047 
L 135.214185 158.823032 
L 140.495024 147.314443 
L 145.069494 136.336766 
L 149.104464 144.732478 
L 152.713867 145.161975 
L 155.978969 141.134729 
L 158.959774 140.40049 
L 161.701848 171.409483 
L 164.240613 152.618094 
L 166.604146 158.939474 
L 168.815084 155.22553 
L 170.89194 162.740451 
L 174.702268 133.255814 
L 176.459456 126.707435 
L 178.130892 122.086897 
L 179.724558 112.353815 
L 181.247371 138.529421 
L 182.705363 140.173673 
L 184.103828 142.328806 
L 185.447437 134.571171 
L 186.740332 140.393797 
L 187.986202 137.262874 
L 189.188348 131.273564 
L 190.349735 140.166171 
L 191.473037 135.36948 
L 192.560673 132.884813 
L 193.614837 141.476305 
L 194.637529 136.85298 
L 195.630574 134.224813 
L 196.595642 133.110972 
L 197.534266 125.16002 
L 198.447857 128.18715 
L 199.337716 138.399111 
L 200.205045 135.271733 
L 201.050956 167.62395 
L 202.68258 122.065973 
L 203.470147 122.850015 
L 204.240014 123.098877 
L 204.99296 125.307714 
L 205.729712 174.414442 
L 206.450952 127.42491 
L 207.15732 123.360311 
L 207.849417 122.052505 
L 208.527808 112.465813 
L 209.193026 108.327312 
L 209.845573 109.318936 
L 210.485921 109.387834 
L 211.114519 104.347778 
L 211.731791 103.365306 
L 212.338137 109.89468 
L 212.933937 102.347615 
L 213.519552 89.947357 
L 214.095324 87.412224 
L 214.661579 89.790502 
L 215.76676 79.926585 
L 216.306262 82.636914 
L 216.837399 84.690411 
L 217.360426 75.945981 
L 217.875588 73.101383 
L 218.383118 75.388069 
L 218.883239 79.762784 
L 219.376163 75.828292 
L 219.862095 65.414731 
L 220.341231 58.290838 
L 220.813758 54.585754 
L 221.279855 53.568 
L 221.739696 54.752685 
L 222.193446 57.637968 
L 222.641265 62.263417 
L 224.3762 90.303217 
L 224.796545 112.819874 
L 225.62207 94.251382 
L 226.027491 95.762946 
L 226.428169 105.916814 
L 226.824216 106.212872 
L 227.215736 97.685713 
L 227.602832 95.206938 
L 227.985603 98.740083 
L 228.364145 110.765859 
L 229.108905 108.482018 
L 229.475301 116.481776 
L 229.837819 115.818823 
L 230.196541 105.075457 
L 230.551545 104.722955 
L 230.902909 105.410278 
L 231.595006 111.291874 
L 231.935881 113.579091 
L 232.273397 107.981433 
L 232.607621 108.725079 
L 233.266442 97.451999 
L 233.591162 99.356505 
L 233.912832 113.249076 
L 234.23151 89.934703 
L 234.547251 87.025701 
L 234.860108 104.399617 
L 235.170134 91.823963 
L 235.47738 87.887467 
L 236.083726 104.305693 
L 236.382921 96.515608 
L 236.679526 99.105336 
L 237.265141 85.92698 
L 237.554237 93.118019 
L 237.840913 108.378523 
L 238.12521 86.331667 
L 238.407168 83.163349 
L 238.964215 98.756689 
L 239.239378 85.412925 
L 239.512349 83.213785 
L 239.783162 87.558542 
L 240.051851 100.669255 
L 240.582988 82.617571 
L 240.8455 84.027175 
L 241.106015 94.96229 
L 241.364565 90.575668 
L 241.621177 80.122899 
L 241.875882 78.269269 
L 242.128707 82.277596 
L 242.37968 90.408744 
L 242.876177 67.814736 
L 243.121752 62.307083 
L 243.36558 61.05183 
L 243.607684 64.112589 
L 243.84809 72.350497 
L 244.08682 71.88702 
L 244.559347 57.955657 
L 244.793188 55.861071 
L 245.025444 56.156622 
L 245.485285 57.693916 
L 245.712912 58.121632 
L 245.939036 59.005643 
L 246.163677 61.32771 
L 246.608587 74.891291 
L 247.047794 84.660316 
L 247.265304 85.45442 
L 247.696223 99.665839 
L 247.909667 86.021728 
L 248.121789 82.937457 
L 248.332606 83.838002 
L 248.750387 92.031487 
L 248.957383 83.912851 
L 249.163135 82.910974 
L 249.367659 87.548988 
L 249.77308 104.140654 
L 249.974005 89.233338 
L 250.173758 89.427189 
L 250.569805 108.939612 
L 250.766124 91.037263 
L 250.961325 85.01254 
L 251.15542 89.545032 
L 251.348421 112.430504 
L 251.731192 87.409892 
L 251.920986 85.319797 
L 252.109734 92.500909 
L 252.297447 128.944596 
L 252.484138 96.929103 
L 252.669817 87.804028 
L 252.854494 87.456772 
L 253.038182 99.50674 
L 253.22089 99.249428 
L 253.402628 85.598009 
L 253.583408 82.867288 
L 253.763238 85.057959 
L 253.94213 95.516542 
L 254.297135 76.110461 
L 254.473267 75.766536 
L 254.822838 92.265428 
L 255.168877 75.748551 
L 255.340595 79.197333 
L 255.68147 94.919744 
L 256.018987 78.095403 
L 256.186506 75.317507 
L 256.519107 78.083703 
L 256.84851 69.867135 
L 257.012031 69.707398 
L 257.174776 70.588371 
L 257.336751 69.446207 
L 257.658421 61.729591 
L 257.818131 61.069642 
L 257.977099 64.631675 
L 258.135333 72.998147 
L 258.449626 94.221666 
L 258.761061 73.585253 
L 259.069691 64.232758 
L 259.375564 57.654481 
L 259.678731 55.585502 
L 259.979239 54.612138 
L 260.12851 54.726691 
L 260.425115 58.933242 
L 260.865262 66.933452 
L 261.443464 92.745125 
L 261.728946 103.559238 
L 262.012068 94.217339 
L 262.29287 85.158398 
L 262.709804 101.814133 
L 262.847662 120.999322 
L 262.984967 110.355662 
L 263.257938 131.379818 
L 263.528751 115.658883 
L 263.663359 147.815893 
L 263.79744 124.787592 
L 263.930998 125.053383 
L 264.064038 116.279875 
L 264.328577 121.565622 
L 264.591089 116.172906 
L 264.851604 120.249971 
L 264.981123 130.614723 
L 265.2387 102.583778 
L 265.621471 108.643796 
L 265.748117 103.136653 
L 265.874296 105.052482 
L 266.25007 99.934341 
L 266.744773 77.642515 
L 266.989472 73.801583 
L 267.232435 75.554042 
L 267.353273 75.159181 
L 267.832409 67.846727 
L 267.951153 69.724437 
L 268.304936 79.378167 
L 268.538777 73.231143 
L 268.771033 66.600256 
L 268.886574 65.459945 
L 269.116491 67.406719 
L 269.458501 78.891927 
L 269.684625 89.690169 
L 269.797129 89.755072 
L 269.909266 87.859287 
L 270.132443 89.13529 
L 270.464507 94.757579 
L 270.574484 95.954738 
L 271.334589 126.917552 
L 271.441812 140.913273 
L 271.655256 116.150531 
L 271.761481 114.728609 
L 271.972949 121.014918 
L 272.183119 129.925216 
L 272.287723 129.717319 
L 272.392008 131.954594 
L 272.599631 129.536464 
L 272.702972 144.888144 
L 273.011139 109.753006 
L 273.316558 120.310008 
L 273.417762 121.214438 
L 273.518669 120.731819 
L 273.619279 119.162612 
L 273.719594 119.639878 
L 273.919347 123.100317 
L 274.216811 106.836319 
L 274.413694 102.368286 
L 274.609453 95.382803 
L 274.706914 95.715077 
L 275.09401 104.178296 
L 275.190105 103.997447 
L 275.381489 102.068345 
L 275.666575 97.883075 
L 275.761079 97.199785 
L 275.949308 107.401433 
L 276.136509 117.421063 
L 276.600083 95.943268 
L 276.783771 93.080468 
L 276.966479 94.629071 
L 277.057469 95.05817 
L 277.328997 99.100783 
L 277.508827 110.523275 
L 277.687719 122.177879 
L 277.776816 120.098202 
L 277.954317 107.516571 
L 278.130903 125.294826 
L 278.218856 124.135977 
L 278.481368 109.590587 
L 278.568427 111.154866 
L 278.741883 136.874698 
L 278.828284 135.52602 
L 279.000433 129.515078 
L 279.086184 134.663877 
L 279.171722 147.759418 
L 279.257046 142.381978 
L 279.342158 167.013174 
L 279.596233 135.074113 
L 279.764576 126.576969 
L 279.932095 128.428887 
L 280.015548 131.907573 
L 280.181848 128.107089 
L 280.264696 127.955094 
L 280.347344 128.59437 
L 280.512045 124.390399 
L 281.001448 102.876706 
L 281.08234 102.478396 
L 281.163041 102.565993 
L 281.323875 105.468466 
L 281.56372 112.388935 
L 281.643296 111.835621 
L 281.959766 102.524341 
L 282.038429 103.351104 
L 282.429056 122.30685 
L 282.738383 107.045317 
L 282.81528 107.369453 
L 283.044941 112.754292 
L 283.197197 109.559836 
L 283.273072 110.177436 
L 283.42432 121.125994 
L 283.499695 131.371415 
L 283.574904 131.159668 
L 283.799545 121.630732 
L 283.948491 131.276562 
L 284.022722 137.28806 
L 284.096793 135.058538 
L 284.244456 121.174718 
L 284.318049 121.596593 
L 284.537885 148.528478 
L 284.683662 137.42595 
L 284.828822 140.847859 
L 284.973369 171.929713 
L 285.045415 167.891886 
L 285.189053 138.167014 
L 285.260647 137.627243 
L 285.332091 137.943938 
L 285.403387 142.244191 
L 285.474535 140.363138 
L 285.757657 122.769558 
L 285.898346 127.505732 
L 286.108302 118.633939 
L 286.178002 121.061106 
L 286.247561 120.43672 
L 286.386256 114.535514 
L 286.524392 120.371166 
L 286.593251 119.213587 
L 286.661973 115.159946 
L 286.730557 115.350838 
L 286.867314 121.140155 
L 287.071431 118.56478 
L 287.543029 109.395876 
L 287.676587 118.429724 
L 287.875953 131.01049 
L 287.942152 131.058209 
L 288.205673 110.734595 
L 288.271238 109.908478 
L 288.336678 110.619288 
L 288.662014 119.488243 
L 288.791288 122.952059 
L 288.920076 141.574035 
L 288.984289 137.246133 
L 289.112356 131.140811 
L 289.17621 131.336857 
L 289.239945 129.032149 
L 289.303562 132.403484 
L 289.430442 154.673727 
L 289.619886 133.952376 
L 289.682801 132.939532 
L 289.745602 135.899469 
L 289.808287 157.122662 
L 289.870858 148.917637 
L 289.933315 149.67736 
L 290.057889 135.277249 
L 290.120006 139.447802 
L 290.305685 144.280134 
L 290.490362 136.966172 
L 290.61293 144.629446 
L 290.795963 124.405391 
L 290.856758 125.725397 
L 290.917445 124.348583 
L 291.098862 116.965548 
L 291.159122 118.973629 
L 291.219276 118.522803 
L 291.279325 119.005187 
L 291.458841 126.900133 
L 291.518471 124.681604 
L 291.577998 125.267036 
L 291.696742 134.852639 
L 291.75596 128.483197 
L 291.815076 132.96662 
L 291.933003 141.214026 
L 291.991814 137.822727 
L 292.226055 142.733467 
L 292.284366 141.506789 
L 292.400691 141.666926 
L 292.632163 124.966206 
L 292.689787 123.265867 
L 292.747314 123.278814 
L 292.862081 126.22188 
L 292.91932 124.043507 
L 292.976463 124.398016 
L 293.147325 127.397232 
L 293.20409 126.43068 
L 293.260761 127.613533 
L 293.317338 126.474542 
L 293.373822 123.977074 
L 293.654855 154.07255 
L 293.766625 138.877751 
L 293.822374 158.174846 
L 293.9336 127.545298 
L 294.044467 140.556111 
L 294.099765 131.134339 
L 294.154975 135.809639 
L 294.210096 162.854208 
L 294.320073 134.058616 
L 294.374929 148.726455 
L 294.429697 140.316898 
L 294.593479 128.569536 
L 294.647899 132.071774 
L 294.702234 147.415478 
L 294.756482 143.130872 
L 294.864721 123.514178 
L 294.918712 125.033541 
L 295.026441 134.596985 
L 295.133832 120.062868 
L 295.187401 120.837944 
L 295.294289 129.76177 
L 295.400845 116.074639 
L 295.50707 134.198909 
L 295.56006 127.004821 
L 295.612967 122.715514 
L 295.718538 144.443875 
L 295.771202 135.290836 
L 295.876286 125.636447 
L 295.98105 138.435904 
L 296.033312 131.762076 
L 296.085494 130.259156 
L 296.137597 140.454894 
L 296.189621 138.083812 
L 296.241566 127.029644 
L 296.293432 129.166559 
L 296.34522 136.555446 
L 296.396929 133.696741 
L 296.448561 132.151483 
L 296.602991 143.187316 
L 296.705559 130.553024 
L 296.756728 131.568577 
L 296.807821 132.706246 
L 296.858837 128.692007 
L 296.909778 130.084775 
L 296.960643 133.132161 
L 297.011433 129.719226 
L 297.062147 128.430622 
L 297.112787 131.767114 
L 297.163352 131.425816 
L 297.213842 128.292022 
L 297.264258 130.799451 
L 297.465183 178.591449 
L 297.565205 147.188042 
L 297.615107 162.871042 
L 297.664937 148.359774 
L 297.714693 141.775863 
L 297.764378 147.116928 
L 297.813991 168.211661 
L 297.863532 148.844574 
L 297.913002 150.474899 
L 297.9624 160.779962 
L 298.060983 136.969701 
L 298.110168 143.271638 
L 298.159283 144.506676 
L 298.208328 143.938005 
L 298.403807 160.353635 
L 298.50113 149.920875 
L 298.549688 150.818199 
L 298.598177 151.551987 
L 298.743235 140.792373 
L 298.791451 141.027406 
L 298.839599 139.390385 
L 298.935694 150.234018 
L 298.98364 146.186964 
L 299.031519 142.897336 
L 299.079332 144.76828 
L 299.127078 145.724033 
L 299.174757 144.693504 
L 299.269917 141.578914 
L 299.364814 152.116623 
L 299.459448 142.218716 
L 299.506668 156.770542 
L 299.553822 147.035365 
L 299.600912 140.007702 
L 299.647937 145.85478 
L 299.694897 146.133039 
L 299.835393 138.50951 
L 299.882098 137.864032 
L 299.928739 140.383284 
L 299.975316 135.940679 
L 300.02183 137.930053 
L 300.160995 149.244423 
L 300.253458 173.110696 
L 300.345672 149.499325 
L 300.391687 154.656379 
L 300.437639 152.117857 
L 300.48353 173.332848 
L 300.52936 163.569434 
L 300.712068 138.23406 
L 300.848462 140.716827 
L 301.119632 163.90213 
L 301.209547 153.047529 
L 301.343979 172.268583 
L 301.433308 148.137306 
L 301.477885 158.931556 
L 301.522405 199.025891 
L 301.566866 161.761415 
L 301.655617 164.932946 
L 301.744138 148.435337 
L 301.920497 177.330737 
L 302.095952 136.287252 
L 302.139676 134.947492 
L 302.226957 144.971455 
L 302.270514 144.247331 
L 302.357462 135.654011 
L 302.400854 138.352997 
L 302.487473 133.976816 
L 302.5307 137.383727 
L 302.573873 144.14067 
L 302.616991 139.125298 
L 302.660055 135.25236 
L 302.703066 135.449895 
L 302.917311 159.884073 
L 302.959999 151.716678 
L 303.002635 159.390007 
L 303.045217 157.417023 
L 303.21502 135.836963 
L 303.25734 146.32765 
L 303.299607 138.873079 
L 303.341822 138.1356 
L 303.468157 152.722866 
L 303.510165 150.874073 
L 303.635881 136.095571 
L 303.761138 156.18147 
L 303.885938 131.303552 
L 303.927437 131.726496 
L 304.010285 138.128471 
L 304.051634 164.27701 
L 304.134183 148.582149 
L 304.175383 162.28826 
L 304.216533 141.354856 
L 304.257634 136.768852 
L 304.298686 138.909052 
L 304.421546 173.832234 
L 304.584678 126.812684 
L 304.665954 130.574028 
L 304.787507 136.828439 
L 304.827929 136.33762 
L 304.948909 122.073482 
L 305.029326 122.734092 
L 305.109555 125.558271 
L 305.189596 124.611654 
L 305.229547 123.718574 
L 305.507904 134.917084 
L 305.665956 122.229336 
L 305.705355 122.897302 
L 305.862501 129.982498 
L 305.979889 120.509583 
L 306.018929 123.786854 
L 306.057924 122.044513 
L 306.174645 115.970755 
L 306.522442 130.875695 
L 306.75236 102.600894 
L 306.79053 103.061655 
L 306.904786 108.38176 
L 306.942786 108.290829 
L 307.13216 101.281253 
L 307.282909 114.099979 
L 307.320493 113.538182 
L 307.395537 102.026066 
L 307.432998 102.446699 
L 307.619688 117.087742 
L 307.656904 113.490074 
L 307.842382 98.597399 
L 307.879357 96.354022 
L 307.953189 97.725183 
L 308.026861 102.434732 
L 308.063638 100.448193 
L 308.173732 95.876125 
L 308.210352 96.353366 
L 308.246932 98.909849 
L 308.283474 96.203275 
L 308.319976 95.231991 
L 308.392865 95.751821 
L 308.465599 100.231322 
L 308.538179 99.874034 
L 308.574411 97.839864 
L 308.646761 99.436032 
L 308.718958 103.019806 
L 308.755 99.509262 
L 309.041977 82.637112 
L 309.113347 85.389724 
L 309.220124 92.171423 
L 309.255642 91.698694 
L 309.326569 85.365327 
L 309.432685 76.857846 
L 309.503247 78.492596 
L 309.608817 86.367354 
L 309.643935 84.058765 
L 309.784048 76.432358 
L 309.818987 78.255356 
L 309.923591 99.712664 
L 309.958388 94.409742 
L 310.097224 74.130919 
L 310.200982 77.990225 
L 310.235499 81.340917 
L 310.304428 78.68348 
L 310.373218 76.166665 
L 310.407562 77.016155 
L 310.612903 81.91836 
L 310.749116 79.783444 
L 310.81702 80.803673 
L 310.918625 76.814589 
L 310.986194 77.483284 
L 311.154537 92.21348 
L 311.221643 119.473953 
L 311.255147 97.405487 
L 311.422176 85.329584 
L 311.522004 79.267285 
L 311.555216 80.18607 
L 311.753811 110.167954 
L 311.786799 98.743372 
L 311.918433 79.537566 
L 311.951262 81.709515 
L 312.016827 99.358705 
L 312.049563 120.246527 
L 312.11494 91.601015 
L 312.212772 79.729407 
L 312.245321 80.709435 
L 312.342782 116.254068 
L 312.375208 94.813484 
L 312.504604 84.297472 
L 312.56912 90.556362 
L 312.633514 98.352481 
L 312.697787 94.703081 
L 312.729879 95.667601 
L 312.793971 112.288079 
L 312.825973 104.014655 
L 312.921799 94.765273 
L 312.953681 95.21663 
L 313.017357 100.578574 
L 313.112649 137.131044 
L 313.144355 116.528408 
L 313.270884 93.685563 
L 313.333973 93.762832 
L 313.365475 95.614177 
L 313.42839 139.225959 
L 313.491191 102.403574 
L 313.678904 91.339741 
L 313.71009 91.965178 
L 313.772377 105.66675 
L 313.803478 100.233866 
L 313.9276 86.987909 
L 314.112944 105.492004 
L 314.143737 123.057086 
L 314.205241 96.20234 
L 314.235952 96.29705 
L 314.327918 122.33095 
L 314.389093 105.053046 
L 314.511115 90.371888 
L 314.541553 93.366682 
L 314.602347 112.17051 
L 314.663034 99.387437 
L 314.753863 87.24682 
L 314.814282 89.458245 
L 314.874595 92.213699 
L 314.934801 124.589747 
L 314.994902 99.322868 
L 315.054898 96.73369 
L 315.144696 120.903796 
L 315.174576 103.627215 
L 315.26406 94.373545 
L 315.293837 97.464283 
L 315.353312 125.359277 
L 315.412684 113.926281 
L 315.53112 101.418766 
L 315.590185 114.030929 
L 315.619679 133.661447 
L 315.678592 101.491225 
L 315.70801 96.625958 
L 315.796114 98.963665 
L 315.883992 120.5551 
L 315.913234 106.319514 
L 315.942452 103.191955 
L 315.971644 105.870406 
L 316.059074 120.353597 
L 316.088167 110.676287 
L 316.14628 99.727249 
L 316.262211 84.431787 
L 316.291133 86.260508 
L 316.464152 103.434183 
L 316.579014 90.123328 
L 316.636301 95.930085 
L 316.80759 112.208668 
L 316.921308 86.185748 
L 316.949679 90.036357 
L 317.147619 134.892906 
L 317.232101 95.334531 
L 317.288307 97.024783 
L 317.456375 111.743944 
L 317.512214 116.023605 
L 317.567963 113.947568 
L 317.679189 105.70515 
L 317.70694 106.168924 
L 317.817716 126.198149 
L 317.845355 124.567007 
L 318.010718 97.103816 
L 318.038201 97.931828 
L 318.147913 112.340944 
L 318.175286 109.078738 
L 318.339068 85.613385 
L 318.366289 86.161709 
L 318.502071 109.94372 
L 318.529163 134.31631 
L 318.583282 91.491544 
L 318.61031 88.40241 
L 318.664301 92.827007 
L 318.798909 111.163865 
L 318.825767 105.729089 
L 318.959743 83.980774 
L 318.986476 85.07275 
L 319.119826 109.575765 
L 319.146434 139.32385 
L 319.199588 109.188445 
L 319.279164 93.38376 
L 319.332113 93.770221 
L 319.38498 98.769961 
L 319.411382 102.400207 
L 319.464127 97.091454 
L 319.516791 99.45446 
L 319.569373 116.554777 
L 319.621875 99.405278 
L 319.674297 94.068513 
L 319.726639 97.444796 
L 319.805002 105.420167 
L 319.831083 99.074335 
L 319.909208 89.88241 
L 319.987155 91.113438 
L 320.013098 90.434229 
L 320.039021 92.585365 
L 320.142518 107.012076 
L 320.168344 134.503525 
L 320.219937 91.045832 
L 320.32289 77.010495 
L 320.34858 77.957981 
L 320.425535 82.200745 
L 320.476742 103.895133 
L 320.527873 82.561038 
L 320.55341 80.882591 
L 320.578927 82.786377 
L 320.655367 97.32717 
L 320.680809 114.732217 
L 320.757022 94.329271 
L 320.782388 93.867047 
L 320.908941 74.677686 
L 320.959431 78.972027 
L 321.085332 104.373421 
L 321.110457 96.921458 
L 321.26082 81.212558 
L 321.285816 80.482352 
L 321.310794 80.813087 
L 321.485134 97.447413 
L 321.509967 115.970147 
L 321.55958 93.474489 
L 321.609121 84.333745 
L 321.683299 90.184575 
L 321.707989 90.528089 
L 321.732661 89.685168 
L 321.904872 77.645795 
L 321.953917 80.742697 
L 322.027353 97.940755 
L 322.076222 88.241252 
L 322.149396 74.301381 
L 322.222414 77.634305 
L 322.31953 84.234105 
L 322.343766 82.313895 
L 322.392187 77.292502 
L 322.440539 81.878386 
L 322.585188 91.714981 
L 322.609237 90.322918 
L 322.777109 73.952806 
L 322.801023 75.438412 
L 322.944161 87.20595 
L 322.991741 82.323437 
L 323.015506 81.509814 
L 323.039255 82.253321 
L 323.086704 84.659724 
L 323.157753 83.332205 
L 323.205037 88.570773 
L 323.370021 126.199667 
L 323.393526 112.914192 
L 323.440486 114.498097 
L 323.557606 99.591313 
L 323.627687 120.443789 
L 323.651015 105.419024 
L 323.790652 90.646984 
L 323.860258 84.777084 
L 323.906584 89.577213 
L 323.929723 92.100941 
L 323.952847 86.655509 
L 323.999047 77.577067 
L 324.068231 81.390742 
L 324.114276 80.763381 
L 324.137276 81.362756 
L 324.252042 84.054766 
L 324.274949 83.505557 
L 324.320717 81.600011 
L 324.366425 83.894088 
L 324.389256 83.769631 
L 324.434872 89.635243 
L 324.480427 116.997003 
L 324.571356 101.522626 
L 324.594051 100.762965 
L 324.616731 101.093835 
L 324.662045 123.310762 
L 324.7073 104.409607 
L 324.775069 98.24942 
L 324.820175 102.740702 
L 324.865221 129.913026 
L 324.93268 110.23584 
L 325.089568 93.281179 
L 325.111922 95.075662 
L 325.201193 100.725309 
L 325.223474 98.349161 
L 325.312455 91.450997 
L 325.356859 93.856991 
L 325.423357 102.51644 
L 325.445495 97.060398 
L 325.600057 89.282648 
L 325.64409 92.811179 
L 325.797762 119.535596 
L 325.819659 119.433804 
L 325.86341 121.104674 
L 325.885265 117.420442 
L 326.037861 102.075861 
L 326.124754 127.343473 
L 326.254682 124.240261 
L 326.319462 111.76207 
L 326.384119 121.688615 
L 326.491611 150.352209 
L 326.534514 133.750954 
L 326.577362 124.343437 
L 326.620158 136.341063 
L 326.641535 144.631136 
L 326.684251 122.953972 
L 326.705588 124.040499 
L 326.726913 131.316846 
L 326.769522 118.64496 
L 326.790806 121.656116 
L 326.897032 113.069396 
L 326.918237 113.124673 
L 327.002929 127.570481 
L 327.024069 116.467374 
L 327.06631 109.227452 
L 327.129574 113.171387 
L 327.234756 124.05715 
L 327.29771 155.327768 
L 327.339616 134.132449 
L 327.465025 117.182028 
L 327.485882 118.79548 
L 327.569184 145.666356 
L 327.631527 129.49999 
L 327.693757 120.554529 
L 327.714475 122.303719 
L 327.776555 179.489879 
L 327.859153 138.594868 
L 327.920972 145.973948 
L 327.941553 162.803936 
L 328.023755 144.42123 
L 328.085277 132.791827 
L 328.126231 146.255605 
L 328.146689 155.606507 
L 328.187569 137.842031 
L 328.309918 125.142306 
L 328.330267 126.441485 
L 328.512867 144.165343 
L 328.533096 142.837688 
L 328.553313 149.807847 
L 328.593711 132.142384 
L 328.613892 132.538389 
L 328.815053 165.196631 
L 328.975136 131.916781 
L 328.995094 130.721218 
L 329.01504 138.565769 
L 329.054898 129.939928 
L 329.114597 137.981712 
L 329.15434 128.929591 
L 329.194036 146.488607 
L 329.213866 144.242204 
L 329.233686 147.32733 
L 329.293075 172.185346 
L 329.33261 142.21442 
L 329.352361 144.455163 
L 329.372101 139.240635 
L 329.411545 123.69383 
L 329.490298 125.266279 
L 329.60809 152.749655 
L 329.647264 139.767132 
L 329.745003 118.400413 
L 329.803513 122.676863 
L 329.842465 119.57546 
L 329.861924 121.104564 
L 329.920235 129.504998 
L 329.959053 123.872286 
L 330.055909 112.421037 
L 330.094574 120.683478 
L 330.11389 127.161567 
L 330.152491 119.700508 
L 330.191047 120.484115 
L 330.229561 123.656258 
L 330.268031 134.080935 
L 330.325655 121.523379 
L 330.497949 109.060721 
L 330.517039 110.604231 
L 330.574246 118.011898 
L 330.631358 116.072946 
L 330.650375 114.826461 
L 330.688375 138.282096 
L 330.76425 119.191527 
L 330.783193 118.818477 
L 330.821047 132.167713 
L 330.877749 100.771222 
L 330.934358 105.29464 
L 330.972045 126.093379 
L 331.028498 106.866961 
L 331.066082 99.162391 
L 331.103625 107.268786 
L 331.178587 97.380404 
L 331.253385 129.499311 
L 331.402494 93.794401 
L 331.43967 90.546655 
L 331.476805 94.473885 
L 331.532433 126.629091 
L 331.606464 106.252202 
L 331.643419 109.99297 
L 331.661882 138.655713 
L 331.735634 96.695799 
L 331.845964 89.978677 
L 331.77245 97.61519 
L 331.882662 90.609487 
L 332.047319 111.438941 
L 332.120246 107.424468 
L 332.138454 128.56092 
L 332.211188 92.483258 
L 332.247497 86.008088 
L 332.283768 94.980024 
L 332.32 103.951242 
L 332.356194 88.591946 
L 332.428468 79.168921 
L 332.446512 82.311618 
L 332.590528 126.252631 
L 332.608487 112.953192 
L 332.751825 83.592679 
L 332.7697 82.73942 
L 332.823269 83.116886 
L 332.894565 104.320013 
L 332.94794 86.562736 
L 332.983477 88.394384 
L 333.018977 96.474824 
L 333.072158 87.484583 
L 333.107567 85.876034 
L 333.125257 89.738376 
L 333.142939 92.17549 
L 333.195928 85.587195 
L 333.248836 89.653246 
L 333.336834 109.587548 
L 333.389524 95.576729 
L 333.40707 94.49614 
L 333.442134 99.141702 
L 333.459653 104.379165 
L 333.512155 89.716581 
L 333.59948 94.104474 
L 333.616918 95.803729 
L 333.651768 88.694424 
L 333.66918 85.90357 
L 333.738739 89.200647 
L 333.860128 97.654411 
L 333.877434 96.425859 
L 333.998333 84.456318 
L 334.01557 85.234804 
L 334.084429 96.023391 
L 334.135983 126.795065 
L 334.204602 101.66609 
L 334.238859 104.106925 
L 334.324354 146.049532 
L 334.358492 114.122026 
L 334.477708 87.514038 
L 334.528674 106.834657 
L 334.596511 92.598763 
L 334.613449 90.518159 
L 334.664214 97.040801 
L 334.681119 97.757886 
L 334.698015 96.640672 
L 334.731783 89.734831 
L 334.79922 96.444796 
L 334.816058 96.564692 
L 334.916915 79.962003 
L 334.950468 88.555944 
L 335.000736 103.959182 
L 335.084352 94.191507 
L 335.184423 89.870993 
L 335.151099 94.435946 
L 335.201074 91.690021 
L 335.284203 90.474552 
L 335.317398 97.165417 
L 335.333984 89.007572 
L 335.367131 108.224904 
L 335.383693 122.573794 
L 335.449859 94.906986 
L 335.466381 105.136784 
L 335.4994 101.267163 
L 335.515898 101.33512 
L 335.54887 131.465317 
L 335.598268 89.282581 
L 335.696851 103.845324 
L 335.664022 88.358218 
L 335.746037 98.653185 
L 335.778788 88.777193 
L 335.827856 103.604711 
L 335.844196 109.547271 
L 335.90948 93.392293 
L 335.99091 89.555458 
L 335.958361 96.254166 
L 336.007173 90.352383 
L 336.023428 96.732156 
L 336.088371 84.349094 
L 336.104588 83.400393 
L 336.120797 87.257161 
L 336.185556 108.942287 
L 336.234046 92.84895 
L 336.266334 83.729737 
L 336.346921 89.834152 
L 336.427319 82.659819 
L 336.443376 86.808391 
L 336.571562 116.005361 
L 336.603534 107.290341 
L 336.7152 87.862195 
L 336.635476 109.477664 
L 336.731123 94.319505 
L 336.747038 105.37286 
L 336.778847 88.512656 
L 336.842375 96.603872 
L 336.874095 99.120867 
L 336.905786 96.547203 
L 336.937447 91.432334 
L 336.984884 102.262679 
L 337.016473 115.995798 
L 337.048032 98.05565 
L 337.079562 113.302442 
L 337.111064 91.886529 
L 337.205394 95.443995 
L 337.221091 93.028463 
L 337.252462 97.957952 
L 337.283805 93.29934 
L 337.362037 118.382892 
L 337.377661 95.348187 
L 337.44009 89.222074 
L 337.471262 99.39759 
L 337.486837 94.656585 
L 337.549067 103.236492 
L 337.58014 97.74127 
L 337.657698 125.187434 
L 337.719619 122.802728 
L 337.765986 129.402708 
L 337.858533 102.068903 
L 337.966189 123.205393 
L 337.996886 107.910672 
L 338.073508 118.79025 
L 338.104108 105.237942 
L 338.134682 118.778012 
L 338.149958 127.000329 
L 338.210997 109.235205 
L 338.241475 116.930602 
L 338.256704 118.077584 
L 338.347936 119.194219 
L 338.378293 105.709038 
L 338.529675 124.848979 
L 338.544776 123.211988 
L 338.605115 142.419019 
L 338.665349 108.409597 
L 338.830446 153.316474 
L 338.950019 105.467026 
L 339.009649 121.457593 
L 339.069176 117.85117 
L 339.084042 118.803462 
L 339.158273 140.350489 
L 339.1286 108.396735 
L 339.18792 129.58768 
L 339.276709 111.756393 
L 339.321017 118.426901 
L 339.335774 126.225324 
L 339.350524 112.647738 
L 339.424181 121.227549 
L 339.438893 117.907845 
L 339.468299 129.800519 
L 339.482992 133.73239 
L 339.497679 116.395143 
L 339.527035 125.606759 
L 339.658823 100.420658 
L 339.571021 135.307022 
L 339.673435 104.203539 
L 339.760976 145.997343 
L 339.833756 123.552265 
L 339.848294 120.571518 
L 339.862825 157.859164 
L 339.87735 119.211396 
L 339.949884 119.450721 
L 340.022264 105.646877 
L 339.993331 126.127355 
L 340.065619 112.63416 
L 340.166568 146.092428 
L 340.180965 139.595547 
L 340.209741 112.113606 
L 340.295924 114.631872 
L 340.410498 141.438099 
L 340.338934 113.5499 
L 340.453365 133.871179 
L 340.510437 121.018112 
L 340.553179 129.967311 
L 340.610085 141.399048 
L 340.595867 123.616276 
L 340.624297 127.931006 
L 340.638503 120.679549 
L 340.709444 135.183799 
L 340.73778 146.415583 
L 340.766092 118.891047 
L 340.850888 143.96965 
L 340.822646 116.091736 
L 340.879107 121.690903 
L 340.963624 112.847403 
L 340.935475 136.247211 
L 340.97769 118.780365 
L 341.061965 157.897445 
L 341.075991 115.240423 
L 341.090011 111.685358 
L 341.118033 125.196917 
L 341.146033 115.877864 
L 341.17401 137.012864 
L 341.257803 137.012451 
L 341.369211 110.460035 
L 341.383111 114.79255 
L 341.480256 129.718353 
L 341.438656 114.374454 
L 341.494112 124.950614 
L 341.507962 115.658705 
L 341.549478 128.835699 
L 341.604754 118.931683 
L 341.701274 160.503132 
L 341.715041 123.776153 
L 341.728802 117.11051 
L 341.756307 155.477411 
L 341.797523 124.143654 
L 341.811251 133.544718 
L 341.907191 128.802822 
L 341.920875 126.21087 
L 341.934554 133.813212 
L 341.989213 130.110116 
L 342.084657 121.466189 
L 342.09827 151.778246 
L 342.220546 122.181185 
L 342.234106 140.028368 
L 342.315349 118.069967 
L 342.328871 129.994825 
L 342.382905 119.985603 
L 342.423375 138.126423 
L 342.436854 133.720425 
L 342.47726 150.128183 
L 342.504171 146.805082 
L 342.531061 152.141099 
L 342.584778 141.566166 
L 342.611604 149.234115 
L 342.62501 149.201208 
L 342.651805 161.924874 
L 342.718701 136.842629 
L 342.732065 170.156248 
L 342.772125 128.614144 
L 342.825465 149.840921 
L 342.905319 134.054966 
L 342.931896 134.75705 
L 343.051238 148.91905 
L 343.064472 134.993826 
L 343.156971 151.031097 
L 343.196538 138.89683 
L 343.183354 168.136448 
L 343.236058 160.083724 
L 343.249221 164.166096 
L 343.275533 144.993393 
L 343.288681 160.052513 
L 343.367465 134.962248 
L 343.406788 148.485444 
L 343.52449 169.024449 
L 343.537543 168.671733 
L 343.563634 189.031143 
L 343.615757 152.565235 
L 343.628775 196.214536 
L 343.706781 149.693121 
L 343.719765 164.591243 
L 343.732744 151.095115 
L 343.810514 178.944964 
L 343.836398 157.125609 
L 343.965526 197.178844 
L 344.107007 156.387741 
L 344.11984 158.67041 
L 344.15831 151.48328 
L 344.273462 140.446995 
L 344.286233 143.687169 
L 344.31176 146.112197 
L 344.324516 145.276106 
L 344.362758 136.935491 
L 344.400956 145.390868 
L 344.48992 139.289943 
L 344.502611 160.462794 
L 344.616613 138.347836 
L 344.641895 145.823423 
L 344.65453 132.837781 
L 344.780616 190.91523 
L 344.805778 216.551264 
L 344.90624 149.07318 
L 344.956361 159.68802 
L 344.96888 139.952763 
L 344.993904 140.595132 
L 345.006409 140.89459 
L 345.018909 138.725899 
L 345.031405 133.76222 
L 345.068866 146.329157 
L 345.081343 135.223488 
L 345.118749 180.139615 
L 345.193439 150.282345 
L 345.230723 138.028399 
L 345.2183 153.587167 
L 345.280372 139.033415 
L 345.35471 167.493361 
L 345.391819 143.326326 
L 345.40418 143.999419 
L 345.441235 140.584071 
L 345.527542 170.471783 
L 345.564464 157.980767 
L 345.576763 142.653559 
L 345.613632 179.802096 
L 345.662729 146.320894 
L 345.711756 163.15874 
L 345.748481 133.566635 
L 345.760713 138.213644 
L 345.772942 133.593032 
L 345.785166 138.455471 
L 345.858418 136.942282 
L 345.931514 133.255016 
L 345.992308 156.811096 
L 346.065119 140.202865 
L 346.028733 168.294121 
L 346.089355 155.451832 
L 346.113574 168.39023 
L 346.149871 143.311843 
L 346.282629 129.060058 
L 346.354826 153.839405 
L 346.366845 124.863295 
L 346.390868 125.301615 
L 346.414875 132.829925 
L 346.426872 120.672116 
L 346.438865 145.857168 
L 346.534657 131.615222 
L 346.582453 134.598041 
L 346.594391 124.199907 
L 346.606326 141.346062 
L 346.701651 121.7381 
L 346.713548 139.086423 
L 346.725441 121.961616 
L 346.796713 156.306317 
L 346.808577 131.406925 
L 346.820437 157.440382 
L 346.915169 138.387968 
L 346.926992 138.559179 
L 346.938812 144.572409 
L 346.997846 126.13826 
L 347.009641 134.340904 
L 347.09209 141.259785 
L 347.103852 117.891131 
L 347.11561 153.449037 
L 347.221253 151.591928 
L 347.232971 126.452678 
L 347.338254 133.095796 
L 347.361606 136.030055 
L 347.396604 124.618849 
L 347.384942 147.629915 
L 347.478128 127.657021 
L 347.547852 150.83049 
L 347.559459 125.606017 
L 347.594256 145.372937 
L 347.663744 128.139628 
L 347.652173 161.231087 
L 347.709992 128.248008 
L 347.721544 135.511658 
L 347.779246 122.529837 
L 347.81382 130.710726 
L 347.825337 124.790968 
L 347.882865 142.809116 
L 347.894359 127.269354 
L 347.986172 159.167073 
L 348.009086 142.650169 
L 348.146254 117.882276 
L 348.169062 127.247049 
L 348.180461 112.775301 
L 348.191855 136.918773 
L 348.226016 112.759225 
L 348.294236 133.880542 
L 348.305592 114.901604 
L 348.407634 123.419527 
L 348.430269 122.48237 
L 348.543219 146.184842 
L 348.554493 157.336215 
L 348.588295 137.068575 
L 348.633311 148.361595 
L 348.655797 157.647113 
L 348.745595 126.868364 
L 348.779208 138.60473 
L 348.846336 124.45234 
L 348.857511 126.40792 
L 348.913333 117.792 
L 348.924486 119.180777 
L 348.946782 120.460398 
L 349.046934 110.110892 
L 349.069151 108.227817 
L 349.157872 124.762393 
L 349.191084 114.640095 
L 349.246365 129.957307 
L 349.268452 124.661743 
L 349.36767 141.337373 
L 349.455623 136.457723 
L 349.554301 120.670397 
L 349.510479 138.916405 
L 349.576191 123.699756 
L 349.608999 159.263934 
L 349.685431 151.473131 
L 349.761692 124.789906 
L 349.794324 128.822825 
L 349.84864 141.558017 
L 349.837784 119.083031 
L 349.892032 139.902207 
L 349.902871 124.146458 
L 349.935369 145.909148 
L 350.000271 134.215718 
L 350.011076 134.386394 
L 350.086617 154.127385 
L 350.097395 125.980762 
L 350.11894 135.514017 
L 350.129708 144.040241 
L 350.151234 130.074396 
L 350.226466 133.846133 
L 350.258658 125.76778 
L 350.29082 147.84451 
L 350.333655 135.052573 
L 350.344356 135.148808 
L 350.408489 122.536362 
L 350.397808 137.518418 
L 350.461841 125.619479 
L 350.557667 142.979737 
L 350.578925 142.040849 
L 350.60017 141.199105 
L 350.69561 126.863357 
L 350.706198 128.327744 
L 350.727364 149.313439 
L 350.790785 118.912502 
L 350.822451 139.217966 
L 350.896226 121.627607 
L 350.948825 128.332099 
L 351.032815 121.970064 
L 351.064259 149.509388 
L 351.106138 121.633368 
L 351.179305 127.666939 
L 351.189745 126.362273 
L 351.231471 124.101311 
L 351.304371 166.492631 
L 351.345958 116.999996 
L 351.418615 120.07454 
L 351.53248 144.344193 
L 351.553142 142.211746 
L 351.604742 147.102107 
L 351.666561 119.287256 
L 351.697428 147.173213 
L 351.769344 129.453851 
L 351.779605 120.241397 
L 351.830866 152.674983 
L 351.882051 127.773596 
L 351.892278 126.118393 
L 351.902503 152.322868 
L 351.933158 125.393038 
L 352.004582 129.381033 
L 352.075856 199.06774 
L 352.106357 127.412243 
L 352.116518 127.70355 
L 352.136831 167.880164 
L 352.187561 127.093727 
L 352.217962 137.024684 
L 352.238215 122.377829 
L 352.268572 151.120586 
L 352.329205 128.374744 
L 352.3393 137.38854 
L 352.399808 127.900741 
L 352.430022 129.819561 
L 352.530543 118.402642 
L 352.540579 121.116108 
L 352.600733 116.124246 
L 352.660782 139.473767 
L 352.67078 126.774907 
L 352.730706 155.171202 
L 352.760629 138.673095 
L 352.860187 169.720658 
L 352.889997 153.976308 
L 352.929705 129.080871 
L 352.98918 136.116016 
L 352.999082 156.581182 
L 353.048552 131.480831 
L 353.09795 135.965927 
L 353.147277 124.67354 
L 353.11769 147.124678 
L 353.186688 129.391611 
L 353.304648 152.539705 
L 353.324269 127.103669 
L 353.422204 127.252088 
L 353.431982 125.856193 
L 353.471067 136.134165 
L 353.539358 128.151004 
L 353.549102 134.779546 
L 353.558844 168.836733 
L 353.588054 129.751435 
L 353.656112 136.560212 
L 353.685238 156.555839 
L 353.753104 137.560228 
L 353.869134 122.8832 
L 353.791824 146.188361 
L 353.878785 127.363159 
L 353.955898 121.390501 
L 353.97515 127.870663 
L 354.032839 167.78974 
L 354.004006 122.612666 
L 354.10002 140.672273 
L 354.186203 162.109385 
L 354.157499 133.338768 
L 354.214882 152.948096 
L 354.253084 153.42937 
L 354.329361 130.294095 
L 354.338883 149.237685 
L 354.443458 136.819211 
L 354.576093 178.58345 
L 354.462437 134.844388 
L 354.613894 158.75758 
L 354.670519 135.08141 
L 354.727049 149.678688 
L 354.745872 152.79654 
L 354.82106 138.495307 
L 354.858593 143.661402 
L 354.914814 187.708192 
L 355.008312 164.444082 
L 355.054966 152.708028 
L 355.092243 172.080918 
L 355.110866 156.06873 
L 355.148083 174.287985 
L 355.185259 140.0092 
L 355.213114 147.121184 
L 355.231672 142.768139 
L 355.25022 139.080458 
L 355.287285 145.149675 
L 355.33356 142.517443 
L 355.379773 149.164517 
L 355.389008 146.648163 
L 355.508839 178.599922 
L 355.4628 142.112838 
L 355.518039 168.561463 
L 355.536433 139.118929 
L 355.591553 185.127076 
L 355.655749 150.404912 
L 355.710679 142.816282 
L 355.692379 167.666225 
L 355.747249 149.837602 
L 355.756386 167.612572 
L 355.820274 129.193734 
L 355.847618 139.175446 
L 355.911336 149.807117 
L 355.947694 124.969836 
L 356.011226 122.736536 
L 356.065589 157.271963 
L 356.165031 136.513842 
L 356.146972 168.571545 
L 356.18308 143.280362 
L 356.192101 148.751977 
L 356.255183 129.725796 
L 356.282182 136.526054 
L 356.372026 115.600272 
L 356.41686 128.030922 
L 356.42582 128.853622 
L 356.434777 125.743404 
L 356.443732 116.157702 
L 356.515289 139.251598 
L 356.524223 137.142268 
L 356.533155 150.61368 
L 356.568858 128.11959 
L 356.63125 142.475744 
L 356.737944 125.597774 
L 356.693529 151.437848 
L 356.746821 133.120779 
L 356.764566 142.778331 
L 356.800029 119.148848 
L 356.835456 128.848884 
L 356.897365 121.49809 
L 356.941517 116.335843 
L 356.932691 128.127044 
L 356.959162 121.701392 
L 356.967981 148.134516 
L 357.038452 115.948362 
L 357.073633 134.454117 
L 357.082423 134.94624 
L 357.099995 120.885671 
L 357.135113 138.472159 
L 357.17896 133.72643 
L 357.196483 179.271319 
L 357.222751 122.236325 
L 357.283965 127.506592 
L 357.336346 143.761735 
L 357.353789 124.220925 
L 357.379937 133.256007 
L 357.466951 117.101274 
L 357.423472 149.345714 
L 357.493013 123.001065 
L 357.519054 127.71386 
L 357.510376 119.271932 
L 357.52773 122.586266 
L 357.553746 160.121775 
L 357.623023 120.212335 
L 357.648966 135.973436 
L 357.735301 111.024191 
L 357.709423 139.039385 
L 357.761159 116.629534 
L 357.804212 129.047403 
L 357.795606 108.966283 
L 357.864396 121.620472 
L 357.872985 116.504436 
L 357.890157 134.302764 
L 357.924475 120.328427 
L 357.950191 167.16199 
L 358.027222 122.051673 
L 358.061403 136.034052 
L 358.09555 117.114503 
L 358.121137 141.262992 
L 358.155224 115.805704 
L 358.206292 120.957855 
L 358.240294 134.568401 
L 358.265774 115.892778 
L 358.308199 118.884266 
L 358.316677 119.273381 
L 358.325154 117.48196 
L 358.333628 110.863652 
L 358.359039 139.410566 
L 358.409803 120.431822 
L 358.485809 161.507773 
L 358.527962 135.96515 
L 358.570063 150.318057 
L 358.578477 119.039317 
L 358.612113 129.389979 
L 358.696057 117.439787 
L 358.687672 130.492256 
L 358.7212 127.417876 
L 358.746325 127.602644 
L 358.754696 122.342947 
L 358.829941 169.61542 
L 358.863331 142.839986 
L 358.946663 119.671945 
L 358.971623 126.833278 
L 359.013182 120.135137 
L 359.087863 144.07597 
L 359.121002 166.67624 
L 359.20371 116.640619 
L 359.228484 141.232138 
L 359.236738 115.910841 
L 359.310933 128.912074 
L 359.352083 121.466069 
L 359.343857 145.892718 
L 359.409611 132.956325 
L 359.491626 163.146208 
L 359.467042 124.349434 
L 359.53256 151.269375 
L 359.573445 171.294176 
L 359.663221 121.304836 
L 359.744632 109.913267 
L 359.785265 112.472485 
L 359.914967 135.328095 
L 359.947316 125.051079 
L 359.955399 144.346687 
L 360.01999 135.398916 
L 360.09251 126.017373 
L 360.036119 149.906247 
L 360.132733 126.986986 
L 360.140772 143.88737 
L 360.229075 120.210373 
L 360.237091 121.772327 
L 360.261129 126.78427 
L 360.28515 113.690578 
L 360.317151 121.472428 
L 360.381065 109.118163 
L 360.42095 109.924813 
L 360.524436 137.7884 
L 360.540329 126.425265 
L 360.619684 115.24858 
L 360.659293 117.327173 
L 360.698856 137.316806 
L 360.675123 116.394749 
L 360.769954 132.198241 
L 360.88026 115.757398 
L 360.801506 135.638053 
L 360.888125 120.668641 
L 360.958832 116.51148 
L 360.950983 124.494559 
L 360.990211 119.292989 
L 361.029394 141.375694 
L 361.005889 118.265313 
L 361.107626 140.531041 
L 361.154479 119.075217 
L 361.224639 127.519591 
L 361.263555 114.213947 
L 361.310196 130.216615 
L 361.333492 126.46845 
L 361.356773 120.583698 
L 361.38779 152.460903 
L 361.395539 144.0179 
L 361.47294 161.392785 
L 361.411034 138.676141 
L 361.488399 149.031334 
L 361.573301 122.240277 
L 361.604122 131.420775 
L 361.611823 128.205332 
L 361.688737 140.930623 
L 361.803786 175.286593 
L 361.826749 170.162053 
L 361.910817 232.8033 
L 361.971828 212.979718 
L 361.979447 205.494429 
L 362.07074 221.642944 
L 362.078337 214.306757 
L 362.101117 212.137689 
L 362.093525 220.233617 
L 362.108707 218.432112 
L 362.131467 237.849753 
L 362.192086 212.64738 
L 362.207225 216.562009 
L 362.260156 206.857666 
L 362.222356 224.674469 
L 362.32809 209.255862 
L 362.441015 240.500407 
L 362.463555 224.109468 
L 362.501089 225.337981 
L 362.583521 208.95274 
L 362.591005 208.560762 
L 362.710525 247.223988 
L 362.799893 208.543193 
L 362.829631 214.316753 
L 362.859343 210.183772 
L 362.903862 228.292205 
L 362.918689 219.350823 
L 363.000123 261.435358 
L 363.022298 214.849362 
L 363.088739 210.936645 
L 363.051843 221.248405 
L 363.125595 214.463375 
L 363.213888 261.275564 
L 363.14769 211.645951 
L 363.265287 232.307145 
L 363.345902 209.669258 
L 363.382483 215.838777 
L 363.404412 211.850134 
L 363.44093 227.627306 
L 363.448229 221.430552 
L 363.484701 240.766685 
L 363.462823 215.403417 
L 363.550252 225.050261 
L 363.564802 212.712234 
L 363.659225 220.539344 
L 363.688227 214.429529 
L 363.709961 228.509714 
L 363.717203 263.051717 
L 363.775083 217.891919 
L 363.811208 230.532357 
L 363.897754 210.407294 
L 363.919356 216.432139 
L 363.984082 245.339435 
L 363.948138 214.952734 
L 364.034339 229.346189 
L 364.113166 210.222841 
L 364.156087 214.131043 
L 364.256026 253.291838 
L 364.305886 226.435887 
L 364.369886 211.491533 
L 364.426675 213.90196 
L 364.433767 213.776052 
L 364.511681 253.416765 
L 364.554106 226.747279 
L 364.561171 227.140724 
L 364.631747 211.379425 
L 364.674023 217.104672 
L 364.688104 214.872123 
L 364.709213 221.48684 
L 364.758419 246.641595 
L 364.82158 225.004486 
L 364.884624 212.072873 
L 364.940566 214.500157 
L 365.017338 267.023639 
L 365.059141 229.319281 
L 365.14954 213.277632 
L 365.1287 230.090346 
L 365.177307 222.116092 
L 365.211984 216.247925 
L 365.218916 230.328496 
L 365.225846 223.977437 
L 365.239701 249.219689 
L 365.329625 219.716991 
L 365.350343 212.22067 
L 365.343439 224.45317 
L 365.426203 215.378432 
L 365.488146 253.500891 
L 365.536246 236.033543 
L 365.59799 213.119688 
L 365.659623 215.769949 
L 365.673304 212.35735 
L 365.68698 226.701118 
L 365.693816 247.261191 
L 365.714315 217.57467 
L 365.789374 222.384469 
L 365.864269 212.472263 
L 365.823438 227.388311 
L 365.905052 216.889449 
L 365.918636 212.031278 
L 365.939001 225.000938 
L 366.006797 272.810793 
L 366.020341 217.75127 
L 366.047411 227.682731 
L 366.054175 210.306293 
L 366.0677 231.462946 
L 366.162222 216.405613 
L 366.256485 250.598145 
L 366.290087 232.440055 
L 366.357193 210.880682 
L 366.40409 217.998316 
L 366.49769 243.918923 
L 366.531056 230.613868 
L 366.557727 214.070639 
L 366.644261 217.921589 
L 366.690766 264.681193 
L 366.770343 224.329879 
L 366.849735 214.896479 
L 366.790208 225.251785 
L 366.856342 216.295382 
L 366.928943 270.967814 
L 366.968479 224.506806 
L 366.975063 239.85585 
L 367.073685 213.793438 
L 367.080249 230.544817 
L 367.106495 214.566864 
L 367.178568 252.096867 
L 367.191656 227.563927 
L 367.25049 244.180363 
L 367.29618 214.351359 
L 367.387377 242.838227 
L 367.328778 213.432905 
L 367.419889 229.956573 
L 367.530199 213.280465 
L 367.45237 264.085231 
L 367.543153 215.45644 
L 367.653068 260.041872 
L 367.575518 213.486099 
L 367.672428 258.046844 
L 367.756195 210.158481 
L 367.788359 222.991666 
L 367.807643 215.70973 
L 367.814068 219.732783 
L 367.884669 269.774748 
L 367.826916 219.35805 
L 367.935925 238.121491 
L 367.993495 214.553637 
L 368.050969 219.402752 
L 368.057349 216.680825 
L 368.070106 247.27466 
L 368.121084 229.095458 
L 368.146545 254.621421 
L 368.191056 216.046831 
L 368.222814 219.342298 
L 368.330573 247.774785 
L 368.241855 213.858752 
L 368.343228 243.734396 
L 368.431684 214.396407 
L 368.393802 245.206826 
L 368.46322 217.779429 
L 368.469524 214.289144 
L 368.507322 234.492643 
L 368.538788 232.97154 
L 368.563941 259.979274 
L 368.626741 219.393303 
L 368.639288 222.91982 
L 368.664366 214.807198 
L 368.733239 229.01132 
L 368.745746 217.795957 
L 368.814455 257.144702 
L 368.858107 221.161315 
L 368.963889 248.487872 
L 368.889253 214.879611 
L 368.976312 243.253385 
L 369.06315 217.850373 
L 369.001145 291.799937 
L 369.094111 221.232083 
L 369.230005 257.158341 
L 369.162125 214.677804 
L 369.242332 244.78885 
L 369.334646 214.70873 
L 369.279287 246.217356 
L 369.365362 222.901074 
L 369.371502 219.788671 
L 369.408318 244.384436 
L 369.451221 233.996536 
L 369.463469 243.363525 
L 369.469591 234.048491 
L 369.5674 216.436099 
L 369.500187 248.799275 
L 369.579607 218.376931 
L 369.68927 248.786957 
L 369.591809 217.177735 
L 369.695353 225.520333 
L 369.743971 217.763207 
L 369.725747 239.067989 
L 369.810709 222.873259 
L 369.889413 253.345191 
L 369.847056 222.870096 
L 369.919636 230.484024 
L 369.980002 216.32971 
L 369.937757 235.214191 
L 370.028218 219.793885 
L 370.094405 268.098357 
L 370.14246 227.0797 
L 370.196443 218.334565 
L 370.172461 229.28364 
L 370.25034 223.399688 
L 370.298177 260.508614 
L 370.262305 220.507114 
L 370.35788 241.848136 
L 370.411524 215.87445 
L 370.47103 227.752107 
L 370.476975 222.923473 
L 370.500745 255.947499 
L 370.560096 244.716282 
L 370.613425 217.30056 
L 370.702122 227.625395 
L 370.772914 258.573007 
L 370.796479 220.937196 
L 370.802368 225.692808 
L 370.884704 233.233126 
L 370.890577 217.875545 
L 370.925798 253.835686 
L 371.001984 237.885085 
L 371.072161 219.287059 
L 371.042938 244.795596 
L 371.11303 236.386628 
L 371.118865 226.198311 
L 371.142193 257.618953 
L 371.223718 226.254694 
L 371.252786 218.007739 
L 371.258597 228.313791 
L 371.264407 216.329008 
L 371.351436 256.73075 
L 371.357231 240.393312 
L 371.363024 244.040748 
L 371.438245 228.354503 
L 371.501766 219.018325 
L 371.542126 237.721014 
L 371.547888 228.739934 
L 371.593949 274.831265 
L 371.622705 220.472888 
L 371.657181 237.128434 
L 371.708831 217.477472 
L 371.737491 245.019734 
L 371.766127 231.070602 
L 371.851893 265.360297 
L 371.829043 222.01462 
L 371.863312 227.169488 
L 371.886139 220.391099 
L 371.908951 232.136922 
L 371.937444 231.234056 
L 371.988673 249.059985 
L 372.045504 224.631963 
L 372.051182 217.775862 
L 372.056859 236.57414 
L 372.1419 229.809265 
L 372.164542 262.94907 
L 372.238026 220.152808 
L 372.249318 225.520693 
L 372.300082 217.797261 
L 372.27753 262.721785 
L 372.362026 223.422188 
L 372.401386 259.948134 
L 372.457537 215.569003 
L 372.468756 224.075689 
L 372.547188 218.678451 
L 372.530396 243.643181 
L 372.563971 229.199786 
L 372.608687 257.958278 
L 372.670075 220.65146 
L 372.681225 230.039808 
L 372.720221 220.044312 
L 372.798079 271.177596 
L 372.892384 221.068427 
L 372.914536 228.174288 
L 372.920071 220.476056 
L 372.98643 271.157771 
L 373.019561 234.455896 
L 373.02508 256.875158 
L 373.030598 218.33299 
L 373.124266 232.644886 
L 373.16276 222.580653 
L 373.151766 266.308531 
L 373.239621 225.647842 
L 373.277986 222.222074 
L 373.267029 237.321311 
L 373.338188 227.220354 
L 373.343656 263.814886 
L 373.43102 222.139722 
L 373.447376 222.606944 
L 373.539913 271.331121 
L 373.48551 218.530876 
L 373.56165 269.977177 
L 373.643041 220.871023 
L 373.680958 224.910885 
L 373.686371 219.551233 
L 373.718832 281.779748 
L 373.772867 233.434673 
L 373.799852 253.386218 
L 373.848372 221.431068 
L 373.875297 223.864538 
L 373.88068 219.089787 
L 373.929085 250.110166 
L 373.945205 240.294107 
L 373.950577 266.101181 
L 374.041766 217.495675 
L 374.052478 243.81609 
L 374.084595 221.363735 
L 374.079244 253.396632 
L 374.159417 237.511189 
L 374.164755 271.619787 
L 374.239402 222.800347 
L 374.266022 227.354895 
L 374.303256 272.304384 
L 374.281984 220.909904 
L 374.382906 234.682382 
L 374.430608 219.430211 
L 374.393512 245.770009 
L 374.494107 232.533714 
L 374.594407 224.866168 
L 374.525812 257.744115 
L 374.604947 230.730543 
L 374.6839 261.699035 
L 374.631285 219.777431 
L 374.715431 233.148436 
L 374.736435 253.211165 
L 374.788889 220.276176 
L 374.815085 233.357167 
L 374.825559 222.332639 
L 374.909229 251.38996 
L 374.914451 292.141983 
L 374.987484 221.200622 
L 375.01353 227.559565 
L 375.029147 226.081576 
L 375.034352 248.146901 
L 375.039555 236.284641 
L 375.101937 258.241812 
L 375.065561 231.043729 
L 375.143461 231.948901 
L 375.174571 219.216265 
L 375.195296 251.840262 
L 375.231534 224.398167 
L 375.288401 256.022011 
L 375.31938 224.276758 
L 375.340018 246.677796 
L 375.360642 222.657473 
L 375.422442 256.704929 
L 375.4533 237.408326 
L 375.48413 266.542613 
L 375.545708 222.941741 
L 375.550834 227.172693 
L 375.586698 221.008629 
L 375.607175 239.830132 
L 375.637867 254.54679 
L 375.62764 227.144847 
L 375.714478 236.093199 
L 375.755267 224.916644 
L 375.796007 245.638161 
L 375.816359 235.3887 
L 375.867187 259.535891 
L 375.892572 224.246107 
L 375.92301 234.536212 
L 375.968616 222.399555 
L 376.009103 261.200274 
L 376.014161 229.939495 
L 376.019218 289.217548 
L 376.084889 225.709517 
L 376.12524 231.036995 
L 376.160508 270.678973 
L 376.150435 223.693161 
L 376.235959 240.661754 
L 376.266094 222.257534 
L 376.286168 277.366151 
L 376.346322 230.212008 
L 376.35133 230.610807 
L 376.391369 265.671664 
L 376.451338 223.379728 
L 376.461323 229.59466 
L 376.52117 288.984766 
L 376.49126 226.123884 
L 376.575939 249.344567 
L 376.63062 219.928521 
L 376.610746 252.687361 
L 376.680254 229.94569 
L 376.784253 227.496487 
L 376.789197 269.098061 
L 376.863279 222.046002 
L 376.902723 242.243002 
L 376.942123 257.717252 
L 376.947044 228.992917 
L 376.991308 234.631789 
L 377.001137 225.466401 
L 377.060049 271.242831 
L 377.094368 237.008282 
L 377.118861 256.937704 
L 377.177571 222.333358 
L 377.206889 239.419333 
L 377.216656 224.890089 
L 377.294691 263.763297 
L 377.319041 234.848829 
L 377.362827 225.314774 
L 377.37255 267.259422 
L 377.406557 229.048307 
L 377.464777 221.772135 
L 377.522899 268.284921 
L 377.54225 226.660668 
L 377.634023 248.648549 
L 377.677408 223.400532 
L 377.696673 279.565132 
L 377.749595 231.061535 
L 377.76882 254.955179 
L 377.855196 224.595453 
L 377.974802 263.501105 
L 377.984353 237.871562 
L 378.036833 224.581856 
L 378.0416 249.126635 
L 378.065425 237.465323 
L 378.089233 270.510477 
L 378.170057 223.348 
L 378.174806 222.720739 
L 378.179553 232.465005 
L 378.184301 227.382645 
L 378.226995 254.608155 
L 378.222254 223.891553 
L 378.293303 245.605077 
L 378.345313 221.720552 
L 378.312225 274.466779 
L 378.406677 227.164347 
L 378.496165 247.833917 
L 378.510274 219.768539 
L 378.538473 218.381099 
L 378.519676 239.115431 
L 378.55726 229.769813 
L 378.585421 271.78114 
L 378.655722 217.327317 
L 378.665084 219.546075 
L 378.716533 239.498959 
L 378.767904 212.254138 
L 378.777236 220.724851 
L 378.819199 213.223759 
L 378.875069 230.568178 
L 378.884371 231.340214 
L 378.889022 228.09336 
L 378.94942 219.040978 
L 378.898321 248.038429 
L 378.967983 234.475829 
L 379.014346 251.799137 
L 378.991173 215.969659 
L 379.069899 228.987591 
L 379.083773 232.027809 
L 379.194565 211.790516 
L 379.291215 245.156919 
L 379.309593 221.468677 
L 379.314186 216.241778 
L 379.346321 245.497518 
L 379.401338 231.867113 
L 379.405919 254.481382 
L 379.451694 211.393698 
L 379.506542 220.611575 
L 379.511109 220.675454 
L 379.515675 213.861952 
L 379.54306 261.770189 
L 379.611425 234.240851 
L 379.615977 253.231134 
L 379.684197 208.008468 
L 379.715986 214.497547 
L 379.806651 243.502406 
L 379.752281 209.09509 
L 379.833804 227.508432 
L 379.856415 209.510707 
L 379.93318 242.687484 
L 379.9422 231.400268 
L 379.951217 252.487972 
L 380.009774 218.171532 
L 380.054749 234.500459 
L 380.090687 217.406736 
L 380.06823 245.53173 
L 380.162449 239.502853 
L 380.220646 216.813804 
L 380.184844 264.363483 
L 380.238533 236.195484 
L 380.287673 278.96419 
L 380.332285 222.928913 
L 380.345658 225.297521 
L 380.390194 257.162585 
L 380.456891 244.940175 
L 380.558908 224.264832 
L 380.536756 251.983814 
L 380.567764 240.311794 
L 380.585471 254.169245 
L 380.656206 226.141117 
L 380.665037 233.982506 
L 380.67828 227.490639 
L 380.709161 264.535471 
L 380.744419 242.788318 
L 380.748824 256.392024 
L 380.766437 227.099313 
L 380.849976 237.745371 
L 380.867537 283.044043 
L 380.942072 223.580616 
L 381.042657 274.820535 
L 381.047023 221.956095 
L 381.051389 243.18546 
L 381.121169 217.662914 
L 381.103738 267.706631 
L 381.134237 231.460117 
L 381.138592 282.578246 
L 381.156006 226.010208 
L 381.242943 231.63942 
L 381.264643 261.153235 
L 381.255965 224.290717 
L 381.346978 243.857498 
L 381.364286 212.966375 
L 381.46364 216.181584 
L 381.489511 247.37256 
L 381.558405 216.173001 
L 381.579907 246.070788 
L 381.652909 202.489546 
L 381.69578 215.773159 
L 381.721476 211.279618 
L 381.734317 222.02639 
L 381.777086 287.269632 
L 381.836872 206.949304 
L 381.841139 208.334348 
L 381.922101 223.67466 
L 381.892295 199.716559 
L 381.951881 208.680965 
L 381.998626 196.7622 
L 382.019852 224.328073 
L 382.053788 208.263913 
L 382.113094 238.80496 
L 382.151165 205.122162 
L 382.163846 213.626568 
L 382.210302 199.463214 
L 382.252481 234.542622 
L 382.277764 207.990273 
L 382.332478 250.033847 
L 382.311445 201.812008 
L 382.395502 227.890313 
L 382.412289 214.654037 
L 382.433261 249.169076 
L 382.487728 222.749114 
L 382.491914 259.448433 
L 382.525385 208.854201 
L 382.600576 241.155621 
L 382.625603 209.705736 
L 382.704734 245.61777 
L 382.713053 225.815962 
L 382.754618 259.528058 
L 382.775381 218.168381 
L 382.825162 231.715776 
L 382.932774 210.785176 
L 382.903835 249.815439 
L 382.941037 216.726165 
L 382.990578 246.51294 
L 382.998828 216.011573 
L 383.052404 225.804278 
L 383.085332 217.21556 
L 383.060639 243.139606 
L 383.110008 217.3991 
L 383.114119 275.134005 
L 383.138773 212.136199 
L 383.220828 236.129456 
L 383.224925 240.48904 
L 383.257688 208.494829 
L 383.32312 234.883153 
L 383.433253 208.056073 
L 383.355789 244.356265 
L 383.437326 210.950446 
L 383.445469 210.373105 
L 383.449539 220.020647 
L 383.543034 242.12963 
L 383.473954 205.378893 
L 383.55521 208.225081 
L 383.563325 207.397096 
L 383.575494 214.965317 
L 383.57955 212.027179 
L 383.595766 243.134507 
L 383.632226 200.134611 
L 383.680778 208.756101 
L 383.696947 199.327367 
L 383.745407 223.190306 
L 383.789769 207.567326 
L 383.801858 199.761252 
L 383.86626 220.280949 
L 383.870281 219.501432 
L 383.882341 225.777806 
L 383.898415 214.614276 
L 384.006718 247.386216 
L 384.010722 236.657003 
L 384.014727 236.826425 
L 384.1027 216.95748 
L 384.038742 253.295639 
L 384.118671 227.338514 
L 384.138624 254.105439 
L 384.222301 217.142408 
L 384.23026 237.665019 
L 384.254124 218.929959 
L 384.285918 250.929218 
L 384.317682 234.02453 
L 384.325618 257.611378 
L 384.412798 226.567616 
L 384.424669 235.574724 
L 384.519489 224.192206 
L 384.476062 260.743005 
L 384.527379 229.575494 
L 384.53921 252.195899 
L 384.551037 225.289964 
L 384.637646 244.454516 
L 384.676941 217.197186 
L 384.716192 269.576477 
L 384.74756 229.600887 
L 384.771067 257.57514 
L 384.833673 219.45084 
L 384.861028 252.773519 
L 384.939064 217.798635 
L 384.92737 257.103379 
L 384.974122 229.195402 
L 385.071318 255.627847 
L 385.02081 224.147779 
L 385.086843 244.952129 
L 385.121751 219.676122 
L 385.168239 264.849117 
L 385.199195 223.496255 
L 385.272606 256.693949 
L 385.280324 218.840461 
L 385.295756 221.203276 
L 385.299613 219.686162 
L 385.330451 244.942191 
L 385.338156 231.154938 
L 385.41127 255.746357 
L 385.384352 219.059796 
L 385.445849 227.271691 
L 385.530227 254.846669 
L 385.507235 219.418863 
L 385.553203 236.152618 
L 385.560859 213.998321 
L 385.62204 252.739465 
L 385.664039 225.056649 
L 385.679298 215.54127 
L 385.683112 242.505783 
L 385.686925 282.078256 
L 385.759299 216.513198 
L 385.793528 243.113431 
L 385.869471 217.447918 
L 385.84291 245.147582 
L 385.907379 220.310392 
L 385.937676 248.744897 
L 385.967945 213.673706 
L 386.024629 229.331673 
L 386.077449 210.638889 
L 386.051049 270.893853 
L 386.137715 221.356849 
L 386.216654 210.477425 
L 386.160288 242.610985 
L 386.23167 217.456071 
L 386.306648 265.626341 
L 386.299158 216.352318 
L 386.340335 225.323606 
L 386.415076 192.820691 
L 386.347816 236.443662 
L 386.463571 206.422966 
L 386.467298 206.560825 
L 386.471025 202.255847 
L 386.519441 238.505436 
L 386.556637 228.198034 
L 386.578935 247.126146 
L 386.653158 190.066133 
L 386.664278 183.80027 
L 386.705019 221.875199 
L 386.745712 201.554741 
L 386.856446 239.452967 
L 386.860131 219.944625 
L 386.966825 182.792433 
L 386.922716 237.120866 
L 386.992528 191.381252 
L 386.996199 191.007425 
L 386.999869 199.949851 
L 387.054872 246.979877 
L 387.117102 227.27098 
L 387.233935 184.108461 
L 387.142693 246.62114 
L 387.241224 185.86336 
L 387.303117 256.476358 
L 387.379418 240.004011 
L 387.383047 214.089113 
L 387.473652 260.897308 
L 387.484509 235.684807 
L 387.592885 267.14978 
L 387.520672 218.57817 
L 387.596491 245.588421 
L 387.679339 267.324667 
L 387.711704 211.803083 
L 387.794274 231.690372 
L 387.772753 185.419909 
L 387.830112 227.860926 
L 387.840856 222.06683 
L 387.844437 251.491876 
L 387.848017 264.735908 
L 387.926688 210.170903 
L 387.944543 238.002707 
L 388.033676 186.9521 
L 388.058592 207.488016 
L 388.072822 240.605394 
L 388.182901 229.119972 
L 388.274953 194.429639 
L 388.211251 253.171534 
L 388.299695 201.766489 
L 388.324418 187.784736 
L 388.373811 237.547672 
L 388.398481 209.878369 
L 388.433693 266.464851 
L 388.500496 206.536528 
L 388.50752 209.440066 
L 388.535603 196.271788 
L 388.595203 232.308968 
L 388.60571 213.352614 
L 388.623214 255.45387 
L 388.630213 211.920027 
L 388.717583 222.311123 
L 388.721073 222.17087 
L 388.773383 211.952936 
L 388.836049 240.787977 
L 388.839527 208.298841 
L 388.84996 259.554231 
L 388.947174 233.198228 
L 389.051027 213.666794 
L 388.974899 260.907213 
L 389.057939 228.574894 
L 389.07176 247.703483 
L 389.154566 210.904108 
L 389.168348 233.924322 
L 389.182124 210.793728 
L 389.18901 258.842736 
L 389.281835 218.379138 
L 389.295566 257.680783 
L 389.340152 211.608473 
L 389.391526 215.573533 
L 389.459904 244.424945 
L 389.483804 212.75872 
L 389.500866 216.900375 
L 389.545186 207.855163 
L 389.528146 247.120148 
L 389.582643 232.830597 
L 389.586046 259.425365 
L 389.674409 211.837555 
L 389.694768 246.636238 
L 389.779468 211.314233 
L 389.809908 221.434563 
L 389.826808 270.281332 
L 389.857207 208.472416 
L 389.917923 221.396153 
L 389.924663 210.6201 
L 389.941506 252.192065 
L 390.018879 212.936916 
L 390.025599 246.219701 
L 390.086018 210.879665 
L 390.129588 221.783947 
L 390.132937 211.968585 
L 390.146331 259.879712 
L 390.236602 213.556653 
L 390.269975 282.967636 
L 390.343282 209.300274 
L 390.34661 223.260883 
L 390.403144 210.664981 
L 390.426395 245.88473 
L 390.436355 220.890678 
L 390.439675 257.502813 
L 390.492741 211.105762 
L 390.549034 238.993002 
L 390.565573 205.128999 
L 390.63165 255.260267 
L 390.661343 226.104999 
L 390.753558 210.728328 
L 390.671235 236.904492 
L 390.763423 222.008952 
L 390.793002 246.801795 
L 390.842244 210.332361 
L 390.875033 232.925241 
L 390.937245 199.134651 
L 390.956868 252.198683 
L 390.986281 211.209376 
L 391.087398 248.791298 
L 391.015668 208.740755 
L 391.097168 219.113251 
L 391.194713 238.781202 
L 391.10368 209.166274 
L 391.197959 226.238304 
L 391.201206 207.447152 
L 391.249865 240.809424 
L 391.308165 220.881479 
L 391.334044 240.729069 
L 391.369596 207.121808 
L 391.421242 225.710455 
L 391.463148 203.446409 
L 391.447036 249.889724 
L 391.530733 214.272833 
L 391.582137 247.820388 
L 391.594976 202.700154 
L 391.639875 230.940403 
L 391.703914 207.06178 
L 391.719905 247.888115 
L 391.755059 221.08729 
L 391.806128 249.307652 
L 391.844379 210.095125 
L 391.863489 224.305207 
L 391.962054 202.221289 
L 391.958879 241.61124 
L 391.974752 212.375424 
L 392.072997 205.301561 
L 392.088817 240.665065 
L 392.09198 206.332755 
L 392.095143 250.214903 
L 392.199351 241.181957 
L 392.202504 244.412684 
L 392.234017 204.847762 
L 392.287522 234.626498 
L 392.318957 202.289559 
L 392.325241 236.041833 
L 392.400553 221.19333 
L 392.403687 220.660652 
L 392.406822 255.510167 
L 392.466316 205.293691 
L 392.513212 220.172053 
L 392.553803 201.116114 
L 392.556924 243.379054 
L 392.622387 211.570118 
L 392.712584 274.431631 
L 392.725006 203.232428 
L 392.731216 211.103619 
L 392.81803 205.606828 
L 392.852076 249.33257 
L 392.910802 203.678104 
L 392.876815 256.21185 
L 392.963262 216.044991 
L 393.021798 242.065247 
L 392.969429 208.573227 
L 393.077162 222.083764 
L 393.08638 205.151052 
L 393.163105 248.205382 
L 393.184558 221.183133 
L 393.187621 246.298807 
L 393.212119 199.967066 
L 393.294671 218.172362 
L 393.331298 204.677698 
L 393.328247 245.018184 
L 393.364837 230.591488 
L 393.431818 247.580161 
L 393.443982 206.076771 
L 393.471336 235.289643 
L 393.550236 201.255956 
L 393.565388 240.934306 
L 393.583562 208.0227 
L 393.628954 258.923025 
L 393.589618 202.94313 
L 393.695421 231.506173 
L 393.761759 197.78185 
L 393.716543 252.588448 
L 393.806917 208.999123 
L 393.815941 243.113529 
L 393.827969 199.482149 
L 393.915051 215.289063 
L 393.91805 205.657243 
L 393.921049 245.046271 
L 394.010885 211.445354 
L 394.013876 255.796326 
L 394.028824 204.882044 
L 394.12136 225.623538 
L 394.198779 205.062506 
L 394.169023 246.817173 
L 394.234451 208.005503 
L 394.305685 248.58547 
L 394.27899 202.503615 
L 394.34717 238.144901 
L 394.415215 195.41463 
L 394.444758 240.115598 
L 394.45952 204.784869 
L 394.471324 258.176194 
L 394.559731 202.659665 
L 394.574444 225.5862 
L 394.644975 199.218561 
L 394.647911 247.068251 
L 394.683119 223.018174 
L 394.730007 237.612874 
L 394.785603 205.042977 
L 394.788527 227.834913 
L 394.855702 196.080837 
L 394.864454 241.094441 
L 394.896526 223.359782 
L 394.998375 263.298946 
L 394.96349 204.402156 
L 395.004186 230.121831 
L 395.03903 200.818744 
L 395.02742 295.488 
L 395.117301 220.181845 
L 395.169381 240.683847 
L 395.175163 205.027894 
L 395.212722 233.505394 
L 395.253123 203.100598 
L 395.281952 248.198981 
L 395.325151 216.232262 
L 395.38841 201.81125 
L 395.374043 241.421031 
L 395.437212 209.488788 
L 395.528887 232.671068 
L 395.540329 204.430923 
L 395.548908 228.112937 
L 395.648838 202.800107 
L 395.628876 257.925531 
L 395.66309 215.842663 
L 395.728574 248.129155 
L 395.759847 200.225884 
L 395.771213 230.341205 
L 395.833654 203.69895 
L 395.82231 241.969706 
L 395.881826 217.390772 
L 395.969496 236.673999 
L 395.935586 199.087582 
L 395.989262 217.244784 
L 395.992084 201.962452 
L 395.997729 255.853601 
L 396.099175 220.738954 
L 396.205931 200.685611 
L 396.130112 264.175287 
L 396.208736 221.04843 
L 396.211541 220.92385 
L 396.242377 201.844374 
L 396.247981 235.745183 
L 396.32354 207.128347 
L 396.376611 259.211602 
L 396.404511 202.409358 
L 396.43796 225.174297 
L 396.499199 203.92634 
L 396.454673 243.10165 
L 396.532556 212.197118 
L 396.615807 234.415748 
L 396.629662 197.681815 
L 396.643512 233.397355 
L 396.679496 200.360239 
L 396.75687 210.553185 
L 396.834071 201.008425 
L 396.867103 236.622175 
L 396.935819 200.969936 
L 396.949546 262.026706 
L 396.979725 212.463972 
L 397.020836 242.718308 
L 397.056426 201.795636 
L 397.083777 215.344357 
L 397.160245 202.411855 
L 397.182062 243.412669 
L 397.19569 211.139924 
L 397.233821 245.038882 
L 397.209313 208.206356 
L 397.307239 213.964611 
L 397.334391 198.021301 
L 397.318102 225.715906 
L 397.364233 198.731238 
L 397.369656 239.211263 
L 397.475235 212.556796 
L 397.483343 247.625236 
L 397.496852 200.736318 
L 397.585879 218.937161 
L 397.631651 203.172177 
L 397.685422 246.599218 
L 397.69348 213.431692 
L 397.696166 238.479814 
L 397.768601 204.542693 
L 397.803422 226.030307 
L 397.875631 198.51258 
L 397.880974 246.615002 
L 397.923686 215.285227 
L 397.937022 268.068346 
L 398.00895 199.220064 
L 398.032893 213.836378 
L 398.080727 235.976911 
L 398.120539 201.437455 
L 398.139102 211.344066 
L 398.181493 201.79956 
L 398.176197 258.413209 
L 398.247625 203.442213 
L 398.324178 240.846306 
L 398.326815 201.462311 
L 398.35844 215.247913 
L 398.374241 198.486857 
L 398.39793 265.213142 
L 398.458393 206.586491 
L 398.46102 230.460359 
L 398.487273 209.643453 
" style="fill:none;stroke:#1f77b4;stroke-linecap:square;stroke-width:1.5;"/>
   </g>
   <g id="line2d_47">
    <path clip-path="url(#p629953456a)" d="M 259.370523 307.584 
L 259.370523 41.472 
" style="fill:none;stroke:#ff0000;stroke-dasharray:5.55,2.4;stroke-dashoffset:0;stroke-width:1.5;"/>
   </g>
   <g id="line2d_48">
    <path clip-path="url(#p629953456a)" d="M 290.397967 307.584 
L 290.397967 41.472 
" style="fill:none;stroke:#ff0000;stroke-dasharray:5.55,2.4;stroke-dashoffset:0;stroke-width:1.5;"/>
   </g>
   <g id="line2d_49">
    <path clip-path="url(#p629953456a)" d="M 321.051176 307.584 
L 321.051176 41.472 
" style="fill:none;stroke:#ff0000;stroke-dasharray:5.55,2.4;stroke-dashoffset:0;stroke-width:1.5;"/>
   </g>
   <g id="patch_3">
    <path d="M 57.6 307.584 
L 57.6 41.472 
" style="fill:none;stroke:#000000;stroke-linecap:square;stroke-linejoin:miter;stroke-width:0.8;"/>
   </g>
   <g id="patch_4">
    <path d="M 414.72 307.584 
L 414.72 41.472 
" style="fill:none;stroke:#000000;stroke-linecap:square;stroke-linejoin:miter;stroke-width:0.8;"/>
   </g>
   <g id="patch_5">
    <path d="M 57.6 307.584 
L 414.72 307.584 
" style="fill:none;stroke:#000000;stroke-linecap:square;stroke-linejoin:miter;stroke-width:0.8;"/>
   </g>
   <g id="patch_6">
    <path d="M 57.6 41.472 
L 414.72 41.472 
" style="fill:none;stroke:#000000;stroke-linecap:square;stroke-linejoin:miter;stroke-width:0.8;"/>
   </g>
   <g id="text_14">
    <!-- DFT good -->
    <g transform="translate(207.661875 35.472)scale(0.12 -0.12)">
     <defs>
      <path d="M 1259 4147 
L 1259 519 
L 2022 519 
Q 2988 519 3436 956 
Q 3884 1394 3884 2338 
Q 3884 3275 3436 3711 
Q 2988 4147 2022 4147 
L 1259 4147 
z
M 628 4666 
L 1925 4666 
Q 3281 4666 3915 4102 
Q 4550 3538 4550 2338 
Q 4550 1131 3912 565 
Q 3275 0 1925 0 
L 628 0 
L 628 4666 
z
" id="DejaVuSans-44" transform="scale(0.015625)"/>
      <path d="M -19 4666 
L 3928 4666 
L 3928 4134 
L 2272 4134 
L 2272 0 
L 1638 0 
L 1638 4134 
L -19 4134 
L -19 4666 
z
" id="DejaVuSans-54" transform="scale(0.015625)"/>
      <path d="M 2906 1791 
Q 2906 2416 2648 2759 
Q 2391 3103 1925 3103 
Q 1463 3103 1205 2759 
Q 947 2416 947 1791 
Q 947 1169 1205 825 
Q 1463 481 1925 481 
Q 2391 481 2648 825 
Q 2906 1169 2906 1791 
z
M 3481 434 
Q 3481 -459 3084 -895 
Q 2688 -1331 1869 -1331 
Q 1566 -1331 1297 -1286 
Q 1028 -1241 775 -1147 
L 775 -588 
Q 1028 -725 1275 -790 
Q 1522 -856 1778 -856 
Q 2344 -856 2625 -561 
Q 2906 -266 2906 331 
L 2906 616 
Q 2728 306 2450 153 
Q 2172 0 1784 0 
Q 1141 0 747 490 
Q 353 981 353 1791 
Q 353 2603 747 3093 
Q 1141 3584 1784 3584 
Q 2172 3584 2450 3431 
Q 2728 3278 2906 2969 
L 2906 3500 
L 3481 3500 
L 3481 434 
z
" id="DejaVuSans-67" transform="scale(0.015625)"/>
     </defs>
     <use xlink:href="#DejaVuSans-44"/>
     <use x="77.001953" xlink:href="#DejaVuSans-46"/>
     <use x="132.771484" xlink:href="#DejaVuSans-54"/>
     <use x="193.855469" xlink:href="#DejaVuSans-20"/>
     <use x="225.642578" xlink:href="#DejaVuSans-67"/>
     <use x="289.119141" xlink:href="#DejaVuSans-6f"/>
     <use x="350.300781" xlink:href="#DejaVuSans-6f"/>
     <use x="411.482422" xlink:href="#DejaVuSans-64"/>
    </g>
   </g>
  </g>
 </g>
 <defs>
  <clipPath id="p629953456a">
   <rect height="266.112" width="357.12" x="57.6" y="41.472"/>
  </clipPath>
 </defs>
</svg>
