<?xml version="1.0" encoding="utf-8" standalone="no"?>
<!DOCTYPE svg PUBLIC "-//W3C//DTD SVG 1.1//EN"
  "http://www.w3.org/Graphics/SVG/1.1/DTD/svg11.dtd">
<svg height="345.6pt" version="1.1" viewBox="0 0 460.8 345.6" width="460.8pt" xmlns="http://www.w3.org/2000/svg" xmlns:xlink="http://www.w3.org/1999/xlink">
 <metadata>
  <rdf:RDF xmlns:cc="http://creativecommons.org/ns#" xmlns:dc="http://purl.org/dc/elements/1.1/" xmlns:rdf="http://www.w3.org/1999/02/22-rdf-syntax-ns#">
   <cc:Work>
    <dc:type rdf:resource="http://purl.org/dc/dcmitype/StillImage"/>
    <dc:date>2021-10-07T14:02:36.117970</dc:date>
    <dc:format>image/svg+xml</dc:format>
    <dc:creator>
     <cc:Agent>
      <dc:title>Matplotlib v3.4.2, https://matplotlib.org/</dc:title>
     </cc:Agent>
    </dc:creator>
   </cc:Work>
  </rdf:RDF>
 </metadata>
 <defs>
  <style type="text/css">*{stroke-linecap:butt;stroke-linejoin:round;}</style>
 </defs>
 <g id="figure_1">
  <g id="patch_1">
   <path d="M 0 345.6 
L 460.8 345.6 
L 460.8 0 
L 0 0 
z
" style="fill:#ffffff;"/>
  </g>
  <g id="axes_1">
   <g id="patch_2">
    <path d="M 57.6 307.584 
L 414.72 307.584 
L 414.72 41.472 
L 57.6 41.472 
z
" style="fill:#ffffff;"/>
   </g>
   <g id="matplotlib.axis_1">
    <g id="xtick_1">
     <g id="line2d_1">
      <defs>
       <path d="M 0 0 
L 0 3.5 
" id="mbbae9e3553" style="stroke:#000000;stroke-width:0.8;"/>
      </defs>
      <g>
       <use style="stroke:#000000;stroke-width:0.8;" x="131.851789" xlink:href="#mbbae9e3553" y="307.584"/>
      </g>
     </g>
     <g id="text_1">
      <!-- $\mathdefault{10^{1}}$ -->
      <g transform="translate(123.051789 322.182437)scale(0.1 -0.1)">
       <defs>
        <path d="M 794 531 
L 1825 531 
L 1825 4091 
L 703 3866 
L 703 4441 
L 1819 4666 
L 2450 4666 
L 2450 531 
L 3481 531 
L 3481 0 
L 794 0 
L 794 531 
z
" id="DejaVuSans-31" transform="scale(0.015625)"/>
        <path d="M 2034 4250 
Q 1547 4250 1301 3770 
Q 1056 3291 1056 2328 
Q 1056 1369 1301 889 
Q 1547 409 2034 409 
Q 2525 409 2770 889 
Q 3016 1369 3016 2328 
Q 3016 3291 2770 3770 
Q 2525 4250 2034 4250 
z
M 2034 4750 
Q 2819 4750 3233 4129 
Q 3647 3509 3647 2328 
Q 3647 1150 3233 529 
Q 2819 -91 2034 -91 
Q 1250 -91 836 529 
Q 422 1150 422 2328 
Q 422 3509 836 4129 
Q 1250 4750 2034 4750 
z
" id="DejaVuSans-30" transform="scale(0.015625)"/>
       </defs>
       <use transform="translate(0 0.684375)" xlink:href="#DejaVuSans-31"/>
       <use transform="translate(63.623047 0.684375)" xlink:href="#DejaVuSans-30"/>
       <use transform="translate(128.203125 38.965625)scale(0.7)" xlink:href="#DejaVuSans-31"/>
      </g>
     </g>
    </g>
    <g id="xtick_2">
     <g id="line2d_2">
      <g>
       <use style="stroke:#000000;stroke-width:0.8;" x="211.601385" xlink:href="#mbbae9e3553" y="307.584"/>
      </g>
     </g>
     <g id="text_2">
      <!-- $\mathdefault{10^{2}}$ -->
      <g transform="translate(202.801385 322.182437)scale(0.1 -0.1)">
       <defs>
        <path d="M 1228 531 
L 3431 531 
L 3431 0 
L 469 0 
L 469 531 
Q 828 903 1448 1529 
Q 2069 2156 2228 2338 
Q 2531 2678 2651 2914 
Q 2772 3150 2772 3378 
Q 2772 3750 2511 3984 
Q 2250 4219 1831 4219 
Q 1534 4219 1204 4116 
Q 875 4013 500 3803 
L 500 4441 
Q 881 4594 1212 4672 
Q 1544 4750 1819 4750 
Q 2544 4750 2975 4387 
Q 3406 4025 3406 3419 
Q 3406 3131 3298 2873 
Q 3191 2616 2906 2266 
Q 2828 2175 2409 1742 
Q 1991 1309 1228 531 
z
" id="DejaVuSans-32" transform="scale(0.015625)"/>
       </defs>
       <use transform="translate(0 0.765625)" xlink:href="#DejaVuSans-31"/>
       <use transform="translate(63.623047 0.765625)" xlink:href="#DejaVuSans-30"/>
       <use transform="translate(128.203125 39.046875)scale(0.7)" xlink:href="#DejaVuSans-32"/>
      </g>
     </g>
    </g>
    <g id="xtick_3">
     <g id="line2d_3">
      <g>
       <use style="stroke:#000000;stroke-width:0.8;" x="291.350981" xlink:href="#mbbae9e3553" y="307.584"/>
      </g>
     </g>
     <g id="text_3">
      <!-- $\mathdefault{10^{3}}$ -->
      <g transform="translate(282.550981 322.182437)scale(0.1 -0.1)">
       <defs>
        <path d="M 2597 2516 
Q 3050 2419 3304 2112 
Q 3559 1806 3559 1356 
Q 3559 666 3084 287 
Q 2609 -91 1734 -91 
Q 1441 -91 1130 -33 
Q 819 25 488 141 
L 488 750 
Q 750 597 1062 519 
Q 1375 441 1716 441 
Q 2309 441 2620 675 
Q 2931 909 2931 1356 
Q 2931 1769 2642 2001 
Q 2353 2234 1838 2234 
L 1294 2234 
L 1294 2753 
L 1863 2753 
Q 2328 2753 2575 2939 
Q 2822 3125 2822 3475 
Q 2822 3834 2567 4026 
Q 2313 4219 1838 4219 
Q 1578 4219 1281 4162 
Q 984 4106 628 3988 
L 628 4550 
Q 988 4650 1302 4700 
Q 1616 4750 1894 4750 
Q 2613 4750 3031 4423 
Q 3450 4097 3450 3541 
Q 3450 3153 3228 2886 
Q 3006 2619 2597 2516 
z
" id="DejaVuSans-33" transform="scale(0.015625)"/>
       </defs>
       <use transform="translate(0 0.765625)" xlink:href="#DejaVuSans-31"/>
       <use transform="translate(63.623047 0.765625)" xlink:href="#DejaVuSans-30"/>
       <use transform="translate(128.203125 39.046875)scale(0.7)" xlink:href="#DejaVuSans-33"/>
      </g>
     </g>
    </g>
    <g id="xtick_4">
     <g id="line2d_4">
      <g>
       <use style="stroke:#000000;stroke-width:0.8;" x="371.100576" xlink:href="#mbbae9e3553" y="307.584"/>
      </g>
     </g>
     <g id="text_4">
      <!-- $\mathdefault{10^{4}}$ -->
      <g transform="translate(362.300576 322.182437)scale(0.1 -0.1)">
       <defs>
        <path d="M 2419 4116 
L 825 1625 
L 2419 1625 
L 2419 4116 
z
M 2253 4666 
L 3047 4666 
L 3047 1625 
L 3713 1625 
L 3713 1100 
L 3047 1100 
L 3047 0 
L 2419 0 
L 2419 1100 
L 313 1100 
L 313 1709 
L 2253 4666 
z
" id="DejaVuSans-34" transform="scale(0.015625)"/>
       </defs>
       <use transform="translate(0 0.684375)" xlink:href="#DejaVuSans-31"/>
       <use transform="translate(63.623047 0.684375)" xlink:href="#DejaVuSans-30"/>
       <use transform="translate(128.203125 38.965625)scale(0.7)" xlink:href="#DejaVuSans-34"/>
      </g>
     </g>
    </g>
    <g id="xtick_5">
     <g id="line2d_5">
      <defs>
       <path d="M 0 0 
L 0 2 
" id="m4d01aa7ff9" style="stroke:#000000;stroke-width:0.6;"/>
      </defs>
      <g>
       <use style="stroke:#000000;stroke-width:0.6;" x="76.109214" xlink:href="#m4d01aa7ff9" y="307.584"/>
      </g>
     </g>
    </g>
    <g id="xtick_6">
     <g id="line2d_6">
      <g>
       <use style="stroke:#000000;stroke-width:0.6;" x="90.152421" xlink:href="#m4d01aa7ff9" y="307.584"/>
      </g>
     </g>
    </g>
    <g id="xtick_7">
     <g id="line2d_7">
      <g>
       <use style="stroke:#000000;stroke-width:0.6;" x="100.116234" xlink:href="#m4d01aa7ff9" y="307.584"/>
      </g>
     </g>
    </g>
    <g id="xtick_8">
     <g id="line2d_8">
      <g>
       <use style="stroke:#000000;stroke-width:0.6;" x="107.844769" xlink:href="#m4d01aa7ff9" y="307.584"/>
      </g>
     </g>
    </g>
    <g id="xtick_9">
     <g id="line2d_9">
      <g>
       <use style="stroke:#000000;stroke-width:0.6;" x="114.159441" xlink:href="#m4d01aa7ff9" y="307.584"/>
      </g>
     </g>
    </g>
    <g id="xtick_10">
     <g id="line2d_10">
      <g>
       <use style="stroke:#000000;stroke-width:0.6;" x="119.498421" xlink:href="#m4d01aa7ff9" y="307.584"/>
      </g>
     </g>
    </g>
    <g id="xtick_11">
     <g id="line2d_11">
      <g>
       <use style="stroke:#000000;stroke-width:0.6;" x="124.123255" xlink:href="#m4d01aa7ff9" y="307.584"/>
      </g>
     </g>
    </g>
    <g id="xtick_12">
     <g id="line2d_12">
      <g>
       <use style="stroke:#000000;stroke-width:0.6;" x="128.202648" xlink:href="#m4d01aa7ff9" y="307.584"/>
      </g>
     </g>
    </g>
    <g id="xtick_13">
     <g id="line2d_13">
      <g>
       <use style="stroke:#000000;stroke-width:0.6;" x="155.85881" xlink:href="#m4d01aa7ff9" y="307.584"/>
      </g>
     </g>
    </g>
    <g id="xtick_14">
     <g id="line2d_14">
      <g>
       <use style="stroke:#000000;stroke-width:0.6;" x="169.902016" xlink:href="#m4d01aa7ff9" y="307.584"/>
      </g>
     </g>
    </g>
    <g id="xtick_15">
     <g id="line2d_15">
      <g>
       <use style="stroke:#000000;stroke-width:0.6;" x="179.86583" xlink:href="#m4d01aa7ff9" y="307.584"/>
      </g>
     </g>
    </g>
    <g id="xtick_16">
     <g id="line2d_16">
      <g>
       <use style="stroke:#000000;stroke-width:0.6;" x="187.594364" xlink:href="#m4d01aa7ff9" y="307.584"/>
      </g>
     </g>
    </g>
    <g id="xtick_17">
     <g id="line2d_17">
      <g>
       <use style="stroke:#000000;stroke-width:0.6;" x="193.909037" xlink:href="#m4d01aa7ff9" y="307.584"/>
      </g>
     </g>
    </g>
    <g id="xtick_18">
     <g id="line2d_18">
      <g>
       <use style="stroke:#000000;stroke-width:0.6;" x="199.248016" xlink:href="#m4d01aa7ff9" y="307.584"/>
      </g>
     </g>
    </g>
    <g id="xtick_19">
     <g id="line2d_19">
      <g>
       <use style="stroke:#000000;stroke-width:0.6;" x="203.872851" xlink:href="#m4d01aa7ff9" y="307.584"/>
      </g>
     </g>
    </g>
    <g id="xtick_20">
     <g id="line2d_20">
      <g>
       <use style="stroke:#000000;stroke-width:0.6;" x="207.952244" xlink:href="#m4d01aa7ff9" y="307.584"/>
      </g>
     </g>
    </g>
    <g id="xtick_21">
     <g id="line2d_21">
      <g>
       <use style="stroke:#000000;stroke-width:0.6;" x="235.608405" xlink:href="#m4d01aa7ff9" y="307.584"/>
      </g>
     </g>
    </g>
    <g id="xtick_22">
     <g id="line2d_22">
      <g>
       <use style="stroke:#000000;stroke-width:0.6;" x="249.651612" xlink:href="#m4d01aa7ff9" y="307.584"/>
      </g>
     </g>
    </g>
    <g id="xtick_23">
     <g id="line2d_23">
      <g>
       <use style="stroke:#000000;stroke-width:0.6;" x="259.615426" xlink:href="#m4d01aa7ff9" y="307.584"/>
      </g>
     </g>
    </g>
    <g id="xtick_24">
     <g id="line2d_24">
      <g>
       <use style="stroke:#000000;stroke-width:0.6;" x="267.34396" xlink:href="#m4d01aa7ff9" y="307.584"/>
      </g>
     </g>
    </g>
    <g id="xtick_25">
     <g id="line2d_25">
      <g>
       <use style="stroke:#000000;stroke-width:0.6;" x="273.658632" xlink:href="#m4d01aa7ff9" y="307.584"/>
      </g>
     </g>
    </g>
    <g id="xtick_26">
     <g id="line2d_26">
      <g>
       <use style="stroke:#000000;stroke-width:0.6;" x="278.997612" xlink:href="#m4d01aa7ff9" y="307.584"/>
      </g>
     </g>
    </g>
    <g id="xtick_27">
     <g id="line2d_27">
      <g>
       <use style="stroke:#000000;stroke-width:0.6;" x="283.622446" xlink:href="#m4d01aa7ff9" y="307.584"/>
      </g>
     </g>
    </g>
    <g id="xtick_28">
     <g id="line2d_28">
      <g>
       <use style="stroke:#000000;stroke-width:0.6;" x="287.701839" xlink:href="#m4d01aa7ff9" y="307.584"/>
      </g>
     </g>
    </g>
    <g id="xtick_29">
     <g id="line2d_29">
      <g>
       <use style="stroke:#000000;stroke-width:0.6;" x="315.358001" xlink:href="#m4d01aa7ff9" y="307.584"/>
      </g>
     </g>
    </g>
    <g id="xtick_30">
     <g id="line2d_30">
      <g>
       <use style="stroke:#000000;stroke-width:0.6;" x="329.401208" xlink:href="#m4d01aa7ff9" y="307.584"/>
      </g>
     </g>
    </g>
    <g id="xtick_31">
     <g id="line2d_31">
      <g>
       <use style="stroke:#000000;stroke-width:0.6;" x="339.365021" xlink:href="#m4d01aa7ff9" y="307.584"/>
      </g>
     </g>
    </g>
    <g id="xtick_32">
     <g id="line2d_32">
      <g>
       <use style="stroke:#000000;stroke-width:0.6;" x="347.093556" xlink:href="#m4d01aa7ff9" y="307.584"/>
      </g>
     </g>
    </g>
    <g id="xtick_33">
     <g id="line2d_33">
      <g>
       <use style="stroke:#000000;stroke-width:0.6;" x="353.408228" xlink:href="#m4d01aa7ff9" y="307.584"/>
      </g>
     </g>
    </g>
    <g id="xtick_34">
     <g id="line2d_34">
      <g>
       <use style="stroke:#000000;stroke-width:0.6;" x="358.747208" xlink:href="#m4d01aa7ff9" y="307.584"/>
      </g>
     </g>
    </g>
    <g id="xtick_35">
     <g id="line2d_35">
      <g>
       <use style="stroke:#000000;stroke-width:0.6;" x="363.372042" xlink:href="#m4d01aa7ff9" y="307.584"/>
      </g>
     </g>
    </g>
    <g id="xtick_36">
     <g id="line2d_36">
      <g>
       <use style="stroke:#000000;stroke-width:0.6;" x="367.451435" xlink:href="#m4d01aa7ff9" y="307.584"/>
      </g>
     </g>
    </g>
    <g id="xtick_37">
     <g id="line2d_37">
      <g>
       <use style="stroke:#000000;stroke-width:0.6;" x="395.107597" xlink:href="#m4d01aa7ff9" y="307.584"/>
      </g>
     </g>
    </g>
    <g id="xtick_38">
     <g id="line2d_38">
      <g>
       <use style="stroke:#000000;stroke-width:0.6;" x="409.150803" xlink:href="#m4d01aa7ff9" y="307.584"/>
      </g>
     </g>
    </g>
    <g id="text_5">
     <!-- Frequency (Hz) -->
     <g transform="translate(198.455312 335.860562)scale(0.1 -0.1)">
      <defs>
       <path d="M 628 4666 
L 3309 4666 
L 3309 4134 
L 1259 4134 
L 1259 2759 
L 3109 2759 
L 3109 2228 
L 1259 2228 
L 1259 0 
L 628 0 
L 628 4666 
z
" id="DejaVuSans-46" transform="scale(0.015625)"/>
       <path d="M 2631 2963 
Q 2534 3019 2420 3045 
Q 2306 3072 2169 3072 
Q 1681 3072 1420 2755 
Q 1159 2438 1159 1844 
L 1159 0 
L 581 0 
L 581 3500 
L 1159 3500 
L 1159 2956 
Q 1341 3275 1631 3429 
Q 1922 3584 2338 3584 
Q 2397 3584 2469 3576 
Q 2541 3569 2628 3553 
L 2631 2963 
z
" id="DejaVuSans-72" transform="scale(0.015625)"/>
       <path d="M 3597 1894 
L 3597 1613 
L 953 1613 
Q 991 1019 1311 708 
Q 1631 397 2203 397 
Q 2534 397 2845 478 
Q 3156 559 3463 722 
L 3463 178 
Q 3153 47 2828 -22 
Q 2503 -91 2169 -91 
Q 1331 -91 842 396 
Q 353 884 353 1716 
Q 353 2575 817 3079 
Q 1281 3584 2069 3584 
Q 2775 3584 3186 3129 
Q 3597 2675 3597 1894 
z
M 3022 2063 
Q 3016 2534 2758 2815 
Q 2500 3097 2075 3097 
Q 1594 3097 1305 2825 
Q 1016 2553 972 2059 
L 3022 2063 
z
" id="DejaVuSans-65" transform="scale(0.015625)"/>
       <path d="M 947 1747 
Q 947 1113 1208 752 
Q 1469 391 1925 391 
Q 2381 391 2643 752 
Q 2906 1113 2906 1747 
Q 2906 2381 2643 2742 
Q 2381 3103 1925 3103 
Q 1469 3103 1208 2742 
Q 947 2381 947 1747 
z
M 2906 525 
Q 2725 213 2448 61 
Q 2172 -91 1784 -91 
Q 1150 -91 751 415 
Q 353 922 353 1747 
Q 353 2572 751 3078 
Q 1150 3584 1784 3584 
Q 2172 3584 2448 3432 
Q 2725 3281 2906 2969 
L 2906 3500 
L 3481 3500 
L 3481 -1331 
L 2906 -1331 
L 2906 525 
z
" id="DejaVuSans-71" transform="scale(0.015625)"/>
       <path d="M 544 1381 
L 544 3500 
L 1119 3500 
L 1119 1403 
Q 1119 906 1312 657 
Q 1506 409 1894 409 
Q 2359 409 2629 706 
Q 2900 1003 2900 1516 
L 2900 3500 
L 3475 3500 
L 3475 0 
L 2900 0 
L 2900 538 
Q 2691 219 2414 64 
Q 2138 -91 1772 -91 
Q 1169 -91 856 284 
Q 544 659 544 1381 
z
M 1991 3584 
L 1991 3584 
z
" id="DejaVuSans-75" transform="scale(0.015625)"/>
       <path d="M 3513 2113 
L 3513 0 
L 2938 0 
L 2938 2094 
Q 2938 2591 2744 2837 
Q 2550 3084 2163 3084 
Q 1697 3084 1428 2787 
Q 1159 2491 1159 1978 
L 1159 0 
L 581 0 
L 581 3500 
L 1159 3500 
L 1159 2956 
Q 1366 3272 1645 3428 
Q 1925 3584 2291 3584 
Q 2894 3584 3203 3211 
Q 3513 2838 3513 2113 
z
" id="DejaVuSans-6e" transform="scale(0.015625)"/>
       <path d="M 3122 3366 
L 3122 2828 
Q 2878 2963 2633 3030 
Q 2388 3097 2138 3097 
Q 1578 3097 1268 2742 
Q 959 2388 959 1747 
Q 959 1106 1268 751 
Q 1578 397 2138 397 
Q 2388 397 2633 464 
Q 2878 531 3122 666 
L 3122 134 
Q 2881 22 2623 -34 
Q 2366 -91 2075 -91 
Q 1284 -91 818 406 
Q 353 903 353 1747 
Q 353 2603 823 3093 
Q 1294 3584 2113 3584 
Q 2378 3584 2631 3529 
Q 2884 3475 3122 3366 
z
" id="DejaVuSans-63" transform="scale(0.015625)"/>
       <path d="M 2059 -325 
Q 1816 -950 1584 -1140 
Q 1353 -1331 966 -1331 
L 506 -1331 
L 506 -850 
L 844 -850 
Q 1081 -850 1212 -737 
Q 1344 -625 1503 -206 
L 1606 56 
L 191 3500 
L 800 3500 
L 1894 763 
L 2988 3500 
L 3597 3500 
L 2059 -325 
z
" id="DejaVuSans-79" transform="scale(0.015625)"/>
       <path id="DejaVuSans-20" transform="scale(0.015625)"/>
       <path d="M 1984 4856 
Q 1566 4138 1362 3434 
Q 1159 2731 1159 2009 
Q 1159 1288 1364 580 
Q 1569 -128 1984 -844 
L 1484 -844 
Q 1016 -109 783 600 
Q 550 1309 550 2009 
Q 550 2706 781 3412 
Q 1013 4119 1484 4856 
L 1984 4856 
z
" id="DejaVuSans-28" transform="scale(0.015625)"/>
       <path d="M 628 4666 
L 1259 4666 
L 1259 2753 
L 3553 2753 
L 3553 4666 
L 4184 4666 
L 4184 0 
L 3553 0 
L 3553 2222 
L 1259 2222 
L 1259 0 
L 628 0 
L 628 4666 
z
" id="DejaVuSans-48" transform="scale(0.015625)"/>
       <path d="M 353 3500 
L 3084 3500 
L 3084 2975 
L 922 459 
L 3084 459 
L 3084 0 
L 275 0 
L 275 525 
L 2438 3041 
L 353 3041 
L 353 3500 
z
" id="DejaVuSans-7a" transform="scale(0.015625)"/>
       <path d="M 513 4856 
L 1013 4856 
Q 1481 4119 1714 3412 
Q 1947 2706 1947 2009 
Q 1947 1309 1714 600 
Q 1481 -109 1013 -844 
L 513 -844 
Q 928 -128 1133 580 
Q 1338 1288 1338 2009 
Q 1338 2731 1133 3434 
Q 928 4138 513 4856 
z
" id="DejaVuSans-29" transform="scale(0.015625)"/>
      </defs>
      <use xlink:href="#DejaVuSans-46"/>
      <use x="50.269531" xlink:href="#DejaVuSans-72"/>
      <use x="89.132812" xlink:href="#DejaVuSans-65"/>
      <use x="150.65625" xlink:href="#DejaVuSans-71"/>
      <use x="214.132812" xlink:href="#DejaVuSans-75"/>
      <use x="277.511719" xlink:href="#DejaVuSans-65"/>
      <use x="339.035156" xlink:href="#DejaVuSans-6e"/>
      <use x="402.414062" xlink:href="#DejaVuSans-63"/>
      <use x="457.394531" xlink:href="#DejaVuSans-79"/>
      <use x="516.574219" xlink:href="#DejaVuSans-20"/>
      <use x="548.361328" xlink:href="#DejaVuSans-28"/>
      <use x="587.375" xlink:href="#DejaVuSans-48"/>
      <use x="662.570312" xlink:href="#DejaVuSans-7a"/>
      <use x="715.060547" xlink:href="#DejaVuSans-29"/>
     </g>
    </g>
   </g>
   <g id="matplotlib.axis_2">
    <g id="ytick_1">
     <g id="line2d_39">
      <defs>
       <path d="M 0 0 
L -3.5 0 
" id="mc987f05647" style="stroke:#000000;stroke-width:0.8;"/>
      </defs>
      <g>
       <use style="stroke:#000000;stroke-width:0.8;" x="57.6" xlink:href="#mc987f05647" y="275.701546"/>
      </g>
     </g>
     <g id="text_6">
      <!-- −120 -->
      <g transform="translate(23.132812 279.500765)scale(0.1 -0.1)">
       <defs>
        <path d="M 678 2272 
L 4684 2272 
L 4684 1741 
L 678 1741 
L 678 2272 
z
" id="DejaVuSans-2212" transform="scale(0.015625)"/>
       </defs>
       <use xlink:href="#DejaVuSans-2212"/>
       <use x="83.789062" xlink:href="#DejaVuSans-31"/>
       <use x="147.412109" xlink:href="#DejaVuSans-32"/>
       <use x="211.035156" xlink:href="#DejaVuSans-30"/>
      </g>
     </g>
    </g>
    <g id="ytick_2">
     <g id="line2d_40">
      <g>
       <use style="stroke:#000000;stroke-width:0.8;" x="57.6" xlink:href="#mc987f05647" y="238.679288"/>
      </g>
     </g>
     <g id="text_7">
      <!-- −100 -->
      <g transform="translate(23.132812 242.478507)scale(0.1 -0.1)">
       <use xlink:href="#DejaVuSans-2212"/>
       <use x="83.789062" xlink:href="#DejaVuSans-31"/>
       <use x="147.412109" xlink:href="#DejaVuSans-30"/>
       <use x="211.035156" xlink:href="#DejaVuSans-30"/>
      </g>
     </g>
    </g>
    <g id="ytick_3">
     <g id="line2d_41">
      <g>
       <use style="stroke:#000000;stroke-width:0.8;" x="57.6" xlink:href="#mc987f05647" y="201.657031"/>
      </g>
     </g>
     <g id="text_8">
      <!-- −80 -->
      <g transform="translate(29.495313 205.456249)scale(0.1 -0.1)">
       <defs>
        <path d="M 2034 2216 
Q 1584 2216 1326 1975 
Q 1069 1734 1069 1313 
Q 1069 891 1326 650 
Q 1584 409 2034 409 
Q 2484 409 2743 651 
Q 3003 894 3003 1313 
Q 3003 1734 2745 1975 
Q 2488 2216 2034 2216 
z
M 1403 2484 
Q 997 2584 770 2862 
Q 544 3141 544 3541 
Q 544 4100 942 4425 
Q 1341 4750 2034 4750 
Q 2731 4750 3128 4425 
Q 3525 4100 3525 3541 
Q 3525 3141 3298 2862 
Q 3072 2584 2669 2484 
Q 3125 2378 3379 2068 
Q 3634 1759 3634 1313 
Q 3634 634 3220 271 
Q 2806 -91 2034 -91 
Q 1263 -91 848 271 
Q 434 634 434 1313 
Q 434 1759 690 2068 
Q 947 2378 1403 2484 
z
M 1172 3481 
Q 1172 3119 1398 2916 
Q 1625 2713 2034 2713 
Q 2441 2713 2670 2916 
Q 2900 3119 2900 3481 
Q 2900 3844 2670 4047 
Q 2441 4250 2034 4250 
Q 1625 4250 1398 4047 
Q 1172 3844 1172 3481 
z
" id="DejaVuSans-38" transform="scale(0.015625)"/>
       </defs>
       <use xlink:href="#DejaVuSans-2212"/>
       <use x="83.789062" xlink:href="#DejaVuSans-38"/>
       <use x="147.412109" xlink:href="#DejaVuSans-30"/>
      </g>
     </g>
    </g>
    <g id="ytick_4">
     <g id="line2d_42">
      <g>
       <use style="stroke:#000000;stroke-width:0.8;" x="57.6" xlink:href="#mc987f05647" y="164.634773"/>
      </g>
     </g>
     <g id="text_9">
      <!-- −60 -->
      <g transform="translate(29.495313 168.433992)scale(0.1 -0.1)">
       <defs>
        <path d="M 2113 2584 
Q 1688 2584 1439 2293 
Q 1191 2003 1191 1497 
Q 1191 994 1439 701 
Q 1688 409 2113 409 
Q 2538 409 2786 701 
Q 3034 994 3034 1497 
Q 3034 2003 2786 2293 
Q 2538 2584 2113 2584 
z
M 3366 4563 
L 3366 3988 
Q 3128 4100 2886 4159 
Q 2644 4219 2406 4219 
Q 1781 4219 1451 3797 
Q 1122 3375 1075 2522 
Q 1259 2794 1537 2939 
Q 1816 3084 2150 3084 
Q 2853 3084 3261 2657 
Q 3669 2231 3669 1497 
Q 3669 778 3244 343 
Q 2819 -91 2113 -91 
Q 1303 -91 875 529 
Q 447 1150 447 2328 
Q 447 3434 972 4092 
Q 1497 4750 2381 4750 
Q 2619 4750 2861 4703 
Q 3103 4656 3366 4563 
z
" id="DejaVuSans-36" transform="scale(0.015625)"/>
       </defs>
       <use xlink:href="#DejaVuSans-2212"/>
       <use x="83.789062" xlink:href="#DejaVuSans-36"/>
       <use x="147.412109" xlink:href="#DejaVuSans-30"/>
      </g>
     </g>
    </g>
    <g id="ytick_5">
     <g id="line2d_43">
      <g>
       <use style="stroke:#000000;stroke-width:0.8;" x="57.6" xlink:href="#mc987f05647" y="127.612515"/>
      </g>
     </g>
     <g id="text_10">
      <!-- −40 -->
      <g transform="translate(29.495313 131.411734)scale(0.1 -0.1)">
       <use xlink:href="#DejaVuSans-2212"/>
       <use x="83.789062" xlink:href="#DejaVuSans-34"/>
       <use x="147.412109" xlink:href="#DejaVuSans-30"/>
      </g>
     </g>
    </g>
    <g id="ytick_6">
     <g id="line2d_44">
      <g>
       <use style="stroke:#000000;stroke-width:0.8;" x="57.6" xlink:href="#mc987f05647" y="90.590258"/>
      </g>
     </g>
     <g id="text_11">
      <!-- −20 -->
      <g transform="translate(29.495313 94.389476)scale(0.1 -0.1)">
       <use xlink:href="#DejaVuSans-2212"/>
       <use x="83.789062" xlink:href="#DejaVuSans-32"/>
       <use x="147.412109" xlink:href="#DejaVuSans-30"/>
      </g>
     </g>
    </g>
    <g id="ytick_7">
     <g id="line2d_45">
      <g>
       <use style="stroke:#000000;stroke-width:0.8;" x="57.6" xlink:href="#mc987f05647" y="53.568"/>
      </g>
     </g>
     <g id="text_12">
      <!-- 0 -->
      <g transform="translate(44.2375 57.367219)scale(0.1 -0.1)">
       <use xlink:href="#DejaVuSans-30"/>
      </g>
     </g>
    </g>
    <g id="text_13">
     <!-- Volume (dB) -->
     <g transform="translate(17.053125 205.220188)rotate(-90)scale(0.1 -0.1)">
      <defs>
       <path d="M 1831 0 
L 50 4666 
L 709 4666 
L 2188 738 
L 3669 4666 
L 4325 4666 
L 2547 0 
L 1831 0 
z
" id="DejaVuSans-56" transform="scale(0.015625)"/>
       <path d="M 1959 3097 
Q 1497 3097 1228 2736 
Q 959 2375 959 1747 
Q 959 1119 1226 758 
Q 1494 397 1959 397 
Q 2419 397 2687 759 
Q 2956 1122 2956 1747 
Q 2956 2369 2687 2733 
Q 2419 3097 1959 3097 
z
M 1959 3584 
Q 2709 3584 3137 3096 
Q 3566 2609 3566 1747 
Q 3566 888 3137 398 
Q 2709 -91 1959 -91 
Q 1206 -91 779 398 
Q 353 888 353 1747 
Q 353 2609 779 3096 
Q 1206 3584 1959 3584 
z
" id="DejaVuSans-6f" transform="scale(0.015625)"/>
       <path d="M 603 4863 
L 1178 4863 
L 1178 0 
L 603 0 
L 603 4863 
z
" id="DejaVuSans-6c" transform="scale(0.015625)"/>
       <path d="M 3328 2828 
Q 3544 3216 3844 3400 
Q 4144 3584 4550 3584 
Q 5097 3584 5394 3201 
Q 5691 2819 5691 2113 
L 5691 0 
L 5113 0 
L 5113 2094 
Q 5113 2597 4934 2840 
Q 4756 3084 4391 3084 
Q 3944 3084 3684 2787 
Q 3425 2491 3425 1978 
L 3425 0 
L 2847 0 
L 2847 2094 
Q 2847 2600 2669 2842 
Q 2491 3084 2119 3084 
Q 1678 3084 1418 2786 
Q 1159 2488 1159 1978 
L 1159 0 
L 581 0 
L 581 3500 
L 1159 3500 
L 1159 2956 
Q 1356 3278 1631 3431 
Q 1906 3584 2284 3584 
Q 2666 3584 2933 3390 
Q 3200 3197 3328 2828 
z
" id="DejaVuSans-6d" transform="scale(0.015625)"/>
       <path d="M 2906 2969 
L 2906 4863 
L 3481 4863 
L 3481 0 
L 2906 0 
L 2906 525 
Q 2725 213 2448 61 
Q 2172 -91 1784 -91 
Q 1150 -91 751 415 
Q 353 922 353 1747 
Q 353 2572 751 3078 
Q 1150 3584 1784 3584 
Q 2172 3584 2448 3432 
Q 2725 3281 2906 2969 
z
M 947 1747 
Q 947 1113 1208 752 
Q 1469 391 1925 391 
Q 2381 391 2643 752 
Q 2906 1113 2906 1747 
Q 2906 2381 2643 2742 
Q 2381 3103 1925 3103 
Q 1469 3103 1208 2742 
Q 947 2381 947 1747 
z
" id="DejaVuSans-64" transform="scale(0.015625)"/>
       <path d="M 1259 2228 
L 1259 519 
L 2272 519 
Q 2781 519 3026 730 
Q 3272 941 3272 1375 
Q 3272 1813 3026 2020 
Q 2781 2228 2272 2228 
L 1259 2228 
z
M 1259 4147 
L 1259 2741 
L 2194 2741 
Q 2656 2741 2882 2914 
Q 3109 3088 3109 3444 
Q 3109 3797 2882 3972 
Q 2656 4147 2194 4147 
L 1259 4147 
z
M 628 4666 
L 2241 4666 
Q 2963 4666 3353 4366 
Q 3744 4066 3744 3513 
Q 3744 3084 3544 2831 
Q 3344 2578 2956 2516 
Q 3422 2416 3680 2098 
Q 3938 1781 3938 1306 
Q 3938 681 3513 340 
Q 3088 0 2303 0 
L 628 0 
L 628 4666 
z
" id="DejaVuSans-42" transform="scale(0.015625)"/>
      </defs>
      <use xlink:href="#DejaVuSans-56"/>
      <use x="60.658203" xlink:href="#DejaVuSans-6f"/>
      <use x="121.839844" xlink:href="#DejaVuSans-6c"/>
      <use x="149.623047" xlink:href="#DejaVuSans-75"/>
      <use x="213.001953" xlink:href="#DejaVuSans-6d"/>
      <use x="310.414062" xlink:href="#DejaVuSans-65"/>
      <use x="371.9375" xlink:href="#DejaVuSans-20"/>
      <use x="403.724609" xlink:href="#DejaVuSans-28"/>
      <use x="442.738281" xlink:href="#DejaVuSans-64"/>
      <use x="506.214844" xlink:href="#DejaVuSans-42"/>
      <use x="574.818359" xlink:href="#DejaVuSans-29"/>
     </g>
    </g>
   </g>
   <g id="line2d_46">
    <path clip-path="url(#pb648afa765)" d="M -1 146.730646 
L 73.832727 146.732515 
L 97.839748 152.204559 
L 111.882954 169.728745 
L 121.846768 145.923247 
L 129.575302 153.268398 
L 135.889975 147.110962 
L 141.228954 140.483029 
L 145.853789 147.558133 
L 149.933182 146.299486 
L 153.582323 146.144942 
L 156.883373 162.885989 
L 159.896995 159.10876 
L 162.669259 142.999926 
L 165.235975 134.849526 
L 167.62553 124.445903 
L 169.860809 142.276055 
L 171.960531 132.872219 
L 173.940202 161.249977 
L 175.81281 153.351108 
L 177.589343 139.800814 
L 179.279181 168.146853 
L 180.890393 153.259784 
L 182.429972 147.597677 
L 183.904016 135.813183 
L 185.317878 129.668111 
L 186.67628 136.401342 
L 187.983409 132.438614 
L 189.242995 158.536925 
L 190.458376 160.813296 
L 191.63255 123.97284 
L 192.768219 137.529419 
L 193.867829 138.941873 
L 194.9336 132.649445 
L 195.967552 149.734434 
L 196.971529 142.788254 
L 197.947222 127.577697 
L 198.896181 116.989345 
L 199.81983 137.264298 
L 200.719486 124.226684 
L 201.596364 126.700622 
L 202.451588 144.697953 
L 203.286202 121.650005 
L 204.101176 107.011301 
L 204.897414 111.675737 
L 205.675757 103.007894 
L 206.436992 109.296906 
L 207.181855 106.446028 
L 207.911036 97.619588 
L 208.625181 101.085722 
L 209.324898 93.450162 
L 210.010758 88.662786 
L 210.6833 85.55714 
L 211.343031 78.750554 
L 211.990429 76.854783 
L 212.625948 70.046693 
L 213.250016 72.440763 
L 213.863037 66.193886 
L 215.057459 64.93353 
L 215.639571 64.155604 
L 216.21206 66.618633 
L 216.77524 70.568957 
L 217.329409 70.158845 
L 217.87485 71.458319 
L 218.411834 71.666669 
L 218.94062 74.802884 
L 219.461454 76.944548 
L 219.974572 83.531516 
L 220.480199 82.623597 
L 220.97855 92.479637 
L 221.469832 93.185394 
L 221.954243 97.357276 
L 222.431972 110.922705 
L 222.903201 99.161775 
L 223.368105 113.223787 
L 223.826851 111.721038 
L 224.2796 103.769957 
L 224.726507 116.324934 
L 225.167721 102.168777 
L 225.603384 110.384116 
L 226.033636 110.579582 
L 226.458608 108.160386 
L 226.878429 114.112894 
L 227.293222 111.238635 
L 227.703106 118.810616 
L 228.108197 111.827841 
L 228.508603 114.868232 
L 228.904434 114.631068 
L 229.295792 113.144034 
L 229.682777 108.767184 
L 230.065486 122.815221 
L 230.444012 120.16211 
L 230.818446 111.600641 
L 231.188876 119.302533 
L 231.555385 109.210628 
L 231.918057 107.418043 
L 232.27697 108.773351 
L 232.632202 103.142113 
L 232.983827 102.519254 
L 233.331919 100.140577 
L 233.676546 117.705739 
L 234.017779 99.726973 
L 234.355682 100.571457 
L 234.690321 86.363453 
L 235.021757 89.958643 
L 235.350051 81.198815 
L 235.675263 84.975077 
L 235.99745 79.697098 
L 236.316667 78.193783 
L 236.632968 73.583698 
L 236.946408 74.996294 
L 237.257036 70.059512 
L 237.870057 71.176284 
L 238.172547 70.336997 
L 238.472417 71.158573 
L 238.769713 66.680942 
L 239.06448 65.755502 
L 239.646591 71.627762 
L 240.21908 67.673111 
L 240.501815 71.091962 
L 240.78226 71.521861 
L 241.060453 68.430676 
L 241.336429 68.213065 
L 241.610223 75.170702 
L 241.88187 76.485176 
L 242.151403 79.458264 
L 242.418855 91.588132 
L 242.684257 96.688735 
L 242.947641 91.501508 
L 243.209037 115.120149 
L 243.468475 96.083455 
L 243.725984 96.20828 
L 243.981593 109.418676 
L 244.235329 92.668556 
L 244.487219 98.369842 
L 244.737291 109.100977 
L 244.98557 101.127014 
L 245.476852 110.776433 
L 245.719905 99.266337 
L 245.961263 124.21157 
L 246.438992 102.029376 
L 246.675408 153.181299 
L 246.910222 101.116147 
L 247.143453 105.989113 
L 247.375125 129.770618 
L 247.605258 102.873914 
L 247.833871 113.691341 
L 248.060986 103.808695 
L 248.28662 102.824824 
L 248.733527 118.407113 
L 248.954837 97.351119 
L 249.174741 98.439863 
L 249.393258 89.691762 
L 249.610405 96.057681 
L 249.826199 88.811897 
L 250.040656 101.72218 
L 250.253794 87.859446 
L 250.465629 88.496903 
L 250.676175 82.087645 
L 250.88545 83.362472 
L 251.093467 78.869293 
L 251.505791 84.0257 
L 251.710127 84.314076 
L 251.913264 93.480721 
L 252.115217 91.222143 
L 252.315999 94.530334 
L 252.515624 100.706116 
L 252.714105 91.114062 
L 253.107686 82.763524 
L 253.496846 73.477778 
L 253.689798 76.404202 
L 254.072507 107.227186 
L 254.262287 101.317673 
L 254.638756 83.208277 
L 254.825467 83.728935 
L 255.011177 82.61678 
L 255.195896 79.238693 
L 255.562406 89.468247 
L 255.925077 85.071953 
L 256.104999 93.247221 
L 256.28399 87.752935 
L 256.462062 91.543713 
L 256.639222 103.302969 
L 256.815481 98.611359 
L 256.990848 100.597231 
L 257.165331 106.558579 
L 257.338939 97.452549 
L 257.511682 104.00782 
L 257.683567 116.269608 
L 257.854603 97.880908 
L 258.024799 117.866246 
L 258.194163 101.336541 
L 258.362702 96.35325 
L 258.530426 110.559873 
L 258.697341 96.698995 
L 258.863455 94.442804 
L 259.028777 106.226753 
L 259.193313 93.800773 
L 259.357072 99.957831 
L 259.520059 122.205371 
L 259.682283 87.565592 
L 260.00447 96.911908 
L 260.164446 100.748282 
L 260.323687 120.439484 
L 260.482199 101.5304 
L 260.639989 96.559019 
L 260.797063 122.741679 
L 260.953428 92.738624 
L 261.109091 88.396143 
L 261.264056 101.652668 
L 261.418332 81.622429 
L 261.724837 86.95246 
L 261.877078 82.882142 
L 262.028653 95.426907 
L 262.329827 83.029469 
L 262.479438 92.350794 
L 262.628405 92.389168 
L 262.776734 82.225624 
L 262.924431 81.729363 
L 263.508998 65.658253 
L 263.797623 64.921671 
L 263.941039 65.533634 
L 264.083863 67.271467 
L 264.367756 79.750744 
L 264.508835 78.300155 
L 264.928656 63.60155 
L 265.343449 55.847168 
L 265.480617 57.092156 
L 265.888891 73.286435 
L 266.158424 93.794121 
L 266.292408 91.059218 
L 266.558831 80.683439 
L 266.691277 82.570571 
L 267.085606 97.355865 
L 267.216057 98.437007 
L 267.346019 97.594651 
L 267.475495 86.840557 
L 267.604489 87.567928 
L 267.861044 95.156459 
L 267.988613 91.653793 
L 268.115713 106.894634 
L 268.242349 105.692387 
L 268.368523 112.474841 
L 268.619501 86.897565 
L 268.868674 106.4671 
L 268.992591 91.160856 
L 269.239103 97.302709 
L 269.361704 85.594732 
L 269.483873 97.291644 
L 269.726925 78.460937 
L 269.847815 95.439566 
L 270.088335 70.591519 
L 270.207972 78.178816 
L 270.327197 77.399011 
L 270.446013 71.860965 
L 270.564423 85.777683 
L 270.800034 62.098316 
L 270.917242 60.626519 
L 271.034054 61.154963 
L 271.382146 54.743084 
L 271.497403 56.522502 
L 271.726774 64.109904 
L 271.840892 64.11254 
L 271.954635 64.592784 
L 272.181007 69.411496 
L 272.293641 72.641969 
L 272.405909 72.131905 
L 272.740548 61.38327 
L 272.961857 54.143674 
L 273.071984 53.568 
L 273.291192 56.702796 
L 273.509022 65.851062 
L 273.72549 78.278133 
L 273.833219 79.465335 
L 273.940614 78.44152 
L 274.047677 78.604774 
L 274.260815 84.521713 
L 274.472649 92.807656 
L 274.683196 86.814106 
L 274.89247 96.884356 
L 274.996635 102.590916 
L 275.20403 126.86366 
L 275.307263 117.079776 
L 275.41019 123.792666 
L 275.61513 116.164953 
L 275.717147 103.050724 
L 275.818865 103.512492 
L 275.920285 107.164467 
L 276.021408 103.358098 
L 276.122237 110.099962 
L 276.323019 98.205378 
L 276.422976 107.390079 
L 276.522644 87.99829 
L 276.622027 89.382766 
L 276.721125 105.300898 
L 276.819941 84.337345 
L 276.918475 87.847208 
L 277.01673 85.953535 
L 277.212407 68.291559 
L 277.309833 69.376677 
L 277.888701 86.102038 
L 278.174547 81.912295 
L 278.269307 81.707604 
L 278.458053 90.424681 
L 278.739258 82.778751 
L 279.018197 75.118301 
L 279.11068 75.048012 
L 279.294908 72.616224 
L 279.478162 68.667747 
L 279.569426 68.888835 
L 279.660451 70.078866 
L 279.841785 79.406892 
L 280.022175 87.749588 
L 280.112019 88.78665 
L 280.20163 86.348508 
L 280.291011 86.683833 
L 280.380161 91.57 
L 280.469082 88.231797 
L 280.557776 89.276604 
L 280.734484 86.361666 
L 280.910296 91.570725 
L 281.085219 96.314609 
L 281.172351 101.291932 
L 281.259264 99.56052 
L 281.432438 117.04035 
L 281.604751 113.58465 
L 281.690587 101.439043 
L 281.861624 123.382232 
L 281.946826 103.117426 
L 282.03182 103.537625 
L 282.116605 109.498006 
L 282.201183 99.510609 
L 282.285556 100.596001 
L 282.369723 101.05482 
L 282.537446 80.992833 
L 282.704361 77.759742 
L 282.953235 66.711253 
L 283.200334 76.120668 
L 283.28231 75.424485 
L 283.364092 76.36495 
L 283.608287 90.64082 
L 283.689304 90.34749 
L 283.931224 84.319461 
L 284.251179 76.217438 
L 284.647009 65.524587 
L 284.804084 64.658958 
L 284.882354 65.674375 
L 285.271077 78.274752 
L 285.425352 80.693531 
L 285.731857 88.524384 
L 285.884098 84.941554 
L 285.959969 85.920552 
L 286.035673 85.284967 
L 286.111213 85.966394 
L 286.261799 85.066426 
L 286.561022 109.451691 
L 286.709669 99.008036 
L 286.783754 118.941383 
L 286.931451 97.23027 
L 287.005064 108.590113 
L 287.151822 94.196634 
L 287.224968 98.613698 
L 287.370799 81.757882 
L 287.443485 83.034695 
L 287.516019 84.044598 
L 287.660632 78.727238 
L 288.019545 89.247941 
L 288.162075 99.309439 
L 288.233121 94.848124 
L 288.304021 95.78386 
L 288.374777 95.440322 
L 288.515856 93.661 
L 288.796301 106.712114 
L 288.866059 103.306994 
L 289.005155 86.691468 
L 289.074494 88.176128 
L 289.212757 107.588758 
L 289.281682 105.404699 
L 289.419122 100.9385 
L 289.556018 102.432394 
L 289.692376 95.003597 
L 289.760354 95.195227 
L 289.895911 112.607044 
L 289.963491 111.052667 
L 290.03094 108.146075 
L 290.299428 128.197946 
L 290.432896 134.966464 
L 290.499437 144.634598 
L 290.565851 129.016375 
L 290.632138 130.945053 
L 290.83024 144.083942 
L 291.027216 117.676927 
L 291.092626 115.826247 
L 291.223078 107.91509 
L 291.28812 108.47398 
L 291.35304 104.463809 
L 291.417838 104.885413 
L 291.868065 127.856726 
L 292.059242 112.020602 
L 292.249369 120.519835 
L 292.375544 143.344783 
L 292.438459 137.177215 
L 292.563947 122.651663 
L 292.626522 122.613045 
L 292.688983 121.169498 
L 292.751332 122.808517 
L 292.813569 143.605627 
L 292.937708 115.998394 
L 292.999611 118.76512 
L 293.18466 157.765873 
L 293.307478 116.775681 
L 293.368725 118.826867 
L 293.429863 120.477356 
L 293.490893 115.020677 
L 293.551817 117.838013 
L 293.854835 155.685453 
L 293.915122 147.579685 
L 293.975304 170.767964 
L 294.035382 151.265184 
L 294.095356 163.068833 
L 294.155226 137.750273 
L 294.214992 138.619176 
L 294.274656 148.038169 
L 294.334217 139.836358 
L 294.393676 139.868404 
L 294.453033 146.790766 
L 294.689449 118.889165 
L 294.865708 108.131366 
L 294.982718 102.289357 
L 295.041075 102.573751 
L 295.273524 116.370211 
L 295.389166 131.049926 
L 295.446843 130.879448 
L 295.561909 118.013629 
L 295.619299 118.579111 
L 295.676594 117.985129 
L 295.961655 109.648672 
L 296.075026 114.633428 
L 296.131573 114.209282 
L 296.24439 106.47808 
L 296.300661 108.625816 
L 296.41293 116.766441 
L 296.692019 158.816393 
L 296.803028 124.045811 
L 296.8584 127.5102 
L 296.913683 162.790902 
L 297.023985 116.119247 
L 297.133936 132.509528 
L 297.188782 119.019519 
L 297.24354 121.879892 
L 297.298213 144.499199 
L 297.352799 133.392525 
L 297.407299 130.133832 
L 297.516042 155.79648 
L 297.570286 141.269516 
L 297.786417 117.195245 
L 298.054697 105.705188 
L 298.108105 105.95023 
L 298.426832 117.450804 
L 298.479669 116.512562 
L 298.690216 101.609237 
L 298.742653 102.377835 
L 298.84729 106.289607 
L 298.951612 103.967105 
L 299.055621 108.884664 
L 299.107508 108.638241 
L 299.21105 105.679692 
L 299.262705 106.394717 
L 299.41721 111.124451 
L 299.468559 108.076078 
L 299.519832 109.352837 
L 299.775064 143.017895 
L 299.825885 144.60381 
L 299.927305 128.446712 
L 299.977904 134.441753 
L 300.028429 132.126052 
L 300.129258 117.997066 
L 300.179563 131.921925 
L 300.229794 122.568368 
L 300.279953 112.978657 
L 300.33004 118.061416 
L 300.380054 142.089814 
L 300.429996 113.699879 
L 300.479866 113.823757 
L 300.529665 138.721567 
L 300.579392 112.080383 
L 300.629047 109.439327 
L 300.678632 115.227196 
L 300.728146 104.702258 
L 300.777589 105.010454 
L 300.826961 110.045887 
L 300.876263 106.287292 
L 300.974658 111.027223 
L 301.072773 107.322901 
L 301.316853 122.322461 
L 301.365464 131.853201 
L 301.414006 128.128156 
L 301.46248 117.381228 
L 301.510886 121.149057 
L 301.607497 121.098398 
L 301.655701 123.927262 
L 301.751909 143.181769 
L 301.84785 121.8067 
L 301.895722 128.761884 
L 301.943527 160.448173 
L 301.991266 133.82385 
L 302.086547 121.739455 
L 302.181568 142.21131 
L 302.22898 127.916429 
L 302.370829 119.910908 
L 302.417984 121.280468 
L 302.699569 106.30255 
L 302.839508 116.55158 
L 302.886029 116.040422 
L 302.932487 116.532741 
L 303.07149 137.823023 
L 303.163849 113.885519 
L 303.209937 126.379486 
L 303.255963 120.669138 
L 303.301929 108.136501 
L 303.347833 112.594097 
L 303.393677 123.352804 
L 303.43946 110.930792 
L 303.485182 111.297262 
L 303.530844 119.722816 
L 303.576446 112.020968 
L 303.621989 106.295729 
L 303.667471 111.297231 
L 303.712894 109.900005 
L 303.758257 110.347323 
L 303.848805 136.491417 
L 303.939118 116.517118 
L 303.984186 124.865124 
L 304.029195 124.888515 
L 304.074147 124.709048 
L 304.119039 118.533421 
L 304.163874 126.024393 
L 304.25337 143.984923 
L 304.342635 114.5991 
L 304.387181 126.247537 
L 304.43167 125.721579 
L 304.476102 120.309194 
L 304.520478 126.32537 
L 304.564796 144.663014 
L 304.609058 127.422443 
L 304.653263 124.898232 
L 304.697412 127.058235 
L 304.741505 136.647764 
L 304.785541 117.704193 
L 304.829522 121.431289 
L 304.96113 141.844657 
L 305.048592 124.743363 
L 305.09224 125.116356 
L 305.135833 120.741748 
L 305.309659 157.294383 
L 305.396246 119.781598 
L 305.439459 135.052825 
L 305.482618 131.844969 
L 305.525722 137.605413 
L 305.611772 121.105305 
L 305.654716 121.754126 
L 305.697608 134.920834 
L 305.740446 122.255427 
L 305.783231 123.359965 
L 305.825964 123.090242 
L 305.868644 146.254994 
L 305.911272 124.826879 
L 305.953847 114.160719 
L 305.996369 118.726753 
L 306.03884 141.698391 
L 306.081259 110.893742 
L 306.123625 108.560465 
L 306.208204 127.721064 
L 306.292576 108.431713 
L 306.334685 121.908572 
L 306.376743 113.079894 
L 306.41875 112.639179 
L 306.502612 131.164524 
L 306.544467 124.526881 
L 306.586271 122.148491 
L 306.711382 142.004294 
L 306.794539 122.760733 
L 306.836042 129.052985 
L 306.877496 128.929341 
L 306.918901 131.619259 
L 307.001561 124.251324 
L 307.042818 142.844208 
L 307.125184 138.584529 
L 307.166293 137.512236 
L 307.28933 125.835616 
L 307.330245 132.267676 
L 307.371112 125.632312 
L 307.411931 126.47645 
L 307.452702 123.327079 
L 307.493425 127.162296 
L 307.5341 149.478292 
L 307.574727 132.576165 
L 307.655839 123.406816 
L 307.696324 123.941478 
L 307.857792 142.434773 
L 308.018511 126.559586 
L 308.058574 126.27252 
L 308.098591 151.758406 
L 308.178487 138.082193 
L 308.337728 128.748837 
L 308.377424 115.342222 
L 308.417075 118.567203 
L 308.45668 136.96927 
L 308.49624 125.988489 
L 308.575225 113.121291 
L 308.61465 119.368964 
L 308.65403 143.283427 
L 308.693365 118.793411 
L 308.732656 115.378622 
L 308.771902 125.975233 
L 308.811104 176.292227 
L 308.850262 122.06289 
L 308.889375 115.220544 
L 308.928444 124.012139 
L 308.967469 130.466755 
L 309.00645 121.395288 
L 309.045388 128.744258 
L 309.084281 130.409375 
L 309.239421 120.8163 
L 309.278097 126.484922 
L 309.316731 162.223171 
L 309.393868 136.497601 
L 309.432373 124.981952 
L 309.470835 126.607323 
L 309.509254 152.249878 
L 309.54763 127.950221 
L 309.662505 123.169622 
L 309.700713 152.427446 
L 309.738878 126.947953 
L 309.777001 124.694096 
L 309.815082 128.681253 
L 309.853121 133.231164 
L 309.891119 130.801172 
L 309.966989 120.834332 
L 310.004862 125.104606 
L 310.042694 142.262247 
L 310.118233 129.261178 
L 310.155941 127.829618 
L 310.193608 128.383418 
L 310.231234 137.154969 
L 310.268819 132.782395 
L 310.306364 128.643652 
L 310.343868 135.400639 
L 310.381331 138.211857 
L 310.418754 156.935552 
L 310.456136 129.521525 
L 310.493478 120.312979 
L 310.53078 127.277415 
L 310.568042 136.117065 
L 310.605264 124.222999 
L 310.71669 128.938508 
L 310.753752 145.477629 
L 310.790775 129.626609 
L 310.864702 114.163476 
L 310.901606 122.115123 
L 310.938471 133.859795 
L 310.975297 127.298404 
L 311.048832 112.192612 
L 311.085541 119.137711 
L 311.122211 128.86482 
L 311.158842 112.505703 
L 311.195435 116.123515 
L 311.268504 143.2146 
L 311.304981 133.228142 
L 311.37782 118.196661 
L 311.414182 123.747531 
L 311.450505 133.020828 
L 311.523039 124.497636 
L 311.631556 132.287937 
L 311.703711 129.445115 
L 311.739733 143.041354 
L 311.775717 122.33775 
L 311.811664 120.784955 
L 311.883446 142.590155 
L 311.919281 132.376401 
L 311.990841 121.645515 
L 312.026565 125.108684 
L 312.062253 143.063834 
L 312.097904 124.177497 
L 312.133518 131.921178 
L 312.27561 145.78497 
L 312.311042 128.531953 
L 312.381797 137.215945 
L 312.417121 144.307961 
L 312.48766 139.996903 
L 312.522876 126.414592 
L 312.558056 129.353418 
L 312.593201 147.732443 
L 312.628309 129.335247 
L 312.69842 124.7564 
L 312.733423 132.097818 
L 312.76839 131.026001 
L 312.838218 113.569151 
L 312.907906 117.200307 
L 312.977454 112.291688 
L 313.012175 108.63702 
L 313.046862 113.067354 
L 313.081514 139.97031 
L 313.116132 116.759172 
L 313.150715 106.832912 
L 313.185263 108.696511 
L 313.219777 128.110407 
L 313.288702 116.380731 
L 313.323113 121.831584 
L 313.35749 118.82437 
L 313.391833 114.457235 
L 313.426142 122.1139 
L 313.460417 126.327992 
L 313.494658 115.733578 
L 313.563039 123.495349 
L 313.597178 132.868868 
L 313.665357 125.209315 
L 313.699396 116.423881 
L 313.733402 122.821155 
L 313.767374 138.516152 
L 313.801314 117.349893 
L 313.835219 120.012151 
L 313.869092 119.787169 
L 313.902932 115.843227 
L 313.936738 130.163714 
L 313.970512 118.446263 
L 314.004252 111.107152 
L 314.03796 119.736206 
L 314.138887 138.531263 
L 314.206009 112.757976 
L 314.239521 121.713644 
L 314.273001 126.303265 
L 314.306449 121.333876 
L 314.339864 123.960914 
L 314.373247 122.591278 
L 314.406597 124.546984 
L 314.473203 130.903894 
L 314.506458 123.693303 
L 314.53968 123.340417 
L 314.606031 126.905425 
L 314.705318 116.823416 
L 314.738351 117.432798 
L 314.771352 119.12195 
L 314.804322 115.187865 
L 314.837261 111.942975 
L 314.870168 113.780295 
L 314.903044 120.353597 
L 315.001485 120.254115 
L 315.066957 123.755429 
L 315.099647 138.007452 
L 315.132306 125.302253 
L 315.164934 117.05803 
L 315.230098 125.676915 
L 315.262634 118.559297 
L 315.29514 129.191307 
L 315.327615 121.763793 
L 315.36006 108.864618 
L 315.424859 118.090074 
L 315.457212 155.377153 
L 315.52183 131.188473 
L 315.586327 111.605848 
L 315.61853 112.4774 
L 315.650704 131.563375 
L 315.747045 126.643678 
L 315.7791 110.519829 
L 315.84312 127.033 
L 315.875085 115.588021 
L 315.907022 120.861741 
L 315.938928 118.774009 
L 315.970806 110.090356 
L 316.002654 115.076106 
L 316.034473 137.011429 
L 316.066262 111.597897 
L 316.098023 113.34904 
L 316.224774 133.465445 
L 316.287977 116.786793 
L 316.351064 118.115277 
L 316.382564 122.036914 
L 316.414036 119.338242 
L 316.445479 115.109679 
L 316.476894 120.686259 
L 316.50828 123.405341 
L 316.539638 117.725148 
L 316.602269 118.102267 
L 316.727192 113.178929 
L 316.820589 140.54514 
L 316.851666 124.340869 
L 316.913735 118.264143 
L 316.944728 126.080658 
L 316.975694 135.893276 
L 317.037542 131.320369 
L 317.130107 112.182085 
L 317.160907 113.158568 
L 317.19168 142.129731 
L 317.253144 109.317168 
L 317.375745 117.843319 
L 317.406328 132.568946 
L 317.467412 112.338007 
L 317.497914 113.975955 
L 317.528389 129.073771 
L 317.589258 109.826822 
L 317.619653 121.838735 
L 317.680363 118.591719 
L 317.710678 150.624601 
L 317.771228 112.960457 
L 317.892012 124.872661 
L 317.922142 112.611159 
L 317.982325 129.123279 
L 318.042402 125.467587 
L 318.072402 138.180805 
L 318.132324 119.254912 
L 318.162246 149.957456 
L 318.222013 118.116251 
L 318.251858 137.83952 
L 318.400697 113.827891 
L 318.519309 130.234776 
L 318.548899 125.235015 
L 318.578463 133.257366 
L 318.637517 134.877092 
L 318.725909 111.199038 
L 318.755322 118.793775 
L 318.784711 140.013674 
L 318.843414 112.92615 
L 318.872729 109.730364 
L 318.931283 110.416878 
L 318.960523 115.425751 
L 318.989738 153.804243 
L 319.048095 115.575693 
L 319.077237 121.57799 
L 319.106354 105.733194 
L 319.135447 104.205397 
L 319.222578 135.75504 
L 319.309491 134.02462 
L 319.367312 110.590615 
L 319.425037 128.318601 
L 319.540198 108.995855 
L 319.597636 125.207966 
L 319.654978 116.004695 
L 319.712226 112.122647 
L 319.769379 126.867149 
L 319.79792 106.298919 
L 319.883403 115.458579 
L 319.940275 140.295733 
L 319.968676 110.690915 
L 319.997053 109.959001 
L 320.025408 120.690143 
L 320.053739 108.089766 
L 320.110332 118.504441 
L 320.138593 110.365383 
L 320.166832 116.530134 
L 320.195048 143.478682 
L 320.251411 115.994727 
L 320.279557 120.718611 
L 320.307682 121.262193 
L 320.335783 110.70063 
L 320.41995 114.056738 
L 320.475948 148.561098 
L 320.559776 124.964054 
L 320.587673 121.945267 
L 320.615549 126.427298 
L 320.643401 124.663609 
L 320.671232 126.66343 
L 320.699039 137.481269 
L 320.726825 115.677093 
L 320.754589 123.567014 
L 320.86542 103.884587 
L 320.920703 108.840739 
L 321.086025 122.189713 
L 321.140957 114.033903 
L 321.16839 123.525273 
L 321.195802 116.67653 
L 321.223192 115.473806 
L 321.250561 120.305281 
L 321.277908 115.649769 
L 321.305233 105.262924 
L 321.38708 110.813816 
L 321.414319 119.895639 
L 321.468734 105.201453 
L 321.495909 111.951773 
L 321.550195 106.401049 
L 321.604397 131.587547 
L 321.658514 106.996598 
L 321.739531 107.706024 
L 321.766495 110.934834 
L 321.793437 134.690132 
L 321.84726 104.649634 
L 321.87414 131.423528 
L 322.008228 100.812697 
L 322.034983 98.369472 
L 322.088432 113.669346 
L 322.168451 113.318621 
L 322.221694 100.174012 
L 322.274856 110.137124 
L 322.354445 132.659067 
L 322.380935 117.539537 
L 322.539447 95.775258 
L 322.592123 90.523795 
L 322.64472 96.26897 
L 322.723465 105.908464 
L 322.749674 101.366905 
L 322.880421 94.361427 
L 322.932582 119.658623 
L 323.036668 106.915612 
L 323.088594 113.822005 
L 323.114528 123.322786 
L 323.140443 108.799835 
L 323.166338 101.193811 
L 323.218071 112.097735 
L 323.243908 109.534178 
L 323.295524 128.666841 
L 323.398528 119.300878 
L 323.47558 126.086239 
L 323.526852 109.110651 
L 323.55246 114.699021 
L 323.57805 107.383481 
L 323.60362 100.71686 
L 323.629171 104.34202 
L 323.680217 127.319218 
L 323.756646 115.21429 
L 323.807504 107.478085 
L 323.858289 109.518245 
L 323.908998 117.810424 
L 323.959634 112.714592 
L 324.010196 108.893998 
L 324.035449 110.575609 
L 324.136278 119.844773 
L 324.16144 113.214194 
L 324.211708 122.724879 
L 324.236815 122.036907 
L 324.261903 128.266396 
L 324.312026 115.181368 
L 324.33706 114.77019 
L 324.362076 115.963459 
L 324.486887 141.916176 
L 324.511795 135.094816 
L 324.611249 117.482349 
L 324.561558 137.127584 
L 324.660869 123.048573 
L 324.685652 124.020688 
L 324.759896 127.044042 
L 324.784609 115.855171 
L 324.883284 155.778817 
L 324.932516 132.887886 
L 324.981678 123.401865 
L 325.006233 134.876887 
L 325.055291 127.490965 
L 325.079794 170.947854 
L 325.128748 118.719398 
L 325.153199 125.684158 
L 325.202049 121.643275 
L 325.25083 143.792374 
L 325.323874 116.039139 
L 325.372484 126.908568 
L 325.421026 127.658996 
L 325.493712 120.299915 
L 325.566246 118.695735 
L 325.638628 137.73505 
L 325.78294 110.571788 
L 325.806933 118.509747 
L 325.878815 112.475582 
L 325.902742 113.827833 
L 325.950547 140.074326 
L 325.998286 127.425944 
L 326.093568 112.480525 
L 326.069772 128.156396 
L 326.117347 119.626415 
L 326.236001 138.136713 
L 326.306998 141.499503 
L 326.354249 113.573686 
L 326.401435 130.901173 
L 326.472094 127.59908 
L 326.51912 111.395815 
L 326.566083 134.286438 
L 326.58954 114.426715 
L 326.636407 130.275811 
L 326.659817 113.166331 
L 326.706589 118.408767 
L 326.799945 111.998556 
L 326.753299 123.44692 
L 326.823244 113.781733 
L 326.869796 108.355976 
L 326.916286 121.349241 
L 326.962714 105.274392 
L 327.009079 113.408556 
L 327.032238 137.312033 
L 327.101623 115.467063 
L 327.147803 125.26091 
L 327.17087 114.321109 
L 327.239978 115.510874 
L 327.285974 99.684304 
L 327.400697 129.641699 
L 327.44648 114.678354 
L 327.560673 128.926643 
L 327.515041 109.931261 
L 327.583467 124.386654 
L 327.606245 111.414085 
L 327.69721 121.16413 
L 327.787937 135.629822 
L 327.742603 120.741821 
L 327.810581 135.190033 
L 327.878426 136.635923 
L 327.946138 114.134006 
L 327.96868 130.539779 
L 328.058699 127.487398 
L 328.103621 109.252133 
L 328.148484 124.990774 
L 328.170895 136.505093 
L 328.215671 120.139492 
L 328.26039 129.146207 
L 328.305051 109.96015 
L 328.371936 114.233285 
L 328.416453 113.948907 
L 328.438691 116.298446 
L 328.483123 149.149859 
L 328.571816 145.194569 
L 328.704432 95.711105 
L 328.726486 100.870221 
L 328.836542 156.596386 
L 328.858512 122.762102 
L 328.924337 130.36875 
L 328.96815 107.317495 
L 328.990037 125.674478 
L 329.077443 118.957622 
L 329.09926 109.620578 
L 329.142853 131.216982 
L 329.186392 117.696204 
L 329.38164 98.987062 
L 329.42488 112.024536 
L 329.468065 98.908382 
L 329.511197 110.998085 
L 329.575794 99.931561 
L 329.5973 104.305062 
L 329.618792 123.705543 
L 329.661737 96.016929 
L 329.683189 97.356422 
L 329.811625 103.850984 
L 329.832985 127.443084 
L 329.896985 104.028898 
L 330.00339 83.724018 
L 329.960867 109.414727 
L 330.045861 87.166194 
L 330.088279 79.294024 
L 330.130646 91.29157 
L 330.15181 91.846057 
L 330.172961 88.024886 
L 330.194099 90.805775 
L 330.215224 103.897201 
L 330.299597 101.614918 
L 330.341706 90.010142 
L 330.362741 92.745481 
L 330.383764 108.554437 
L 330.467727 100.725132 
L 330.593291 85.170022 
L 330.635045 100.052425 
L 330.676749 81.134173 
L 330.697582 82.137339 
L 330.73921 101.344759 
L 330.822317 96.725512 
L 330.884517 79.255 
L 330.925921 86.26522 
L 330.967276 104.07907 
L 331.008582 76.635807 
L 331.029216 75.612673 
L 331.049838 78.301548 
L 331.214375 102.691642 
L 331.255387 93.343075 
L 331.418952 72.452414 
L 331.439343 72.457951 
L 331.581748 106.941724 
L 331.602044 83.275583 
L 331.622328 79.09327 
L 331.6426 85.166718 
L 331.66286 125.330018 
L 331.743782 95.6212 
L 331.80435 115.047655 
L 331.864813 77.73124 
L 331.985422 93.018527 
L 332.005482 92.922554 
L 332.085609 95.646808 
L 332.145583 77.680891 
L 332.185508 83.406557 
L 332.205453 88.339058 
L 332.26522 81.403454 
L 332.285119 82.820436 
L 332.344748 88.956678 
L 332.523023 123.608211 
L 332.542775 112.049898 
L 332.66105 78.882313 
L 332.680724 81.807385 
L 332.778923 113.184899 
L 332.837709 98.765459 
L 332.915935 95.508648 
L 332.954982 130.813903 
L 333.07186 85.601383 
L 333.091302 88.517612 
L 333.149561 86.752842 
L 333.207721 109.723779 
L 333.246441 86.037659 
L 333.30444 114.356002 
L 333.323751 97.843931 
L 333.362341 91.422165 
L 333.400889 95.962796 
L 333.439393 109.07708 
L 333.49707 92.538219 
L 333.516274 91.647811 
L 333.535468 92.283159 
L 333.650406 128.511326 
L 333.707733 107.967759 
L 333.841127 90.060286 
L 333.784021 109.56357 
L 333.860142 91.241863 
L 334.049714 118.931153 
L 333.917122 88.689555 
L 334.068614 112.719856 
L 334.125254 122.919556 
L 334.238255 87.699334 
L 334.257052 84.742816 
L 334.27584 90.093739 
L 334.388352 113.141065 
L 334.425774 93.779537 
L 334.481833 110.82849 
L 334.500499 114.53089 
L 334.519155 98.058199 
L 334.537801 92.222312 
L 334.593678 105.13977 
L 334.612284 115.961397 
L 334.668042 96.689742 
L 334.686608 97.285723 
L 334.779289 145.64789 
L 334.834778 111.946503 
L 334.853255 110.643216 
L 334.871722 113.029191 
L 334.908627 143.538634 
L 334.945492 107.951598 
L 334.96391 105.091376 
L 334.982318 109.991453 
L 335.000716 123.93425 
L 335.055852 98.150167 
L 335.092561 117.452699 
L 335.110901 118.348975 
L 335.147552 102.132297 
L 335.220737 114.314274 
L 335.239009 119.129106 
L 335.293768 104.542911 
L 335.330225 96.831621 
L 335.38484 107.300495 
L 335.403026 107.229217 
L 335.566269 125.361236 
L 335.602442 109.332404 
L 335.674673 123.153806 
L 335.692707 123.24017 
L 335.782738 113.127588 
L 335.800716 118.160172 
L 335.818685 138.152955 
L 335.908389 117.716716 
L 335.997861 137.321975 
L 336.015728 123.021971 
L 336.033586 119.75943 
L 336.069273 124.702669 
L 336.087103 161.085466 
L 336.140538 112.184226 
L 336.176116 148.22654 
L 336.211657 117.505489 
L 336.300351 125.865058 
L 336.318062 128.16188 
L 336.335765 123.39815 
L 336.388818 108.073899 
L 336.459429 115.444379 
L 336.477059 116.370533 
L 336.61778 140.911919 
L 336.63533 122.577417 
L 336.705441 161.582628 
L 336.722946 160.315667 
L 336.79288 118.091601 
L 336.845238 131.574685 
L 336.897517 138.259826 
L 336.932326 125.956557 
L 336.9671 147.699873 
L 337.001839 134.28947 
L 337.071213 156.974438 
L 337.105848 133.782231 
L 337.140448 153.024145 
L 337.175014 126.237408 
L 337.209545 124.554616 
L 337.226798 127.219135 
L 337.244042 137.224125 
L 337.278504 118.357223 
L 337.312932 128.551824 
L 337.433162 111.19413 
L 337.450304 113.094759 
L 337.689401 136.14144 
L 337.706417 139.64554 
L 337.723424 123.876194 
L 337.757413 116.932469 
L 337.791369 128.300462 
L 337.808334 137.714873 
L 337.85918 118.467605 
L 337.909952 136.87018 
L 337.926859 134.399725 
L 338.011273 169.46786 
L 337.977532 132.674783 
L 338.028131 139.658638 
L 338.044981 135.544926 
L 338.061822 144.595117 
L 338.078656 184.77808 
L 338.179485 164.944861 
L 338.313469 129.105051 
L 338.330181 129.87376 
L 338.36358 146.241478 
L 338.396946 125.348006 
L 338.446937 137.545725 
L 338.463584 132.671024 
L 338.496855 142.265692 
L 338.579892 165.061198 
L 338.613051 152.845768 
L 338.646179 157.637778 
L 338.679274 145.802179 
L 338.712339 150.765553 
L 338.778373 174.383746 
L 338.811343 148.348895 
L 338.910064 165.252448 
L 338.92649 150.388997 
L 338.942909 148.96429 
L 338.95932 155.035745 
L 339.024885 185.841927 
L 339.123001 170.853228 
L 339.220839 155.241703 
L 339.237119 157.397435 
L 339.253391 184.05326 
L 339.318402 153.887289 
L 339.334636 157.072141 
L 339.350862 159.056273 
L 339.383292 152.806142 
L 339.399495 148.210018 
L 339.431879 159.311841 
L 339.512707 190.450377 
L 339.593347 183.837343 
L 339.657724 166.35884 
L 339.62555 184.428224 
L 339.721982 178.317589 
L 339.738027 183.014162 
L 339.754066 169.108607 
L 339.834146 182.216267 
L 339.866127 157.657866 
L 339.914042 191.46194 
L 339.929999 183.665671 
L 339.945949 182.464839 
L 339.961891 184.672707 
L 339.993754 165.601969 
L 340.041493 209.458845 
L 340.057392 182.021834 
L 340.073283 200.991945 
L 340.136775 168.020883 
L 340.152629 177.791525 
L 340.184317 174.78879 
L 340.20015 163.313197 
L 340.231795 175.291411 
L 340.279207 174.845535 
L 340.342323 169.190821 
L 340.421056 206.343056 
L 340.483915 176.463359 
L 340.530983 198.181263 
L 340.546659 202.065285 
L 340.562327 188.274116 
L 340.62493 173.32569 
L 340.640563 181.04354 
L 340.656188 200.122969 
L 340.687419 176.145949 
L 340.749796 186.454929 
L 340.765373 193.652554 
L 340.780943 181.538574 
L 340.843151 182.71671 
L 340.905249 167.134773 
L 340.920756 167.693504 
L 340.936256 193.703052 
L 341.029111 186.17419 
L 341.1063 154.767802 
L 341.152531 161.255575 
L 341.183317 157.337216 
L 341.1987 167.339536 
L 341.214077 167.857561 
L 341.229446 166.847908 
L 341.275513 195.617422 
L 341.336841 182.646019 
L 341.459171 161.972712 
L 341.382765 185.370533 
L 341.474432 163.145493 
L 341.489687 168.964234 
L 341.565857 159.547326 
L 341.581071 162.722572 
L 341.596279 165.940682 
L 341.626674 157.953646 
L 341.672216 162.388866 
L 341.702544 160.899087 
L 341.732846 163.573546 
L 341.808484 182.366454 
L 341.838693 167.07127 
L 341.853788 158.865188 
L 341.899033 175.026825 
L 341.914101 191.165976 
L 341.944218 152.477585 
L 341.974309 154.043186 
L 341.989345 149.484635 
L 342.019397 161.379306 
L 342.049423 157.991096 
L 342.124374 180.858338 
L 342.139344 206.355778 
L 342.199163 176.120106 
L 342.229033 196.065122 
L 342.333377 175.695878 
L 342.258878 198.407133 
L 342.348258 187.277198 
L 342.363132 188.573324 
L 342.378 171.758235 
L 342.437408 194.504882 
L 342.467074 190.786484 
L 342.496715 179.457046 
L 342.511525 182.831861 
L 342.585484 199.67207 
L 342.600257 181.297616 
L 342.615023 187.657788 
L 342.629783 186.626188 
L 342.644537 190.433061 
L 342.718213 183.521363 
L 342.732929 201.29434 
L 342.806417 179.441472 
L 342.762343 215.367749 
L 342.850435 191.658143 
L 342.923674 180.941277 
L 342.938303 193.327472 
L 342.996759 182.251933 
L 343.098819 205.228133 
L 343.055116 179.083133 
L 343.113374 188.637374 
L 343.18606 168.987947 
L 343.244099 175.1297 
L 343.273082 173.78329 
L 343.287565 178.419726 
L 343.316512 175.155296 
L 343.345434 181.426349 
L 343.359886 166.130297 
L 343.388773 155.824542 
L 343.475288 162.555571 
L 343.504078 156.05205 
L 343.547219 166.777047 
L 343.57595 165.191794 
L 343.619001 160.785797 
L 343.633339 162.906163 
L 343.661999 186.226443 
L 343.747835 168.894651 
L 343.890424 142.716622 
L 343.90465 144.359873 
L 344.004074 176.788258 
L 344.032428 165.182568 
L 344.060759 175.320864 
L 344.103213 166.631068 
L 344.145614 151.107516 
L 344.187963 167.889852 
L 344.216168 164.145692 
L 344.230261 183.679319 
L 344.272507 149.575961 
L 344.314702 159.571345 
L 344.398937 190.081838 
L 344.454981 165.255326 
L 344.496954 172.064117 
L 344.524908 162.388761 
L 344.608634 203.747497 
L 344.636498 167.491895 
L 344.650422 164.329993 
L 344.678252 169.511132 
L 344.70606 233.746192 
L 344.733846 168.75432 
L 344.78935 172.892604 
L 344.803212 172.186459 
L 344.817069 175.973825 
L 344.913911 205.871304 
L 344.94153 195.059096 
L 344.996703 168.385145 
L 345.051789 179.760959 
L 345.079298 189.636472 
L 345.134252 169.220803 
L 345.147977 172.870469 
L 345.312253 201.755743 
L 345.325908 189.754297 
L 345.339557 188.46702 
L 345.353201 191.489326 
L 345.366839 196.856772 
L 345.434951 187.950026 
L 345.462158 193.974601 
L 345.475754 192.354758 
L 345.489344 203.467551 
L 345.502929 196.976468 
L 345.570774 209.335069 
L 345.597875 194.780401 
L 345.638486 179.576131 
L 345.706067 184.621981 
L 345.773515 209.806932 
L 345.813921 183.749369 
L 345.867723 170.488412 
L 345.961675 171.556665 
L 346.082098 183.743892 
L 346.162147 201.460839 
L 346.135485 176.991262 
L 346.175471 200.467249 
L 346.188789 178.973146 
L 346.281876 182.900237 
L 346.308426 199.205921 
L 346.348213 170.380795 
L 346.361466 166.92015 
L 346.401192 180.677814 
L 346.440873 172.441864 
L 346.467302 180.358498 
L 346.533285 172.42365 
L 346.546467 168.890091 
L 346.625452 175.811717 
L 346.730485 197.302827 
L 346.678008 171.305199 
L 346.756694 191.889957 
L 346.79597 181.673868 
L 346.848269 189.908008 
L 346.900489 205.36408 
L 346.95263 188.471028 
L 346.965653 195.997484 
L 346.991684 208.667591 
L 347.017696 190.585159 
L 347.082641 197.489945 
L 347.095615 198.109134 
L 347.121549 195.447668 
L 347.134509 198.045123 
L 347.173359 186.701329 
L 347.212165 207.020318 
L 347.225091 210.903841 
L 347.26384 189.176554 
L 347.354085 211.035493 
L 347.379826 195.237337 
L 347.405548 186.761144 
L 347.431251 229.809316 
L 347.4826 195.540102 
L 347.533873 202.488149 
L 347.508246 191.52443 
L 347.58507 194.626621 
L 347.61064 184.568529 
L 347.661724 203.384266 
L 347.674483 203.646852 
L 347.738209 193.13063 
L 347.789105 197.330426 
L 347.903348 222.60479 
L 347.877993 190.939456 
L 347.916019 218.981907 
L 348.004583 191.032129 
L 348.105522 196.360236 
L 348.118119 208.408306 
L 348.193603 187.00197 
L 348.218728 207.561582 
L 348.331566 192.707079 
L 348.431558 218.489108 
L 348.419075 185.037594 
L 348.444037 195.255841 
L 348.456511 206.421125 
L 348.556144 205.065986 
L 348.618269 190.010306 
L 348.593433 210.447011 
L 348.667889 195.404264 
L 348.680283 221.166024 
L 348.754554 190.890149 
L 348.779275 199.339439 
L 348.803979 221.515861 
L 348.865662 186.512875 
L 348.877985 188.749794 
L 348.902619 203.504995 
L 349.000978 201.168066 
L 349.050053 190.953684 
L 349.123536 196.795274 
L 349.135768 194.812141 
L 349.184653 204.566851 
L 349.196863 203.450043 
L 349.209069 204.649528 
L 349.233469 215.854236 
L 349.294392 192.611329 
L 349.306564 194.481074 
L 349.367358 229.834745 
L 349.403784 208.548369 
L 349.415917 191.883462 
L 349.464409 252.229445 
L 349.512832 193.104576 
L 349.561188 221.575806 
L 349.621538 190.884155 
L 349.633595 206.336536 
L 349.645648 206.87617 
L 349.657697 203.515931 
L 349.693819 189.036941 
L 349.753939 204.906966 
L 349.76595 201.337002 
L 349.777957 241.892116 
L 349.801959 188.982316 
L 349.873865 195.280364 
L 349.909762 190.883963 
L 349.981445 205.576955 
L 350.05298 191.408615 
L 350.064888 205.660854 
L 350.076793 201.026923 
L 350.11248 223.561399 
L 350.100588 196.750988 
L 350.183745 204.273404 
L 350.254864 194.443212 
L 350.207468 215.098744 
L 350.266703 198.8398 
L 350.278538 236.958313 
L 350.337652 192.320623 
L 350.373072 206.991763 
L 350.420242 197.320811 
L 350.408455 218.748475 
L 350.490877 201.79115 
L 350.537887 191.769836 
L 350.596561 207.543964 
L 350.655135 188.046987 
L 350.678537 209.404431 
L 350.71361 197.669796 
L 350.748648 217.730225 
L 350.771986 196.649188 
L 350.841909 209.467594 
L 350.91169 193.098911 
L 350.923307 217.432336 
L 350.969734 194.163981 
L 351.027681 213.910413 
L 351.039259 193.285986 
L 351.085531 198.478457 
L 351.189418 211.957181 
L 351.17789 197.456833 
L 351.200942 205.385698 
L 351.212462 205.247161 
L 351.281501 188.543632 
L 351.304484 206.458805 
L 351.338929 190.468223 
L 351.37334 185.142752 
L 351.407717 198.614143 
L 351.4535 218.65574 
L 351.476369 191.501305 
L 351.510644 198.071216 
L 351.544885 209.393481 
L 351.590487 195.612346 
L 351.658778 202.794368 
L 351.681512 201.957475 
L 351.692873 194.745368 
L 351.715584 219.209848 
L 351.794957 197.442102 
L 351.862846 192.228074 
L 351.908032 212.364196 
L 351.9757 188.168731 
L 352.020739 200.305309 
L 352.043236 210.783029 
L 352.088187 183.896514 
L 352.121862 198.870443 
L 352.166712 189.861506 
L 352.200311 212.120991 
L 352.222692 225.574847 
L 352.278581 194.855408 
L 352.312072 187.164284 
L 352.300912 202.267359 
L 352.367818 189.67079 
L 352.434594 246.176459 
L 352.467934 189.237176 
L 352.479041 191.911453 
L 352.52343 194.515355 
L 352.534518 186.695827 
L 352.545603 185.496168 
L 352.556685 200.491064 
L 352.634155 175.925812 
L 352.645208 186.688874 
L 352.689385 169.293418 
L 352.733506 202.350063 
L 352.755545 172.857399 
L 352.821579 204.54569 
L 352.777571 172.531652 
L 352.89846 201.225467 
L 352.975171 177.341206 
L 352.997057 180.53898 
L 353.007995 208.190365 
L 353.051712 175.380057 
L 353.106281 176.497842 
L 353.117184 174.347167 
L 353.128084 177.810747 
L 353.138981 193.750613 
L 353.22603 170.772055 
L 353.356196 202.727787 
L 353.4319 165.080152 
L 353.475086 165.293015 
L 353.582815 221.262314 
L 353.50744 164.157108 
L 353.593569 184.932817 
L 353.615068 163.743721 
L 353.700931 167.991017 
L 353.722363 185.16941 
L 353.765188 166.831588 
L 353.80796 170.568208 
L 353.829327 165.381977 
L 353.861352 187.340478 
L 353.87202 204.36187 
L 353.946607 165.234087 
L 353.957249 170.821737 
L 353.967888 176.579724 
L 353.999785 164.453584 
L 354.063491 172.165968 
L 354.169407 163.561245 
L 354.0847 172.648566 
L 354.179981 167.017313 
L 354.201119 176.487901 
L 354.275001 160.85699 
L 354.285543 160.834097 
L 354.306617 166.677608 
L 354.380275 156.708341 
L 354.485229 177.221683 
L 354.506181 201.633499 
L 354.548049 162.760682 
L 354.589866 173.902743 
L 354.600312 174.956189 
L 354.621195 167.653551 
L 354.631632 166.814091 
L 354.652496 171.249829 
L 354.694187 179.483592 
L 354.735828 166.94057 
L 354.850083 157.587823 
L 354.860451 159.226335 
L 354.974297 177.370281 
L 354.984628 175.233855 
L 355.025921 198.671979 
L 355.10836 186.543602 
L 355.231653 165.379829 
L 355.262407 166.550064 
L 355.323835 160.303298 
L 355.334062 158.356622 
L 355.385153 162.161599 
L 355.425972 185.748517 
L 355.49729 166.655898 
L 355.507466 166.234387 
L 355.517639 169.224303 
L 355.568461 183.24493 
L 355.639486 182.064212 
L 355.771004 157.508567 
L 355.7811 157.713178 
L 355.891964 178.97369 
L 355.912083 167.000249 
L 355.992442 154.446992 
L 356.012503 164.026287 
L 356.032552 182.851049 
L 356.072615 161.167015 
L 356.132623 175.330081 
L 356.182551 212.139531 
L 356.222442 166.70543 
L 356.232407 167.188361 
L 356.312027 198.000849 
L 356.341838 168.776547 
L 356.391465 164.48003 
L 356.421207 167.201717 
L 356.460824 193.829749 
L 356.510281 161.678943 
L 356.559667 155.407484 
L 356.618839 161.752301 
L 356.736878 181.085489 
L 356.687744 160.002214 
L 356.776136 173.534641 
L 356.815349 162.949139 
L 356.883865 174.398038 
L 356.913187 181.817107 
L 356.962003 175.32186 
L 356.971758 171.981809 
L 357.01075 184.605835 
L 357.020491 201.880783 
L 357.108039 168.699099 
L 357.156581 162.392627 
L 357.195366 168.511529 
L 357.321117 208.664552 
L 357.350072 190.853289 
L 357.427167 172.269305 
L 357.46565 178.992119 
L 357.590426 206.747334 
L 357.628728 176.301552 
L 357.714753 178.659109 
L 357.838636 197.37719 
L 357.848148 187.288384 
L 357.886166 173.904617 
L 357.952598 183.894181 
L 358.047281 217.550187 
L 358.066186 196.137981 
L 358.075635 196.105441 
L 358.207649 226.419825 
L 358.301638 195.446729 
L 358.320405 216.042628 
L 358.348537 222.173678 
L 358.460835 181.027528 
L 358.591392 216.71788 
L 358.600699 211.469273 
L 358.73073 178.562864 
L 358.841799 169.745285 
L 358.851039 169.998855 
L 358.878743 189.770681 
L 358.915647 199.542154 
L 358.9433 173.387761 
L 358.998539 153.643007 
L 359.05369 171.981904 
L 359.145413 207.357845 
L 359.108753 167.112255 
L 359.191184 178.266738 
L 359.309906 163.683019 
L 359.264292 183.965835 
L 359.328135 165.530938 
L 359.346354 171.966165 
L 359.400954 158.584492 
L 359.437307 165.517886 
L 359.546136 152.530682 
L 359.500832 168.101177 
L 359.57329 157.648312 
L 359.672672 190.257142 
L 359.699727 167.032742 
L 359.726761 170.742312 
L 359.753774 159.465425 
L 359.771771 155.555265 
L 359.798748 171.070635 
L 359.807736 191.443079 
L 359.861615 152.342224 
L 359.897487 156.48479 
L 359.969121 150.910686 
L 359.942275 160.494749 
L 359.987006 156.99513 
L 359.995945 162.26424 
L 360.076294 148.470644 
L 360.08521 147.60751 
L 360.111945 155.404408 
L 360.183137 170.648028 
L 360.192025 232.449176 
L 360.236435 153.697662 
L 360.289651 160.851815 
L 360.333935 183.640542 
L 360.351633 163.913717 
L 360.475266 141.521081 
L 360.48408 141.521498 
L 360.589674 152.511384 
L 360.563305 141.39018 
L 360.6248 146.958174 
L 360.64235 146.804188 
L 360.668659 168.898739 
L 360.756209 151.221681 
L 360.773692 142.702626 
L 360.82609 160.580778 
L 360.852259 157.880825 
L 360.860978 191.99762 
L 360.956738 138.22759 
L 361.00886 136.186843 
L 361.026216 141.983113 
L 361.138822 177.059612 
L 361.069569 138.27875 
L 361.147468 150.049687 
L 361.156113 144.456888 
L 361.19067 163.59418 
L 361.225193 163.374883 
L 361.268298 149.794611 
L 361.345752 202.055322 
L 361.388707 170.498381 
L 361.457325 191.423642 
L 361.525807 221.8961 
L 361.594154 219.006069 
L 361.670883 223.386061 
L 361.636802 208.518552 
L 361.679398 219.753494 
L 361.696422 210.006319 
L 361.755939 224.909568 
L 361.798389 214.347378 
L 361.832311 229.269813 
L 361.857732 209.520384 
L 361.908516 215.906481 
L 361.94233 207.671533 
L 361.96767 221.395317 
L 362.018293 210.733733 
L 362.119319 224.834925 
L 362.085676 208.129144 
L 362.136128 215.283791 
L 362.152928 209.905202 
L 362.194895 229.007407 
L 362.245187 216.41457 
L 362.320489 212.049449 
L 362.353905 228.890205 
L 362.453957 207.096804 
L 362.420638 231.460322 
L 362.470604 212.235858 
L 362.49556 222.890303 
L 362.512188 209.178534 
L 362.578618 218.934859 
L 362.595205 208.857636 
L 362.636639 224.547177 
L 362.686295 213.171797 
L 362.702831 227.837602 
L 362.735879 210.898738 
L 362.793639 222.507161 
L 362.900651 210.011711 
L 362.867759 233.069286 
L 362.908869 212.23557 
L 362.925299 229.399056 
L 362.96634 208.294703 
L 363.015526 213.323827 
L 363.023716 210.648897 
L 363.072821 222.530131 
L 363.121855 214.372693 
L 363.130021 213.756774 
L 363.138185 218.946661 
L 363.219717 235.522202 
L 363.178975 209.450593 
L 363.244139 215.779955 
L 363.252276 211.872806 
L 363.276675 233.402624 
L 363.341656 214.429609 
L 363.365993 234.550695 
L 363.398415 210.602122 
L 363.446991 213.818387 
L 363.471253 208.112107 
L 363.495499 227.535677 
L 363.552006 214.961692 
L 363.656704 222.347377 
L 363.616473 211.404692 
L 363.664744 217.030428 
L 363.753068 212.728886 
L 363.720976 231.046856 
L 363.769102 218.013099 
L 363.78513 234.825859 
L 363.825165 214.446641 
L 363.873147 224.156994 
L 363.960941 209.133866 
L 363.937019 227.84322 
L 363.984847 221.725558 
L 364.072359 227.851528 
L 364.024652 210.116656 
L 364.080303 219.332548 
L 364.104126 209.820827 
L 364.143795 226.546125 
L 364.191338 217.252271 
L 364.27833 233.790736 
L 364.246722 213.844542 
L 364.302017 217.952925 
L 364.30991 217.594359 
L 364.333575 217.664588 
L 364.412345 230.930443 
L 364.388733 213.188171 
L 364.43594 217.702279 
L 364.45952 209.215094 
L 364.483084 233.989119 
L 364.545842 218.351415 
L 364.624131 232.359403 
L 364.585009 212.758986 
L 364.647583 220.693516 
L 364.663209 212.703258 
L 364.702243 233.907334 
L 364.749026 224.411765 
L 364.826857 236.864181 
L 364.803526 214.306117 
L 364.850172 221.556068 
L 364.873471 212.877607 
L 364.896755 221.738704 
L 364.966513 236.263712 
L 364.989735 210.774698 
L 364.997472 211.700609 
L 365.105609 230.888475 
L 365.128738 220.479244 
L 365.21341 211.896688 
L 365.182644 239.324909 
L 365.228783 222.123912 
L 365.244149 231.796899 
L 365.267185 217.266108 
L 365.32854 222.762934 
L 365.412725 211.994424 
L 365.382136 231.783803 
L 365.42801 218.114576 
L 365.443288 235.83962 
L 365.489081 211.243611 
L 365.534813 213.785901 
L 365.550044 212.56876 
L 365.565268 216.406345 
L 365.595696 232.922041 
L 365.6185 212.699768 
L 365.67165 215.142589 
L 365.686821 214.672682 
L 365.694404 216.916201 
L 365.777706 237.388732 
L 365.739866 214.739339 
L 365.80039 215.325304 
L 365.845714 228.894666 
L 365.823059 213.941085 
L 365.868353 215.882713 
L 365.943712 210.565927 
L 365.913588 234.057884 
L 365.966287 216.943737 
L 366.056443 235.031996 
L 366.011395 213.355202 
L 366.071446 221.584399 
L 366.153848 215.238777 
L 366.116417 243.926736 
L 366.168809 228.011336 
L 366.176287 238.807292 
L 366.213653 214.497617 
L 366.265898 215.730863 
L 366.273356 214.453946 
L 366.303168 224.663507 
L 366.377588 231.977358 
L 366.340398 211.875064 
L 366.399882 214.092397 
L 366.407311 209.692485 
L 366.437008 227.55265 
L 366.496327 220.291423 
L 366.503735 220.314517 
L 366.577725 238.821602 
L 366.54075 215.38334 
L 366.607277 216.849289 
L 366.636804 245.52993 
L 366.666305 216.26018 
L 366.717873 218.410791 
L 366.725233 217.669753 
L 366.754659 219.781103 
L 366.828116 236.765375 
L 366.806095 212.71258 
L 366.857455 213.169669 
L 366.864786 211.916305 
L 366.88677 224.680289 
L 366.894094 233.227477 
L 366.916059 216.180185 
L 366.989175 221.509999 
L 367.062136 216.568606 
L 367.03297 237.897466 
L 367.07671 219.628319 
L 367.156757 238.550222 
L 367.12767 214.453832 
L 367.185819 217.131395 
L 367.200341 216.554459 
L 367.2076 221.587741 
L 367.287345 235.408219 
L 367.265614 214.002801 
L 367.301824 216.052738 
L 367.309062 212.338168 
L 367.345226 227.994908 
L 367.395793 224.125229 
L 367.496706 240.967062 
L 367.453494 218.848723 
L 367.503903 224.708741 
L 367.568608 216.204945 
L 367.539865 250.915579 
L 367.61885 218.465952 
L 367.697655 213.900253 
L 367.68334 222.752782 
L 367.719116 221.346127 
L 367.726267 238.431163 
L 367.761999 212.626716 
L 367.826223 214.784457 
L 367.925892 243.275375 
L 367.947212 221.670932 
L 367.961418 216.707716 
L 367.982717 247.189978 
L 368.032362 226.889754 
L 368.110233 241.50372 
L 368.081937 215.180313 
L 368.124373 220.098948 
L 368.209089 212.929302 
L 368.166757 233.985805 
L 368.223188 225.529197 
L 368.237282 235.575663 
L 368.251369 215.675573 
L 368.32875 223.431968 
L 368.349824 219.957678 
L 368.356845 239.508694 
L 368.455001 214.626941 
L 368.475998 238.28701 
L 368.566839 216.785913 
L 368.580793 215.034033 
L 368.587768 219.777946 
L 368.601714 232.96362 
L 368.636555 212.717137 
L 368.692226 215.159239 
L 368.796371 242.823412 
L 368.810233 225.634159 
L 368.879461 214.363796 
L 368.851786 247.594833 
L 368.900202 233.318292 
L 368.907113 233.328638 
L 369.003724 215.81509 
L 368.962352 237.639101 
L 369.017503 224.333384 
L 369.086319 230.993117 
L 369.065689 214.851129 
L 369.113807 215.673505 
L 369.141273 227.578732 
L 369.148136 245.118581 
L 369.19614 219.071804 
L 369.244077 227.27062 
L 369.305614 217.148215 
L 369.332928 238.889041 
L 369.360221 217.82188 
L 369.367041 216.773358 
L 369.380677 224.898883 
L 369.387493 222.256757 
L 369.394307 240.785493 
L 369.482774 213.514487 
L 369.496365 218.981476 
L 369.50995 245.812684 
L 369.537104 217.367159 
L 369.625207 229.375979 
L 369.645507 233.800218 
L 369.672555 215.673161 
L 369.713087 226.019444 
L 369.780536 214.842049 
L 369.753572 235.937749 
L 369.814211 230.437214 
L 369.874743 239.140481 
L 369.841127 214.206775 
L 369.901613 218.233928 
L 369.908327 216.407483 
L 369.93517 234.973825 
L 369.968696 219.719567 
L 369.995492 245.570744 
L 370.082439 226.044469 
L 370.142505 217.869436 
L 370.115822 241.937666 
L 370.162504 228.709303 
L 370.169168 250.600504 
L 370.25568 216.720476 
L 370.26897 221.801629 
L 370.322081 217.542546 
L 370.295536 234.961477 
L 370.335346 221.305674 
L 370.341977 246.650808 
L 370.361861 215.433504 
L 370.447894 227.699513 
L 370.520524 240.021578 
L 370.546897 216.654416 
L 370.553488 219.846554 
L 370.566664 219.444498 
L 370.579836 236.809971 
L 370.606164 214.67227 
L 370.671897 217.031839 
L 370.750613 243.179627 
L 370.730951 216.570129 
L 370.783358 219.471175 
L 370.796448 225.101022 
L 370.802991 243.599168 
L 370.868352 222.240907 
L 370.907509 229.463657 
L 370.920552 228.525786 
L 370.927071 237.48206 
L 370.93359 238.791771 
L 370.946622 220.571926 
L 370.95965 217.63071 
L 370.979183 245.276345 
L 371.031217 226.02039 
L 371.037715 247.145368 
L 371.122088 216.344016 
L 371.13505 216.584615 
L 371.154484 240.682284 
L 371.238572 216.360931 
L 371.264405 229.478462 
L 371.303117 223.898915 
L 371.277314 233.05887 
L 371.328902 232.427146 
L 371.335345 243.401161 
L 371.412569 215.961174 
L 371.438272 236.861063 
L 371.463956 216.075285 
L 371.496034 241.814411 
L 371.547297 232.852616 
L 371.604878 250.715446 
L 371.579298 219.42001 
L 371.65598 247.111323 
L 371.75796 218.971514 
L 371.770686 227.771824 
L 371.777048 227.620572 
L 371.834248 247.440498 
L 371.808838 213.635086 
L 371.891354 236.043988 
L 371.897694 236.080415 
L 371.929373 218.283977 
L 371.948366 251.697471 
L 372.011603 229.115851 
L 372.017921 220.78247 
L 372.0558 248.183976 
L 372.118842 229.788995 
L 372.225749 250.982386 
L 372.150319 217.579985 
L 372.232027 240.023365 
L 372.250856 218.341981 
L 372.288482 245.946667 
L 372.344844 233.19223 
L 372.363612 218.293121 
L 372.394868 243.989408 
L 372.426095 225.645341 
L 372.438579 248.11971 
L 372.53206 217.839152 
L 372.550726 228.758911 
L 372.556946 255.591602 
L 372.631496 216.68774 
L 372.656311 225.532498 
L 372.773937 255.421873 
L 372.743022 221.518804 
L 372.786296 234.24375 
L 372.792473 219.055658 
L 372.817173 248.869856 
L 372.897325 230.218023 
L 372.958854 216.917327 
L 372.940407 235.340635 
L 372.977291 220.589895 
L 372.995719 245.329172 
L 373.02641 217.053605 
L 373.087711 223.886878 
L 373.155016 284.786369 
L 373.179458 219.442378 
L 373.209987 240.849349 
L 373.289236 216.036546 
L 373.252682 245.433133 
L 373.319668 235.474263 
L 373.404736 216.578363 
L 373.374379 245.055893 
L 373.416872 225.267992 
L 373.422938 283.850755 
L 373.447192 221.804939 
L 373.531948 277.653958 
L 373.556126 220.563895 
L 373.646643 232.809745 
L 373.688803 235.560148 
L 373.77297 215.679129 
L 373.904821 273.670632 
L 373.982498 222.681931 
L 374.01829 231.311054 
L 374.113555 236.616466 
L 374.137331 216.990199 
L 374.16109 256.013273 
L 374.244118 223.743407 
L 374.250041 218.029498 
L 374.315128 261.263164 
L 374.350578 226.585898 
L 374.380092 239.70877 
L 374.450823 222.777085 
L 374.456711 229.040162 
L 374.503777 218.722757 
L 374.480252 251.9912 
L 374.568389 222.238903 
L 374.662155 221.617457 
L 374.685557 254.942243 
L 374.708943 221.777689 
L 374.80233 231.768738 
L 374.860569 217.482041 
L 374.889652 243.347616 
L 374.91871 225.948883 
L 374.924519 226.27813 
L 374.930327 222.311503 
L 375.046279 280.144498 
L 375.069423 221.249441 
L 375.161844 230.022897 
L 375.173379 218.157057 
L 375.196438 262.980425 
L 375.242511 225.24865 
L 375.248265 262.041589 
L 375.282774 223.57856 
L 375.351687 243.450857 
L 375.449081 250.822001 
L 375.386093 222.419896 
L 375.454801 239.391472 
L 375.460521 239.413505 
L 375.540496 222.068873 
L 375.506243 244.824614 
L 375.574714 225.103633 
L 375.580414 221.287375 
L 375.608899 252.314898 
L 375.648738 231.53816 
L 375.722605 222.163905 
L 375.756644 252.211638 
L 375.830281 220.83196 
L 375.869867 230.919633 
L 375.937623 218.417042 
L 375.954542 242.7035 
L 375.982721 224.371937 
L 376.055879 254.999968 
L 376.106437 248.763703 
L 376.128883 221.943631 
L 376.218523 222.338275 
L 376.257668 255.369197 
L 376.229712 221.941877 
L 376.330249 229.693053 
L 376.369268 224.781527 
L 376.352551 252.097666 
L 376.385976 236.413067 
L 376.391544 268.532084 
L 376.474955 221.734777 
L 376.497164 239.645258 
L 376.596928 261.477993 
L 376.524905 224.19746 
L 376.602462 234.885075 
L 376.646703 250.25973 
L 376.619059 223.007603 
L 376.701924 242.197183 
L 376.746038 252.173672 
L 376.817603 219.412166 
L 376.839593 260.203855 
L 376.938377 233.447413 
L 376.960291 221.468339 
L 377.02595 243.117234 
L 377.08057 256.150516 
L 377.113301 229.414257 
L 377.135105 250.63531 
L 377.200433 223.419176 
L 377.249348 230.207628 
L 377.254779 222.996902 
L 377.319882 256.907432 
L 377.357802 232.43678 
L 377.368629 265.095071 
L 377.438921 227.205213 
L 377.471315 252.828359 
L 377.487501 223.882285 
L 377.51446 263.703312 
L 377.584457 228.692303 
L 377.627461 223.723684 
L 377.65968 243.986192 
L 377.681142 231.921887 
L 377.702591 256.773379 
L 377.772209 227.404324 
L 377.777558 231.367954 
L 377.873707 221.009218 
L 377.798948 251.971925 
L 377.87904 227.368982 
L 377.889705 245.449632 
L 377.958948 223.616242 
L 377.99086 242.483733 
L 378.017431 223.058992 
L 378.075814 258.684581 
L 378.10232 228.964885 
L 378.17114 260.900776 
L 378.192288 225.806521 
L 378.218704 238.858926 
L 378.245101 224.472962 
L 378.266203 252.702544 
L 378.334698 228.793264 
L 378.355747 250.645919 
L 378.429315 228.408118 
L 378.46604 239.593678 
L 378.481768 221.936519 
L 378.497488 242.91643 
L 378.581211 225.945681 
L 378.638652 251.707752 
L 378.617775 220.388749 
L 378.695999 235.008403 
L 378.706416 221.819354 
L 378.716829 276.113106 
L 378.805216 231.465196 
L 378.820791 268.196514 
L 378.893379 215.495373 
L 378.91409 232.438922 
L 378.986483 216.838203 
L 378.955476 236.824566 
L 379.022623 223.281242 
L 379.048414 260.600626 
L 379.063879 213.788176 
L 379.13596 249.118834 
L 379.243801 210.734178 
L 379.248928 215.920603 
L 379.361528 261.806501 
L 379.397279 208.764523 
L 379.478856 222.387736 
L 379.483949 222.923024 
L 379.494131 218.67573 
L 379.529745 206.572656 
L 379.565323 231.281646 
L 379.605938 208.312413 
L 379.631299 229.192341 
L 379.707269 198.396712 
L 379.712328 199.869597 
L 379.762875 234.300592 
L 379.843597 212.076927 
L 379.878854 237.10013 
L 379.88892 205.296171 
L 379.984409 228.634607 
L 380.034561 205.994388 
L 379.999462 232.029813 
L 380.08464 229.700343 
L 380.09965 251.807611 
L 380.184582 221.878127 
L 380.189572 228.877448 
L 380.199548 218.328701 
L 380.25437 295.488 
L 380.294186 225.700225 
L 380.388566 267.04495 
L 380.333956 223.389309 
L 380.403444 252.181706 
L 380.507415 222.030255 
L 380.433182 260.701562 
L 380.512359 224.983398 
L 380.566688 272.575002 
L 380.546942 224.855303 
L 380.620932 231.836457 
L 380.684929 220.416577 
L 380.709512 253.65714 
L 380.729166 229.231077 
L 380.832165 249.748449 
L 380.753717 222.909698 
L 380.837062 234.660001 
L 380.890885 222.339572 
L 380.866431 271.76115 
L 380.944624 240.724709 
L 380.949505 254.661065 
L 380.978778 218.689607 
L 381.051853 243.106808 
L 381.153898 225.762993 
L 381.095623 270.222522 
L 381.15875 230.781267 
L 381.168452 281.258363 
L 381.265319 223.922164 
L 381.328138 218.805906 
L 381.289494 235.036041 
L 381.347444 224.649099 
L 381.453434 257.202128 
L 381.400479 218.376162 
L 381.458244 236.314553 
L 381.554305 216.014392 
L 381.535114 245.557394 
L 381.573486 227.602048 
L 381.645317 249.337417 
L 381.592655 217.336506 
L 381.678788 227.602934 
L 381.745632 218.550305 
L 381.688345 247.854652 
L 381.764707 244.55464 
L 381.769474 253.400321 
L 381.793299 221.818783 
L 381.864677 228.998043 
L 381.907433 221.814252 
L 381.874182 255.599241 
L 381.969098 229.602161 
L 382.044844 265.320595 
L 382.002258 220.98989 
L 382.068481 230.622548 
L 382.120425 217.335445 
L 382.092102 242.141318 
L 382.167579 226.03166 
L 382.172291 249.880136 
L 382.191132 219.341883 
L 382.275791 241.621772 
L 382.299271 252.71438 
L 382.378983 222.760992 
L 382.383666 247.601683 
L 382.481868 220.505712 
L 382.486537 239.154768 
L 382.561161 221.442942 
L 382.500541 256.116076 
L 382.598413 235.417548 
L 382.626325 259.496264 
L 382.658861 221.141959 
L 382.691367 231.160184 
L 382.700649 221.566744 
L 382.765551 241.151519 
L 382.774813 226.015305 
L 382.779443 280.57614 
L 382.830333 222.954731 
L 382.885763 246.266648 
L 383.033146 221.847398 
L 382.90422 253.042374 
L 383.037741 228.066647 
L 383.134108 252.35706 
L 383.106602 220.366456 
L 383.147853 237.319934 
L 383.18448 225.713116 
L 383.207351 265.796316 
L 383.239347 227.260708 
L 383.28044 287.346823 
L 383.266748 222.1233 
L 383.348821 227.255782 
L 383.398881 266.50368 
L 383.389784 221.954444 
L 383.462489 240.081607 
L 383.512386 224.144403 
L 383.525981 270.226869 
L 383.571261 242.255404 
L 383.602922 255.600316 
L 383.58031 228.061816 
L 383.62552 229.665278 
L 383.634554 220.567125 
L 383.720267 246.607749 
L 383.729277 240.203865 
L 383.792283 224.050319 
L 383.805769 263.14199 
L 383.823742 229.344526 
L 383.931387 281.062909 
L 383.900025 219.71738 
L 383.935865 249.598757 
L 383.980613 216.646684 
L 384.043163 250.034611 
L 384.056552 273.410091 
L 384.136777 220.337337 
L 384.145679 233.198777 
L 384.190157 218.398597 
L 384.207932 239.691061 
L 384.261203 220.328647 
L 384.323249 265.998918 
L 384.380763 243.120315 
L 384.42494 216.04946 
L 384.486693 260.701752 
L 384.4911 231.386253 
L 384.561532 255.120075 
L 384.539537 218.03435 
L 384.596694 220.989737 
L 384.666912 251.670708 
L 384.680062 217.347227 
L 384.719482 246.243659 
L 384.771972 217.158291 
L 384.767601 246.841741 
L 384.841835 222.802584 
L 384.850559 227.265631 
L 384.920264 268.379398 
L 384.881072 217.361049 
L 384.959411 229.232793 
L 384.963758 220.334899 
L 385.024559 259.573522 
L 385.063589 239.352719 
L 385.093916 218.518769 
L 385.115561 255.585184 
L 385.163133 236.978726 
L 385.176096 254.778973 
L 385.253772 214.766702 
L 385.266701 225.552617 
L 385.382846 203.875682 
L 385.288239 252.2117 
L 385.395727 206.054234 
L 385.447203 247.371344 
L 385.511441 211.81342 
L 385.545652 189.306024 
L 385.609708 213.679832 
L 385.626769 203.411719 
L 385.631034 203.848466 
L 385.63956 194.238028 
L 385.643823 191.809072 
L 385.682161 229.13709 
L 385.686419 220.631091 
L 385.711951 239.867767 
L 385.758712 205.857624 
L 385.788436 212.872185 
L 385.813893 194.899413 
L 385.847807 216.03979 
L 385.919765 198.012984 
L 386.008448 246.486822 
L 386.033744 216.238993 
L 386.088489 180.740747 
L 386.168346 188.929007 
L 386.256395 231.861165 
L 386.285695 215.282093 
L 386.289879 215.036514 
L 386.298245 237.503476 
L 386.348398 183.387624 
L 386.385965 193.931969 
L 386.394308 190.343424 
L 386.423492 214.070559 
L 386.523364 246.063908 
L 386.460977 204.902441 
L 386.535828 224.095365 
L 386.627092 206.508344 
L 386.58149 244.301209 
L 386.635377 227.02327 
L 386.639519 228.190387 
L 386.6478 202.093138 
L 386.651941 199.991075 
L 386.672634 229.359936 
L 386.709851 206.357381 
L 386.792414 250.717955 
L 386.821264 219.771861 
L 386.903561 192.279955 
L 386.841857 238.998075 
L 386.940531 206.078754 
L 386.997962 272.167337 
L 387.075752 243.25069 
L 387.145205 192.482829 
L 387.185995 224.91407 
L 387.194147 219.064877 
L 387.198223 230.644053 
L 387.24709 271.595772 
L 387.283696 220.052563 
L 387.308078 256.80724 
L 387.417585 214.684198 
L 387.373013 261.331328 
L 387.421635 227.61182 
L 387.425683 250.097989 
L 387.429732 214.70581 
L 387.530784 237.009777 
L 387.615442 194.107005 
L 387.542891 258.489906 
L 387.65166 207.609595 
L 387.756078 245.648566 
L 387.788144 223.621519 
L 387.888158 193.966644 
L 387.800161 226.736209 
L 387.904133 203.426715 
L 388.015756 251.035321 
L 388.047582 208.769456 
L 388.115116 254.045993 
L 388.12702 221.831242 
L 388.13892 209.240992 
L 388.16667 239.554325 
L 388.178557 236.040657 
L 388.202317 277.218891 
L 388.241882 210.800634 
L 388.277451 232.204499 
L 388.387879 190.71546 
L 388.31693 234.597712 
L 388.395753 191.967806 
L 388.470469 249.0182 
L 388.529342 221.806039 
L 388.63897 189.621454 
L 388.646788 192.426263 
L 388.713164 248.511974 
L 388.77552 240.645185 
L 388.888255 200.372107 
L 388.946422 252.541397 
L 389.016095 222.745428 
L 389.047015 199.627788 
L 389.093344 233.283418 
L 389.135758 201.664282 
L 389.143464 211.594701 
L 389.243487 268.700216 
L 389.15502 204.021071 
L 389.255009 220.883385 
L 389.320231 250.237776 
L 389.274205 216.340878 
L 389.350882 217.46151 
L 389.354711 216.946561 
L 389.465579 248.163226 
L 389.43503 213.831944 
L 389.469396 239.476136 
L 389.560871 259.929416 
L 389.579898 211.965836 
L 389.591309 254.279829 
L 389.693841 232.041345 
L 389.735526 212.320092 
L 389.7431 245.317288 
L 389.799851 226.59917 
L 389.814968 246.88993 
L 389.856508 211.986382 
L 389.905537 240.39829 
L 389.935674 210.113889 
L 389.946968 255.31868 
L 390.018415 222.256661 
L 390.100959 252.484678 
L 390.052207 209.467159 
L 390.130927 226.710994 
L 390.183307 258.503004 
L 390.198259 208.111636 
L 390.235609 220.015999 
L 390.243074 228.345538 
L 390.250538 216.062345 
L 390.254269 278.062459 
L 390.284104 210.985605 
L 390.358579 216.992634 
L 390.362299 208.492528 
L 390.366018 258.96305 
L 390.466285 221.519674 
L 390.481115 208.049313 
L 390.544071 253.487722 
L 390.555168 234.701461 
L 390.558867 243.963249 
L 390.573657 204.20454 
L 390.658578 225.411158 
L 390.750648 210.917168 
L 390.732254 262.374521 
L 390.772708 218.234163 
L 390.776384 255.474542 
L 390.879136 210.483696 
L 390.8828 213.528415 
L 390.952344 257.45394 
L 390.956001 209.123018 
L 391.003498 222.822487 
L 391.098298 213.02048 
L 391.05093 246.568454 
L 391.11286 218.034778 
L 391.189208 250.522818 
L 391.152873 210.58976 
L 391.21462 226.16531 
L 391.225505 210.49354 
L 391.276257 255.537249 
L 391.3197 212.858566 
L 391.323318 244.075865 
L 391.381151 210.685853 
L 391.42807 220.209749 
L 391.431676 209.333952 
L 391.474925 247.134996 
L 391.528909 214.444045 
L 391.532505 253.418376 
L 391.62587 207.500765 
L 391.640212 226.466073 
L 391.661713 209.407041 
L 391.65813 240.718536 
L 391.754731 213.418005 
L 391.826113 243.786462 
L 391.811849 212.235168 
L 391.868872 238.330868 
L 391.883114 207.932605 
L 391.97909 209.460527 
L 391.996834 269.096251 
L 392.088957 230.985058 
L 392.110181 212.796609 
L 392.124324 246.175893 
L 392.198477 215.519527 
L 392.279511 243.644281 
L 392.237256 206.380778 
L 392.307652 219.505933 
L 392.311168 204.829991 
L 392.370886 246.935842 
L 392.405967 213.956789 
L 392.409473 286.13298 
L 392.490015 207.210839 
L 392.51449 230.363686 
L 392.517985 207.587519 
L 392.538949 260.747155 
L 392.626159 216.854335 
L 392.629643 208.632558 
L 392.633127 240.424304 
L 392.733996 215.90795 
L 392.796458 235.72887 
L 392.772181 207.875554 
L 392.851885 228.373103 
L 392.945217 206.546764 
L 392.903767 263.413968 
L 392.962473 224.871976 
L 393.069269 211.042957 
L 393.034855 243.975802 
L 393.072709 211.260214 
L 393.076148 253.397632 
L 393.079587 206.982177 
L 393.182595 216.698421 
L 393.186024 215.741256 
L 393.189452 226.014882 
L 393.192879 248.435628 
L 393.210013 205.703635 
L 393.298969 218.900728 
L 393.329708 208.828148 
L 393.35701 242.701393 
L 393.408141 222.68315 
L 393.493193 207.171965 
L 393.414953 240.418989 
L 393.499988 237.425975 
L 393.503385 246.264235 
L 393.571257 203.741797 
L 393.598368 216.093318 
L 393.655909 204.647782 
L 393.635612 249.429543 
L 393.699847 216.372971 
L 393.797662 241.421232 
L 393.753848 198.151608 
L 393.811132 224.145958 
L 393.854873 206.496079 
L 393.834692 241.985052 
L 393.925416 208.951082 
L 393.945545 243.773404 
L 393.958958 202.911003 
L 394.049357 223.315802 
L 394.086119 200.499485 
L 394.056044 278.820015 
L 394.156193 219.639268 
L 394.222799 236.150243 
L 394.206159 202.071534 
L 394.266023 216.414017 
L 394.269346 208.274621 
L 394.272669 252.043539 
L 394.368881 218.035319 
L 394.454914 242.622396 
L 394.461523 203.550773 
L 394.481343 223.032108 
L 394.560508 199.810366 
L 394.524246 249.944046 
L 394.586856 226.260937 
L 394.596732 214.39126 
L 394.600023 249.656362 
L 394.613184 203.977868 
L 394.711738 229.59143 
L 394.783832 206.722212 
L 394.744526 245.855596 
L 394.832901 208.615882 
L 394.872107 253.447864 
L 394.845975 202.646633 
L 394.943869 231.967993 
L 395.005725 206.535755 
L 395.031737 261.870707 
L 395.060977 207.874419 
L 395.151789 235.297361 
L 395.14531 205.78748 
L 395.174454 228.578653 
L 395.27788 202.833563 
L 395.235901 246.441088 
L 395.284334 220.546237 
L 395.287561 245.536101 
L 395.371344 205.878005 
L 395.393867 224.17813 
L 395.416375 199.952861 
L 395.435656 232.828369 
L 395.50626 217.201115 
L 395.544711 206.379935 
L 395.554318 231.719628 
L 395.611898 213.818023 
L 395.643846 241.031341 
L 395.714028 205.047274 
L 395.726773 232.916192 
L 395.736329 235.448404 
L 395.841269 205.47642 
L 395.869833 240.179657 
L 395.955387 222.321818 
L 395.958551 199.90745 
L 396.005985 253.32909 
L 396.065976 220.113155 
L 396.119563 236.470416 
L 396.078592 201.981417 
L 396.160486 214.594174 
L 396.163632 200.502245 
L 396.261013 238.428294 
L 396.267286 223.040299 
L 396.270423 248.431952 
L 396.2861 205.467351 
L 396.376885 227.83638 
L 396.429994 207.174924 
L 396.476788 254.201729 
L 396.489255 211.612058 
L 396.595048 258.079204 
L 396.529744 203.752798 
L 396.598155 210.043683 
L 396.635413 239.014997 
L 396.672632 205.918663 
L 396.70981 225.624949 
L 396.746949 205.893481 
L 396.750042 246.344848 
L 396.821107 214.209283 
L 396.876621 238.903498 
L 396.879703 204.95086 
L 396.925893 217.483198 
L 396.92897 205.285381 
L 397.018088 260.082103 
L 397.036498 218.874316 
L 397.119221 202.701541 
L 397.097793 246.338668 
L 397.146751 211.056819 
L 397.18037 269.856429 
L 397.247509 205.431174 
L 397.256655 223.165079 
L 397.326689 201.546516 
L 397.302345 266.814175 
L 397.366211 219.407099 
L 397.402652 246.102397 
L 397.393545 208.128197 
L 397.457243 209.221399 
L 397.469363 232.134519 
L 397.475421 210.667593 
L 397.560125 202.928169 
L 397.587307 259.883479 
L 397.67475 200.978913 
L 397.698833 217.010882 
L 397.785995 236.37156 
L 397.716885 205.066805 
L 397.807001 225.503937 
L 397.887906 204.237606 
L 397.813001 255.24421 
L 397.917823 212.361812 
L 397.968623 255.82666 
L 397.989518 208.336792 
L 398.028291 236.768258 
L 398.040213 203.835975 
L 398.064044 242.389563 
L 398.138409 233.097989 
L 398.188886 250.645017 
L 398.215579 203.412199 
L 398.245215 215.639873 
L 398.316236 246.9417 
L 398.265944 208.811298 
L 398.357598 226.751811 
L 398.407757 205.273444 
L 398.381212 245.755666 
L 398.472561 211.834435 
L 398.475504 225.990316 
L 398.481389 208.646417 
L 398.487273 211.252643 
" style="fill:none;stroke:#1f77b4;stroke-linecap:square;stroke-width:1.5;"/>
   </g>
   <g id="line2d_47">
    <path clip-path="url(#pb648afa765)" d="M 271.269078 307.584 
L 271.269078 41.472 
" style="fill:none;stroke:#ff0000;stroke-dasharray:5.55,2.4;stroke-dashoffset:0;stroke-width:1.5;"/>
   </g>
   <g id="line2d_48">
    <path clip-path="url(#pb648afa765)" d="M 288.463074 307.584 
L 288.463074 41.472 
" style="fill:none;stroke:#ff0000;stroke-dasharray:5.55,2.4;stroke-dashoffset:0;stroke-width:1.5;"/>
   </g>
   <g id="line2d_49">
    <path clip-path="url(#pb648afa765)" d="M 323.907953 307.584 
L 323.907953 41.472 
" style="fill:none;stroke:#ff0000;stroke-dasharray:5.55,2.4;stroke-dashoffset:0;stroke-width:1.5;"/>
   </g>
   <g id="patch_3">
    <path d="M 57.6 307.584 
L 57.6 41.472 
" style="fill:none;stroke:#000000;stroke-linecap:square;stroke-linejoin:miter;stroke-width:0.8;"/>
   </g>
   <g id="patch_4">
    <path d="M 414.72 307.584 
L 414.72 41.472 
" style="fill:none;stroke:#000000;stroke-linecap:square;stroke-linejoin:miter;stroke-width:0.8;"/>
   </g>
   <g id="patch_5">
    <path d="M 57.6 307.584 
L 414.72 307.584 
" style="fill:none;stroke:#000000;stroke-linecap:square;stroke-linejoin:miter;stroke-width:0.8;"/>
   </g>
   <g id="patch_6">
    <path d="M 57.6 41.472 
L 414.72 41.472 
" style="fill:none;stroke:#000000;stroke-linecap:square;stroke-linejoin:miter;stroke-width:0.8;"/>
   </g>
   <g id="text_14">
    <!-- DFT on -->
    <g transform="translate(215.14875 35.472)scale(0.12 -0.12)">
     <defs>
      <path d="M 1259 4147 
L 1259 519 
L 2022 519 
Q 2988 519 3436 956 
Q 3884 1394 3884 2338 
Q 3884 3275 3436 3711 
Q 2988 4147 2022 4147 
L 1259 4147 
z
M 628 4666 
L 1925 4666 
Q 3281 4666 3915 4102 
Q 4550 3538 4550 2338 
Q 4550 1131 3912 565 
Q 3275 0 1925 0 
L 628 0 
L 628 4666 
z
" id="DejaVuSans-44" transform="scale(0.015625)"/>
      <path d="M -19 4666 
L 3928 4666 
L 3928 4134 
L 2272 4134 
L 2272 0 
L 1638 0 
L 1638 4134 
L -19 4134 
L -19 4666 
z
" id="DejaVuSans-54" transform="scale(0.015625)"/>
     </defs>
     <use xlink:href="#DejaVuSans-44"/>
     <use x="77.001953" xlink:href="#DejaVuSans-46"/>
     <use x="132.771484" xlink:href="#DejaVuSans-54"/>
     <use x="193.855469" xlink:href="#DejaVuSans-20"/>
     <use x="225.642578" xlink:href="#DejaVuSans-6f"/>
     <use x="286.824219" xlink:href="#DejaVuSans-6e"/>
    </g>
   </g>
  </g>
 </g>
 <defs>
  <clipPath id="pb648afa765">
   <rect height="266.112" width="357.12" x="57.6" y="41.472"/>
  </clipPath>
 </defs>
</svg>
