<?xml version="1.0" encoding="utf-8" standalone="no"?>
<!DOCTYPE svg PUBLIC "-//W3C//DTD SVG 1.1//EN"
  "http://www.w3.org/Graphics/SVG/1.1/DTD/svg11.dtd">
<svg height="345.6pt" version="1.1" viewBox="0 0 460.8 345.6" width="460.8pt" xmlns="http://www.w3.org/2000/svg" xmlns:xlink="http://www.w3.org/1999/xlink">
 <metadata>
  <rdf:RDF xmlns:cc="http://creativecommons.org/ns#" xmlns:dc="http://purl.org/dc/elements/1.1/" xmlns:rdf="http://www.w3.org/1999/02/22-rdf-syntax-ns#">
   <cc:Work>
    <dc:type rdf:resource="http://purl.org/dc/dcmitype/StillImage"/>
    <dc:date>2021-10-07T14:02:34.322399</dc:date>
    <dc:format>image/svg+xml</dc:format>
    <dc:creator>
     <cc:Agent>
      <dc:title>Matplotlib v3.4.2, https://matplotlib.org/</dc:title>
     </cc:Agent>
    </dc:creator>
   </cc:Work>
  </rdf:RDF>
 </metadata>
 <defs>
  <style type="text/css">*{stroke-linecap:butt;stroke-linejoin:round;}</style>
 </defs>
 <g id="figure_1">
  <g id="patch_1">
   <path d="M 0 345.6 
L 460.8 345.6 
L 460.8 0 
L 0 0 
z
" style="fill:#ffffff;"/>
  </g>
  <g id="axes_1">
   <g id="patch_2">
    <path d="M 57.6 307.584 
L 414.72 307.584 
L 414.72 41.472 
L 57.6 41.472 
z
" style="fill:#ffffff;"/>
   </g>
   <g id="matplotlib.axis_1">
    <g id="xtick_1">
     <g id="line2d_1">
      <defs>
       <path d="M 0 0 
L 0 3.5 
" id="mecfeea9d0c" style="stroke:#000000;stroke-width:0.8;"/>
      </defs>
      <g>
       <use style="stroke:#000000;stroke-width:0.8;" x="62.228163" xlink:href="#mecfeea9d0c" y="307.584"/>
      </g>
     </g>
     <g id="text_1">
      <!-- $\mathdefault{10^{0}}$ -->
      <g transform="translate(53.428163 322.182437)scale(0.1 -0.1)">
       <defs>
        <path d="M 794 531 
L 1825 531 
L 1825 4091 
L 703 3866 
L 703 4441 
L 1819 4666 
L 2450 4666 
L 2450 531 
L 3481 531 
L 3481 0 
L 794 0 
L 794 531 
z
" id="DejaVuSans-31" transform="scale(0.015625)"/>
        <path d="M 2034 4250 
Q 1547 4250 1301 3770 
Q 1056 3291 1056 2328 
Q 1056 1369 1301 889 
Q 1547 409 2034 409 
Q 2525 409 2770 889 
Q 3016 1369 3016 2328 
Q 3016 3291 2770 3770 
Q 2525 4250 2034 4250 
z
M 2034 4750 
Q 2819 4750 3233 4129 
Q 3647 3509 3647 2328 
Q 3647 1150 3233 529 
Q 2819 -91 2034 -91 
Q 1250 -91 836 529 
Q 422 1150 422 2328 
Q 422 3509 836 4129 
Q 1250 4750 2034 4750 
z
" id="DejaVuSans-30" transform="scale(0.015625)"/>
       </defs>
       <use transform="translate(0 0.765625)" xlink:href="#DejaVuSans-31"/>
       <use transform="translate(63.623047 0.765625)" xlink:href="#DejaVuSans-30"/>
       <use transform="translate(128.203125 39.046875)scale(0.7)" xlink:href="#DejaVuSans-30"/>
      </g>
     </g>
    </g>
    <g id="xtick_2">
     <g id="line2d_2">
      <g>
       <use style="stroke:#000000;stroke-width:0.8;" x="139.646417" xlink:href="#mecfeea9d0c" y="307.584"/>
      </g>
     </g>
     <g id="text_2">
      <!-- $\mathdefault{10^{1}}$ -->
      <g transform="translate(130.846417 322.182437)scale(0.1 -0.1)">
       <use transform="translate(0 0.684375)" xlink:href="#DejaVuSans-31"/>
       <use transform="translate(63.623047 0.684375)" xlink:href="#DejaVuSans-30"/>
       <use transform="translate(128.203125 38.965625)scale(0.7)" xlink:href="#DejaVuSans-31"/>
      </g>
     </g>
    </g>
    <g id="xtick_3">
     <g id="line2d_3">
      <g>
       <use style="stroke:#000000;stroke-width:0.8;" x="217.064671" xlink:href="#mecfeea9d0c" y="307.584"/>
      </g>
     </g>
     <g id="text_3">
      <!-- $\mathdefault{10^{2}}$ -->
      <g transform="translate(208.264671 322.182437)scale(0.1 -0.1)">
       <defs>
        <path d="M 1228 531 
L 3431 531 
L 3431 0 
L 469 0 
L 469 531 
Q 828 903 1448 1529 
Q 2069 2156 2228 2338 
Q 2531 2678 2651 2914 
Q 2772 3150 2772 3378 
Q 2772 3750 2511 3984 
Q 2250 4219 1831 4219 
Q 1534 4219 1204 4116 
Q 875 4013 500 3803 
L 500 4441 
Q 881 4594 1212 4672 
Q 1544 4750 1819 4750 
Q 2544 4750 2975 4387 
Q 3406 4025 3406 3419 
Q 3406 3131 3298 2873 
Q 3191 2616 2906 2266 
Q 2828 2175 2409 1742 
Q 1991 1309 1228 531 
z
" id="DejaVuSans-32" transform="scale(0.015625)"/>
       </defs>
       <use transform="translate(0 0.765625)" xlink:href="#DejaVuSans-31"/>
       <use transform="translate(63.623047 0.765625)" xlink:href="#DejaVuSans-30"/>
       <use transform="translate(128.203125 39.046875)scale(0.7)" xlink:href="#DejaVuSans-32"/>
      </g>
     </g>
    </g>
    <g id="xtick_4">
     <g id="line2d_4">
      <g>
       <use style="stroke:#000000;stroke-width:0.8;" x="294.482925" xlink:href="#mecfeea9d0c" y="307.584"/>
      </g>
     </g>
     <g id="text_4">
      <!-- $\mathdefault{10^{3}}$ -->
      <g transform="translate(285.682925 322.182437)scale(0.1 -0.1)">
       <defs>
        <path d="M 2597 2516 
Q 3050 2419 3304 2112 
Q 3559 1806 3559 1356 
Q 3559 666 3084 287 
Q 2609 -91 1734 -91 
Q 1441 -91 1130 -33 
Q 819 25 488 141 
L 488 750 
Q 750 597 1062 519 
Q 1375 441 1716 441 
Q 2309 441 2620 675 
Q 2931 909 2931 1356 
Q 2931 1769 2642 2001 
Q 2353 2234 1838 2234 
L 1294 2234 
L 1294 2753 
L 1863 2753 
Q 2328 2753 2575 2939 
Q 2822 3125 2822 3475 
Q 2822 3834 2567 4026 
Q 2313 4219 1838 4219 
Q 1578 4219 1281 4162 
Q 984 4106 628 3988 
L 628 4550 
Q 988 4650 1302 4700 
Q 1616 4750 1894 4750 
Q 2613 4750 3031 4423 
Q 3450 4097 3450 3541 
Q 3450 3153 3228 2886 
Q 3006 2619 2597 2516 
z
" id="DejaVuSans-33" transform="scale(0.015625)"/>
       </defs>
       <use transform="translate(0 0.765625)" xlink:href="#DejaVuSans-31"/>
       <use transform="translate(63.623047 0.765625)" xlink:href="#DejaVuSans-30"/>
       <use transform="translate(128.203125 39.046875)scale(0.7)" xlink:href="#DejaVuSans-33"/>
      </g>
     </g>
    </g>
    <g id="xtick_5">
     <g id="line2d_5">
      <g>
       <use style="stroke:#000000;stroke-width:0.8;" x="371.901179" xlink:href="#mecfeea9d0c" y="307.584"/>
      </g>
     </g>
     <g id="text_5">
      <!-- $\mathdefault{10^{4}}$ -->
      <g transform="translate(363.101179 322.182437)scale(0.1 -0.1)">
       <defs>
        <path d="M 2419 4116 
L 825 1625 
L 2419 1625 
L 2419 4116 
z
M 2253 4666 
L 3047 4666 
L 3047 1625 
L 3713 1625 
L 3713 1100 
L 3047 1100 
L 3047 0 
L 2419 0 
L 2419 1100 
L 313 1100 
L 313 1709 
L 2253 4666 
z
" id="DejaVuSans-34" transform="scale(0.015625)"/>
       </defs>
       <use transform="translate(0 0.684375)" xlink:href="#DejaVuSans-31"/>
       <use transform="translate(63.623047 0.684375)" xlink:href="#DejaVuSans-30"/>
       <use transform="translate(128.203125 38.965625)scale(0.7)" xlink:href="#DejaVuSans-34"/>
      </g>
     </g>
    </g>
    <g id="xtick_6">
     <g id="line2d_6">
      <defs>
       <path d="M 0 0 
L 0 2 
" id="m0c376da6b7" style="stroke:#000000;stroke-width:0.6;"/>
      </defs>
      <g>
       <use style="stroke:#000000;stroke-width:0.6;" x="58.685698" xlink:href="#m0c376da6b7" y="307.584"/>
      </g>
     </g>
    </g>
    <g id="xtick_7">
     <g id="line2d_7">
      <g>
       <use style="stroke:#000000;stroke-width:0.6;" x="85.53338" xlink:href="#m0c376da6b7" y="307.584"/>
      </g>
     </g>
    </g>
    <g id="xtick_8">
     <g id="line2d_8">
      <g>
       <use style="stroke:#000000;stroke-width:0.6;" x="99.166058" xlink:href="#m0c376da6b7" y="307.584"/>
      </g>
     </g>
    </g>
    <g id="xtick_9">
     <g id="line2d_9">
      <g>
       <use style="stroke:#000000;stroke-width:0.6;" x="108.838596" xlink:href="#m0c376da6b7" y="307.584"/>
      </g>
     </g>
    </g>
    <g id="xtick_10">
     <g id="line2d_10">
      <g>
       <use style="stroke:#000000;stroke-width:0.6;" x="116.3412" xlink:href="#m0c376da6b7" y="307.584"/>
      </g>
     </g>
    </g>
    <g id="xtick_11">
     <g id="line2d_11">
      <g>
       <use style="stroke:#000000;stroke-width:0.6;" x="122.471274" xlink:href="#m0c376da6b7" y="307.584"/>
      </g>
     </g>
    </g>
    <g id="xtick_12">
     <g id="line2d_12">
      <g>
       <use style="stroke:#000000;stroke-width:0.6;" x="127.654178" xlink:href="#m0c376da6b7" y="307.584"/>
      </g>
     </g>
    </g>
    <g id="xtick_13">
     <g id="line2d_13">
      <g>
       <use style="stroke:#000000;stroke-width:0.6;" x="132.143813" xlink:href="#m0c376da6b7" y="307.584"/>
      </g>
     </g>
    </g>
    <g id="xtick_14">
     <g id="line2d_14">
      <g>
       <use style="stroke:#000000;stroke-width:0.6;" x="136.103952" xlink:href="#m0c376da6b7" y="307.584"/>
      </g>
     </g>
    </g>
    <g id="xtick_15">
     <g id="line2d_15">
      <g>
       <use style="stroke:#000000;stroke-width:0.6;" x="162.951634" xlink:href="#m0c376da6b7" y="307.584"/>
      </g>
     </g>
    </g>
    <g id="xtick_16">
     <g id="line2d_16">
      <g>
       <use style="stroke:#000000;stroke-width:0.6;" x="176.584312" xlink:href="#m0c376da6b7" y="307.584"/>
      </g>
     </g>
    </g>
    <g id="xtick_17">
     <g id="line2d_17">
      <g>
       <use style="stroke:#000000;stroke-width:0.6;" x="186.25685" xlink:href="#m0c376da6b7" y="307.584"/>
      </g>
     </g>
    </g>
    <g id="xtick_18">
     <g id="line2d_18">
      <g>
       <use style="stroke:#000000;stroke-width:0.6;" x="193.759454" xlink:href="#m0c376da6b7" y="307.584"/>
      </g>
     </g>
    </g>
    <g id="xtick_19">
     <g id="line2d_19">
      <g>
       <use style="stroke:#000000;stroke-width:0.6;" x="199.889528" xlink:href="#m0c376da6b7" y="307.584"/>
      </g>
     </g>
    </g>
    <g id="xtick_20">
     <g id="line2d_20">
      <g>
       <use style="stroke:#000000;stroke-width:0.6;" x="205.072432" xlink:href="#m0c376da6b7" y="307.584"/>
      </g>
     </g>
    </g>
    <g id="xtick_21">
     <g id="line2d_21">
      <g>
       <use style="stroke:#000000;stroke-width:0.6;" x="209.562067" xlink:href="#m0c376da6b7" y="307.584"/>
      </g>
     </g>
    </g>
    <g id="xtick_22">
     <g id="line2d_22">
      <g>
       <use style="stroke:#000000;stroke-width:0.6;" x="213.522206" xlink:href="#m0c376da6b7" y="307.584"/>
      </g>
     </g>
    </g>
    <g id="xtick_23">
     <g id="line2d_23">
      <g>
       <use style="stroke:#000000;stroke-width:0.6;" x="240.369888" xlink:href="#m0c376da6b7" y="307.584"/>
      </g>
     </g>
    </g>
    <g id="xtick_24">
     <g id="line2d_24">
      <g>
       <use style="stroke:#000000;stroke-width:0.6;" x="254.002566" xlink:href="#m0c376da6b7" y="307.584"/>
      </g>
     </g>
    </g>
    <g id="xtick_25">
     <g id="line2d_25">
      <g>
       <use style="stroke:#000000;stroke-width:0.6;" x="263.675104" xlink:href="#m0c376da6b7" y="307.584"/>
      </g>
     </g>
    </g>
    <g id="xtick_26">
     <g id="line2d_26">
      <g>
       <use style="stroke:#000000;stroke-width:0.6;" x="271.177708" xlink:href="#m0c376da6b7" y="307.584"/>
      </g>
     </g>
    </g>
    <g id="xtick_27">
     <g id="line2d_27">
      <g>
       <use style="stroke:#000000;stroke-width:0.6;" x="277.307782" xlink:href="#m0c376da6b7" y="307.584"/>
      </g>
     </g>
    </g>
    <g id="xtick_28">
     <g id="line2d_28">
      <g>
       <use style="stroke:#000000;stroke-width:0.6;" x="282.490686" xlink:href="#m0c376da6b7" y="307.584"/>
      </g>
     </g>
    </g>
    <g id="xtick_29">
     <g id="line2d_29">
      <g>
       <use style="stroke:#000000;stroke-width:0.6;" x="286.980321" xlink:href="#m0c376da6b7" y="307.584"/>
      </g>
     </g>
    </g>
    <g id="xtick_30">
     <g id="line2d_30">
      <g>
       <use style="stroke:#000000;stroke-width:0.6;" x="290.94046" xlink:href="#m0c376da6b7" y="307.584"/>
      </g>
     </g>
    </g>
    <g id="xtick_31">
     <g id="line2d_31">
      <g>
       <use style="stroke:#000000;stroke-width:0.6;" x="317.788142" xlink:href="#m0c376da6b7" y="307.584"/>
      </g>
     </g>
    </g>
    <g id="xtick_32">
     <g id="line2d_32">
      <g>
       <use style="stroke:#000000;stroke-width:0.6;" x="331.420819" xlink:href="#m0c376da6b7" y="307.584"/>
      </g>
     </g>
    </g>
    <g id="xtick_33">
     <g id="line2d_33">
      <g>
       <use style="stroke:#000000;stroke-width:0.6;" x="341.093358" xlink:href="#m0c376da6b7" y="307.584"/>
      </g>
     </g>
    </g>
    <g id="xtick_34">
     <g id="line2d_34">
      <g>
       <use style="stroke:#000000;stroke-width:0.6;" x="348.595962" xlink:href="#m0c376da6b7" y="307.584"/>
      </g>
     </g>
    </g>
    <g id="xtick_35">
     <g id="line2d_35">
      <g>
       <use style="stroke:#000000;stroke-width:0.6;" x="354.726036" xlink:href="#m0c376da6b7" y="307.584"/>
      </g>
     </g>
    </g>
    <g id="xtick_36">
     <g id="line2d_36">
      <g>
       <use style="stroke:#000000;stroke-width:0.6;" x="359.90894" xlink:href="#m0c376da6b7" y="307.584"/>
      </g>
     </g>
    </g>
    <g id="xtick_37">
     <g id="line2d_37">
      <g>
       <use style="stroke:#000000;stroke-width:0.6;" x="364.398575" xlink:href="#m0c376da6b7" y="307.584"/>
      </g>
     </g>
    </g>
    <g id="xtick_38">
     <g id="line2d_38">
      <g>
       <use style="stroke:#000000;stroke-width:0.6;" x="368.358714" xlink:href="#m0c376da6b7" y="307.584"/>
      </g>
     </g>
    </g>
    <g id="xtick_39">
     <g id="line2d_39">
      <g>
       <use style="stroke:#000000;stroke-width:0.6;" x="395.206396" xlink:href="#m0c376da6b7" y="307.584"/>
      </g>
     </g>
    </g>
    <g id="xtick_40">
     <g id="line2d_40">
      <g>
       <use style="stroke:#000000;stroke-width:0.6;" x="408.839073" xlink:href="#m0c376da6b7" y="307.584"/>
      </g>
     </g>
    </g>
    <g id="text_6">
     <!-- Frequency (Hz) -->
     <g transform="translate(198.455312 335.860562)scale(0.1 -0.1)">
      <defs>
       <path d="M 628 4666 
L 3309 4666 
L 3309 4134 
L 1259 4134 
L 1259 2759 
L 3109 2759 
L 3109 2228 
L 1259 2228 
L 1259 0 
L 628 0 
L 628 4666 
z
" id="DejaVuSans-46" transform="scale(0.015625)"/>
       <path d="M 2631 2963 
Q 2534 3019 2420 3045 
Q 2306 3072 2169 3072 
Q 1681 3072 1420 2755 
Q 1159 2438 1159 1844 
L 1159 0 
L 581 0 
L 581 3500 
L 1159 3500 
L 1159 2956 
Q 1341 3275 1631 3429 
Q 1922 3584 2338 3584 
Q 2397 3584 2469 3576 
Q 2541 3569 2628 3553 
L 2631 2963 
z
" id="DejaVuSans-72" transform="scale(0.015625)"/>
       <path d="M 3597 1894 
L 3597 1613 
L 953 1613 
Q 991 1019 1311 708 
Q 1631 397 2203 397 
Q 2534 397 2845 478 
Q 3156 559 3463 722 
L 3463 178 
Q 3153 47 2828 -22 
Q 2503 -91 2169 -91 
Q 1331 -91 842 396 
Q 353 884 353 1716 
Q 353 2575 817 3079 
Q 1281 3584 2069 3584 
Q 2775 3584 3186 3129 
Q 3597 2675 3597 1894 
z
M 3022 2063 
Q 3016 2534 2758 2815 
Q 2500 3097 2075 3097 
Q 1594 3097 1305 2825 
Q 1016 2553 972 2059 
L 3022 2063 
z
" id="DejaVuSans-65" transform="scale(0.015625)"/>
       <path d="M 947 1747 
Q 947 1113 1208 752 
Q 1469 391 1925 391 
Q 2381 391 2643 752 
Q 2906 1113 2906 1747 
Q 2906 2381 2643 2742 
Q 2381 3103 1925 3103 
Q 1469 3103 1208 2742 
Q 947 2381 947 1747 
z
M 2906 525 
Q 2725 213 2448 61 
Q 2172 -91 1784 -91 
Q 1150 -91 751 415 
Q 353 922 353 1747 
Q 353 2572 751 3078 
Q 1150 3584 1784 3584 
Q 2172 3584 2448 3432 
Q 2725 3281 2906 2969 
L 2906 3500 
L 3481 3500 
L 3481 -1331 
L 2906 -1331 
L 2906 525 
z
" id="DejaVuSans-71" transform="scale(0.015625)"/>
       <path d="M 544 1381 
L 544 3500 
L 1119 3500 
L 1119 1403 
Q 1119 906 1312 657 
Q 1506 409 1894 409 
Q 2359 409 2629 706 
Q 2900 1003 2900 1516 
L 2900 3500 
L 3475 3500 
L 3475 0 
L 2900 0 
L 2900 538 
Q 2691 219 2414 64 
Q 2138 -91 1772 -91 
Q 1169 -91 856 284 
Q 544 659 544 1381 
z
M 1991 3584 
L 1991 3584 
z
" id="DejaVuSans-75" transform="scale(0.015625)"/>
       <path d="M 3513 2113 
L 3513 0 
L 2938 0 
L 2938 2094 
Q 2938 2591 2744 2837 
Q 2550 3084 2163 3084 
Q 1697 3084 1428 2787 
Q 1159 2491 1159 1978 
L 1159 0 
L 581 0 
L 581 3500 
L 1159 3500 
L 1159 2956 
Q 1366 3272 1645 3428 
Q 1925 3584 2291 3584 
Q 2894 3584 3203 3211 
Q 3513 2838 3513 2113 
z
" id="DejaVuSans-6e" transform="scale(0.015625)"/>
       <path d="M 3122 3366 
L 3122 2828 
Q 2878 2963 2633 3030 
Q 2388 3097 2138 3097 
Q 1578 3097 1268 2742 
Q 959 2388 959 1747 
Q 959 1106 1268 751 
Q 1578 397 2138 397 
Q 2388 397 2633 464 
Q 2878 531 3122 666 
L 3122 134 
Q 2881 22 2623 -34 
Q 2366 -91 2075 -91 
Q 1284 -91 818 406 
Q 353 903 353 1747 
Q 353 2603 823 3093 
Q 1294 3584 2113 3584 
Q 2378 3584 2631 3529 
Q 2884 3475 3122 3366 
z
" id="DejaVuSans-63" transform="scale(0.015625)"/>
       <path d="M 2059 -325 
Q 1816 -950 1584 -1140 
Q 1353 -1331 966 -1331 
L 506 -1331 
L 506 -850 
L 844 -850 
Q 1081 -850 1212 -737 
Q 1344 -625 1503 -206 
L 1606 56 
L 191 3500 
L 800 3500 
L 1894 763 
L 2988 3500 
L 3597 3500 
L 2059 -325 
z
" id="DejaVuSans-79" transform="scale(0.015625)"/>
       <path id="DejaVuSans-20" transform="scale(0.015625)"/>
       <path d="M 1984 4856 
Q 1566 4138 1362 3434 
Q 1159 2731 1159 2009 
Q 1159 1288 1364 580 
Q 1569 -128 1984 -844 
L 1484 -844 
Q 1016 -109 783 600 
Q 550 1309 550 2009 
Q 550 2706 781 3412 
Q 1013 4119 1484 4856 
L 1984 4856 
z
" id="DejaVuSans-28" transform="scale(0.015625)"/>
       <path d="M 628 4666 
L 1259 4666 
L 1259 2753 
L 3553 2753 
L 3553 4666 
L 4184 4666 
L 4184 0 
L 3553 0 
L 3553 2222 
L 1259 2222 
L 1259 0 
L 628 0 
L 628 4666 
z
" id="DejaVuSans-48" transform="scale(0.015625)"/>
       <path d="M 353 3500 
L 3084 3500 
L 3084 2975 
L 922 459 
L 3084 459 
L 3084 0 
L 275 0 
L 275 525 
L 2438 3041 
L 353 3041 
L 353 3500 
z
" id="DejaVuSans-7a" transform="scale(0.015625)"/>
       <path d="M 513 4856 
L 1013 4856 
Q 1481 4119 1714 3412 
Q 1947 2706 1947 2009 
Q 1947 1309 1714 600 
Q 1481 -109 1013 -844 
L 513 -844 
Q 928 -128 1133 580 
Q 1338 1288 1338 2009 
Q 1338 2731 1133 3434 
Q 928 4138 513 4856 
z
" id="DejaVuSans-29" transform="scale(0.015625)"/>
      </defs>
      <use xlink:href="#DejaVuSans-46"/>
      <use x="50.269531" xlink:href="#DejaVuSans-72"/>
      <use x="89.132812" xlink:href="#DejaVuSans-65"/>
      <use x="150.65625" xlink:href="#DejaVuSans-71"/>
      <use x="214.132812" xlink:href="#DejaVuSans-75"/>
      <use x="277.511719" xlink:href="#DejaVuSans-65"/>
      <use x="339.035156" xlink:href="#DejaVuSans-6e"/>
      <use x="402.414062" xlink:href="#DejaVuSans-63"/>
      <use x="457.394531" xlink:href="#DejaVuSans-79"/>
      <use x="516.574219" xlink:href="#DejaVuSans-20"/>
      <use x="548.361328" xlink:href="#DejaVuSans-28"/>
      <use x="587.375" xlink:href="#DejaVuSans-48"/>
      <use x="662.570312" xlink:href="#DejaVuSans-7a"/>
      <use x="715.060547" xlink:href="#DejaVuSans-29"/>
     </g>
    </g>
   </g>
   <g id="matplotlib.axis_2">
    <g id="ytick_1">
     <g id="line2d_41">
      <defs>
       <path d="M 0 0 
L -3.5 0 
" id="md3f2c676f7" style="stroke:#000000;stroke-width:0.8;"/>
      </defs>
      <g>
       <use style="stroke:#000000;stroke-width:0.8;" x="57.6" xlink:href="#md3f2c676f7" y="301.673761"/>
      </g>
     </g>
     <g id="text_7">
      <!-- −140 -->
      <g transform="translate(23.132812 305.47298)scale(0.1 -0.1)">
       <defs>
        <path d="M 678 2272 
L 4684 2272 
L 4684 1741 
L 678 1741 
L 678 2272 
z
" id="DejaVuSans-2212" transform="scale(0.015625)"/>
       </defs>
       <use xlink:href="#DejaVuSans-2212"/>
       <use x="83.789062" xlink:href="#DejaVuSans-31"/>
       <use x="147.412109" xlink:href="#DejaVuSans-34"/>
       <use x="211.035156" xlink:href="#DejaVuSans-30"/>
      </g>
     </g>
    </g>
    <g id="ytick_2">
     <g id="line2d_42">
      <g>
       <use style="stroke:#000000;stroke-width:0.8;" x="57.6" xlink:href="#md3f2c676f7" y="266.230081"/>
      </g>
     </g>
     <g id="text_8">
      <!-- −120 -->
      <g transform="translate(23.132812 270.0293)scale(0.1 -0.1)">
       <use xlink:href="#DejaVuSans-2212"/>
       <use x="83.789062" xlink:href="#DejaVuSans-31"/>
       <use x="147.412109" xlink:href="#DejaVuSans-32"/>
       <use x="211.035156" xlink:href="#DejaVuSans-30"/>
      </g>
     </g>
    </g>
    <g id="ytick_3">
     <g id="line2d_43">
      <g>
       <use style="stroke:#000000;stroke-width:0.8;" x="57.6" xlink:href="#md3f2c676f7" y="230.786401"/>
      </g>
     </g>
     <g id="text_9">
      <!-- −100 -->
      <g transform="translate(23.132812 234.58562)scale(0.1 -0.1)">
       <use xlink:href="#DejaVuSans-2212"/>
       <use x="83.789062" xlink:href="#DejaVuSans-31"/>
       <use x="147.412109" xlink:href="#DejaVuSans-30"/>
       <use x="211.035156" xlink:href="#DejaVuSans-30"/>
      </g>
     </g>
    </g>
    <g id="ytick_4">
     <g id="line2d_44">
      <g>
       <use style="stroke:#000000;stroke-width:0.8;" x="57.6" xlink:href="#md3f2c676f7" y="195.342721"/>
      </g>
     </g>
     <g id="text_10">
      <!-- −80 -->
      <g transform="translate(29.495313 199.14194)scale(0.1 -0.1)">
       <defs>
        <path d="M 2034 2216 
Q 1584 2216 1326 1975 
Q 1069 1734 1069 1313 
Q 1069 891 1326 650 
Q 1584 409 2034 409 
Q 2484 409 2743 651 
Q 3003 894 3003 1313 
Q 3003 1734 2745 1975 
Q 2488 2216 2034 2216 
z
M 1403 2484 
Q 997 2584 770 2862 
Q 544 3141 544 3541 
Q 544 4100 942 4425 
Q 1341 4750 2034 4750 
Q 2731 4750 3128 4425 
Q 3525 4100 3525 3541 
Q 3525 3141 3298 2862 
Q 3072 2584 2669 2484 
Q 3125 2378 3379 2068 
Q 3634 1759 3634 1313 
Q 3634 634 3220 271 
Q 2806 -91 2034 -91 
Q 1263 -91 848 271 
Q 434 634 434 1313 
Q 434 1759 690 2068 
Q 947 2378 1403 2484 
z
M 1172 3481 
Q 1172 3119 1398 2916 
Q 1625 2713 2034 2713 
Q 2441 2713 2670 2916 
Q 2900 3119 2900 3481 
Q 2900 3844 2670 4047 
Q 2441 4250 2034 4250 
Q 1625 4250 1398 4047 
Q 1172 3844 1172 3481 
z
" id="DejaVuSans-38" transform="scale(0.015625)"/>
       </defs>
       <use xlink:href="#DejaVuSans-2212"/>
       <use x="83.789062" xlink:href="#DejaVuSans-38"/>
       <use x="147.412109" xlink:href="#DejaVuSans-30"/>
      </g>
     </g>
    </g>
    <g id="ytick_5">
     <g id="line2d_45">
      <g>
       <use style="stroke:#000000;stroke-width:0.8;" x="57.6" xlink:href="#md3f2c676f7" y="159.899041"/>
      </g>
     </g>
     <g id="text_11">
      <!-- −60 -->
      <g transform="translate(29.495313 163.698259)scale(0.1 -0.1)">
       <defs>
        <path d="M 2113 2584 
Q 1688 2584 1439 2293 
Q 1191 2003 1191 1497 
Q 1191 994 1439 701 
Q 1688 409 2113 409 
Q 2538 409 2786 701 
Q 3034 994 3034 1497 
Q 3034 2003 2786 2293 
Q 2538 2584 2113 2584 
z
M 3366 4563 
L 3366 3988 
Q 3128 4100 2886 4159 
Q 2644 4219 2406 4219 
Q 1781 4219 1451 3797 
Q 1122 3375 1075 2522 
Q 1259 2794 1537 2939 
Q 1816 3084 2150 3084 
Q 2853 3084 3261 2657 
Q 3669 2231 3669 1497 
Q 3669 778 3244 343 
Q 2819 -91 2113 -91 
Q 1303 -91 875 529 
Q 447 1150 447 2328 
Q 447 3434 972 4092 
Q 1497 4750 2381 4750 
Q 2619 4750 2861 4703 
Q 3103 4656 3366 4563 
z
" id="DejaVuSans-36" transform="scale(0.015625)"/>
       </defs>
       <use xlink:href="#DejaVuSans-2212"/>
       <use x="83.789062" xlink:href="#DejaVuSans-36"/>
       <use x="147.412109" xlink:href="#DejaVuSans-30"/>
      </g>
     </g>
    </g>
    <g id="ytick_6">
     <g id="line2d_46">
      <g>
       <use style="stroke:#000000;stroke-width:0.8;" x="57.6" xlink:href="#md3f2c676f7" y="124.45536"/>
      </g>
     </g>
     <g id="text_12">
      <!-- −40 -->
      <g transform="translate(29.495313 128.254579)scale(0.1 -0.1)">
       <use xlink:href="#DejaVuSans-2212"/>
       <use x="83.789062" xlink:href="#DejaVuSans-34"/>
       <use x="147.412109" xlink:href="#DejaVuSans-30"/>
      </g>
     </g>
    </g>
    <g id="ytick_7">
     <g id="line2d_47">
      <g>
       <use style="stroke:#000000;stroke-width:0.8;" x="57.6" xlink:href="#md3f2c676f7" y="89.01168"/>
      </g>
     </g>
     <g id="text_13">
      <!-- −20 -->
      <g transform="translate(29.495313 92.810899)scale(0.1 -0.1)">
       <use xlink:href="#DejaVuSans-2212"/>
       <use x="83.789062" xlink:href="#DejaVuSans-32"/>
       <use x="147.412109" xlink:href="#DejaVuSans-30"/>
      </g>
     </g>
    </g>
    <g id="ytick_8">
     <g id="line2d_48">
      <g>
       <use style="stroke:#000000;stroke-width:0.8;" x="57.6" xlink:href="#md3f2c676f7" y="53.568"/>
      </g>
     </g>
     <g id="text_14">
      <!-- 0 -->
      <g transform="translate(44.2375 57.367219)scale(0.1 -0.1)">
       <use xlink:href="#DejaVuSans-30"/>
      </g>
     </g>
    </g>
    <g id="text_15">
     <!-- Volume (dB) -->
     <g transform="translate(17.053125 205.220188)rotate(-90)scale(0.1 -0.1)">
      <defs>
       <path d="M 1831 0 
L 50 4666 
L 709 4666 
L 2188 738 
L 3669 4666 
L 4325 4666 
L 2547 0 
L 1831 0 
z
" id="DejaVuSans-56" transform="scale(0.015625)"/>
       <path d="M 1959 3097 
Q 1497 3097 1228 2736 
Q 959 2375 959 1747 
Q 959 1119 1226 758 
Q 1494 397 1959 397 
Q 2419 397 2687 759 
Q 2956 1122 2956 1747 
Q 2956 2369 2687 2733 
Q 2419 3097 1959 3097 
z
M 1959 3584 
Q 2709 3584 3137 3096 
Q 3566 2609 3566 1747 
Q 3566 888 3137 398 
Q 2709 -91 1959 -91 
Q 1206 -91 779 398 
Q 353 888 353 1747 
Q 353 2609 779 3096 
Q 1206 3584 1959 3584 
z
" id="DejaVuSans-6f" transform="scale(0.015625)"/>
       <path d="M 603 4863 
L 1178 4863 
L 1178 0 
L 603 0 
L 603 4863 
z
" id="DejaVuSans-6c" transform="scale(0.015625)"/>
       <path d="M 3328 2828 
Q 3544 3216 3844 3400 
Q 4144 3584 4550 3584 
Q 5097 3584 5394 3201 
Q 5691 2819 5691 2113 
L 5691 0 
L 5113 0 
L 5113 2094 
Q 5113 2597 4934 2840 
Q 4756 3084 4391 3084 
Q 3944 3084 3684 2787 
Q 3425 2491 3425 1978 
L 3425 0 
L 2847 0 
L 2847 2094 
Q 2847 2600 2669 2842 
Q 2491 3084 2119 3084 
Q 1678 3084 1418 2786 
Q 1159 2488 1159 1978 
L 1159 0 
L 581 0 
L 581 3500 
L 1159 3500 
L 1159 2956 
Q 1356 3278 1631 3431 
Q 1906 3584 2284 3584 
Q 2666 3584 2933 3390 
Q 3200 3197 3328 2828 
z
" id="DejaVuSans-6d" transform="scale(0.015625)"/>
       <path d="M 2906 2969 
L 2906 4863 
L 3481 4863 
L 3481 0 
L 2906 0 
L 2906 525 
Q 2725 213 2448 61 
Q 2172 -91 1784 -91 
Q 1150 -91 751 415 
Q 353 922 353 1747 
Q 353 2572 751 3078 
Q 1150 3584 1784 3584 
Q 2172 3584 2448 3432 
Q 2725 3281 2906 2969 
z
M 947 1747 
Q 947 1113 1208 752 
Q 1469 391 1925 391 
Q 2381 391 2643 752 
Q 2906 1113 2906 1747 
Q 2906 2381 2643 2742 
Q 2381 3103 1925 3103 
Q 1469 3103 1208 2742 
Q 947 2381 947 1747 
z
" id="DejaVuSans-64" transform="scale(0.015625)"/>
       <path d="M 1259 2228 
L 1259 519 
L 2272 519 
Q 2781 519 3026 730 
Q 3272 941 3272 1375 
Q 3272 1813 3026 2020 
Q 2781 2228 2272 2228 
L 1259 2228 
z
M 1259 4147 
L 1259 2741 
L 2194 2741 
Q 2656 2741 2882 2914 
Q 3109 3088 3109 3444 
Q 3109 3797 2882 3972 
Q 2656 4147 2194 4147 
L 1259 4147 
z
M 628 4666 
L 2241 4666 
Q 2963 4666 3353 4366 
Q 3744 4066 3744 3513 
Q 3744 3084 3544 2831 
Q 3344 2578 2956 2516 
Q 3422 2416 3680 2098 
Q 3938 1781 3938 1306 
Q 3938 681 3513 340 
Q 3088 0 2303 0 
L 628 0 
L 628 4666 
z
" id="DejaVuSans-42" transform="scale(0.015625)"/>
      </defs>
      <use xlink:href="#DejaVuSans-56"/>
      <use x="60.658203" xlink:href="#DejaVuSans-6f"/>
      <use x="121.839844" xlink:href="#DejaVuSans-6c"/>
      <use x="149.623047" xlink:href="#DejaVuSans-75"/>
      <use x="213.001953" xlink:href="#DejaVuSans-6d"/>
      <use x="310.414062" xlink:href="#DejaVuSans-65"/>
      <use x="371.9375" xlink:href="#DejaVuSans-20"/>
      <use x="403.724609" xlink:href="#DejaVuSans-28"/>
      <use x="442.738281" xlink:href="#DejaVuSans-64"/>
      <use x="506.214844" xlink:href="#DejaVuSans-42"/>
      <use x="574.818359" xlink:href="#DejaVuSans-29"/>
     </g>
    </g>
   </g>
   <g id="line2d_49">
    <path clip-path="url(#pd2dfec7ae8)" d="M -1 174.040216 
L 73.832727 174.071004 
L 97.137944 140.700894 
L 110.770622 135.649723 
L 120.443161 124.825659 
L 127.945765 121.066573 
L 134.075838 136.362811 
L 139.258742 134.456969 
L 143.748377 118.364397 
L 147.708516 115.796284 
L 151.250981 133.244793 
L 154.455531 128.315394 
L 157.381055 138.672882 
L 160.072277 123.338233 
L 162.563959 138.453375 
L 164.883659 143.178118 
L 167.053594 156.652292 
L 169.091934 133.024418 
L 171.013733 130.970169 
L 172.831598 138.981317 
L 174.556198 133.511577 
L 176.196636 129.689158 
L 177.760747 149.945495 
L 179.255319 140.343028 
L 180.686272 122.672356 
L 182.058802 133.590334 
L 183.377493 134.296672 
L 184.646411 127.424635 
L 185.869175 158.787511 
L 187.049027 154.319228 
L 188.188876 135.462672 
L 189.291346 138.346094 
L 190.358811 156.192967 
L 191.393425 137.844003 
L 192.397151 128.958035 
L 193.371779 158.938716 
L 194.31895 153.22541 
L 195.240167 136.464144 
L 196.136815 145.501441 
L 197.010171 134.182723 
L 197.861415 134.01177 
L 198.691638 135.57446 
L 199.501853 128.341421 
L 200.293003 131.431888 
L 201.065964 130.923399 
L 201.821554 132.07255 
L 203.283624 137.715171 
L 203.991488 126.986366 
L 205.364019 119.940362 
L 206.029829 119.889493 
L 206.68271 124.292751 
L 207.323154 132.056644 
L 207.951627 126.489354 
L 208.568568 134.698784 
L 209.174392 131.950016 
L 209.769493 134.622533 
L 210.354244 114.898122 
L 210.928998 115.95828 
L 211.494092 112.91326 
L 212.049846 105.934177 
L 213.134531 123.502625 
L 213.664027 110.508704 
L 214.185314 113.158737 
L 214.698642 110.40351 
L 215.20425 116.771338 
L 215.702368 129.152192 
L 216.193213 132.891694 
L 216.676996 114.064914 
L 217.624166 101.712571 
L 218.08793 99.174601 
L 218.545383 97.961481 
L 218.996696 98.363932 
L 219.442032 103.466978 
L 219.881545 125.233537 
L 220.315388 106.863247 
L 220.743703 95.806343 
L 221.166631 88.526054 
L 221.996854 79.015734 
L 223.59822 66.965573 
L 223.986921 64.587445 
L 224.371181 63.502269 
L 224.751098 63.206745 
L 225.12677 63.097443 
L 225.498291 63.143667 
L 225.865752 64.824809 
L 226.22924 68.991141 
L 226.944636 78.661325 
L 227.296705 82.040216 
L 227.989973 93.003458 
L 228.33132 100.084921 
L 229.003788 95.803807 
L 229.335046 100.478618 
L 229.663071 98.950414 
L 229.987927 94.676685 
L 230.309674 99.658016 
L 230.628371 108.990516 
L 230.944076 95.823548 
L 231.256844 93.521179 
L 231.566729 96.775066 
L 232.178061 115.435627 
L 232.479609 113.653625 
L 232.778476 122.244633 
L 233.074709 118.642769 
L 233.368356 101.562095 
L 233.65946 98.505482 
L 233.948066 103.382841 
L 234.234215 127.710806 
L 234.517949 114.434518 
L 234.799309 110.560247 
L 235.078334 119.764822 
L 235.355063 123.743339 
L 235.629532 106.119231 
L 235.901779 102.801188 
L 236.171839 109.643994 
L 236.439748 108.178812 
L 236.705538 96.17774 
L 236.969244 92.83809 
L 237.230898 94.636843 
L 237.490531 97.40332 
L 238.003858 92.115856 
L 238.509467 100.444521 
L 238.759448 96.69668 
L 239.007584 95.584985 
L 239.49843 102.839851 
L 239.741191 102.488537 
L 239.982213 104.177823 
L 240.221518 124.555001 
L 240.69508 95.701188 
L 240.929383 93.698468 
L 241.162064 97.996059 
L 241.622651 120.867272 
L 242.077014 102.271406 
L 242.301913 98.133685 
L 242.525318 96.554208 
L 242.747248 98.791606 
L 242.967723 105.828089 
L 243.186762 117.276614 
L 243.835444 93.456217 
L 244.04892 91.432133 
L 244.261049 93.963161 
L 244.471848 101.048883 
L 244.681333 100.364192 
L 244.889522 93.318723 
L 245.302071 88.673923 
L 245.709619 84.423146 
L 245.911556 81.478959 
L 246.510188 67.904843 
L 246.707387 68.083338 
L 246.903436 69.543432 
L 247.098349 69.235783 
L 247.484817 66.121136 
L 247.676397 66.729845 
L 247.866893 67.906897 
L 248.056315 67.631358 
L 248.244675 66.568723 
L 248.431987 66.826675 
L 248.803508 71.94298 
L 248.98774 72.061791 
L 249.170969 71.962747 
L 249.353204 74.748639 
L 249.714738 82.685955 
L 249.894057 81.947082 
L 250.072425 84.950625 
L 250.249852 92.357282 
L 250.601922 82.19707 
L 250.776583 81.961728 
L 250.950343 85.450271 
L 251.123208 84.722805 
L 251.29519 80.875593 
L 251.466296 80.989636 
L 251.805919 94.537861 
L 252.142145 87.386963 
L 252.475042 97.008049 
L 252.804675 86.665418 
L 252.968287 90.688394 
L 253.131108 104.422447 
L 253.293143 102.400291 
L 253.454402 96.379623 
L 253.61489 102.545674 
L 253.774617 121.72245 
L 253.933588 95.787434 
L 254.091811 91.480961 
L 254.249293 95.639892 
L 254.40604 113.971138 
L 254.71736 95.691514 
L 254.871946 98.358706 
L 255.025824 108.248403 
L 255.331484 103.976253 
L 255.483278 122.275936 
L 255.784825 96.230158 
L 255.934591 94.45384 
L 256.083692 98.968197 
L 256.232135 117.399877 
L 256.52707 107.808008 
L 256.673573 123.93916 
L 256.964677 89.990961 
L 257.109289 88.564185 
L 257.253282 93.743333 
L 257.396661 105.12582 
L 257.681598 94.26986 
L 257.823166 96.993408 
L 258.104526 103.876635 
L 258.383551 112.177954 
L 258.660279 92.475975 
L 258.797794 88.994606 
L 258.934749 90.342908 
L 259.206996 107.823071 
L 259.342297 106.118724 
L 259.744964 91.364786 
L 259.878122 89.601925 
L 260.010755 89.419497 
L 260.142866 87.206709 
L 260.405542 78.991265 
L 260.536114 79.350504 
L 260.795747 86.178635 
L 260.924816 85.806655 
L 261.181476 80.325309 
L 261.309075 79.675963 
L 261.436192 80.541446 
L 261.56283 79.88358 
L 261.939906 72.473847 
L 262.064665 71.810558 
L 262.559119 65.208233 
L 262.681605 65.620951 
L 262.803647 65.47578 
L 262.925246 64.767206 
L 263.046408 64.779162 
L 263.287429 65.78515 
L 263.407295 64.867309 
L 263.526735 64.857482 
L 263.76435 68.123076 
L 264.000297 67.54376 
L 264.351141 73.081657 
L 264.58302 70.942123 
L 264.698363 71.464395 
L 264.813311 71.010502 
L 265.042035 67.63489 
L 265.38223 71.493277 
L 265.494868 71.09932 
L 265.60713 73.044382 
L 265.941683 85.131366 
L 266.052465 86.518865 
L 266.27294 94.765774 
L 266.382638 93.855631 
L 266.491979 90.517035 
L 266.600965 90.748236 
L 266.925821 100.716052 
L 267.140661 93.261222 
L 267.247568 94.403347 
L 267.354137 98.680563 
L 267.460368 97.49802 
L 267.67183 93.791352 
L 267.88197 110.581628 
L 268.090805 89.456134 
L 268.298351 93.552006 
L 268.504624 88.149216 
L 268.607287 88.184306 
L 268.913411 94.964166 
L 269.317287 79.139558 
L 269.617043 80.715521 
L 270.110771 77.225618 
L 270.597355 63.669983 
L 270.790033 62.370495 
L 271.455844 53.740585 
L 271.549892 53.568 
L 271.643678 53.855983 
L 271.830469 56.591835 
L 272.108725 63.220044 
L 272.292957 63.005252 
L 272.476185 65.672345 
L 273.466473 87.536475 
L 273.643433 86.613828 
L 273.819466 82.868634 
L 273.907138 82.886043 
L 273.994583 82.541661 
L 274.168792 80.330433 
L 274.514526 84.282647 
L 274.600407 83.810877 
L 274.856741 79.290225 
L 274.941753 79.378067 
L 275.111135 75.890047 
L 275.363619 71.682802 
L 275.447361 71.628418 
L 275.697342 74.563931 
L 275.86297 77.397193 
L 276.191797 84.232045 
L 276.273504 84.76824 
L 276.759618 77.842222 
L 276.920107 78.501414 
L 277.079833 82.552304 
L 277.238804 85.890197 
L 277.318009 86.020581 
L 277.711257 91.593368 
L 277.945017 88.749002 
L 278.022577 88.020018 
L 278.25419 82.277585 
L 278.331041 82.447722 
L 278.788494 91.643952 
L 279.090042 104.126115 
L 279.165008 104.120621 
L 279.463212 93.419023 
L 279.611329 91.170586 
L 279.685143 91.31737 
L 279.832287 93.894027 
L 280.342277 109.115401 
L 280.701878 105.946549 
L 280.844648 114.319718 
L 280.915806 119.154992 
L 281.269357 105.925634 
L 281.479716 110.332217 
L 281.549544 109.173952 
L 281.619228 109.052821 
L 281.758163 103.901213 
L 281.827416 103.916181 
L 281.896527 104.541317 
L 281.965496 104.480624 
L 282.034324 103.870919 
L 282.714961 114.430867 
L 282.916494 117.805973 
L 283.050181 114.370798 
L 283.116826 115.409535 
L 283.382092 123.758652 
L 283.448083 123.768535 
L 283.579677 122.901486 
L 283.645282 123.904496 
L 283.710759 123.333017 
L 284.230032 96.192522 
L 284.358607 95.620458 
L 284.550553 96.462071 
L 284.804787 101.533816 
L 284.931187 104.098722 
L 285.494178 135.531101 
L 285.556155 143.619697 
L 285.679767 128.775818 
L 285.741402 130.750159 
L 285.864336 161.479977 
L 286.047898 126.800783 
L 286.169718 136.600324 
L 286.351625 119.598566 
L 286.472351 126.331219 
L 286.532552 125.674638 
L 286.652632 119.369262 
L 286.831952 126.567961 
L 287.01032 120.309904 
L 287.069566 120.43164 
L 287.128708 120.368973 
L 287.246682 125.10395 
L 287.305513 124.079756 
L 287.481393 116.10165 
L 287.539816 116.556579 
L 287.656358 119.835213 
L 287.714478 119.022202 
L 287.830417 116.923929 
L 288.00358 124.448558 
L 288.061103 122.259463 
L 288.233084 114.854215 
L 288.347252 117.511899 
L 288.51778 113.429136 
L 288.574431 114.098503 
L 288.687447 117.505061 
L 289.191371 107.85824 
L 289.2469 108.163129 
L 289.302336 107.95892 
L 289.4681 106.062041 
L 289.523173 106.480307 
L 289.63305 107.695862 
L 289.797195 111.485035 
L 290.123101 121.073269 
L 290.231038 122.144065 
L 290.284877 121.805369 
L 290.499374 116.199274 
L 290.552785 116.226359 
L 290.659353 119.627903 
L 290.818575 127.008404 
L 290.924306 123.65765 
L 291.082281 119.078482 
L 291.134775 119.227125 
L 291.343935 126.972811 
L 291.396022 126.901712 
L 291.758391 116.015109 
L 291.861211 116.586416 
L 291.912504 117.381899 
L 292.116896 127.888566 
L 292.1678 127.555937 
L 292.269378 125.762123 
L 292.320052 126.419784 
L 292.37065 126.014757 
L 292.421172 126.155605 
L 292.471618 127.186258 
L 292.521989 126.060356 
L 292.572284 126.470275 
L 292.622504 126.303742 
L 292.672649 124.575726 
L 292.72272 124.668967 
L 292.772716 125.102306 
L 293.17003 115.330676 
L 293.219366 116.364555 
L 293.415988 116.142898 
L 293.464964 116.236419 
L 293.66016 117.737973 
L 293.708782 117.938039 
L 293.854229 117.351771 
L 294.047184 118.426197 
L 294.191177 123.530636 
L 294.334556 140.366172 
L 294.429803 165.995832 
L 294.57217 135.923907 
L 294.76106 131.359309 
L 294.855109 131.971501 
L 294.902034 134.703694 
L 294.948895 132.645147 
L 295.089085 135.988163 
L 295.135686 133.818541 
L 295.182222 135.556095 
L 295.228694 140.121593 
L 295.321445 139.304467 
L 295.413941 144.135016 
L 295.460094 141.972807 
L 295.689913 134.848723 
L 295.735688 137.29206 
L 295.781402 136.11859 
L 295.827054 133.078086 
L 295.872643 134.039471 
L 295.918171 138.616782 
L 295.963637 137.478061 
L 296.054386 135.785339 
L 296.099668 142.010851 
L 296.14489 140.946642 
L 296.235151 136.648187 
L 296.325171 142.621908 
L 296.370091 136.185793 
L 296.41495 136.532164 
L 296.504491 149.653063 
L 296.593793 135.570224 
L 296.638355 141.496799 
L 296.682859 145.829848 
L 296.727303 144.09446 
L 296.771689 143.161959 
L 296.816017 144.496193 
L 296.860286 160.5283 
L 296.904496 152.226637 
L 296.948649 146.383544 
L 296.992744 149.099854 
L 297.036781 154.618573 
L 297.168547 135.434242 
L 297.212355 135.317449 
L 297.299799 130.351092 
L 297.387017 130.913773 
L 297.474009 130.625291 
L 297.77672 147.797094 
L 297.86271 143.672991 
L 297.948482 158.348101 
L 297.991285 150.048476 
L 298.034035 147.614292 
L 298.11937 164.453757 
L 298.161957 154.861597 
L 298.20449 154.52771 
L 298.24697 155.0864 
L 298.374086 167.300495 
L 298.458564 149.242089 
L 298.500724 155.065138 
L 298.542831 155.155411 
L 298.626887 144.546412 
L 298.668836 157.331125 
L 298.710733 148.242017 
L 298.752578 141.440285 
L 298.794371 147.288642 
L 298.836112 161.038848 
L 298.877801 143.238445 
L 298.919438 137.184144 
L 298.961024 142.354392 
L 299.002559 155.844194 
L 299.044043 150.915436 
L 299.085475 138.004458 
L 299.126856 142.337114 
L 299.168187 155.062365 
L 299.209466 141.788872 
L 299.250695 135.602554 
L 299.291874 142.627792 
L 299.333002 173.127463 
L 299.37408 140.168805 
L 299.415108 134.144001 
L 299.456086 134.790564 
L 299.537892 169.015828 
L 299.578721 146.343423 
L 299.6195 139.252262 
L 299.660229 140.057532 
L 299.741541 152.831325 
L 299.782123 147.048514 
L 299.822656 145.729614 
L 299.863141 171.422316 
L 299.903577 157.039398 
L 299.943964 151.480196 
L 299.984302 162.315301 
L 300.024593 144.394653 
L 300.105029 137.935751 
L 300.145175 154.345588 
L 300.185273 140.479005 
L 300.265327 131.016167 
L 300.305282 136.680462 
L 300.34519 135.218683 
L 300.38505 128.760914 
L 300.424863 131.434967 
L 300.583647 153.395218 
L 300.623226 151.03474 
L 300.781077 128.978701 
L 300.820425 124.887394 
L 300.898981 127.036645 
L 300.977355 124.016628 
L 301.172494 139.231897 
L 301.211386 138.124448 
L 301.250233 133.280264 
L 301.289036 134.309612 
L 301.327794 141.172343 
L 301.366507 131.11351 
L 301.405175 128.836253 
L 301.482379 134.612453 
L 301.520915 128.384121 
L 301.559406 130.349667 
L 301.597854 138.799191 
L 301.674617 133.742983 
L 301.751206 149.733008 
L 301.789435 145.794478 
L 302.0179 116.884995 
L 302.093711 120.441686 
L 302.320125 129.788358 
L 302.395259 137.751004 
L 302.432763 134.667181 
L 302.507645 128.439141 
L 302.545024 133.992621 
L 302.619658 126.391556 
L 302.656912 133.109003 
L 302.694126 135.980643 
L 302.731298 129.198547 
L 302.768429 136.30713 
L 302.805519 152.479559 
L 302.879577 136.361012 
L 302.953473 153.308954 
L 303.100778 133.533941 
L 303.24744 127.620365 
L 303.393466 120.644268 
L 303.466241 126.58996 
L 303.50257 123.352299 
L 303.57511 117.044787 
L 303.647494 117.141109 
L 303.683628 115.365921 
L 303.719723 116.475768 
L 303.755779 119.523173 
L 303.827775 116.318247 
L 303.899618 116.926199 
L 303.971307 112.11834 
L 304.007095 113.34098 
L 304.042844 114.709917 
L 304.221023 105.956353 
L 304.327479 113.583486 
L 304.433599 111.414243 
L 304.50416 114.314108 
L 304.574573 158.272628 
L 304.644839 122.583689 
L 304.679918 124.861474 
L 304.749964 112.199967 
L 304.784933 115.95498 
L 304.854761 115.073486 
L 304.889621 116.186224 
L 304.993984 137.802791 
L 305.0287 150.58947 
L 305.06338 125.924427 
L 305.201744 109.511248 
L 305.236246 110.489412 
L 305.270713 111.274317 
L 305.33954 104.912464 
L 305.408227 108.32017 
L 305.442518 106.808683 
L 305.476774 107.329735 
L 305.510996 110.297224 
L 305.545182 109.906702 
L 305.579334 104.652393 
L 305.647533 109.930506 
L 305.817429 117.651328 
L 305.885148 116.709532 
L 305.95273 119.932158 
L 306.188205 104.090151 
L 306.22171 103.929008 
L 306.422042 96.773749 
L 306.455315 97.622161 
L 306.588079 100.049951 
L 306.621188 100.772921 
L 306.786246 95.032559 
L 306.884894 98.502104 
L 306.983253 97.507785 
L 307.015975 96.974604 
L 307.048666 97.076447 
L 307.276615 106.546548 
L 307.34146 106.007105 
L 307.406181 103.3335 
L 307.438494 105.159361 
L 307.631726 131.720369 
L 307.663824 123.363429 
L 307.855769 98.996513 
L 307.951333 97.347651 
L 307.983127 98.359072 
L 308.110004 105.839445 
L 308.141648 100.931317 
L 308.330893 90.767042 
L 308.425117 85.650831 
L 308.487787 86.713489 
L 308.519078 86.749337 
L 308.643952 85.608129 
L 308.675098 86.271728 
L 308.737304 86.517841 
L 308.984983 82.236636 
L 309.046619 80.746126 
L 309.077395 81.860811 
L 309.292039 88.482591 
L 309.32259 88.719708 
L 309.566011 83.769927 
L 309.596315 83.886409 
L 309.626592 83.633122 
L 309.717259 82.792024 
L 309.777568 83.022775 
L 310.047628 91.598269 
L 310.285874 82.297153 
L 310.492963 84.711731 
L 310.522444 84.444002 
L 310.581327 82.357361 
L 310.61073 83.193116 
L 310.669459 86.964045 
L 310.757361 86.282251 
L 311.019695 98.615996 
L 311.077714 94.345242 
L 311.106686 92.641465 
L 311.164556 94.489943 
L 311.45242 118.355734 
L 311.481072 150.792427 
L 311.538301 112.486167 
L 311.595433 116.663924 
L 311.623963 114.475701 
L 311.879647 86.212492 
L 311.907937 86.715008 
L 312.077177 95.921733 
L 312.273554 113.004038 
L 312.357365 108.36467 
L 312.385256 112.088712 
L 312.413123 122.468941 
L 312.468789 110.728362 
L 313.047786 86.563076 
L 313.07511 86.627407 
L 313.102412 86.481318 
L 313.129692 86.318488 
L 313.156949 86.645914 
L 313.184185 86.907522 
L 313.211399 86.232336 
L 313.26576 84.773575 
L 313.292907 86.348405 
L 313.482329 100.423095 
L 313.536254 99.905955 
L 313.590093 106.270367 
L 313.61698 100.330959 
L 313.643846 97.461057 
L 313.724314 99.93324 
L 313.751094 100.298205 
L 313.80459 115.391118 
L 313.831307 132.029202 
L 313.884675 113.206905 
L 313.96457 102.404293 
L 314.097307 91.441436 
L 314.123792 92.93866 
L 314.282264 127.083802 
L 314.334922 110.650808 
L 314.466208 95.789992 
L 314.492404 98.438591 
L 314.596983 111.491814 
L 314.623078 109.563319 
L 314.675205 98.548142 
L 314.753245 99.694872 
L 314.882911 95.141983 
L 314.934638 100.874237 
L 315.063608 117.023946 
L 315.089342 111.482224 
L 315.140752 117.459842 
L 315.166428 112.446047 
L 315.243338 91.832734 
L 315.294513 97.564728 
L 315.422112 109.253979 
L 315.447574 109.028863 
L 315.523844 97.680903 
L 315.574595 99.49997 
L 315.599942 99.845898 
L 315.675867 95.24486 
L 315.726389 97.50766 
L 315.90262 129.524015 
L 315.977866 102.621685 
L 316.052944 107.091372 
L 316.202598 118.455288 
L 316.277176 100.643742 
L 316.301999 107.229287 
L 316.450552 145.174482 
L 316.549223 107.70899 
L 316.573846 112.736322 
L 316.598451 123.067857 
L 316.647606 107.78869 
L 316.69669 102.516813 
L 316.745702 104.033247 
L 316.843512 127.69983 
L 316.941039 117.96154 
L 316.965377 118.485745 
L 316.989697 113.885274 
L 317.013999 114.540714 
L 317.062551 150.118936 
L 317.111033 112.247517 
L 317.135248 111.389071 
L 317.183625 137.016381 
L 317.231933 107.072622 
L 317.256061 104.982843 
L 317.280172 107.780336 
L 317.304265 113.437249 
L 317.3524 105.010974 
L 317.400467 101.87314 
L 317.424474 104.592014 
L 317.472437 120.712093 
L 317.568159 114.989251 
L 317.592047 115.118292 
L 317.75879 96.99625 
L 317.782543 96.693327 
L 317.948345 148.263625 
L 318.019154 129.035884 
L 318.089814 109.107424 
L 318.136838 116.162042 
L 318.160325 133.587571 
L 318.207251 109.489359 
L 318.23069 109.870194 
L 318.254112 111.298632 
L 318.277517 122.222627 
L 318.347637 112.538795 
L 318.41761 101.686343 
L 318.464179 105.836023 
L 318.557122 118.829896 
L 318.603498 112.230784 
L 318.626662 109.996453 
L 318.64981 113.435285 
L 318.696058 128.4325 
L 318.742242 106.387983 
L 318.765311 107.126146 
L 318.8114 134.17672 
L 318.880416 108.932377 
L 318.926349 120.166908 
L 318.949291 154.726351 
L 319.018025 111.470441 
L 319.06377 118.690171 
L 319.109452 112.194347 
L 319.155073 105.720946 
L 319.200631 112.90589 
L 319.223388 131.749458 
L 319.291564 103.145602 
L 319.336938 109.048878 
L 319.359602 108.437892 
L 319.427504 97.007975 
L 319.472695 99.304659 
L 319.540368 122.069051 
L 319.562896 105.836667 
L 319.630388 92.53443 
L 319.675307 101.37323 
L 319.697745 107.370304 
L 319.764967 99.717965 
L 319.787345 99.823075 
L 319.832055 97.802665 
L 319.854388 99.465078 
L 319.921298 108.882239 
L 319.965831 124.9125 
L 320.010305 104.681093 
L 320.05472 117.492064 
L 320.076906 134.318186 
L 320.143375 103.829695 
L 320.165502 102.878422 
L 320.187615 104.936687 
L 320.231797 117.10573 
L 320.253866 143.383997 
L 320.319986 107.380205 
L 320.341998 105.459771 
L 320.363995 108.251864 
L 320.407945 116.582482 
L 320.429899 102.058434 
L 320.451839 98.588016 
L 320.495675 100.769889 
L 320.539454 125.323434 
L 320.626842 113.687085 
L 320.67045 109.063741 
L 320.735758 110.559124 
L 320.800938 117.475341 
L 320.822637 107.168467 
L 320.844322 103.662922 
L 320.88765 106.129184 
L 320.930921 133.876989 
L 321.017299 114.856451 
L 321.038858 116.131283 
L 321.060404 110.798936 
L 321.081936 117.428955 
L 321.103455 128.253896 
L 321.14645 109.669775 
L 321.167927 103.982357 
L 321.18939 110.073341 
L 321.21084 160.227174 
L 321.296502 103.190616 
L 321.339251 162.016126 
L 321.424587 111.062867 
L 321.445887 110.333353 
L 321.594612 95.687709 
L 321.615805 96.44729 
L 321.65815 94.169001 
L 321.679303 93.584096 
L 321.700442 93.793984 
L 321.827001 114.131293 
L 321.848048 134.684335 
L 321.890102 107.969678 
L 321.932104 112.8515 
L 322.01595 91.895377 
L 322.057795 98.858776 
L 322.099587 112.490796 
L 322.141328 97.306448 
L 322.162179 94.431324 
L 322.203843 100.513388 
L 322.224655 102.94696 
L 322.287015 99.153747 
L 322.328524 102.939545 
L 322.390692 94.279388 
L 322.432073 103.022943 
L 322.473403 125.059494 
L 322.535304 97.828105 
L 322.679297 106.676218 
L 322.781773 95.86195 
L 322.802231 96.550476 
L 322.843109 113.817224 
L 322.904333 95.756584 
L 322.924716 96.303878 
L 323.006126 139.542973 
L 323.067055 108.646002 
L 323.08734 108.145466 
L 323.148121 97.632022 
L 323.168357 102.507543 
L 323.188581 111.556924 
L 323.228993 90.639889 
L 323.269356 84.876942 
L 323.32981 92.555945 
L 323.410246 98.990797 
L 323.430325 94.740088 
L 323.450392 91.198186 
L 323.49049 97.524802 
L 323.510521 120.521258 
L 323.570543 96.208325 
L 323.590527 98.090082 
L 323.710179 127.672869 
L 323.73008 114.709018 
L 323.789712 98.917608 
L 323.829407 107.459067 
L 323.849238 112.420476 
L 323.888863 97.559003 
L 323.928442 100.004021 
L 324.125641 129.535162 
L 324.184576 102.372034 
L 324.262996 104.623485 
L 324.302137 111.736923 
L 324.32169 122.543743 
L 324.380283 95.73683 
L 324.419288 102.518338 
L 324.458248 94.730174 
L 324.477711 92.975141 
L 324.516603 99.274917 
L 324.652372 121.100898 
L 324.671723 114.858477 
L 324.710392 103.850172 
L 324.787596 110.614028 
L 324.845383 126.439783 
L 324.883852 120.86272 
L 324.960659 103.130648 
L 325.01815 103.947278 
L 325.056422 111.643225 
L 325.075542 121.868975 
L 325.132837 97.314048 
L 325.151913 96.557289 
L 325.170979 97.724721 
L 325.247134 127.986559 
L 325.266145 140.727047 
L 325.323116 105.606444 
L 325.361043 103.377409 
L 325.398928 108.361244 
L 325.455674 131.721952 
L 325.55004 125.145496 
L 325.681708 97.386293 
L 325.831557 110.171294 
L 325.850241 127.190652 
L 325.924874 101.265848 
L 326.055085 117.767234 
L 326.129266 149.778177 
L 326.147785 125.189218 
L 326.166295 115.43151 
L 326.221762 131.849035 
L 326.258689 124.794565 
L 326.295576 137.130796 
L 326.350831 126.308391 
L 326.497733 110.768149 
L 326.516051 113.745056 
L 326.552657 118.530909 
L 326.589223 109.870727 
L 326.607491 108.569152 
L 326.625749 110.697596 
L 326.662235 136.660022 
L 326.771458 131.12824 
L 326.844076 107.093292 
L 326.898437 123.882518 
L 326.952711 142.888057 
L 327.006897 124.5333 
L 327.097013 114.798926 
L 327.042972 127.459645 
L 327.132992 120.872237 
L 327.168932 150.227235 
L 327.258616 137.68525 
L 327.294422 133.579977 
L 327.365921 136.420258 
L 327.437268 143.752743 
L 327.472885 136.124407 
L 327.57951 123.221814 
L 327.597248 125.478444 
L 327.70348 170.676116 
L 327.738816 138.333954 
L 327.774115 132.444866 
L 327.809377 144.586041 
L 327.826994 160.440081 
L 327.87979 127.48803 
L 327.914941 117.183095 
L 327.9676 131.62169 
L 327.985134 127.628073 
L 328.002659 123.010018 
L 328.037683 136.572629 
L 328.142534 157.005614 
L 328.090149 127.405067 
L 328.177412 154.205586 
L 328.316563 105.707944 
L 328.333917 109.683521 
L 328.368597 132.430248 
L 328.42055 108.419883 
L 328.43785 109.76609 
L 328.472423 128.054128 
L 328.575929 118.665946 
L 328.610361 124.828098 
L 328.644757 114.264898 
L 328.661942 114.44494 
L 328.781991 132.443542 
L 328.83331 126.696666 
L 328.867479 112.94538 
L 328.935713 122.008742 
L 328.95275 135.420151 
L 329.020811 115.344745 
L 329.05479 135.071277 
L 329.088735 141.708431 
L 329.122646 126.589122 
L 329.173447 108.926776 
L 329.257947 117.657939 
L 329.342235 105.066151 
L 329.37589 107.266645 
L 329.510179 153.903357 
L 329.577122 106.429365 
L 329.627242 110.093946 
L 329.660614 139.269986 
L 329.7439 132.471733 
L 329.793772 100.004279 
L 329.843571 115.526433 
L 329.860154 132.246947 
L 329.909854 100.974207 
L 329.926405 101.011322 
L 329.976007 103.713127 
L 329.992525 106.11942 
L 330.058516 102.538946 
L 330.107924 98.973822 
L 330.140823 105.493161 
L 330.15726 110.468849 
L 330.206524 99.970717 
L 330.239326 95.926809 
L 330.288469 103.924206 
L 330.321192 97.562147 
L 330.337541 97.151805 
L 330.353882 98.716035 
L 330.386541 100.995288 
L 330.61427 144.253039 
L 330.630477 124.042148 
L 330.711397 103.406175 
L 330.743711 111.529988 
L 330.759856 121.89931 
L 330.840466 103.013828 
L 330.920883 107.2397 
L 330.936943 105.367794 
L 331.001108 92.436495 
L 331.06515 99.736201 
L 331.160986 116.527492 
L 331.176932 103.19054 
L 331.240641 95.796008 
L 331.27245 101.260371 
L 331.288344 118.560265 
L 331.351842 90.279239 
L 331.367698 92.059578 
L 331.573146 146.836444 
L 331.620379 98.306881 
L 331.683254 117.694311 
L 331.746012 111.899068 
L 331.761683 114.684821 
L 331.793003 136.650105 
L 331.855556 104.516607 
L 331.886789 118.130792 
L 331.902395 152.515329 
L 331.933585 105.81784 
L 331.995877 145.710213 
L 332.135614 108.450804 
L 332.197534 102.439156 
L 332.212996 107.261164 
L 332.243899 128.528278 
L 332.321032 106.917463 
L 332.382611 112.971577 
L 332.397989 116.970837 
L 332.444078 111.795685 
L 332.474769 112.557217 
L 332.505433 104.753246 
L 332.536068 124.261179 
L 332.581969 108.80393 
L 332.597255 117.643736 
L 332.643073 95.792405 
L 332.673583 101.30944 
L 332.688828 102.969322 
L 332.734521 96.058354 
L 332.795348 105.789048 
L 332.82572 116.7064 
L 332.886383 100.520177 
L 332.901532 100.079349 
L 332.916674 100.794707 
L 333.007381 99.448231 
L 333.097845 118.126143 
L 333.112899 116.860218 
L 333.127946 118.860889 
L 333.173046 136.746915 
L 333.218086 117.936731 
L 333.248079 124.650222 
L 333.278045 118.301571 
L 333.337898 125.55497 
L 333.382718 122.316805 
L 333.397645 127.514169 
L 333.412565 178.889136 
L 333.487066 111.131059 
L 333.501946 111.615336 
L 333.620753 149.005306 
L 333.635575 130.140611 
L 333.753911 99.918807 
L 333.768674 102.696036 
L 333.842391 96.052519 
L 333.901248 135.08211 
L 333.945324 93.238949 
L 334.018655 97.613717 
L 334.121051 112.106726 
L 334.135653 108.179146 
L 334.150249 104.21651 
L 334.164839 113.180706 
L 334.179423 130.912596 
L 334.237694 106.476427 
L 334.266791 118.790211 
L 334.382931 98.300727 
L 334.324911 129.832354 
L 334.39742 106.66795 
L 334.42638 136.927541 
L 334.469773 97.495373 
L 334.49867 103.866413 
L 334.570806 101.436051 
L 334.614013 114.489732 
L 334.642787 100.982689 
L 334.685902 129.778048 
L 334.728961 108.367547 
L 334.771966 138.953856 
L 334.800605 103.660111 
L 334.843518 117.81007 
L 334.943436 105.846724 
L 334.90065 130.361595 
L 334.957685 111.935534 
L 334.971929 132.775743 
L 335.057265 98.235552 
L 335.099852 120.95035 
L 335.17071 101.29986 
L 335.199012 101.631276 
L 335.213154 100.81136 
L 335.22729 98.683225 
L 335.283774 106.667435 
L 335.311981 121.99865 
L 335.354246 106.196464 
L 335.396459 118.966709 
L 335.438619 102.830779 
L 335.466696 111.337538 
L 335.480725 148.126108 
L 335.508767 103.003666 
L 335.564781 108.171231 
L 335.592753 107.016345 
L 335.606731 109.724482 
L 335.634668 126.898277 
L 335.662582 106.968798 
L 335.71834 118.598429 
L 335.732265 111.912999 
L 335.760098 133.468046 
L 335.82958 113.881862 
L 335.857333 123.487852 
L 335.91277 107.581228 
L 336.050963 132.840747 
L 336.078533 114.569677 
L 336.174853 104.684322 
L 336.202322 106.913919 
L 336.229769 136.119343 
L 336.311975 108.332033 
L 336.353003 133.041752 
L 336.39398 103.795885 
L 336.407629 102.702087 
L 336.434908 106.467519 
L 336.557394 115.017947 
L 336.638804 111.024255 
L 336.652353 114.691581 
L 336.720018 107.977406 
L 336.787546 139.144447 
L 336.827998 113.130672 
L 336.881858 147.026779 
L 336.908756 116.314015 
L 336.922197 116.066064 
L 337.016133 126.880999 
L 336.975907 110.763639 
L 337.029531 121.478571 
L 337.109807 126.154395 
L 337.149873 113.167349 
L 337.336221 140.123673 
L 337.362758 129.048007 
L 337.481916 110.672557 
L 337.402524 135.722098 
L 337.508338 115.950228 
L 337.521541 130.660212 
L 337.56112 110.772625 
L 337.600653 110.96245 
L 337.679578 105.158006 
L 337.640139 111.235684 
L 337.718972 108.745609 
L 337.771425 112.079487 
L 337.849951 108.534414 
L 337.91525 123.281464 
L 337.954368 114.222295 
L 338.006455 128.288129 
L 338.032469 141.867086 
L 338.071451 124.106434 
L 338.110388 130.622696 
L 338.175184 121.010771 
L 338.201067 123.970395 
L 338.22693 154.229658 
L 338.304401 121.517956 
L 338.407419 130.132555 
L 338.381694 116.328539 
L 338.420274 124.518542 
L 338.433124 117.732989 
L 338.458809 127.611469 
L 338.471645 157.236852 
L 338.510122 121.192873 
L 338.561356 131.596993 
L 338.676348 111.057573 
L 338.701848 125.125503 
L 338.714591 131.759149 
L 338.752791 112.350212 
L 338.790948 115.98611 
L 338.829061 109.295016 
L 338.892487 117.498933 
L 338.930486 113.268194 
L 338.955794 120.235704 
L 338.968441 124.201692 
L 339.018982 115.754577 
L 339.069447 121.580058 
L 339.082052 120.445341 
L 339.107246 126.614042 
L 339.119837 127.559165 
L 339.132422 122.011564 
L 339.157579 117.841591 
L 339.232937 123.970574 
L 339.333153 117.132728 
L 339.283083 130.810657 
L 339.345659 121.505167 
L 339.433071 147.908366 
L 339.395636 117.632739 
L 339.44554 126.049528 
L 339.470464 116.440938 
L 339.507815 144.376556 
L 339.545125 128.181237 
L 339.582393 129.098005 
L 339.607216 152.109169 
L 339.656806 121.696509 
L 339.693951 135.649612 
L 339.743414 118.372497 
L 339.842122 124.868089 
L 339.879063 119.978133 
L 339.952823 121.587936 
L 340.001906 119.117799 
L 340.124303 135.49039 
L 340.148729 140.151948 
L 340.185335 128.824758 
L 340.197528 129.186424 
L 340.2219 145.178333 
L 340.258427 124.27367 
L 340.294913 130.568002 
L 340.392017 123.066614 
L 340.3435 141.853857 
L 340.404136 126.399615 
L 340.428359 144.495378 
L 340.525079 140.890861 
L 340.573335 136.046529 
L 340.597437 143.204405 
L 340.64559 147.745524 
L 340.66964 137.351419 
L 340.76567 130.766209 
L 340.705683 144.125753 
L 340.789634 133.759228 
L 340.861426 140.895572 
L 340.825549 131.294384 
L 340.909202 139.175399 
L 340.944989 129.531949 
L 340.968826 140.456765 
L 341.028345 160.394404 
L 341.064006 133.575779 
L 341.158918 127.324529 
L 341.123357 157.312524 
L 341.170763 131.165198 
L 341.277181 157.242665 
L 341.300784 140.057592 
L 341.418551 169.336607 
L 341.383264 139.529947 
L 341.430305 147.327779 
L 341.535906 136.523472 
L 341.500743 160.744728 
L 341.547619 138.027094 
L 341.606123 156.225326 
L 341.664526 145.114368 
L 341.699519 136.211348 
L 341.734475 141.900386 
L 341.746119 157.069141 
L 341.827515 133.194125 
L 341.839127 131.326035 
L 341.862339 135.669176 
L 341.885535 151.7908 
L 341.955026 125.041077 
L 341.989718 148.202533 
L 342.035919 123.161132 
L 342.070527 129.429215 
L 342.12813 118.876618 
L 342.105101 130.427636 
L 342.151143 128.882813 
L 342.162643 144.637356 
L 342.197122 116.362918 
L 342.254508 129.499179 
L 342.265973 131.05762 
L 342.277435 122.97622 
L 342.300346 115.461813 
L 342.323242 126.043842 
L 342.334684 159.146712 
L 342.368986 123.057927 
L 342.42608 128.68993 
L 342.437487 129.141721 
L 342.471685 172.585966 
L 342.56271 169.744602 
L 342.676146 133.981367 
L 342.73272 143.826511 
L 342.755323 133.520049 
L 342.85685 124.298691 
L 342.834315 134.783411 
L 342.868112 126.211274 
L 342.94684 142.912271 
L 342.913122 123.107878 
L 342.980524 132.29699 
L 343.092561 159.919852 
L 343.181923 155.138594 
L 343.193076 156.659715 
L 343.204226 146.059315 
L 343.271048 135.630242 
L 343.226515 164.565134 
L 343.282172 136.442912 
L 343.293292 179.725896 
L 343.371032 132.199649 
L 343.39321 149.328775 
L 343.525973 126.138668 
L 343.537013 133.267289 
L 343.603177 169.478208 
L 343.592159 131.901517 
L 343.647214 135.053177 
L 343.724141 123.660384 
L 343.680204 142.679378 
L 343.735116 128.328693 
L 343.800892 143.486691 
L 343.844671 128.327104 
L 343.899315 144.062609 
L 343.877468 125.541248 
L 343.942966 127.276084 
L 343.98656 121.71104 
L 344.008336 137.552612 
L 344.019219 130.374026 
L 344.106155 157.850993 
L 344.051846 125.652779 
L 344.127854 138.372721 
L 344.138698 128.451206 
L 344.214509 155.470964 
L 344.225325 162.567464 
L 344.268556 131.422266 
L 344.344075 121.336901 
L 344.376389 127.756877 
L 344.419425 137.95495 
L 344.440923 123.812242 
L 344.483877 132.516459 
L 344.526776 126.91651 
L 344.569621 134.733376 
L 344.580324 133.551042 
L 344.591023 134.592663 
L 344.601719 128.709753 
L 344.6231 129.080965 
L 344.655147 125.809852 
L 344.676494 133.095788 
L 344.697828 127.52259 
L 344.751104 140.451278 
L 344.804295 128.005781 
L 344.83617 119.583124 
L 344.889227 141.80665 
L 344.899829 130.137349 
L 344.995091 155.058561 
L 344.931613 122.199065 
L 345.026785 137.372352 
L 345.142743 111.524643 
L 345.163783 114.719344 
L 345.174298 114.66659 
L 345.310697 150.544013 
L 345.247812 113.46362 
L 345.352555 128.708491 
L 345.373464 123.226305 
L 345.446545 131.929466 
L 345.456972 132.165751 
L 345.498648 124.256548 
L 345.571458 125.296354 
L 345.602614 119.667454 
L 345.633741 130.107883 
L 345.654476 151.675538 
L 345.716605 120.606854 
L 345.73729 127.311141 
L 345.747627 122.153208 
L 345.799266 151.133477 
L 345.809585 155.512397 
L 345.850826 133.818483 
L 345.963981 116.067139 
L 345.974249 117.996778 
L 346.015289 113.955531 
L 346.046037 121.925597 
L 346.08699 138.962544 
L 346.148325 126.492149 
L 346.168746 119.542583 
L 346.229933 134.986778 
L 346.24012 129.667436 
L 346.250304 144.312265 
L 346.341821 118.096654 
L 346.372272 120.430116 
L 346.412829 115.540344 
L 346.443215 113.327926 
L 346.473574 118.305468 
L 346.524111 113.81811 
L 346.645091 141.681328 
L 346.685321 138.193271 
L 346.815738 106.613301 
L 346.745576 148.162827 
L 346.825749 108.063242 
L 346.855764 111.652373 
L 346.915715 125.330874 
L 346.965592 112.680625 
L 347.065126 127.233367 
L 346.995483 109.720181 
L 347.094928 117.393676 
L 347.144541 110.460477 
L 347.19408 120.909348 
L 347.203979 120.10235 
L 347.213875 120.814911 
L 347.29294 147.406842 
L 347.322542 132.540726 
L 347.421025 108.337902 
L 347.342261 142.76227 
L 347.450514 110.314491 
L 347.578002 152.570258 
L 347.66598 111.161617 
L 347.695255 113.862921 
L 347.782927 144.105741 
L 347.850959 142.753248 
L 347.899469 147.587291 
L 347.967266 114.846531 
L 348.034926 137.600538 
L 347.99628 113.579432 
L 348.092813 130.287905 
L 348.16984 108.843122 
L 348.208287 111.988908 
L 348.246691 137.177771 
L 348.323367 128.130573 
L 348.342508 114.89271 
L 348.409418 133.427114 
L 348.418966 127.797459 
L 348.438053 127.613223 
L 348.523813 150.589124 
L 348.571362 118.367569 
L 348.647302 120.928242 
L 348.656782 124.052 
L 348.713609 108.662327 
L 348.723071 110.892642 
L 348.741986 112.721348 
L 348.883514 148.932015 
L 349.015072 117.145844 
L 349.061932 130.347541 
L 349.118079 116.887598 
L 349.127427 116.2957 
L 349.136773 118.623279 
L 349.155457 117.153767 
L 349.192795 128.057661 
L 349.230091 116.539146 
L 349.276653 125.145338 
L 349.351018 119.397482 
L 349.313856 131.166077 
L 349.369583 127.436473 
L 349.406684 147.274702 
L 349.425219 125.364389 
L 349.499256 139.593324 
L 349.573131 120.813263 
L 349.628431 128.355186 
L 349.646844 143.426081 
L 349.729579 129.570269 
L 349.747937 124.441096 
L 349.793787 146.620787 
L 349.80295 145.60211 
L 349.857873 118.41223 
L 349.912707 129.83659 
L 349.949214 144.184195 
L 350.003899 123.508403 
L 350.031208 117.188084 
L 350.08576 129.324854 
L 350.103925 128.231118 
L 350.167423 139.169604 
L 350.221755 136.373737 
L 350.285031 166.240475 
L 350.366212 117.259464 
L 350.429217 128.209755 
L 350.572788 163.289996 
L 350.688989 132.360321 
L 350.697911 134.235736 
L 350.751393 161.118021 
L 350.760298 171.538581 
L 350.831456 138.559351 
L 350.840341 139.161889 
L 350.929054 160.959236 
L 350.955622 145.19609 
L 350.98217 138.850033 
L 351.044032 158.148905 
L 351.052861 162.772119 
L 351.123403 144.05761 
L 351.272816 126.007664 
L 351.299115 132.629317 
L 351.369143 170.573205 
L 351.412837 136.357478 
L 351.430298 131.421248 
L 351.482629 149.679913 
L 351.595733 171.854148 
L 351.517471 148.869112 
L 351.604417 158.691386 
L 351.665147 135.164733 
L 351.734417 141.318329 
L 351.820806 144.619928 
L 351.786277 139.810307 
L 351.838057 140.048603 
L 351.855299 141.729822 
L 351.898366 158.798401 
L 351.992919 151.893145 
L 352.129979 130.293185 
L 352.147072 132.579888 
L 352.20683 162.760867 
L 352.266482 142.079785 
L 352.317528 126.695762 
L 352.376984 141.312417 
L 352.478664 164.507277 
L 352.436335 132.021904 
L 352.487124 154.908844 
L 352.580038 114.365101 
L 352.613761 118.781827 
L 352.714729 138.625183 
L 352.75671 130.351714 
L 352.7651 130.490013 
L 352.798638 146.438512 
L 352.85725 126.254784 
L 352.907408 114.966458 
L 352.965831 123.108382 
L 353.049116 135.001041 
L 353.074062 128.11992 
L 353.115596 118.172521 
L 353.15708 139.515325 
L 353.16537 151.770198 
L 353.223347 113.018377 
L 353.248164 114.420008 
L 353.437818 163.595882 
L 353.305998 112.32313 
L 353.462477 140.583533 
L 353.560932 123.58279 
L 353.5855 127.137412 
L 353.634584 146.450141 
L 353.691758 123.974935 
L 353.756981 110.262275 
L 353.805815 119.68936 
L 353.822077 136.347759 
L 353.870817 115.554648 
L 353.91138 120.208453 
L 353.919486 120.184177 
L 354.016614 157.690001 
L 353.943795 119.275315 
L 354.08121 139.012466 
L 354.161781 115.895378 
L 354.201995 126.633394 
L 354.250187 111.244483 
L 354.306325 126.25962 
L 354.346365 134.216864 
L 354.394352 119.338061 
L 354.442269 129.462043 
L 354.458227 167.915892 
L 354.498087 124.195588 
L 354.545858 127.646534 
L 354.569717 127.151274 
L 354.625324 149.872714 
L 354.649128 160.351269 
L 354.696684 123.712232 
L 354.720437 122.884244 
L 354.728351 124.741217 
L 354.759988 150.134913 
L 354.854721 131.026104 
L 354.870484 135.033446 
L 354.925596 122.025346 
L 354.933462 121.036903 
L 354.957048 127.128791 
L 354.980618 147.002354 
L 355.0669 134.168484 
L 355.168584 125.392437 
L 355.137329 134.279406 
L 355.1842 130.601465 
L 355.316649 116.5471 
L 355.215412 145.816814 
L 355.339968 116.952529 
L 355.386558 142.063885 
L 355.487281 134.000603 
L 355.502751 136.174682 
L 355.533668 128.67382 
L 355.549116 129.678586 
L 355.556837 127.621071 
L 355.603127 143.907914 
L 355.610836 172.923397 
L 355.672444 133.543068 
L 355.703205 134.984529 
L 355.75697 118.694474 
L 355.810649 135.821808 
L 355.871892 130.395056 
L 355.933024 150.774319 
L 355.994044 132.04892 
L 356.047347 148.520876 
L 356.06256 160.570378 
L 356.123347 127.255486 
L 356.138526 130.601124 
L 356.282389 163.258729 
L 356.289944 149.610265 
L 356.388001 129.398183 
L 356.418115 136.717846 
L 356.45572 166.540991 
L 356.50079 131.138742 
L 356.523303 132.387915 
L 356.530803 131.889979 
L 356.538302 135.968909 
L 356.56079 142.67193 
L 356.620683 120.082826 
L 356.628162 122.561197 
L 356.717781 120.242324 
L 356.747602 126.138454 
L 356.92597 165.598822 
L 356.933381 151.152115 
L 357.059128 124.214697 
L 357.184406 116.547388 
L 357.11814 124.529885 
L 357.19176 117.930996 
L 357.257881 131.946299 
L 357.26522 136.466885 
L 357.331196 121.930084 
L 357.34584 122.049476 
L 357.35316 119.529426 
L 357.404352 139.973585 
L 357.411659 168.185387 
L 357.506503 127.430205 
L 357.513788 122.949765 
L 357.564736 140.37445 
L 357.572008 156.201429 
L 357.644642 124.383502 
L 357.673652 138.223574 
L 357.680901 138.565854 
L 357.688147 136.985125 
L 357.709879 160.314524 
L 357.789441 128.700024 
L 357.796665 135.094687 
L 357.825544 149.281765 
L 357.890431 125.944565 
L 357.897633 129.422881 
L 357.991118 122.827929 
L 357.926425 143.333565 
L 357.998299 124.773753 
L 358.105821 146.556551 
L 358.062854 116.834751 
L 358.112977 132.299579 
L 358.213001 116.477818 
L 358.227266 123.561516 
L 358.234396 123.965617 
L 358.262902 163.27144 
L 358.348274 142.269681 
L 358.405068 111.998731 
L 358.461767 135.96472 
L 358.468848 134.963571 
L 358.475927 139.821146 
L 358.483005 149.543304 
L 358.56076 116.660474 
L 358.56782 117.993986 
L 358.638337 133.535893 
L 358.581935 114.189195 
L 358.666502 124.900784 
L 358.680576 115.391726 
L 358.736812 130.006593 
L 358.750857 125.177687 
L 358.757877 154.585719 
L 358.799966 113.560112 
L 358.863001 137.55621 
L 358.932902 117.821097 
L 358.911947 143.606182 
L 358.974773 119.324911 
L 359.03052 155.291028 
L 359.086175 132.316674 
L 359.183349 122.410949 
L 359.134797 141.756624 
L 359.204136 122.779968 
L 359.211062 133.29694 
L 359.280243 118.453212 
L 359.314781 130.046191 
L 359.418181 121.453107 
L 359.369967 143.56383 
L 359.425063 127.72933 
L 359.452578 154.845241 
L 359.514402 127.648779 
L 359.541843 147.56049 
L 359.603504 125.445928 
L 359.569262 150.897548 
L 359.644549 135.685581 
L 359.651385 153.324664 
L 359.746942 118.877313 
L 359.753757 118.164466 
L 359.76057 122.9326 
L 359.774194 122.412743 
L 359.903341 204.888103 
L 360.018474 139.569447 
L 360.031993 149.702282 
L 360.059015 136.649989 
L 360.072518 139.272261 
L 360.079268 134.264767 
L 360.133215 166.186568 
L 360.166887 144.29453 
L 360.20725 143.37386 
L 360.294537 163.272065 
L 360.34814 129.113389 
L 360.415024 146.826991 
L 360.475105 186.90654 
L 360.521761 146.776436 
L 360.548393 142.366167 
L 360.594947 154.448529 
L 360.608237 181.131768 
L 360.674605 129.59746 
L 360.687863 133.600067 
L 360.734225 162.256266 
L 360.787132 133.210497 
L 360.800346 135.68158 
L 360.839956 157.600862 
L 360.905869 136.665601 
L 360.951932 130.128293 
L 360.978225 141.66667 
L 360.991364 141.487538 
L 360.997931 145.391 
L 361.024188 131.288169 
L 361.083192 131.381623 
L 361.20089 160.874807 
L 361.24655 146.379752 
L 361.292149 137.602243 
L 361.305166 157.30916 
L 361.318177 148.338736 
L 361.383161 175.127115 
L 361.357182 137.396333 
L 361.42209 138.318323 
L 361.448018 133.392725 
L 361.460975 152.433961 
L 361.480401 146.261906 
L 361.486873 167.440239 
L 361.564448 124.072096 
L 361.583814 132.912388 
L 361.680476 159.019871 
L 361.603169 129.932393 
L 361.699775 149.862481 
L 361.764026 126.729894 
L 361.719064 152.581938 
L 361.802518 133.368428 
L 361.808929 153.914265 
L 361.866572 122.381372 
L 361.911338 135.893489 
L 362.032546 176.626935 
L 361.930505 124.308427 
L 362.038913 146.633213 
L 362.108873 132.008 
L 362.058008 161.920125 
L 362.146972 147.122403 
L 362.216709 171.354214 
L 362.20404 137.66271 
L 362.261011 155.973869 
L 362.267335 155.476889 
L 362.27998 134.562664 
L 362.305255 156.376519 
L 362.374664 144.969158 
L 362.44393 190.044826 
L 362.487934 169.140838 
L 362.494216 165.678528 
L 362.538154 196.164704 
L 362.607084 244.539175 
L 362.563236 194.326743 
L 362.669626 225.756947 
L 362.719576 236.031596 
L 362.769451 218.587129 
L 362.77568 281.69015 
L 362.819253 209.993644 
L 362.875191 219.2449 
L 362.912432 214.926285 
L 362.906228 242.443197 
L 362.955828 227.571291 
L 362.9806 240.526671 
L 363.017725 213.93773 
L 363.06716 234.361215 
L 363.104189 214.541741 
L 363.153498 243.738899 
L 363.17197 219.400418 
L 363.202734 246.610397 
L 363.233471 218.627097 
L 363.28259 233.606497 
L 363.313253 218.280894 
L 363.319383 244.130005 
L 363.398962 223.838923 
L 363.484453 277.212245 
L 363.478354 212.57937 
L 363.508839 232.577708 
L 363.606207 216.263849 
L 363.587972 257.311556 
L 363.618358 226.826332 
L 363.624432 251.740456 
L 363.691173 216.067902 
L 363.727522 223.597445 
L 363.818221 217.341829 
L 363.739629 267.676669 
L 363.824259 225.384976 
L 363.854433 247.725571 
L 363.8484 220.037727 
L 363.932757 235.654578 
L 363.938775 216.045372 
L 364.034907 254.667336 
L 364.040906 220.587541 
L 364.130766 246.951891 
L 364.076879 219.363617 
L 364.142729 234.225431 
L 364.148709 210.723776 
L 364.244244 246.507521 
L 364.250206 221.529968 
L 364.256167 239.896968 
L 364.297863 214.925239 
L 364.35734 235.328778 
L 364.416712 217.308166 
L 364.392976 242.481803 
L 364.470057 231.095942 
L 364.546962 213.269711 
L 364.505574 251.186549 
L 364.5883 222.969871 
L 364.664936 216.86725 
L 364.712009 259.029631 
L 364.759017 209.700108 
L 364.823546 231.90941 
L 364.835265 249.674925 
L 364.84698 214.900699 
L 364.852836 268.990728 
L 364.905494 211.907944 
L 364.95807 219.940493 
L 364.998906 246.233092 
L 364.993075 212.384281 
L 365.028044 225.074003 
L 365.033868 295.488 
L 365.051336 219.714413 
L 365.132732 227.890989 
L 365.138538 215.99366 
L 365.213931 241.724776 
L 365.248671 216.736694 
L 365.323818 242.164296 
L 365.369978 226.807096 
L 365.421834 214.217371 
L 365.439101 246.84813 
L 365.479357 228.318545 
L 365.525305 216.238625 
L 365.496595 252.621899 
L 365.55399 221.276221 
L 365.559724 267.441128 
L 365.64562 219.791802 
L 365.662773 227.341726 
L 365.714179 254.637385 
L 365.697052 215.366712 
L 365.771204 224.959908 
L 365.776901 224.961239 
L 365.845193 274.548372 
L 365.822445 217.550555 
L 365.867926 230.128736 
L 365.907672 215.145087 
L 365.879287 246.124334 
L 365.970036 225.83363 
L 365.975699 244.958278 
L 366.071836 216.216149 
L 366.083128 241.836932 
L 366.156435 215.505119 
L 366.150801 249.844677 
L 366.195841 224.229896 
L 366.212716 277.41416 
L 366.218339 212.266224 
L 366.308178 241.303046 
L 366.369804 212.249633 
L 366.386591 242.424652 
L 366.420141 230.676852 
L 366.475982 217.425702 
L 366.459239 248.21523 
L 366.48714 222.325124 
L 366.531731 259.889395 
L 366.587388 214.913253 
L 366.598509 241.766986 
L 366.637401 219.974126 
L 366.670701 255.266996 
L 366.70951 223.969379 
L 366.737203 259.115391 
L 366.775936 215.443342 
L 366.820146 239.79062 
L 366.869814 211.557206 
L 366.880842 243.685381 
L 366.935924 225.677492 
L 366.96893 284.816839 
L 366.974428 216.538298 
L 367.051304 237.903641 
L 367.095155 214.286754 
L 367.144418 274.089197 
L 367.160823 215.572334 
L 367.19361 247.166772 
L 367.269987 225.519244 
L 367.297222 219.316931 
L 367.30811 238.724267 
L 367.335315 223.331 
L 367.443914 261.770426 
L 367.400517 213.970538 
L 367.449335 250.90506 
L 367.481841 219.44371 
L 367.56297 230.166805 
L 367.589969 213.665758 
L 367.633123 265.086748 
L 367.676222 225.341617 
L 367.69237 250.580692 
L 367.724642 214.462691 
L 367.77836 235.650613 
L 367.864132 218.239364 
L 367.880189 247.536798 
L 367.89089 224.65685 
L 367.917628 217.85725 
L 367.971039 252.436324 
L 367.997713 218.101113 
L 368.024365 248.949641 
L 368.056321 214.013154 
L 368.114827 239.324482 
L 368.16262 212.683046 
L 368.157313 240.996986 
L 368.226238 224.402015 
L 368.242124 211.587121 
L 368.258002 238.097285 
L 368.268583 225.143519 
L 368.358391 245.414494 
L 368.305592 221.443021 
L 368.379487 225.462562 
L 368.458481 219.306223 
L 368.479515 243.138968 
L 368.484771 213.384979 
L 368.589726 231.619674 
L 368.605441 220.691092 
L 368.647312 240.468028 
L 368.673455 217.161424 
L 368.730898 248.90119 
L 368.756976 235.020616 
L 368.829887 215.642644 
L 368.81948 249.748102 
L 368.871479 230.318402 
L 368.933771 217.22768 
L 368.90264 245.891219 
L 368.964874 227.169566 
L 369.037336 246.578938 
L 369.042506 215.35783 
L 369.078673 236.059617 
L 369.094161 216.113798 
L 369.135428 247.482653 
L 369.181793 234.441256 
L 369.186941 248.033136 
L 369.197234 215.366066 
L 369.284598 236.492526 
L 369.356375 212.777863 
L 369.366616 247.389853 
L 369.397322 230.034146 
L 369.402437 249.009697 
L 369.433109 217.227423 
L 369.50457 228.269612 
L 369.565702 213.165205 
L 369.570791 247.967802 
L 369.61656 221.74029 
L 369.647038 247.230594 
L 369.64196 214.892166 
L 369.738306 244.403186 
L 369.783848 217.361522 
L 369.819227 258.112732 
L 369.844474 223.844528 
L 369.915067 269.513148 
L 369.899952 217.072591 
L 369.955339 228.129519 
L 370.0257 217.743667 
L 369.975457 258.831919 
L 370.06584 219.437188 
L 370.090903 265.467082 
L 370.095914 217.865369 
L 370.180976 238.18833 
L 370.205954 220.052351 
L 370.225923 238.205924 
L 370.29572 225.391399 
L 370.360402 212.088768 
L 370.385247 240.140282 
L 370.400145 226.692003 
L 370.489395 266.909361 
L 370.444799 217.936704 
L 370.509196 221.148655 
L 370.593221 260.060861 
L 370.617894 218.507012 
L 370.622827 227.153479 
L 370.726242 217.991559 
L 370.66226 271.6634 
L 370.731159 227.778507 
L 370.804822 243.968338 
L 370.785194 219.718309 
L 370.839143 223.796761 
L 370.941896 250.435391 
L 370.90768 214.191293 
L 370.951666 237.774991 
L 370.961433 214.587938 
L 371.005348 239.793139 
L 371.063813 228.791143 
L 371.068681 279.796891 
L 371.083279 211.846676 
L 371.170736 240.957296 
L 371.257966 219.478042 
L 371.199838 265.753212 
L 371.282157 226.052473 
L 371.320825 264.080661 
L 371.378745 220.270056 
L 371.393209 235.309714 
L 371.426935 220.211922 
L 371.446192 260.32203 
L 371.503896 225.175001 
L 371.523109 260.978078 
L 371.52791 211.714081 
L 371.61422 236.238549 
L 371.671637 217.337476 
L 371.705085 254.708475 
L 371.719409 224.443823 
L 371.771881 247.024625 
L 371.74804 216.531298 
L 371.833787 243.742602 
L 371.919316 214.706215 
L 371.938293 257.136827 
L 371.947777 220.711472 
L 372.004628 267.656614 
L 372.009361 216.34331 
L 372.056656 219.532252 
L 372.099166 243.523593 
L 372.113323 218.925374 
L 372.174605 234.408318 
L 372.273363 211.999693 
L 372.231073 252.994598 
L 372.282753 222.560852 
L 372.357782 248.646425 
L 372.376513 217.898182 
L 372.395234 230.27522 
L 372.446662 243.181311 
L 372.41862 218.597482 
L 372.484015 224.82105 
L 372.488681 209.130423 
L 372.498012 252.515232 
L 372.591174 224.405355 
L 372.62372 254.727371 
L 372.656235 219.540338 
L 372.693355 227.361885 
L 372.772102 216.545034 
L 372.721169 244.58114 
L 372.799851 229.413542 
L 372.804473 229.485912 
L 372.809095 248.462396 
L 372.822957 217.116804 
L 372.910617 229.388933 
L 372.915225 215.897405 
L 372.975063 249.64201 
L 373.021021 230.859818 
L 373.076086 218.737123 
L 373.089839 249.499523 
L 373.131062 232.804843 
L 373.222489 255.736136 
L 373.149368 213.766989 
L 373.240745 232.85006 
L 373.249869 254.687942 
L 373.263551 219.902504 
L 373.290897 230.560435 
L 373.381891 217.408174 
L 373.363712 246.517443 
L 373.404601 224.547111 
L 373.495289 270.423272 
L 373.427296 220.41171 
L 373.513397 227.326219 
L 373.540541 214.997154 
L 373.554105 251.201857 
L 373.563144 224.44389 
L 373.567663 283.634133 
L 373.581216 219.215078 
L 373.671429 247.483502 
L 373.675933 217.188907 
L 373.783855 233.53581 
L 373.833204 220.242361 
L 373.815268 255.867065 
L 373.860091 224.782433 
L 373.954027 212.816053 
L 373.976354 263.118906 
L 374.020964 215.462557 
L 374.092217 222.255284 
L 374.172196 252.244667 
L 374.114452 218.802306 
L 374.198813 234.931635 
L 374.203248 220.838218 
L 374.212114 254.040438 
L 374.305073 241.356825 
L 374.336002 223.618863 
L 374.388958 245.585887 
L 374.393367 224.768619 
L 374.433024 251.990245 
L 374.42862 215.90845 
L 374.503409 222.131536 
L 374.59995 258.721964 
L 374.569262 220.075343 
L 374.613093 235.989741 
L 374.67436 218.405594 
L 374.656866 248.613623 
L 374.726785 232.22553 
L 374.757329 249.94373 
L 374.76169 216.400078 
L 374.822687 238.95194 
L 374.831392 220.799182 
L 374.840095 247.922204 
L 374.935674 227.496864 
L 375.026657 217.113758 
L 375.030983 241.568957 
L 375.035309 230.603068 
L 375.039634 265.647726 
L 375.091494 219.088196 
L 375.147585 252.848318 
L 375.225095 216.897137 
L 375.237996 253.151232 
L 375.25519 245.639147 
L 375.26808 218.798977 
L 375.345313 259.126336 
L 375.371018 216.857675 
L 375.392424 267.612736 
L 375.456561 238.679165 
L 375.554666 217.045606 
L 375.507782 250.557454 
L 375.558925 230.606919 
L 375.626995 250.59829 
L 375.60999 219.085158 
L 375.669469 235.984504 
L 375.673713 235.815175 
L 375.724604 213.558311 
L 375.750021 246.348795 
L 375.783881 228.711221 
L 375.847275 268.44109 
L 375.809253 215.359178 
L 375.8726 228.812911 
L 375.918978 220.355836 
L 375.927404 261.766812 
L 375.973707 223.434298 
L 376.078704 252.874026 
L 375.982119 214.531988 
L 376.08709 238.649738 
L 376.112235 217.645021 
L 376.1541 254.203979 
L 376.195914 218.217942 
L 376.291888 246.757868 
L 376.304386 229.807579 
L 376.321044 220.419917 
L 376.329369 245.973269 
L 376.379278 234.99133 
L 376.483019 247.788344 
L 376.429114 221.324364 
L 376.487162 239.363335 
L 376.586441 221.423512 
L 376.503729 250.296558 
L 376.594701 226.616664 
L 376.677189 273.223256 
L 376.63597 223.314055 
L 376.706012 243.589663 
L 376.759476 220.468256 
L 376.796439 249.564294 
L 376.808751 222.438951 
L 376.812854 257.675583 
L 376.919358 231.870534 
L 377.013292 222.52163 
L 376.943888 255.54455 
L 377.025525 226.312399 
L 377.131358 265.048111 
L 377.119164 217.740893 
L 377.135422 241.045975 
L 377.139486 216.88032 
L 377.147611 246.734518 
L 377.244961 229.913096 
L 377.25711 224.290426 
L 377.253061 240.131572 
L 377.289486 233.818998 
L 377.325871 218.434264 
L 377.402556 270.940713 
L 377.426736 222.681094 
L 377.475044 276.389583 
L 377.515248 244.641712 
L 377.611541 216.584019 
L 377.603527 254.305926 
L 377.635571 223.006916 
L 377.679582 268.588671 
L 377.671585 221.496955 
L 377.747486 231.207299 
L 377.751476 231.300349 
L 377.815253 225.066365 
L 377.775407 256.792316 
L 377.847096 234.865096 
L 377.851074 268.472834 
L 377.918633 220.19036 
L 377.95831 240.535245 
L 378.033568 250.883128 
L 378.001901 224.522238 
L 378.053344 231.080392 
L 378.116552 220.647351 
L 378.124444 247.63814 
L 378.144167 226.658882 
L 378.148111 267.92985 
L 378.175701 219.087385 
L 378.254405 247.349296 
L 378.27798 217.228534 
L 378.352526 281.250028 
L 378.364282 231.029135 
L 378.38778 257.883953 
L 378.422997 220.241487 
L 378.473801 234.589445 
L 378.536223 213.822438 
L 378.540121 256.88695 
L 378.586856 228.392739 
L 378.60631 289.655109 
L 378.637413 216.407407 
L 378.695654 225.067767 
L 378.715045 214.55907 
L 378.718922 231.665649 
L 378.726674 226.70146 
L 378.827294 252.642148 
L 378.773151 221.405082 
L 378.835021 225.026217 
L 378.846609 263.228464 
L 378.885207 223.488541 
L 378.946871 242.874235 
L 378.950721 219.657047 
L 378.99689 262.659292 
L 379.058349 220.340734 
L 379.146501 273.125521 
L 379.073697 220.021573 
L 379.173285 254.280714 
L 379.184756 216.468774 
L 379.230605 255.127062 
L 379.284016 236.561857 
L 379.356367 220.516885 
L 379.379183 255.872246 
L 379.390585 231.046082 
L 379.485451 251.849172 
L 379.417174 212.35575 
L 379.500604 237.010406 
L 379.530891 213.689883 
L 379.511965 251.204646 
L 379.610265 235.834548 
L 379.617815 232.461804 
L 379.625363 246.427619 
L 379.727094 216.785713 
L 379.636681 246.941954 
L 379.734618 233.470632 
L 379.760937 269.500516 
L 379.802253 217.870004 
L 379.843519 223.268816 
L 379.925899 245.422519 
L 379.858512 218.033337 
L 379.952069 227.995389 
L 380.008078 215.232101 
L 380.034184 253.539163 
L 380.052818 238.298009 
L 380.153267 265.344407 
L 380.10494 207.103878 
L 380.156981 223.534241 
L 380.164409 215.118417 
L 380.216359 257.993995 
L 380.260823 224.911198 
L 380.323713 254.737993 
L 380.334799 219.428718 
L 380.368036 222.678653 
L 380.44546 210.843685 
L 380.427042 236.835664 
L 380.460187 224.912285 
L 380.519032 263.140335 
L 380.555757 214.480731 
L 380.570436 232.299122 
L 380.577773 222.478614 
L 380.581441 270.42466 
L 380.683982 210.571815 
L 380.687638 236.257865 
L 380.72418 209.486423 
L 380.727832 262.641708 
L 380.804433 213.898334 
L 380.873589 243.296252 
L 380.891764 212.202177 
L 380.924455 233.439399 
L 380.975244 210.238853 
L 380.949859 236.034611 
L 381.0549 217.349919 
L 381.065748 213.458716 
L 381.062133 226.999091 
L 381.069363 223.223486 
L 381.174033 269.197728 
L 381.094658 215.211771 
L 381.184842 243.966537 
L 381.192046 215.536878 
L 381.271191 271.019394 
L 381.296335 238.941393 
L 381.38598 212.534391 
L 381.310694 242.824802 
L 381.40746 237.28623 
L 381.411038 237.495143 
L 381.500378 260.967053 
L 381.457525 217.922289 
L 381.518218 244.825352 
L 381.539613 222.50666 
L 381.625057 255.616578 
L 381.628613 230.278704 
L 381.720923 254.753025 
L 381.710285 216.005636 
L 381.738646 234.66129 
L 381.749276 216.117245 
L 381.795297 249.696074 
L 381.844789 229.887543 
L 381.876566 210.014513 
L 381.950597 250.190616 
L 382.020951 211.014629 
L 381.957639 266.984156 
L 382.063093 215.437141 
L 382.12971 258.944936 
L 382.143718 209.635924 
L 382.18221 233.494343 
L 382.269527 209.174073 
L 382.27999 247.369502 
L 382.297421 220.848131 
L 382.360097 205.139357 
L 382.405291 247.743605 
L 382.436543 206.235926 
L 382.492031 252.775834 
L 382.516278 213.568568 
L 382.582004 233.484287 
L 382.568178 205.325196 
L 382.619998 209.788212 
L 382.623449 207.51841 
L 382.671738 245.572468 
L 382.695856 217.864845 
L 382.702743 252.99288 
L 382.761232 214.99429 
L 382.80589 237.209243 
L 382.901875 239.461352 
L 382.918987 210.770854 
L 383.004414 264.430006 
L 382.983931 209.237532 
L 383.031705 247.36642 
L 383.123648 213.365233 
L 383.04875 249.769393 
L 383.140647 219.929965 
L 383.164431 245.455391 
L 383.222123 212.596111 
L 383.252625 241.15949 
L 383.286485 212.771743 
L 383.266173 243.755059 
L 383.370984 218.006963 
L 383.397979 247.605963 
L 383.455272 210.847467 
L 383.482199 239.912445 
L 383.519189 206.649919 
L 383.58634 250.582175 
L 383.596401 215.155024 
L 383.703532 242.951527 
L 383.609811 204.181118 
L 383.706874 216.069554 
L 383.820317 203.372205 
L 383.73694 244.42668 
L 383.823648 205.405328 
L 383.843625 201.295894 
L 383.85361 212.66212 
L 383.873569 205.585965 
L 383.943336 236.351598 
L 383.976507 204.524356 
L 383.983137 207.059171 
L 384.072519 204.292128 
L 384.029513 240.969447 
L 384.082435 213.274155 
L 384.10226 207.624208 
L 384.089045 218.130834 
L 384.105563 209.322153 
L 384.15177 197.34388 
L 384.19462 212.573225 
L 384.214378 208.045875 
L 384.267011 223.515387 
L 384.240705 200.119038 
L 384.290012 210.424445 
L 384.299864 197.372078 
L 384.391684 222.120773 
L 384.479987 265.43406 
L 384.493049 205.784971 
L 384.499579 212.465286 
L 384.603874 237.50974 
L 384.515896 202.654911 
L 384.613636 226.070963 
L 384.655901 211.402519 
L 384.623394 236.95219 
L 384.717579 213.772603 
L 384.766192 209.850695 
L 384.8309 259.532224 
L 384.914835 209.986928 
L 384.89871 265.920841 
L 384.94384 223.522921 
L 384.966383 206.912938 
L 385.037133 238.511018 
L 385.059613 210.444151 
L 385.149384 257.668724 
L 385.174989 238.50915 
L 385.197377 212.236477 
L 385.200574 243.553537 
L 385.286781 230.563477 
L 385.372767 210.23646 
L 385.296346 255.842056 
L 385.395024 226.531639 
L 385.442668 253.06584 
L 385.407736 209.409155 
L 385.493414 221.233105 
L 385.597836 209.423372 
L 385.56939 254.02494 
L 385.600996 217.296899 
L 385.654657 208.250815 
L 385.714531 253.648456 
L 385.808853 209.995692 
L 385.821409 261.669233 
L 385.827685 222.279611 
L 385.859049 212.585603 
L 385.862184 238.501571 
L 385.915431 218.048623 
L 385.92169 261.083072 
L 385.996705 209.877573 
L 386.024792 219.289764 
L 386.118248 201.728806 
L 386.05909 257.42946 
L 386.136908 201.935395 
L 386.167985 258.075097 
L 386.25175 221.228419 
L 386.381638 196.669346 
L 386.298196 250.552726 
L 386.390897 203.48916 
L 386.418657 215.574422 
L 386.440232 197.153743 
L 386.446394 195.89655 
L 386.452555 201.676817 
L 386.458715 197.370634 
L 386.461794 242.868145 
L 386.5018 189.704211 
L 386.569395 203.834938 
L 386.572465 228.281803 
L 386.627664 174.11382 
L 386.676653 197.169684 
L 386.679713 196.501883 
L 386.707236 210.638257 
L 386.743898 224.595509 
L 386.811009 190.54565 
L 386.814056 200.668077 
L 386.862775 185.924933 
L 386.911424 208.836673 
L 386.920538 203.21189 
L 386.981233 244.020345 
L 386.938758 196.877355 
L 387.032738 209.765512 
L 387.105318 199.393981 
L 387.072072 256.596697 
L 387.1506 199.531019 
L 387.183769 186.871244 
L 387.216905 217.981756 
L 387.240983 209.082085 
L 387.295096 232.72312 
L 387.274062 204.022478 
L 387.35512 232.706388 
L 387.373106 254.194843 
L 387.385092 197.140822 
L 387.424015 206.175637 
L 387.435982 184.945601 
L 387.486796 232.302388 
L 387.528585 216.340609 
L 387.531568 236.03732 
L 387.534551 199.038613 
L 387.638779 219.817897 
L 387.707096 235.063587 
L 387.73972 203.831649 
L 387.748612 220.365907 
L 387.795996 203.99941 
L 387.784157 235.496225 
L 387.825578 207.797718 
L 387.914167 274.764262 
L 387.881711 203.887135 
L 387.934804 235.861771 
L 387.970152 184.041071 
L 388.0378 240.876391 
L 388.049551 210.665364 
L 388.055425 207.69173 
L 388.075975 199.738636 
L 388.07304 245.418898 
L 388.149268 202.716654 
L 388.158053 271.357238 
L 388.237009 186.090434 
L 388.257449 210.776645 
L 388.260368 197.755588 
L 388.34782 229.85563 
L 388.368193 202.339025 
L 388.414713 241.584875 
L 388.475673 196.595681 
L 388.481473 214.703464 
L 388.522044 186.333926 
L 388.591482 198.760498 
L 388.649238 245.934362 
L 388.698252 193.949122 
L 388.704013 210.276726 
L 388.752948 180.799193 
L 388.810427 226.817787 
L 388.816169 202.762671 
L 388.833391 225.614886 
L 388.867808 195.613377 
L 388.925091 201.302005 
L 388.967989 241.105266 
L 388.973705 198.597858 
L 389.050771 215.33253 
L 389.084966 197.82799 
L 389.11059 239.550907 
L 389.158937 201.599527 
L 389.161778 245.701249 
L 389.2214 201.42985 
L 389.269588 206.810856 
L 389.329019 249.838876 
L 389.377053 201.194326 
L 389.382699 229.102105 
L 389.422198 194.583002 
L 389.458835 244.675062 
L 389.495431 201.511018 
L 389.582539 246.528476 
L 389.610591 211.683664 
L 389.647023 241.829448 
L 389.649823 202.006035 
L 389.705791 210.37459 
L 389.728151 198.837585 
L 389.783989 243.563783 
L 389.806298 203.652838 
L 389.898166 232.219495 
L 389.887043 201.301721 
L 389.914842 218.432455 
L 389.923177 198.422224 
L 389.937064 249.808011 
L 390.028576 202.296062 
L 390.094974 239.473347 
L 390.139167 200.513152 
L 390.141927 227.155341 
L 390.227378 200.371269 
L 390.213611 232.878553 
L 390.252146 212.09901 
L 390.32634 234.290987 
L 390.329085 201.967443 
L 390.362005 217.505609 
L 390.427749 193.055095 
L 390.444165 242.802776 
L 390.476972 202.471508 
L 390.531581 243.561844 
L 390.496095 200.411408 
L 390.583376 205.88681 
L 390.654126 194.23293 
L 390.629653 246.381619 
L 390.678581 219.82567 
L 390.681298 252.868932 
L 390.722014 196.368629 
L 390.787058 205.718695 
L 390.819533 246.407474 
L 390.800593 196.858527 
L 390.897885 209.736335 
L 390.90598 197.562003 
L 390.911375 231.977885 
L 390.997586 204.054797 
L 391.083577 252.443692 
L 391.088944 193.554708 
L 391.10504 214.30035 
L 391.198782 196.150328 
L 391.20413 236.143991 
L 391.214825 204.022049 
L 391.300263 195.031534 
L 391.329582 248.049799 
L 391.388144 201.478227 
L 391.438638 205.506357 
L 391.465183 265.676548 
L 391.54734 197.098419 
L 391.549987 218.319845 
L 391.658331 195.175997 
L 391.642498 234.722542 
L 391.66097 208.270208 
L 391.68734 200.61019 
L 391.689976 222.616402 
L 391.703152 212.507899 
L 391.705787 240.649222 
L 391.771587 194.900545 
L 391.811005 204.589905 
L 391.824134 197.592921 
L 391.816257 232.588262 
L 391.876599 220.363029 
L 391.887082 225.187719 
L 391.884462 208.203459 
L 391.889703 212.631225 
L 391.913276 242.514974 
L 391.999571 191.606136 
L 392.096063 234.210132 
L 392.111685 214.064161 
L 392.184489 262.471078 
L 392.127299 195.601265 
L 392.205261 202.861766 
L 392.207856 193.441494 
L 392.29081 243.280198 
L 392.314104 200.940016 
L 392.38389 261.176289 
L 392.347723 194.244066 
L 392.432911 215.806983 
L 392.510169 194.742806 
L 392.456107 256.595312 
L 392.541022 217.899215 
L 392.543592 234.10414 
L 392.561575 193.510737 
L 392.648786 217.970515 
L 392.699981 196.370566 
L 392.738326 236.459962 
L 392.758759 205.969247 
L 392.776627 242.126457 
L 392.837819 192.387881 
L 392.868373 206.677604 
L 392.901442 196.250115 
L 392.881096 233.853882 
L 392.962408 207.139949 
L 393.023263 248.347778 
L 392.982705 195.099925 
L 393.071361 197.057565 
L 393.096649 245.183533 
L 393.16483 194.469806 
L 393.187527 220.62843 
L 393.263071 195.345649 
L 393.293242 226.316895 
L 393.298267 196.536793 
L 393.305805 239.414984 
L 393.350993 194.803728 
L 393.411149 222.357742 
L 393.511171 191.09144 
L 393.416157 223.827138 
L 393.521157 213.509903 
L 393.590975 228.264147 
L 393.608406 195.40091 
L 393.628317 204.054258 
L 393.640756 195.324052 
L 393.663133 253.921637 
L 393.730177 214.632467 
L 393.735138 248.009838 
L 393.809463 195.001884 
L 393.839147 204.72003 
L 393.84162 204.184204 
L 393.883625 242.54831 
L 393.863864 195.0331 
L 393.952695 207.552734 
L 393.967477 202.28909 
L 393.977328 216.430129 
L 393.982253 210.275304 
L 394.058491 246.000183 
L 394.029 195.683416 
L 394.090411 225.824663 
L 394.129655 190.084297 
L 394.190882 230.853868 
L 394.203114 204.161529 
L 394.232453 229.592945 
L 394.227565 190.06214 
L 394.310565 197.002732 
L 394.381198 245.036183 
L 394.395793 192.758757 
L 394.424964 214.070698 
L 394.45411 193.146751 
L 394.512326 233.483068 
L 394.536553 206.952037 
L 394.580118 235.253227 
L 394.565603 192.306601 
L 394.64536 193.944095 
L 394.758627 232.881757 
L 394.732152 191.279246 
L 394.761033 224.655435 
L 394.86432 189.989322 
L 394.828326 228.138977 
L 394.871514 208.829113 
L 394.969682 257.834315 
L 394.940979 188.16361 
L 394.981634 213.070086 
L 395.043716 190.745702 
L 395.050872 229.76738 
L 395.089011 195.643137 
L 395.150896 242.843766 
L 395.103303 194.968202 
L 395.200796 211.761785 
L 395.300376 193.657056 
L 395.207919 240.793291 
L 395.312211 210.119287 
L 395.333504 195.017141 
L 395.352419 237.475015 
L 395.420899 205.686087 
L 395.498655 233.319519 
L 395.508068 188.651613 
L 395.529237 201.779326 
L 395.606743 226.857829 
L 395.53629 189.749488 
L 395.630194 220.081005 
L 395.63957 192.001099 
L 395.709807 228.329174 
L 395.740197 219.29875 
L 395.74487 227.186714 
L 395.791565 189.75746 
L 395.845183 211.35448 
L 395.891739 193.120214 
L 395.935907 237.996289 
L 395.956808 199.25594 
L 396.058806 243.298946 
L 396.026386 194.426036 
L 396.06575 210.787359 
L 396.176646 189.909546 
L 396.079632 229.840192 
L 396.178952 198.806879 
L 396.268781 247.026812 
L 396.190482 189.740703 
L 396.289476 199.00616 
L 396.305564 184.242068 
L 396.303266 230.102061 
L 396.392764 206.233194 
L 396.486595 228.804664 
L 396.459159 190.425159 
L 396.500304 200.506001 
L 396.600669 190.434139 
L 396.580164 234.633109 
L 396.605224 208.435882 
L 396.607501 228.35171 
L 396.691651 193.016815 
L 396.716628 213.735955 
L 396.807297 236.090588 
L 396.74839 192.029638 
L 396.825402 209.549427 
L 396.863841 192.208011 
L 396.875139 228.133948 
L 396.929314 215.80011 
L 396.931569 238.947542 
L 396.990156 191.495523 
L 397.037402 211.194847 
L 397.129454 188.687859 
L 397.050889 225.957424 
L 397.149627 192.414818 
L 397.254777 228.138149 
L 397.189936 190.646823 
L 397.263711 209.973199 
L 397.288266 193.257091 
L 397.308344 228.412932 
L 397.375183 195.202303 
L 397.459656 224.204785 
L 397.477413 192.826178 
L 397.486287 211.781253 
L 397.572694 189.697896 
L 397.585968 224.631421 
L 397.594814 196.703694 
L 397.645635 228.963892 
L 397.641219 190.362958 
L 397.7074 221.186464 
L 397.749248 191.318271 
L 397.718418 222.279936 
L 397.819611 206.415503 
L 397.834983 188.852467 
L 397.832787 230.815115 
L 397.922689 202.30211 
L 398.014536 239.173901 
L 397.98832 192.195656 
L 398.034185 210.479485 
L 398.088704 228.772497 
L 398.143136 190.653343 
L 398.221363 229.123286 
L 398.186618 189.799331 
L 398.253903 209.411619 
L 398.299408 193.609023 
L 398.286413 235.375328 
L 398.364308 211.811843 
L 398.381593 238.611491 
L 398.398869 191.156958 
L 398.472196 200.75133 
L 398.47435 195.757387 
L 398.478658 218.516929 
L 398.487273 214.703241 
" style="fill:none;stroke:#1f77b4;stroke-linecap:square;stroke-width:1.5;"/>
   </g>
   <g id="line2d_50">
    <path clip-path="url(#pd2dfec7ae8)" d="M 260.132639 307.584 
L 260.132639 41.472 
" style="fill:none;stroke:#ff0000;stroke-dasharray:5.55,2.4;stroke-dashoffset:0;stroke-width:1.5;"/>
   </g>
   <g id="line2d_51">
    <path clip-path="url(#pd2dfec7ae8)" d="M 321.296968 307.584 
L 321.296968 41.472 
" style="fill:none;stroke:#ff0000;stroke-dasharray:5.55,2.4;stroke-dashoffset:0;stroke-width:1.5;"/>
   </g>
   <g id="line2d_52">
    <path clip-path="url(#pd2dfec7ae8)" d="M 330.969506 307.584 
L 330.969506 41.472 
" style="fill:none;stroke:#ff0000;stroke-dasharray:5.55,2.4;stroke-dashoffset:0;stroke-width:1.5;"/>
   </g>
   <g id="patch_3">
    <path d="M 57.6 307.584 
L 57.6 41.472 
" style="fill:none;stroke:#000000;stroke-linecap:square;stroke-linejoin:miter;stroke-width:0.8;"/>
   </g>
   <g id="patch_4">
    <path d="M 414.72 307.584 
L 414.72 41.472 
" style="fill:none;stroke:#000000;stroke-linecap:square;stroke-linejoin:miter;stroke-width:0.8;"/>
   </g>
   <g id="patch_5">
    <path d="M 57.6 307.584 
L 414.72 307.584 
" style="fill:none;stroke:#000000;stroke-linecap:square;stroke-linejoin:miter;stroke-width:0.8;"/>
   </g>
   <g id="patch_6">
    <path d="M 57.6 41.472 
L 414.72 41.472 
" style="fill:none;stroke:#000000;stroke-linecap:square;stroke-linejoin:miter;stroke-width:0.8;"/>
   </g>
   <g id="text_16">
    <!-- DFT ship -->
    <g transform="translate(210.218437 35.472)scale(0.12 -0.12)">
     <defs>
      <path d="M 1259 4147 
L 1259 519 
L 2022 519 
Q 2988 519 3436 956 
Q 3884 1394 3884 2338 
Q 3884 3275 3436 3711 
Q 2988 4147 2022 4147 
L 1259 4147 
z
M 628 4666 
L 1925 4666 
Q 3281 4666 3915 4102 
Q 4550 3538 4550 2338 
Q 4550 1131 3912 565 
Q 3275 0 1925 0 
L 628 0 
L 628 4666 
z
" id="DejaVuSans-44" transform="scale(0.015625)"/>
      <path d="M -19 4666 
L 3928 4666 
L 3928 4134 
L 2272 4134 
L 2272 0 
L 1638 0 
L 1638 4134 
L -19 4134 
L -19 4666 
z
" id="DejaVuSans-54" transform="scale(0.015625)"/>
      <path d="M 2834 3397 
L 2834 2853 
Q 2591 2978 2328 3040 
Q 2066 3103 1784 3103 
Q 1356 3103 1142 2972 
Q 928 2841 928 2578 
Q 928 2378 1081 2264 
Q 1234 2150 1697 2047 
L 1894 2003 
Q 2506 1872 2764 1633 
Q 3022 1394 3022 966 
Q 3022 478 2636 193 
Q 2250 -91 1575 -91 
Q 1294 -91 989 -36 
Q 684 19 347 128 
L 347 722 
Q 666 556 975 473 
Q 1284 391 1588 391 
Q 1994 391 2212 530 
Q 2431 669 2431 922 
Q 2431 1156 2273 1281 
Q 2116 1406 1581 1522 
L 1381 1569 
Q 847 1681 609 1914 
Q 372 2147 372 2553 
Q 372 3047 722 3315 
Q 1072 3584 1716 3584 
Q 2034 3584 2315 3537 
Q 2597 3491 2834 3397 
z
" id="DejaVuSans-73" transform="scale(0.015625)"/>
      <path d="M 3513 2113 
L 3513 0 
L 2938 0 
L 2938 2094 
Q 2938 2591 2744 2837 
Q 2550 3084 2163 3084 
Q 1697 3084 1428 2787 
Q 1159 2491 1159 1978 
L 1159 0 
L 581 0 
L 581 4863 
L 1159 4863 
L 1159 2956 
Q 1366 3272 1645 3428 
Q 1925 3584 2291 3584 
Q 2894 3584 3203 3211 
Q 3513 2838 3513 2113 
z
" id="DejaVuSans-68" transform="scale(0.015625)"/>
      <path d="M 603 3500 
L 1178 3500 
L 1178 0 
L 603 0 
L 603 3500 
z
M 603 4863 
L 1178 4863 
L 1178 4134 
L 603 4134 
L 603 4863 
z
" id="DejaVuSans-69" transform="scale(0.015625)"/>
      <path d="M 1159 525 
L 1159 -1331 
L 581 -1331 
L 581 3500 
L 1159 3500 
L 1159 2969 
Q 1341 3281 1617 3432 
Q 1894 3584 2278 3584 
Q 2916 3584 3314 3078 
Q 3713 2572 3713 1747 
Q 3713 922 3314 415 
Q 2916 -91 2278 -91 
Q 1894 -91 1617 61 
Q 1341 213 1159 525 
z
M 3116 1747 
Q 3116 2381 2855 2742 
Q 2594 3103 2138 3103 
Q 1681 3103 1420 2742 
Q 1159 2381 1159 1747 
Q 1159 1113 1420 752 
Q 1681 391 2138 391 
Q 2594 391 2855 752 
Q 3116 1113 3116 1747 
z
" id="DejaVuSans-70" transform="scale(0.015625)"/>
     </defs>
     <use xlink:href="#DejaVuSans-44"/>
     <use x="77.001953" xlink:href="#DejaVuSans-46"/>
     <use x="132.771484" xlink:href="#DejaVuSans-54"/>
     <use x="193.855469" xlink:href="#DejaVuSans-20"/>
     <use x="225.642578" xlink:href="#DejaVuSans-73"/>
     <use x="277.742188" xlink:href="#DejaVuSans-68"/>
     <use x="341.121094" xlink:href="#DejaVuSans-69"/>
     <use x="368.904297" xlink:href="#DejaVuSans-70"/>
    </g>
   </g>
  </g>
 </g>
 <defs>
  <clipPath id="pd2dfec7ae8">
   <rect height="266.112" width="357.12" x="57.6" y="41.472"/>
  </clipPath>
 </defs>
</svg>
