<?xml version="1.0" encoding="utf-8" standalone="no"?>
<!DOCTYPE svg PUBLIC "-//W3C//DTD SVG 1.1//EN"
  "http://www.w3.org/Graphics/SVG/1.1/DTD/svg11.dtd">
<svg height="345.6pt" version="1.1" viewBox="0 0 460.8 345.6" width="460.8pt" xmlns="http://www.w3.org/2000/svg" xmlns:xlink="http://www.w3.org/1999/xlink">
 <metadata>
  <rdf:RDF xmlns:cc="http://creativecommons.org/ns#" xmlns:dc="http://purl.org/dc/elements/1.1/" xmlns:rdf="http://www.w3.org/1999/02/22-rdf-syntax-ns#">
   <cc:Work>
    <dc:type rdf:resource="http://purl.org/dc/dcmitype/StillImage"/>
    <dc:date>2021-10-07T14:02:35.702043</dc:date>
    <dc:format>image/svg+xml</dc:format>
    <dc:creator>
     <cc:Agent>
      <dc:title>Matplotlib v3.4.2, https://matplotlib.org/</dc:title>
     </cc:Agent>
    </dc:creator>
   </cc:Work>
  </rdf:RDF>
 </metadata>
 <defs>
  <style type="text/css">*{stroke-linecap:butt;stroke-linejoin:round;}</style>
 </defs>
 <g id="figure_1">
  <g id="patch_1">
   <path d="M 0 345.6 
L 460.8 345.6 
L 460.8 0 
L 0 0 
z
" style="fill:#ffffff;"/>
  </g>
  <g id="axes_1">
   <g id="patch_2">
    <path d="M 57.6 307.584 
L 414.72 307.584 
L 414.72 41.472 
L 57.6 41.472 
z
" style="fill:#ffffff;"/>
   </g>
   <g id="matplotlib.axis_1">
    <g id="xtick_1">
     <g id="line2d_1">
      <defs>
       <path d="M 0 0 
L 0 3.5 
" id="mef81a312cf" style="stroke:#000000;stroke-width:0.8;"/>
      </defs>
      <g>
       <use style="stroke:#000000;stroke-width:0.8;" x="131.225017" xlink:href="#mef81a312cf" y="307.584"/>
      </g>
     </g>
     <g id="text_1">
      <!-- $\mathdefault{10^{1}}$ -->
      <g transform="translate(122.425017 322.182437)scale(0.1 -0.1)">
       <defs>
        <path d="M 794 531 
L 1825 531 
L 1825 4091 
L 703 3866 
L 703 4441 
L 1819 4666 
L 2450 4666 
L 2450 531 
L 3481 531 
L 3481 0 
L 794 0 
L 794 531 
z
" id="DejaVuSans-31" transform="scale(0.015625)"/>
        <path d="M 2034 4250 
Q 1547 4250 1301 3770 
Q 1056 3291 1056 2328 
Q 1056 1369 1301 889 
Q 1547 409 2034 409 
Q 2525 409 2770 889 
Q 3016 1369 3016 2328 
Q 3016 3291 2770 3770 
Q 2525 4250 2034 4250 
z
M 2034 4750 
Q 2819 4750 3233 4129 
Q 3647 3509 3647 2328 
Q 3647 1150 3233 529 
Q 2819 -91 2034 -91 
Q 1250 -91 836 529 
Q 422 1150 422 2328 
Q 422 3509 836 4129 
Q 1250 4750 2034 4750 
z
" id="DejaVuSans-30" transform="scale(0.015625)"/>
       </defs>
       <use transform="translate(0 0.684375)" xlink:href="#DejaVuSans-31"/>
       <use transform="translate(63.623047 0.684375)" xlink:href="#DejaVuSans-30"/>
       <use transform="translate(128.203125 38.965625)scale(0.7)" xlink:href="#DejaVuSans-31"/>
      </g>
     </g>
    </g>
    <g id="xtick_2">
     <g id="line2d_2">
      <g>
       <use style="stroke:#000000;stroke-width:0.8;" x="211.162078" xlink:href="#mef81a312cf" y="307.584"/>
      </g>
     </g>
     <g id="text_2">
      <!-- $\mathdefault{10^{2}}$ -->
      <g transform="translate(202.362078 322.182437)scale(0.1 -0.1)">
       <defs>
        <path d="M 1228 531 
L 3431 531 
L 3431 0 
L 469 0 
L 469 531 
Q 828 903 1448 1529 
Q 2069 2156 2228 2338 
Q 2531 2678 2651 2914 
Q 2772 3150 2772 3378 
Q 2772 3750 2511 3984 
Q 2250 4219 1831 4219 
Q 1534 4219 1204 4116 
Q 875 4013 500 3803 
L 500 4441 
Q 881 4594 1212 4672 
Q 1544 4750 1819 4750 
Q 2544 4750 2975 4387 
Q 3406 4025 3406 3419 
Q 3406 3131 3298 2873 
Q 3191 2616 2906 2266 
Q 2828 2175 2409 1742 
Q 1991 1309 1228 531 
z
" id="DejaVuSans-32" transform="scale(0.015625)"/>
       </defs>
       <use transform="translate(0 0.765625)" xlink:href="#DejaVuSans-31"/>
       <use transform="translate(63.623047 0.765625)" xlink:href="#DejaVuSans-30"/>
       <use transform="translate(128.203125 39.046875)scale(0.7)" xlink:href="#DejaVuSans-32"/>
      </g>
     </g>
    </g>
    <g id="xtick_3">
     <g id="line2d_3">
      <g>
       <use style="stroke:#000000;stroke-width:0.8;" x="291.099139" xlink:href="#mef81a312cf" y="307.584"/>
      </g>
     </g>
     <g id="text_3">
      <!-- $\mathdefault{10^{3}}$ -->
      <g transform="translate(282.299139 322.182437)scale(0.1 -0.1)">
       <defs>
        <path d="M 2597 2516 
Q 3050 2419 3304 2112 
Q 3559 1806 3559 1356 
Q 3559 666 3084 287 
Q 2609 -91 1734 -91 
Q 1441 -91 1130 -33 
Q 819 25 488 141 
L 488 750 
Q 750 597 1062 519 
Q 1375 441 1716 441 
Q 2309 441 2620 675 
Q 2931 909 2931 1356 
Q 2931 1769 2642 2001 
Q 2353 2234 1838 2234 
L 1294 2234 
L 1294 2753 
L 1863 2753 
Q 2328 2753 2575 2939 
Q 2822 3125 2822 3475 
Q 2822 3834 2567 4026 
Q 2313 4219 1838 4219 
Q 1578 4219 1281 4162 
Q 984 4106 628 3988 
L 628 4550 
Q 988 4650 1302 4700 
Q 1616 4750 1894 4750 
Q 2613 4750 3031 4423 
Q 3450 4097 3450 3541 
Q 3450 3153 3228 2886 
Q 3006 2619 2597 2516 
z
" id="DejaVuSans-33" transform="scale(0.015625)"/>
       </defs>
       <use transform="translate(0 0.765625)" xlink:href="#DejaVuSans-31"/>
       <use transform="translate(63.623047 0.765625)" xlink:href="#DejaVuSans-30"/>
       <use transform="translate(128.203125 39.046875)scale(0.7)" xlink:href="#DejaVuSans-33"/>
      </g>
     </g>
    </g>
    <g id="xtick_4">
     <g id="line2d_4">
      <g>
       <use style="stroke:#000000;stroke-width:0.8;" x="371.036199" xlink:href="#mef81a312cf" y="307.584"/>
      </g>
     </g>
     <g id="text_4">
      <!-- $\mathdefault{10^{4}}$ -->
      <g transform="translate(362.236199 322.182437)scale(0.1 -0.1)">
       <defs>
        <path d="M 2419 4116 
L 825 1625 
L 2419 1625 
L 2419 4116 
z
M 2253 4666 
L 3047 4666 
L 3047 1625 
L 3713 1625 
L 3713 1100 
L 3047 1100 
L 3047 0 
L 2419 0 
L 2419 1100 
L 313 1100 
L 313 1709 
L 2253 4666 
z
" id="DejaVuSans-34" transform="scale(0.015625)"/>
       </defs>
       <use transform="translate(0 0.684375)" xlink:href="#DejaVuSans-31"/>
       <use transform="translate(63.623047 0.684375)" xlink:href="#DejaVuSans-30"/>
       <use transform="translate(128.203125 38.965625)scale(0.7)" xlink:href="#DejaVuSans-34"/>
      </g>
     </g>
    </g>
    <g id="xtick_5">
     <g id="line2d_5">
      <defs>
       <path d="M 0 0 
L 0 2 
" id="m370c5ef6b0" style="stroke:#000000;stroke-width:0.6;"/>
      </defs>
      <g>
       <use style="stroke:#000000;stroke-width:0.6;" x="75.35141" xlink:href="#m370c5ef6b0" y="307.584"/>
      </g>
     </g>
    </g>
    <g id="xtick_6">
     <g id="line2d_6">
      <g>
       <use style="stroke:#000000;stroke-width:0.6;" x="89.427627" xlink:href="#m370c5ef6b0" y="307.584"/>
      </g>
     </g>
    </g>
    <g id="xtick_7">
     <g id="line2d_7">
      <g>
       <use style="stroke:#000000;stroke-width:0.6;" x="99.414863" xlink:href="#m370c5ef6b0" y="307.584"/>
      </g>
     </g>
    </g>
    <g id="xtick_8">
     <g id="line2d_8">
      <g>
       <use style="stroke:#000000;stroke-width:0.6;" x="107.161564" xlink:href="#m370c5ef6b0" y="307.584"/>
      </g>
     </g>
    </g>
    <g id="xtick_9">
     <g id="line2d_9">
      <g>
       <use style="stroke:#000000;stroke-width:0.6;" x="113.49108" xlink:href="#m370c5ef6b0" y="307.584"/>
      </g>
     </g>
    </g>
    <g id="xtick_10">
     <g id="line2d_10">
      <g>
       <use style="stroke:#000000;stroke-width:0.6;" x="118.84261" xlink:href="#m370c5ef6b0" y="307.584"/>
      </g>
     </g>
    </g>
    <g id="xtick_11">
     <g id="line2d_11">
      <g>
       <use style="stroke:#000000;stroke-width:0.6;" x="123.478316" xlink:href="#m370c5ef6b0" y="307.584"/>
      </g>
     </g>
    </g>
    <g id="xtick_12">
     <g id="line2d_12">
      <g>
       <use style="stroke:#000000;stroke-width:0.6;" x="127.567298" xlink:href="#m370c5ef6b0" y="307.584"/>
      </g>
     </g>
    </g>
    <g id="xtick_13">
     <g id="line2d_13">
      <g>
       <use style="stroke:#000000;stroke-width:0.6;" x="155.28847" xlink:href="#m370c5ef6b0" y="307.584"/>
      </g>
     </g>
    </g>
    <g id="xtick_14">
     <g id="line2d_14">
      <g>
       <use style="stroke:#000000;stroke-width:0.6;" x="169.364688" xlink:href="#m370c5ef6b0" y="307.584"/>
      </g>
     </g>
    </g>
    <g id="xtick_15">
     <g id="line2d_15">
      <g>
       <use style="stroke:#000000;stroke-width:0.6;" x="179.351923" xlink:href="#m370c5ef6b0" y="307.584"/>
      </g>
     </g>
    </g>
    <g id="xtick_16">
     <g id="line2d_16">
      <g>
       <use style="stroke:#000000;stroke-width:0.6;" x="187.098625" xlink:href="#m370c5ef6b0" y="307.584"/>
      </g>
     </g>
    </g>
    <g id="xtick_17">
     <g id="line2d_17">
      <g>
       <use style="stroke:#000000;stroke-width:0.6;" x="193.428141" xlink:href="#m370c5ef6b0" y="307.584"/>
      </g>
     </g>
    </g>
    <g id="xtick_18">
     <g id="line2d_18">
      <g>
       <use style="stroke:#000000;stroke-width:0.6;" x="198.77967" xlink:href="#m370c5ef6b0" y="307.584"/>
      </g>
     </g>
    </g>
    <g id="xtick_19">
     <g id="line2d_19">
      <g>
       <use style="stroke:#000000;stroke-width:0.6;" x="203.415376" xlink:href="#m370c5ef6b0" y="307.584"/>
      </g>
     </g>
    </g>
    <g id="xtick_20">
     <g id="line2d_20">
      <g>
       <use style="stroke:#000000;stroke-width:0.6;" x="207.504359" xlink:href="#m370c5ef6b0" y="307.584"/>
      </g>
     </g>
    </g>
    <g id="xtick_21">
     <g id="line2d_21">
      <g>
       <use style="stroke:#000000;stroke-width:0.6;" x="235.225531" xlink:href="#m370c5ef6b0" y="307.584"/>
      </g>
     </g>
    </g>
    <g id="xtick_22">
     <g id="line2d_22">
      <g>
       <use style="stroke:#000000;stroke-width:0.6;" x="249.301749" xlink:href="#m370c5ef6b0" y="307.584"/>
      </g>
     </g>
    </g>
    <g id="xtick_23">
     <g id="line2d_23">
      <g>
       <use style="stroke:#000000;stroke-width:0.6;" x="259.288984" xlink:href="#m370c5ef6b0" y="307.584"/>
      </g>
     </g>
    </g>
    <g id="xtick_24">
     <g id="line2d_24">
      <g>
       <use style="stroke:#000000;stroke-width:0.6;" x="267.035685" xlink:href="#m370c5ef6b0" y="307.584"/>
      </g>
     </g>
    </g>
    <g id="xtick_25">
     <g id="line2d_25">
      <g>
       <use style="stroke:#000000;stroke-width:0.6;" x="273.365202" xlink:href="#m370c5ef6b0" y="307.584"/>
      </g>
     </g>
    </g>
    <g id="xtick_26">
     <g id="line2d_26">
      <g>
       <use style="stroke:#000000;stroke-width:0.6;" x="278.716731" xlink:href="#m370c5ef6b0" y="307.584"/>
      </g>
     </g>
    </g>
    <g id="xtick_27">
     <g id="line2d_27">
      <g>
       <use style="stroke:#000000;stroke-width:0.6;" x="283.352437" xlink:href="#m370c5ef6b0" y="307.584"/>
      </g>
     </g>
    </g>
    <g id="xtick_28">
     <g id="line2d_28">
      <g>
       <use style="stroke:#000000;stroke-width:0.6;" x="287.441419" xlink:href="#m370c5ef6b0" y="307.584"/>
      </g>
     </g>
    </g>
    <g id="xtick_29">
     <g id="line2d_29">
      <g>
       <use style="stroke:#000000;stroke-width:0.6;" x="315.162592" xlink:href="#m370c5ef6b0" y="307.584"/>
      </g>
     </g>
    </g>
    <g id="xtick_30">
     <g id="line2d_30">
      <g>
       <use style="stroke:#000000;stroke-width:0.6;" x="329.238809" xlink:href="#m370c5ef6b0" y="307.584"/>
      </g>
     </g>
    </g>
    <g id="xtick_31">
     <g id="line2d_31">
      <g>
       <use style="stroke:#000000;stroke-width:0.6;" x="339.226045" xlink:href="#m370c5ef6b0" y="307.584"/>
      </g>
     </g>
    </g>
    <g id="xtick_32">
     <g id="line2d_32">
      <g>
       <use style="stroke:#000000;stroke-width:0.6;" x="346.972746" xlink:href="#m370c5ef6b0" y="307.584"/>
      </g>
     </g>
    </g>
    <g id="xtick_33">
     <g id="line2d_33">
      <g>
       <use style="stroke:#000000;stroke-width:0.6;" x="353.302262" xlink:href="#m370c5ef6b0" y="307.584"/>
      </g>
     </g>
    </g>
    <g id="xtick_34">
     <g id="line2d_34">
      <g>
       <use style="stroke:#000000;stroke-width:0.6;" x="358.653792" xlink:href="#m370c5ef6b0" y="307.584"/>
      </g>
     </g>
    </g>
    <g id="xtick_35">
     <g id="line2d_35">
      <g>
       <use style="stroke:#000000;stroke-width:0.6;" x="363.289498" xlink:href="#m370c5ef6b0" y="307.584"/>
      </g>
     </g>
    </g>
    <g id="xtick_36">
     <g id="line2d_36">
      <g>
       <use style="stroke:#000000;stroke-width:0.6;" x="367.37848" xlink:href="#m370c5ef6b0" y="307.584"/>
      </g>
     </g>
    </g>
    <g id="xtick_37">
     <g id="line2d_37">
      <g>
       <use style="stroke:#000000;stroke-width:0.6;" x="395.099652" xlink:href="#m370c5ef6b0" y="307.584"/>
      </g>
     </g>
    </g>
    <g id="xtick_38">
     <g id="line2d_38">
      <g>
       <use style="stroke:#000000;stroke-width:0.6;" x="409.17587" xlink:href="#m370c5ef6b0" y="307.584"/>
      </g>
     </g>
    </g>
    <g id="text_5">
     <!-- Frequency (Hz) -->
     <g transform="translate(198.455312 335.860562)scale(0.1 -0.1)">
      <defs>
       <path d="M 628 4666 
L 3309 4666 
L 3309 4134 
L 1259 4134 
L 1259 2759 
L 3109 2759 
L 3109 2228 
L 1259 2228 
L 1259 0 
L 628 0 
L 628 4666 
z
" id="DejaVuSans-46" transform="scale(0.015625)"/>
       <path d="M 2631 2963 
Q 2534 3019 2420 3045 
Q 2306 3072 2169 3072 
Q 1681 3072 1420 2755 
Q 1159 2438 1159 1844 
L 1159 0 
L 581 0 
L 581 3500 
L 1159 3500 
L 1159 2956 
Q 1341 3275 1631 3429 
Q 1922 3584 2338 3584 
Q 2397 3584 2469 3576 
Q 2541 3569 2628 3553 
L 2631 2963 
z
" id="DejaVuSans-72" transform="scale(0.015625)"/>
       <path d="M 3597 1894 
L 3597 1613 
L 953 1613 
Q 991 1019 1311 708 
Q 1631 397 2203 397 
Q 2534 397 2845 478 
Q 3156 559 3463 722 
L 3463 178 
Q 3153 47 2828 -22 
Q 2503 -91 2169 -91 
Q 1331 -91 842 396 
Q 353 884 353 1716 
Q 353 2575 817 3079 
Q 1281 3584 2069 3584 
Q 2775 3584 3186 3129 
Q 3597 2675 3597 1894 
z
M 3022 2063 
Q 3016 2534 2758 2815 
Q 2500 3097 2075 3097 
Q 1594 3097 1305 2825 
Q 1016 2553 972 2059 
L 3022 2063 
z
" id="DejaVuSans-65" transform="scale(0.015625)"/>
       <path d="M 947 1747 
Q 947 1113 1208 752 
Q 1469 391 1925 391 
Q 2381 391 2643 752 
Q 2906 1113 2906 1747 
Q 2906 2381 2643 2742 
Q 2381 3103 1925 3103 
Q 1469 3103 1208 2742 
Q 947 2381 947 1747 
z
M 2906 525 
Q 2725 213 2448 61 
Q 2172 -91 1784 -91 
Q 1150 -91 751 415 
Q 353 922 353 1747 
Q 353 2572 751 3078 
Q 1150 3584 1784 3584 
Q 2172 3584 2448 3432 
Q 2725 3281 2906 2969 
L 2906 3500 
L 3481 3500 
L 3481 -1331 
L 2906 -1331 
L 2906 525 
z
" id="DejaVuSans-71" transform="scale(0.015625)"/>
       <path d="M 544 1381 
L 544 3500 
L 1119 3500 
L 1119 1403 
Q 1119 906 1312 657 
Q 1506 409 1894 409 
Q 2359 409 2629 706 
Q 2900 1003 2900 1516 
L 2900 3500 
L 3475 3500 
L 3475 0 
L 2900 0 
L 2900 538 
Q 2691 219 2414 64 
Q 2138 -91 1772 -91 
Q 1169 -91 856 284 
Q 544 659 544 1381 
z
M 1991 3584 
L 1991 3584 
z
" id="DejaVuSans-75" transform="scale(0.015625)"/>
       <path d="M 3513 2113 
L 3513 0 
L 2938 0 
L 2938 2094 
Q 2938 2591 2744 2837 
Q 2550 3084 2163 3084 
Q 1697 3084 1428 2787 
Q 1159 2491 1159 1978 
L 1159 0 
L 581 0 
L 581 3500 
L 1159 3500 
L 1159 2956 
Q 1366 3272 1645 3428 
Q 1925 3584 2291 3584 
Q 2894 3584 3203 3211 
Q 3513 2838 3513 2113 
z
" id="DejaVuSans-6e" transform="scale(0.015625)"/>
       <path d="M 3122 3366 
L 3122 2828 
Q 2878 2963 2633 3030 
Q 2388 3097 2138 3097 
Q 1578 3097 1268 2742 
Q 959 2388 959 1747 
Q 959 1106 1268 751 
Q 1578 397 2138 397 
Q 2388 397 2633 464 
Q 2878 531 3122 666 
L 3122 134 
Q 2881 22 2623 -34 
Q 2366 -91 2075 -91 
Q 1284 -91 818 406 
Q 353 903 353 1747 
Q 353 2603 823 3093 
Q 1294 3584 2113 3584 
Q 2378 3584 2631 3529 
Q 2884 3475 3122 3366 
z
" id="DejaVuSans-63" transform="scale(0.015625)"/>
       <path d="M 2059 -325 
Q 1816 -950 1584 -1140 
Q 1353 -1331 966 -1331 
L 506 -1331 
L 506 -850 
L 844 -850 
Q 1081 -850 1212 -737 
Q 1344 -625 1503 -206 
L 1606 56 
L 191 3500 
L 800 3500 
L 1894 763 
L 2988 3500 
L 3597 3500 
L 2059 -325 
z
" id="DejaVuSans-79" transform="scale(0.015625)"/>
       <path id="DejaVuSans-20" transform="scale(0.015625)"/>
       <path d="M 1984 4856 
Q 1566 4138 1362 3434 
Q 1159 2731 1159 2009 
Q 1159 1288 1364 580 
Q 1569 -128 1984 -844 
L 1484 -844 
Q 1016 -109 783 600 
Q 550 1309 550 2009 
Q 550 2706 781 3412 
Q 1013 4119 1484 4856 
L 1984 4856 
z
" id="DejaVuSans-28" transform="scale(0.015625)"/>
       <path d="M 628 4666 
L 1259 4666 
L 1259 2753 
L 3553 2753 
L 3553 4666 
L 4184 4666 
L 4184 0 
L 3553 0 
L 3553 2222 
L 1259 2222 
L 1259 0 
L 628 0 
L 628 4666 
z
" id="DejaVuSans-48" transform="scale(0.015625)"/>
       <path d="M 353 3500 
L 3084 3500 
L 3084 2975 
L 922 459 
L 3084 459 
L 3084 0 
L 275 0 
L 275 525 
L 2438 3041 
L 353 3041 
L 353 3500 
z
" id="DejaVuSans-7a" transform="scale(0.015625)"/>
       <path d="M 513 4856 
L 1013 4856 
Q 1481 4119 1714 3412 
Q 1947 2706 1947 2009 
Q 1947 1309 1714 600 
Q 1481 -109 1013 -844 
L 513 -844 
Q 928 -128 1133 580 
Q 1338 1288 1338 2009 
Q 1338 2731 1133 3434 
Q 928 4138 513 4856 
z
" id="DejaVuSans-29" transform="scale(0.015625)"/>
      </defs>
      <use xlink:href="#DejaVuSans-46"/>
      <use x="50.269531" xlink:href="#DejaVuSans-72"/>
      <use x="89.132812" xlink:href="#DejaVuSans-65"/>
      <use x="150.65625" xlink:href="#DejaVuSans-71"/>
      <use x="214.132812" xlink:href="#DejaVuSans-75"/>
      <use x="277.511719" xlink:href="#DejaVuSans-65"/>
      <use x="339.035156" xlink:href="#DejaVuSans-6e"/>
      <use x="402.414062" xlink:href="#DejaVuSans-63"/>
      <use x="457.394531" xlink:href="#DejaVuSans-79"/>
      <use x="516.574219" xlink:href="#DejaVuSans-20"/>
      <use x="548.361328" xlink:href="#DejaVuSans-28"/>
      <use x="587.375" xlink:href="#DejaVuSans-48"/>
      <use x="662.570312" xlink:href="#DejaVuSans-7a"/>
      <use x="715.060547" xlink:href="#DejaVuSans-29"/>
     </g>
    </g>
   </g>
   <g id="matplotlib.axis_2">
    <g id="ytick_1">
     <g id="line2d_39">
      <defs>
       <path d="M 0 0 
L -3.5 0 
" id="m70f8e6072c" style="stroke:#000000;stroke-width:0.8;"/>
      </defs>
      <g>
       <use style="stroke:#000000;stroke-width:0.8;" x="57.6" xlink:href="#m70f8e6072c" y="305.823791"/>
      </g>
     </g>
     <g id="text_6">
      <!-- −140 -->
      <g transform="translate(23.132812 309.62301)scale(0.1 -0.1)">
       <defs>
        <path d="M 678 2272 
L 4684 2272 
L 4684 1741 
L 678 1741 
L 678 2272 
z
" id="DejaVuSans-2212" transform="scale(0.015625)"/>
       </defs>
       <use xlink:href="#DejaVuSans-2212"/>
       <use x="83.789062" xlink:href="#DejaVuSans-31"/>
       <use x="147.412109" xlink:href="#DejaVuSans-34"/>
       <use x="211.035156" xlink:href="#DejaVuSans-30"/>
      </g>
     </g>
    </g>
    <g id="ytick_2">
     <g id="line2d_40">
      <g>
       <use style="stroke:#000000;stroke-width:0.8;" x="57.6" xlink:href="#m70f8e6072c" y="269.78725"/>
      </g>
     </g>
     <g id="text_7">
      <!-- −120 -->
      <g transform="translate(23.132812 273.586468)scale(0.1 -0.1)">
       <use xlink:href="#DejaVuSans-2212"/>
       <use x="83.789062" xlink:href="#DejaVuSans-31"/>
       <use x="147.412109" xlink:href="#DejaVuSans-32"/>
       <use x="211.035156" xlink:href="#DejaVuSans-30"/>
      </g>
     </g>
    </g>
    <g id="ytick_3">
     <g id="line2d_41">
      <g>
       <use style="stroke:#000000;stroke-width:0.8;" x="57.6" xlink:href="#m70f8e6072c" y="233.750708"/>
      </g>
     </g>
     <g id="text_8">
      <!-- −100 -->
      <g transform="translate(23.132812 237.549927)scale(0.1 -0.1)">
       <use xlink:href="#DejaVuSans-2212"/>
       <use x="83.789062" xlink:href="#DejaVuSans-31"/>
       <use x="147.412109" xlink:href="#DejaVuSans-30"/>
       <use x="211.035156" xlink:href="#DejaVuSans-30"/>
      </g>
     </g>
    </g>
    <g id="ytick_4">
     <g id="line2d_42">
      <g>
       <use style="stroke:#000000;stroke-width:0.8;" x="57.6" xlink:href="#m70f8e6072c" y="197.714166"/>
      </g>
     </g>
     <g id="text_9">
      <!-- −80 -->
      <g transform="translate(29.495313 201.513385)scale(0.1 -0.1)">
       <defs>
        <path d="M 2034 2216 
Q 1584 2216 1326 1975 
Q 1069 1734 1069 1313 
Q 1069 891 1326 650 
Q 1584 409 2034 409 
Q 2484 409 2743 651 
Q 3003 894 3003 1313 
Q 3003 1734 2745 1975 
Q 2488 2216 2034 2216 
z
M 1403 2484 
Q 997 2584 770 2862 
Q 544 3141 544 3541 
Q 544 4100 942 4425 
Q 1341 4750 2034 4750 
Q 2731 4750 3128 4425 
Q 3525 4100 3525 3541 
Q 3525 3141 3298 2862 
Q 3072 2584 2669 2484 
Q 3125 2378 3379 2068 
Q 3634 1759 3634 1313 
Q 3634 634 3220 271 
Q 2806 -91 2034 -91 
Q 1263 -91 848 271 
Q 434 634 434 1313 
Q 434 1759 690 2068 
Q 947 2378 1403 2484 
z
M 1172 3481 
Q 1172 3119 1398 2916 
Q 1625 2713 2034 2713 
Q 2441 2713 2670 2916 
Q 2900 3119 2900 3481 
Q 2900 3844 2670 4047 
Q 2441 4250 2034 4250 
Q 1625 4250 1398 4047 
Q 1172 3844 1172 3481 
z
" id="DejaVuSans-38" transform="scale(0.015625)"/>
       </defs>
       <use xlink:href="#DejaVuSans-2212"/>
       <use x="83.789062" xlink:href="#DejaVuSans-38"/>
       <use x="147.412109" xlink:href="#DejaVuSans-30"/>
      </g>
     </g>
    </g>
    <g id="ytick_5">
     <g id="line2d_43">
      <g>
       <use style="stroke:#000000;stroke-width:0.8;" x="57.6" xlink:href="#m70f8e6072c" y="161.677625"/>
      </g>
     </g>
     <g id="text_10">
      <!-- −60 -->
      <g transform="translate(29.495313 165.476844)scale(0.1 -0.1)">
       <defs>
        <path d="M 2113 2584 
Q 1688 2584 1439 2293 
Q 1191 2003 1191 1497 
Q 1191 994 1439 701 
Q 1688 409 2113 409 
Q 2538 409 2786 701 
Q 3034 994 3034 1497 
Q 3034 2003 2786 2293 
Q 2538 2584 2113 2584 
z
M 3366 4563 
L 3366 3988 
Q 3128 4100 2886 4159 
Q 2644 4219 2406 4219 
Q 1781 4219 1451 3797 
Q 1122 3375 1075 2522 
Q 1259 2794 1537 2939 
Q 1816 3084 2150 3084 
Q 2853 3084 3261 2657 
Q 3669 2231 3669 1497 
Q 3669 778 3244 343 
Q 2819 -91 2113 -91 
Q 1303 -91 875 529 
Q 447 1150 447 2328 
Q 447 3434 972 4092 
Q 1497 4750 2381 4750 
Q 2619 4750 2861 4703 
Q 3103 4656 3366 4563 
z
" id="DejaVuSans-36" transform="scale(0.015625)"/>
       </defs>
       <use xlink:href="#DejaVuSans-2212"/>
       <use x="83.789062" xlink:href="#DejaVuSans-36"/>
       <use x="147.412109" xlink:href="#DejaVuSans-30"/>
      </g>
     </g>
    </g>
    <g id="ytick_6">
     <g id="line2d_44">
      <g>
       <use style="stroke:#000000;stroke-width:0.8;" x="57.6" xlink:href="#m70f8e6072c" y="125.641083"/>
      </g>
     </g>
     <g id="text_11">
      <!-- −40 -->
      <g transform="translate(29.495313 129.440302)scale(0.1 -0.1)">
       <use xlink:href="#DejaVuSans-2212"/>
       <use x="83.789062" xlink:href="#DejaVuSans-34"/>
       <use x="147.412109" xlink:href="#DejaVuSans-30"/>
      </g>
     </g>
    </g>
    <g id="ytick_7">
     <g id="line2d_45">
      <g>
       <use style="stroke:#000000;stroke-width:0.8;" x="57.6" xlink:href="#m70f8e6072c" y="89.604542"/>
      </g>
     </g>
     <g id="text_12">
      <!-- −20 -->
      <g transform="translate(29.495313 93.40376)scale(0.1 -0.1)">
       <use xlink:href="#DejaVuSans-2212"/>
       <use x="83.789062" xlink:href="#DejaVuSans-32"/>
       <use x="147.412109" xlink:href="#DejaVuSans-30"/>
      </g>
     </g>
    </g>
    <g id="ytick_8">
     <g id="line2d_46">
      <g>
       <use style="stroke:#000000;stroke-width:0.8;" x="57.6" xlink:href="#m70f8e6072c" y="53.568"/>
      </g>
     </g>
     <g id="text_13">
      <!-- 0 -->
      <g transform="translate(44.2375 57.367219)scale(0.1 -0.1)">
       <use xlink:href="#DejaVuSans-30"/>
      </g>
     </g>
    </g>
    <g id="text_14">
     <!-- Volume (dB) -->
     <g transform="translate(17.053125 205.220188)rotate(-90)scale(0.1 -0.1)">
      <defs>
       <path d="M 1831 0 
L 50 4666 
L 709 4666 
L 2188 738 
L 3669 4666 
L 4325 4666 
L 2547 0 
L 1831 0 
z
" id="DejaVuSans-56" transform="scale(0.015625)"/>
       <path d="M 1959 3097 
Q 1497 3097 1228 2736 
Q 959 2375 959 1747 
Q 959 1119 1226 758 
Q 1494 397 1959 397 
Q 2419 397 2687 759 
Q 2956 1122 2956 1747 
Q 2956 2369 2687 2733 
Q 2419 3097 1959 3097 
z
M 1959 3584 
Q 2709 3584 3137 3096 
Q 3566 2609 3566 1747 
Q 3566 888 3137 398 
Q 2709 -91 1959 -91 
Q 1206 -91 779 398 
Q 353 888 353 1747 
Q 353 2609 779 3096 
Q 1206 3584 1959 3584 
z
" id="DejaVuSans-6f" transform="scale(0.015625)"/>
       <path d="M 603 4863 
L 1178 4863 
L 1178 0 
L 603 0 
L 603 4863 
z
" id="DejaVuSans-6c" transform="scale(0.015625)"/>
       <path d="M 3328 2828 
Q 3544 3216 3844 3400 
Q 4144 3584 4550 3584 
Q 5097 3584 5394 3201 
Q 5691 2819 5691 2113 
L 5691 0 
L 5113 0 
L 5113 2094 
Q 5113 2597 4934 2840 
Q 4756 3084 4391 3084 
Q 3944 3084 3684 2787 
Q 3425 2491 3425 1978 
L 3425 0 
L 2847 0 
L 2847 2094 
Q 2847 2600 2669 2842 
Q 2491 3084 2119 3084 
Q 1678 3084 1418 2786 
Q 1159 2488 1159 1978 
L 1159 0 
L 581 0 
L 581 3500 
L 1159 3500 
L 1159 2956 
Q 1356 3278 1631 3431 
Q 1906 3584 2284 3584 
Q 2666 3584 2933 3390 
Q 3200 3197 3328 2828 
z
" id="DejaVuSans-6d" transform="scale(0.015625)"/>
       <path d="M 2906 2969 
L 2906 4863 
L 3481 4863 
L 3481 0 
L 2906 0 
L 2906 525 
Q 2725 213 2448 61 
Q 2172 -91 1784 -91 
Q 1150 -91 751 415 
Q 353 922 353 1747 
Q 353 2572 751 3078 
Q 1150 3584 1784 3584 
Q 2172 3584 2448 3432 
Q 2725 3281 2906 2969 
z
M 947 1747 
Q 947 1113 1208 752 
Q 1469 391 1925 391 
Q 2381 391 2643 752 
Q 2906 1113 2906 1747 
Q 2906 2381 2643 2742 
Q 2381 3103 1925 3103 
Q 1469 3103 1208 2742 
Q 947 2381 947 1747 
z
" id="DejaVuSans-64" transform="scale(0.015625)"/>
       <path d="M 1259 2228 
L 1259 519 
L 2272 519 
Q 2781 519 3026 730 
Q 3272 941 3272 1375 
Q 3272 1813 3026 2020 
Q 2781 2228 2272 2228 
L 1259 2228 
z
M 1259 4147 
L 1259 2741 
L 2194 2741 
Q 2656 2741 2882 2914 
Q 3109 3088 3109 3444 
Q 3109 3797 2882 3972 
Q 2656 4147 2194 4147 
L 1259 4147 
z
M 628 4666 
L 2241 4666 
Q 2963 4666 3353 4366 
Q 3744 4066 3744 3513 
Q 3744 3084 3544 2831 
Q 3344 2578 2956 2516 
Q 3422 2416 3680 2098 
Q 3938 1781 3938 1306 
Q 3938 681 3513 340 
Q 3088 0 2303 0 
L 628 0 
L 628 4666 
z
" id="DejaVuSans-42" transform="scale(0.015625)"/>
      </defs>
      <use xlink:href="#DejaVuSans-56"/>
      <use x="60.658203" xlink:href="#DejaVuSans-6f"/>
      <use x="121.839844" xlink:href="#DejaVuSans-6c"/>
      <use x="149.623047" xlink:href="#DejaVuSans-75"/>
      <use x="213.001953" xlink:href="#DejaVuSans-6d"/>
      <use x="310.414062" xlink:href="#DejaVuSans-65"/>
      <use x="371.9375" xlink:href="#DejaVuSans-20"/>
      <use x="403.724609" xlink:href="#DejaVuSans-28"/>
      <use x="442.738281" xlink:href="#DejaVuSans-64"/>
      <use x="506.214844" xlink:href="#DejaVuSans-42"/>
      <use x="574.818359" xlink:href="#DejaVuSans-29"/>
     </g>
    </g>
   </g>
   <g id="line2d_47">
    <path clip-path="url(#p9ed129ef2e)" d="M -1 136.940349 
L 73.832727 136.943401 
L 97.89618 129.005088 
L 111.972398 130.458919 
L 121.959633 138.875272 
L 129.706335 139.173403 
L 136.035851 149.242255 
L 141.387381 140.277926 
L 146.023086 150.772617 
L 150.112069 148.709928 
L 153.769788 149.47603 
L 157.078597 134.112959 
L 160.099304 153.739839 
L 162.878085 135.734472 
L 165.450834 133.512537 
L 167.846006 180.597455 
L 170.086539 148.175592 
L 172.191197 155.930692 
L 174.175522 162.266517 
L 176.052531 139.28977 
L 177.833241 147.691583 
L 179.527051 158.89956 
L 181.142051 143.770802 
L 182.685248 141.875463 
L 184.162757 169.663261 
L 185.579943 144.10198 
L 186.941538 137.709614 
L 188.251739 130.831899 
L 189.514287 139.689471 
L 190.732525 161.761874 
L 191.909459 138.825368 
L 193.047797 133.42861 
L 194.149992 129.871472 
L 195.218268 131.851772 
L 196.25465 138.600654 
L 197.260988 116.798726 
L 198.238975 113.37438 
L 199.190164 110.824954 
L 200.115984 122.028741 
L 201.017755 121.424491 
L 201.896694 107.526737 
L 202.753928 109.384278 
L 203.590504 113.849837 
L 204.407394 103.769358 
L 205.205504 104.843957 
L 205.985676 112.614775 
L 206.748701 116.648356 
L 207.495315 107.749457 
L 208.22621 106.703433 
L 208.942034 115.121523 
L 209.643396 117.9918 
L 210.330868 125.331503 
L 211.004991 151.526794 
L 211.666272 119.869896 
L 212.315192 112.403592 
L 212.952205 123.131085 
L 213.57774 129.252387 
L 214.192202 116.871522 
L 214.795978 113.820365 
L 215.389432 103.431674 
L 215.972912 103.330459 
L 216.546747 102.620117 
L 217.11125 105.585746 
L 217.666722 104.919719 
L 218.213445 98.233908 
L 218.751692 84.170386 
L 219.281721 76.351102 
L 219.80378 71.065858 
L 220.318103 68.772139 
L 221.324441 73.317087 
L 221.816878 78.652532 
L 222.302428 79.328201 
L 222.78128 84.081786 
L 223.253617 86.821886 
L 224.179437 95.882419 
L 224.633251 97.978095 
L 225.081208 121.839874 
L 225.523459 115.393056 
L 225.960147 112.879139 
L 226.39141 118.491505 
L 226.817381 125.860818 
L 227.238189 113.240362 
L 227.653957 111.765859 
L 228.064805 118.761659 
L 228.470847 111.188913 
L 228.872195 117.68639 
L 229.268957 109.206411 
L 229.661234 127.834675 
L 230.049129 112.577722 
L 230.432738 121.85688 
L 230.812154 111.042126 
L 231.187468 120.104781 
L 231.558768 107.188247 
L 231.926139 105.191787 
L 232.289663 110.484038 
L 232.64942 101.424217 
L 233.005487 100.307013 
L 233.357939 114.736996 
L 233.706849 107.810963 
L 234.052286 103.800977 
L 234.394321 108.73295 
L 234.733019 98.443268 
L 235.068444 95.242115 
L 235.400659 121.421773 
L 235.729725 104.323443 
L 236.055701 104.160987 
L 236.378645 111.244773 
L 236.698613 103.703464 
L 237.015658 101.782994 
L 237.329834 120.09178 
L 237.949783 101.473308 
L 238.255655 111.986619 
L 238.558855 96.069986 
L 238.859431 97.217457 
L 239.157426 106.854612 
L 239.452885 102.602228 
L 239.745851 102.211329 
L 240.036365 115.362825 
L 240.324468 93.633219 
L 240.893599 97.939442 
L 241.174703 96.836115 
L 241.45355 103.227315 
L 241.730175 117.571779 
L 242.004613 87.729026 
L 242.276898 91.040196 
L 242.547065 86.851809 
L 242.815145 87.636703 
L 243.081171 98.492172 
L 243.345174 99.051908 
L 244.381556 75.991941 
L 244.635889 75.554902 
L 244.888372 71.575036 
L 245.139031 74.935783 
L 245.387894 72.043929 
L 245.634986 76.63455 
L 245.880331 75.625427 
L 246.123955 78.427155 
L 246.365881 83.744528 
L 246.606132 83.241423 
L 246.844733 104.637987 
L 247.081704 94.142526 
L 247.55085 110.985722 
L 247.783066 100.12197 
L 248.01374 111.6067 
L 248.24289 101.082263 
L 248.470539 116.227992 
L 248.696704 97.26873 
L 248.921405 112.729661 
L 249.144661 101.358591 
L 249.366491 101.875252 
L 249.586912 101.863645 
L 249.805943 108.512192 
L 250.0236 96.947994 
L 250.239901 107.622801 
L 250.454863 106.305971 
L 250.668502 99.012622 
L 250.880834 103.806751 
L 251.091876 103.287455 
L 251.301642 98.096001 
L 251.510149 112.770133 
L 251.71741 100.572313 
L 251.923442 99.495481 
L 252.128258 104.511964 
L 252.5343 92.440246 
L 252.735554 115.743683 
L 252.935648 96.479636 
L 253.134596 98.522216 
L 253.33241 114.355681 
L 253.529103 103.445345 
L 253.724687 107.90536 
L 253.919177 117.011339 
L 254.112582 105.745555 
L 254.304916 105.850776 
L 254.496191 115.721197 
L 254.686417 98.904214 
L 254.875607 99.743123 
L 255.063771 110.938032 
L 255.250921 97.731436 
L 255.437068 114.912164 
L 255.806393 95.887393 
L 255.989592 103.61977 
L 256.353116 96.163005 
L 256.53346 117.325494 
L 256.712873 101.786161 
L 256.891363 102.442119 
L 257.06894 109.0662 
L 257.245613 96.053517 
L 257.421392 92.03509 
L 257.596285 96.648147 
L 257.770302 85.71635 
L 257.94345 104.597104 
L 258.115739 87.64276 
L 258.287178 106.892663 
L 258.796472 82.87912 
L 258.964589 89.305729 
L 259.131897 74.805476 
L 259.298402 82.066892 
L 259.464112 76.272886 
L 259.629035 78.184579 
L 259.793178 86.001489 
L 259.956549 79.336848 
L 260.119154 94.022087 
L 260.281002 83.172946 
L 260.442098 86.496758 
L 260.602451 95.978704 
L 260.762066 86.326857 
L 260.92095 102.057178 
L 261.079111 89.180538 
L 261.236555 102.729467 
L 261.393287 91.597382 
L 261.704646 103.744353 
L 261.859284 94.822696 
L 262.013236 108.752169 
L 262.166509 99.77846 
L 262.319108 100.380981 
L 262.471039 105.587278 
L 262.622309 106.000745 
L 262.772921 98.769724 
L 262.922884 103.680494 
L 263.220879 89.628777 
L 263.368923 102.702381 
L 263.516338 89.410545 
L 263.66313 88.824389 
L 263.809304 97.229451 
L 263.954865 92.17538 
L 264.099818 91.646456 
L 264.244168 104.077913 
L 264.387921 94.333645 
L 264.673653 98.541863 
L 264.957052 86.00829 
L 265.097889 95.61533 
L 265.238156 82.382462 
L 265.37786 98.513033 
L 265.517003 88.616536 
L 265.655591 92.327211 
L 265.793628 89.452912 
L 265.931118 93.543799 
L 266.068066 82.322983 
L 266.204476 102.234593 
L 266.340351 82.56035 
L 266.475697 92.108908 
L 266.610518 88.963122 
L 266.744817 89.515794 
L 266.878598 83.970698 
L 267.011866 91.706123 
L 267.144624 78.176581 
L 267.276877 103.09536 
L 267.408627 77.858564 
L 267.53988 104.18746 
L 267.670638 80.342707 
L 267.800905 93.978694 
L 267.930686 77.385614 
L 268.059983 87.721693 
L 268.1888 72.015899 
L 268.317141 82.048163 
L 268.445009 74.996956 
L 268.572409 86.047649 
L 268.699342 81.521981 
L 268.825813 105.047486 
L 268.951825 70.625192 
L 269.077381 75.032126 
L 269.202484 66.212409 
L 269.327139 67.134578 
L 269.451347 69.237168 
L 269.575113 65.717845 
L 269.698439 73.65709 
L 269.821328 65.842493 
L 269.943784 74.136208 
L 270.06581 71.881724 
L 270.187408 72.091358 
L 270.308581 84.955826 
L 270.429334 74.446341 
L 270.549667 94.255038 
L 270.669585 76.438776 
L 270.789091 84.259257 
L 270.908186 83.457464 
L 271.026874 77.21715 
L 271.145158 102.057127 
L 271.26304 76.944732 
L 271.380523 76.9673 
L 271.49761 88.517976 
L 271.614303 77.829728 
L 271.846519 86.851769 
L 271.962048 82.584895 
L 272.077193 82.484911 
L 272.191957 100.543708 
L 272.306343 85.550026 
L 272.420354 94.147454 
L 272.533992 91.371072 
L 272.647258 79.356057 
L 272.760157 84.12279 
L 272.984858 78.44682 
L 273.096666 86.553436 
L 273.208114 85.763181 
L 273.319206 82.892872 
L 273.429944 90.540414 
L 273.54033 81.362968 
L 273.650365 88.842675 
L 273.760053 78.97129 
L 273.869396 79.739686 
L 273.978395 86.570113 
L 274.087053 80.050583 
L 274.195372 87.979612 
L 274.303354 83.860684 
L 274.411001 69.185187 
L 274.518316 72.945411 
L 274.6253 69.426071 
L 274.838283 84.501048 
L 275.365095 62.970947 
L 275.469505 64.912075 
L 275.677387 80.033447 
L 275.986895 58.618464 
L 276.191711 53.568 
L 276.293668 54.861322 
L 276.395326 59.253968 
L 276.597753 90.170374 
L 276.899199 61.651062 
L 277.098718 59.493377 
L 277.690486 68.10694 
L 277.78814 68.852142 
L 277.98263 66.634786 
L 278.079467 66.757595 
L 278.272336 74.096721 
L 278.559644 90.521926 
L 278.844594 103.406258 
L 278.93906 103.068073 
L 279.220925 93.426319 
L 279.314374 92.586502 
L 279.407572 92.75978 
L 279.593221 101.609125 
L 279.777882 111.934082 
L 280.053045 94.438153 
L 280.144284 91.935047 
L 280.235283 92.92489 
L 280.326044 97.864981 
L 280.416569 110.286587 
L 280.506858 107.121812 
L 280.686736 91.902894 
L 280.776326 91.589898 
L 280.865686 94.196097 
L 280.954816 101.050822 
L 281.043718 122.293092 
L 281.309066 87.88909 
L 281.397067 86.908491 
L 281.572402 93.694877 
L 281.746855 121.729061 
L 281.920437 87.672552 
L 282.006903 85.409571 
L 282.093155 86.335996 
L 282.265018 96.611691 
L 282.350631 107.56162 
L 282.606212 94.13055 
L 282.690989 94.232507 
L 282.944085 101.268454 
L 283.527565 93.796013 
L 283.610124 93.177154 
L 284.020002 86.200127 
L 284.1014 86.828336 
L 284.344455 92.940747 
L 284.665904 102.112366 
L 284.825519 103.646926 
L 284.984403 110.314712 
L 285.142564 124.570395 
L 285.378462 108.641144 
L 285.45674 110.285842 
L 285.534842 117.631998 
L 285.612769 150.857129 
L 285.768099 105.618291 
L 285.922737 99.280398 
L 286.076689 104.098803 
L 286.15341 106.484449 
L 286.229962 105.721988 
L 286.306345 105.237675 
L 286.534492 107.708297 
L 286.76115 99.226997 
L 286.836374 96.916307 
L 286.911437 96.95634 
L 287.061076 108.054425 
L 287.135654 106.190657 
L 287.358433 91.337419 
L 287.432376 90.963053 
L 287.579791 97.044449 
L 287.726583 113.218703 
L 287.945613 84.874903 
L 288.018318 83.576027 
L 288.09087 83.937725 
L 288.235521 87.176395 
L 288.307621 87.079546 
L 288.379572 87.380906 
L 288.665893 94.868471 
L 288.737106 94.645918 
L 289.301609 87.863169 
L 289.510954 79.915673 
L 289.580456 79.901675 
L 289.788131 85.236299 
L 289.925894 93.214431 
L 290.063113 122.247555 
L 290.131519 110.152767 
L 290.199791 105.122211 
L 290.267929 108.897112 
L 290.403804 124.647828 
L 290.741185 101.110804 
L 290.80827 106.206785 
L 290.875225 146.943172 
L 291.008749 94.610349 
L 291.075319 92.001185 
L 291.141762 94.70757 
L 291.406267 125.051644 
L 291.603333 100.696916 
L 291.668773 99.279502 
L 291.799286 106.482973 
L 291.994139 121.679029 
L 292.058847 122.468371 
L 292.252253 97.867527 
L 292.380594 103.183267 
L 292.57222 117.253416 
L 292.699386 111.238965 
L 292.826088 126.598276 
L 292.889266 125.318217 
L 293.015278 113.056367 
L 293.078112 114.230017 
L 293.203442 131.089756 
L 293.265937 125.823049 
L 293.390592 114.969212 
L 293.452752 115.854417 
L 293.638566 122.892906 
L 293.761892 149.903517 
L 293.884781 129.542987 
L 293.946063 130.717017 
L 294.068304 160.726751 
L 294.250861 114.635109 
L 294.372035 112.564074 
L 294.432463 114.020959 
L 294.553006 131.599985 
L 294.61312 129.44056 
L 294.733038 123.477556 
L 294.792842 126.922559 
L 294.852544 145.689386 
L 294.912142 138.439381 
L 295.090327 124.718291 
L 295.149519 131.661817 
L 295.208611 123.596557 
L 295.267602 128.69037 
L 295.385284 144.808604 
L 295.443976 135.483246 
L 295.561063 122.845964 
L 295.619458 123.371631 
L 295.794058 146.441059 
L 295.852064 141.143306 
L 296.025501 123.716323 
L 296.25541 144.485291 
L 296.31265 140.696883 
L 296.369797 142.408267 
L 296.540672 123.512439 
L 296.654124 124.306656 
L 296.767207 162.812147 
L 296.879922 122.02174 
L 296.936142 124.056424 
L 297.048311 116.997103 
L 297.10426 119.888069 
L 297.160119 115.259892 
L 297.382659 133.691929 
L 297.438072 128.760631 
L 297.548634 135.427888 
L 297.713818 118.424725 
L 297.768706 117.709592 
L 297.823506 121.009586 
L 297.878221 117.604659 
L 297.932849 125.180299 
L 297.987391 120.238956 
L 298.041848 121.162327 
L 298.096219 120.525944 
L 298.258825 110.261188 
L 298.420673 111.96523 
L 298.688753 151.663027 
L 298.901736 127.832724 
L 299.166142 117.233747 
L 299.323823 138.783141 
L 299.376225 126.790282 
L 299.480792 126.087313 
L 299.532958 142.427941 
L 299.585045 128.80379 
L 299.637055 178.510049 
L 299.688986 135.534933 
L 299.74084 140.767316 
L 299.895939 122.453713 
L 300.050348 153.362938 
L 300.204073 121.582913 
L 300.255164 121.838746 
L 300.357121 117.419991 
L 300.61071 150.814659 
L 300.761979 121.196591 
L 300.812256 123.993265 
L 300.912592 120.080043 
L 301.062554 133.59139 
L 301.112398 125.879572 
L 301.162171 150.217949 
L 301.211872 130.10705 
L 301.261502 142.158139 
L 301.409968 117.137587 
L 301.459316 121.081908 
L 301.508593 119.104647 
L 301.557801 117.943494 
L 301.60694 126.311165 
L 301.656009 118.798221 
L 301.705008 123.753366 
L 301.753939 122.592581 
L 301.8028 120.563307 
L 301.900318 120.229034 
L 301.948974 128.624152 
L 301.997562 124.510238 
L 302.191238 141.37827 
L 302.239488 144.837273 
L 302.287672 140.400641 
L 302.335789 141.474029 
L 302.47974 117.117316 
L 302.670751 130.789949 
L 302.813323 146.662106 
L 302.860717 127.130728 
L 302.908047 132.647571 
L 303.002513 135.263953 
L 303.096723 163.125154 
L 303.237559 123.51085 
L 303.284378 123.187048 
L 303.331134 130.404084 
L 303.377827 126.456271 
L 303.424457 163.33322 
L 303.471025 138.470419 
L 303.51753 143.386595 
L 303.563974 131.137739 
L 303.610355 145.318596 
L 303.656674 131.36363 
L 303.702931 144.958967 
L 303.795262 139.882236 
L 303.887347 135.458217 
L 303.979189 134.288202 
L 304.025019 149.14265 
L 304.162147 129.949567 
L 304.207737 141.521359 
L 304.253266 130.136096 
L 304.434789 147.645593 
L 304.615368 127.196982 
L 304.660367 127.658386 
L 304.705307 130.940881 
L 304.750189 123.921927 
L 304.795013 140.016236 
L 304.839779 126.976868 
L 304.929139 132.426642 
L 305.062748 119.953071 
L 305.107171 122.332337 
L 305.151537 121.994384 
L 305.195846 120.084396 
L 305.372519 153.215112 
L 305.46052 132.282155 
L 305.548298 155.757285 
L 305.67955 125.425447 
L 305.723191 123.083694 
L 305.853785 149.8903 
L 305.897208 143.111664 
L 306.070356 124.082862 
L 306.199653 154.385993 
L 306.328471 132.397786 
L 306.371304 140.057659 
L 306.456812 135.702407 
L 306.54211 138.59381 
L 306.58468 138.523287 
L 306.796753 123.094503 
L 306.923378 135.519159 
L 306.965483 132.850346 
L 307.007538 144.625569 
L 307.091495 142.858755 
L 307.258803 121.717909 
L 307.466809 151.09231 
L 307.508262 136.355175 
L 307.549664 176.610579 
L 307.591018 133.186601 
L 307.632322 148.464421 
L 307.714784 144.434647 
L 307.755941 148.068558 
L 307.797049 139.967593 
L 307.838109 160.885407 
L 307.879121 129.874282 
L 308.083455 113.993424 
L 308.327078 143.69411 
L 308.367517 139.840443 
L 308.448252 142.43557 
L 308.48855 128.480454 
L 308.5288 139.292202 
L 308.569004 125.868826 
L 308.609162 133.273267 
L 308.649273 131.372463 
L 308.689338 133.395519 
L 308.729357 152.369854 
L 308.769329 146.977728 
L 308.928761 131.517904 
L 309.047856 162.604585 
L 309.087464 146.135349 
L 309.245445 129.183028 
L 309.40271 142.39216 
L 309.441915 137.073477 
L 309.481076 150.323892 
L 309.520193 143.388068 
L 309.598295 148.974144 
L 309.676222 130.255407 
L 309.753973 125.793837 
L 309.792784 137.02639 
L 309.831552 130.377139 
L 309.870276 142.138109 
L 309.908957 138.869106 
L 309.947595 152.958576 
L 309.98619 132.57338 
L 310.024742 137.342082 
L 310.063251 132.106566 
L 310.101718 132.603291 
L 310.216863 159.793299 
L 310.369798 132.778814 
L 310.407927 141.67233 
L 310.446014 136.905397 
L 310.484059 132.793306 
L 310.522063 156.592953 
L 310.560025 136.563367 
L 310.673662 121.647963 
L 310.711459 121.925428 
L 310.749215 121.90244 
L 310.786929 118.386532 
L 310.97489 139.887342 
L 311.01236 141.071047 
L 311.04979 135.061022 
L 311.087179 152.909116 
L 311.124529 132.023746 
L 311.161838 133.761467 
L 311.199107 130.858324 
L 311.273526 131.239585 
L 311.310675 124.733892 
L 311.495829 150.598946 
L 311.532741 143.144593 
L 311.569615 159.148033 
L 311.606449 138.781495 
L 311.643244 143.735109 
L 311.68 144.135266 
L 311.716717 137.04315 
L 311.753396 161.031518 
L 311.826637 139.54691 
L 311.8632 153.176986 
L 311.899724 137.661765 
L 311.93621 132.578226 
L 312.009066 130.225579 
L 312.045437 150.210144 
L 312.118066 158.943543 
L 312.154323 133.343123 
L 312.190542 149.306767 
L 312.226724 128.59439 
L 312.262868 137.04389 
L 312.407068 130.22788 
L 312.478944 127.681188 
L 312.514827 139.369405 
L 312.550672 126.026609 
L 312.586481 142.265294 
L 312.622252 127.5814 
L 312.657987 142.536897 
L 312.693685 124.131185 
L 312.729346 131.032972 
L 312.76497 124.251522 
L 312.800559 126.769088 
L 312.83611 135.783412 
L 312.907105 134.344157 
L 312.977954 121.425269 
L 313.048659 125.112957 
L 313.119221 142.448337 
L 313.154448 137.819994 
L 313.259915 120.305987 
L 313.294999 125.123238 
L 313.330049 121.149283 
L 313.365063 122.405963 
L 313.469893 136.532558 
L 313.504766 127.314586 
L 313.574407 133.986708 
L 313.643909 136.970763 
L 313.678608 123.460842 
L 313.713272 132.677644 
L 313.782497 127.554512 
L 313.817058 127.428091 
L 313.851584 125.985369 
L 313.954958 160.294902 
L 313.989347 144.473703 
L 314.058024 137.963161 
L 314.194972 169.446732 
L 314.331382 132.572642 
L 314.3654 141.745939 
L 314.433338 130.190304 
L 314.467257 140.111588 
L 314.501143 130.869343 
L 314.534996 156.514049 
L 314.602604 152.38127 
L 314.703768 128.514382 
L 314.737424 137.387736 
L 314.771047 128.917002 
L 314.838197 132.853093 
L 314.905217 138.429362 
L 314.938678 134.723426 
L 315.038869 154.189516 
L 315.138772 133.640564 
L 315.172009 155.680742 
L 315.238388 134.301744 
L 315.27153 146.020541 
L 315.304641 128.772299 
L 315.337719 134.869445 
L 315.370767 130.60484 
L 315.403783 130.858491 
L 315.502642 148.799393 
L 315.535533 143.944556 
L 315.666786 121.660946 
L 315.862739 141.101986 
L 315.89529 127.800494 
L 315.992762 128.178108 
L 316.025192 129.1496 
L 316.1223 121.058284 
L 316.347836 164.853899 
L 316.476058 136.589436 
L 316.50804 172.952695 
L 316.571915 141.040546 
L 316.794558 124.995986 
L 316.921144 128.683625 
L 317.078731 120.985476 
L 317.204287 136.476216 
L 317.235605 162.962754 
L 317.298157 139.961466 
L 317.32939 132.959093 
L 317.360596 145.427451 
L 317.391774 143.178953 
L 317.578253 122.206307 
L 317.640191 126.194803 
L 317.732891 153.029567 
L 317.763737 138.306387 
L 317.886844 122.23873 
L 317.948234 126.595063 
L 318.009516 135.043247 
L 318.101237 129.731891 
L 318.253568 120.310989 
L 318.344647 125.71496 
L 318.55624 172.465555 
L 318.616459 162.657915 
L 318.915997 123.692706 
L 319.005356 128.403491 
L 319.094487 134.042196 
L 319.15378 133.069955 
L 319.24253 130.58006 
L 319.272064 131.504571 
L 319.331055 139.340391 
L 319.389946 161.161416 
L 319.419354 139.957014 
L 319.478095 129.436699 
L 319.536737 134.109464 
L 319.566021 136.105104 
L 319.682911 116.389661 
L 319.712072 117.41561 
L 319.770321 127.662162 
L 319.828472 155.61694 
L 319.857511 133.752888 
L 319.944483 122.818404 
L 319.973425 124.193469 
L 320.088954 133.512908 
L 320.146574 131.89358 
L 320.318863 113.995516 
L 320.376103 116.610571 
L 320.575704 144.453256 
L 320.632523 141.262521 
L 321.055725 116.034101 
L 321.251467 131.486324 
L 321.279341 128.129488 
L 321.362827 152.319475 
L 321.390611 149.176689 
L 321.47383 127.210435 
L 321.501525 127.870762 
L 321.529199 133.873916 
L 321.584479 121.952468 
L 321.667236 106.100414 
L 321.722297 107.497028 
L 321.804726 127.871815 
L 321.832159 116.91541 
L 321.886959 107.000439 
L 321.941674 108.142018 
L 322.023584 132.03948 
L 322.050844 121.896638 
L 322.213959 108.231184 
L 322.24107 109.652387 
L 322.268161 106.130351 
L 322.29523 106.53227 
L 322.322278 106.442755 
L 322.349305 104.276493 
L 322.403296 104.380401 
L 322.537907 121.859178 
L 322.564767 146.431371 
L 322.618424 116.694063 
L 322.645222 117.009655 
L 322.671999 112.363357 
L 322.752206 116.214046 
L 322.7789 117.248601 
L 322.832228 116.089217 
L 322.965189 101.338747 
L 323.018232 106.281195 
L 323.097644 141.996106 
L 323.203245 132.944192 
L 323.361046 116.581575 
L 323.387276 118.244151 
L 323.439678 137.923518 
L 323.46585 118.779308 
L 323.518133 110.365533 
L 323.570338 114.167628 
L 323.700508 127.133965 
L 323.752439 125.346435 
L 323.778376 125.267466 
L 323.830191 123.964494 
L 323.85607 125.378399 
L 323.907769 128.093135 
L 323.985175 148.433198 
L 324.036682 136.737132 
L 324.21636 122.578446 
L 324.267526 125.772313 
L 324.344134 154.857822 
L 324.420574 140.001583 
L 324.446016 141.447716 
L 324.522232 134.294581 
L 324.572949 136.447104 
L 324.674163 144.390788 
L 324.69942 140.141944 
L 324.724659 139.353134 
L 324.74988 134.107754 
L 324.825432 141.363189 
L 324.85058 157.338065 
L 324.925913 151.83823 
L 324.950988 140.608249 
L 325.026105 143.199277 
L 325.051107 150.147158 
L 325.126007 144.588766 
L 325.150938 143.038478 
L 325.175851 152.090055 
L 325.225624 140.526094 
L 325.300149 128.842224 
L 325.349743 129.889566 
L 325.374514 130.331267 
L 325.547416 145.402143 
L 325.572046 144.880183 
L 325.596659 155.474532 
L 325.645832 140.319167 
L 325.670393 151.610229 
L 325.817392 125.160182 
L 325.939417 118.213123 
L 325.963771 119.125843 
L 326.03673 127.721643 
L 326.085284 147.655439 
L 326.157988 136.580205 
L 326.278824 127.620727 
L 326.302941 130.594659 
L 326.327041 125.874054 
L 326.351125 127.039099 
L 326.375192 125.563666 
L 326.423275 129.419597 
L 326.447292 130.224101 
L 326.591044 147.801552 
L 326.614945 142.591141 
L 326.63883 180.651697 
L 326.710385 132.119288 
L 326.758007 127.602679 
L 326.805563 130.451863 
L 326.876776 152.263889 
L 326.947843 138.362759 
L 327.018765 119.481924 
L 327.089542 124.017401 
L 327.277579 176.36196 
L 327.32443 150.870362 
L 327.604213 124.682167 
L 327.650625 123.023959 
L 327.673808 124.124229 
L 327.766384 140.746345 
L 327.81258 132.793552 
L 327.835655 129.558307 
L 327.904788 132.883242 
L 327.973784 135.985066 
L 327.996752 134.160218 
L 328.088472 129.756986 
L 328.134242 132.190461 
L 328.2256 153.242602 
L 328.248402 168.531624 
L 328.316719 149.60343 
L 328.430282 135.128359 
L 328.475604 136.575926 
L 328.543475 161.51003 
L 328.588649 142.481374 
L 328.611214 140.706486 
L 328.633764 146.031942 
L 328.6563 144.274075 
L 328.678821 144.536252 
L 328.813642 133.821703 
L 328.880856 136.97082 
L 328.970273 159.954016 
L 328.992592 159.925544 
L 329.14842 115.046365 
L 329.170624 114.184356 
L 329.192814 115.727285 
L 329.303552 149.945997 
L 329.347748 131.596413 
L 329.48 117.867409 
L 329.611751 125.94259 
L 329.677439 123.250478 
L 329.699308 122.879154 
L 329.786644 114.14537 
L 329.83023 119.016943 
L 329.873761 127.276456 
L 329.917238 118.945458 
L 329.960661 116.669754 
L 330.004029 120.933534 
L 330.047343 139.031395 
L 330.06898 163.056708 
L 330.133809 130.926258 
L 330.263106 117.345684 
L 330.284609 119.332828 
L 330.498907 130.74749 
L 330.520265 128.611921 
L 330.711891 98.885201 
L 330.754331 101.172701 
L 330.839057 127.44241 
L 330.881342 108.026397 
L 330.944674 101.895829 
L 331.00789 104.715292 
L 331.112995 114.886177 
L 331.154948 109.773403 
L 331.280504 104.210185 
L 331.301386 104.515396 
L 331.343113 106.778595 
L 331.384789 113.72663 
L 331.447209 107.129599 
L 331.467991 107.129214 
L 331.550995 124.572424 
L 331.613117 146.064992 
L 331.6338 132.705613 
L 331.73703 102.428614 
L 331.778237 105.816487 
L 331.819394 109.100141 
L 331.860503 102.428915 
L 331.942574 98.178536 
L 332.004001 98.294808 
L 332.146908 83.692851 
L 332.207974 87.260806 
L 332.289229 108.74622 
L 332.329786 92.687218 
L 332.43097 83.761098 
L 332.451171 85.022607 
L 332.552003 95.963109 
L 332.592253 91.873664 
L 332.712726 82.035557 
L 332.752791 85.11843 
L 332.852751 103.9681 
L 332.91259 95.776019 
L 332.932513 93.455306 
L 332.992214 98.11899 
L 333.051813 115.708689 
L 333.091489 98.905578 
L 333.150917 91.572412 
L 333.19048 96.845092 
L 333.229998 99.051021 
L 333.249739 93.827735 
L 333.348281 81.150472 
L 333.38762 84.17866 
L 333.446544 91.899901 
L 333.485771 83.336893 
L 333.544529 76.43756 
L 333.603188 81.797838 
L 333.661748 89.435541 
L 333.720209 85.486152 
L 333.798005 81.890574 
L 333.836837 82.907646 
L 333.97241 93.891816 
L 333.991734 93.484033 
L 334.088195 81.856376 
L 334.126704 85.473755 
L 334.203595 107.001093 
L 334.241977 124.440255 
L 334.29947 98.891327 
L 334.318613 98.311477 
L 334.337746 99.8518 
L 334.37598 112.773627 
L 334.395081 141.129673 
L 334.47138 103.921515 
L 334.528495 118.084379 
L 334.547512 107.87655 
L 334.661398 86.672094 
L 334.699278 88.483342 
L 334.774912 97.259191 
L 334.812668 94.129565 
L 334.869224 86.029565 
L 334.925688 90.653201 
L 334.982061 99.76014 
L 335.038343 92.430443 
L 335.094533 88.878521 
L 335.150632 90.700255 
L 335.169312 91.074791 
L 335.206641 90.176849 
L 335.225291 89.74224 
L 335.26256 91.049208 
L 335.336979 96.81324 
L 335.374128 93.456531 
L 335.448308 89.828565 
L 335.485339 91.433899 
L 335.559282 110.907506 
L 335.577743 130.6917 
L 335.65149 99.813342 
L 335.72508 113.19949 
L 335.743453 105.032159 
L 335.798515 95.793828 
L 335.835174 101.614488 
L 335.853489 106.051853 
L 335.89009 97.006297 
L 335.981425 84.882589 
L 336.017891 87.086026 
L 336.09071 104.62314 
L 336.163376 93.592692 
L 336.181519 93.034299 
L 336.199652 93.79519 
L 336.272091 105.642104 
L 336.326321 97.565916 
L 336.380466 93.256335 
L 336.434527 95.453336 
L 336.452529 95.983412 
L 336.506478 94.996422 
L 336.524442 94.660249 
L 336.542397 95.247392 
L 336.596207 103.663988 
L 336.649934 145.055692 
L 336.703577 108.416851 
L 336.757138 101.222953 
L 336.810616 106.737593 
L 336.864012 121.914558 
L 336.917326 107.43983 
L 336.935079 107.539272 
L 336.970558 116.249618 
L 336.988284 135.022771 
L 337.059097 109.594404 
L 337.09445 113.227153 
L 337.129766 143.550458 
L 337.182674 109.4779 
L 337.217901 104.195591 
L 337.270674 109.237555 
L 337.323368 130.396243 
L 337.393502 115.243033 
L 337.620463 121.159228 
L 337.63786 121.237218 
L 337.880511 111.291456 
L 337.897778 112.972135 
L 337.949529 115.858526 
L 338.001203 112.693217 
L 338.155765 106.867241 
L 338.03561 113.099107 
L 338.190019 109.087863 
L 338.241336 114.077472 
L 338.326697 111.390116 
L 338.343744 110.484355 
L 338.377813 112.76723 
L 338.411848 126.53472 
L 338.428853 144.671654 
L 338.496791 119.660848 
L 338.513755 121.869701 
L 338.564596 141.011834 
L 338.598449 157.166615 
L 338.649167 131.659756 
L 338.767221 117.99806 
L 338.8513 118.752134 
L 338.96867 130.641065 
L 339.01885 141.724803 
L 339.052263 130.581843 
L 339.102322 122.171598 
L 339.15231 131.86196 
L 339.235462 131.289584 
L 339.285258 153.917551 
L 339.334983 130.64854 
L 339.401172 146.044061 
L 339.43422 179.900586 
L 339.483732 145.587393 
L 339.533174 167.124632 
L 339.631846 141.156835 
L 339.664675 151.650469 
L 339.697472 181.339424 
L 339.795679 174.195942 
L 339.860997 174.544446 
L 339.942471 161.376294 
L 340.007513 149.838795 
L 340.056215 154.534974 
L 340.088645 167.518426 
L 340.104849 214.136226 
L 340.185753 163.00819 
L 340.201912 163.476215 
L 340.218063 159.081325 
L 340.282591 171.072348 
L 340.330908 163.245813 
L 340.379159 173.053616 
L 340.443389 190.196752 
L 340.475459 170.675338 
L 340.587473 165.163356 
L 340.619411 165.811581 
L 340.715048 177.108339 
L 340.746868 174.097225 
L 340.842155 162.8672 
L 340.87386 165.14499 
L 340.889701 164.693815 
L 341.016172 179.688636 
L 341.126457 160.799461 
L 341.110724 191.535454 
L 341.142184 168.661685 
L 341.205018 156.351022 
L 341.25207 160.202847 
L 341.26774 184.606544 
L 341.345982 157.024356 
L 341.36161 170.837202 
L 341.424049 146.905957 
L 341.470805 152.65758 
L 341.486376 172.301363 
L 341.50194 151.723349 
L 341.579658 164.011047 
L 341.672689 148.775678 
L 341.68817 166.053898 
L 341.703644 144.884388 
L 341.780912 151.564839 
L 341.81177 155.186418 
L 341.82719 152.992974 
L 341.873406 148.457835 
L 341.858007 161.279423 
L 341.919561 151.660973 
L 341.981006 149.215391 
L 342.042342 167.878804 
L 342.057659 152.619411 
L 342.14942 159.062227 
L 342.179953 159.758647 
L 342.19521 155.751597 
L 342.301818 153.020743 
L 342.317021 191.271188 
L 342.332217 153.79549 
L 342.438407 157.395127 
L 342.529168 182.823065 
L 342.468687 155.520902 
L 342.559369 176.332289 
L 342.664867 177.143501 
L 342.679912 159.210924 
L 342.770045 212.114759 
L 342.755039 154.545334 
L 342.785044 156.118345 
L 342.889859 172.386859 
L 342.904807 166.689995 
L 342.919748 161.885865 
L 342.934683 174.990681 
L 342.994359 166.217536 
L 343.009262 173.14612 
L 343.068809 164.467606 
L 343.08368 169.039542 
L 343.113403 191.789075 
L 343.172772 153.213022 
L 343.187599 182.58579 
L 343.246842 149.226441 
L 343.276425 162.651887 
L 343.291207 147.863605 
L 343.350274 188.366277 
L 343.379769 160.075286 
L 343.394508 159.944409 
L 343.482807 165.380476 
L 343.497501 147.479641 
L 343.585539 186.422248 
L 343.60019 145.958826 
L 343.746364 192.218902 
L 343.804662 157.348094 
L 343.862862 168.963157 
L 343.877396 160.656251 
L 343.935475 178.516056 
L 343.964477 168.739551 
L 343.97897 188.634768 
L 343.993456 160.87218 
L 344.065796 166.50934 
L 344.09469 179.515202 
L 344.109129 162.001227 
L 344.181229 170.07707 
L 344.195631 170.65879 
L 344.281918 159.322122 
L 344.224417 182.486282 
L 344.310633 164.045001 
L 344.324981 166.163178 
L 344.339324 191.77831 
L 344.396635 159.832923 
L 344.425255 163.667506 
L 344.468141 178.592654 
L 344.482425 155.745701 
L 344.496703 157.18513 
L 344.553755 147.244441 
L 344.596482 154.841969 
L 344.610713 169.737094 
L 344.695976 158.99758 
L 344.724351 149.409379 
L 344.738529 159.212198 
L 344.752702 150.825487 
L 344.795186 182.975208 
L 344.879997 177.175767 
L 344.964602 148.60952 
L 345.006828 148.950766 
L 345.063048 167.559304 
L 345.105154 156.490155 
L 345.231166 142.49842 
L 345.356722 164.431542 
L 345.384562 154.149819 
L 345.412379 146.133037 
L 345.467948 155.335967 
L 345.481826 152.922817 
L 345.495698 166.019779 
L 345.564978 144.26094 
L 345.578818 146.00905 
L 345.60648 145.005235 
L 345.71691 196.471614 
L 345.730689 162.514258 
L 345.744462 162.247792 
L 345.78575 149.582842 
L 345.813248 174.59855 
L 345.854454 160.411887 
L 345.923023 193.193402 
L 345.950412 152.771492 
L 345.964099 159.887822 
L 346.018792 144.20031 
L 346.073398 156.711373 
L 346.087037 156.399468 
L 346.114297 162.918958 
L 346.168754 147.662273 
L 346.29097 167.715308 
L 346.412758 148.525293 
L 346.53412 162.442875 
L 346.587923 139.478472 
L 346.57448 166.356379 
L 346.641642 159.396554 
L 346.708675 148.180252 
L 346.695279 161.592906 
L 346.748833 153.152733 
L 346.762208 203.752549 
L 346.855693 148.722393 
L 346.909 187.012024 
L 346.975519 177.916647 
L 347.081685 155.993046 
L 347.094933 177.910523 
L 347.147874 150.727146 
L 347.200735 177.273501 
L 347.213937 181.783071 
L 347.227135 163.966409 
L 347.266698 180.846608 
L 347.319378 151.916973 
L 347.385116 167.589177 
L 347.398248 175.720995 
L 347.450729 157.091746 
L 347.463837 160.990395 
L 347.47694 152.786998 
L 347.516219 168.590335 
L 347.568523 157.100815 
L 347.633791 174.447476 
L 347.620747 156.950866 
L 347.659864 171.379898 
L 347.750966 174.268276 
L 347.776951 145.850888 
L 347.802917 139.327159 
L 347.85479 150.683797 
L 347.906586 131.964335 
L 347.958305 151.705746 
L 348.074391 128.388789 
L 347.984135 155.911384 
L 348.100135 133.005026 
L 348.151567 155.899485 
L 348.202922 132.510536 
L 348.228571 132.17085 
L 348.26701 139.01969 
L 348.305406 145.754727 
L 348.356534 138.157962 
L 348.369304 140.297343 
L 348.38207 137.025716 
L 348.433086 146.014096 
L 348.445828 142.61603 
L 348.458566 146.915037 
L 348.522183 131.408305 
L 348.534893 130.160192 
L 348.572994 136.740752 
L 348.72498 166.394375 
L 348.611053 134.284676 
L 348.762873 150.489045 
L 348.876305 137.895151 
L 348.888885 140.673978 
L 348.964273 148.639064 
L 348.914033 139.148527 
L 348.976822 147.856853 
L 349.014441 194.130195 
L 349.077049 139.627972 
L 349.102061 139.076215 
L 349.22685 156.107036 
L 349.313936 141.828991 
L 349.264199 157.697065 
L 349.326359 145.434678 
L 349.338778 167.63413 
L 349.388408 140.601371 
L 349.437967 158.364743 
L 349.487456 136.052718 
L 349.524526 158.444577 
L 349.549217 151.895896 
L 349.586222 141.629124 
L 349.647808 160.264872 
L 349.684707 142.359597 
L 349.758389 147.194653 
L 349.819671 166.471075 
L 349.868619 157.532663 
L 349.893067 163.76692 
L 349.905284 150.759787 
L 350.00287 136.172497 
L 349.929707 152.642568 
L 350.027224 142.074415 
L 350.051561 153.782391 
L 350.112328 136.580952 
L 350.124468 137.318894 
L 350.233544 150.572294 
L 350.257736 194.570719 
L 350.306071 145.705481 
L 350.330213 149.802953 
L 350.366394 144.469282 
L 350.354338 151.007574 
L 350.402538 149.08297 
L 350.414578 171.07536 
L 350.510745 149.633645 
L 350.546739 137.089222 
L 350.618615 144.848981 
L 350.702283 165.256796 
L 350.642541 144.541057 
L 350.738079 149.265315 
L 350.809561 163.33615 
L 350.869016 155.865453 
L 350.880895 152.509153 
L 350.928371 161.165646 
L 350.963934 157.6876 
L 350.999462 166.107114 
L 351.046775 149.884251 
L 351.058594 157.963113 
L 351.070408 154.13017 
L 351.094024 167.152277 
L 351.105827 164.827102 
L 351.2001 190.00977 
L 351.223629 179.192046 
L 351.270638 197.916886 
L 351.364465 153.25615 
L 351.376176 158.049722 
L 351.446357 148.38939 
L 351.45804 155.4528 
L 351.469719 150.052583 
L 351.528056 163.383109 
L 351.574655 151.770783 
L 351.702481 173.294599 
L 351.818279 152.76338 
L 351.725671 173.708346 
L 351.829837 156.6729 
L 351.852943 158.899918 
L 351.91064 184.37206 
L 351.956728 157.105892 
L 352.094628 198.200691 
L 351.97975 156.911177 
L 352.106095 189.066643 
L 352.151925 160.594072 
L 352.231982 167.4021 
L 352.357415 184.172368 
L 352.254822 164.22507 
L 352.41428 177.334183 
L 352.505071 171.504623 
L 352.527732 172.545008 
L 352.561695 200.907239 
L 352.606928 168.882217 
L 352.629522 163.743889 
L 352.663386 168.462504 
L 352.697217 214.099822 
L 352.787273 182.257431 
L 352.854661 190.324084 
L 352.888306 179.436277 
L 352.899514 179.952966 
L 352.910718 177.327537 
L 353.000222 169.029129 
L 352.933116 181.594503 
L 353.056045 169.329632 
L 353.078349 170.366595 
L 353.089495 169.278701 
L 353.111778 164.792696 
L 353.145175 178.878302 
L 353.167422 208.744087 
L 353.234077 171.319791 
L 353.300604 159.380905 
L 353.344885 167.088443 
L 353.355947 173.570412 
L 353.422241 151.915765 
L 353.433278 157.852348 
L 353.444311 156.422494 
L 353.455341 163.057751 
L 353.488409 175.642591 
L 353.565447 162.432424 
L 353.642313 182.064456 
L 353.587426 161.769695 
L 353.675204 165.614492 
L 353.751828 149.873913 
L 353.697114 170.152006 
L 353.806456 155.613991 
L 353.828284 166.070737 
L 353.893683 150.216869 
L 353.991552 144.733165 
L 354.013263 146.852991 
L 354.045804 168.246247 
L 354.132433 152.010225 
L 354.197262 138.771438 
L 354.240415 151.651583 
L 354.337312 180.045304 
L 354.391028 179.719268 
L 354.49821 145.582052 
L 354.44466 195.388986 
L 354.50891 154.325039 
L 354.573041 150.259762 
L 354.594391 158.304695 
L 354.605062 166.791771 
L 354.669016 144.662671 
L 354.679663 146.425529 
L 354.74348 135.695711 
L 354.775344 151.782276 
L 354.785959 177.558653 
L 354.870762 133.005408 
L 354.923659 128.596148 
L 354.965919 134.484782 
L 354.976475 134.285901 
L 354.987029 135.67654 
L 355.092389 153.994491 
L 355.113423 142.432033 
L 355.134444 135.922452 
L 355.165952 141.514017 
L 355.186941 168.281235 
L 355.228882 132.537299 
L 355.281236 151.147548 
L 355.302156 162.016704 
L 355.364839 128.346425 
L 355.385709 126.14189 
L 355.416989 132.260024 
L 355.521055 139.481391 
L 355.469061 124.944304 
L 355.531444 136.481599 
L 355.697253 117.945775 
L 355.728255 121.004132 
L 355.779862 132.574866 
L 355.851983 125.501584 
L 355.893129 141.001361 
L 355.923956 169.364176 
L 355.985527 131.363456 
L 356.006027 133.635873 
L 356.036754 147.721201 
L 356.04699 181.123172 
L 356.098126 117.657351 
L 356.138981 130.84711 
L 356.230728 164.073858 
L 356.189982 123.411738 
L 356.240908 138.033547 
L 356.281595 122.153049 
L 356.342536 138.753971 
L 356.393239 128.297355 
L 356.433748 136.383629 
L 356.504525 135.044128 
L 356.565077 151.268717 
L 356.665762 140.71027 
L 356.685864 143.020043 
L 356.726033 181.896854 
L 356.796217 143.36175 
L 356.826253 140.873964 
L 356.86626 149.073978 
L 356.995966 175.845494 
L 356.916204 146.799461 
L 357.025829 156.093354 
L 357.065607 147.069603 
L 357.135109 156.299289 
L 357.164853 167.486719 
L 357.244046 155.838184 
L 357.303323 172.611535 
L 357.362498 158.580344 
L 357.372351 157.222742 
L 357.401893 164.207997 
L 357.421573 169.924229 
L 357.490367 158.522489 
L 357.500183 160.63246 
L 357.529616 164.090601 
L 357.539422 161.979872 
L 357.656872 188.101014 
L 357.754444 157.813979 
L 357.686172 191.307674 
L 357.783662 160.853655 
L 357.812856 178.029994 
L 357.890586 160.829686 
L 358.026197 148.712611 
L 358.045526 150.683465 
L 358.103451 156.257772 
L 358.142014 150.829798 
L 358.267048 141.146904 
L 358.276648 147.875294 
L 358.372496 143.08213 
L 358.420321 145.278692 
L 358.458534 142.781095 
L 358.46808 144.92697 
L 358.544359 140.791677 
L 358.582435 141.393426 
L 358.62047 143.617667 
L 358.610965 139.212149 
L 358.686931 142.596451 
L 358.696415 138.57128 
L 358.705896 144.260301 
L 358.791113 139.937165 
L 358.847808 144.529096 
L 358.838365 139.907984 
L 358.90441 143.666914 
L 358.932677 142.537566 
L 358.923257 146.791829 
L 358.960921 145.082268 
L 359.101796 157.340062 
L 359.120536 154.094424 
L 359.139266 153.032489 
L 359.232765 172.214832 
L 359.242101 159.675086 
L 359.27942 185.001457 
L 359.335324 180.144787 
L 359.400432 199.870774 
L 359.437581 159.471891 
L 359.446862 190.788616 
L 359.530281 158.79287 
L 359.548792 161.015146 
L 359.567292 185.965618 
L 359.604264 153.642636 
L 359.613501 195.182285 
L 359.714943 164.894782 
L 359.751757 181.366465 
L 359.788533 155.911871 
L 359.82527 165.407861 
L 359.834448 154.744026 
L 359.843624 170.11207 
L 359.935247 156.897446 
L 359.944396 167.841413 
L 359.99924 153.591574 
L 360.035755 160.959734 
L 360.099563 167.752038 
L 360.135972 151.400409 
L 360.235901 169.660825 
L 360.226829 149.524093 
L 360.244972 152.588009 
L 360.263105 166.046861 
L 360.398804 160.825664 
L 360.452935 155.70843 
L 360.443919 164.449639 
L 360.49798 156.100752 
L 360.506982 167.335996 
L 360.60585 159.598418 
L 360.641733 163.414856 
L 360.677578 158.655628 
L 360.695487 159.216599 
L 360.722333 156.64774 
L 360.784893 163.880516 
L 360.793821 157.188772 
L 360.900777 165.07778 
L 360.820591 156.824564 
L 360.918571 163.542658 
L 361.007405 173.120735 
L 361.060596 172.560664 
L 361.069454 167.281756 
L 361.12255 176.835162 
L 361.166735 169.492942 
L 361.378044 240.863146 
L 361.210864 168.071365 
L 361.448196 219.036382 
L 361.56189 212.36032 
L 361.474466 231.649806 
L 361.570621 213.630694 
L 361.60552 210.71722 
L 361.61424 215.82968 
L 361.631672 213.542317 
L 361.692616 239.114148 
L 361.736082 216.723115 
L 361.788169 212.532607 
L 361.805514 222.812859 
L 361.840178 217.979196 
L 361.848839 219.406676 
L 361.89211 208.875537 
L 361.918047 213.223262 
L 361.926688 212.301113 
L 361.943964 218.584803 
L 361.987116 272.159621 
L 362.038829 215.322553 
L 362.056049 220.57687 
L 362.073261 215.761399 
L 362.133435 234.744575 
L 362.167774 218.713101 
L 362.244911 211.867914 
L 362.253472 216.142355 
L 362.27914 246.41655 
L 362.356031 213.185739 
L 362.364564 211.841444 
L 362.381623 216.526123 
L 362.398674 215.064415 
L 362.424235 228.315174 
L 362.500806 211.90736 
L 362.568727 222.313791 
L 362.594163 237.654549 
L 362.653442 216.666209 
L 362.670361 223.320776 
L 362.678817 215.164981 
L 362.737951 242.102437 
L 362.780129 218.756905 
L 362.813834 210.750289 
L 362.855919 222.105476 
L 362.889551 244.29185 
L 362.948328 218.854179 
L 362.965103 212.622665 
L 363.01538 223.905925 
L 363.040491 222.340847 
L 363.057222 225.99035 
L 363.073944 217.8526 
L 363.090659 214.994541 
L 363.099013 210.7127 
L 363.157437 223.508392 
L 363.165775 222.776845 
L 363.199108 249.035858 
L 363.257364 216.95597 
L 363.27399 217.573084 
L 363.282301 217.902031 
L 363.315522 237.60379 
L 363.390154 217.667001 
L 363.406717 211.528885 
L 363.44809 221.785556 
L 363.489414 244.780345 
L 363.522438 219.567102 
L 363.563673 214.123793 
L 363.60486 229.679067 
L 363.613091 226.772498 
L 363.621321 227.635587 
L 363.65422 219.958751 
L 363.662439 222.342631 
L 363.703509 214.216367 
L 363.74453 229.590335 
L 363.752729 227.799304 
L 363.76912 239.975744 
L 363.842784 214.839343 
L 363.859132 222.058222 
L 363.867304 222.085686 
L 363.89997 234.43241 
L 363.973357 216.184656 
L 364.062843 276.391243 
L 363.989645 214.060625 
L 364.095326 228.510943 
L 364.152098 216.111626 
L 364.184498 228.962491 
L 364.192593 227.340936 
L 364.216867 236.762309 
L 364.273441 213.202813 
L 364.297659 224.818633 
L 364.305728 221.64846 
L 364.329923 241.943249 
L 364.337984 238.692415 
L 364.346044 249.937641 
L 364.394361 216.114545 
L 364.434575 218.622113 
L 364.466712 237.190778 
L 364.538912 220.571298 
L 364.570953 213.32715 
L 364.602964 230.625911 
L 364.618959 225.046977 
L 364.642937 246.317268 
L 364.722744 215.171603 
L 364.786459 235.555224 
L 364.834168 220.836273 
L 364.842113 217.830755 
L 364.889745 234.16607 
L 364.897678 227.174577 
L 364.905608 252.680961 
L 365.000634 220.059666 
L 365.055947 242.374429 
L 365.103287 225.817583 
L 365.142688 218.117362 
L 365.174177 240.78569 
L 365.197774 234.827961 
L 365.205637 259.674746 
L 365.299846 215.736124 
L 365.346855 259.77465 
L 365.41725 224.426985 
L 365.510888 219.913228 
L 365.471903 246.999532 
L 365.52647 220.194947 
L 365.627581 265.775147 
L 365.549829 216.281659 
L 365.650873 226.886269 
L 365.697409 218.706543 
L 365.736142 238.29574 
L 365.743883 268.725574 
L 365.805752 215.698188 
L 365.836646 221.227568 
L 365.844365 220.397221 
L 365.867511 227.863797 
L 365.89835 245.88465 
L 365.92146 221.579991 
L 365.975326 234.011173 
L 366.01375 255.820161 
L 366.090471 218.349109 
L 366.174669 252.623294 
L 366.205235 224.104688 
L 366.220509 219.509502 
L 366.266288 228.933107 
L 366.289156 254.696082 
L 366.365271 216.912799 
L 366.372873 227.437018 
L 366.380474 217.987812 
L 366.433632 241.741418 
L 366.48671 221.098003 
L 366.554833 248.070129 
L 366.592621 222.054015 
L 366.600174 219.052364 
L 366.683146 228.718921 
L 366.69821 256.311094 
L 366.780949 217.018909 
L 366.788461 220.464452 
L 366.818492 257.947853 
L 366.870984 217.801872 
L 366.900944 222.623095 
L 366.90843 216.756385 
L 366.960787 249.33034 
L 367.005601 220.936567 
L 367.072715 245.243596 
L 367.117385 227.696004 
L 367.154566 219.401773 
L 367.191708 234.252294 
L 367.206553 221.748438 
L 367.236225 271.585177 
L 367.32509 239.775652 
L 367.421103 216.417328 
L 367.339878 249.405185 
L 367.443222 222.880034 
L 367.450592 223.158219 
L 367.502138 251.541581 
L 367.568299 228.55191 
L 367.678289 216.868826 
L 367.605001 249.522746 
L 367.685609 220.108728 
L 367.744115 254.967694 
L 367.802523 225.949517 
L 367.83169 221.454225 
L 367.81711 248.268734 
L 367.868115 227.881062 
L 367.882674 261.978184 
L 367.969901 218.515247 
L 368.02793 275.148102 
L 368.100331 233.919692 
L 368.194227 217.416148 
L 368.129249 255.950163 
L 368.223067 220.736892 
L 368.28787 248.83141 
L 368.359731 240.859637 
L 368.438608 217.032519 
L 368.409946 254.592864 
L 368.481555 223.518434 
L 368.49586 222.282938 
L 368.52445 280.595803 
L 368.624333 249.469301 
L 368.709718 219.202727 
L 368.645699 257.334776 
L 368.745233 234.170924 
L 368.773619 270.596024 
L 368.823239 225.985105 
L 368.837403 230.812954 
L 368.90107 237.153074 
L 368.950509 220.585892 
L 369.049174 248.644347 
L 368.985779 218.090453 
L 369.077313 228.427024 
L 369.084344 220.559107 
L 369.112455 269.66802 
L 369.189641 224.24174 
L 369.273649 252.518297 
L 369.203656 220.417168 
L 369.315577 230.446084 
L 369.32256 230.407055 
L 369.364428 241.176543 
L 369.406247 230.027655 
L 369.413212 232.557474 
L 369.441057 220.510618 
L 369.427137 233.596331 
L 369.510573 232.113398 
L 369.517517 268.311814 
L 369.600736 220.774777 
L 369.62151 249.959624 
L 369.697573 219.776012 
L 369.642271 266.80658 
L 369.738993 232.744914 
L 369.780363 245.442736 
L 369.752788 226.132377 
L 369.849203 236.967126 
L 369.876701 239.453711 
L 369.979625 222.117227 
L 370.123208 248.836456 
L 370.17775 217.999399 
L 370.232207 230.579485 
L 370.252606 246.003904 
L 370.320518 224.53937 
L 370.340865 237.253141 
L 370.422136 221.216987 
L 370.374751 256.532893 
L 370.455943 224.772179 
L 370.489717 255.758715 
L 370.543687 220.841434 
L 370.584109 233.696517 
L 370.67153 221.691509 
L 370.611032 245.133565 
L 370.705095 227.067038 
L 370.812286 252.581812 
L 370.778824 222.061395 
L 370.818974 249.158775 
L 370.899135 221.287186 
L 370.879112 258.750229 
L 370.939146 227.768577 
L 371.005728 222.699973 
L 371.058903 245.065037 
L 371.131885 220.906863 
L 371.178248 227.411716 
L 371.297185 255.621653 
L 371.25098 224.586003 
L 371.30378 252.975929 
L 371.310375 252.568545 
L 371.316968 253.439243 
L 371.422288 222.310877 
L 371.42886 240.730075 
L 371.442001 252.944771 
L 371.474829 222.927485 
L 371.507627 232.013376 
L 371.533842 246.227008 
L 371.625442 220.601743 
L 371.651569 248.232342 
L 371.716801 218.894947 
L 371.74937 239.778237 
L 371.78191 251.784267 
L 371.86637 224.488266 
L 371.937675 254.826004 
L 371.976508 224.901959 
L 372.028217 256.736534 
L 372.060496 221.349543 
L 372.092745 241.608188 
L 372.157154 218.666875 
L 372.131405 252.108148 
L 372.202169 235.350146 
L 372.247126 247.550106 
L 372.298434 229.689275 
L 372.317655 239.857789 
L 372.426373 221.309123 
L 372.349666 250.872015 
L 372.432757 230.963078 
L 372.477417 247.422749 
L 372.502911 222.866385 
L 372.541116 228.472505 
L 372.54748 227.281873 
L 372.553842 243.856691 
L 372.560203 234.093609 
L 372.661824 249.968404 
L 372.611051 221.154098 
L 372.668166 230.591577 
L 372.687183 256.64663 
L 372.763149 224.824833 
L 372.782114 248.099784 
L 372.889389 248.619249 
L 372.89569 225.033023 
L 372.908286 256.447424 
L 372.971201 224.141213 
L 373.008895 233.525035 
L 373.096689 224.082556 
L 373.12799 247.082279 
L 373.190508 228.216935 
L 373.209241 267.61143 
L 373.240441 237.515994 
L 373.290303 222.050487 
L 373.252913 246.358092 
L 373.346312 236.751485 
L 373.358746 258.781289 
L 373.414645 225.434477 
L 373.451861 246.289075 
L 373.50761 221.870345 
L 373.464257 277.28441 
L 373.56327 243.44187 
L 373.631177 227.341917 
L 373.649675 269.979281 
L 373.668162 238.803158 
L 373.674322 246.631266 
L 373.760452 221.906216 
L 373.766595 224.476325 
L 373.803436 268.194324 
L 373.895367 241.323066 
L 373.968737 221.19076 
L 374.005364 238.369546 
L 374.011465 237.186791 
L 374.017565 252.326944 
L 374.029761 250.621763 
L 374.072413 281.696047 
L 374.115014 230.210705 
L 374.127176 230.26667 
L 374.224318 255.31817 
L 374.187921 226.403819 
L 374.254619 243.158941 
L 374.321189 248.617708 
L 374.369524 225.69134 
L 374.45997 251.13621 
L 374.399699 221.572019 
L 374.484049 241.340555 
L 374.544174 252.553214 
L 374.604195 219.295332 
L 374.729903 253.418081 
L 374.735878 241.961609 
L 374.825376 220.513473 
L 374.783639 270.944998 
L 374.849203 229.350759 
L 374.968094 276.170933 
L 375.051076 219.98233 
L 375.080665 239.157411 
L 375.122047 231.655086 
L 375.110228 252.277643 
L 375.127954 251.521144 
L 375.133861 251.146253 
L 375.245896 222.360014 
L 375.145671 257.68558 
L 375.251783 226.452026 
L 375.275319 224.757605 
L 375.304718 258.836296 
L 375.310594 275.57457 
L 375.404485 227.257876 
L 375.468888 220.438933 
L 375.533172 269.19066 
L 375.643929 225.454699 
L 375.649748 227.35842 
L 375.655567 227.066511 
L 375.765934 251.453702 
L 375.667201 226.987898 
L 375.771733 244.783868 
L 375.847033 222.726792 
L 375.789124 266.396776 
L 375.887512 228.053479 
L 375.933715 251.487648 
L 375.968328 241.477223 
L 375.974093 273.180921 
L 376.043203 224.890499 
L 376.077706 237.503875 
L 376.123658 226.668661 
L 376.140874 278.952686 
L 376.17528 239.342708 
L 376.232549 261.999916 
L 376.272581 224.159446 
L 376.278296 226.700438 
L 376.28401 227.019447 
L 376.289723 223.059194 
L 376.3411 270.237402 
L 376.40379 244.787573 
L 376.489095 223.409204 
L 376.506131 250.080506 
L 376.523158 233.554924 
L 376.60251 265.039151 
L 376.574191 229.123909 
L 376.630806 237.774674 
L 376.698622 222.364801 
L 376.73248 244.617882 
L 376.73812 242.630967 
L 376.828234 258.765114 
L 376.822608 228.826784 
L 376.839481 236.949802 
L 376.861966 223.417646 
L 376.890051 247.003724 
L 376.940548 234.262391 
L 376.985372 268.219525 
L 376.996569 229.303922 
L 377.04691 231.510606 
L 377.074847 223.400563 
L 377.130651 242.249951 
L 377.152948 272.492978 
L 377.186367 231.522101 
L 377.225314 237.427551 
L 377.253107 223.582863 
L 377.314174 259.802601 
L 377.33081 243.840351 
L 377.358518 232.084765 
L 377.352978 258.192188 
L 377.364057 235.905282 
L 377.369596 266.739217 
L 377.458087 220.820412 
L 377.469132 231.515061 
L 377.491213 227.654884 
L 377.524308 238.50828 
L 377.535332 295.488 
L 377.568385 232.648853 
L 377.6289 242.358876 
L 377.650879 219.344152 
L 377.705766 248.334538 
L 377.733177 245.259809 
L 377.738657 264.583848 
L 377.809814 227.103971 
L 377.842606 240.62075 
L 377.85353 235.154362 
L 377.886281 226.447511 
L 377.86445 246.959263 
L 377.91355 242.782643 
L 377.957136 268.579073 
L 378.016978 226.112826 
L 378.022413 220.675594 
L 378.098414 249.443618 
L 378.114678 237.054068 
L 378.152599 258.080196 
L 378.136352 227.019512 
L 378.212104 240.748571 
L 378.271508 222.814603 
L 378.303868 249.157499 
L 378.325424 227.228054 
L 378.395389 212.500237 
L 378.357733 236.090609 
L 378.422262 223.69089 
L 378.497393 267.429292 
L 378.529543 217.377368 
L 378.583059 221.838599 
L 378.556311 215.304386 
L 378.61513 216.274393 
L 378.620472 214.774795 
L 378.668515 231.747393 
L 378.679182 237.648966 
L 378.716491 215.805432 
L 378.743116 220.772625 
L 378.780357 210.48873 
L 378.817557 232.081052 
L 378.833488 224.173135 
L 378.849412 252.261032 
L 378.928921 206.661272 
L 378.934215 206.86956 
L 378.960674 221.223026 
L 379.050482 212.142268 
L 379.076852 202.62673 
L 379.103202 217.518013 
L 379.150582 210.375508 
L 379.213655 239.632975 
L 379.271371 217.918838 
L 379.370837 204.77366 
L 379.339457 218.11303 
L 379.386516 208.791569 
L 379.40741 227.369727 
L 379.449162 207.883687 
L 379.50128 218.692914 
L 379.594897 269.628556 
L 379.511695 217.560737 
L 379.636424 236.857441 
L 379.745195 217.274653 
L 379.750366 222.663631 
L 379.86909 272.82218 
L 379.786543 221.059329 
L 379.874243 241.321246 
L 379.956582 226.697224 
L 379.96686 252.191224 
L 379.982273 241.57003 
L 380.028469 221.827543 
L 380.089968 246.571051 
L 380.146246 225.561582 
L 380.171797 271.215792 
L 380.202434 237.150074 
L 380.217742 226.407421 
L 380.319624 258.036804 
L 380.360293 224.221325 
L 380.43135 237.007438 
L 380.436419 237.759573 
L 380.487078 265.014545 
L 380.532607 229.032612 
L 380.542717 231.859712 
L 380.547771 222.773681 
L 380.638611 256.060551 
L 380.64869 234.110837 
L 380.709101 226.725066 
L 380.784467 256.338513 
L 380.839632 267.126479 
L 380.899712 222.217382 
L 380.994627 259.615913 
L 381.024546 246.07803 
L 381.054439 273.818887 
L 381.074354 224.527608 
L 381.109177 230.512488 
L 381.114149 225.816728 
L 381.178719 256.466018 
L 381.188642 238.423663 
L 381.193603 259.721302 
L 381.262976 224.229726 
L 381.302555 257.121253 
L 381.307499 258.497993 
L 381.322328 233.10294 
L 381.33715 224.637772 
L 381.36184 238.463084 
L 381.386512 276.692277 
L 381.450578 211.395415 
L 381.470267 226.596687 
L 381.489944 273.034997 
L 381.558728 220.832616 
L 381.578356 223.173701 
L 381.602875 251.747872 
L 381.690999 234.31921 
L 381.705665 222.505752 
L 381.730094 248.079507 
L 381.803279 228.786323 
L 381.817897 219.985193 
L 381.832509 234.349461 
L 381.842247 256.070565 
L 381.895758 227.677712 
L 381.939478 230.514181 
L 381.997686 220.664521 
L 381.958892 258.806306 
L 382.007378 223.139719 
L 382.065472 268.118038 
L 382.036437 221.210671 
L 382.11864 233.330035 
L 382.12347 233.056365 
L 382.133127 225.008631 
L 382.19583 273.043501 
L 382.229547 240.066639 
L 382.330501 222.592588 
L 382.248799 270.891095 
L 382.3449 233.619777 
L 382.378472 270.089147 
L 382.445519 225.513018 
L 382.450304 227.170199 
L 382.455087 222.635275 
L 382.52676 254.163957 
L 382.541077 245.351384 
L 382.579227 279.476448 
L 382.574461 226.046049 
L 382.612574 228.328125 
L 382.674418 221.980261 
L 382.655401 245.623097 
L 382.683923 229.169003 
L 382.726663 262.810014 
L 382.788304 217.225264 
L 382.793042 232.768991 
L 382.854566 223.533137 
L 382.849837 258.057238 
L 382.8782 230.288686 
L 382.882925 257.345637 
L 382.982 225.118511 
L 382.98671 232.662398 
L 382.991421 224.849687 
L 383.047893 268.7529 
L 383.08549 233.516646 
L 383.090187 254.709409 
L 383.108967 221.670418 
L 383.193355 223.23643 
L 383.240149 256.675724 
L 383.300886 224.62655 
L 383.319554 217.586649 
L 383.324219 238.89549 
L 383.347536 229.66187 
L 383.366178 283.901565 
L 383.440646 223.874869 
L 383.463885 274.223672 
L 383.47782 225.321629 
L 383.575214 247.307327 
L 383.626121 224.739856 
L 383.676954 256.204619 
L 383.681571 240.581806 
L 383.736932 264.162355 
L 383.718488 222.870758 
L 383.787603 232.037527 
L 383.81521 258.962141 
L 383.85658 220.249647 
L 383.897901 243.103692 
L 383.96208 224.824178 
L 383.934589 265.500041 
L 384.003275 239.999065 
L 384.007849 275.090461 
L 384.10377 223.288431 
L 384.112891 245.045055 
L 384.117451 255.856208 
L 384.172122 223.531951 
L 384.213069 248.811067 
L 384.26759 221.832571 
L 384.312959 267.967111 
L 384.326558 227.056004 
L 384.335621 218.831186 
L 384.358268 249.194175 
L 384.362796 230.803962 
L 384.367323 271.289037 
L 384.412562 216.935421 
L 384.471284 224.793232 
L 384.475797 224.269856 
L 384.484822 233.457026 
L 384.507372 216.537295 
L 384.59293 255.07894 
L 384.624398 216.367268 
L 384.709669 224.964474 
L 384.749987 266.459399 
L 384.808142 221.723698 
L 384.821548 252.816967 
L 384.830483 217.098723 
L 384.910793 260.641691 
L 384.937522 224.58041 
L 384.982024 213.259081 
L 385.053109 252.617836 
L 385.124049 207.800684 
L 385.137334 256.680291 
L 385.163889 228.187852 
L 385.168313 241.349736 
L 385.225772 200.254841 
L 385.265496 224.02555 
L 385.305174 203.055755 
L 385.336003 231.425536 
L 385.375601 220.853134 
L 385.459048 238.635144 
L 385.38879 211.74244 
L 385.472206 220.960842 
L 385.551047 206.654383 
L 385.480975 237.09921 
L 385.581659 219.996947 
L 385.629709 235.894805 
L 385.642802 205.671245 
L 385.677693 211.15753 
L 385.682052 206.929855 
L 385.695125 241.013775 
L 385.782155 216.258894 
L 385.786501 226.653807 
L 385.877636 183.419018 
L 385.88197 182.368842 
L 385.894969 197.007214 
L 385.8993 213.770873 
L 385.916622 176.124244 
L 386.007417 209.390665 
L 386.020368 227.052815 
L 386.110893 196.846522 
L 386.115198 224.512409 
L 386.184002 188.30451 
L 386.222645 203.285573 
L 386.226936 200.686361 
L 386.282671 230.125525 
L 386.304083 219.439741 
L 386.308364 219.158571 
L 386.312645 205.741801 
L 386.393872 234.723472 
L 386.415216 229.741131 
L 386.419484 229.79753 
L 386.48343 199.225679 
L 386.428017 259.92954 
L 386.530249 210.225813 
L 386.627939 250.043989 
L 386.543006 208.016859 
L 386.644901 229.540392 
L 386.77185 197.561659 
L 386.708433 253.594143 
L 386.776073 197.6698 
L 386.784519 198.742912 
L 386.788741 197.768624 
L 386.868863 262.927972 
L 386.906752 233.889202 
L 386.974007 213.449243 
L 386.940396 245.747857 
L 387.015975 220.328929 
L 387.120675 267.148201 
L 387.074646 193.664713 
L 387.129037 230.190156 
L 387.145756 211.798261 
L 387.166643 254.343187 
L 387.233397 226.923943 
L 387.275053 254.678028 
L 387.28754 214.768362 
L 387.341599 222.200689 
L 387.345754 221.9458 
L 387.432892 255.22163 
L 387.428747 215.352479 
L 387.453607 219.310528 
L 387.511543 246.982079 
L 387.536343 213.851864 
L 387.569383 236.088417 
L 387.639487 194.455368 
L 387.618883 239.144804 
L 387.676544 226.877564 
L 387.721783 263.892121 
L 387.701227 210.157561 
L 387.783376 235.205512 
L 387.836669 211.400037 
L 387.881699 256.261342 
L 387.89397 213.19595 
L 387.959342 259.490083 
L 387.926671 198.157285 
L 388.004213 214.946437 
L 388.11817 250.782559 
L 388.065308 209.413237 
L 388.122233 242.483351 
L 388.231755 204.075259 
L 388.235804 210.047762 
L 388.264139 245.566365 
L 388.304577 208.549907 
L 388.353041 220.854839 
L 388.461838 198.44221 
L 388.385313 236.001762 
L 388.469883 205.211746 
L 388.481948 239.709888 
L 388.5141 195.286217 
L 388.586334 228.364917 
L 388.59435 242.361693 
L 388.70639 197.204087 
L 388.742326 184.93648 
L 388.762274 220.841634 
L 388.814087 194.866793 
L 388.91748 249.020587 
L 388.941296 222.221254 
L 389.000766 207.64825 
L 388.980954 254.186514 
L 389.044312 225.608724 
L 389.087803 206.179339 
L 389.154911 253.248863 
L 389.265159 211.080437 
L 389.16674 253.865581 
L 389.26909 218.532628 
L 389.27695 256.716845 
L 389.371139 207.442473 
L 389.375058 219.604157 
L 389.394646 206.317551 
L 389.390729 234.919244 
L 389.48461 215.341216 
L 389.574341 254.85469 
L 389.589923 212.630623 
L 389.593817 236.667376 
L 389.659954 207.606371 
L 389.667727 258.700076 
L 389.706564 225.736952 
L 389.722086 248.137356 
L 389.772487 211.740235 
L 389.822814 244.42205 
L 389.919393 209.158423 
L 389.911677 258.236171 
L 389.934821 213.468855 
L 389.938677 268.019946 
L 390.038779 208.682861 
L 390.046467 225.250113 
L 390.057996 233.037597 
L 390.069522 222.621261 
L 390.169248 209.863816 
L 390.161587 239.501108 
L 390.173078 217.37795 
L 390.253408 243.760643 
L 390.272507 208.62266 
L 390.283962 227.079465 
L 390.390687 209.145586 
L 390.329741 264.876307 
L 390.398298 213.307273 
L 390.459124 243.726259 
L 390.417317 211.372185 
L 390.504673 223.232708 
L 390.508466 209.357408 
L 390.565313 246.464557 
L 390.610723 228.620371 
L 390.614504 229.042429 
L 390.674953 208.264734 
L 390.629626 241.39378 
L 390.72399 234.189673 
L 390.765428 204.083192 
L 390.784248 215.983845 
L 390.885697 255.99926 
L 390.859424 201.692987 
L 390.896951 240.531373 
L 390.904451 202.063594 
L 390.994332 244.00774 
L 391.009289 212.243047 
L 391.016765 238.729651 
L 391.08771 207.660944 
L 391.117538 211.67107 
L 391.139892 244.870127 
L 391.128717 210.298176 
L 391.232881 220.309209 
L 391.318211 251.36087 
L 391.333029 210.706242 
L 391.340436 248.897998 
L 391.344139 203.853928 
L 391.443967 215.759742 
L 391.539828 208.620417 
L 391.506675 228.815062 
L 391.543509 213.969154 
L 391.576627 237.146005 
L 391.646438 207.371849 
L 391.657448 231.271294 
L 391.756381 205.968824 
L 391.723434 254.605951 
L 391.771013 215.603774 
L 391.855032 208.177525 
L 391.887854 264.711178 
L 391.906075 200.404628 
L 391.997036 211.502078 
L 392.000669 248.538405 
L 392.040613 206.549954 
L 392.109498 231.625959 
L 392.174631 203.830584 
L 392.149316 242.367353 
L 392.217986 210.946855 
L 392.254074 236.631758 
L 392.304533 204.928112 
L 392.329736 229.390447 
L 392.376491 205.798313 
L 392.351323 261.329877 
L 392.441127 223.093962 
L 392.530698 238.569824 
L 392.455474 203.032726 
L 392.548585 222.424516 
L 392.627177 207.66732 
L 392.577185 238.571454 
L 392.655712 219.267963 
L 392.716271 250.735872 
L 392.734062 206.458839 
L 392.766064 221.296044 
L 392.780277 202.661352 
L 392.805136 235.443826 
L 392.879608 214.271339 
L 392.88315 238.882953 
L 392.92563 206.820475 
L 392.989251 212.796146 
L 393.105589 257.66029 
L 393.013962 204.163323 
L 393.109109 237.033002 
L 393.175908 204.425338 
L 393.221538 217.983612 
L 393.256598 204.875335 
L 393.228553 237.537363 
L 393.267109 216.779878 
L 393.330109 203.389283 
L 393.375537 275.470884 
L 393.480147 202.591898 
L 393.487109 224.380952 
L 393.598324 205.579882 
L 393.553186 243.863783 
L 393.601793 209.463353 
L 393.664189 254.083947 
L 393.629539 201.514809 
L 393.7161 217.147017 
L 393.719558 205.013422 
L 393.747209 242.895683 
L 393.830031 206.410945 
L 393.902339 233.443463 
L 393.912656 202.900476 
L 393.94359 221.967226 
L 393.988223 237.548864 
L 394.022518 203.567361 
L 394.039652 222.398676 
L 394.125198 200.290271 
L 394.135449 237.695423 
L 394.145698 213.985006 
L 394.166185 249.427059 
L 394.244609 200.001188 
L 394.254825 205.467712 
L 394.329652 230.948693 
L 394.367005 226.631873 
L 394.428042 204.65724 
L 394.475441 228.510952 
L 394.478824 213.447915 
L 394.576792 203.128741 
L 394.556545 246.293632 
L 394.586911 210.316566 
L 394.61051 232.693816 
L 394.620619 202.870992 
L 394.698024 217.866322 
L 394.75177 204.667659 
L 394.738341 251.946341 
L 394.802081 209.703415 
L 394.818835 240.726594 
L 394.882427 203.917794 
L 394.912509 226.739636 
L 394.965924 204.694984 
L 394.91919 237.472183 
L 395.015926 211.440078 
L 395.019256 249.625611 
L 395.092455 205.496902 
L 395.125677 222.95502 
L 395.192024 240.099166 
L 395.172133 204.069478 
L 395.22515 219.612819 
L 395.258245 202.595069 
L 395.314433 231.633714 
L 395.330942 226.783053 
L 395.436412 236.16382 
L 395.403487 207.693986 
L 395.442994 229.339339 
L 395.544844 201.532375 
L 395.469306 250.821201 
L 395.557964 212.385332 
L 395.577635 202.179742 
L 395.620218 259.84683 
L 395.656209 217.452304 
L 395.659479 225.337453 
L 395.705227 201.997633 
L 395.763957 216.966881 
L 395.848615 203.28238 
L 395.845363 250.362328 
L 395.868122 215.189246 
L 395.871372 271.309888 
L 395.91035 200.480503 
L 395.978456 214.628323 
L 396.059361 236.554411 
L 396.075519 202.429747 
L 396.088441 210.21259 
L 396.098128 239.985925 
L 396.117496 203.592615 
L 396.156198 216.48646 
L 396.159422 199.302888 
L 396.233474 242.448464 
L 396.265622 204.892253 
L 396.275261 243.016959 
L 396.281685 203.715884 
L 396.374702 217.547665 
L 396.46747 243.52261 
L 396.486633 200.144678 
L 396.595022 252.572402 
L 396.521737 196.034994 
L 396.598205 217.21741 
L 396.607751 206.476632 
L 396.610933 225.658775 
L 396.652267 220.945277 
L 396.655445 253.798973 
L 396.737959 199.305789 
L 396.760141 219.116012 
L 396.785474 197.872739 
L 396.861364 237.710044 
L 396.870838 214.203588 
L 396.873996 244.54134 
L 396.94339 200.359973 
L 396.981184 210.926233 
L 397.047223 257.739544 
L 396.996919 201.43516 
L 397.091179 226.74923 
L 397.188314 201.600288 
L 397.182056 235.810893 
L 397.203956 213.850557 
L 397.213337 239.612755 
L 397.222716 197.817612 
L 397.316366 225.181601 
L 397.350642 202.592813 
L 397.422199 229.157204 
L 397.428415 214.940713 
L 397.487406 260.608513 
L 397.512214 201.541423 
L 397.540102 217.556361 
L 397.5432 204.730222 
L 397.620543 237.589002 
L 397.648344 213.161758 
L 397.660693 241.739568 
L 397.673038 201.531238 
L 397.759328 232.821932 
L 397.783943 206.276404 
L 397.854613 245.344645 
L 397.876093 208.228911 
L 397.922077 239.195874 
L 397.95576 201.67506 
L 397.98941 222.919969 
L 397.992467 196.883113 
L 398.019973 226.930727 
L 398.09931 212.550815 
L 398.163258 248.676137 
L 398.160216 200.083655 
L 398.205825 215.305395 
L 398.242269 203.484695 
L 398.287771 250.603644 
L 398.315043 221.715218 
L 398.390688 246.381063 
L 398.357425 198.186718 
L 398.417879 228.357007 
L 398.472199 203.035744 
L 398.457119 236.474664 
L 398.487273 208.721848 
" style="fill:none;stroke:#1f77b4;stroke-linecap:square;stroke-width:1.5;"/>
   </g>
   <g id="line2d_48">
    <path clip-path="url(#p9ed129ef2e)" d="M 281.571727 307.584 
L 281.571727 41.472 
" style="fill:none;stroke:#ff0000;stroke-dasharray:5.55,2.4;stroke-dashoffset:0;stroke-width:1.5;"/>
   </g>
   <g id="line2d_49">
    <path clip-path="url(#p9ed129ef2e)" d="M 300.737464 307.584 
L 300.737464 41.472 
" style="fill:none;stroke:#ff0000;stroke-dasharray:5.55,2.4;stroke-dashoffset:0;stroke-width:1.5;"/>
   </g>
   <g id="line2d_50">
    <path clip-path="url(#p9ed129ef2e)" d="M 322.909293 307.584 
L 322.909293 41.472 
" style="fill:none;stroke:#ff0000;stroke-dasharray:5.55,2.4;stroke-dashoffset:0;stroke-width:1.5;"/>
   </g>
   <g id="patch_3">
    <path d="M 57.6 307.584 
L 57.6 41.472 
" style="fill:none;stroke:#000000;stroke-linecap:square;stroke-linejoin:miter;stroke-width:0.8;"/>
   </g>
   <g id="patch_4">
    <path d="M 414.72 307.584 
L 414.72 41.472 
" style="fill:none;stroke:#000000;stroke-linecap:square;stroke-linejoin:miter;stroke-width:0.8;"/>
   </g>
   <g id="patch_5">
    <path d="M 57.6 307.584 
L 414.72 307.584 
" style="fill:none;stroke:#000000;stroke-linecap:square;stroke-linejoin:miter;stroke-width:0.8;"/>
   </g>
   <g id="patch_6">
    <path d="M 57.6 41.472 
L 414.72 41.472 
" style="fill:none;stroke:#000000;stroke-linecap:square;stroke-linejoin:miter;stroke-width:0.8;"/>
   </g>
   <g id="text_15">
    <!-- DFT up -->
    <g transform="translate(215.010938 35.472)scale(0.12 -0.12)">
     <defs>
      <path d="M 1259 4147 
L 1259 519 
L 2022 519 
Q 2988 519 3436 956 
Q 3884 1394 3884 2338 
Q 3884 3275 3436 3711 
Q 2988 4147 2022 4147 
L 1259 4147 
z
M 628 4666 
L 1925 4666 
Q 3281 4666 3915 4102 
Q 4550 3538 4550 2338 
Q 4550 1131 3912 565 
Q 3275 0 1925 0 
L 628 0 
L 628 4666 
z
" id="DejaVuSans-44" transform="scale(0.015625)"/>
      <path d="M -19 4666 
L 3928 4666 
L 3928 4134 
L 2272 4134 
L 2272 0 
L 1638 0 
L 1638 4134 
L -19 4134 
L -19 4666 
z
" id="DejaVuSans-54" transform="scale(0.015625)"/>
      <path d="M 1159 525 
L 1159 -1331 
L 581 -1331 
L 581 3500 
L 1159 3500 
L 1159 2969 
Q 1341 3281 1617 3432 
Q 1894 3584 2278 3584 
Q 2916 3584 3314 3078 
Q 3713 2572 3713 1747 
Q 3713 922 3314 415 
Q 2916 -91 2278 -91 
Q 1894 -91 1617 61 
Q 1341 213 1159 525 
z
M 3116 1747 
Q 3116 2381 2855 2742 
Q 2594 3103 2138 3103 
Q 1681 3103 1420 2742 
Q 1159 2381 1159 1747 
Q 1159 1113 1420 752 
Q 1681 391 2138 391 
Q 2594 391 2855 752 
Q 3116 1113 3116 1747 
z
" id="DejaVuSans-70" transform="scale(0.015625)"/>
     </defs>
     <use xlink:href="#DejaVuSans-44"/>
     <use x="77.001953" xlink:href="#DejaVuSans-46"/>
     <use x="132.771484" xlink:href="#DejaVuSans-54"/>
     <use x="193.855469" xlink:href="#DejaVuSans-20"/>
     <use x="225.642578" xlink:href="#DejaVuSans-75"/>
     <use x="289.021484" xlink:href="#DejaVuSans-70"/>
    </g>
   </g>
  </g>
 </g>
 <defs>
  <clipPath id="p9ed129ef2e">
   <rect height="266.112" width="357.12" x="57.6" y="41.472"/>
  </clipPath>
 </defs>
</svg>
